<?xml version="1.0" encoding="utf-8"?>
<!-- Generator: Adobe Illustrator 16.0.3, SVG Export Plug-In . SVG Version: 6.00 Build 0)  -->
<!DOCTYPE svg PUBLIC "-//W3C//DTD SVG 1.1//EN" "http://www.w3.org/Graphics/SVG/1.1/DTD/svg11.dtd">
<svg version="1.1" id="layer_1" xmlns="http://www.w3.org/2000/svg" xmlns:xlink="http://www.w3.org/1999/xlink" x="0px" y="0px"
	 width="800px" height="800px" viewBox="0 0 800 800" enable-background="new 0 0 800 800" xml:space="preserve">
<circle fill="#FAFAFA" cx="402.5" cy="402.256" r="383.257"/>
<g>
	<g>
		<path fill="#CD747A" d="M267.73,466.563c0-10.045-0.026-20.088,0.004-30.131c0.259-82.582,0.532-165.163,0.785-247.743
			c0.043-13.965,8.252-26.229,20.889-31.06c12.895-4.931,27.957-1.351,37.137,9.079c5.408,6.146,8.452,12.975,8.457,21.688
			c0.021,56.068,0.504,112.136,0.827,168.204c0.039,6.628,3.782,10.865,9.977,11.226c6.233,0.362,11.421-4.083,11.686-10.707
			c0.426-10.667,0.53-21.351,0.575-32.029c0.253-59.504,0.567-119.008,0.552-178.512c-0.003-10.879,2.174-20.412,10.664-27.746
			c10.118-8.741,21.59-11.299,34.042-6.176c12.893,5.304,20.808,15.139,21.209,29.25c0.77,27.065,0.923,54.152,1.015,81.23
			c0.147,44.248,0.119,88.498-0.061,132.746c-0.021,5.617,2.378,9.232,6.971,11.303c4.951,2.233,9.574,0.464,12.712-3.662
			c1.419-1.867,1.954-4.818,1.967-7.281c0.25-57.978,0.344-115.958,0.561-173.936c0.025-6.665,0.41-13.343,0.962-19.987
			c1.207-14.521,10.695-25.065,25.422-28.58c13.407-3.201,28.176,2.717,35.248,14.335c3.496,5.741,5.491,11.767,5.482,18.839
			c-0.081,66.94,0.149,133.88,0.318,200.82c0.01,4.193-0.05,8.421,0.453,12.569c0.778,6.425,6.037,10.81,11.646,10.207
			c5.849-0.628,9.896-5.407,9.931-11.712c0.275-48.63,0.585-97.26,0.813-145.891c0.098-20.551,20.22-36.541,40.299-31.886
			c14.485,3.357,24.483,14.436,25.479,29.205c0.703,10.45,0.711,20.961,0.702,31.445c-0.064,84.491-0.182,168.981-0.354,253.473
			c-0.026,12.582-0.113,25.183-0.724,37.746c-2.609,53.769-35.777,110.233-97.496,130.586c-21.925,7.229-44.386,10.213-67.49,10.469
			c-30.592,0.34-60.529-2.676-89.532-12.772c-36.43-12.682-66.273-34.311-87.689-66.575
			C224.58,559.48,188.298,504.158,152.168,448.74c-12.213-18.733-6.942-44.712,10.643-56.626c12.871-8.72,40.715-8.271,53.597,8.623
			c15.258,20.012,30.233,40.237,45.338,60.368c1.467,1.954,2.973,3.881,4.46,5.819C266.712,466.803,267.221,466.683,267.73,466.563z
			"/>
	</g>
</g>
<linearGradient id="SVGID_1_" gradientUnits="userSpaceOnUse" x1="-446.3586" y1="550.7188" x2="-446.3587" y2="-238.4814" gradientTransform="matrix(1 0 0 1 846.3604 243.8809)">
	<stop  offset="0" style="stop-color:#2C9EF6"/>
	<stop  offset="0.7219" style="stop-color:#AF86F2"/>
</linearGradient>
<path fill="url(#SVGID_1_)" d="M400,794.6c-53.269,0-104.944-10.436-153.603-31.014c-46.987-19.875-89.188-48.326-125.425-84.563
	c-36.237-36.237-64.687-78.437-84.562-125.427C15.833,504.943,5.399,453.266,5.399,400c0-53.268,10.438-104.943,31.017-153.602
	c19.875-46.988,48.326-89.188,84.562-125.425c36.236-36.237,78.438-64.688,125.425-84.563C295.055,15.834,346.734,5.399,400,5.399
	c53.264,0,104.94,10.437,153.598,31.016c46.99,19.875,89.188,48.325,125.427,84.563c36.235,36.235,64.688,78.437,84.563,125.425
	c20.58,48.655,31.017,100.333,31.017,153.602c0,53.267-10.437,104.942-31.017,153.601c-19.875,46.989-48.324,89.188-84.563,125.427
	c-36.233,36.232-78.437,64.688-125.427,84.563C504.943,784.164,453.266,794.6,400,794.6z M400,27.399
	c-205.453,0-372.604,167.147-372.604,372.602c0,205.45,167.148,372.6,372.604,372.6c205.45,0,372.6-167.146,372.6-372.6
	S605.449,27.399,400,27.399z"/>
</svg>
