<svg version="1" xmlns="http://www.w3.org/2000/svg" width="800" height="800"><circle cx="400" cy="400" r="373" fill="#fafafa"/><linearGradient id="a" gradientUnits="userSpaceOnUse" x1="298" y1="-14" x2="298" y2="775" gradientTransform="matrix(1 0 0 -1 102 780)"><stop offset="0" stop-color="#2c9ef6"/><stop offset="1" stop-color="#af86f2"/></linearGradient><path d="M400 795A392 392 0 0 1 5 400 392 392 0 0 1 400 5a392 392 0 0 1 395 395 392 392 0 0 1-395 395zm0-768a373 373 0 1 0 1 746 373 373 0 0 0-1-746zm71 129c-32 0-60 27-60 60 0 30 20 50 50 50 33 0 62-25 62-59 0-31-22-51-52-51zm15 363c-10 0-51 63-73 63-6 0-9-5-9-10 0-12 8-31 13-42l53-145c27-73-7-92-39-92-43 0-82 22-111 50-10 10-43 41-43 54 0 5 5 10 10 10 13 0 49-65 76-65 6 0 13 7 8 20l-52 131c-5 13-30 74-30 110 0 28 18 41 45 41 75 0 161-92 161-114 0-7-5-11-9-11z" fill="url(#a)"/></svg>