<svg version="1" xmlns="http://www.w3.org/2000/svg" width="800" height="800"><path fill="#fafafa" d="M380 89h47l151 250 205 370-17 49-30 22-681-8-37-42 336-622z"/><linearGradient id="a" gradientUnits="userSpaceOnUse" x1="298" y1="-14" x2="298" y2="710" gradientTransform="matrix(1 0 0 -1 102 780)"><stop offset="0" stop-color="#2c9ef6"/><stop offset="1" stop-color="#af86f2"/></linearGradient><path d="M407 562h-13c-2-23-6-51-14-83l-16-65c-9-39-14-67-14-84 0-16 5-28 14-38 9-9 21-14 36-14 14 0 26 5 36 15 9 9 14 21 14 36s-5 43-15 85l-16 65c-6 23-10 51-12 83zm-7 42c14 0 25 5 35 15 9 9 14 21 14 34s-5 25-14 34a47 47 0 0 1-35 15c-13 0-24-5-34-15-9-9-14-21-14-34s5-25 14-34c9-10 21-15 34-15zm384 70L462 108a71 71 0 0 0-62-38c-26 0-49 14-62 38L16 674a84 84 0 0 0-2 80c13 25 37 41 64 41h644c27 0 51-16 64-41s12-55-2-80zm-26 63c-7 14-21 23-36 23H78c-15 0-29-9-36-23s-7-31 1-45l322-566c8-13 21-21 35-21s27 8 35 21l322 566c8 14 8 31 1 45z" fill="url(#a)"/></svg>