<svg version="1" xmlns="http://www.w3.org/2000/svg" width="800" height="800"><circle cx="400" cy="400" r="373" fill="#fafafa"/><path d="M773 400a372 372 0 1 1-745 0h372V28c206 0 373 166 373 372z" fill="#dbecf9"/><linearGradient id="a" gradientUnits="userSpaceOnUse" x1="195" y1="834" x2="195" y2="45" gradientTransform="translate(205 -40)"><stop offset="0" stop-color="#2c9ef6"/><stop offset="1" stop-color="#af86f2"/></linearGradient><path d="M400 795A392 392 0 0 1 5 400 392 392 0 0 1 400 5a392 392 0 0 1 395 395 392 392 0 0 1-395 395zm0-768a373 373 0 1 0 1 746 373 373 0 0 0-1-746z" fill="url(#a)"/><path d="M411 191v198h-22V191h22zM108 389v22h303v-22H108z" fill="#2c9ef6"/></svg>