<svg version="1" xmlns="http://www.w3.org/2000/svg" width="800" height="800"><circle cx="400" cy="400" r="373" fill="#fafafa"/><linearGradient id="a" gradientUnits="userSpaceOnUse" x1="298" y1="-14" x2="298" y2="775" gradientTransform="matrix(1 0 0 -1 102 780)"><stop offset="0" stop-color="#2c9ef6"/><stop offset="1" stop-color="#af86f2"/></linearGradient><path d="M400 795A392 392 0 0 1 5 400 392 392 0 0 1 400 5a392 392 0 0 1 395 395 392 392 0 0 1-395 395zm0-768a373 373 0 1 0 1 746 373 373 0 0 0-1-746zm8 464h-16c-1-27-7-60-16-99l-19-79c-11-46-17-80-17-101 0-18 6-33 17-44 11-12 25-17 43-17 17 0 31 6 43 17 11 11 17 26 17 44s-6 52-18 101l-19 79c-7 28-12 61-15 99zm-8 51c17 0 30 6 42 17 11 12 17 26 17 42s-6 30-17 41a56 56 0 0 1-42 17c-16 0-29-6-41-17a57 57 0 0 1-17-41c0-16 6-30 17-42 11-11 25-17 41-17z" fill="url(#a)"/></svg>