<?xml version="1.0" encoding="utf-8"?>
<!-- Generator: Adobe Illustrator 22.1.0, SVG Export Plug-In . SVG Version: 6.00 Build 0)  -->
<svg version="1.1" id="layer_1" xmlns="http://www.w3.org/2000/svg" xmlns:xlink="http://www.w3.org/1999/xlink" x="0px" y="0px"
	 viewBox="0 0 216 144" style="enable-background:new 0 0 216 144;" xml:space="preserve">
<style type="text/css">
	.st0{fill:#74ACDF;}
	.st1{fill:#FFFFFF;}
	.st2{fill:#F6B40E;stroke:#85340A;stroke-width:1.1116;}
	.st3{fill:#85340A;}
	.st4{fill:#F6B40E;stroke:#85340A;stroke-width:1.5;}
	.st5{fill:#843511;}
</style>
<rect class="st0" width="216" height="144"/>
<rect y="48" class="st1" width="216" height="48"/>
<g id="rays">
	<path id="ray1" class="st2" d="M107.1,72.4l8.2,17.9c0,0,0.1,0.3,0.4,0.2c0.2-0.1,0.1-0.4,0.1-0.4l-6.8-18.4 M108.7,78.6
		c-0.1,2.7,1.6,4.2,1.4,6.6c-0.2,2.4,1.1,3.8,1.4,4.7c0.3,0.9-0.3,1.5-0.1,1.6c0.3,0.1,0.9-0.6,0.7-2c-0.2-1.3-1.2-1.7-1-4.7
		c0.2-3-1.2-3.7-0.9-6.4"/>
	<g transform="rotate(22.5 400,250)">
		<path id="ray1_1_" class="st2" d="M107,72l0.7,19.6c0,0,0,0.4,0.2,0.4c0.2,0,0.2-0.4,0.2-0.4L109,72 M106.1,78.3
			c-1.1,2.5-0.2,4.5-1.3,6.6c-1.1,2.2-0.4,3.9-0.5,4.9c-0.1,1-0.9,1.3-0.7,1.5c0.2,0.2,1.1-0.2,1.4-1.5c0.3-1.3-0.5-2.1,0.9-4.7
			c1.4-2.6,0.3-3.8,1.6-6.2"/>
	</g>
	<g transform="rotate(45 400,250)">
		<path id="ray1_2_" class="st2" d="M107.1,71.6L100.3,90c0,0-0.1,0.3,0.1,0.4c0.2,0.1,0.4-0.2,0.4-0.2l8.2-17.9 M103.9,77.2
			c-2,1.8-1.9,4.1-3.7,5.6c-1.9,1.6-1.9,3.5-2.3,4.4c-0.4,0.9-1.3,0.8-1.2,1.1c0.1,0.3,1.1,0.2,1.9-0.9c0.8-1.1,0.4-2.1,2.6-4
			c2.3-1.9,1.7-3.4,3.9-5.1"/>
	</g>
	<g transform="rotate(67.5 400,250)">
		<path id="ray1_3_" class="st2" d="M107.3,71.3L93.9,85.7c0,0-0.3,0.3-0.1,0.4c0.2,0.2,0.4-0.1,0.4-0.1l14.4-13.4 M102.2,75.2
			c-2.5,0.9-3.3,3.1-5.6,3.8c-2.3,0.7-3.1,2.5-3.8,3.1c-0.8,0.6-1.5,0.3-1.5,0.6c0,0.3,0.9,0.6,2.1-0.1c1.2-0.7,1.1-1.8,4-2.7
			c2.8-0.9,2.9-2.5,5.5-3.2"/>
	</g>
	<path id="ray2" class="st3" d="M109.2,79c0.1,2.6,1.6,3.8,1.3,6.1c0.6-1.9-0.9-3.3-0.8-6.1 M107.5,72.2l5.6,12.3l-4.7-12.6"/>
	<g transform="rotate(22.5 400,250)">
		<path id="ray2_1_" class="st3" d="M106.5,79c-0.9,2.5,0,4.1-1.1,6.2c1.3-1.5,0.4-3.4,1.6-6 M107.5,72l0.5,13.5l0.5-13.5"/>
	</g>
	<g transform="rotate(45 400,250)">
		<path id="ray2_2_" class="st3" d="M103.9,77.8c-1.8,1.9-1.5,3.8-3.4,5.3c1.8-0.9,1.7-3,3.7-4.9 M107.5,71.8l-4.7,12.6l5.6-12.3"/>
	</g>
	<g transform="rotate(67.5 400,250)">
		<path id="ray2_3_" class="st3" d="M102,75.8c-2.4,1.1-2.9,2.9-5.2,3.6c2-0.1,2.7-2.1,5.3-3.1 M107.6,71.7l-9.2,9.9l9.9-9.2"/>
	</g>
</g>
<g>
	<g id="rays_1_">
		<path id="ray1_4_" class="st2" d="M107.6,71.1l-17.9,8.2c0,0-0.3,0.1-0.2,0.4c0.1,0.2,0.4,0.1,0.4,0.1l18.4-6.8 M101.4,72.7
			c-2.7-0.1-4.2,1.6-6.6,1.4c-2.4-0.2-3.8,1.1-4.7,1.4c-0.9,0.3-1.5-0.3-1.6-0.1c-0.1,0.3,0.6,0.9,2,0.7c1.3-0.2,1.7-1.2,4.7-1
			c3,0.2,3.7-1.2,6.4-0.9"/>
		<g transform="rotate(22.5 400,250)">
			<path id="ray1_5_" class="st2" d="M108,71l-19.6,0.7c0,0-0.4,0-0.4,0.2c0,0.2,0.4,0.2,0.4,0.2L108,73 M101.7,70.1
				C99.2,69,97.2,70,95,68.9c-2.2-1.1-3.9-0.4-4.9-0.5c-1-0.1-1.3-0.9-1.5-0.7c-0.2,0.2,0.2,1.1,1.5,1.4c1.3,0.3,2.1-0.5,4.7,0.9
				c2.6,1.4,3.8,0.3,6.2,1.6"/>
		</g>
		<g transform="rotate(45 400,250)">
			<path id="ray1_6_" class="st2" d="M108.4,71.1L90,64.3c0,0-0.3-0.1-0.4,0.1c-0.1,0.2,0.2,0.4,0.2,0.4l17.9,8.2 M102.8,67.9
				c-1.8-2-4.1-1.9-5.6-3.7c-1.6-1.9-3.5-1.9-4.4-2.3c-0.9-0.4-0.8-1.3-1.1-1.2c-0.3,0.1-0.2,1.1,0.9,1.9c1.1,0.8,2.1,0.4,4,2.6
				c1.9,2.3,3.4,1.7,5.1,3.9"/>
		</g>
		<g transform="rotate(67.5 400,250)">
			<path id="ray1_7_" class="st2" d="M108.7,71.3L94.3,57.9c0,0-0.3-0.3-0.4-0.1c-0.2,0.2,0.1,0.4,0.1,0.4l13.4,14.4 M104.8,66.2
				c-0.9-2.5-3.1-3.3-3.8-5.6c-0.7-2.3-2.5-3.1-3.1-3.8c-0.6-0.8-0.3-1.5-0.6-1.5c-0.3,0-0.6,0.9,0.1,2.1c0.7,1.2,1.8,1.1,2.7,4
				c0.9,2.8,2.5,2.9,3.2,5.5"/>
		</g>
		<path id="ray2_4_" class="st3" d="M101,73.2c-2.6,0.1-3.8,1.6-6.1,1.3c1.9,0.6,3.3-0.9,6.1-0.8 M107.8,71.5l-12.3,5.6l12.6-4.7"/>
		<g transform="rotate(22.5 400,250)">
			<path id="ray2_5_" class="st3" d="M101,70.5c-2.5-0.9-4.1,0-6.2-1.1c1.5,1.3,3.4,0.4,6,1.6 M108,71.5L94.5,72l13.5,0.5"/>
		</g>
		<g transform="rotate(45 400,250)">
			<path id="ray2_6_" class="st3" d="M102.2,67.9c-1.9-1.8-3.8-1.5-5.3-3.4c0.9,1.8,3,1.7,4.9,3.7 M108.2,71.5l-12.6-4.7l12.3,5.6"
				/>
		</g>
		<g transform="rotate(90 400,250)">
			<path id="ray2_7_" class="st3" d="M104.2,66c-1.1-2.4-2.9-2.9-3.6-5.2c0.1,2,2.1,2.7,3.1,5.3 M108.3,71.6l-9.9-9.2l9.2,9.9"/>
		</g>
	</g>
	<g>
		<g id="rays_2_">
			<path id="ray1_8_" class="st2" d="M108.9,71.6l-8.2-17.9c0,0-0.1-0.3-0.4-0.2c-0.2,0.1-0.1,0.4-0.1,0.4l6.8,18.4 M107.3,65.4
				c0.1-2.7-1.6-4.2-1.4-6.6c0.2-2.4-1.1-3.8-1.4-4.7c-0.3-0.9,0.3-1.5,0.1-1.6c-0.3-0.1-0.9,0.6-0.7,2c0.2,1.3,1.2,1.7,1,4.7
				c-0.2,3,1.2,3.7,0.9,6.4"/>
			<g transform="rotate(22.5 400,250)">
				<path id="ray1_9_" class="st2" d="M109,72l-0.7-19.6c0,0,0-0.4-0.2-0.4c-0.2,0-0.2,0.4-0.2,0.4L107,72 M109.9,65.7
					c1.1-2.5,0.2-4.5,1.3-6.6c1.1-2.2,0.4-3.9,0.5-4.9c0.1-1,0.9-1.3,0.7-1.5c-0.2-0.2-1.1,0.2-1.4,1.5c-0.3,1.3,0.5,2.1-0.9,4.7
					c-1.4,2.6-0.3,3.8-1.6,6.2"/>
			</g>
			<g transform="rotate(45 400,250)">
				<path id="ray1_10_" class="st2" d="M108.9,72.4l6.8-18.4c0,0,0.1-0.3-0.1-0.4c-0.2-0.1-0.4,0.2-0.4,0.2l-8.2,17.9 M112.1,66.8
					c2-1.8,1.9-4.1,3.7-5.6c1.9-1.6,1.9-3.5,2.3-4.4c0.4-0.9,1.3-0.8,1.2-1.1c-0.1-0.3-1.1-0.2-1.9,0.9c-0.8,1.1-0.4,2.1-2.6,4
					c-2.3,1.9-1.7,3.4-3.9,5.1"/>
			</g>
			<g transform="rotate(67.5 400,250)">
				<path id="ray1_11_" class="st2" d="M108.7,72.7l13.4-14.4c0,0,0.3-0.3,0.1-0.4c-0.2-0.2-0.4,0.1-0.4,0.1l-14.4,13.4 M113.8,68.8
					c2.5-0.9,3.3-3.1,5.6-3.8c2.3-0.7,3.1-2.5,3.8-3.1c0.8-0.6,1.5-0.3,1.5-0.6c0-0.3-0.9-0.6-2.1,0.1c-1.2,0.7-1.1,1.8-4,2.7
					c-2.8,0.9-2.9,2.5-5.5,3.2"/>
			</g>
			<path id="ray2_8_" class="st3" d="M106.8,65c-0.1-2.6-1.6-3.8-1.3-6.1c-0.6,1.9,0.9,3.3,0.8,6.1 M108.5,71.8l-5.6-12.3l4.7,12.6"
				/>
			<g transform="rotate(22.5 400,250)">
				<path id="ray2_9_" class="st3" d="M109.5,65c0.9-2.5,0-4.1,1.1-6.2c-1.3,1.5-0.4,3.4-1.6,6 M108.5,72L108,58.5L107.5,72"/>
			</g>
			<g transform="rotate(45 400,250)">
				<path id="ray2_10_" class="st3" d="M112.1,66.2c1.8-1.9,1.5-3.8,3.4-5.3c-1.8,0.9-1.7,3-3.7,4.9 M108.5,72.2l4.7-12.6l-5.6,12.3
					"/>
			</g>
			<g transform="rotate(180 400,250)">
				<path id="ray2_11_" class="st3" d="M114,68.2c2.4-1.1,2.9-2.9,5.2-3.6c-2,0.1-2.7,2.1-5.3,3.1 M108.4,72.3l9.2-9.9l-9.9,9.2"/>
			</g>
		</g>
		<g>
			<g id="rays_3_">
				<path id="ray1_12_" class="st2" d="M108.4,72.9l17.9-8.2c0,0,0.3-0.1,0.2-0.4c-0.1-0.2-0.4-0.1-0.4-0.1l-18.4,6.8 M114.6,71.3
					c2.7,0.1,4.2-1.6,6.6-1.4c2.4,0.2,3.8-1.1,4.7-1.4c0.9-0.3,1.5,0.3,1.6,0.1c0.1-0.3-0.6-0.9-2-0.7c-1.3,0.2-1.7,1.2-4.7,1
					c-3-0.2-3.7,1.2-6.4,0.9"/>
				<g transform="rotate(22.5 400,250)">
					<path id="ray1_13_" class="st2" d="M108,73l19.6-0.7c0,0,0.4,0,0.4-0.2c0-0.2-0.4-0.2-0.4-0.2L108,71 M114.3,73.9
						c2.5,1.1,4.5,0.2,6.6,1.3c2.2,1.1,3.9,0.4,4.9,0.5c1,0.1,1.3,0.9,1.5,0.7c0.2-0.2-0.2-1.1-1.5-1.4c-1.3-0.3-2.1,0.5-4.7-0.9
						c-2.6-1.4-3.8-0.3-6.2-1.6"/>
				</g>
				<g transform="rotate(45 400,250)">
					<path id="ray1_14_" class="st2" d="M107.6,72.9l18.4,6.8c0,0,0.3,0.1,0.4-0.1c0.1-0.2-0.2-0.4-0.2-0.4l-17.9-8.2 M113.2,76.1
						c1.8,2,4.1,1.9,5.6,3.7c1.6,1.9,3.5,1.9,4.4,2.3c0.9,0.4,0.8,1.3,1.1,1.2c0.3-0.1,0.2-1.1-0.9-1.9c-1.1-0.8-2.1-0.4-4-2.6
						c-1.9-2.3-3.4-1.7-5.1-3.9"/>
				</g>
				<g transform="rotate(67.5 400,250)">
					<path id="ray1_15_" class="st2" d="M107.3,72.7l14.4,13.4c0,0,0.3,0.3,0.4,0.1c0.2-0.2-0.1-0.4-0.1-0.4l-13.4-14.4 M111.2,77.8
						c0.9,2.5,3.1,3.3,3.8,5.6c0.7,2.3,2.5,3.1,3.1,3.8c0.6,0.8,0.3,1.5,0.6,1.5c0.3,0,0.6-0.9-0.1-2.1c-0.7-1.2-1.8-1.1-2.7-4
						c-0.9-2.8-2.5-2.9-3.2-5.5"/>
				</g>
				<path id="ray2_12_" class="st3" d="M115,70.8c2.6-0.1,3.8-1.6,6.1-1.3c-1.9-0.6-3.3,0.9-6.1,0.8 M108.2,72.5l12.3-5.6l-12.6,4.7
					"/>
				<g transform="rotate(22.5 400,250)">
					<path id="ray2_13_" class="st3" d="M115,73.5c2.5,0.9,4.1,0,6.2,1.1c-1.5-1.3-3.4-0.4-6-1.6 M108,72.5l13.5-0.5L108,71.5"/>
				</g>
				<g transform="rotate(45 400,250)">
					<path id="ray2_14_" class="st3" d="M113.8,76.1c1.9,1.8,3.8,1.5,5.3,3.4c-0.9-1.8-3-1.7-4.9-3.7 M107.8,72.5l12.6,4.7
						l-12.3-5.6"/>
				</g>
				<g transform="rotate(270 400,250)">
					<path id="ray2_15_" class="st3" d="M111.8,78c1.1,2.4,2.9,2.9,3.6,5.2c-0.1-2-2.1-2.7-3.1-5.3 M107.7,72.4l9.9,9.2l-9.2-9.9"/>
				</g>
			</g>
			<circle class="st4" cx="108" cy="72" r="8"/>
			<path id="loweyecontour" class="st5" d="M110.7,70.3c-0.5,0-1.1,0.2-1.4,0.7c0.6,0.6,2,0.6,2.9-0.1
				C111.8,70.5,111.3,70.3,110.7,70.3L110.7,70.3z M110.7,70.4c0.5,0,1,0.2,1.1,0.5c-0.6,0.7-1.6,0.6-2.2,0.1
				C109.9,70.6,110.3,70.4,110.7,70.4L110.7,70.4z"/>
			<g transform="matrix(-1 0 0 1 800.25 0)">
				<path id="uppalpebra" class="st3" d="M110.8,69.9c-0.8,0-1,0.2-1.4,0.5c-0.4,0.3-0.6,0.2-0.6,0.3c-0.1,0.1,0,0.2,0.1,0.2
					s0.4-0.2,0.7-0.5c0.4-0.3,0.7-0.3,1.1-0.3c1.1,0,1.7,0.9,1.8,0.9C112.8,70.9,112.1,69.9,110.8,69.9L110.8,69.9z"/>
			</g>
			<g transform="matrix(-1 0 0 1 800.25 0)">
				<path id="eyebrow_nose" class="st3" d="M113,70.3c-1.4-1.2-3.2-1.4-4.2-0.5c-0.2,0.3-0.4,0.7-0.5,1c-0.1,0.7,0.1,1.5,0.6,2.2
					c-0.1,0-0.2,0.1-0.2,0.1c-0.5-0.9-0.7-1.9-0.5-2.8c0-0.2,0.1-0.5,0.2-0.7C109.8,68.6,111.7,68.4,113,70.3L113,70.3z"/>
			</g>
			<g transform="translate(18.862)">
				<circle id="pupil" class="st3" cx="110.7" cy="70.9" r="0.6"/>
			</g>
			<g transform="matrix(-1 0 0 1 800.25 0)">
				<path id="lowpalpebra" class="st3" d="M112.3,71.3c-1,0.8-2.1,0.7-2.7,0.4c-0.6-0.4-0.6-0.5-0.5-0.5c0.1,0,0.2,0.1,0.7,0.4
					C110.3,71.8,111.1,71.8,112.3,71.3L112.3,71.3z"/>
			</g>
			<path class="st3" d="M106.8,73.1c-0.3,0-0.5,0.3-0.5,0.5c0,0.3,0.3,0.5,0.6,0.5c0.2,0,0.3-0.1,0.4-0.2c0.2,0.2,0.5,0.2,0.7,0.2
				c0,0,0.1,0,0.1,0c0.2,0,0.5,0,0.7-0.2c0.1,0.1,0.3,0.2,0.5,0.2c0.3,0,0.6-0.2,0.6-0.5c0-0.3-0.2-0.5-0.5-0.5
				c0.1,0.1,0.2,0.2,0.2,0.4c0,0.2-0.2,0.4-0.4,0.4c-0.2,0-0.4-0.2-0.4-0.4c-0.1,0.1-0.3,0.5-0.8,0.5c-0.5,0-0.7-0.4-0.8-0.5
				c0,0.2-0.2,0.4-0.4,0.4c-0.2,0-0.4-0.2-0.4-0.4C106.5,73.3,106.6,73.2,106.8,73.1L106.8,73.1z"/>
			<path class="st3" d="M107.4,74.7c-0.6,0-0.9,0.6-1.4,0.9c0.3-0.1,0.5-0.4,1-0.6c0.4-0.2,0.8,0.1,1,0.1h0c0.2,0,0.6-0.3,1-0.1
				c0.4,0.2,0.7,0.5,1,0.6c-0.6-0.4-0.8-0.9-1.4-0.9c-0.1,0-0.4,0.1-0.6,0.2h0C107.7,74.8,107.5,74.7,107.4,74.7z"/>
			<path class="st3" d="M107.2,75.5c-0.2,0-0.6,0.1-1,0.2c1.1-0.2,1.4,0.1,1.8,0.1h0c0.5,0,0.7-0.4,1.8-0.1
				c-1.2-0.4-1.5-0.1-1.8-0.1h0C107.8,75.5,107.6,75.5,107.2,75.5L107.2,75.5z"/>
			<path class="st3" d="M106.2,75.7c-0.1,0-0.1,0-0.2,0c1.3,0.1,0.7,0.9,2,0.9h0c1.4,0,0.7-0.7,2-0.9c-1.4-0.1-0.9,0.7-2,0.7h0
				C107,76.3,107.3,75.6,106.2,75.7L106.2,75.7z"/>
			<path class="st3" d="M109.1,77.7c0-0.6-0.5-1.1-1.1-1.1c-0.6,0-1.1,0.5-1.1,1.1c0.1-0.5,0.6-0.9,1.1-0.9
				C108.5,76.8,109,77.1,109.1,77.7L109.1,77.7L109.1,77.7z"/>
			<path id="eyebrow_nose_1_" class="st3" d="M103,70.3c1.4-1.2,3.2-1.4,4.2-0.5c0.2,0.3,0.4,0.7,0.5,1c0.1,0.7-0.1,1.5-0.6,2.2
				c0.1,0,0.2,0.1,0.2,0.1c0.5-0.9,0.7-1.9,0.5-2.8c0-0.2-0.1-0.5-0.2-0.7C106.2,68.6,104.4,68.4,103,70.3L103,70.3z"/>
			<path id="uppalpebra_1_" class="st3" d="M105.2,69.9c0.8,0,1,0.2,1.4,0.5c0.4,0.3,0.6,0.2,0.6,0.3c0.1,0.1,0,0.2-0.1,0.2
				s-0.4-0.2-0.7-0.5c-0.4-0.3-0.7-0.3-1.1-0.3c-1.1,0-1.7,0.9-1.8,0.9C103.3,70.9,104,69.9,105.2,69.9L105.2,69.9z"/>
			<g transform="translate(-19.181)">
				<path id="loweyecontour_1_" class="st5" d="M105.2,70.3c-0.5,0-1.1,0.2-1.4,0.7c0.6,0.6,2,0.6,2.9-0.1
					C106.3,70.5,105.7,70.3,105.2,70.3L105.2,70.3z M105.2,70.4c0.5,0,1,0.2,1.1,0.5c-0.6,0.7-1.6,0.6-2.2,0.1
					C104.3,70.6,104.8,70.4,105.2,70.4L105.2,70.4z"/>
			</g>
			<circle id="pupil_1_" class="st3" cx="105.3" cy="70.9" r="0.6"/>
			<path id="lowpalpebra_1_" class="st3" d="M103.8,71.3c1,0.8,2.1,0.7,2.7,0.4c0.6-0.4,0.6-0.5,0.5-0.5c-0.1,0-0.2,0.1-0.7,0.4
				C105.7,71.8,105,71.8,103.8,71.3L103.8,71.3z"/>
		</g>
	</g>
</g>
</svg>
