<?xml version="1.0" encoding="utf-8"?>
<!-- Generator: Adobe Illustrator 22.1.0, SVG Export Plug-In . SVG Version: 6.00 Build 0)  -->
<svg version="1.1" id="layer_1" xmlns="http://www.w3.org/2000/svg" xmlns:xlink="http://www.w3.org/1999/xlink" x="0px" y="0px"
	 viewBox="0 0 216 144" style="enable-background:new 0 0 216 144;" xml:space="preserve">
<style type="text/css">
	.st0{fill:#D14A48;}
	.st1{fill:#FFFFFF;}
	.st2{fill:#FCDE4B;stroke:#000000;stroke-width:0.125;}
	.st3{fill:#D14A48;stroke:#000000;stroke-width:0.125;}
	.st4{fill:#FFFFFF;stroke:#000000;stroke-width:0.125;}
	.st5{fill:none;stroke:#000000;stroke-width:0.125;}
	.st6{fill:#B2D0F0;stroke:#000000;stroke-width:0.125;}
	.st7{fill:#FFFFFF;stroke:#000000;stroke-width:0.25;}
	.st8{fill:#D0D6D1;stroke:#000000;stroke-width:0.125;}
</style>
<g>
	<rect x="0.5" y="96.5" class="st0" width="216" height="48"/>
	<rect x="0.5" y="0.5" class="st0" width="216" height="48"/>
</g>
<rect x="0.5" y="48.5" class="st1" width="216" height="48"/>
<g>
	<path d="M96,48.2c0.8-0.1,1.2,0.3,1.5,0.6c0.5,0.5,1.9,0.3,2.2-0.9c0.4-0.5,0.4-1.2,0.1-1.5c-0.4-0.4-0.4-0.7-0.6-1.1
		c-0.3-0.7-1.1-0.9-2.2-1.1c-1-0.2-2-0.8-2.3-1.6c-0.9,0.7-0.4,2,0.5,2.9c-0.7-0.7-1.9-0.9-3.2-1.1c-0.8-0.1-1.8-0.5-2-1.2
		c-1.5,3.4,2,2.6,2.8,3.6c-1.4-1.1-3,0.7-5.2-1.1c-1.5,1.6,3.8,1.3,5,1.9c-2.1-0.8-5.5,1.1-7.9-0.2c-0.6,0.8-0.4,2.8,3.4,2.1
		c-0.7,0.2-0.8,0.8,1.1,0.4c-0.6,0.2,0,0.6,1.2,0.5c-2.6-0.1-6.1,1.3-7.2,0.3c-0.4,1.1,3.1,1.4,5.7,0.7c2.6-0.7,2.1-0.2,0.3,0.6
		c-1.8,0.8-7.8,3.1-8.1,1.7c-1.1,1.2,0.5,2.8,2.5,2.2c-0.8,0.8,0.6,0.8,6.6-2.1c-3.9,2.3-7.9,4.8-9.5,5.3c-1.6,0.5,0.5,0.9,2.8-0.5
		c-0.5,0.4,0.4,0.5,2.1-0.9c1.6-1.3,3.2-2.5,4.5-2.9c-3.5,1.9-6.3,7.8-10.6,8.1c-0.4,1.3,2.5,2.2,5,0.3c-0.6,1.6,1.4,0.4,6.2-6.1
		c-3.1,5.8-4,5.8-5.8,8.7c-0.7,1.1-1.9,2.7-3.3,3.1c1.3,0.7,2.8-1,3.5-1.8c-0.1,1,1.4-1.1,2-2.6c-0.2,0.9,0.8-0.1,1.9-2.4
		c-0.1,1,1.4-1.7,2.2-3.5c-3,7-6,13.4-7.8,17.6c-2,4.5-1.3,6.3-0.8,7.2c0.5,0.9,1.3,1.9,3.5-4.9c0.2,0.9,0.9,0.4,1.3-2.8
		c0.5,1.8,1.7-3.4,2.1-7c0,1.8,0.6,0.6,1.7-3.6c0.1,1,0.9-1.3,1.2-3.2c0.3-1.8,1.3-2.4,0.1,2C90.4,72.5,88,81,88.1,82.4
		c0.1,1.3,1.2-0.9,1.3-2.6c0.4,0.6,0.8-1.5,1.1-3.4c0.3-1.9,1.5-7,3.2-12.9c0.6-1.9,0.8-1.9,0.2,0.5c-2.6,10.8-3.9,18.2-4.2,20
		c-0.3,1.7-0.1,2.5,1.3,2.3c1.3,0.8,2.4-1.2,2.7-3.8c0.6,0.5,0.9-1.8,0.8-3.8c0.7,0.5,0.4-3.8,0.1-5.9c0.5,0.6,0.5-0.8,0.5-2.1
		c-0.1-1.3,0.3-6,1.2-7.9c-0.2,6-0.7,13.9-0.8,15.9c-0.1,1,1,1,1.2-2.1c0.4,0.6,0.3-2,0.1-3.3c0.3,0.4,0.4-3.3,0.3-4.8
		c0.3,0.3,0.4-2.9,0.4-4.6c0-1.7,0.3-0.3,0.3,2.3c0.1,3.7,0.1,8-0.1,11.9c0,1.5,1.4,0.3,1.4-1.2c0.6,0.2,0.9-1,0.8-2
		c0.6,0,0.1-1.3-0.2-2.1c0.6-0.1,0.3-1.3,0.1-2.6c0.6-0.1,0.2-3.5,0.1-4.7c-0.2-1.2,0.1-1.7,0.4-0.6c0.3,1.2,0.6,4.4,0.3,5.9
		c0.6-0.2,1-3.7,0.8-4.9c-0.2-1.2,0.1-1.4,0.2,0.2c0.1,1.6-0.3,3.1,0.8,3.9c0.1-4-0.5-7.9,0.5-9.8c0.3-1.6-1.1-2.4-2.4-2.6
		c-1.2-0.2-2-0.8-1.3-1.5c0.7-0.7,0.9-1.2,0.4-1.7c-0.5-0.5-0.6-0.9-0.6-1.6c0-0.7-1.1-1.6-1.6,0.2c-0.1-0.4-0.5-0.9-0.9-0.8
		C98.3,51.1,98,48.9,96,48.2z"/>
	<path d="M120.8,48.2c-0.8-0.1-1.2,0.3-1.5,0.6c-0.5,0.5-1.9,0.3-2.2-0.9c-0.4-0.5-0.4-1.2-0.1-1.5c0.4-0.4,0.4-0.7,0.6-1.1
		c0.3-0.7,1.1-0.9,2.2-1.1c1-0.2,2-0.8,2.3-1.6c0.9,0.7,0.4,2-0.5,2.9c0.7-0.7,1.9-0.9,3.2-1.1c0.8-0.1,1.8-0.5,2-1.2
		c1.5,3.4-2,2.6-2.8,3.6c1.4-1.1,3,0.7,5.2-1.1c1.5,1.6-3.8,1.3-5,1.9c2.1-0.8,5.5,1.1,7.9-0.2c0.6,0.8,0.4,2.8-3.4,2.1
		c0.7,0.2,0.8,0.8-1.1,0.4c0.6,0.2,0,0.6-1.2,0.5c2.6-0.1,6.1,1.3,7.2,0.3c0.4,1.1-3.1,1.4-5.7,0.7c-2.6-0.7-2.1-0.2-0.3,0.6
		c1.8,0.8,7.8,3.1,8.1,1.7c1.1,1.2-0.5,2.8-2.5,2.2c0.8,0.8-0.6,0.8-6.6-2.1c3.9,2.3,7.9,4.8,9.5,5.3c1.6,0.5-0.5,0.9-2.8-0.5
		c0.5,0.4-0.4,0.5-2.1-0.9c-1.6-1.3-3.2-2.5-4.5-2.9c3.5,1.9,6.3,7.8,10.6,8.1c0.4,1.3-2.5,2.2-5,0.3c0.6,1.6-1.4,0.4-6.2-6.1
		c3.1,5.8,4,5.8,5.8,8.7c0.7,1.1,1.9,2.7,3.3,3.1c-1.3,0.7-2.8-1-3.5-1.8c0.1,1-1.4-1.1-2-2.6c0.2,0.9-0.8-0.1-1.9-2.4
		c0.1,1-1.4-1.7-2.2-3.5c3,7,6,13.4,7.8,17.6c2,4.5,1.3,6.3,0.8,7.2c-0.5,0.9-1.3,1.9-3.5-4.9c-0.2,0.9-0.9,0.4-1.3-2.8
		c-0.5,1.8-1.7-3.4-2.1-7c0,1.8-0.6,0.6-1.7-3.6c-0.1,1-0.9-1.3-1.2-3.2c-0.3-1.8-1.3-2.4-0.1,2c2.2,8.6,4.7,17.1,4.6,18.4
		c-0.1,1.3-1.2-0.9-1.3-2.6c-0.4,0.6-0.8-1.5-1.1-3.4c-0.3-1.9-1.5-7-3.2-12.9c-0.6-1.9-0.8-1.9-0.2,0.5c2.6,10.8,3.9,18.2,4.2,20
		c0.3,1.7,0.1,2.5-1.3,2.3c-1.3,0.8-2.4-1.2-2.7-3.8c-0.6,0.5-0.9-1.8-0.8-3.8c-0.7,0.5-0.4-3.8-0.1-5.9c-0.5,0.6-0.5-0.8-0.5-2.1
		c0.1-1.3-0.3-6-1.2-7.9c0.2,6,0.7,13.9,0.8,15.9c0.1,1-1,1-1.2-2.1c-0.4,0.6-0.3-2-0.1-3.3c-0.3,0.4-0.4-3.3-0.3-4.8
		c-0.3,0.3-0.4-2.9-0.4-4.6c0-1.7-0.3-0.3-0.3,2.3c-0.1,3.7-0.1,8,0.1,11.9c0,1.5-1.4,0.3-1.4-1.2c-0.6,0.2-0.9-1-0.8-2
		c-0.6,0-0.1-1.3,0.2-2.1c-0.6-0.1-0.3-1.3-0.1-2.6c-0.6-0.1-0.2-3.5-0.1-4.7c0.2-1.2-0.1-1.7-0.4-0.6c-0.3,1.2-0.6,4.4-0.3,5.9
		c-0.6-0.2-1-3.7-0.8-4.9c0.2-1.2-0.1-1.4-0.2,0.2c-0.1,1.6,0.3,3.1-0.8,3.9c-0.1-4,0.5-7.9-0.5-9.8c-0.3-1.6,1.1-2.4,2.4-2.6
		c1.2-0.2,2-0.8,1.3-1.5c-0.7-0.7-0.9-1.2-0.4-1.7c0.5-0.5,0.6-0.9,0.6-1.6c0-0.7,1.1-1.6,1.6,0.2c0.1-0.4,0.5-0.9,0.9-0.8
		C118.5,51.1,118.8,48.9,120.8,48.2z"/>
	<path d="M111.3,101.5c-0.6,0.2-1.1-0.1-1.1-0.6c0.4-0.3,0.2-0.7-0.3-1c-0.5-0.3-0.7-1.1-0.9-2.1c-0.3-1.5,0.1-1.5,0.3-0.8
		c0.6,2.5,3,2.8,2.7,3.6c0.4-0.5,0.4-1,0-1.4c0.7-0.1,0.9-0.4,1-0.9c-2.3-0.1-3.3-2.2-3.2-4.7c0.1,1.2,2,1.3,2.1,3.1
		c0.4-0.6,1-0.3,1.2-0.1c2.3,3.4,0,6.2-1.2,5.8c3.4,1.1,4.5-2.9,2.9-5.4c0.5-0.2,0.4-0.7-0.6-1.5c0.3-0.1,0.4-0.6-0.4-0.9
		c-1.5-0.6-3.1-1.9-4.2-5c-0.3-0.9,0-0.9,0.2-0.3c0.8,1.8,2.6,3.7,4.5,3.9c0.1,0.6,0.6,1.1,1.5,0.7c0.3,0.4,0.3,0.8,0.2,1.2
		c0.4-0.5,1.2-0.5,1.3,0c0.2,0.6-0.6,0.9-1.1,1c1.7,0.8,2.9-0.4,2.3-1.6c3,0.2,3.8-4.2,0.8-4.8c1.6,1.2,0.5,2.6-0.9,1.7
		c0.2,0.5-0.5,1.1-0.9,0.6c-0.4-0.4-0.8-0.5-1.7-0.3c-0.9,0.2-1.6-0.1-3.3-1.1c-1-0.6-0.4-0.8-0.1-0.6c0.9,0.8,2.8,1.2,3.9,0.6
		c0.6-0.3,1.6,0.1,1.4,0.4c0.6-0.6,0.3-1.3-0.4-1.6c0.3-0.9-0.2-2-0.9-1.9c-0.1,3.9-5.1,1.9-6.7-1.9c-0.5-1.1-0.2-1.6,0-0.9
		c0.4,1.1,1.3,0.9,1.6,1.5c-0.1-0.6,0.8-0.5,0.4-0.8c0.8,0.5,0.4,1.7,0.2,1.9c0.7,0.2,1.2-0.5,1-1c1,0.2,1.3,1.6,0.7,2.1
		c3.2-1,1.5-3.4-0.4-4.1c-1.1-0.4-3.2-1.1-3.4-3.2c0.1,0.7,0.7,0.9,0.9,0.7c0.5,0.6,1,0.5,0.9-0.3c0.3-0.3,0.2-0.9-0.2-1.2
		c-0.4-0.2-0.4-0.6-0.4-1.5c0.1-0.9-0.4-2.3-2.3-3.2c-1.9,0.8-2.4,2.3-2.3,3.2c0.1,0.9,0,1.3-0.4,1.5c-0.4,0.2-0.5,0.9-0.2,1.2
		c-0.1,0.8,0.4,1,0.9,0.3c0.1,0.3,0.8,0.1,0.9-0.7c-0.3,2.1-2.4,2.8-3.4,3.2c-1.9,0.7-3.7,3.1-0.4,4.1c-0.6-0.5-0.3-1.8,0.7-2.1
		c-0.2,0.5,0.3,1.2,1,1c-0.3-0.2-0.6-1.3,0.2-1.9c-0.4,0.4,0.5,0.2,0.4,0.8c0.3-0.6,1.2-0.3,1.6-1.5c0.3-0.7,0.5-0.3,0,0.9
		c-1.6,3.8-6.6,5.8-6.7,1.9c-0.7,0-1.2,1-0.9,1.9c-0.8,0.4-1,1-0.4,1.6c-0.2-0.3,0.8-0.7,1.4-0.4c1.2,0.6,3,0.2,3.9-0.6
		c0.3-0.2,0.9,0-0.1,0.6c-1.7,1-2.4,1.3-3.3,1.1c-0.9-0.2-1.4-0.1-1.7,0.3c-0.4,0.4-1.1-0.1-0.9-0.6c-1.4,0.9-2.5-0.5-0.9-1.7
		c-3,0.6-2.2,5,0.8,4.8c-0.6,1.3,0.6,2.4,2.3,1.6c-0.5-0.1-1.3-0.4-1.1-1c0.1-0.5,0.9-0.5,1.3,0c0-0.3,0-0.7,0.2-1.2
		c0.9,0.4,1.3-0.1,1.5-0.7c1.9-0.2,3.6-2.1,4.5-3.9c0.2-0.5,0.5-0.6,0.2,0.3c-1.1,3.1-2.8,4.4-4.2,5c-0.7,0.3-0.7,0.8-0.4,0.9
		c-1.1,0.7-1.1,1.2-0.6,1.5c-1.6,2.5-0.4,6.4,2.9,5.4c-1.2,0.4-3.4-2.4-1.2-5.8c0.2-0.3,0.8-0.6,1.2,0.1c0.1-1.8,1.9-1.9,2.1-3.1
		c0.1,2.5-0.8,4.6-3.2,4.7c0,0.4,0.3,0.8,1,0.9c-0.5,0.4-0.4,0.9,0,1.4c-0.3-0.9,2.1-1.2,2.7-3.6c0.1-0.6,0.5-0.7,0.3,0.8
		c-0.2,1-0.4,1.8-0.9,2.1c-0.4,0.3-0.5,0.8-0.1,1.1c-0.1,0.5-0.5,0.9-1.2,0.7c0.4,1,1.8,0.9,2.3,0.1c-0.5,1.1,0.8,1,0.4,1.9
		c-0.6,1.3,0.4,2.3,2,1.2c-0.4,0.4-1.2-0.4-0.8-0.9s1-1.9-0.1-2.3C110.1,102.3,110.9,101.9,111.3,101.5z"/>
	<g>
		<path class="st2" d="M105.8,40.1c0.2,0,0.3,0,0.2-0.2c-0.1-0.1-0.1-0.2-0.3-0.1l-0.8,0.1c-0.2,0-0.3,0.1-0.3,0.2
			c0,0.2,0.1,0.2,0.3,0.2L105.8,40.1z"/>
		<path class="st2" d="M110.5,43.5c0.1-1.6,0.9-3.3,0.9-3.3l-1.2-0.1l-0.2,1.1l-1.1-0.1V40h-1.7V41l-1.1,0.1l-0.2-1.1l-1.2,0.1
			c0,0,0.8,1.7,0.9,3.3"/>
		<path class="st2" d="M108,42.4c0.9,0,2.2,0.1,2.5,0.2c0.3,0.1,0.4,0.1,0.5-0.1s0.1-0.3-0.3-0.4c-0.5-0.1-1.2-0.2-2.6-0.2
			c-1.4,0-2.2,0.1-2.6,0.2c-0.5,0.1-0.4,0.3-0.3,0.4s0.1,0.1,0.5,0.1C105.9,42.5,107.2,42.4,108,42.4z"/>
		<path class="st2" d="M108,44c0.9,0,1.9-0.1,2.6-0.3c0-0.4,0.2-0.7-0.2-0.7c-0.4-0.1-1.1,0-2.3,0c-1.2,0-1.9,0-2.3,0
			c-0.4,0.1-0.3,0.4-0.2,0.7C106.2,44,107.1,44,108,44z"/>
		<path class="st2" d="M110.3,40.1c-0.2,0-0.3,0-0.2-0.2c0.1-0.1,0.1-0.2,0.3-0.1l0.8,0.1c0.2,0,0.3,0.1,0.3,0.2
			c0,0.2-0.1,0.2-0.3,0.2L110.3,40.1z"/>
		<path class="st2" d="M108.8,40c0.3,0,0.4,0,0.4-0.3c0-0.2-0.1-0.2-0.5-0.2h-1.4c-0.4,0-0.4,0-0.5,0.2c-0.1,0.3,0.1,0.3,0.4,0.3
			H108.8z"/>
	</g>
	<path class="st3" d="M101.7,45.7c-1,0.5-1.3,2.3,0.8,2.6c2.4,0.4,4.6-0.9,5.7,0.2c-0.2-1.5-2.2-1.8-3.5-1.3
		c-1.2,0.5-2.3,0.1-2.5-0.4C101.8,47.3,100.7,46.7,101.7,45.7z"/>
	<path d="M114.3,60.8c-0.1-0.6-0.7-0.9-1.3-0.8c-0.3-0.7-1.1-0.8-1.6-0.8c-0.1-0.5-0.5-0.8-1.1-0.9c0.6,0.2,1.2,0,1.4-0.3
		c-0.9,0-1.8-1.1-1.2-2.6c-0.3,0.9,0.5,1.5,1,1.6c0.5,0,1,0.6,0.7,0.9c0.2-0.2,0.3-0.6,0.1-0.8c1,0.1,1.5-0.6,1.2-1.2
		c-0.1,0.4-1,0.8-1.7,0.2c-0.7-0.7,0-1.6-0.5-2.5c1.9,2.3,4.3,1.1,4.2-0.1c-0.1-0.7-1-0.4-0.8,0.2c-0.2,0.3-1.1,0.7-1.8-0.3
		c0.4-0.1,0.6-0.5,0.6-0.8c-0.9,0.1-0.9-0.2-1.5-0.2c0.7,0,0.7-0.7,0.9-0.7c-1.2,0.1-2-0.7-1.5-2.4c-0.2,0.7,1,0.8,0.9,2
		c0.3-0.1,0.6-0.4,0.5-0.8c0.7-0.2,1.1-0.6,1-1.1c-0.8,0.6-1-0.2-1.9-0.4c-0.6-0.2-0.7-1.1-0.5-2c-0.1,0.6,0.5,0.8,0.9,1
		c0.2,0.1,0.5,0.7,0,0.7c0.5,0,0.9-0.3,0.8-1c0.1,0.8,1.1,0.5,1.4,1.7c0.2,0.9-0.4,1.9-1,1.9c1.1,0.2,1.8-0.4,1.8-1.5
		c0,0.3,0.3,0.4,0.5,0.3c-0.6-0.3,0.8-1.8-2.4-3.1c-0.9-0.4-1.7-0.6-2.2-1.6c0.3,0.5,1,0.7,1.8,0.4c0.9-0.4,1.7,0.4,1.4,0.9
		c0.6-0.2,1.2-1.3,0.1-1.5c1.8-0.3,2.4-3,0-2.6c1.5,0.5-0.1,2.1-1.7,2.4c1.4-0.4,1.1-1.6,0.2-1.6c0.6,0.9-0.7,1.3-2.3,1.2
		c0.8-0.4,1.4-1.1,1.3-1.7c0,0.8-2.3,0.8-5.1,0.4c-1-0.1-1.8,0.3-2.1,0.6c-0.2,0.2-0.6,0.2-0.7,0.6c2.5,1.8,4.4,3.1,4.2,4.2
		c0,0.3-1.2,0.4-1.8,0.3c1.3,0.8,1.6,2.3,0.6,3.1c-0.9,0.7-2.3,0.4-1.8-0.7c0.1,0.4,1.2,0.3,1.2-0.4c-0.1-0.7-2.2-1.2-2.4,0.8
		c-1.3-1.6-3.3-0.7-3.4,0.6c-0.3-0.1-0.5-0.4-0.4-0.7c-0.7,0.4-0.4,1.5,0.4,1.7c0,1.1,0.7,1.6,1.6,1.2c1-0.4,0.1-1.4-0.3-0.6
		c-0.9-0.5-0.4-1.9,0.6-2c1.2-0.1,1,0.8,1.9,1c-1.6-0.5-1.8,1.9-0.2,1.6c-0.4,0.1-0.5-1,0.2-0.9c0.7,0.1,0.1,1.2,1.9,1.1
		c-1.2,0.8-1.8,2.1-2,3.6c-0.6,0.2-1.1,0.8-1.2,1.3c-0.4,0.1-0.9,0.6-1,0.9L114.3,60.8z"/>
	<path class="st2" d="M107.8,45.4c-0.5,0.3-1.4,0-1.5-0.5c-0.4,0.1-0.8,0-1.3-0.3c-1.8-0.9-3.6,1.3-1.4,2.3c-0.2-0.4,1-1.3,1.6-0.5
		c0.9,1.1,2.6,0.5,2.8,1.8c-1.8-0.8-2.7,0.4-3.2,0.2c0,0.1,0.2,0.3,0.3,0.4c-0.8-0.2-1.1,0.4-1.7,0.1c0.4,1,1.4,1,2.4,0.2
		c0,0.3,0,0.5-0.3,0.8c0.6,0,0.7-0.4,1-0.5c0.6-0.4,1.8-0.4,2.3,0.7c0.2-1.7,0-2.7-1.3-3.6C107.7,46.3,107.8,45.8,107.8,45.4z"/>
	<path class="st4" d="M106.3,44.9c0.1,0.5,1,0.7,1.5,0.5c0.5-0.3,0.7-0.9,1.1-0.8c-0.7-0.3-0.7,0-1.6-0.1c-0.6-0.1-0.9,0.3-1,0.1
		C106.3,44.7,106.3,44.8,106.3,44.9z"/>
	<path d="M107.3,45.3c0.1,0,0.3,0.1,0.4,0.1c0.2-0.1,0.3-0.2,0.4-0.3c-0.1-0.2-0.2-0.5-0.5-0.6c-0.4,0-0.6-0.1-1,0
		c0,0.2,0.1,0.4,0.3,0.6l0.3-0.3l0.4,0.3L107.3,45.3z"/>
	<g>
		<path class="st2" d="M90.7,93.2c0.3,0.3,0.1,0.9-0.5,0.9c-0.6,0.1-0.9-0.5-0.7-0.8L90.7,93.2z"/>
		<path class="st2" d="M88.1,83l1.1,10.2c0,0.3,0.3,0.6,1,0.5c0.7-0.1,0.9-0.4,0.9-0.7l-1.1-10.1"/>
		<path class="st2" d="M88.3,85c-0.5-0.2-0.4-0.9,0.8-1c1.2-0.1,1.5,0.3,1,0.8C90.1,84.5,88.3,84.7,88.3,85z"/>
		<path class="st2" d="M89,91.6c-0.5,0.3-0.2,0.9,1,0.8c1.2-0.1,1.4-0.6,0.8-1C90.8,91.7,89,91.9,89,91.6z"/>
		<path class="st2" d="M91,83.3c-5.6,1.1-9.4-2.3-8.4-6.6c1-4,5.3-5.5,10-1.9l-0.4,0.3l-0.4,0c-3.2-1.6-5.8-0.4-6.2,2.3
			c-0.4,2.4,2,4.6,4.8,4.3l0.1,1L91,83.3z"/>
		<path class="st5" d="M90.8,73.7c-2.4-1.3-6.7-0.1-7.4,3.5c-0.7,3.2,1.7,6,7,5.5"/>
		<path class="st5" d="M92.2,75.2c-3.4-2.1-6.6-1-7.3,2.2c-0.6,2.8,2.1,4.8,5.4,4.4"/>
	</g>
	<g>
		<path class="st2" d="M128.1,92.4c0.2,0.3-0.1,0.9-0.7,0.8c-0.6-0.1-0.8-0.7-0.5-0.9L128.1,92.4z"/>
		<path class="st2" d="M130.4,74.2l-1.9,18c0,0.4-0.3,0.6-1,0.5c-0.7-0.1-0.9-0.5-0.8-0.7l1.9-18L130.4,74.2z"/>
		<path class="st2" d="M128.1,78.8c-0.5-0.3-0.2-0.9,1-0.8c1.2,0.1,1.4,0.6,0.8,1C129.9,78.7,128.1,78.5,128.1,78.8z"/>
		<path class="st2" d="M126.8,90.4c-0.5,0.2-0.4,0.9,0.8,1c1.2,0.1,1.5-0.3,1-0.8C128.6,91,126.8,90.8,126.8,90.4z"/>
		
			<rect x="127.8" y="72.1" transform="matrix(0.1034 -0.9946 0.9946 0.1034 40.2137 196.8247)" class="st2" width="2.9" height="8"/>
	</g>
	<g>
		<path class="st5" d="M100.6,82.8c-2,1.7-5.5,3.6-6.6,4.1"/>
		<path class="st5" d="M117.1,81.9c2,1.7,5.5,3.6,6.6,4.1"/>
	</g>
	<g>
		<polygon class="st2" points="89.1,87 89.2,90 88,90.5 87.9,86.9 		"/>
		<g>
			<path class="st2" d="M88.7,90.5c0.2-0.2,0.5-0.5,0.6-0.8c-0.1,0.2-0.6,0.1-1.1,0.1C87.7,89.9,88.1,90.7,88.7,90.5z"/>
			<path class="st2" d="M87.2,89.5c-0.4,0.4-0.4,0.9,0,1.3c0.4,0.4,1.5,0.3,1.5-0.3c-0.2,0-0.6-0.3-0.3-0.6
				C88.1,89.9,87.3,89.9,87.2,89.5z"/>
			<path class="st2" d="M88,89c0.3,0.2,1.1,0.3,1.2-0.1c0,0.7-0.9,0.9-1.2,0.9C87.7,89.8,87.6,89.1,88,89z"/>
			<path class="st2" d="M87.2,88.4c-0.6,0.6-0.5,1-0.2,1.4c0.3,0.4,1.2,0.5,1.5,0c-0.1,0.2-0.7-0.5-0.3-0.7
				C88.1,88.9,87.6,88.5,87.2,88.4z"/>
			<path class="st2" d="M88.2,87.9c0.1,0.2,0.7,0.5,1.1,0.2c0,0.4-0.7,0.8-1.1,0.7C87.8,88.7,87.7,87.9,88.2,87.9z"/>
			<path class="st2" d="M87.5,87c-0.6,0.4-0.6,0.7-0.6,1.2c0,0.4,1,1.2,1.6,0.6c-0.3-0.2-0.5-0.6-0.2-0.9
				C88.2,87.6,87.7,87.2,87.5,87z"/>
			<path class="st2" d="M88.5,86.6c-0.2,0.4-0.4,0.8-0.7,1c-1-0.9-0.1-1.6,0.6-1.7L88.5,86.6z"/>
		</g>
		<path class="st2" d="M88.5,86.3c-0.5,0.2-1,0.9-0.6,1.7c-0.1-0.3,0.6-0.9,1.1-0.6C89.6,87,89.4,86.2,88.5,86.3z"/>
		<path class="st2" d="M101.5,83.8c-2.5,1.5-6.6,3.2-7.9,3.9c-1.3,0.6-1.8,1.5-2,2.2c-0.2-0.4-0.6-0.5-1-0.6l-0.2-1.8
			c0.1,0.6-1.2,0.6-1.5-0.1c0.6-0.5,0.1-1-0.5-0.9c0.1-0.9,1-0.6,1.3-0.4c0.3,0.3,0.6,0.4,1.3,0.3s1.8-0.1,2.6-0.5
			c1.3-0.7,3.2-2.5,5-4.2C99.9,80.4,104.4,81.2,101.5,83.8z"/>
		<path class="st2" d="M94.4,85.3c-0.3,0.2-0.3,0.4-0.1,0.6c0.1,0.2,0.3,0.1,0.5,0c0.2-0.1,0.2-0.4,0.1-0.5
			C94.8,85.3,94.6,85.1,94.4,85.3z"/>
		<path class="st2" d="M95.1,84.7c-0.3,0.2-0.3,0.4-0.2,0.7c0.1,0.2,0.4,0.2,0.7-0.1c0.3-0.2,0.4-0.4,0.2-0.7
			C95.7,84.4,95.4,84.4,95.1,84.7z"/>
		<path class="st2" d="M95.9,84c-0.2,0.2-0.2,0.4-0.1,0.6c0.1,0.2,0.4,0.3,0.7,0.1c0.3-0.2,0.2-0.4,0.1-0.6
			C96.4,84,96.2,83.8,95.9,84z"/>
		<path class="st2" d="M96.5,84.1c0.1,0.2,0.5,0.3,0.8,0.1c0.3-0.2,0.4-0.5,0.1-0.7c-0.2-0.2-0.5-0.4-0.9,0
			C96.2,83.8,96.3,83.9,96.5,84.1z"/>
		<path class="st2" d="M97.3,82.6c-0.4,0.3-0.1,0.6,0,0.9c0.2,0.3,0.5,0.2,0.9,0c0.4-0.2,0.3-0.7,0.1-0.9
			C98.1,82.4,97.7,82.3,97.3,82.6z"/>
		<path class="st2" d="M98.4,81.8c-0.2,0.2-0.3,0.6-0.1,0.9c0.3,0.3,0.5,0.2,0.8-0.1c0.3-0.3,0.6-0.6,0.3-0.9S98.8,81.4,98.4,81.8z"
			/>
		<g>
			<polygon class="st2" points="128.7,86.1 128.6,89.1 129.8,89.5 130,86 			"/>
		</g>
		<g>
			<path class="st2" d="M129,89.6c-0.2-0.2-0.5-0.5-0.6-0.8c0.1,0.2,0.6,0.1,1.1,0.1C129.9,88.9,129.5,89.8,129,89.6z"/>
			<path class="st2" d="M130.4,88.6c0.4,0.4,0.4,0.9,0,1.3c-0.4,0.4-1.5,0.3-1.5-0.3c0.2,0,0.6-0.3,0.3-0.6
				C129.6,89,130.3,89,130.4,88.6z"/>
			<path class="st2" d="M129.6,88.1c-0.3,0.2-1.1,0.3-1.2-0.1c0,0.7,0.9,0.9,1.2,0.9C129.9,88.9,130.1,88.1,129.6,88.1z"/>
			<path class="st2" d="M130.5,87.4c0.6,0.6,0.5,1,0.2,1.4c-0.3,0.4-1.2,0.5-1.5,0c0.1,0.2,0.7-0.5,0.3-0.7
				C129.6,88,130,87.6,130.5,87.4z"/>
			<path class="st2" d="M129.4,87c-0.1,0.2-0.7,0.5-1.1,0.2c0,0.4,0.7,0.8,1.1,0.7S129.9,87,129.4,87z"/>
			<path class="st2" d="M130.2,86.1c0.6,0.4,0.6,0.7,0.6,1.2c0,0.4-1,1.2-1.6,0.6c0.3-0.2,0.5-0.6,0.2-0.9
				C129.5,86.7,129.9,86.3,130.2,86.1z"/>
			<path class="st2" d="M129.2,85.7c0.2,0.4,0.4,0.8,0.7,1c1-0.9,0.1-1.6-0.6-1.7L129.2,85.7z"/>
		</g>
		<path class="st2" d="M129.1,85.4c0.5,0.2,1,0.9,0.6,1.7c0.1-0.3-0.6-0.9-1.1-0.6C128,86,128.2,85.3,129.1,85.4z"/>
		<path class="st2" d="M119,80.6c1.9,1.6,3.7,3.5,5,4.2c0.8,0.4,1.8,0.5,2.6,0.5c0.7,0,1-0.1,1.3-0.3c0.2-0.2,1.2-0.5,1.3,0.4
			c-0.6-0.1-1.1,0.4-0.5,0.9c-0.2,0.7-1.5,0.7-1.5,0.1l-0.2,1.8c-0.3,0.1-0.7,0.2-1,0.6c-0.2-0.6-0.6-1.6-2-2.2
			c-1-0.5-1.8-1.5-3.8-2c-2-0.5-2.3-0.5-2.7-0.2c-0.3-0.5-0.7-0.7-1.1-0.4c-0.6-0.6-2-1.4-1.7-2.9C115.2,79.7,117.4,79.2,119,80.6z"
			/>
		<g>
			<path class="st2" d="M123.3,84.4c0.3,0.2,0.3,0.4,0.1,0.6c-0.1,0.2-0.3,0.1-0.5,0c-0.2-0.1-0.2-0.4-0.1-0.5
				C122.9,84.3,123,84.2,123.3,84.4z"/>
			<path class="st2" d="M122.5,83.7c0.3,0.2,0.3,0.4,0.2,0.7c-0.1,0.2-0.4,0.2-0.7-0.1c-0.3-0.2-0.4-0.4-0.2-0.7
				C121.9,83.5,122.2,83.5,122.5,83.7z"/>
			<path class="st2" d="M121.7,83.1c0.2,0.2,0.2,0.4,0.1,0.6c-0.1,0.2-0.4,0.3-0.7,0.1c-0.3-0.2-0.2-0.4-0.1-0.6
				C121.2,83,121.5,82.8,121.7,83.1z"/>
			<path class="st2" d="M121.1,83.2c-0.1,0.2-0.5,0.3-0.8,0.1c-0.3-0.2-0.4-0.5-0.1-0.7c0.2-0.2,0.5-0.4,0.9,0
				C121.4,82.8,121.3,82.9,121.1,83.2z"/>
			<path class="st2" d="M120.3,81.7c0.4,0.3,0.1,0.6,0,0.9c-0.2,0.3-0.5,0.2-0.9,0c-0.4-0.2-0.3-0.7-0.1-0.9
				C119.5,81.5,119.9,81.3,120.3,81.7z"/>
			<path class="st2" d="M119.3,80.8c0.2,0.2,0.3,0.6,0.1,0.9c-0.3,0.3-0.5,0.2-0.8-0.1c-0.3-0.3-0.6-0.6-0.3-0.9
				C118.6,80.3,118.9,80.5,119.3,80.8z"/>
		</g>
	</g>
	<g>
		<path class="st6" d="M97.6,102.8c0-0.1-0.1-0.2-0.1-0.3c-0.5-1.3-0.6-1.1,0.8-1.6c1.5-0.5,1.3-0.6,1.8,0.8
			c0.1,0.2,0.1,0.3,0.1,0.4l-0.6,0c0-0.1-0.1-0.2-0.1-0.3c-0.3-0.9-0.2-0.8-1.1-0.4c-0.7,0.2-0.6,0.1-0.3,0.9
			c0.1,0.1,0.1,0.2,0.1,0.3L97.6,102.8z"/>
		<path class="st6" d="M96.5,98.6c-1.2,0.8-1.1,0.6-0.3,1.7c0.8,1,0.7,0.9,1.7,0.2l-0.3-0.3c-0.6,0.4-0.4,0.4-0.9-0.2
			c-0.5-0.7-0.6-0.5,0-1c0.8-0.6,0.6-0.6,1.2,0.1c0.5,0.7,0.5,0.5-0.2,1l0.3,0.3c1.1-0.8,1-0.6,0.4-1.6
			C97.5,97.7,97.8,97.7,96.5,98.6z"/>
		<path class="st6" d="M93.7,91.5c-1.5,0-1.3-0.1-1.3,1.2c0,1.3,0,1.2,1.3,1.2l0-0.4c-0.7,0-0.6,0.1-0.6-0.7c0-0.8-0.2-0.8,0.6-0.8
			c1,0,0.9-0.1,0.9,0.8c0,0.8,0.1,0.7-0.7,0.7l0,0.4c1.4,0,1.2,0.1,1.2-1.1C95.1,91.3,95.2,91.5,93.7,91.5z"/>
		<polygon class="st6" points="91.9,86.1 93.1,85.7 94.2,87.7 92.8,88.4 		"/>
		<path class="st6" d="M90.8,86.3c0.3-0.6,1.2-0.7,1.7,0.5c0.5,1.2,0.5,1.9-0.3,1.9c0.1-0.1,0-1-0.3-1.5
			C91.7,86.8,91.6,86.2,90.8,86.3z"/>
		<path class="st6" d="M92.8,85.8c0.2-0.6,1.1-0.8,1.6,0.4c0.6,1.2,0.4,1.9-0.5,1.7c0.2-0.1,0-0.6-0.3-1.2
			C93.2,86,93,85.7,92.8,85.8z"/>
		<path class="st6" d="M94.4,96.5c-1.1,1-1,0.8-0.1,1.8c0.9,0.9,0.8,0.8,1.7,0.1L95.7,98c-0.5,0.5-0.4,0.5-1-0.1
			c-0.6-0.6-0.6-0.5-0.1-1c0.7-0.7,0.6-0.7,1.2,0c0.5,0.6,0.5,0.5,0,1l0.3,0.3c1-0.9,1-0.7,0.2-1.6C95.3,95.4,95.5,95.5,94.4,96.5z"
			/>
		<path class="st6" d="M95.5,97.5c-0.4,0.3-0.3,0.3,0.4,1c0.7,0.8,0.7,0.9,1.1,0.5c0.3-0.3,0.3-0.3-0.3-1
			C95.8,97.3,95.8,97.2,95.5,97.5z"/>
		<path class="st6" d="M92,94.6c-0.9,1.2-0.9,0.9,0.2,1.8c1,0.8,0.9,0.7,1.7-0.2l-0.3-0.3c-0.5,0.5-0.3,0.5-1,0
			c-0.7-0.5-0.7-0.3-0.2-0.9c0.6-0.8,0.4-0.8,1.2-0.2c0.6,0.5,0.6,0.4,0.1,1L94,96c0.9-1.1,0.8-0.9-0.1-1.6
			C92.7,93.4,93,93.4,92,94.6z"/>
		<path class="st6" d="M93.4,95.5c-0.3,0.3-0.2,0.3,0.5,1c0.8,0.7,0.7,0.8,1.1,0.5c0.3-0.3,0.3-0.3-0.4-0.9
			C93.8,95.3,93.8,95.2,93.4,95.5z"/>
		<path class="st6" d="M93.6,88.7c-1.5,0-1.3-0.1-1.3,1.2c0,1.3,0,1.2,1.3,1.2l0-0.4c-0.7,0-0.6,0.1-0.6-0.7c0-0.8-0.2-0.8,0.6-0.8
			c1,0,0.9-0.1,0.9,0.8c0,0.8,0.1,0.7-0.7,0.7l0,0.4c1.4,0,1.2,0.1,1.2-1.1C95,88.6,95.2,88.8,93.6,88.7z"/>
		<path class="st6" d="M93.2,87.4c-0.5,0.1-0.4,0.1-0.1,1.1c0.2,1,0.2,1.1,0.7,1c0.4-0.1,0.4-0.1,0.2-1
			C93.6,87.4,93.7,87.3,93.2,87.4z"/>
		<path class="st6" d="M93.7,90.2c-0.5,0-0.4,0-0.4,1c0,1.1-0.1,1.1,0.4,1.1c0.4,0,0.5,0,0.4-0.9C94.1,90.3,94.2,90.2,93.7,90.2z"/>
		<path class="st6" d="M93.7,92.9c-0.5-0.1-0.4,0-0.5,1C93.1,95,93,95,93.5,95c0.4,0.1,0.5,0,0.5-0.9C94.1,93.1,94.2,93,93.7,92.9z"
			/>
		<path class="st6" d="M97.5,99.8c-0.4,0.2-0.3,0.2,0.2,1.1c0.5,0.9,0.5,1,0.9,0.8c0.4-0.2,0.4-0.2-0.1-1
			C97.9,99.7,97.9,99.6,97.5,99.8z"/>
	</g>
	<path d="M112.8,74.9c2.1,0.7,3.3,2.3,4.4,3.9c1.1,1.5,2.6,1.8,3.5,0.9c-0.1,1.2-1.6,2-3.3,1.3c1.4,0.6,0.2,1.5,1.8,2.1
		c-0.7,0.6-3.1-0.4-3.6-1.5c0.5,0.8-0.6,1.4,0,2.2c-1.5-0.7-1.6-1.6-2-2.9c-0.7-2.4-2.7-3.5-2.6-4.9
		C111.2,74.7,112.2,74.7,112.8,74.9z"/>
	<g>
		<path class="st6" d="M120,101.9c0-0.1,0.1-0.2,0.1-0.3c0.5-1.3,0.6-1.1-0.8-1.6c-1.5-0.5-1.3-0.6-1.8,0.8
			c-0.1,0.2-0.1,0.3-0.1,0.4l0.6,0c0-0.1,0.1-0.2,0.1-0.3c0.3-0.9,0.2-0.8,1.1-0.4c0.7,0.2,0.6,0.1,0.3,0.9
			c-0.1,0.1-0.1,0.2-0.1,0.3L120,101.9z"/>
		<path class="st6" d="M121.2,97.7c1.2,0.8,1.1,0.6,0.3,1.7c-0.8,1-0.7,0.9-1.7,0.2l0.2-0.3c0.6,0.4,0.4,0.4,0.9-0.2
			c0.5-0.7,0.6-0.5,0-1c-0.8-0.6-0.6-0.6-1.2,0.1c-0.5,0.7-0.5,0.5,0.2,1l-0.3,0.3c-1.1-0.8-1-0.6-0.4-1.6
			C120.1,96.7,119.9,96.8,121.2,97.7z"/>
		<path class="st6" d="M124,90.5c1.5,0,1.3-0.1,1.3,1.2c0,1.3,0,1.2-1.3,1.2l0-0.4c0.7,0,0.6,0.1,0.6-0.7c0-0.8,0.2-0.8-0.6-0.8
			c-1,0-0.9-0.1-0.9,0.8c0,0.8-0.1,0.7,0.7,0.7l0,0.4c-1.4,0-1.2,0.1-1.2-1.1C122.5,90.4,122.4,90.6,124,90.5z"/>
		<polygon class="st6" points="125.7,85.2 124.5,84.8 123.5,86.8 124.8,87.4 		"/>
		<path class="st6" d="M126.8,85.3c-0.3-0.6-1.2-0.7-1.7,0.5c-0.5,1.2-0.5,1.9,0.3,1.9c-0.1-0.1,0-1,0.3-1.5
			C125.9,85.8,126.1,85.3,126.8,85.3z"/>
		<path class="st6" d="M124.9,84.9c-0.2-0.6-1.1-0.8-1.6,0.4c-0.6,1.2-0.4,1.9,0.5,1.7c-0.2-0.1,0-0.6,0.3-1.2
			C124.4,85.1,124.7,84.8,124.9,84.9z"/>
		<path class="st6" d="M123.3,95.5c1.1,1,1,0.8,0.1,1.8c-0.9,0.9-0.8,0.8-1.7,0.1l0.3-0.3c0.5,0.5,0.4,0.5,1-0.1
			c0.6-0.6,0.6-0.5,0.1-1c-0.7-0.7-0.6-0.7-1.2,0c-0.5,0.6-0.5,0.5,0,1l-0.3,0.3c-1-0.9-1-0.7-0.2-1.6
			C122.3,94.5,122.1,94.5,123.3,95.5z"/>
		<path class="st6" d="M122.2,96.6c0.4,0.3,0.3,0.3-0.4,1c-0.7,0.8-0.7,0.9-1.1,0.5c-0.3-0.3-0.3-0.3,0.3-1
			C121.8,96.4,121.9,96.3,122.2,96.6z"/>
		<path class="st6" d="M125.7,93.7c0.9,1.2,0.9,0.9-0.2,1.8c-1,0.8-0.9,0.7-1.7-0.2l0.3-0.3c0.5,0.5,0.3,0.5,1,0
			c0.7-0.5,0.7-0.3,0.2-0.9c-0.6-0.8-0.4-0.8-1.2-0.2c-0.6,0.5-0.6,0.4-0.1,1l-0.3,0.2c-0.9-1.1-0.8-0.9,0.1-1.6
			C124.9,92.5,124.7,92.4,125.7,93.7z"/>
		<path class="st6" d="M124.2,94.6c0.3,0.3,0.2,0.3-0.5,1c-0.8,0.7-0.7,0.8-1.1,0.5c-0.3-0.3-0.3-0.3,0.4-0.9
			C123.8,94.4,123.9,94.3,124.2,94.6z"/>
		<path class="st6" d="M124,87.8c1.5,0,1.3-0.1,1.3,1.2c0,1.3,0,1.2-1.3,1.2l0-0.4c0.7,0,0.6,0.1,0.6-0.7c0-0.8,0.2-0.8-0.6-0.8
			c-1,0-0.9-0.1-0.9,0.8c0,0.8-0.1,0.7,0.7,0.7l0,0.4c-1.4,0-1.2,0.1-1.2-1.1C122.6,87.6,122.5,87.8,124,87.8z"/>
		<path class="st6" d="M124.4,86.4c0.5,0.1,0.4,0.1,0.1,1.1c-0.2,1-0.2,1.1-0.7,1c-0.4-0.1-0.4-0.1-0.2-1
			C124,86.5,124,86.3,124.4,86.4z"/>
		<path class="st6" d="M123.9,89.2c0.5,0,0.4,0,0.4,1c0,1.1,0.1,1.1-0.4,1.1c-0.4,0-0.5,0-0.4-0.9C123.5,89.3,123.4,89.2,123.9,89.2
			z"/>
		<path class="st6" d="M123.9,92c0.5-0.1,0.4,0,0.5,1c0.1,1.1,0.2,1.1-0.3,1.2c-0.4,0.1-0.5,0-0.5-0.9C123.5,92.1,123.5,92,123.9,92
			z"/>
		<path class="st6" d="M120.1,98.8c0.4,0.2,0.3,0.2-0.2,1.1c-0.5,0.9-0.5,1-0.9,0.8c-0.4-0.2-0.4-0.2,0.1-1
			C119.7,98.8,119.7,98.6,120.1,98.8z"/>
	</g>
	<path d="M104.2,74.5c-2.4,0.1-3.1,2.3-4,3.9c-0.9,1.6-2.8,2.8-3.9,2.2c-0.3,0.9,1.3,1.9,4.3,0.7c-1.2,1.3-0.5,2-1.3,2.6
		c0.6-0.4,2.6-0.3,2.1,0.1c0.6-0.3,1,0.4,1.4-1.3c0.7-2.8,1.6-2.1,1.8-4c0.2-2,1.6-2.6,1.3-3.6C105.5,74.1,104.6,74.5,104.2,74.5z"
		/>
	<path class="st7" d="M108.4,68.5"/>
	<path class="st3" d="M114.8,71.2c0,3.5-2.9,6.4-6.4,6.4c-3.5,0-6.4-2.9-6.4-6.4V60.5h12.8V71.2z"/>
	<rect x="101.9" y="65.9" class="st8" width="12.8" height="5.4"/>
</g>
</svg>
