<?xml version="1.0" encoding="utf-8"?>
<!-- Generator: Adobe Illustrator 22.1.0, SVG Export Plug-In . SVG Version: 6.00 Build 0)  -->
<svg version="1.1" id="layer_1" xmlns="http://www.w3.org/2000/svg" xmlns:xlink="http://www.w3.org/1999/xlink" x="0px" y="0px"
	 viewBox="0 0 216 144" style="enable-background:new 0 0 216 144;" xml:space="preserve">
<style type="text/css">
	.st0{fill:#009B3A;}
	.st1{fill:#FEDF00;}
	.st2{fill:#002776;}
	.st3{clip-path:url(#SVGID_2_);fill:#FFFFFF;}
	.st4{clip-path:url(#SVGID_4_);}
</style>
<rect class="st0" width="216" height="144"/>
<path class="st1" d="M18.4,74l89.6,57.2L197.6,74L108,16.8L18.4,74z"/>
<circle class="st2" cx="108" cy="74" r="37.8"/>
<g>
	<defs>
		<circle id="SVGID_1_" cx="108" cy="74" r="37.8"/>
	</defs>
	<clipPath id="SVGID_2_">
		<use xlink:href="#SVGID_1_"  style="overflow:visible;"/>
	</clipPath>
	<path class="st3" d="M-5.4,149.6c0-50.7,41.1-91.8,91.8-91.8s91.8,41.1,91.8,91.8h-5.4c0-47.7-38.7-86.4-86.4-86.4S0,101.9,0,149.6
		H-5.4z"/>
</g>
<g>
	<g transform="rotate(-7)">
		<path id="O" class="st0" d="M495.8-1407c0.9-0.1,1.5-1,1.4-2c-0.1-1-0.9-1.7-1.8-1.6s-1.5,1-1.4,2
			C494.1-1407.7,494.9-1406.9,495.8-1407 M495.7-1407.7c0.5-0.1,0.9-0.6,0.8-1.2s-0.6-1.1-1.1-1s-0.9,0.6-0.8,1.2
			C494.7-1408.1,495.2-1407.6,495.7-1407.7"/>
	</g>
	<g>
		<g id="R">
			<g transform="rotate(-4)">
				<path id="P" class="st0" d="M498.7-1407.4l0.7,0l-0.1-1.3l1.4-0.1c0.6,0,1.1-0.6,1-1.2c0-0.6-0.6-1.1-1.2-1l-2.1,0.1
					L498.7-1407.4z M499.2-1409.4l1.4-0.1c0.3,0,0.4-0.2,0.4-0.5c0-0.3-0.2-0.4-0.5-0.4l-1.4,0.1L499.2-1409.4z"/>
			</g>
			<path class="st0" d="M501.7-1407.6c0-0.5-0.1-1.6-0.9-1.6l-1,0.1c1.1-0.1,1.2,1,1.2,1.6"/>
		</g>
		<g transform="rotate(-1)">
			<path id="D" class="st0" d="M503.3-1407.7l1.7,0c0.9,0,1.5-0.7,1.5-1.6l0-0.5c0-0.9-0.7-1.5-1.6-1.5l-1.7,0L503.3-1407.7z
				 M503.9-1408.3l1,0c0.5,0,1-0.5,1-1l0-0.3c0-0.5-0.5-1-1-1l-1,0L503.9-1408.3z"/>
		</g>
		<g transform="rotate(2)">
			<path id="E" class="st0" d="M507.8-1407.7l3.2,0.1l0-0.7l-2.6-0.1l0-0.9l2.1,0.1l0-0.6l-2.1-0.1l0-0.7l2.5,0.1l0-0.7l-3.1-0.1
				L507.8-1407.7z"/>
		</g>
		<g transform="rotate(5)">
			<path id="M" class="st0" d="M512.4-1407.5l0.6,0.1l0.2-2.5l0.5,2.5l0.6,0l0.9-2.4l-0.2,2.5l0.6,0.1l0.3-3.6l-0.9-0.1l-0.9,2.4
				l-0.5-2.5l-0.9-0.1L512.4-1407.5z"/>
		</g>
		<g transform="rotate(9.75)">
			<path id="e" class="st0" d="M519.9-1406.7l2.7,0.5l0.1-0.6l-2.1-0.4l0.1-0.8l1.7,0.3l0.1-0.6l-1.7-0.3l0.1-0.6l2,0.3l0.1-0.6
				l-2.6-0.4L519.9-1406.7z"/>
		</g>
		<g transform="rotate(14.5)">
			<path id="P_1_" class="st0" d="M526.7-1405.3l0.6,0.2l0.3-1.3l1.4,0.4c0.6,0.2,1.2-0.2,1.4-0.8c0.2-0.6-0.2-1.2-0.8-1.4l-2-0.5
				L526.7-1405.3z M527.8-1407.1l1.3,0.3c0.2,0.1,0.5-0.1,0.6-0.3c0.1-0.2-0.1-0.5-0.3-0.6l-1.3-0.3L527.8-1407.1z"/>
		</g>
		<g>
			<g id="R_1_">
				<g transform="rotate(17.5)">
					<path id="P_2_" class="st0" d="M531.1-1404.1l0.6,0.2l0.4-1.3l1.4,0.4c0.6,0.2,1.2-0.1,1.4-0.7c0.2-0.6-0.1-1.2-0.7-1.4l-2-0.6
						L531.1-1404.1z M532.3-1405.9l1.3,0.4c0.2,0.1,0.5-0.1,0.6-0.3c0.1-0.2-0.1-0.5-0.3-0.6l-1.3-0.4L532.3-1405.9z"/>
				</g>
				<path class="st0" d="M534-1403.2c0.2-0.5,0.5-1.6-0.2-1.8l-0.9-0.3c1.1,0.3,0.7,1.4,0.6,1.9"/>
			</g>
			<g transform="rotate(20.5)">
				<path id="O_1_" class="st0" d="M537-1402.2c0.8,0.3,1.8-0.2,2.1-1.1s0-1.9-0.9-2.3c-0.8-0.3-1.8,0.2-2.1,1.1
					S536.1-1402.5,537-1402.2 M537.2-1402.8c0.5,0.2,1.1-0.1,1.3-0.7c0.2-0.6,0-1.2-0.5-1.4c-0.5-0.2-1.1,0.1-1.3,0.7
					C536.5-1403.6,536.7-1403,537.2-1402.8"/>
			</g>
			<g>
				<g id="G">
					<g>
						<defs>
							<path id="SVGID_3_" d="M539.7-1401.1l1.4-3.3l3,1.3l-1.4,3.3L539.7-1401.1z M542.2-1402.7l-0.2,0.6l1.5,0.6l0.2-0.6
								L542.2-1402.7z"/>
						</defs>
						<clipPath id="SVGID_4_">
							<use xlink:href="#SVGID_3_"  style="overflow:visible;"/>
						</clipPath>
						<g transform="rotate(23.5)" class="st4">
							<path id="O_2_" class="st0" d="M541.2-1400.5c0.8,0.4,1.8-0.1,2.2-1c0.4-0.9,0.1-1.9-0.8-2.3c-0.8-0.4-1.8,0.1-2.2,1
								C540-1401.8,540.4-1400.8,541.2-1400.5 M541.5-1401.1c0.5,0.2,1.1-0.1,1.3-0.7c0.2-0.6,0.1-1.2-0.4-1.4
								c-0.5-0.2-1.1,0.1-1.3,0.7C540.8-1401.9,541-1401.3,541.5-1401.1"/>
						</g>
					</g>
					
						<rect x="542.4" y="-1402.2" transform="matrix(0.3987 -0.9171 0.9171 0.3987 1611.5505 -344.9768)" class="st0" width="0.5" height="1.4"/>
					
						<rect x="541.9" y="-1401" transform="matrix(0.3987 -0.9171 0.9171 0.3987 1610.9346 -344.3989)" class="st0" width="1.8" height="0.5"/>
				</g>
				<g transform="translate(-420,1470)">
					<g id="R_2_">
						<g transform="rotate(26.5)">
							<path id="P_3_" class="st0" d="M543.9-1399.3l0.6,0.3l0.6-1.2l1.3,0.6c0.6,0.3,1.2,0.1,1.5-0.5c0.3-0.6,0.1-1.2-0.5-1.5
								l-1.8-0.9L543.9-1399.3z M545.4-1400.7l1.2,0.6c0.2,0.1,0.5,0,0.6-0.2c0.1-0.2,0-0.5-0.2-0.6l-1.2-0.6L545.4-1400.7z"/>
						</g>
						<path class="st0" d="M546.6-1397.9c0.2-0.5,0.7-1.5,0-1.8l-0.9-0.4c1,0.5,0.5,1.5,0.3,2"/>
					</g>
					<g transform="rotate(29.5)">
						<path id="E_1_" class="st0" d="M548-1397.2l2.8,1.6l0.3-0.6l-2.3-1.3l0.5-0.8l1.8,1l0.3-0.5l-1.8-1l0.4-0.6l2.1,1.2l0.3-0.6
							l-2.7-1.5L548-1397.2z"/>
					</g>
					<g transform="rotate(32.5)">
						<path id="S" class="st0" d="M553.2-1395.4c-0.2,0.3,0,0.6,0.4,0.9c0.4,0.3,0.7,0.3,0.9,0.1c0.4-0.6-1.9-1.5-1.2-2.6
							c0.6-0.9,1.6-0.2,2,0c0.4,0.2,1,0.9,0.5,1.6l-0.7-0.4c0.2-0.3,0-0.6-0.4-0.9c-0.3-0.2-0.6-0.3-0.8,0c-0.3,0.5,1.9,1.5,1.2,2.5
							c-0.5,0.8-1.4,0.4-2,0.1c-0.5-0.3-1.2-1.1-0.8-1.8L553.2-1395.4z"/>
					</g>
					<g transform="rotate(35.5)">
						<path id="S_1_" class="st0" d="M557.1-1392.9c-0.2,0.3,0,0.6,0.4,0.9c0.4,0.3,0.7,0.3,0.8,0.1c0.4-0.6-1.8-1.6-1-2.7
							c0.7-0.9,1.6-0.1,2,0.1s1,0.9,0.4,1.7l-0.6-0.5c0.2-0.3,0-0.6-0.3-0.9c-0.3-0.2-0.6-0.3-0.8,0c-0.4,0.5,1.8,1.5,1.1,2.6
							c-0.5,0.8-1.4,0.4-2,0c-0.5-0.3-1.2-1.1-0.7-1.9L557.1-1392.9z"/>
					</g>
					<g transform="rotate(38.5)">
						<path id="O_3_" class="st0" d="M560.7-1388.7c0.7,0.6,1.8,0.4,2.4-0.4c0.6-0.8,0.6-1.9-0.1-2.4s-1.8-0.4-2.4,0.4
							C560-1390.4,560-1389.3,560.7-1388.7 M561.2-1389.2c0.4,0.3,1.1,0.2,1.4-0.3s0.4-1.2,0-1.5c-0.4-0.3-1.1-0.2-1.4,0.3
							S560.8-1389.6,561.2-1389.2"/>
					</g>
				</g>
			</g>
		</g>
	</g>
</g>
</svg>
