<?xml version="1.0" encoding="utf-8"?>
<!-- Generator: Adobe Illustrator 22.1.0, SVG Export Plug-In . SVG Version: 6.00 Build 0)  -->
<svg version="1.1" id="layer_1" xmlns="http://www.w3.org/2000/svg" xmlns:xlink="http://www.w3.org/1999/xlink" x="0px" y="0px"
	 viewBox="0 0 216 144" style="enable-background:new 0 0 216 144;" xml:space="preserve">
<style type="text/css">
	.st0{fill:#D25243;stroke:#000000;stroke-width:0.25;}
	.st1{fill:#68B486;stroke:#000000;stroke-width:0.25;}
	.st2{fill:#FFFFFF;stroke:#000000;stroke-width:0.25;}
	.st3{fill:#D25243;}
	.st4{fill:#FFFFFF;}
	.st5{fill:none;stroke:#D25243;stroke-width:0.25;}
</style>
<rect x="33.9" y="0" class="st0" width="182.1" height="96"/>
<rect x="33.9" y="96" class="st1" width="182.1" height="48"/>
<rect x="0" y="0" class="st2" width="34" height="144"/>
<rect x="34" y="0" class="st2" width="0" height="144"/>
<g>
	<g>
		<g>
			<polygon class="st3" points="7.7,25.1 7.7,26.9 8.5,26.9 8.5,28.9 9.3,28.9 9.3,31 8.5,31 8.5,33 7.7,33 7.7,34.8 6.5,34.8 
				6.5,33 5.7,33 5.7,31 4.8,31 4.8,28.9 5.7,28.9 5.7,26.9 6.5,26.9 6.5,25.1 			"/>
			<polygon class="st3" points="7.7,118.8 7.7,117.1 8.5,117.1 8.5,115 9.3,115 9.3,113 8.5,113 8.5,111 7.7,111 7.7,109.2 
				6.5,109.2 6.5,111 5.7,111 5.7,113 4.8,113 4.8,115 5.7,115 5.7,117.1 6.5,117.1 6.5,118.8 			"/>
			<polygon class="st3" points="16.7,17.6 16.7,20.3 17.9,20.3 17.9,23.2 19.2,23.2 19.2,25.3 20.8,25.3 20.8,28 21.9,28 21.9,25.3 
				23.4,25.3 23.4,23.2 24.8,23.2 24.8,20.3 26,20.3 26,17.6 27.2,17.6 27.2,13.9 26,13.9 26,10.8 24.8,10.8 24.8,7.1 23.4,7.1 
				23.4,4.9 19.2,4.9 19.2,7.1 17.9,7.1 17.9,10.8 16.7,10.8 16.7,13.9 15.3,13.9 15.3,10.8 14.1,10.8 14.1,7.1 12.7,7.1 12.7,4.9 
				8.5,4.9 8.5,7.1 7.2,7.1 7.2,10.8 6,10.8 6,13.9 4.8,13.9 4.8,17.6 6,17.6 6,20.3 7.2,20.3 7.2,23.2 8.5,23.2 8.5,25.3 
				10.1,25.3 10.1,28 11.2,28 11.2,25.3 12.7,25.3 12.7,23.2 14.1,23.2 14.1,20.3 15.3,20.3 15.3,17.6 			"/>
			<polygon class="st3" points="24.3,25.1 24.3,26.9 23.5,26.9 23.5,28.9 22.6,28.9 22.6,31 23.5,31 23.5,33 24.3,33 24.3,34.8 
				25.5,34.8 25.5,33 26.2,33 26.2,31 27.2,31 27.2,28.9 26.2,28.9 26.2,26.9 25.5,26.9 25.5,25.1 			"/>
			<polygon class="st3" points="16.4,31 16.4,33 17.2,33 17.2,34.8 18.4,34.8 18.4,33 19.1,33 19.1,31 20,31 20,28.9 19.1,28.9 
				19.1,26.9 18.4,26.9 18.4,25.1 17.2,25.1 17.2,26.9 16.4,26.9 16.4,28.9 15.6,28.9 15.6,26.9 14.8,26.9 14.8,25.1 13.6,25.1 
				13.6,26.9 12.8,26.9 12.8,28.9 12,28.9 12,31 12.8,31 12.8,33 13.6,33 13.6,34.8 14.8,34.8 14.8,33 15.6,33 15.6,31 			"/>
			<polygon class="st3" points="16.7,126.4 16.7,123.7 17.9,123.7 17.9,120.8 19.2,120.8 19.2,118.7 20.8,118.7 20.8,116 21.9,116 
				21.9,118.7 23.4,118.7 23.4,120.8 24.8,120.8 24.8,123.7 26,123.7 26,126.4 27.2,126.4 27.2,130.1 26,130.1 26,133.1 24.8,133.1 
				24.8,136.8 23.4,136.8 23.4,139.1 19.2,139.1 19.2,136.8 17.9,136.8 17.9,133.1 16.7,133.1 16.7,130.1 15.3,130.1 15.3,133.1 
				14.1,133.1 14.1,136.8 12.7,136.8 12.7,139.1 8.5,139.1 8.5,136.8 7.2,136.8 7.2,133.1 6,133.1 6,130.1 4.8,130.1 4.8,126.4 
				6,126.4 6,123.7 7.2,123.7 7.2,120.8 8.5,120.8 8.5,118.7 10.1,118.7 10.1,116 11.2,116 11.2,118.7 12.7,118.7 12.7,120.8 
				14.1,120.8 14.1,123.7 15.3,123.7 15.3,126.4 			"/>
			<polygon class="st3" points="24.3,118.8 24.3,117.1 23.5,117.1 23.5,115 22.6,115 22.6,113 23.5,113 23.5,111 24.3,111 
				24.3,109.2 25.5,109.2 25.5,111 26.2,111 26.2,113 27.2,113 27.2,115 26.2,115 26.2,117.1 25.5,117.1 25.5,118.8 			"/>
			<polygon class="st3" points="16.4,115 16.4,117.1 17.2,117.1 17.2,118.8 18.4,118.8 18.4,117.1 19.1,117.1 19.1,115 20,115 
				20,113 19.1,113 19.1,111 18.4,111 18.4,109.2 17.2,109.2 17.2,111 16.4,111 16.4,113 15.6,113 15.6,111 14.8,111 14.8,109.2 
				13.6,109.2 13.6,111 12.8,111 12.8,113 12,113 12,115 12.8,115 12.8,117.1 13.6,117.1 13.6,118.8 14.8,118.8 14.8,117.1 
				15.6,117.1 15.6,115 			"/>
			<polygon class="st3" points="16.9,100.2 16.9,103.5 18.2,103.5 18.2,106.6 19.7,106.6 19.7,109.6 20.6,109.6 20.6,111.3 
				22,111.3 22,109.6 22.9,109.6 22.9,106.8 24.8,106.8 24.8,103.5 26.3,103.5 26.3,100.8 27.2,100.8 27.2,96.7 26.3,96.7 
				26.3,93.9 25,93.9 25,89.9 23.8,89.9 23.8,87.1 22.4,87.1 22.4,89.9 21.1,89.9 21.1,93.9 20.2,93.9 20.2,96.7 21.5,96.7 
				21.5,100.8 19.8,100.8 19.8,98.1 18.7,98.1 18.7,93.3 17.3,93.3 17.3,89.6 18.6,89.6 18.6,86.8 19.9,86.8 19.9,83.4 21.3,83.4 
				21.3,79.9 22.5,79.9 22.5,76.6 23.8,76.6 23.8,79.8 24.9,79.8 24.9,82.4 25.8,82.4 25.8,85.7 26.5,85.7 26.5,88.3 27.2,88.3 
				27.2,78.5 26.2,78.5 26.2,75.3 25,75.3 25,73.1 23.9,73.1 23.9,70.9 25,70.9 25,68.7 26.2,68.7 26.2,65.4 27.2,65.4 27.2,55.6 
				26.5,55.6 26.5,58.2 25.8,58.2 25.8,61.6 24.9,61.6 24.9,64.2 23.8,64.2 23.8,67.4 22.5,67.4 22.5,64.1 21.3,64.1 21.3,60.5 
				19.9,60.5 19.9,57.2 18.6,57.2 18.6,54.4 17.3,54.4 17.3,50.7 18.7,50.7 18.7,45.9 19.8,45.9 19.8,43.2 21.5,43.2 21.5,47.3 
				20.2,47.3 20.2,50.1 21.1,50.1 21.1,54 22.4,54 22.4,56.9 23.8,56.9 23.8,54 25,54 25,50.1 26.3,50.1 26.3,47.3 27.2,47.3 
				27.2,43.2 26.3,43.2 26.3,40.4 24.8,40.4 24.8,37.2 22.9,37.2 22.9,34.4 22,34.4 22,32.6 20.6,32.6 20.6,34.4 19.7,34.4 
				19.7,37.4 18.2,37.4 18.2,40.4 16.9,40.4 16.9,43.8 15.1,43.8 15.1,40.4 13.7,40.4 13.7,37.4 12.3,37.4 12.3,34.4 11.4,34.4 
				11.4,32.6 10,32.6 10,34.4 9.1,34.4 9.1,37.2 7.2,37.2 7.2,40.4 5.7,40.4 5.7,43.2 4.8,43.2 4.8,47.3 5.7,47.3 5.7,50.1 7,50.1 
				7,54 8.2,54 8.2,56.9 9.5,56.9 9.5,54 10.9,54 10.9,50.1 11.8,50.1 11.8,47.3 10.5,47.3 10.5,43.2 12.1,43.2 12.1,45.9 
				13.3,45.9 13.3,50.7 14.7,50.7 14.7,54.4 13.3,54.4 13.3,57.2 12,57.2 12,60.5 10.7,60.5 10.7,64.1 9.5,64.1 9.5,67.4 8.1,67.4 
				8.1,64.2 7.1,64.2 7.1,61.6 6.1,61.6 6.1,58.2 5.4,58.2 5.4,55.6 4.8,55.6 4.8,65.4 5.8,65.4 5.8,68.7 6.9,68.7 6.9,70.9 8,70.9 
				8,73.1 6.9,73.1 6.9,75.3 5.8,75.3 5.8,78.5 4.8,78.5 4.8,88.3 5.4,88.3 5.4,85.7 6.1,85.7 6.1,82.4 7.1,82.4 7.1,79.8 8.1,79.8 
				8.1,76.6 9.5,76.6 9.5,79.9 10.7,79.9 10.7,83.4 12,83.4 12,86.8 13.3,86.8 13.3,89.6 14.7,89.6 14.7,93.3 13.3,93.3 13.3,98.1 
				12.1,98.1 12.1,100.8 10.5,100.8 10.5,96.7 11.8,96.7 11.8,93.9 10.9,93.9 10.9,89.9 9.5,89.9 9.5,87.1 8.2,87.1 8.2,89.9 
				7,89.9 7,93.9 5.7,93.9 5.7,96.7 4.8,96.7 4.8,100.8 5.7,100.8 5.7,103.5 7.2,103.5 7.2,106.8 9.1,106.8 9.1,109.6 10,109.6 
				10,111.3 11.4,111.3 11.4,109.6 12.3,109.6 12.3,106.6 13.7,106.6 13.7,103.5 15.1,103.5 15.1,100.2 			"/>
			<polygon class="st4" points="16.9,87.8 16.9,84.9 18,84.9 18,82 19,82 19,78.5 20.4,78.5 20.4,75.2 21.8,75.2 21.8,73.1 
				22.7,73.1 22.7,70.9 21.8,70.9 21.8,68.8 20.4,68.8 20.4,65.4 19,65.4 19,62 18,62 18,59.1 16.9,59.1 16.9,56.2 15.1,56.2 
				15.1,59.1 14,59.1 14,62 12.9,62 12.9,65.4 11.6,65.4 11.6,68.8 10.2,68.8 10.2,70.9 9.2,70.9 9.2,73.1 10.2,73.1 10.2,75.2 
				11.6,75.2 11.6,78.5 12.9,78.5 12.9,82 14,82 14,84.9 15.1,84.9 15.1,87.8 			"/>
			<polygon class="st3" points="16.6,74.7 16.6,76.2 17.7,76.2 17.7,78 18.6,78 18.6,74.7 17.7,74.7 17.7,73 16.8,73 16.8,70.9 
				17.7,70.9 17.7,69.3 18.6,69.3 18.6,66 17.7,66 17.7,67.8 16.6,67.8 16.6,69.3 15.3,69.3 15.3,67.8 14.3,67.8 14.3,66 13.3,66 
				13.3,69.3 14.3,69.3 14.3,70.9 15.2,70.9 15.2,73 14.3,73 14.3,74.7 13.3,74.7 13.3,78 14.3,78 14.3,76.2 15.3,76.2 15.3,74.7 
							"/>
		</g>
		<g>
			<polygon class="st4" points="11.2,22.7 11.2,20.2 12.4,20.2 12.4,17.3 13.6,17.3 13.6,14.2 12.4,14.2 12.4,11.3 11.2,11.3 
				11.2,8.8 10,8.8 10,11.3 8.9,11.3 8.9,14.2 7.7,14.2 7.7,17.3 8.9,17.3 8.9,20.2 10,20.2 10,22.7 			"/>
			<polygon class="st4" points="11.2,121.3 11.2,123.8 12.4,123.8 12.4,126.6 13.6,126.6 13.6,129.8 12.4,129.8 12.4,132.7 
				11.2,132.7 11.2,135.2 10,135.2 10,132.7 8.9,132.7 8.9,129.8 7.7,129.8 7.7,126.6 8.9,126.6 8.9,123.8 10,123.8 10,121.3 			"/>
			<polygon class="st4" points="20.7,22.7 20.7,20.2 19.6,20.2 19.6,17.3 18.4,17.3 18.4,14.2 19.6,14.2 19.6,11.3 20.7,11.3 
				20.7,8.8 21.9,8.8 21.9,11.3 23.1,11.3 23.1,14.2 24.3,14.2 24.3,17.3 23.1,17.3 23.1,20.2 21.9,20.2 21.9,22.7 			"/>
			<polygon class="st4" points="20.7,121.3 20.7,123.8 19.6,123.8 19.6,126.6 18.4,126.6 18.4,129.8 19.6,129.8 19.6,132.7 
				20.7,132.7 20.7,135.2 21.9,135.2 21.9,132.7 23.1,132.7 23.1,129.8 24.3,129.8 24.3,126.6 23.1,126.6 23.1,123.8 21.9,123.8 
				21.9,121.3 			"/>
		</g>
		<g>
			<rect x="4.8" y="7.2" class="st3" width="1" height="3"/>
			<rect x="15.5" y="21.4" class="st3" width="0.9" height="2.9"/>
			<rect x="15.5" y="4.9" class="st3" width="0.9" height="3.2"/>
			<rect x="15.5" y="62.2" class="st3" width="0.9" height="3.2"/>
			<rect x="4.8" y="21.4" class="st3" width="1" height="2.9"/>
			<rect x="4.8" y="35.8" class="st3" width="1" height="2.9"/>
			<rect x="4.8" y="51.1" class="st3" width="1" height="2.8"/>
			<rect x="4.8" y="134" class="st3" width="1" height="2.8"/>
			<rect x="10.2" y="126.6" class="st3" width="0.9" height="3.2"/>
			<rect x="15.5" y="119.7" class="st3" width="0.9" height="3"/>
			<rect x="15.5" y="135.9" class="st3" width="0.9" height="3.2"/>
			<rect x="15.5" y="78.5" class="st3" width="0.9" height="3.2"/>
			<rect x="4.8" y="119.6" class="st3" width="1" height="3"/>
			<rect x="4.8" y="105.1" class="st3" width="1" height="3.2"/>
			<rect x="4.8" y="90.1" class="st3" width="1" height="3.1"/>
			<rect x="4.8" y="70.4" class="st3" width="1" height="3.1"/>
			<rect x="11.8" y="70.4" class="st3" width="0.9" height="3.1"/>
			<rect x="26.2" y="7.2" class="st3" width="1" height="3"/>
			<rect x="20.9" y="14.1" class="st3" width="0.9" height="3.2"/>
			<rect x="26.2" y="21.4" class="st3" width="1" height="2.9"/>
			<rect x="26.2" y="35.8" class="st3" width="1" height="2.9"/>
			<rect x="26.2" y="51.1" class="st3" width="1" height="2.8"/>
			<rect x="26.2" y="134" class="st3" width="1" height="2.8"/>
			<rect x="20.9" y="126.6" class="st3" width="0.9" height="3.2"/>
			<rect x="26.2" y="119.6" class="st3" width="1" height="3"/>
			<rect x="26.2" y="105.1" class="st3" width="1" height="3.2"/>
			<rect x="26.2" y="90.1" class="st3" width="1" height="3.1"/>
			<rect x="26.2" y="70.4" class="st3" width="1" height="3.1"/>
			<rect x="19.3" y="70.4" class="st3" width="0.9" height="3.1"/>
			<rect x="15.5" y="35.6" class="st3" width="0.9" height="2.9"/>
			<rect x="15.5" y="105.3" class="st3" width="0.9" height="3.2"/>
		</g>
		<g>
			<rect x="6.8" y="29" class="st4" width="0.7" height="1.9"/>
			<rect x="13.9" y="29" class="st4" width="0.7" height="1.9"/>
			<rect x="6.8" y="113.1" class="st4" width="0.7" height="1.9"/>
			<rect x="13.9" y="113.1" class="st4" width="0.7" height="1.9"/>
			<rect x="24.5" y="29" class="st4" width="0.7" height="1.9"/>
			<rect x="17.4" y="29" class="st4" width="0.7" height="1.9"/>
			<rect x="24.5" y="113.1" class="st4" width="0.7" height="1.9"/>
			<rect x="17.4" y="113.1" class="st4" width="0.7" height="1.9"/>
		</g>
	</g>
	<rect x="10.2" y="14.1" class="st4" width="0.9" height="3.2"/>
</g>
<rect x="0.2" y="0.2" class="st5" width="33.8" height="143.5"/>
</svg>
