<?xml version="1.0" encoding="utf-8"?>
<!-- Generator: Adobe Illustrator 22.1.0, SVG Export Plug-In . SVG Version: 6.00 Build 0)  -->
<svg version="1.1" id="layer_1" xmlns="http://www.w3.org/2000/svg" xmlns:xlink="http://www.w3.org/1999/xlink" x="0px" y="0px"
	 viewBox="0 0 216 144" style="enable-background:new 0 0 216 144;" xml:space="preserve">
<style type="text/css">
	.st0{fill:#2E3E6B;stroke:#000000;stroke-width:0.25;}
	.st1{fill:#C4524E;stroke:#000000;stroke-width:0.25;}
	.st2{fill:#FFFFFF;}
	.st3{fill:#35775A;stroke:#000000;stroke-width:0.125;stroke-miterlimit:2.5;}
	.st4{fill:#877052;stroke:#000000;stroke-width:0.125;stroke-miterlimit:2.5;}
	.st5{fill:#FFFFFF;stroke:#000000;stroke-width:6.250000e-02;stroke-miterlimit:2.5;}
	.st6{fill:none;stroke:#000000;stroke-width:0.125;stroke-miterlimit:2.5;}
	.st7{fill:#FFFFFF;stroke:#000000;stroke-width:0.125;stroke-miterlimit:2.5;}
	.st8{fill:#FBE075;stroke:#000000;stroke-width:0.125;stroke-miterlimit:2.5;}
	.st9{fill:#2E3E6B;stroke:#000000;stroke-width:0.125;stroke-miterlimit:2.5;}
	.st10{fill:#FFFFFF;stroke:#000000;stroke-width:0.125;stroke-linecap:round;stroke-miterlimit:2.5;}
	.st11{stroke:#000000;stroke-width:0.125;stroke-miterlimit:2.5;}
	.st12{fill:#5D8CC0;stroke:#000000;stroke-width:0.125;stroke-miterlimit:2.5;}
	.st13{fill:none;stroke:#FBE075;stroke-width:0.125;stroke-miterlimit:2.5;}
	.st14{fill:none;stroke:#35775A;stroke-width:0.125;stroke-miterlimit:2.5;}
	.st15{fill:#AF6A35;stroke:#000000;stroke-width:0.125;stroke-miterlimit:2.5;}
	.st16{stroke:#000000;stroke-width:0.125;}
	.st17{fill:none;stroke:#35775A;stroke-width:0.5;}
	.st18{fill:#35775A;stroke:#000000;stroke-width:0.125;}
	.st19{fill:#F3C95A;stroke:#000000;stroke-width:0.125;stroke-miterlimit:2.5;}
	.st20{fill:#877052;stroke:#000000;stroke-width:0.125;}
	.st21{fill:#FFFFFF;stroke:#877052;stroke-width:0.125;stroke-miterlimit:2.5;}
	.st22{fill:none;stroke:#877052;stroke-width:0.125;stroke-miterlimit:2.5;}
</style>
<rect x="0.5" y="15.9" class="st0" width="216" height="115.2"/>
<g>
	<rect x="0.5" y="1.5" class="st1" width="216" height="14.4"/>
	<rect x="0.5" y="131.1" class="st1" width="216" height="14.4"/>
</g>
<g>
	<g>
		<circle class="st2" cx="108.5" cy="73.5" r="43.1"/>
		<path class="st2" d="M108.5,73.5"/>
	</g>
	<path class="st3" d="M100.8,54.1c0.1,0.4-0.1,0.9-0.4,1.1c-0.4,0.3,0.2,0.2,0.3,0.2c-0.2,0.3-0.3,0.6,0,0.6c0.2,0,0.3,0.1,0.3,0.4
		c0,0.2,0.3,0.1,0.4-0.1c0.1-0.2,0.6-0.1,0.4,0.2c-0.2,0.2-0.5,0.5-0.2,0.7c0.2,0.2,0.2,0.6,0,0.8c0.3,0.3-0.5,0.9-0.3,1.4
		c0.1-0.1,0.2-0.2,0.3-0.3c0.1-0.3,0,0.3,0.3,0.6c0.2-0.2,0.4-0.1,0.4,0.2c0.2-0.1,0.3-0.1,0.5,0.2c0.4-0.3,0.7-0.2,0.9,0.2
		c0.6-0.5,1.1-0.4,1.3,0c0.3-0.5,0.5-0.5,0.9-0.2c-0.1-0.3,0.2-1,0.7-0.2c0.6,0.8,2,0.1,2.6,0.1c0.8,0,0.9,0.8,1.4,0.6
		c-0.1-0.2,0.4-0.6,0.2-0.8c0.8,0.5,1,0,1.3,0.3c0-0.3-0.1-0.7,0.1-0.9c0.1,0.2,0.3,0.3,0.5,0.4c-0.1-0.5,0.4-0.7,0.6-0.8
		c-0.1,0.2,0.2,0.4,0.5,0.5c-0.1-0.2,0-0.6,0-0.7c0.2,0.2,0.4,0.3,0.6,0.3c-0.1-0.5,0-0.8,0.3-0.8c0-0.4-0.4-0.6-0.6-0.7
		c-0.2-0.1-0.1-0.4,0.7-0.2c-0.1-0.9-2-0.7-2.1-1.2c-0.1-0.5,0.5-0.5,0.9-0.3c0-0.4-1.4-0.8-1.5-1.2c-0.1-0.4,0.3-0.4,0.7-0.2
		c0.1-0.4-0.3-0.9,0.1-1.1c-0.3-0.1,0.1-0.5,0.4-0.4c0.3,0.2,0.7-0.3,0.3-0.6c-0.4-0.3-1-0.6-0.6-0.9c-0.1-0.1-0.1-1,0.7-0.9
		c-0.5-0.6-1.6-0.4-1.8-0.6c-0.2-0.2,0.2-0.6,0.5-0.5c-0.2-0.9-1-0.6-1.3-1.2c-0.3-0.6-1.3-0.7-1.8-0.6c0-0.1,0-0.2,0.1-0.2
		c-0.3-0.2-0.7,0-0.9,0.3c-0.2,0.3-0.4,0.2-0.6,0.2c-0.1,0.3,0.3,0.4,0.2,0.5c-0.1,0.2-0.4,0.2-0.1,0.6c0.3,0.4-0.2,0.4-0.3,0.3
		c-0.2,0-0.3-0.3-0.2-0.5c-0.2-0.1-0.3-0.3-0.2-0.6c-0.6-0.2-0.7-0.3-0.7-0.5c0-0.2-0.4-0.3-0.4-0.2c-0.1-0.2-0.4-0.2-0.5-0.1
		c-0.1,0.1-0.4,0.2-0.6,0c0,0.1-0.1,0.3,0,0.4c-0.2,0.1-0.5-0.9-0.9-0.3c-0.2,0.4-0.7,0.7-0.9,0.7c0.2,0.2,0.1,0.7-0.2,0.8
		c0.3,0.1,0.3,0.4,0.1,0.5c0.7-0.2,0.8,0.3,0.6,0.5c-0.2,0.2-1.6,0.1-1.7,0.8c-0.1,0.7-0.4,1.1-0.7,1.4c0.1,0,0.4,0,0.5,0
		c-0.1,0.1-0.2,0.4-0.1,0.7c0.2-0.1,0.5-0.3,0.6-0.5c-0.1,0.1-0.3,0.6-0.1,0.7c0.4,0,0.8-0.7,0.9-0.9c0.2,0.3,0.3,0.8,0,1.1
		c-0.3,0.5-1-0.4-1.4,0.1C101.4,54,101.1,53.7,100.8,54.1z"/>
	<path class="st4" d="M106.7,67c0.5-1.1,0.6-1.4,0.7-2.7c0.1-1.5,0.2-3.8-0.5-4.6c-0.7-0.8,0.1-0.3,0.3-0.2c0.3,0.2,0.4-0.2,0.4-0.6
		c0-0.3,0.1-2.6-0.6-3.5c0.1-0.3,0.4-0.2,0.6-0.1c0-0.4,0.5-0.3,0.4-0.9c0.3,1.8,0.3,2.8,0.4,3.6c0.2-0.2,0.8-0.7,1-1
		c0.2-0.3,0.3-0.3,0.4,0c0.1,0.2-0.1,0.3-0.4,0.6c-0.3,0.4-0.9,0.8-1,1.3c-0.1,0.5,0,0.7,0.4,0.7c0.4,0,1.1-0.1,2.1-1.4
		c0.1-0.2,0.4,0,0.7,0.2c0.2,0.1,0.6,0.3,1.1,0.1c-0.1,0.3-0.3,0.5-0.7,0.4c-0.4-0.1-0.6-0.2-0.8-0.2c-0.2-0.1-0.2,0.1-0.3,0.4
		c-0.1,0.3-0.4,0.8-1.1,0.9c-0.2,0.1,0,0.4-0.1,1.1c-0.2,1.8,0.3,4.9,1.1,5.9L106.7,67z"/>
	<g>
		<path class="st5" d="M104.6,48.5c0.1,0.2,0.5,0.2,0.7,0c0.2-0.2,0.2,0,0.3,0.1c0,0.1,0.4,0.1,0.7,0.1c0.3-0.1,0.4,0.1,0.3,0.2
			c-0.1,0.1-0.2,0.3-0.2,0.4c0,0.2-0.2,0.1-0.5-0.1c-0.2-0.2-0.4-0.1-0.6,0c-0.1,0.1-0.5-0.3-0.7,0c-0.2,0.2-0.4-0.1-0.3-0.2
			C104.5,48.8,104.4,48.2,104.6,48.5z"/>
		<path class="st5" d="M104.3,49.8c0.2-0.2,0.5-0.2,0.6,0c0.1,0.2-0.2,0.2-0.2,0.1S104.2,49.9,104.3,49.8z"/>
		<path class="st5" d="M103.9,50.8c0.1,0.3,0.6,0,0.7-0.1c0.2,0.3,0.5,0,0.6,0.2c0.1,0.2,0.8,0.1,0.9,0.4c0.1,0.3-0.3,0.6-0.6,0.3
			c-0.5-0.5-0.7,0.2-1-0.1c-0.3-0.2-0.7,0.2-0.8-0.2c-0.1-0.2-0.5-0.1-0.3-0.5C103.6,50.7,103.8,50.7,103.9,50.8z"/>
		<path class="st5" d="M101.8,54.1c0.5-0.2,0.7-0.3,1-0.2c0.3,0.2,0.6,0,0.8,0c0.2,0.1-0.2,0.3,0.2,0.4c0.4,0.1,0.5,0.3,0,0.3
			s-0.7,0.2-1,0c-0.4-0.2-0.6,0-0.8,0.3c-0.2,0.3-0.5,0.7-0.5,0.3c0-0.4,0.4-0.5,0.4-0.7C102,54.3,101.6,54.2,101.8,54.1z"/>
		<path class="st5" d="M106.4,52.6c0.2,0,0.7,0,1-0.1c0.1,0.1,0.2,0.2,0.3,0.2c-0.7,0.5-0.7,0.8-0.5,0.9c-0.2-0.1-0.6,0-0.6,0.3
			c0,0.1-0.2,0.2-0.1-0.2c0.1-0.4,0.1-0.5,0.3-0.6c0.2-0.1,0.1-0.3-0.2-0.3C106.2,52.8,106.1,52.5,106.4,52.6z"/>
		<path class="st5" d="M107.6,50.6c0.1,0,0.4,0.1,0.7,0.1c0.3,0,0.5,0.1,0.3,0.2c-0.2,0.1-0.4,0.2-0.3,0.4c-0.2,0-0.1-0.3-0.4-0.4
			C107.4,50.9,107.2,50.5,107.6,50.6z"/>
		<path class="st5" d="M109.2,50.8c0.1,0.2,0.1,0.8-0.1,0.9c-0.5,0.4,0.2,0.3,0.1,0.5c0.2-0.2,0.3-0.5,0.6-0.4
			c0.3,0.1,0.3-0.2,0.2-0.3c0-0.1,0.2-0.4,0.4-0.3c-0.4-0.2-0.7-0.2-0.9-0.5C109.3,50.4,109.1,50.6,109.2,50.8z"/>
		<path class="st5" d="M111,50.8c0.1,0.4,0.4,0.3,0.4,0.5c0,0.2-0.4,0.2-0.1,0.7c0.3-0.2,0.6-0.5,0.9-0.4c0.3,0.1,0.3-0.1,0.3-0.3
			c0-0.3-0.4,0-0.6-0.4c-0.2-0.3-0.4-0.5-0.5-0.3C111.3,50.8,111.3,50.9,111,50.8z"/>
		<path class="st5" d="M112.3,53.5c-0.3,0-0.6-0.2-0.7-0.4c-0.1-0.3-0.3-0.2-0.4,0c-0.1,0.2-0.5,0.5-0.7,0.5c0.4,0.2,0.8-0.1,1,0
			C111.9,53.7,112.2,53.7,112.3,53.5z"/>
		<path class="st5" d="M108.9,53.9c0.4,0.2,1.1,0.2,1.5,0.2c0.4-0.1,0.9,0.3,1.4,0.1c-0.4,0.2-0.5,0.6-0.2,0.7
			c-0.1,0.3,0.2,0.4,0.6,0.4c-0.2,0.1-0.3,0.3-0.3,0.5c-0.1-0.2-0.4-0.5-0.6-0.4c0-0.3-0.5-0.7-0.8-0.7c0.3-0.1,0.2-0.3-0.1-0.4
			c-0.3,0-0.6,0.1-0.6,0.4c0,0.3-0.5,0.2-0.6-0.1c-0.1-0.3-0.9,0.1-0.6-0.4C108.8,54,109,54,108.9,53.9z"/>
		<path class="st5" d="M106.7,55.7c-0.7-0.6-1.4,0.4-1.7,0.1c0.1,0.7-0.8,0.9-0.5,1.2c0.1,0.2,0,0.4-0.2,0.6c-0.3,0.3,1,0.6,0.8,0.1
			c-0.2-0.9,0.3-0.8,0.2-1.1c-0.1-0.3,0.7-0.2,0.7-0.5c0.1,0.2-0.4,0.4-0.3,0.7C106.1,56.4,106.9,56.5,106.7,55.7z"/>
		<path class="st5" d="M102.8,58.1c-0.2,0.2-0.5,0.2-0.4-0.1c0.1-0.4-0.5-0.3-0.3-0.5c0.2-0.2,0.6-0.3,0.7-0.5
			c0,0.5,0.3,0.5,0.6,0.5c0.3-0.1,0.3,0.1,0.2,0.3c-0.2,0.3,0,0.5,0.4,0.4c0.4-0.1,0.5,0,0.5,0.1c-0.2,0-0.9,0.2-1.1,0
			C103.3,58,102.9,57.9,102.8,58.1z"/>
		<path class="st5" d="M103.1,58.7c-0.1,0.1-0.2,0.4-0.3,0.5c-0.1,0.1,0.1,0.2,0.4,0C103.4,59,103.3,58.6,103.1,58.7z"/>
		<path class="st5" d="M108.7,48.5c0.1,0.2,0.6,0.2,0.8,0.1c0.2,0.2,0.4-0.2,0.7,0.3c0.3,0.6,0.8,0.2,1,0.4c0-0.2,0.4-0.3,0.8-0.1
			c-0.3-0.2-0.8-0.2-0.9-0.2c-0.6,0.2-0.6-0.7-1.1-0.6c-0.5,0.1-0.5-0.3-0.6-0.1C109.3,48.6,108.9,48,108.7,48.5z"/>
		<path class="st5" d="M109.9,57.7c0.1-0.1,0.3-0.2,0.3-0.3c0.4,0,0.8-0.3,1-0.4c0.2-0.2,0.7,0.3,1,0.1c0.3-0.1,0.3,0.3,0.5,0.2
			c0.4-0.2,0.7,0.4,1.2,0.1c-0.4,0.2-0.6,0.3-0.6,0.5c-0.2-0.1-0.3,0-0.4,0.3c-0.4,0.1-0.5-0.5-0.9-0.3c-0.4,0.1-0.6-0.8-1.2-0.4
			c-0.7,0.5-1,0.4-1.1,0.6C110.1,58,110,57.7,109.9,57.7z"/>
		<path class="st5" d="M104.8,52.6c-0.1,0.8,0.6,0.9,0.3,1.3c-0.2,0.3,0,0.7,0.5,0.8c0.4,0.1,0.7-0.3,0.4-0.5c0-0.7-0.5-0.1-0.5-0.5
			C105.5,53.3,104.7,52.9,104.8,52.6z"/>
		<path class="st5" d="M106.5,58.2c-0.4-0.1-0.6,0.2-0.3,0.6C106.3,58.6,106.2,58.2,106.5,58.2z"/>
		<path class="st5" d="M104.5,58.9c0.1-0.5,0.5-0.4,0.5,0.1C105.1,58.7,104.7,58.6,104.5,58.9z"/>
		<path class="st6" d="M107.1,67.1c0.3-0.7,0.8-2.1,0.8-3.2"/>
		<path class="st6" d="M107.9,62.3c0-0.6-0.1-1.9-0.2-2.3"/>
		<path class="st6" d="M108.9,67c-0.1-0.4-0.5-1.4-0.6-2"/>
		<path class="st6" d="M109.2,66.5c-0.3-0.7-0.6-3.7-0.5-4.8"/>
		<path class="st6" d="M109.2,60.5c0,0.8,0,2.7,0.1,3.4"/>
	</g>
	<g>
		<path class="st7" d="M117.9,66.9V79c0,5-4.7,10.1-9.4,11.5c-4.7-1.5-9.4-6.6-9.4-11.5V66.9H117.9z"/>
		<path class="st8" d="M117.9,66.9V79c0,1.3-0.3,2.7-0.9,4l0,0l-8.5-7.3v-8.8H117.9z"/>
		<path class="st9" d="M108.5,90.6c3.4-1.1,6.9-4.1,8.5-7.5l-8.5-7.3L100,83C101.6,86.5,105.1,89.5,108.5,90.6z"/>
		<g>
			<line class="st10" x1="111.6" y1="82.3" x2="113.2" y2="81.7"/>
			<line class="st10" x1="108.5" y1="79.2" x2="108.5" y2="77.9"/>
			<line class="st10" x1="106.5" y1="79.8" x2="106.5" y2="78.6"/>
			<line class="st10" x1="110.9" y1="79.2" x2="110.9" y2="78"/>
			<line class="st10" x1="110" y1="79.2" x2="109.1" y2="79.8"/>
			<line class="st10" x1="109.8" y1="80.2" x2="109.1" y2="81.2"/>
			<line class="st10" x1="109.6" y1="81.4" x2="108.9" y2="82.5"/>
		</g>
		<g>
			<path class="st7" d="M113.1,81.8c0.1,0.3-0.2,0.8,0,1.3c-0.3,0.2-0.2,0.4-0.5,0.6c-0.4-0.6-0.2-1.2-0.5-1.6L113.1,81.8z"/>
			<path class="st7" d="M107.3,79.5c-0.5,0.1-1.2,0.3-1.5,0.4c-0.1,0.2-0.2,0.6-0.2,0.8c0.4-0.1,1.2-0.4,1.6-0.5
				C107.2,80.1,107.2,79.7,107.3,79.5z"/>
			<path class="st7" d="M107.2,80.2c-0.5,0.1-1.4,0.3-1.7,0.5c-0.1,0.3-0.2,0.9-0.2,1.3c0.4-0.1,1.3-0.4,1.7-0.4
				C107,81.3,107.1,80.5,107.2,80.2z"/>
			<path class="st7" d="M107.1,81.5c-0.4,0.1-1.4,0.3-1.7,0.4c-0.2,0.4-0.3,1-0.3,1.4c0.4-0.1,1.5-0.3,1.9-0.3
				C106.9,82.7,106.9,81.9,107.1,81.5z"/>
			<path class="st7" d="M107,83c-0.6,0.1-1.4,0.2-1.9,0.4c-0.2,0.4-0.2,0.9-0.2,1.3c0.6-0.1,1.4,0.1,1.9,0
				C106.8,84.3,106.8,83.3,107,83z"/>
			<path class="st7" d="M109.4,79c-0.5,0-1.3,0.2-1.8,0.3c-0.2,0.2-0.2,0.6-0.2,0.9c0.5-0.1,1.5-0.1,1.8-0.1
				C109.3,79.8,109.3,79.4,109.4,79z"/>
			<path class="st7" d="M109.3,80.1c-0.5,0-1.4,0-1.9,0.1c-0.2,0.3-0.2,0.9-0.2,1.3c0.5-0.1,1.6-0.2,2-0.2
				C109.1,80.9,109.2,80.5,109.3,80.1z"/>
			<path class="st7" d="M109.2,81.3c-0.4,0-1.6,0.2-2,0.2c-0.2,0.3-0.2,1-0.2,1.4c0.5-0.1,1.5-0.2,2.1-0.4
				C109.1,82.2,109.2,81.7,109.2,81.3z"/>
			<path class="st7" d="M109.2,82.6c-0.4,0-1.6,0.2-2,0.3c-0.2,0.3-0.2,1.1-0.2,1.7c0.6-0.1,1.8,0.1,2.4,0
				C109.2,84,109.1,83,109.2,82.6z"/>
			<path class="st7" d="M111.8,79c-0.5,0-1.3,0-1.9,0c-0.2,0.2-0.2,0.5-0.2,0.8c0.5,0,1.6,0,1.9,0C111.6,79.6,111.7,79.4,111.8,79z"
				/>
			<path class="st7" d="M111.7,79.9c-0.5,0-1.4,0-2,0c-0.2,0.4-0.2,0.9-0.2,1.3c0.5,0,1.9,0,2.2-0.1
				C111.6,80.7,111.5,80.2,111.7,79.9z"/>
			<path class="st7" d="M111.7,81.2c-0.5,0-1.6,0-2.2,0.1c-0.2,0.5-0.2,1.1-0.1,1.6c0.5,0,2-0.1,2.4-0.1
				C111.7,82.3,111.6,81.7,111.7,81.2z"/>
			<path class="st7" d="M111.8,82.8c-0.5,0-1.8,0-2.4,0.1c-0.1,0.6,0,1.1,0.1,1.7c0.9,0,2.2,0,2.6,0
				C111.9,84.1,111.8,83.4,111.8,82.8z"/>
			<path class="st7" d="M106.5,78.7c-0.4,0.3-0.7,0-1,0.2c-0.2,0.1-0.5,0.3-0.5,0.5c0.3-0.2,0.3,0,0.6-0.1c0.3-0.2,0.5,0.2,0.9,0
				V78.7z"/>
			<path class="st7" d="M108.5,78c-0.2,0.3-1.1-0.1-1.5,0.3c0,0.1,0,0.5,0,0.6c0.4-0.4,1.3,0.1,1.5-0.2V78z"/>
			<path class="st7" d="M110.9,78.3c-0.3-0.4-1.3,0.2-1.6-0.2c-0.1,0.2,0.4,0.8,0.7,0.7c0.3-0.1,0.7-0.2,0.9,0V78.3z"/>
			<path class="st7" d="M105.8,80.1c-1.3,1.6-2.9,3-4.2,3.9c1.2-0.2,2.9,0.2,3.4,0.7C104.4,84,104.6,81.3,105.8,80.1z"/>
		</g>
		<path class="st11" d="M113.3,85.7c0.3-0.2,0.2-0.7,0.8-1.1c-0.2,0.1-0.5,0.1-1.4,0.1s-6,0-7.3,0c-1.3,0-2.8-0.4-3.8-0.7
			c0.5,0.3,1.9,0.9,2.3,1.8C104.5,86.8,107.5,89.1,113.3,85.7z"/>
		<path class="st12" d="M101.6,85.6c1.8,2.3,4.3,4.1,6.9,4.9c2.5-0.8,5.1-2.6,6.9-4.9c-0.5,0.4-1.9,0.3-2.3,0
			c-0.5,0.4-1.9,0.3-2.3,0c-0.5,0.4-1.9,0.3-2.3,0c-0.5,0.4-1.9,0.3-2.3,0c-0.5,0.4-1.9,0.3-2.3,0C103.4,86,102,85.9,101.6,85.6z"/>
		<g>
			<path class="st13" d="M114.1,86.9c-0.6,0.1-1.3,0-1.5-0.2c-0.5,0.4-1.8,0.3-2.2,0c-0.5,0.4-1.8,0.3-2.2,0c-0.5,0.4-1.8,0.3-2.2,0
				c-0.5,0.4-1.8,0.3-2.2,0c-0.2,0.2-0.6,0.2-1,0.2"/>
			<path class="st13" d="M111.8,88.7c-0.5,0-1.1-0.1-1.3-0.2c-0.5,0.4-1.8,0.3-2.2,0c-0.5,0.4-1.8,0.3-2.2,0c-0.2,0.2-0.6,0.2-1,0.2
				"/>
		</g>
		<g>
			<path class="st14" d="M114.5,86.3c-0.5,0-1.1-0.1-1.4-0.2c-0.5,0.4-1.8,0.3-2.2,0c-0.5,0.4-1.8,0.3-2.2,0c-0.5,0.4-1.8,0.3-2.2,0
				c-0.5,0.4-1.8,0.3-2.2,0c-0.4,0.3-1.4,0.3-2,0.1"/>
			<path class="st14" d="M113.5,87.4c-0.2,0-0.5-0.1-0.6-0.2c-0.5,0.4-1.8,0.3-2.2,0c-0.5,0.4-1.8,0.3-2.2,0c-0.5,0.4-1.8,0.3-2.2,0
				c-0.5,0.4-1.8,0.3-2.2,0c-0.2,0.1-0.5,0.2-0.8,0.2"/>
			<path class="st14" d="M111.2,89.1c-0.1,0-0.2-0.1-0.2-0.1c-0.5,0.4-1.8,0.3-2.2,0c-0.5,0.4-1.8,0.3-2.2,0
				c-0.1,0.1-0.4,0.2-0.6,0.2"/>
		</g>
		<g>
			<path class="st4" d="M117.4,75.7c-1.2-1-1.2-2.5-3.4-4.8c-0.8-0.8-1.7-2.1-2.7-3.3c-0.2-0.2-0.9,0.3-0.7,0.5
				c1,1.3,1.7,1.9,2.9,3.7c1.2,1.8,1.2,3.1,2.8,5.1C116.6,77.1,117.8,76,117.4,75.7z"/>
			<path class="st7" d="M111.8,69.8c-0.2,0.3-0.7,1.3-0.8,1.8c-0.9-0.4-1.9-1.2-2.3-2.2c0.5-0.1,1.4-0.5,1.9-1
				C110.9,68.7,111.6,69.5,111.8,69.8z"/>
			<path class="st7" d="M111.8,69.9c0.1,0.1,0.3,0,0.3,0c0,0-0.1-0.1-0.1-0.1c-0.1-0.2,0.5-0.7,0.6-0.6c0,0.1,0.1,0.1,0.1,0.2
				c0.1-0.1,0.2-0.2,0-0.5c-0.2-0.2-0.7-0.9-0.9-1.1c-0.1-0.1-0.2-0.1-0.3-0.1c-0.2,0-0.6,0.4-0.8,0.5c-0.1,0.1-0.2,0.2-0.1,0.3
				C110.9,68.8,111.4,69.4,111.8,69.9z"/>
			<path class="st4" d="M110,74.3c-0.5-0.5-0.8-0.8-1-0.6c-0.2,0.2,0.1,0.5,0.6,1L110,74.3z"/>
			<path class="st4" d="M116.3,68c-0.5-0.5-0.8-0.8-1-0.6c-0.2,0.2,0.1,0.5,0.6,1L116.3,68z"/>
			<path class="st7" d="M110.5,75.7l-1-1l6.8-6.8l1,1C116.1,71.1,112.8,74.4,110.5,75.7z"/>
		</g>
		<g>
			<path class="st4" d="M106.6,75.5c0.3,0.1,0.5,0.3,0.6,0.1c0.1-0.1,0-0.3-0.5-0.6c-0.6-0.3-1.6-1.6-2.5-2.7
				c-0.7-0.8-1.9-2.3-3-3.7c-0.8-1-1.3-0.7-1.5-0.5c-0.2,0.2-0.6,0.7,0.3,1.6c1.3,1.2,2.6,2.5,3.4,3.3c1,1,2.2,2.1,2.5,2.7
				c0.2,0.5,0.4,0.6,0.5,0.5c0.2-0.1,0-0.3-0.1-0.6C106.4,75.6,106.5,75.5,106.6,75.5z"/>
			<g>
				<path class="st7" d="M104.8,69.8c-0.3-0.3-0.2-0.8,0.2-1.2c0.4-0.4,0.9-0.5,1.2-0.2l1.8,1.8c0.3,0.3,0.2,0.8-0.2,1.2
					c-0.4,0.4-0.9,0.5-1.2,0.2L104.8,69.8z"/>
				<path class="st7" d="M106.6,71.6c0.3,0.3,0.8,0.2,1.2-0.2c0.4-0.4,0.5-0.9,0.2-1.2c-0.3-0.3-0.8-0.2-1.2,0.2
					C106.5,70.8,106.4,71.3,106.6,71.6z"/>
			</g>
			<path class="st4" d="M106,70.9c-1.7,1.7-2.7,3-4.1,4.4c-0.8,0.8-1.5,1.2-1.8,0.8c-0.3-0.3,0-1,0.8-1.8c1.4-1.4,2.7-2.4,4.4-4.1
				C105.5,70,106.1,70.8,106,70.9z"/>
		</g>
	</g>
	<g>
		<path class="st15" d="M112.4,50.8c-0.6,1,0.7,1.9,2.8,3.2c2,1.3,14.9,8.3,15.8,8.8c0.9,0.5,1.6,0.9,1.8,1.3
			c0.2,0.4,0.1,0.5,0.8,0.8c0.4,0.1,0.5-0.4,0.2-0.5c-0.4-0.2-0.5-0.3-0.4-0.5c0.1-0.2,0.4-0.1,0.7,0.1c0.2,0.2,0.6-0.1,0.3-0.4
			c-0.6-0.5-0.7-0.4-1.1-0.4c-0.4,0-1.1-0.5-1.9-1.1c-0.9-0.5-12.8-9-14.9-10.3C114.5,50.6,113,49.8,112.4,50.8z"/>
		<path class="st6" d="M114.3,53.1c2,1.3,14.9,8.4,15.7,8.9"/>
		<path class="st6" d="M114.6,52.7c2,1.3,14.7,8.7,15.5,9.3"/>
	</g>
	<path class="st4" d="M125.3,88.1c0,0.5-0.2,0.7-0.2,1.1c0.1,0.3,0.3,0.5,0.4,0.9c0.1,0.4,0.6,0.3,0.7,0.2c0,0,0.1-0.1,0.1-0.1
		c0.4,0.2,0.7,0,0.7-0.2c0.1,0.1,0.2,0.2,0.4,0.1c0.1,0,0.1-0.1,0.1-0.2c0.2,0,0.3-0.1,0.4-0.2c0,0,0-0.1,0-0.2
		c0.5,0,0.4-0.6,0.1-0.7c-0.2-0.2-0.4-0.3-0.5-0.6C127.1,87.7,125.9,87.8,125.3,88.1z"/>
	<path class="st4" d="M118.8,86.5c-0.4,0.1-0.5,0.7-1.4,0.7c-0.3,0-0.7,0.2-1.2,0.2c-0.2,0-0.2,0.3,0,0.4c0.1,0.4,0.3,0.4,1,0.4
		c0.2,0.1,0.8,0.2,1.2,0c0.4-0.2,1.4-0.1,2,0.1c0.6,0.2,0.8-0.3,0.8-0.5c0-0.3-0.1-0.5,0-0.8C120.7,86.7,119.1,86.4,118.8,86.5z"/>
	<path class="st4" d="M113.2,66.9c0-0.2,0.6-0.3,0.7-0.4c0.4-0.1,0.7-0.3,0.9-0.3c0.4-0.2,0.8-0.2,1.2-0.1c0.3,0.2,0.8,0.2,1.2,0.3
		c0.4,0.1,1.1,0.2,1.6,0.4c-0.2-1.6,0.2-2.2,0.4-2.6c0.2-0.4,0.3-0.9,0.3-1.8c0-1,0.8-1.4,1.3-1.7c0.2-0.1,0.4-0.2,0.6-0.3
		c0.1-0.2,0.4-0.5,0.9-0.8c0.5-0.3,0.3-0.7,0.3-1.3c-2.5-2.2,1.8-4.9,3-2.8c0,0.3,0.3,0.6,0.3,0.8c0,0.2-0.1,0.4-0.2,0.5
		c-0.1,0.1,0,0.3,0.1,0.6c0.1,0.3,0,0.8-0.2,1.1c-0.2,0.3-0.3,0.5-0.3,0.7c-0.1,0.3-0.2,0.4-0.4,0.5c0,0-0.1,0-0.2,0
		c0,0.1,0,0.2,0,0.3c0,0.3,0.4,0.7,0.8,0.7c0.3,0,0.6,0.1,0.8,0.2c0.5,0.4,0.9,0.2,1.1,0.5c0.6,0.8,0.9,1.2,0.9,2.3
		c0.6,0.6,1.1,1.1,1.1,2.4c0.3-0.7,0.6-0.6,0.8-1.1c0.1-0.2,0.2-0.3,0.4-0.3c0-0.1-0.1-0.2,0-0.3c-0.4-0.3-0.1-0.6-0.3-0.9
		s-0.1-0.6,0-0.7c0.1-0.1,0.1-0.2,0.3-0.4c0.2-0.2,0.5-0.1,0.5,0.2c0,0.1,0,0.1,0,0.2c0.1,0,0.4,0.3,0.6,0.3
		c0.1,0.1,0.7,0.4,1.1,0.7c0.1,0.5-0.2,1.4-0.4,1.6c-0.2,0.2-0.6,0.7-0.6,1.1c0,0.3-0.2,0.7-0.4,1c-0.2,0.4-0.6,0.8-0.9,1
		c-0.3,0.2-0.3,0.3-0.6,0.3c-0.3,0-0.6-0.1-0.9-0.4c-0.3-0.3-0.3-0.6-0.5-0.8s-1-0.8-1.2-1.5c0,0.1-0.1,0.1-0.1,0.2
		c0,0.3,0.1,0.6-0.3,0.7c0,0.2,0,1.1,0,1.6c-0.8,0.2-4.3,0.1-5.3-0.2c0-0.6-0.1-1.3-0.2-1.7c-0.1,0.5-0.6,0.8-0.8,1.3
		c-0.2,0.5-0.3,0.9-0.8,0.9c-0.4,0-1-0.5-1.4-0.7v-1.2H116c-0.3,0.1-0.6,0-0.7,0.1c-0.2,0.1-0.5,0.1-0.7,0c-0.1,0-0.1-0.1-0.1-0.1
		H113.2z"/>
	<path class="st7" d="M123.4,75.3c-0.1,0.8-0.9,2.3-1,2.5c-0.4,0.9,0.1,0.8-0.2,1c-0.3,0.2,0.2,0.1-0.3,0.7c0.1,1.3,0.1,3.3,0.2,4.4
		c0.1,1.1-0.2,2.4-0.2,3.1c-1.2-0.3-2.4-0.8-3.5-0.6c0-1.6,0.6-1.1,0.7-3c0.1-1.9,0.3-4.5,0.1-6.2c0.2-2.6,0.8-5.7,1.8-7.9
		c1,0.1,5.2,0.3,5.7,0.1c0.8,2.2,1.2,5.1,1,7.6c-0.2,2.2-0.2,3.6-0.1,4.3c0.6,1.3,0.6,2.5,0.7,6.2c-0.5,0.5-0.9,0.7-1.4,1
		c-0.8-0.1-1.6-0.5-2-0.7c0-1.3-0.1-2,0-2.5c0.2-1.2-0.4-2.8-0.2-4.8C124.7,79.8,123.7,78.3,123.4,75.3z"/>
	<path class="st16" d="M122.5,56.3c0,0.3,0,0.6,0.2,0.9c-0.2-0.3-0.6-0.2-0.7,0c-0.1,0.3,0.1,0.8,0.5,1.1c0,0.2,0.1,0.2,0,0.5
		c-0.4,0-0.4-0.4-0.7-0.6c-0.1-0.1-0.1-0.7-0.3-0.8c-0.2-0.2-0.1-0.5-0.1-0.7s0.1-0.4,0-0.6c-0.1-0.2,0-1.1,0.5-1.3
		c0.4-0.1,0.7-0.6,1.2-0.6c0.3,0,1.2-0.4,1.5-0.1c0.3,0.2,0.6,0.1,0.8,0.3c0.2,0.2,0.4,0.4,0.5,0.7c0.1,0.2,0.2,0.7-0.1,0.9
		c-0.1-0.2-0.2-0.1-0.2,0c0,0.1-0.1,0.2-0.5,0c-0.3-0.2-0.5-0.3-0.8-0.1c-0.2,0.2-0.6,0.3-0.9,0.1c-0.2-0.2-0.4,0-0.5,0
		C122.7,56.1,122.5,56.2,122.5,56.3z"/>
	<g>
		<path d="M125.5,56.7c-0.5-0.1-0.6,0.1-0.8,0c-0.2,0,0,0.3,0,0.6c0,0.2,0.1,0.2,0.2,0.3c0.1,0.1,0.1,0,0,0
			c-0.2-0.2-0.2-0.5-0.1-0.4c0.1,0.1,0.3,0.1,0.4,0c0.1-0.1,0.1-0.1,0.2-0.1c0.1,0,0.1-0.1-0.1-0.2c-0.1,0-0.3,0-0.4,0
			c0,0-0.1,0,0,0c0.1,0,0.3,0,0.4,0C125.5,56.9,125.6,56.7,125.5,56.7z"/>
		<path d="M124.1,56.7c-0.2-0.2-0.6,0-0.8,0c-0.2,0-0.3,0-0.1,0.1c0.2,0.1,0.5,0,0.6,0C124,56.8,124.2,56.8,124.1,56.7z"/>
		<path d="M124,57c-0.1,0-0.1,0.2-0.1,0.3c0,0.1-0.1,0.1-0.2,0c-0.1-0.1-0.2-0.1-0.3-0.1c0,0-0.1-0.2-0.2-0.2c-0.1,0-0.2,0-0.2,0
			c0-0.1,0.1-0.1,0.3-0.1c0.1,0,0.3-0.1,0.5,0c0.1,0,0.2,0,0.3,0C124.2,56.8,124.1,57,124,57z"/>
		<path d="M123.9,58.2C123.8,58.2,123.8,58.1,123.9,58.2c0.1-0.1,0.2-0.1,0.2-0.2c0-0.1,0.1-0.1,0.1,0c0,0.1,0.1,0.1,0.2,0.2
			c0.1,0,0.3,0.1,0.4-0.1c0.1,0.1,0.1,0.1,0.2,0c0.1-0.1,0.1,0,0,0.1c-0.1,0-0.1,0.1-0.2,0c-0.1,0.1-0.2,0.2-0.3,0.2
			c-0.2,0-0.3,0-0.4-0.1C124.1,58.2,124,58.2,123.9,58.2z"/>
		<path d="M123.9,58.8c0.1,0,0.3,0.1,0.4,0.2c0.2,0.1,0.3,0.1,0.4,0c0.1-0.1,0.2-0.1,0.3-0.2c0.1,0-0.1-0.1-0.2,0
			c-0.1,0.1-0.3,0.1-0.4,0c-0.1,0-0.3-0.1-0.4,0c0.1-0.1,0.2-0.1,0.3-0.1c0.1,0,0.2,0,0.2,0c0.1,0,0.3,0,0.4,0.1
			c0.1,0,0.2,0,0.1-0.1c-0.1,0-0.2-0.1-0.3-0.1c0,0-0.1,0-0.2,0c0,0-0.1,0-0.1,0c0,0-0.1,0-0.2,0c-0.1,0.1-0.2,0.1-0.2,0.1
			C123.9,58.7,123.9,58.6,123.9,58.8C123.8,58.8,123.8,58.8,123.9,58.8z"/>
	</g>
	<g>
		<path class="st4" d="M132.5,62.9c0.2-0.1,0.3,0,0.3,0.3c0,0.4-0.4,0.6-0.6,0.7c-0.1,0-0.3,0.1-0.3-0.3
			C132.1,63.5,132.4,63.1,132.5,62.9z"/>
		<path class="st4" d="M132.1,62.5c0.2,0,0.4,0,0.4,0.3c0,0.4-0.4,0.7-0.5,0.8c-0.1,0.1-0.5,0-0.3-0.4
			C131.8,63.1,132.1,62.7,132.1,62.5z"/>
		<path class="st4" d="M131.7,62.1c0.2,0,0.3-0.1,0.4,0.3c0.1,0.3-0.3,0.6-0.4,0.8c-0.1,0.1-0.5,0.2-0.4-0.3
			C131.5,62.8,131.7,62.4,131.7,62.1z"/>
		<path class="st4" d="M131.7,61.9c0.2,0.2,0.2,0.4,0,0.7c-0.2,0.3-0.4,0.6-0.7,0.5c-0.3-0.1-0.1-0.4,0-0.5c0.1-0.1,0.2-0.4,0.3-0.5
			l-0.2-0.1C131.2,61.9,131.5,61.7,131.7,61.9z"/>
	</g>
	<path d="M120.8,63.6c0.1,0.5,0.1,0.9,0,1.2c-0.1,0.3-0.2,0.8-0.2,1.1c0,0.3-0.1,1.3-0.8,1.7c0.2-0.1,0.7-0.3,0.6-0.1
		c0.3-0.5,0.5-0.7,0.5-0.9c0,0.2,0.1,0.5,0.1,0.7c0.1-0.8,0.1-1.3,0.1-1.8c0-0.5,0-1.1,0-1.3C121,64.1,120.8,63.8,120.8,63.6z"/>
	<path class="st8" d="M124.4,69c0,0.9,0.1,0.9-0.8,0.9c-0.9,0-0.8,0.1-0.8-0.9c0-0.9-0.1-0.8,0.9-0.8
		C124.5,68.2,124.4,68.1,124.4,69z"/>
	<g>
		<path class="st4" d="M124.4,68.5c0.7,0.1,1.5,0,1.9,0c0.4-0.1,0.4,0.1,0.4,0.6c0,0.4,0.1,0.5-0.3,0.6c-0.5,0.1-1.6,0-1.9,0V68.5z"
			/>
		<path class="st4" d="M122.7,68.5c-0.5,0-1.4-0.2-1.7-0.2c-0.2-0.1-0.2,0.1-0.3,0.6c-0.1,0.5,0,0.6,0.4,0.7c0.3,0,1.2,0.1,1.6,0.1
			V68.5z"/>
		<path class="st4" d="M124.2,69c0,0.7,0.1,0.6-0.6,0.6c-0.6,0-0.6,0.1-0.6-0.6c0-0.6-0.1-0.6,0.6-0.6
			C124.2,68.4,124.2,68.4,124.2,69z"/>
	</g>
	<g>
		<path class="st8" d="M126.6,69.1c0,0.2,0,0.3-0.3,0.3c-0.3,0-0.3,0-0.3-0.2c0-0.2,0.1-0.2,0.3-0.2
			C126.4,68.9,126.5,68.9,126.6,69.1z"/>
		<path class="st8" d="M125.6,69.1c0,0.2-0.1,0.2-0.3,0.2c-0.2,0-0.4,0-0.4-0.2c0-0.2,0-0.2,0.4-0.2
			C125.5,68.9,125.6,68.9,125.6,69.1z"/>
		<path class="st8" d="M121.7,69c0,0.2-0.2,0.2-0.4,0.2c-0.2,0-0.3-0.1-0.3-0.3c0-0.2,0.2-0.1,0.3-0.1
			C121.5,68.8,121.7,68.7,121.7,69z"/>
		<path class="st8" d="M122.6,69c0,0.2-0.1,0.2-0.3,0.2c-0.2,0-0.4,0-0.4-0.2c0-0.2,0-0.2,0.4-0.2C122.6,68.8,122.6,68.8,122.6,69z"
			/>
	</g>
	<g>
		<circle class="st17" cx="108.5" cy="73.5" r="35.3"/>
		<path class="st17" d="M108.5,73.5"/>
	</g>
	<g>
		<path class="st18" d="M113,38.5c-2-0.6-1.5-6.2-8.9-5.8C108,33.9,106.9,38.1,113,38.5z"/>
		<path class="st18" d="M113,38.5c-2.1,0.2-2.7,5.8-9.8,4C107.2,42.1,107,37.8,113,38.5z"/>
		<path class="st18" d="M104.1,38.5c-2.1-0.1-3-5.6-10.1-3.4C98.1,35.3,98.2,39.6,104.1,38.5z"/>
		<path class="st18" d="M104.1,38.5c-2,0.7-1.1,6.3-8.5,6.3C99.4,43.4,98.1,39.3,104.1,38.5z"/>
		<path class="st18" d="M95.6,40.7c-2.1,0.4-4.3-4.7-10.6-0.8C88.9,39,90.1,43.2,95.6,40.7z"/>
		<path class="st18" d="M95.6,40.7c-1.8,1.2,0.5,6.4-6.7,8.2C92.2,46.6,90,42.9,95.6,40.7z"/>
		<path class="st18" d="M87.8,44.9c-1.9,0.9-5.4-3.5-10.4,1.9C81,45,83.1,48.8,87.8,44.9z"/>
		<path class="st18" d="M87.8,44.9c-1.4,1.6,2,6.1-4.4,9.7C86,51.5,82.9,48.5,87.8,44.9z"/>
		<path class="st18" d="M81.4,51c-1.6,1.4-6.1-2-9.7,4.4C74.8,52.7,77.8,55.9,81.4,51z"/>
		<path class="st18" d="M81.4,51c-0.9,1.9,3.5,5.4-1.9,10.4C81.3,57.8,77.5,55.6,81.4,51z"/>
		<path class="st18" d="M76.6,58.4c-1.2,1.7-6.4-0.5-8.2,6.7C70.7,61.8,74.4,64,76.6,58.4z"/>
		<path class="st18" d="M76.6,58.4c-0.4,2.1,4.7,4.3,0.8,10.6C78.2,65,74,63.9,76.6,58.4z"/>
		<path class="st18" d="M73.9,66.8c-0.7,2-6.3,1.1-6.3,8.5C68.9,71.6,73.1,72.8,73.9,66.8z"/>
		<path class="st18" d="M73.9,66.8c0.1,2.1,5.6,3,3.4,10.1C77.1,72.8,72.7,72.8,73.9,66.8z"/>
		<path class="st18" d="M73.3,75.7c-0.2,2.1-5.8,2.7-4,9.8C69.7,81.5,74,81.7,73.3,75.7z"/>
		<path class="st18" d="M73.3,75.7c0.6,2,6.2,1.5,5.8,8.9C77.9,80.7,73.7,81.7,73.3,75.7z"/>
		<path class="st18" d="M74.9,84.4c0.3,2.1-5,4-1.4,10.5C72.9,90.9,77.2,90,74.9,84.4z"/>
		<path class="st18" d="M74.9,84.4c1.1,1.8,6.4-0.1,7.8,7.2C80.7,88.1,76.8,90.1,74.9,84.4z"/>
		<path class="st18" d="M78.7,92.4c0.8,2-3.8,5.1,1.2,10.5C78.3,99.2,82.2,97.3,78.7,92.4z"/>
		<path class="st18" d="M78.7,92.4c1.5,1.5,6.2-1.6,9.4,5C85.2,94.5,81.9,97.5,78.7,92.4z"/>
		<path class="st18" d="M84.3,99.2c1.3,1.7-2.4,5.9,3.8,9.9C85.7,105.9,89,103,84.3,99.2z"/>
		<path class="st18" d="M84.3,99.2c1.8,1.1,5.6-3.1,10.3,2.5C91.1,99.7,88.7,103.3,84.3,99.2z"/>
		<path class="st18" d="M91.5,104.4c1.7,1.3-0.9,6.3,6.1,8.7C94.4,110.5,96.9,107,91.5,104.4z"/>
		<path class="st18" d="M91.5,104.4c2.1,0.6,4.6-4.4,10.6-0.1C98.2,103.2,96.8,107.3,91.5,104.4z"/>
		<path class="st18" d="M99.7,107.7c1.9,0.9,0.7,6.3,8.1,6.9C104.1,112.9,105.6,108.8,99.7,107.7z"/>
		<path class="st18" d="M99.7,107.7c2.1,0,3.4-5.4,10.3-2.7C105.9,104.8,105.6,109.1,99.7,107.7z"/>
		<path class="st18" d="M108.5,108.8c2.1,0.4,2.3,6,9.6,4.6C114,112.7,114.5,108.4,108.5,108.8z"/>
		<path class="st18" d="M108.5,108.8c2.1-0.5,1.9-6.1,9.2-5.2C113.8,104.5,114.5,108.8,108.5,108.8z"/>
		<path class="st18" d="M117.2,107.7c2.1-0.2,3.7,5.2,10.4,2.1C123.6,110.1,123,105.8,117.2,107.7z"/>
		<path class="st18" d="M117.2,107.7c1.9-1,0.3-6.4,7.7-7.3C121.3,102.2,123.1,106.2,117.2,107.7z"/>
		<path class="st18" d="M125.5,104.4c2-0.7,4.9,4.1,10.6-0.6C132.2,105.2,130.6,101.2,125.5,104.4z"/>
		<path class="st18" d="M125.5,104.4c1.6-1.4-1.3-6.3,5.6-9C128,98.1,130.8,101.5,125.5,104.4z"/>
		<path class="st18" d="M132.6,99.2c1.8-1.2,5.8,2.8,10.1-3.2C139.4,98.3,136.8,94.9,132.6,99.2z"/>
		<path class="st18" d="M132.6,99.2c1.2-1.8-2.8-5.8,3.2-10.1C133.6,92.5,137,95.1,132.6,99.2z"/>
		<path class="st18" d="M138.3,92.4c1.4-1.6,6.3,1.3,9-5.6C144.6,89.9,141.2,87.2,138.3,92.4z"/>
		<path class="st18" d="M138.3,92.4c0.7-2-4.1-4.9,0.6-10.6C137.5,85.7,141.5,87.3,138.3,92.4z"/>
		<path class="st18" d="M142.1,84.4c1-1.9,6.4-0.3,7.3-7.7C147.5,80.4,143.6,78.6,142.1,84.4z"/>
		<path class="st18" d="M142.1,84.4c0.2-2.1-5.2-3.7-2.1-10.4C139.6,78.1,143.9,78.7,142.1,84.4z"/>
		<path class="st18" d="M143.7,75.8c0.5-2.1,6.1-1.9,5.2-9.2C148,70.5,143.7,69.7,143.7,75.8z"/>
		<path class="st18" d="M143.7,75.8c-0.4-2.1-6-2.3-4.6-9.6C139.8,70.2,144.1,69.7,143.7,75.8z"/>
		<path class="st18" d="M143.2,66.9c0-2.1,5.4-3.4,2.7-10.3C146,60.7,141.7,61.1,143.2,66.9z"/>
		<path class="st18" d="M143.2,66.9c-0.9-1.9-6.3-0.7-6.8-8.1C138,62.5,142,61,143.2,66.9z"/>
		<path class="st18" d="M140.5,58.5c-0.6-2.1,4.4-4.6,0.1-10.6C141.7,51.8,137.6,53.2,140.5,58.5z"/>
		<path class="st18" d="M140.5,58.5c-1.3-1.7-6.3,0.9-8.7-6.2C134.3,55.5,137.9,53.1,140.5,58.5z"/>
		<path class="st18" d="M135.7,51c-1.1-1.8,3.1-5.6-2.5-10.3C135.2,44.2,131.6,46.6,135.7,51z"/>
		<path class="st18" d="M135.7,51c-1.7-1.3-5.9,2.4-9.9-3.8C129.1,49.7,131.9,46.4,135.7,51z"/>
		<path class="st18" d="M129.3,45c-1.5-1.5,1.6-6.2-5-9.4C127.1,38.5,124.2,41.7,129.3,45z"/>
		<path class="st18" d="M129.3,45c-2-0.8-5.1,3.8-10.5-1.2C122.5,45.3,124.4,41.4,129.3,45z"/>
		<path class="st18" d="M121.5,40.7c-1.8-1.1,0.1-6.4-7.2-7.8C117.8,35,115.8,38.8,121.5,40.7z"/>
		<path class="st18" d="M121.5,40.7c-2.1-0.3-4,5-10.5,1.4C115,42.7,115.9,38.5,121.5,40.7z"/>
	</g>
	<g>
		<path class="st19" d="M91.7,88.1c0,0.5,0.2,0.7,0.2,1.1c-0.1,0.3-0.3,0.5-0.4,0.9c-0.1,0.4-0.6,0.3-0.7,0.2c0,0-0.1-0.1-0.1-0.1
			c-0.4,0.2-0.7,0-0.7-0.2c-0.1,0.1-0.2,0.2-0.4,0.1c-0.1,0-0.1-0.1-0.1-0.2c-0.2,0-0.3-0.1-0.4-0.2c0,0,0-0.1,0-0.2
			c-0.5,0-0.4-0.6-0.1-0.7c0.2-0.2,0.4-0.3,0.5-0.6C90,87.7,91.1,87.8,91.7,88.1z"/>
		<path class="st6" d="M89.4,89c-0.2,0.1-0.3,0.3-0.3,0.5"/>
		<path class="st6" d="M89.8,89.2c-0.3,0.1-0.4,0.4-0.3,0.6"/>
		<path class="st6" d="M90.3,89.5c-0.2,0.1-0.3,0.3-0.3,0.4"/>
		<path class="st6" d="M90.9,89.3c-0.4,0.2-0.5,0.6-0.3,0.9"/>
		<path class="st19" d="M98.2,86.5c0.4,0.1,0.5,0.7,1.4,0.7c0.3,0,0.7,0.2,1.2,0.2c0.2,0,0.2,0.3,0,0.4c-0.1,0.4-0.3,0.4-1,0.4
			c-0.2,0.1-0.8,0.2-1.2,0c-0.4-0.2-1.4-0.1-2,0.1c-0.6,0.2-0.8-0.3-0.8-0.5c0-0.3,0.1-0.5,0-0.8C96.3,86.7,97.9,86.4,98.2,86.5z"/>
		<g>
			<path class="st4" d="M82.6,64.7c1-1.1,1.9-2,2.4-2.4c4.4-1.8,10.8-5.1,13.8-7.3c0.3-0.2,1,0.7,0.7,0.9c-4.4,2.7-9.2,5.2-13.6,7.2
				c-1.5,1.3-2.1,1.8-2.4,2.5s-0.8,0.7-0.9,0.3C82.6,65.4,82.5,64.9,82.6,64.7z"/>
			<path class="st7" d="M97.2,57.6c0.1,0.5,0.3,1.8,0.2,2.5c1.2-0.2,2.8-0.7,3.7-1.8c-0.6-0.4-1.6-1.2-1.9-2
				C98.8,56.6,97.5,57.3,97.2,57.6z"/>
			<path class="st7" d="M97.2,57.7c-0.2,0.1-0.3-0.1-0.4-0.2c0.1,0,0.1-0.1,0.2-0.1c0.2-0.2-0.3-1.1-0.5-1c-0.1,0-0.2,0.1-0.3,0.2
				c-0.1-0.2-0.1-0.4,0.2-0.6c0.3-0.2,1.2-0.8,1.6-1c0.2-0.1,0.3-0.1,0.5,0c0.3,0.1,0.6,0.7,0.7,1c0.1,0.2,0.1,0.3,0,0.4
				C98.8,56.7,97.8,57.3,97.2,57.7z"/>
		</g>
		<path class="st19" d="M103.8,66.9c0-0.2-0.6-0.3-0.7-0.4c-0.4-0.1-0.7-0.3-0.9-0.3c-0.4-0.2-0.8-0.2-1.2-0.1
			c-0.3,0.2-0.8,0.2-1.2,0.3c-0.4,0.1-1.1,0.2-1.6,0.4c0.2-1.6-0.2-2.2-0.4-2.6c-0.2-0.4-0.3-0.9-0.3-1.8c0-1-0.8-1.4-1.3-1.7
			c-0.2-0.1-0.4-0.2-0.6-0.3c-0.1-0.2-0.4-0.5-0.9-0.8c-0.5-0.3-0.3-0.7-0.3-1.3c2.5-2.2-1.8-4.9-3-2.8c0,0.3-0.3,0.6-0.3,0.8
			c0,0.2,0.1,0.4,0.2,0.5c0.1,0.1,0,0.3-0.1,0.6c-0.1,0.3,0,0.8,0.2,1.1c0.2,0.3,0.3,0.5,0.3,0.7c0.1,0.3,0.2,0.4,0.4,0.5
			c0,0,0.1,0,0.2,0c0,0.1,0,0.2,0,0.3c0,0.3-0.4,0.7-0.8,0.7c-0.3,0-0.6,0.1-0.8,0.2c-0.5,0.4-0.9,0.2-1.1,0.5
			c-0.6,0.8-0.9,1.2-0.9,2.3c-0.6,0.6-1.1,1.1-1.1,2.4c-0.3-0.7-0.6-0.6-0.8-1.1c-0.1-0.2-0.2-0.3-0.4-0.3c0-0.1,0.1-0.2,0-0.3
			c0.4-0.3,0.1-0.6,0.3-0.9c0.2-0.3,0.1-0.6,0-0.7c-0.1-0.1-0.1-0.2-0.3-0.4c-0.2-0.2-0.5,0-0.5,0.2c0,0.1,0,0.2,0.1,0.3
			c-0.1,0-0.4,0.2-0.5,0.2c-0.1,0.1-0.8,0.7-1.1,1c-0.1,0.5,0.1,1,0.4,1.3c0.2,0.2,0.6,0.7,0.6,1.1c0,0.3,0.2,0.7,0.4,1
			c0.2,0.4,0.6,0.8,0.9,1c0.3,0.2,0.3,0.3,0.6,0.3c0.3,0,0.6-0.1,0.9-0.4c0.3-0.3,0.3-0.6,0.5-0.8c0.2-0.2,1-0.8,1.2-1.5
			c0,0.1,0.1,0.1,0.1,0.2c0,0.3-0.1,0.6,0.3,0.7c0,0.2,0,1.1,0,1.6c0.8,0.2,4.3,0.1,5.3-0.2c0-0.6,0.1-1.3,0.2-1.7
			c0.1,0.5,0.6,0.8,0.8,1.3c0.2,0.5,0.3,0.9,0.8,0.9c0.4,0,1-0.5,1.4-0.7v-1.2h1.9c0.3,0.1,0.6,0,0.7,0.1c0.2,0.1,0.5,0.1,0.7,0
			c0.1,0,0.1-0.1,0.1-0.1H103.8z"/>
		<path class="st6" d="M101,66.9C101,66.9,101,66.9,101,66.9"/>
		<path class="st6" d="M89.9,62.4c0,0.5-0.3,1.1-0.3,1.6c0,0.5,0.4,1,1.2,0.4"/>
		<path class="st6" d="M90.2,64.7c0,0.6,0.1,0.9,0.7,1"/>
		<path class="st6" d="M95.9,62c0,0.5,0.4,0.6,0.4,1.1c0,0.4-0.1,0.8-0.3,1c-0.3,0.3-0.7,0.2-0.9,0.2"/>
		<path class="st6" d="M94,59.9c0,0.2-0.1,0.8-0.2,1"/>
		<path class="st6" d="M94.8,61c-0.5-0.1-0.8,0.4-1.3,0.4c0.3-0.1,0.6-0.1,0.9,0"/>
		<path class="st6" d="M91.5,61.3c0.6,0,0.8,0.3,1,0.3"/>
		<path class="st6" d="M91.8,64.3c0.7,0,0.9-0.7,1.2-0.7c0.3,0,0.5,0.4,1.2,0.5"/>
		<path class="st6" d="M96.7,61.4c0.3,0.3,0.4,0.6,0.4,1"/>
		<path class="st6" d="M97.3,64c0.5,0.8,0.6,1.5,0.5,2.1"/>
		<path class="st6" d="M93.3,67.5c0.1,0,0.4,0,0.5,0"/>
		<path class="st6" d="M91.9,67.1c0.7,0,1.1-0.6,1.5-0.6c0.4,0,0.6,0.3,1.1,0.4"/>
		<path class="st6" d="M91.7,66.4c0.5,0,1-0.2,1.2-0.5"/>
		<path class="st6" d="M92.1,65.9c0.2-0.1,0.6-0.3,0.8-0.6"/>
		<path class="st6" d="M92.2,65.2c0.2,0,0.4-0.3,0.5-0.4"/>
		<path class="st6" d="M93.5,64.9c0.1,0.1,0.2,0.2,0.3,0.2"/>
		<path class="st6" d="M93.5,65.2c0.1,0.2,0.5,0.4,0.7,0.4"/>
		<path class="st6" d="M96,64.2c0,0.3,0,0.5-0.2,0.7"/>
		<path class="st6" d="M95.9,64.5c0.1,0.3,0,0.7-0.4,0.9"/>
		<path class="st6" d="M95.9,65c0.1,0.2,0.2,0.6-0.1,1"/>
		<path class="st6" d="M95.9,65.7c0.1,0.4-0.2,1-0.7,1.1"/>
		<path class="st6" d="M85.9,65.6c0.7,0.7,0.4,1.3,1.7,2.3"/>
		<path class="st7" d="M93.6,75.3c0.1,0.8,0.9,2.3,1,2.5c0.4,0.9-0.1,0.8,0.2,1c0.3,0.2-0.2,0.1,0.3,0.7C95.1,81,95,82.9,95,84
			c-0.1,1.1,0.2,2.4,0.2,3.1c1.2-0.3,2.4-0.8,3.5-0.6c0-1.6-0.6-1.1-0.7-3c-0.1-1.9-0.3-4.5-0.1-6.2c-0.2-2.6-0.8-5.7-1.8-7.9
			c-1,0.1-5.2,0.3-5.7,0.1c-0.8,2.2-1.2,5.1-1,7.6c0.2,2.2,0.2,3.6,0.1,4.3c-0.6,1.3-0.6,2.5-0.7,6.2c0.5,0.5,0.9,0.7,1.4,1
			c0.8-0.1,1.6-0.5,2-0.7c0-1.3,0.1-2,0-2.5c-0.2-1.2,0.4-2.8,0.2-4.8C92.4,79.8,93.3,78.3,93.6,75.3z"/>
		<path class="st6" d="M92.1,70.4c-0.3,3.6-0.5,6.6-0.8,8.1c-0.3,1.5-0.5,2.4-0.5,3.7c0,1.3-0.5,4.1-0.6,6.4"/>
		<path class="st6" d="M97.9,77.3c-0.2,1.5-0.7,4.3-0.8,6.4"/>
		<path class="st6" d="M97.6,82.4c-0.1,0.9-0.2,2-0.2,2.6"/>
		<path class="st6" d="M95.3,69.5c0.7,1.9,1.3,3.8,1.4,5.4"/>
		<path class="st6" d="M95.9,70.1c0.1,0.2,0.1,0.8,0.1,1"/>
		<path class="st6" d="M96.3,70.5c0,0.2,0.1,0.5,0.1,0.7"/>
		<path class="st6" d="M93.7,69.9c0,0.7,0,1.7,0,2.2"/>
		<path class="st6" d="M89.9,71.8c0.1-0.4,0.6-0.9,1.3-1.5l0.2,0.3c-0.6,0.6-1.6,1.7-1.7,2.1"/>
		<path class="st6" d="M89.8,65.4c0,0.4-0.5,0.7-0.6,1.2c0,0.2-0.4,0.5-0.6,0.6"/>
		<path class="st20" d="M92.1,55.9c-0.1-0.3-0.4-0.2-0.5-0.3c-1-0.7,0-1.9,0.8-1.7c0.7,0.2,1-0.3,1.8,0.1c0.4,0.2,1.5,0.9,1.5,2.1
			c0,0.8-0.3,1.6-0.4,2.2c0,0.6-0.5,0.8-0.7,0.8c0-0.3,0-0.6,0-0.8c0.4-0.3,0.6-0.8,0.5-1.1c-0.1-0.3-0.5-0.3-0.7,0.3l-0.2-0.1
			c0.2-0.4,0.4-0.8,0.4-1.2c0-0.4-0.2-0.9-0.6-0.7c-0.3,0.2-0.6,0.1-0.7,0c-0.2-0.1-0.4,0.1-0.6,0.2C92.4,56,92.2,56.1,92.1,55.9z"
			/>
		<g>
			<path d="M91.5,56.7c0.5-0.1,0.6,0.1,0.8,0c0.2,0,0,0.3,0,0.6c0,0.2-0.1,0.2-0.2,0.3c-0.1,0.1-0.1,0,0,0c0.2-0.2,0.2-0.5,0.1-0.4
				c-0.1,0.1-0.3,0.1-0.4,0c-0.1-0.1-0.1-0.1-0.2-0.1c-0.1,0-0.1-0.1,0.1-0.2c0.1,0,0.3,0,0.4,0c0,0,0.1,0,0,0c-0.1,0-0.3,0-0.4,0
				C91.5,56.9,91.4,56.7,91.5,56.7z"/>
			<path d="M92.9,56.7c0.2-0.2,0.6,0,0.8,0c0.2,0,0.3,0,0.1,0.1c-0.2,0.1-0.5,0-0.6,0C93,56.8,92.8,56.8,92.9,56.7z"/>
			<path d="M93,57c0.1,0,0.1,0.2,0.1,0.3c0,0.1,0.1,0.1,0.2,0c0.1-0.1,0.2-0.1,0.3-0.1c0,0,0.1-0.2,0.2-0.2c0.1,0,0.2,0,0.2,0
				c0-0.1-0.1-0.1-0.3-0.1c-0.1,0-0.3-0.1-0.5,0c-0.1,0-0.2,0-0.3,0C92.8,56.8,92.9,57,93,57z"/>
			<path d="M93.1,58.2C93.2,58.2,93.3,58.1,93.1,58.2c-0.1-0.1-0.2-0.1-0.2-0.2c0-0.1-0.1-0.1-0.1,0c0,0.1-0.1,0.1-0.2,0.2
				c-0.1,0-0.3,0.1-0.4-0.1c-0.1,0.1-0.1,0.1-0.2,0C92,57.9,92,58,92,58c0.1,0,0.1,0.1,0.2,0c0.1,0.1,0.2,0.2,0.3,0.2
				c0.2,0,0.3,0,0.4-0.1C92.9,58.2,93,58.2,93.1,58.2z"/>
			<path d="M93.1,58.8c-0.1,0-0.3,0.1-0.4,0.2c-0.2,0.1-0.3,0.1-0.4,0c-0.1-0.1-0.2-0.1-0.3-0.2c-0.1,0,0.1-0.1,0.2,0
				c0.1,0.1,0.3,0.1,0.4,0c0.1,0,0.3-0.1,0.4,0c-0.1-0.1-0.2-0.1-0.3-0.1c-0.1,0-0.2,0-0.2,0c-0.1,0-0.3,0-0.4,0.1
				c-0.1,0-0.2,0-0.1-0.1c0.1,0,0.2-0.1,0.3-0.1c0,0,0.1,0,0.2,0c0,0,0.1,0,0.1,0c0,0,0.1,0,0.2,0c0.1,0.1,0.2,0.1,0.2,0.1
				C93.2,58.7,93.2,58.6,93.1,58.8C93.2,58.8,93.2,58.8,93.1,58.8z"/>
		</g>
		<path class="st6" d="M86.7,64.7c-0.1,0.2-0.2,0.3-0.3,0.4"/>
		<path class="st6" d="M85.5,64.4c0.2-0.5,0.5-0.6,0.8-0.6c0-0.2,0-0.5,0.3-0.7c-0.1-0.1-0.2-0.1-0.2-0.2"/>
		<path class="st19" d="M84.5,62.7c-0.2-0.1-0.3,0-0.3,0.3c0,0.4,0.4,0.6,0.6,0.7c0.1,0,0.3,0.1,0.3-0.3
			C84.9,63.3,84.6,63,84.5,62.7z"/>
		<path class="st19" d="M84.9,62.3c-0.2,0-0.4,0-0.4,0.3c0,0.4,0.4,0.7,0.5,0.8c0.1,0.1,0.5,0,0.3-0.4C85.2,63,84.9,62.6,84.9,62.3z
			"/>
		<path class="st19" d="M85.3,62c-0.2,0-0.3-0.1-0.4,0.3c-0.1,0.3,0.3,0.6,0.4,0.8c0.1,0.1,0.5,0.2,0.4-0.3
			C85.5,62.7,85.3,62.3,85.3,62z"/>
		<path class="st19" d="M85.3,61.8c-0.2,0.2-0.2,0.4,0,0.7c0.2,0.3,0.4,0.6,0.7,0.5c0.3-0.1,0.1-0.4,0-0.5c-0.1-0.1-0.3-0.4-0.3-0.5
			l0.2-0.1C85.8,61.8,85.6,61.5,85.3,61.8z"/>
		<path d="M96.2,63.6c-0.1,0.5-0.1,0.9,0,1.2c0.1,0.3,0.2,0.8,0.2,1.1c0,0.3,0.1,1.3,0.8,1.7c-0.2-0.1-0.7-0.3-0.6-0.1
			c-0.3-0.5-0.5-0.7-0.5-0.9c0,0.2-0.1,0.5-0.1,0.7c-0.1-0.8-0.1-1.3-0.1-1.8c0-0.5,0-1.1,0-1.3C96,64.1,96.2,63.8,96.2,63.6z"/>
		<path class="st6" d="M90.3,65.5c0,0.2,0,0.4,0,0.5"/>
		<path class="st6" d="M92.9,61.1c-0.3-0.2-0.7-0.3-1.1-0.3"/>
		<path class="st6" d="M90.5,66.2c0.1,0.1,0.2,0.1,0.3,0.1"/>
		<path class="st6" d="M92.6,60c0,0.7,0.1,0.5,0.4,1.1"/>
		<path class="st6" d="M93.7,59.3c-0.5,0.4-0.9,0.4-1.2,0.4"/>
		<path class="st6" d="M94.9,60.4c0.4,0,0.6,0,0.8,0.1"/>
		<path class="st6" d="M98.3,67.1c0-0.1,0-0.2,0-0.2"/>
		<path class="st8" d="M92.6,69c0,0.9-0.1,0.9,0.8,0.9c0.9,0,0.8,0.1,0.8-0.9c0-0.9,0.1-0.8-0.9-0.8C92.5,68.2,92.6,68.1,92.6,69z"
			/>
		<path class="st4" d="M92.6,68.5c-0.7,0.1-1.5,0-1.9,0c-0.4-0.1-0.4,0.1-0.4,0.6c0,0.4-0.1,0.5,0.3,0.6c0.5,0.1,1.6,0,1.9,0V68.5z"
			/>
		<path class="st4" d="M94.3,68.5c0.5,0,1.4-0.2,1.7-0.2c0.2-0.1,0.2,0.1,0.3,0.6c0.1,0.5,0,0.6-0.4,0.7c-0.3,0-1.2,0.1-1.6,0.1
			V68.5z"/>
		<path class="st4" d="M92.9,69c0,0.7-0.1,0.6,0.6,0.6c0.6,0,0.6,0.1,0.6-0.6c0-0.6,0.1-0.6-0.6-0.6C92.9,68.4,92.9,68.4,92.9,69z"
			/>
		<g>
			<path class="st8" d="M90.5,69.1c0,0.2,0,0.3,0.3,0.3c0.3,0,0.3,0,0.3-0.2c0-0.2-0.1-0.2-0.3-0.2C90.6,68.9,90.5,68.9,90.5,69.1z"
				/>
			<path class="st8" d="M91.5,69.1c0,0.2,0.1,0.2,0.3,0.2c0.2,0,0.4,0,0.4-0.2c0-0.2,0-0.2-0.4-0.2C91.5,68.9,91.5,68.9,91.5,69.1z"
				/>
			<path class="st8" d="M95.3,69c0,0.2,0.2,0.2,0.4,0.2c0.2,0,0.3-0.1,0.3-0.3c0-0.2-0.2-0.1-0.3-0.1C95.6,68.8,95.3,68.7,95.3,69z"
				/>
			<path class="st8" d="M94.4,69c0,0.2,0.1,0.2,0.3,0.2c0.2,0,0.4,0,0.4-0.2c0-0.2,0-0.2-0.4-0.2C94.4,68.8,94.4,68.8,94.4,69z"/>
		</g>
		<path class="st6" d="M90.1,80.3c-0.2,0.4-0.4,0.8-0.6,1.1"/>
		<path class="st6" d="M92.3,80c0,0.2,0.1,0.4,0.1,0.6"/>
		<path class="st6" d="M93.6,75.3c0.1-0.5,0.1-1.1,0.1-1.7"/>
		<path class="st6" d="M100.8,87.8c0.1-0.5-0.6-0.3-0.9-0.3"/>
		<path class="st6" d="M102.5,66.9c0-0.1-0.1-0.1-0.1-0.2c-0.1,0-0.3-0.1-0.4-0.2c-0.1-0.1-0.5-0.1-0.7-0.1"/>
	</g>
	<g>
		<path class="st6" d="M127.6,89c0.2,0.1,0.3,0.3,0.3,0.5"/>
		<path class="st6" d="M127.3,89.2c0.3,0.1,0.4,0.4,0.3,0.6"/>
		<path class="st6" d="M126.8,89.5c0.2,0.1,0.3,0.3,0.3,0.4"/>
		<path class="st6" d="M126.1,89.3c0.4,0.2,0.5,0.6,0.3,0.9"/>
		<path class="st6" d="M116,66.9C116,66.9,116.1,66.9,116,66.9"/>
		<path class="st6" d="M127.1,62.4c0,0.5,0.3,1.1,0.3,1.6c0,0.5-0.4,1-1.2,0.4"/>
		<path class="st6" d="M126.9,64.7c0,0.6-0.1,0.9-0.7,1"/>
		<path class="st6" d="M121.2,62c0,0.5-0.4,0.6-0.4,1.1c0,0.4,0.1,0.8,0.3,1c0.3,0.3,0.7,0.2,0.9,0.2"/>
		<path class="st6" d="M123,59.9c0,0.2,0.1,0.8,0.2,1"/>
		<path class="st6" d="M122.2,61c0.5-0.1,0.8,0.4,1.3,0.4c-0.3-0.1-0.6-0.1-0.9,0"/>
		<path class="st6" d="M125.5,61.3c-0.6,0-0.8,0.3-1,0.3"/>
		<path class="st6" d="M125.2,64.3c-0.7,0-0.9-0.7-1.2-0.7c-0.3,0-0.5,0.4-1.2,0.5"/>
		<path class="st6" d="M120.4,61.4c-0.3,0.3-0.4,0.6-0.4,1"/>
		<path class="st6" d="M119.7,64c-0.5,0.8-0.6,1.5-0.5,2.1"/>
		<path class="st6" d="M123.7,67.5c-0.1,0-0.4,0-0.5,0"/>
		<path class="st6" d="M125.1,67.1c-0.7,0-1.1-0.6-1.5-0.6c-0.4,0-0.6,0.3-1.1,0.4"/>
		<path class="st6" d="M125.3,66.4c-0.5,0-1-0.2-1.2-0.5"/>
		<path class="st6" d="M124.9,65.9c-0.2-0.1-0.6-0.3-0.8-0.6"/>
		<path class="st6" d="M124.8,65.2c-0.2,0-0.4-0.3-0.5-0.4"/>
		<path class="st6" d="M123.5,64.9c-0.1,0.1-0.2,0.2-0.3,0.2"/>
		<path class="st6" d="M123.6,65.2c-0.1,0.2-0.5,0.4-0.7,0.4"/>
		<path class="st6" d="M121.1,64.2c0,0.3,0,0.5,0.2,0.7"/>
		<path class="st6" d="M121.1,64.5c-0.1,0.3,0,0.7,0.4,0.9"/>
		<path class="st6" d="M121.1,65c-0.1,0.2-0.2,0.6,0.1,1"/>
		<path class="st6" d="M121.1,65.7c-0.1,0.4,0.2,1,0.7,1.1"/>
		<path class="st6" d="M131.2,65.6c-0.7,0.7-0.4,1.3-1.7,2.3"/>
		<path class="st6" d="M124.9,70.4c0.3,3.6,0.5,6.6,0.8,8.1c0.3,1.5,0.5,2.4,0.5,3.7c0,1.3,0.5,4.1,0.6,6.4"/>
		<path class="st6" d="M119.1,77.3c0.2,1.5,0.7,4.3,0.8,6.4"/>
		<path class="st6" d="M119.4,82.4c0.1,0.9,0.2,2,0.2,2.6"/>
		<path class="st6" d="M121.8,69.5c-0.7,1.9-1.3,3.8-1.4,5.4"/>
		<path class="st6" d="M121.1,70.1c-0.1,0.2-0.1,0.8-0.1,1"/>
		<path class="st6" d="M120.8,70.5c0,0.2-0.1,0.5-0.1,0.7"/>
		<path class="st6" d="M123.3,69.9c0,0.7,0,1.7,0,2.2"/>
		<path class="st6" d="M127.2,71.8c-0.1-0.4-0.6-0.9-1.3-1.5l-0.2,0.3c0.6,0.6,1.6,1.7,1.7,2.1"/>
		<path class="st6" d="M127.2,65.4c0,0.4,0.5,0.7,0.6,1.2c0,0.2,0.4,0.5,0.6,0.6"/>
		<path class="st6" d="M130.3,64.7c0.1,0.2,0.2,0.3,0.3,0.4"/>
		<path class="st6" d="M131.5,64.4c-0.2-0.5-0.5-0.6-0.8-0.6c0-0.2,0-0.5-0.2-0.7c0.1-0.1,0.2-0.2,0.2-0.4"/>
		<path class="st6" d="M126.7,65.5c0,0.2,0,0.4,0,0.5"/>
		<path class="st6" d="M124.2,61.1c0.3-0.2,0.7-0.3,1.1-0.3"/>
		<path class="st6" d="M126.6,66.2c-0.1,0.1-0.2,0.1-0.3,0.1"/>
		<path class="st6" d="M124.5,60c0,0.7-0.1,0.5-0.4,1.1"/>
		<path class="st6" d="M123.3,59.3c0.5,0.4,0.9,0.4,1.2,0.4"/>
		<path class="st6" d="M122.1,60.4c-0.4,0-0.6,0-0.8,0.1"/>
		<path class="st6" d="M118.8,67.1c0-0.1,0-0.2,0-0.2"/>
		<path class="st6" d="M126.9,80.3c0.2,0.4,0.4,0.8,0.6,1.1"/>
		<path class="st6" d="M124.7,80c0,0.2-0.1,0.4-0.1,0.6"/>
		<path class="st6" d="M123.4,75.3c-0.1-0.5-0.1-1.1-0.1-1.7"/>
		<path class="st6" d="M116.2,87.8c-0.1-0.5,0.6-0.3,0.9-0.3"/>
		<path class="st6" d="M114.5,66.9c0-0.1,0.1-0.1,0.1-0.2c0.1,0,0.3-0.1,0.4-0.2c0.1-0.1,0.5-0.1,0.7-0.1"/>
	</g>
	<g>
		<path class="st21" d="M108.6,97.7c1.6,0,2.9-0.1,4.2-0.4c0,0.2,0,0.4,0,0.6c-0.4,0.1-0.8,0.1-1.2,0.1c-0.1,1.6,1.2,1.7,1.7,1.6
			c0.5-0.2,1.6-0.4,2.2-0.5c1.5-0.3,1.7-1.8,1-2.7c-0.1-0.1-0.2-0.3-0.3-0.5c0.6-0.3,1.2-0.7,1.9-1.1c4.7,2.1,4.9,0.3,5.3-0.4
			c0.3-0.5,0.9-1.3,1.1-1.6c0.4-0.4,0.7-1,0-1.5c-1.7-1.2-4.2-1.3-6.4-0.1c-0.9-0.1-1.3-0.1-1.8-0.3c-0.3-0.1-1.1-0.2-1.6,0.2
			c-0.6,0.4-1.3,0.7-2.2,1c-0.8,0.2-0.7,1.2-0.5,2c-1,0.3-2.2,0.4-3.5,0.4c-1.3,0-2.4-0.2-3.5-0.4c0.2-0.8,0.3-1.8-0.5-2
			c-0.8-0.3-1.6-0.5-2.2-1c-0.5-0.4-1.3-0.3-1.6-0.2c-0.5,0.1-1,0.2-1.8,0.3c-2.2-1.2-4.7-1.2-6.4,0.1c-0.7,0.5-0.4,1.1,0,1.5
			c0.2,0.3,0.8,1.1,1.1,1.6c0.4,0.7,0.6,2.5,5.3,0.4c0.7,0.4,1.3,0.8,1.9,1.1c-0.1,0.2-0.2,0.3-0.3,0.5c-0.6,0.9-0.5,2.4,1,2.7
			c0.6,0.1,1.6,0.3,2.2,0.5c0.5,0.2,1.8,0.1,1.7-1.6c-0.4,0-0.8-0.1-1.2-0.1c0-0.2,0-0.4,0-0.6C105.7,97.6,107,97.7,108.6,97.7z"/>
		<path class="st22" d="M99.1,94.9c-1.4-0.8-2.5-1.2-3.4-1.1c-1,0.1-2,0.5-1.6,1.3"/>
		<path class="st22" d="M100.8,91.2c1.2-0.3,1.6,0.5,1.3,1.6c0,0.1-0.1,0.2-0.1,0.3"/>
		<path class="st22" d="M101,96c1.2,0.6,2.3,1,3.4,1.3"/>
		<path class="st22" d="M105.1,94.3c-2.3-0.6-4-1.6-5.6-2.6c-0.1-0.1-0.3-0.2-0.5-0.3"/>
		<path class="st22" d="M104.4,97.9c-1.1-0.2-2-0.5-2.4-0.8c0.9,0.9,0.3,2.2-0.7,2"/>
		<path class="st22" d="M118.1,94.9c1.4-0.8,2.5-1.2,3.4-1.1c1,0.1,2,0.5,1.6,1.3"/>
		<path class="st22" d="M116.4,91.2c-1.2-0.3-1.6,0.5-1.3,1.6c0,0.1,0.1,0.2,0.1,0.3"/>
		<path class="st22" d="M116.2,96c-1.2,0.6-2.3,1-3.4,1.3"/>
		<path class="st22" d="M112.1,94.3c2.3-0.6,4-1.6,5.6-2.6c0.1-0.1,0.3-0.2,0.5-0.3"/>
		<path class="st22" d="M112.8,97.9c1.1-0.2,2-0.5,2.4-0.8c-0.9,0.9-0.3,2.2,0.7,2"/>
	</g>
	<g>
		<path d="M93.8,91.7c-0.1,0.1-0.2,0.2-0.1,0.4c0.1,0.2,0.3,0.2,0.6,0.2c0.3,0,0.6,0.1,0.7,0.4c0.2,0.5-0.2,0.7-0.4,0.8
			c-0.1,0.1-0.3,0.1-0.5,0.1c-0.1,0-0.1,0-0.1,0.1l-0.1,0l-0.3-0.6l0.1,0c0.2,0.3,0.5,0.5,0.8,0.3c0.2-0.1,0.3-0.3,0.2-0.4
			c-0.1-0.2-0.3-0.2-0.6-0.2c-0.3,0-0.6-0.1-0.7-0.3C93.3,92.1,93.4,91.8,93.8,91.7c0.1-0.2,0.3-0.2,0.4-0.2c0.1,0,0.1,0,0.1-0.2
			l0.1,0l0.3,0.6l-0.1,0C94.3,91.6,94,91.6,93.8,91.7z"/>
		<path d="M97,92.6l0.1-1c0-0.2-0.1-0.2-0.2-0.3l0-0.1l0.6,0.1l0,0.1c-0.1,0-0.2,0-0.2,0.2L97,92.6c0.1,0.4-0.1,0.7-0.7,0.7
			c-0.5-0.1-0.8-0.3-0.8-0.8l0.1-1.1c0-0.2-0.1-0.2-0.2-0.3l0-0.1l1,0.1l0,0.1c-0.1,0-0.3,0-0.3,0.2l-0.1,1c0,0.4,0.1,0.6,0.4,0.6
			C96.7,93.2,96.9,93,97,92.6z"/>
		<path d="M97.5,92.9l0.3-0.8l0.5,0.1l-0.2,0.4c0.4,0.1,0.5,0.1,0.5-0.1c0-0.1,0.1-0.2,0.1-0.3c0.1-0.2,0-0.3-0.1-0.3
			c0,0-0.1-0.1-0.2-0.1c-0.1,0-0.1,0-0.1,0l-0.1,0.3l-0.5-0.1l0.1-0.3c0.1-0.2,0-0.3-0.2-0.3l0-0.1c0,0,0.6,0.2,0.9,0.4
			c0.4,0.1,0.6,0.4,0.5,0.7c-0.1,0.3-0.4,0.3-0.6,0.3c0.2,0.1,0.5,0.4,0.3,0.7c-0.1,0.3-0.5,0.4-0.9,0.3c-0.3-0.1-1-0.4-1-0.4l0-0.1
			c0.1,0,0.3,0,0.3-0.1L97.5,92.9l0.5,0.2l-0.2,0.4c0,0.1,0,0.1,0.1,0.1c0,0,0.1,0,0.2,0.1c0.1,0,0.3,0,0.3-0.2
			c0-0.1,0.1-0.2,0.1-0.3c0.1-0.1,0-0.3-0.1-0.4c-0.2-0.1-0.2-0.1-0.3-0.1L98,93.1L97.5,92.9z"/>
		<path d="M101.2,94.6l0.5-0.9c0.1-0.1,0-0.2-0.1-0.3l0-0.1l0.5,0.3l0,0.1c-0.1-0.1-0.2-0.1-0.3,0.1L101.2,94.6
			c-0.1,0.4-0.4,0.6-0.9,0.3c-0.4-0.2-0.6-0.6-0.4-1l0.5-0.9c0.1-0.1,0-0.2-0.1-0.3l0-0.1l0.8,0.5l0,0.1c-0.1,0-0.2-0.1-0.3,0.1
			l-0.5,0.9c-0.2,0.3-0.2,0.6,0.1,0.7C100.7,95.1,101,95,101.2,94.6z"/>
		<path d="M103.8,96.3c-0.1,0.2,0,0.2,0.1,0.3l0,0.1l-0.9-0.4l0-0.1c0.1,0,0.2,0,0.3-0.1l0.5-1.3l-1.4,1.3l-0.1,0l0-2l-0.6,1.4
			c-0.1,0.2,0,0.2,0.1,0.3l0,0.1l-0.6-0.2l0-0.1c0.1,0,0.3,0,0.3-0.1l0.5-1.4c0.1-0.2,0-0.3-0.2-0.3l0-0.1l0.7,0.3l0,1.5l1.1-1.1
			l0.7,0.3l0,0.1c-0.1,0-0.3,0-0.3,0.1L103.8,96.3z"/>
		<path d="M107.3,95.8l0,0.4c0.5,0,0.6-0.2,0.6-0.4c0-0.3-0.1-0.4-0.3-0.5c-0.1,0-0.2,0-0.2,0.1L107.3,95.8l-0.5,0l0-0.3
			c0-0.2-0.1-0.2-0.3-0.3l0-0.1l1,0.1c0.5,0,0.9,0.2,0.8,0.6c0,0.3-0.2,0.4-0.5,0.5l0.5,1c0,0,0.1,0,0.1,0l0,0.1l-0.6,0l-0.6-1
			c0,0-0.1,0-0.1,0l0,0.7c0,0.2,0.1,0.2,0.2,0.2l0,0.1l-1-0.1l0-0.1c0.1,0,0.3,0,0.3-0.2l0.1-1.2L107.3,95.8z"/>
		<path d="M109.5,96.6l0.3,0c-0.3-0.7-0.4-0.7-0.4-0.7s-0.1,0.3-0.2,0.7L109.5,96.6l0,0.1l-0.3,0c0,0.1-0.1,0.2-0.1,0.3
			c-0.1,0.2,0.1,0.2,0.2,0.3l0,0.1l-0.6,0l0-0.1c0.1,0,0.2-0.1,0.2-0.3c0.6-1.8,0.6-1.8,0.6-1.8l0.1,0c0,0,0,0.1,0.8,1.7
			c0.1,0.1,0.1,0.2,0.3,0.2l0,0.1l-1,0.1l0-0.1c0.2,0,0.3-0.1,0.3-0.3c-0.1-0.1-0.1-0.2-0.1-0.3l-0.4,0L109.5,96.6z"/>
		<path d="M111.8,97.1L111.8,97.1c0.1-0.1,0.3-0.2,0.2-0.4l-0.4-1.4c0-0.2-0.2-0.2-0.3-0.1l0-0.1l1.7-0.5l0.2,0.6l-0.1,0
			c-0.1-0.4-0.5-0.4-0.7-0.4c-0.1,0-0.2,0.1-0.3,0.1c-0.1,0-0.1,0.1-0.1,0.2c0,0.1,0.2,0.6,0.2,0.6c0.1,0,0.4-0.1,0.4-0.5l0.1,0
			l0.3,1l-0.1,0c-0.2-0.5-0.5-0.4-0.6-0.3l0.2,0.7c0,0.2,0.2,0.2,0.3,0.2l0,0.1L111.8,97.1z"/>
		<path d="M114,94.2L114,94.2c-0.1,0.1-0.2,0.2-0.1,0.4l0.5,1.3c0.1,0.2,0.2,0.2,0.2,0.1c0.1,0,0.1-0.1,0.2-0.1
			c0.2-0.1,0.4-0.4,0.4-0.8l0.1,0l0.1,0.7l-1.6,0.7l0-0.1c0.1-0.1,0.2-0.2,0.2-0.3l-0.6-1.3c-0.1-0.2-0.2-0.1-0.3-0.1l0-0.1
			L114,94.2z"/>
		<path d="M116.6,95.1c-0.3,0.2-0.7-0.1-0.9-0.6c-0.3-0.5-0.3-0.9,0-1.1c0.3-0.2,0.7,0.1,0.9,0.6C116.9,94.5,116.9,94.9,116.6,95.1
			L116.6,95.1c0.6-0.3,0.7-0.9,0.4-1.3c-0.3-0.5-0.8-0.7-1.4-0.4c-0.6,0.3-0.7,0.9-0.4,1.4C115.6,95.3,116.1,95.5,116.6,95.1
			L116.6,95.1z"/>
		<path d="M119.3,91.8c0-0.2-0.2-0.2-0.3-0.2l0-0.1l1.8-0.4l0.1,0.6l-0.1,0c-0.1-0.4-0.5-0.4-0.6-0.4c-0.1,0-0.2,0-0.3,0.1
			c-0.1,0-0.1,0.1-0.1,0.2c0,0.1,0.2,0.7,0.2,0.7c0.1,0,0.4-0.1,0.4-0.5l0.1,0l0.2,1l-0.1,0c-0.2-0.5-0.5-0.4-0.6-0.3l0.2,0.7
			c0,0.2,0.1,0.2,0.1,0.2c0.1,0,0.2,0,0.3-0.1c0.2-0.1,0.5-0.2,0.5-0.7l0.1,0l0,0.7l-1.8,0.4l0-0.1c0.1-0.1,0.3-0.1,0.2-0.3
			L119.3,91.8z"/>
		<path d="M122.2,93.3c-0.3-0.1-0.4-0.5-0.3-1.1c0.1-0.5,0.4-0.9,0.8-0.8c0.3,0.1,0.4,0.5,0.3,1.1C122.8,93,122.5,93.3,122.2,93.3
			L122.2,93.3c0.6,0.2,1.1-0.1,1.2-0.7c0.1-0.5-0.1-1.1-0.7-1.3c-0.6-0.2-1.1,0.2-1.3,0.7C121.3,92.6,121.6,93.2,122.2,93.3
			L122.2,93.3z"/>
		<path d="M104.8,96.3l0.2-0.8l0.5,0l-0.1,0.4c0.4,0.1,0.5,0,0.5-0.2c0-0.1,0.1-0.2,0.1-0.3c0-0.2-0.1-0.2-0.1-0.3c0,0-0.1,0-0.2,0
			c-0.1,0-0.1,0-0.1,0.1l-0.1,0.3l-0.5,0l0.1-0.3c0-0.2-0.1-0.2-0.2-0.3l0-0.1c0,0,0.6,0.1,1,0.2c0.4,0.1,0.7,0.3,0.6,0.6
			c-0.1,0.3-0.3,0.3-0.6,0.4c0.2,0.1,0.5,0.3,0.4,0.6c-0.1,0.3-0.5,0.5-0.8,0.4c-0.3-0.1-1.1-0.2-1.1-0.2l0-0.1c0.1,0,0.3,0,0.3-0.2
			L104.8,96.3l0.5,0.1l-0.1,0.4c0,0.1,0,0.1,0.1,0.1c0,0,0.1,0,0.2,0c0.1,0,0.2-0.1,0.3-0.2c0-0.1,0-0.2,0.1-0.3
			c0-0.1,0-0.3-0.2-0.4c-0.2,0-0.2-0.1-0.3-0.1l-0.1,0.4L104.8,96.3z"/>
		<path d="M117.5,92.9l0.2,0.4c0.4-0.2,0.4-0.4,0.3-0.7c-0.1-0.2-0.3-0.3-0.5-0.2c-0.1,0.1-0.2,0.1-0.1,0.2L117.5,92.9l-0.4,0.2
			l-0.1-0.3c-0.1-0.2-0.2-0.1-0.4-0.1l0-0.1l0.9-0.4c0.4-0.2,0.8-0.2,1,0.1c0.1,0.2,0,0.5-0.2,0.7l0.9,0.6c0,0,0.1,0,0.1,0l0,0.1
			l-0.5,0.3l-1-0.6c0,0-0.1,0-0.1,0L118,94c0.1,0.2,0.2,0.1,0.3,0.1l0,0.1l-0.9,0.4l0-0.1c0.1-0.1,0.2-0.2,0.1-0.3l-0.5-1.1
			L117.5,92.9z"/>
	</g>
</g>
</svg>
