<?xml version="1.0" encoding="utf-8"?>
<!-- Generator: Adobe Illustrator 22.1.0, SVG Export Plug-In . SVG Version: 6.00 Build 0)  -->
<svg version="1.1" id="layer_1" xmlns="http://www.w3.org/2000/svg" xmlns:xlink="http://www.w3.org/1999/xlink" x="0px" y="0px"
	 viewBox="0 0 216 144" style="enable-background:new 0 0 216 144;" xml:space="preserve">
<style type="text/css">
	.st0{fill:#D24D5C;}
	.st1{fill:#D24D5C;stroke:#000000;stroke-width:0.125;}
</style>
<g>
	<rect x="162" class="st0" width="54" height="144"/>
	<rect class="st0" width="54" height="144"/>
</g>
<g>
	<path class="st1" d="M110,115.9c-0.5-8.8-0.8-14.5-1-20c-0.1-2.3,2-2.1,3.5-1.9c12.6,2,18.6,2.9,18.6,2.9
		c-4.5-8.6-1.4-9.1,1.1-11.1c14.2-11.9,17.3-14.5,17.3-14.5c-6.6-2.2-5.7-1.4-1.4-17.2c-13.7,4.4-12.6,3.1-15.5-3.7
		c0,0-1.1,1.2-9.7,10.9c-1.2,1.4-3.3,0.5-2.8-1.7c4.5-22.1,4.7-23,4.7-23c-8.7,5.3-8.4,5.6-9.8,2.8c-4.8-9.3-7-13.9-7-13.9
		s-2.3,4.6-7,13.9c-1.4,2.7-1.1,2.4-9.8-2.8c0,0,0.2,0.9,4.7,23c0.4,2.1-1.6,3-2.8,1.7c-8.6-9.7-9.7-10.9-9.7-10.9
		c-2.9,6.8-1.8,8.1-15.5,3.7c4.2,15.8,5.1,15-1.4,17.2c0,0,3,2.6,17.3,14.5c2.5,2.1,5.7,2.6,1.1,11.1c0,0,6-0.9,18.6-2.9
		c1.5-0.2,3.6-0.5,3.5,1.9c-0.2,5.5-0.5,11.2-1,20H110z"/>
	<path class="st1" d="M108,70.8"/>
</g>
</svg>
