<?xml version="1.0" encoding="utf-8"?>
<!-- Generator: Adobe Illustrator 22.1.0, SVG Export Plug-In . SVG Version: 6.00 Build 0)  -->
<svg version="1.1" id="layer_1" xmlns="http://www.w3.org/2000/svg" xmlns:xlink="http://www.w3.org/1999/xlink" x="0px" y="0px"
	 viewBox="0 0 216 144" style="enable-background:new 0 0 216 144;" xml:space="preserve">
<style type="text/css">
	.st0{fill:#D14A48;}
	.st1{fill:#3E5C91;}
	.st2{fill:#FFFFFF;}
	.st3{fill:#3E5C91;stroke:#000000;stroke-width:3.100000e-02;}
	.st4{fill:#D14A48;stroke:#000000;stroke-width:3.100000e-02;}
	.st5{fill:#FFFFFF;stroke:#000000;stroke-width:3.100000e-02;}
	.st6{fill:#3E5C91;stroke:#000000;stroke-width:3.100000e-02;stroke-linecap:round;stroke-linejoin:round;}
	.st7{fill:#F3C95A;}
	.st8{fill:none;stroke:#000000;stroke-width:3.100000e-02;stroke-linecap:round;stroke-linejoin:round;}
	.st9{fill:#877052;stroke:#000000;stroke-width:3.100000e-02;}
	.st10{fill:#F3C95A;stroke:#000000;stroke-width:3.100000e-02;}
	.st11{fill:#D14A48;stroke:#000000;stroke-width:3.100000e-02;stroke-linecap:round;stroke-linejoin:round;}
	.st12{fill:#FFFFFF;stroke:#000000;stroke-width:3.100000e-02;stroke-linecap:round;stroke-linejoin:round;}
	.st13{stroke:#000000;stroke-width:3.100000e-02;stroke-linecap:round;stroke-linejoin:round;}
	.st14{fill:#FFFFFF;stroke:#000000;stroke-width:3.130000e-02;stroke-linecap:round;stroke-linejoin:round;}
	.st15{fill:none;stroke:#000000;stroke-width:3.130000e-02;stroke-linecap:round;stroke-linejoin:round;}
	.st16{fill:none;stroke:#000000;stroke-width:1.560000e-02;stroke-linecap:round;stroke-linejoin:round;}
	.st17{fill:#608641;stroke:#000000;stroke-width:3.100000e-02;stroke-linecap:round;stroke-linejoin:round;}
</style>
<g>
	<rect x="108" y="0.5" class="st0" width="108" height="72"/>
	<rect y="72.5" class="st0" width="108" height="72"/>
</g>
<g>
	<rect y="0.5" class="st1" width="108" height="72"/>
	<rect x="108" y="72.5" class="st1" width="108" height="72"/>
</g>
<polygon class="st2" points="121.5,144.5 121.5,86.9 216,86.9 216,58.1 121.5,58.1 121.5,0.5 94.5,0.5 94.5,58.1 0,58.1 0,86.9 
	94.5,86.9 94.5,144.5 "/>
<g>
	<g>
		<g>
			<path class="st3" d="M107.1,61.9h-9l1.6,1.5c0,2.5,0,5.3,0,7.7h7.4V61.9z"/>
			<path class="st3" d="M107.1,80.3c1.2-1.3,2-1.3,5.4-1.3c1.8,0,2-1.2,2-3.6c0-0.9,0-2.5,0-4.3h-7.4V80.3z"/>
		</g>
		<g>
			<path class="st4" d="M107.1,80.3c-1.2-1.3-2-1.3-5.4-1.3c-1.8,0-2-1.2-2-3.6c0-0.9,0-2.5,0-4.3h7.4V80.3z"/>
			<path class="st4" d="M107.1,61.9h9l-1.6,1.5c0,2.5,0,5.3,0,7.7h-7.4V61.9z"/>
		</g>
		<g>
			<path class="st5" d="M108.4,79.4V61.9h-2.6v17.5c0.4,0.2,0.9,0.5,1.3,0.9C107.5,79.9,108,79.5,108.4,79.4z"/>
			<rect x="99.7" y="69.9" class="st5" width="14.8" height="2.6"/>
			<path class="st5" d="M107.1,71.2"/>
		</g>
		<g>
			<path class="st3" d="M107.1,69.5l4.9-5.2v1.6l0.9-0.8c0,1.8,0,6.9,0,8.7c0,3.2-5.1,2.9-5.8,1.4c-0.7,1.5-5.8,1.8-5.8-1.4
				c0-1.8,0-6.9,0-8.7l0.9,0.8v-1.6L107.1,69.5z"/>
		</g>
		<g>
			<path class="st5" d="M107.1,75c-2.3,1.3-3.8,0.3-3.8-0.9c0-0.4,0-1.1,0-1.5c-0.9,0-1.9-0.5-1.9-0.8v-1.3c0,0.4,1.5,0.7,1.9,0.7
				c0-0.8,0-3.6,0-4.5l0.8,0.7l0-1.2l1.3,1.3v0.9l-0.8-0.7c0,1,0,3.3,0,3.8c0.9,0,1.6,0.5,2.6,0.5c1,0,1.7-0.5,2.6-0.5
				c0-0.5,0-2.7,0-3.8l-0.8,0.7v-0.9l1.3-1.3l0,1.2l0.8-0.7c0,0.9,0,3.7,0,4.5c0.4,0,1.9-0.3,1.9-0.7v1.3c0,0.3-1,0.8-1.9,0.8
				c0,0.4,0,1.1,0,1.5C111,75.3,109.5,76.3,107.1,75v-1.3c1.3,0.7,2.6,0.9,2.6,0.1c0-0.4,0-0.5,0-0.9c-0.9,0-1.6,0.5-2.6,0.5
				c-1,0-1.7-0.5-2.6-0.5c0,0.5,0,0.6,0,0.9c0,0.8,1.3,0.6,2.6-0.1V75z"/>
		</g>
		<g>
			<path class="st4" d="M108.9,67.6v0.9l0.8-0.7c0,1,0,3.3,0,3.8c-0.9,0-1.6,0.5-2.6,0.5c-1,0-1.7-0.5-2.6-0.5c0-0.5,0-2.7,0-3.8
				l0.8,0.7v-0.9l1.7,1.8L108.9,67.6z"/>
		</g>
		<g>
			<path class="st4" d="M101.4,71.8c0,0.8,0,1.4,0,1.9c0,3.2,5.1,2.9,5.8,1.4c0.7,1.5,5.8,1.8,5.8-1.4c0-0.5,0-1.1,0-1.9
				c0,0.3-1,0.8-1.9,0.8c0,0.4,0,1.1,0,1.5c0,1.2-1.5,2.2-3.8,0.9c-2.3,1.3-3.8,0.3-3.8-0.9c0-0.4,0-1.1,0-1.5
				C102.4,72.6,101.4,72.1,101.4,71.8z"/>
		</g>
	</g>
	<path class="st6" d="M109.1,58.8c0.1-0.2,0.2-0.6,0.3-0.9c-0.7-0.1-1.5-0.1-2.2-0.1c-0.7,0-1.5,0.1-2.2,0.1
		c0.1,0.3,0.2,0.6,0.3,0.9c0.1,0.2-0.3,0.6-1.5,0.5c-1.1-0.1-2.6,0-4,0.3c0.2,0.3,0.3,0.4,0.3,0.7c0,0.3-0.7,0.6-2,0.8
		c-1.3,0.2-1.7,1.5-2.2,3.3c-0.5-0.2-1.3-0.4-1.8-0.5c0.3-1.2,1.3-3.9,2.5-4.2c-0.3-0.7-0.2-1,0.9-1.5c1.2-0.6,3.3-0.9,5.6-1
		c-0.1-0.6,0-0.8,0.7-1.1c0.6-0.3,1.6-0.5,3.5-0.5c1.9,0,2.9,0.2,3.5,0.5c0.7,0.3,0.9,0.5,0.7,1.1c2.3,0.1,4.4,0.4,5.6,1
		c1.1,0.5,1.2,0.9,0.9,1.5c1.2,0.3,2.2,3,2.5,4.2c-0.5,0.1-1.3,0.3-1.8,0.5c-0.4-1.9-0.9-3.2-2.2-3.3c-1.3-0.2-2-0.5-2-0.8
		c0-0.3,0.1-0.3,0.3-0.7c-1.4-0.2-2.9-0.3-4-0.3C109.4,59.4,109,59,109.1,58.8z"/>
	<g>
		<g>
			<path class="st7" d="M104.4,56.3l0.1,0.4l0.2,0l0-0.2c0,0,0.1,0,0.2,0c0.1,0,0.2,0,0.2,0.1c0,0.1,0,0.2-0.1,0.2
				c-0.1,0-0.2,0-0.2,0l0-0.1l-0.2,0l0.1,0.8l0.2,0l-0.1-0.4c0,0,0.1,0,0.3,0c0.2,0,0.3-0.3,0.2-0.5c0-0.2-0.2-0.4-0.3-0.3
				C104.6,56.3,104.4,56.3,104.4,56.3z"/>
		</g>
		<g>
			<polygon class="st7" points="105.9,57.1 106,57.3 106.2,57.3 105.8,56.1 105.5,56.1 105.3,57.4 105.5,57.4 105.5,57.1 
				105.7,57.1 105.7,56.9 105.6,56.9 105.7,56.4 105.8,56.9 105.7,56.9 105.7,57.1 			"/>
		</g>
		<g>
			<polygon class="st7" points="106.7,57.3 106.7,56.3 107,56.3 107,56.1 106.2,56.1 106.2,56.3 106.5,56.3 106.5,57.3 			"/>
		</g>
		<g>
			<path class="st7" d="M107.3,56.1l0,0.3l0.2,0l0-0.1c0,0,0.2,0,0.3,0c0.1,0,0.1,0.1,0.1,0.2c0,0.1-0.1,0.2-0.1,0.2
				c-0.1,0-0.3,0-0.3,0l0-0.2l-0.2,0l0,0.9l0.2,0l0-0.5c0,0,0.1,0,0.2,0c0.1,0,0.2,0,0.2,0.2c0,0.1,0,0.3,0,0.3l0.2,0
				c0,0,0-0.3,0-0.3c0-0.2-0.1-0.2-0.1-0.2c0.1,0,0.2-0.1,0.2-0.3c0-0.2-0.1-0.4-0.2-0.4C107.7,56.1,107.3,56.1,107.3,56.1z"/>
		</g>
		<g>
			
				<rect x="107.8" y="56.6" transform="matrix(7.008428e-02 -0.9975 0.9975 7.008428e-02 44.2771 160.9408)" class="st7" width="1.2" height="0.2"/>
		</g>
		<g>
			<polygon class="st7" points="109.4,57.2 109.5,57.5 109.7,57.5 109.5,56.2 109.2,56.2 108.8,57.4 109,57.4 109,57.2 109.2,57.2 
				109.2,57 109.1,57 109.3,56.5 109.4,57 109.2,57 109.2,57.2 			"/>
		</g>
		<g>
			<path class="st7" d="M98,58.3c0.1,0,0.3-0.1,0.4-0.1c0.1,0,0.4-0.1,0.5,0.5c0.1,0.3,0,0.7-0.2,0.7c-0.2,0.1-0.4,0.1-0.4,0.1
				l-0.2-0.6l0.2,0l0.1,0.4c0,0,0.1,0,0.2,0c0.1,0,0.2-0.1,0.1-0.5c-0.1-0.3-0.3-0.3-0.3-0.3c0,0-0.2,0-0.2,0l0.1,0.4l-0.2,0
				L98,58.3z"/>
		</g>
		<g>
			<rect x="99.2" y="58" transform="matrix(0.99 -0.141 0.141 0.99 -7.2768 14.583)" class="st7" width="0.2" height="1.2"/>
		</g>
		<g>
			<path class="st7" d="M100.2,58.9c-0.2,0-0.3-0.1-0.3-0.4c0-0.3,0.1-0.4,0.2-0.5c0.2,0,0.3,0.1,0.3,0.4
				C100.4,58.7,100.3,58.9,100.2,58.9l0,0.2c0.3,0,0.4-0.3,0.4-0.7c0-0.4-0.3-0.6-0.6-0.6c-0.3,0-0.4,0.3-0.4,0.7
				c0,0.4,0.3,0.6,0.6,0.6L100.2,58.9z"/>
		</g>
		<g>
			<path class="st7" d="M101.5,58.1c0-0.2-0.2-0.4-0.5-0.3c-0.3,0-0.3,0.3-0.3,0.4c0,0.1,0.1,0.3,0.4,0.3c0.1,0,0.2,0.1,0.2,0.2
				c0,0.1,0,0.2-0.2,0.2c-0.1,0-0.2,0-0.3-0.2l-0.2,0c0,0.2,0.2,0.4,0.4,0.4c0.3,0,0.4-0.2,0.4-0.5c0-0.2-0.2-0.3-0.4-0.3
				c-0.2,0-0.3-0.1-0.3-0.1c0-0.1,0-0.2,0.1-0.2c0.1,0,0.2,0,0.2,0.2L101.5,58.1z"/>
		</g>
		<path class="st7" d="M111.1,57.7v0.9h0.5v0.2h-0.7v-0.6C111,58.2,111.1,57.9,111.1,57.7z"/>
		<g>
			<rect x="111.8" y="57.7" class="st7" width="0.2" height="1.2"/>
		</g>
		<g>
			<path class="st7" d="M112.2,58.9c0,0,0.3,0,0.5,0c0.3,0,0.3-0.2,0.4-0.3c0-0.1,0-0.2-0.1-0.3c0.1-0.1,0.1-0.2,0.1-0.3
				c0-0.2-0.2-0.3-0.4-0.3c-0.3,0-0.4,0-0.4,0l0,0.3l0.2,0l0-0.1c0,0,0.2,0,0.3,0c0.1,0,0.1,0.1,0.1,0.1c0,0,0,0.1-0.1,0.1
				c-0.1,0-0.3,0-0.3,0l0-0.1l-0.2,0l0,0.5l0.2,0l0-0.2c0,0,0.2,0,0.3,0c0.1,0,0.1,0.1,0.1,0.2c0,0.1-0.1,0.2-0.1,0.2
				c-0.1,0-0.3,0-0.3,0l0-0.2l-0.2,0L112.2,58.9z"/>
		</g>
		<g>
			<polygon class="st7" points="114,57.9 113.2,57.8 113.1,59 113.9,59.1 113.9,58.9 113.4,58.8 113.4,58.5 113.9,58.5 113.9,58.3 
				113.4,58.3 113.4,58 114,58.1 			"/>
		</g>
		<g>
			<path class="st7" d="M114.2,57.9l0,0.3l0.2,0l0-0.1c0,0,0.2,0,0.3,0c0.1,0,0.1,0.1,0.1,0.2c0,0.1-0.1,0.2-0.1,0.1
				c-0.1,0-0.3,0-0.3,0l0-0.2l-0.2,0l-0.1,0.9l0.2,0l0.1-0.5c0,0,0.1,0,0.2,0c0.1,0,0.2,0.1,0.1,0.2c0,0.1,0,0.3,0,0.3l0.2,0
				c0,0,0-0.3,0-0.3c0-0.2,0-0.3-0.1-0.3c0.1,0,0.2-0.1,0.2-0.3c0-0.2,0-0.4-0.2-0.4C114.6,57.9,114.2,57.9,114.2,57.9z"/>
		</g>
		<g>
			<polygon class="st7" points="115.3,59.3 115.5,58.3 115.8,58.4 115.9,58.2 115.1,58 115,58.2 115.3,58.3 115.1,59.3 			"/>
		</g>
		<g>
			<polygon class="st7" points="116.2,59.3 116.2,59.6 116.4,59.7 116.4,58.4 116.2,58.3 115.5,59.4 115.7,59.4 115.8,59.2 
				116,59.3 116.1,59.1 116,59 116.2,58.6 116.2,59.1 116.1,59.1 116,59.3 			"/>
		</g>
		<g>
			<path class="st7" d="M117,58.6c0.1,0,0.2,0.1,0.4,0.2c0.1,0.1,0.4,0.2,0.1,0.7c-0.1,0.3-0.4,0.5-0.6,0.4
				c-0.2-0.1-0.4-0.2-0.4-0.2l0.3-0.6l0.2,0.1l-0.2,0.4c0,0,0.1,0,0.2,0.1c0.1,0,0.2,0.1,0.4-0.3c0.2-0.3,0-0.4,0-0.5
				c0,0-0.2-0.1-0.2-0.1l-0.2,0.3l-0.2-0.1L117,58.6z"/>
		</g>
	</g>
	<g>
		<path class="st8" d="M93.8,65c0-0.4,0.1-0.7,0.2-1.1"/>
		<path class="st8" d="M94,65c0-0.4,0.1-0.7,0.2-1.1"/>
		<path class="st8" d="M94.2,65c0.1-0.4,0.1-0.7,0.2-1"/>
		<path class="st8" d="M94.4,65c0.1-0.4,0.1-0.7,0.2-1"/>
		<path class="st8" d="M94.6,65.1c0.1-0.3,0.1-0.7,0.2-1"/>
		<path class="st8" d="M94.8,65.1c0.1-0.3,0.1-0.7,0.2-1"/>
		<path class="st8" d="M95,65.1c0.1-0.3,0.1-0.6,0.2-0.9"/>
		<path class="st8" d="M95.2,65.2c0.1-0.3,0.1-0.6,0.2-0.9"/>
		<path class="st8" d="M95.4,65.2c0.1-0.3,0.1-0.6,0.2-0.9"/>
		<path class="st8" d="M95.6,65.2c0.1-0.3,0.1-0.6,0.2-0.9"/>
		<path class="st8" d="M120.5,65c0-0.4-0.1-0.7-0.2-1.1"/>
		<path class="st8" d="M120.3,65c0-0.4-0.1-0.7-0.2-1.1"/>
		<path class="st8" d="M120.1,65c0-0.4-0.1-0.7-0.2-1"/>
		<path class="st8" d="M119.9,65c-0.1-0.4-0.1-0.7-0.2-1"/>
		<path class="st8" d="M119.7,65.1c-0.1-0.3-0.1-0.7-0.2-1"/>
		<path class="st8" d="M119.5,65.1c-0.1-0.3-0.1-0.7-0.2-1"/>
		<path class="st8" d="M119.3,65.1c-0.1-0.3-0.1-0.6-0.2-0.9"/>
		<path class="st8" d="M119.1,65.2c-0.1-0.3-0.1-0.6-0.2-0.9"/>
		<path class="st8" d="M118.9,65.2c-0.1-0.3-0.1-0.6-0.2-0.9"/>
		<path class="st8" d="M118.7,65.2c-0.1-0.3-0.1-0.6-0.2-0.9"/>
		<path class="st8" d="M104.9,57.9c-1,0.1-1.6,0.3-1.4,0.6"/>
		<path class="st8" d="M98.5,61c-1.7,0.2-3.3-0.4-4,1.4"/>
		<path class="st8" d="M99.9,60.3c0,0,0-0.1,0-0.1c-0.1-0.3-1.1,0-1.5,0.2c-0.4,0.2-1.1,0.7-1.3,0.3c-0.2-0.3,0.5-0.6,1.1-0.8
			c0.4-0.1,0.9-0.2,1.5-0.3"/>
		<path class="st8" d="M105.2,58.8c-0.1-0.3-0.5-0.3-1.1-0.2c-0.7,0.2-0.8-0.3-1-0.9c-0.1-0.2-0.1-0.3-0.2-0.5"/>
		<path class="st8" d="M96.5,59.7c0,0.1,0.1,0.1,0.1,0.2c0.4,0.8,0.4,0.9,0.7,1"/>
		<path class="st8" d="M109.4,57.9c1,0.1,1.6,0.3,1.4,0.6"/>
		<path class="st8" d="M115.7,61c1.7,0.2,3.3-0.4,4,1.4"/>
		<path class="st8" d="M114.3,60.3c0,0,0-0.1,0-0.1c0.1-0.3,1.1,0,1.5,0.2c0.4,0.2,1.1,0.7,1.3,0.3c0.2-0.3-0.5-0.6-1.1-0.8
			c-0.4-0.1-0.9-0.2-1.5-0.3"/>
		<path class="st8" d="M109.1,58.8c0.1-0.3,0.5-0.3,1.1-0.2c0.7,0.2,0.8-0.3,1-0.9c0.1-0.2,0.1-0.3,0.2-0.5"/>
		<path class="st8" d="M117.8,59.7c0,0.1,0,0.1-0.1,0.2c-0.4,0.8-0.4,0.9-0.7,1"/>
	</g>
	<g>
		<g>
			<polygon class="st9" points="107.1,69.9 113.1,64.8 113.2,65 107.1,70.2 			"/>
			<polygon class="st9" points="107.1,69.3 112.2,63.9 112.3,64 107.1,69.6 			"/>
			<polygon class="st9" points="107.1,68.6 111.1,63.1 111.3,63.2 107.1,68.9 			"/>
			<polygon class="st9" points="107.1,69.9 101.2,64.8 101,65 107.1,70.2 			"/>
			<polygon class="st9" points="107.1,69.3 102.1,63.9 102,64 107.1,69.6 			"/>
			<polygon class="st9" points="107.1,68.6 103.1,63.1 103,63.2 107.1,68.9 			"/>
		</g>
		<g>
			<path class="st10" d="M113,64.7l0.9-0.5l-0.6,0.8C113.2,65.1,113,64.8,113,64.7z"/>
			<path class="st10" d="M112.1,63.8l0.8-0.5l-0.5,0.8C112.3,64.1,112,63.8,112.1,63.8z"/>
			<path class="st10" d="M111,63l0.7-0.6l-0.4,0.9C111.3,63.3,111,63.1,111,63z"/>
			<path class="st10" d="M101.3,64.7l-0.9-0.5l0.6,0.8C101,65.1,101.3,64.8,101.3,64.7z"/>
			<path class="st10" d="M102.2,63.8l-0.8-0.5l0.5,0.8C101.9,64.1,102.2,63.8,102.2,63.8z"/>
			<path class="st10" d="M103.2,63l-0.7-0.6l0.4,0.9C102.9,63.3,103.3,63.1,103.2,63z"/>
		</g>
	</g>
	<g>
		<polygon class="st10" points="107.4,68.9 107.4,66.3 108.1,66.3 108.1,65.8 107.4,65.8 107.4,64.9 106.8,64.9 106.8,65.8 
			106.2,65.8 106.2,66.3 106.8,66.3 106.8,68.9 		"/>
	</g>
	<g>
		<path class="st11" d="M108,72.4c0.1,1.3,1,2.9,1,3.7c-0.1-0.1-0.3,0.1-0.4,0.1c0.1,0.4,0.1,0.8,0.1,1.2c-0.3-0.2-0.6-0.1-0.8,0
			c-0.1,0.6-0.4,1.2-0.8,1.9c0.1-0.4-0.5-1.4-1.3-2.6c-0.7-1-0.2-3.3,0.7-4.7c-0.1-0.1,0-0.3,0.3-0.6c0.3-0.3,0.6-0.3,1-0.2
			c0.3,0.1,0.7,0.3,0.6,0.7C108.2,72.4,108,72.4,108,72.4z"/>
		<path class="st12" d="M107.4,71.7c-1.3,2,0.4,5.5-0.3,7.5c0.1-0.4-0.5-1.4-1.3-2.6c-0.7-1-0.2-3.3,0.7-4.7
			C106.6,71.7,107,71.5,107.4,71.7z"/>
		<path class="st6" d="M106.6,71.8c-0.9,1.4-1.4,3.8-0.8,4.7c0.3,0.4,0.5,0.7,0.7,1c-0.2-1.5-0.6-3.9,0.8-6
			C107.1,71.6,106.7,71.6,106.6,71.8z"/>
		<path class="st8" d="M106.5,71.8c0.2-0.3,0.6-0.3,1-0.2c0.2,0.1,0.3,0.1,0.4,0.2c0,0.1,0,0.3,0,0.4"/>
		<path class="st8" d="M107.9,77.3c0.1-0.6,0.1-1.3,0-2.1c-0.2-1.2-0.3-2.4-0.1-3.3"/>
		<path class="st8" d="M108,72.4c0.1-0.2,0.1-0.3,0-0.4"/>
		<path class="st8" d="M107.9,71.9c-0.3,1.3,0.4,2.9,0.7,4.3"/>
	</g>
	<g>
		<path class="st13" d="M107,68.3c0.3-0.4,1.1-0.7,1.5-0.4l0.9,2.8c-0.3,0-0.7,0.1-0.9,0.3c-0.1,0.1-0.4,0.2-0.5,0.2
			c-0.1,0.1-0.3,0.2-0.6,0.2c-0.3-0.1-0.5,0.1-1,0.3l-0.9-2.8l0.2-0.3C105.9,68.4,106.6,68.1,107,68.3z"/>
		<path class="st14" d="M105.7,68.6c0.2-0.2,0.9-0.5,1.3-0.3c0.3-0.3,1-0.6,1.4-0.4l0.8,2.5c-0.2,0.2-0.7,0.1-1,0.3
			c-0.1,0.1-0.3,0.2-0.3,0.3c-0.1-0.1-0.5,0-0.7,0c-0.2,0.1-0.3,0.3-0.6,0.3L105.7,68.6"/>
		<line class="st15" x1="107" y1="68.3" x2="107.9" y2="70.9"/>
		<path class="st16" d="M106.9,68.5c-0.3,0-0.7,0.1-0.9,0.3"/>
		<path class="st16" d="M107,68.8c-0.3,0-0.7,0.1-0.9,0.3"/>
		<path class="st16" d="M107.1,69.2c-0.3,0-0.7,0.1-0.9,0.3"/>
		<path class="st16" d="M107.2,69.5c-0.3,0-0.7,0.1-0.9,0.3"/>
		<path class="st16" d="M107.3,69.8c-0.3,0-0.7,0.1-0.9,0.3"/>
		<path class="st16" d="M107.4,70.2c-0.2,0-0.7,0.1-0.9,0.3"/>
		<path class="st16" d="M107.6,70.5c-0.2,0-0.7,0.2-0.9,0.3"/>
		<path class="st16" d="M107.2,68.4c0.2-0.2,0.7-0.4,1-0.3"/>
		<path class="st16" d="M107.4,68.7c0.2-0.2,0.7-0.4,1-0.3"/>
		<path class="st16" d="M107.5,69.1c0.2-0.2,0.7-0.4,1-0.3"/>
		<path class="st16" d="M107.6,69.4c0.2-0.2,0.7-0.4,1-0.3"/>
		<path class="st16" d="M107.7,69.7c0.2-0.2,0.7-0.4,1-0.3"/>
		<path class="st16" d="M107.8,70.1c0.2-0.2,0.7-0.4,1-0.4"/>
		<path class="st16" d="M107.9,70.4c0.2-0.2,0.7-0.3,1-0.4"/>
	</g>
	<g>
		<path class="st17" d="M115,82.2c0.8,0,1.8,0.2,2.1,0.3c-0.3-0.3-0.8-0.5-1.3-0.7c0.7,0.1,0.9,0.2,1.4,0.4c0.3,0.1,0.4,0.1,0.4,0.6
			c0,0.3,0,0.7,0.2,0.1c0.2-0.6,0.2-0.7-0.1-0.9c-0.3-0.2-0.8-0.4-1.2-0.6c0.9,0.2,1.6,0.5,2.1,0.8c-0.2-0.3-0.6-0.8-1.1-1.1
			c0.5,0.1,1.2,0.4,1.7,0.7c-0.2-0.3-0.6-0.8-1.1-1.1c0.8,0.2,1.6,0.4,2.1,0.7c-0.4-0.6-0.9-1.1-1.6-1.3c0.9,0.1,1.7,0.4,2.1,0.6
			c-0.5-0.5-1.1-1-1.6-1.2c0.7,0.1,1.4,0.3,1.8,0.5c-0.5-0.5-1.3-0.9-2.1-1c0.6,0,1.3,0.1,1.8,0.2c-0.5-0.3-1.3-0.5-1.7-0.5
			c0.9-0.2,1.9-0.2,3,0.2c-0.5-0.3-1.3-0.6-2.1-0.8c0.4,0,1.1-0.1,1.5-0.1c-0.4-0.1-1.5-0.4-2-0.3c0.9-0.3,1.8-0.4,2.3-0.5
			c-0.9-0.1-2,0-2.9,0.2c1-0.9,1.8-0.9,2.4-1c0.7-0.1,1.2-0.3,0.5-0.3c-0.5,0-0.8-0.1-1.1-0.1c0.7-0.2,1.6-0.7,1.9-0.8
			c0.3-0.2,1-0.7,0.2-0.3c-0.8,0.4-2,0.4-3,0.5c-0.4,0-0.8,0.1-1.1,0.3c0.6-0.3,1.2-0.7,1.9-1c0.7-0.3,0.5-0.4,1.1,0.2
			c0.3,0.3,0.3,0-0.1-0.8c-0.3-0.7-0.5-0.3-1.2-0.1c-0.2,0.1-0.5,0.2-0.9,0.4c0.4-0.4,1.6-1.9,1.8-2.1c0.2-0.2,0.6,0,1,0.3
			c0.4,0.3,0.3,0-0.1-0.4c-0.4-0.5-0.6-0.5-0.8-0.3c-0.3,0.2-1.5,1-2.2,1.7c1.3-1.2,2.8-2.6,3.1-3c-0.7,0.4-1.4,0.8-2,1.3
			c0.2-0.3,0.6-0.8,0.8-1.1c-0.3,0.2-0.7,0.4-0.9,0.6c0.3-0.6,0.7-1.2,0.8-1.3c0.1-0.2,0.2-0.2,0.3-0.2c0.1,0,0.3,0,0.7-0.1
			c0.4,0,0.2-0.1,0.1-0.2c-1-0.3-1-0.2-1.2,0.1c-0.2,0.2-0.4,0.4-0.6,0.7c0.3-0.8,1-1.6,1.2-1.8c-0.8,0.4-1.2,0.8-1.5,1.2
			c0.4-0.6,1.5-1.5,1.9-1.9c-0.4,0.1-1.1,0.5-1.3,0.8c0.2-0.3,0.4-0.7,0.6-1.1c-0.6,0.4-1.1,0.9-1.5,1.6c0-0.2,0.1-0.4,0.2-0.6
			c0.2-0.4,0.8-0.9,1.1-1.3c0.3-0.3,0.4-0.4,1.2,0.1c-0.1-0.4-0.3-0.6-0.4-0.8c-0.2-0.4-0.4-0.2-0.7,0.1c-0.2,0.1-0.4,0.4-0.7,0.6
			c0.4-0.9,0.8-1.9,1-2.5c-0.6,0.6-1.1,1.4-1.4,2.3c0-0.6,0.4-2,0.3-2.6c-0.3,0.3-0.6,0.9-0.7,1.6c0-0.7,0-1.6-0.2-2.1
			c0.1,0.4-0.4,1.4-0.5,2.1c-0.3-0.7-0.6-1.3-0.8-1.8c0,0.3,0.1,1.1,0.3,2.1c-0.2-0.7-1.1-1.5-1.1-2.1c0,0.8,0.6,2.3,0.6,2.7
			c0,0.1,0.1,0.3,0.1,0.6c-0.3-0.5-1-1.3-1.2-1.9c0,0.3,0.1,1,0.2,1.3c-0.4-0.3-0.6-0.1-1.2,1c0.2-0.1,0.4-0.3,0.6-0.4
			c0.2-0.1,0.3-0.2,0.5,0.1c0.2,0.4,0.9,1.3,1.2,2.4c-0.1-0.3-0.7-1.1-0.9-1.4c0,0.2,0.1,0.7,0.2,1c-0.3-0.8-0.6-1.3-0.8-1.6
			c0,0.4,0.3,1.4,0.3,1.9c-0.2-0.4-0.3-0.7-0.5-1c0.1,0.3,0.3,1.4,0.3,1.9c-0.2-0.4-0.5-0.8-0.7-1c0.1,0.4,0.3,1.3,0.3,1.8
			c-0.1-0.2-0.2-0.3-0.2-0.4c-0.3-0.5-0.5,0.4-0.7,0.8c-0.2,0.4-0.1,0.4,0.1,0.1c0.3-0.5,0.3-0.4,0.5,0.1c0.1,0.3,0.4,1,0.7,1.9
			c-0.2-0.4-0.6-1-0.8-1.4c-0.2-0.4-0.2-0.4,0,0.4c0.1,0.5,0.5,1.5,0.3,2.6c-0.2-0.7-0.4-1.5-0.7-2.2c0,0.5,0.1,1.3,0.1,1.7
			c-0.1-0.2-0.2-0.4-0.4-0.5c0.2,0.6,0.2,1.7,0.2,2.3c-0.1-0.4-0.3-0.8-0.4-1.1c0,0.5,0.1,1.6,0.2,2.1c-0.1-0.4-0.3-0.8-0.4-1.1
			c0.1,0.6,0.1,1.4,0,2c0-0.3-0.1-0.6-0.2-0.9c0,0.3-0.1,1.1-0.3,1.4c0.1-0.5,0.1-1,0.1-1.3c-0.1,0.5-0.3,1-0.6,1.5
			c0.1-0.3,0.2-0.8,0.2-1.2c-0.1,0.3-0.3,0.6-0.4,0.8c0.1-0.4,0.1-0.8,0.1-1c-0.2,0.7-0.5,1.2-1,1.8c0.2-0.6,0.3-1.2,0.3-1.6
			c-0.4,0.7-0.4,0.9-1,1.7c0.3-0.7,0.3-1.2,0.2-1.5c0,0.2-0.3,0.7-0.6,1.2c-0.1-0.4,0-1.3,0.1-1.6c-0.3,0.2-0.6,0.7-0.6,1.1
			c-0.1-0.4-0.2-0.7-0.5-1c0.2,1.3,0.1,2.4-0.7,3c-1.7,1.1-3.2,3.7-5.3,4.6c0.1,0.1,0.5,0.4,0.7,0.6c2-0.9,3.4-2.9,5-4.1
			c0.8-0.4,2.5,0.5,4.4,0c0.7-0.2,2.2,0.2,2.8,0.5C116.6,82.7,116.1,82.4,115,82.2z"/>
		<path class="st8" d="M116.8,78.1c0.5-0.4,1.2-0.8,1.8-0.9"/>
		<path class="st8" d="M115.9,80.3c0.8-0.8,1.7-1.4,2.9-1.7"/>
		<path class="st8" d="M119.7,78c-0.6-0.1-1.3-0.2-1.7,0"/>
		<path class="st8" d="M117.4,79.4c0.5-0.1,1,0,1.5,0"/>
		<path class="st8" d="M117.8,78.9c0.2,0,0.5,0,0.8,0"/>
		<path class="st8" d="M115.7,79.3c0.3-0.5,0.6-1.4,0.8-2.2c0,0.6,0,1.7-0.5,2.7"/>
		<path class="st8" d="M114,81c0.6-0.2,1.6-0.3,2.3-0.1c-0.4-0.3-0.9-0.6-1.6-0.5"/>
		<path class="st8" d="M110.6,79.5c0.1,0.3,0.1,0.6,0.1,0.8"/>
		<path class="st8" d="M110,81.4c0.4-0.4,0.7-0.9,1-1.4"/>
		<path class="st8" d="M110.5,81.5c0.5-0.4,0.7-0.8,0.9-1.2"/>
		<path class="st8" d="M113,79.4c-0.1,0.5-0.3,1.5-1,2.1"/>
		<path class="st8" d="M112.1,80.2c-0.1,0.3-0.3,0.6-0.5,0.8"/>
		<path class="st8" d="M112.7,80.6c0.2-0.2,0.4-0.5,0.5-0.8"/>
		<path class="st8" d="M112.8,81.5c0.6-0.6,0.8-1.4,0.9-1.9"/>
		<path class="st8" d="M115.6,75.7c0.2,0.6,0.4,1.4,0.4,2.2"/>
		<path class="st8" d="M115,75.2c0.4,0.7,0.7,2.6,0.5,4.3"/>
		<path class="st8" d="M114.8,77.1c0.1,0.4,0.5,1.7,0.3,2.5"/>
		<path class="st8" d="M114.7,78.1c0.1,0.6,0.2,1.3,0.1,1.9"/>
		<path class="st8" d="M114.2,79c0.1,0.5-0.1,1.7-0.7,2.4"/>
		<path class="st8" d="M116.9,75.5c0-1.6-0.8-3.2-1.2-3.9"/>
		<path class="st8" d="M116.8,69.6c0.4,1.1,1,2.5,0.8,4.6"/>
		<path class="st8" d="M116.3,69.9c0.4,0.9,0.9,2.1,1,3.6"/>
		<path class="st8" d="M116,70.8c0.5,0.8,1.1,2.2,1.1,3.8"/>
		<path class="st8" d="M116.1,74.1c0.2,0.7,0.4,1.6,0.4,2.7"/>
		<path class="st8" d="M118.1,70.4c-0.3-1.3-0.7-2-1.3-2.9c-0.2-0.3-0.3-0.5-0.5-0.6"/>
		<path class="st8" d="M117.4,70c0.2,0.7,0.5,1.5,0.4,2.3"/>
		<path class="st8" d="M117.3,67.5c0.1,0.5,0.3,1.1,0.4,1.4"/>
		<path class="st8" d="M118.3,69.4c-0.2-1-0.5-2.1-0.6-3"/>
		<path class="st8" d="M118.8,68.3c0-0.5-0.3-1.4-0.6-2.2"/>
		<path class="st8" d="M118.9,66c0,0.3,0,0.6,0,0.8"/>
		<path class="st8" d="M118.4,69.7c0.3-0.9,0.5-1.9,0.9-2.7"/>
		<path class="st8" d="M119.3,68.5c0.1-0.4,0.3-0.8,0.5-1.3"/>
		<path class="st8" d="M118.2,71.1c0.3-0.7,0.6-1.5,0.9-2.1"/>
		<path class="st8" d="M118,72.4c0.4-1,0.5-1.9,1.1-2.5c0.3-0.4,0.6-0.8,0.9-1.3"/>
		<path class="st8" d="M118.7,71.2c0.3-0.6,0.4-1.1,0.7-1.5"/>
		<path class="st8" d="M118.1,72.9c0.4-0.7,1.1-1.8,1.7-2.6"/>
		<path class="st8" d="M119.4,72.2c0.1-0.3,0.3-0.6,0.5-1"/>
		<path class="st8" d="M117.9,73.8c0.5-0.7,1.2-1.4,2.2-2.2"/>
		<path class="st8" d="M117.4,75.1c0.5-0.6,1-1.3,1.5-1.8"/>
		<path class="st8" d="M117.4,75.6c0.6-0.6,1.3-1.1,1.9-1.4"/>
		<path class="st8" d="M117.1,76.8c0.6-0.7,1-1.1,1.5-1.3"/>
		<path class="st8" d="M116.5,78.9c0.6-0.6,1.7-1,2.7-1.3"/>
		<path class="st8" d="M117.1,77.4c0.8-0.8,1.9-1.7,3.3-1.6"/>
		<path class="st8" d="M116.5,80.2c0.6-0.2,1.3-0.2,2-0.1"/>
		<path class="st8" d="M116.8,80.5c0.3,0,0.8,0.1,1.2,0.2"/>
		<path class="st8" d="M117.4,81.1c-0.2-0.1-0.5-0.3-0.8-0.4"/>
		<path class="st8" d="M116.4,81.3c-0.7-0.3-1.4-0.4-2.1-0.4"/>
		<path class="st8" d="M113.8,81.5c0.6-0.1,1.3,0.1,2,0.3"/>
		<path class="st8" d="M114.5,82.3c0.2,0,0.3-0.1,0.6-0.1"/>
	</g>
	<g>
		<g>
			<path class="st17" d="M100.4,80.9c0.3-0.1,1.3,0,2.1,0.1c-0.5-0.2-0.2-1.4-0.8-1.8c0.6,0.3,0.9,0.2,1.2,0.2c0,0,0.1,0,0.1,0
				c0-0.2,0-0.5,0.1-0.7c0.1,0.3,0.4,0.4,0.7,0.6c0,0,0.1,0.1,0.1,0.1c0-0.4,0.6-0.9,0.6-1.1c0.1,0.3,0.4,0.6,0.5,1
				c0.3,1.2-0.7,1.5-0.3,2.4c1.7,1.1,3.3,3.4,5.4,4.4c-0.1,0.1-0.5,0.4-0.7,0.6c-2.8-1.3-4.6-4.9-7.2-5c-0.1,0-0.1,0-0.2,0.1
				c-0.6,0.3-1.2,0.5-1.8,0.4c-0.6-0.1-1.1,0.1-1.5,0.3C99.6,81.3,99.9,81,100.4,80.9c-0.4,0.2-1.1,0.3-1.6,0
				c-0.3,0.8-1.1,1-1.7,1.1c-0.7,0.1-1.2,0.4-1.4,0.7c-0.1-0.3,0-0.9,0-1.1c-0.3,0-0.6,0-1.1,0c0.4-0.1,0.8-1.3,1.7-1.4
				c-0.2-0.1-0.3-0.3-0.5-0.5c0.2,0.1,0.4,0,0.9-0.1c0.2-0.1,0.5-0.1,0.9-0.1c-0.3-0.2-0.6-0.7-0.6-1c-0.3,0.9-1.3,1.2-1.9,1.2
				c-0.7,0-1,0.3-1.2,0.5c0-0.4,0.1-0.8,0.3-1c-0.3,0-0.6,0-0.7,0.1c0.1-0.7,0.5-1.1,0.8-1.3c-0.4-0.1-1-0.8-1-1.4
				c0.3,0.4,1.7,0,2.4,0.7c-0.4-0.4-0.7-0.8-0.7-1.3c0.2,0.2,0.5,0.2,0.8,0.4c-0.5-1.6-1.6-1.3-2.3-1.8c-0.9-0.7-0.5-1.8-1.2-2.4
				c0.3,0,0.5,0,0.7,0.1c-0.1-0.3-0.1-1.1-0.1-1.5c0.2,0.5,0.7,0.5,1.1,1c0.1-0.1,0.1-0.3,0.1-0.4c0.3,0.3,0.5,0.6,0.7,0.9
				c0-0.6,0.2-0.9,0.3-1c0,0.2,0,0.7,0.3,1.1c0.2,0.4,0.3,0.9,0.1,1.7c-0.2,0.8,0.2,1.3,0.5,1.9c0-0.3,0-1.3-0.1-1.6
				c-0.1-0.3-0.1-0.8,0-1.4c0.1,0.2,0.3,0.6,0.6,0.9c0.1,0.1,0.1,0.2,0.2,0.3c0.1-0.2,0.2-0.4,0.2-0.5c0.1-0.3-1.1-0.7-1.1-2.1
				c-0.8-0.5-1.6-1.1-1.8-2.1c0.1,0.1,0.3,0.2,0.5,0.2c-0.5-0.7-0.6-1.5-0.4-1.9c0.1,0.4,0.5,0.4,0.8,0.7c0.1-0.7-0.7-1.3-0.7-2
				c0-1.1,0.6-1.1,0.8-1.8c0.2,0.3,0.3,0.5,0.4,0.7c0.1-0.5,0.7-0.8,0.7-1.2c0.3,0.4,0.5,0.9,0.3,1.4c0.4-0.1,0.8,0,1.1,0.1
				c-0.7,0.1-0.7,1-1.1,1.2c-0.5,0.2-1.3,0.8-1.1,1.8c0.3,0.3,0.6,0.8,0.7,1.7c0.1,0.1,0.3,0.3,0.4,0.5c0.1-0.2,0.2-0.4,0.3-0.7
				c0-0.4-0.5-0.8-0.7-1.1c-0.2-0.5,0.2-1.2,0.1-1.8c0.2,0.1,0.6,0.2,0.9,0.6c0.2-0.5,0.6-0.8,0.6-1.7c0.2,0.3,0.3,0.7,0.4,1.1
				c0.3-0.3,0.7-0.8,1.3-0.9c-0.3,0.6-0.2,1.2-0.2,1.6c0,0.5,0,1.3-0.7,1.8c-0.7,0.5-0.9,0.7-1,2c0.3-0.6,1-1.1,1-1.5
				c0.1,0.6,0.3,1.1,0.2,1.5c0.2-0.3,0.7-0.4,1.2-0.5c-0.3,0.4-0.6,2-1.5,2.2c-0.9,0.2-1.3,1.1-1.6,1.5c-0.3,0.5-0.4,0.8-0.1,1.5
				c0-0.5,0.1-1.1,0.3-1.4c0.3-0.6,1-0.9,1-1.3c0.1,0.5,0.1,0.8,0.1,1.1c0.5-0.9,1.5-0.7,1.7-1c-0.2,0.2-0.4,0.6-0.5,1.1
				c-0.1,0.5-0.5,1-1,1.3c-0.4,0.2-0.8,0.2-1,0.7c-0.1,0.3,0.2,0.5,0.2,0.9c0-0.1,0.1-0.3,0.1-0.4c0.3-0.4,0.4-0.7,0.4-0.9
				c0.6,0.6,0.7,1.2,0.5,1.8c-0.2,0.6-0.3,1.1,0.1,1.6c0.2,0.2,0.5,0.3,0.7,0.4c0.3-0.3-0.1-0.7-0.4-1c-0.3-0.4-0.3-1.2,0-1.6
				c0.3-0.4,0.5-0.7,0.5-1c0.2,0.2,0.5,0.5,0.5,0.7c0.1-0.3,0.3-0.5,0.5-0.7c0,0.5,0.4,0.7,0.4,1.3c0.2-0.3,0.4-0.6,0.7-0.7
				c-0.1,0.3,0.2,0.7,0.2,1c0,0.2,0,0.4-0.1,0.7c-0.1,0.3-0.3,0.6-0.7,0.8c-0.1,0.1-0.3,0.1-0.6,0.2c0.5-0.1,1.4,0.1,1.6,0.5
				C101.6,80.5,100.8,80.7,100.4,80.9z"/>
		</g>
		<g>
			<path class="st8" d="M95.2,68.1c0.1-1,0.7-2.1,1.1-2.3c0.1-0.1,0.2-0.1,0.3-0.1"/>
			<path class="st8" d="M95.2,64.9c0,0.6-0.3,1.5-0.2,2.3"/>
			<path class="st8" d="M97.1,65.8c-0.6,0.1-1.3,1.2-1.5,1.5"/>
			<path class="st8" d="M96.4,67.5c0.2,0.3,0.2,1.4,0.4,1.7"/>
			<path class="st8" d="M97.8,67c0,0.6-0.4,1.5-0.4,2.2"/>
			<path class="st8" d="M94.3,68.1c0.2,0.5,1,1.1,1.3,1.6"/>
			<path class="st8" d="M94.4,69.8c0.2,0.3,1,0.7,1.3,1"/>
			<path class="st8" d="M95.1,75.1c-0.3-0.7-0.9-0.4-1-1.5c-0.1-0.6-0.3-1-1-1.2"/>
			<path class="st8" d="M98.3,70.9c-0.4,0.7-0.2,1.4-0.7,2"/>
			<path class="st8" d="M96.1,71.3c0.1,0.7,0.6,0.9,0.7,1.3"/>
			<path class="st8" d="M93.1,71.4c0.1,0.3,0.5,0.8,0.6,1.1"/>
			<path class="st8" d="M94.2,71.8c0.2,0.5,0.1,1.3,0.2,1.7"/>
			<path class="st8" d="M92.7,72.5c1,0.5,0.8,1.7,1.4,2.1"/>
			<path class="st8" d="M99.5,71.6c-0.4,0.3-0.8,1.2-1.2,1.5"/>
			<path class="st8" d="M97.9,74.3c-0.1,0.8-0.5,0.8-0.7,1.4"/>
			<path class="st8" d="M99.4,74.4c-0.6,0.3-0.9,1.4-1.6,1.7"/>
			<path class="st8" d="M95.2,76.4c0.2,0.2,0.7,0.4,0.8,0.7"/>
			<path class="st8" d="M93.5,77c0.3,0.3,1.2,0.3,1.6,0.6"/>
			<path class="st8" d="M93.9,79c0.3-0.4,1.4-0.5,1.8-0.9"/>
			<path class="st8" d="M94.3,79.7c0.4-0.4,1.4-0.3,2-1"/>
			<path class="st8" d="M98.1,77.2c0.1,0.4-0.2,1.3-0.1,1.8"/>
			<path class="st8" d="M99.5,77.4c0,0.6-0.3,1.3-0.2,1.8"/>
			<path class="st8" d="M100.3,77.2c-0.2,0.8,0,1.3-0.2,1.7"/>
			<path class="st8" d="M95.3,81.4c0.6-0.3,1.6-0.1,2.2-0.4"/>
			<path class="st8" d="M99.4,82c0.6-0.5,2.2-0.3,2.8-0.6"/>
			<path class="st8" d="M101.3,78c-0.3,0.5-0.1,1-0.4,1.4"/>
			<path class="st8" d="M102.2,79.6c0.7,0.3,1,0.9,1.4,1.2"/>
			<path class="st8" d="M104.7,78.8c0.2,0.7-0.1,1.3,0,1.6"/>
			<path class="st8" d="M103.2,79c0.1,0.3,0.6,0.5,0.7,0.9"/>
			<path class="st8" d="M100,80.7c0.5-0.3,1.1-0.3,1.5-0.3"/>
			<path class="st8" d="M96,73.4c0.1,0.7,0.5,1,0.4,1.5"/>
			<path class="st8" d="M96.3,80c0.4,0.2,1.2-0.1,1.8,0.2"/>
			<path class="st8" d="M96.2,64.7c0,0.4-0.3,0.7-0.3,1.2"/>
			<path class="st8" d="M95.5,65.4c0.2,0.5,0.2,0.9,0.1,1.3"/>
			<path class="st8" d="M95.4,68.7c-0.1-0.1-0.2-0.2-0.4-0.3"/>
			<path class="st8" d="M96.1,70.4c-0.4-0.4-1.1-0.6-1.5-0.8"/>
			<path class="st8" d="M96.8,70.2c0.2-0.5,0.3-1.1,0.2-1.5c0-0.4,0-0.6,0.1-0.9"/>
			<path class="st8" d="M96.8,71.5c-0.1-0.7,0.3-1.3,1.2-2.2c0.4-0.4,0.4-1.2,0.2-2"/>
			<path class="st8" d="M96.4,70.9c0.1,0.1,0.1,0.3,0.1,0.4"/>
			<path class="st8" d="M93.8,72.7c0-0.3,0.2-0.6,0.3-0.9"/>
			<path class="st8" d="M96.1,76C96.1,76,96.1,76.1,96.1,76"/>
			<path class="st8" d="M97.3,72.3c-0.2-0.8-1.2-1.1-1.3-1.4c-0.1,0.2-0.1,0.4-0.1,0.6"/>
			<path class="st8" d="M98.7,71.8c0,0.4-0.1,0.7-0.4,1c-0.6,0.7-1.1,0.9-1.4,2"/>
			<path class="st8" d="M97,73.6c0.2-0.5,0.3-0.9,0.3-1.2c0-0.2,0-0.4,0.1-0.5"/>
			<path class="st8" d="M96.7,74.2c0.1,0.3,0,0.8-0.1,1.2"/>
			<path class="st8" d="M96.7,76.7c0,0,0-0.1,0-0.1"/>
			<path class="st8" d="M98,75c0,0.4-0.2,0.7-0.5,0.9C97,76.4,96.9,76.7,97,77"/>
			<path class="st8" d="M96.4,77.2c-0.2-0.4-0.4-0.6-0.6-0.7"/>
			<path class="st8" d="M95.9,77.6c-0.1-0.1-0.2-0.1-0.3-0.2"/>
			<path class="st8" d="M96.4,77.3c-0.5,0.4-0.9,0.4-1.3,0.5c-0.2,0-0.5,0.1-0.8,0.3"/>
			<path class="st8" d="M96.7,77.5c-0.3,0.1-0.6,0.8-1.2,1.3c-0.3,0.3-0.9,0.4-1.4,0.4"/>
			<path class="st8" d="M97.1,77.6c0-0.2,0.1-0.4,0.2-0.5"/>
			<path class="st8" d="M96.9,78.6C97,78.4,97,78.2,97,78"/>
			<path class="st8" d="M97.6,79.6c0.3,0,0.6,0.1,0.8,0.3c0.1,0.1,0.1,0.1,0.2,0.2"/>
			<path class="st8" d="M99.3,80.5c0.1,0,0.2,0,0.2,0"/>
			<path class="st8" d="M97.7,79.4c-0.3-0.5-0.4-1-0.4-1.5"/>
			<path class="st8" d="M95.7,81.6c0.3,0,0.6,0.1,0.8,0.1c0.5,0,1.4-0.2,1.8-1"/>
			<path class="st8" d="M96.3,80.3c0.7,0.5,1.7,0.5,2.7,0.4"/>
			<path class="st8" d="M98.6,80.9c0,0,0.1,0,0.1,0.1"/>
			<path class="st8" d="M99.7,80.1c0.2-0.3,0.2-0.8,0.1-1.2c-0.1-0.3,0-0.9,0.1-1.4"/>
			<path class="st8" d="M100.1,80.1c0.3-0.4,0.4-0.6,0.5-1.2c0-0.2,0.1-0.5,0.2-0.7"/>
			<path class="st8" d="M99.7,80.6c0.1-0.2,0.4-0.4,0.6-0.5"/>
			<path class="st8" d="M100.6,80.9c-0.1,0-0.1,0-0.2,0"/>
			<path class="st8" d="M103.7,81.3c-0.5,0-0.8,0.1-1.3,0.3"/>
			<path class="st8" d="M104.3,81.2c0-1.1-0.8-1.7-1.3-1.8"/>
			<path class="st8" d="M103.1,81.1c0.6,0,1.2,0.3,1.8,0.7"/>
			<path class="st8" d="M104,79.5c0.3,0.3,0.6,0.8,0.3,1.6"/>
			<path class="st8" d="M94.8,72.3c0.2,0.3,0.2,0.9,0.1,1.4c-0.1,0.5-0.1,0.7,0,0.9"/>
			<path class="st8" d="M103.6,81.2c-0.4-0.1-0.8-0.2-1.2-0.3"/>
			<path class="st8" d="M100.3,80.1c-0.3,0.1-0.5,0.2-0.6,0.4"/>
			<path class="st12" d="M98.9,67c-0.4,0.7-0.1,1.7-0.7,2.4c-0.6,0.7-1.1,1.1-1.1,2.2"/>
		</g>
	</g>
	<g>
		<path class="st11" d="M105.3,84.1c-0.4,0-0.8,0.1-1.1,0.2c0,0.2,0.1,0.9,0.1,1.1c0.2-0.1,0.7-0.3,1-0.3V84.1z"/>
		<path class="st11" d="M106.8,84.1c-1-0.4-1.6-0.2-1.6,0.1c0,0.3,0,0.7,0,0.9c0,0.2,0.3,0.3,1.6,0V84.1z"/>
		<path class="st8" d="M106.8,85.1c-1.1-0.3-1.6-0.3-1.6-0.1"/>
		<path class="st11" d="M109,84.1c0.4,0,0.8,0.1,1.1,0.2c0,0.2-0.1,0.9-0.1,1.1c-0.2-0.1-0.7-0.3-1-0.3V84.1z"/>
		<path class="st11" d="M107.5,84.1c1-0.4,1.6-0.2,1.6,0.1c0,0.3,0,0.7,0,0.9c0,0.2-0.3,0.3-1.6,0V84.1z"/>
		<path class="st8" d="M107.5,85.1c1.1-0.3,1.6-0.3,1.6-0.1"/>
		<path class="st11" d="M107.1,84c0.5,0,0.6,0.1,0.6,0.6c0,0.5-0.1,0.6-0.6,0.6s-0.6-0.1-0.6-0.6C106.5,84.1,106.7,84,107.1,84z"/>
	</g>
	<g>
		<g>
			<path class="st12" d="M93.8,85.2c-0.2,0.1-0.4,0.5-0.5,0.7"/>
			<path class="st12" d="M94,85.3c-0.2,0.1-0.4,0.5-0.5,0.7"/>
			<path class="st12" d="M94.1,85.5c-0.2,0.1-0.4,0.5-0.5,0.7"/>
			<path class="st12" d="M94.3,85.6c-0.2,0.1-0.4,0.5-0.5,0.8"/>
			<path class="st12" d="M94.4,85.8c-0.2,0.1-0.4,0.5-0.5,0.8"/>
			<path class="st12" d="M94.6,86c-0.2,0.1-0.4,0.5-0.6,0.8"/>
			<path class="st12" d="M94.8,86.1c-0.2,0.2-0.4,0.5-0.6,0.8"/>
			<path class="st12" d="M94.9,86.3c-0.2,0.2-0.4,0.5-0.6,0.8"/>
			<path class="st12" d="M95.1,86.4c-0.2,0.2-0.4,0.5-0.6,0.8"/>
			<path class="st12" d="M95.2,86.6c-0.2,0.2-0.4,0.5-0.6,0.8"/>
		</g>
		<g>
			<path class="st12" d="M120.4,85.2c0.2,0.1,0.4,0.5,0.5,0.7"/>
			<path class="st12" d="M120.3,85.3c0.2,0.1,0.4,0.5,0.5,0.7"/>
			<path class="st12" d="M120.1,85.5c0.2,0.1,0.4,0.5,0.5,0.7"/>
			<path class="st12" d="M120,85.6c0.2,0.1,0.4,0.5,0.5,0.8"/>
			<path class="st12" d="M119.8,85.8c0.2,0.1,0.4,0.5,0.5,0.8"/>
			<path class="st12" d="M119.7,86c0.2,0.1,0.4,0.5,0.6,0.8"/>
			<path class="st12" d="M119.5,86.1c0.2,0.2,0.4,0.5,0.6,0.8"/>
			<path class="st12" d="M119.4,86.3c0.2,0.2,0.4,0.5,0.6,0.8"/>
			<path class="st12" d="M119.2,86.4c0.2,0.2,0.4,0.5,0.6,0.8"/>
			<path class="st12" d="M119.1,86.6c0.2,0.2,0.4,0.5,0.6,0.8"/>
		</g>
		<path class="st11" d="M107.1,83.2c2.7,0,4.8,0.2,6.5,0.5c-0.2,0.2-0.4,0.4-0.5,0.5c-0.2,0.1-0.1,0.5,0.2,0.8
			c0.3,0.3,1.2,0.6,2.1,0.2c0.2-0.1,0.3-0.1,0.5-0.2c-0.2,0.2-0.4,0.5-0.3,0.7c0.5,1.1,2.4-0.3,3.6,1.1c0.3-0.4,1.1-1.2,1.4-1.5
			c-0.7-0.8-1.6-0.7-2.3-0.6c0.3-0.5,0.3-0.8-0.3-1.2c-0.2-0.2-1.1-0.1-1.9,0.2c0.1-0.4,0.1-1-1.1-1.5c-1.8-0.8-5-1-7.8-1
			c-2.9,0-6,0.2-7.8,1c-1.2,0.5-1.2,1.1-1.1,1.5c-0.8-0.4-1.6-0.4-1.9-0.2c-0.6,0.4-0.6,0.8-0.3,1.2c-0.8-0.1-1.7-0.2-2.3,0.6
			c0.3,0.3,1.1,1.1,1.4,1.5c1.2-1.4,3.1,0.1,3.6-1.1c0.1-0.2-0.1-0.5-0.3-0.7c0.2,0.1,0.3,0.1,0.5,0.2c0.8,0.4,1.7,0.1,2.1-0.2
			c0.3-0.3,0.4-0.7,0.2-0.8c-0.1-0.1-0.3-0.3-0.5-0.5C102.3,83.3,104.5,83.2,107.1,83.2z"/>
		<path class="st8" d="M100.6,83.7c-0.1,0-0.3,0.1-0.4,0.1c-0.8,0.2-1.7,0.9-0.9,0.9"/>
		<path class="st8" d="M98.7,85.7c0.1-0.3-0.2-0.4-0.6-0.3c-0.3,0.1-0.7,0.1-1.1,0.1c-0.6,0-0.8-0.6-0.5-0.9c0.3-0.3,1,0,1.8,0.4"/>
		<path class="st8" d="M101.2,84.2c-0.2-0.1-0.5-0.1-0.7,0.1c-0.3,0.2-0.7,0.4-1.1,0.5c-0.4,0-0.6-0.4-1-0.9c0-0.1-0.1-0.1-0.1-0.2"
			/>
		<path class="st8" d="M96.1,84.6c0.1,0.2,0.3,0.4,0.4,0.6"/>
		<path class="st8" d="M113.6,83.7c0.1,0,0.3,0.1,0.4,0.1c0.8,0.2,1.7,0.9,0.9,0.9"/>
		<path class="st8" d="M115.6,85.7c-0.1-0.3,0.2-0.4,0.6-0.3c0.3,0.1,0.7,0.1,1.1,0.1c0.6,0,0.8-0.6,0.5-0.9c-0.3-0.3-1,0-1.8,0.4"
			/>
		<path class="st8" d="M113.1,84.2c0.2-0.1,0.5-0.1,0.7,0.1c0.3,0.2,0.7,0.4,1.1,0.5c0.4,0,0.6-0.4,1-0.9c0-0.1,0.1-0.1,0.1-0.2"/>
		<path class="st8" d="M118.2,84.6c-0.1,0.2-0.3,0.4-0.4,0.6"/>
	</g>
	<g>
		<g>
			<path class="st7" d="M107.1,81.7c0.1,0,0.2,0,0.4,0c0.1,0,0.4,0,0.4,0.5c0,0.3-0.1,0.6-0.3,0.6c-0.2,0-0.4,0-0.4,0v-0.6h0.2v0.4
				c0,0,0.1,0,0.2,0c0.1,0,0.2,0,0.2-0.4c0-0.3-0.2-0.3-0.2-0.3c0,0-0.2,0-0.2,0v0.3h-0.2V81.7z"/>
		</g>
		<g>
			<path class="st7" d="M108.4,82.6c-0.2,0-0.2-0.2-0.2-0.4c0-0.2,0.1-0.4,0.2-0.4c0.2,0,0.2,0.2,0.2,0.4
				C108.7,82.4,108.6,82.6,108.4,82.6v0.2c0.3,0,0.4-0.2,0.4-0.6c0-0.4-0.2-0.6-0.4-0.6c-0.3,0-0.4,0.2-0.4,0.6
				c0,0.4,0.2,0.6,0.4,0.6V82.6z"/>
		</g>
		<g>
			<polygon class="st7" points="109.5,82.8 109.7,81.9 109.7,82.8 109.8,82.8 109.9,81.7 109.6,81.7 109.4,82.5 109.3,81.7 
				109,81.7 109,82.8 109.1,82.8 109.2,81.9 109.3,82.8 			"/>
		</g>
		<g>
			
				<rect x="109.6" y="82.2" transform="matrix(3.905666e-02 -0.9992 0.9992 3.905666e-02 23.6209 189.0779)" class="st7" width="1.1" height="0.2"/>
		</g>
		<g>
			<polygon class="st7" points="110.6,81.7 110.9,82.5 111,81.8 111.2,81.8 111.1,82.9 110.9,82.9 110.6,82.1 110.5,82.8 
				110.3,82.8 110.4,81.7 			"/>
		</g>
		<g>
			
				<rect x="110.8" y="82.3" transform="matrix(8.288128e-02 -0.9966 0.9966 8.288128e-02 20.0907 186.5222)" class="st7" width="1.1" height="0.2"/>
		</g>
		<g>
			<path class="st7" d="M112.5,82.3c0-0.2-0.1-0.4-0.3-0.4c-0.2,0-0.4,0.2-0.5,0.5c0,0.4,0.1,0.6,0.3,0.6c0.2,0,0.4-0.1,0.4-0.4
				l-0.2,0c0,0.1-0.1,0.2-0.2,0.2c-0.1,0-0.2-0.2-0.2-0.4c0-0.2,0.1-0.4,0.3-0.4c0.2,0,0.2,0.2,0.2,0.2L112.5,82.3z"/>
		</g>
		<g>
			<polygon class="st7" points="113,82.9 113,83.1 113.2,83.1 113.1,82 112.9,82 112.4,83 112.6,83 112.7,82.8 112.8,82.9 
				112.8,82.7 112.7,82.7 112.9,82.2 113,82.7 112.8,82.7 112.8,82.9 			"/>
		</g>
		<g>
			<polygon class="st7" points="113.7,82.1 113.9,82.9 114.1,82.2 114.3,82.3 114,83.3 113.8,83.3 113.7,82.4 113.5,83.2 
				113.3,83.2 113.6,82.1 			"/>
		</g>
		<g>
			<polygon class="st7" points="114.7,83.4 114.7,83.6 114.8,83.7 115,82.5 114.8,82.4 114.1,83.4 114.3,83.4 114.4,83.2 
				114.5,83.3 114.6,83.1 114.5,83.1 114.8,82.7 114.7,83.2 114.6,83.1 114.5,83.3 			"/>
		</g>
		<g>
			<path class="st7" d="M99,82.6l0.1,0.3l0.2-0.1l0-0.1c0,0,0.2-0.1,0.2-0.1c0.1,0,0.1,0,0.2,0.1c0,0.1,0,0.2,0,0.2
				c-0.1,0-0.2,0.1-0.2,0.1l-0.1-0.2l-0.2,0.1l0.3,0.7l0.2-0.1l-0.2-0.4c0,0,0.1,0,0.2-0.1c0.1,0,0.2,0,0.2,0.1
				c0.1,0.1,0.1,0.2,0.1,0.2l0.2-0.1c0,0-0.1-0.2-0.1-0.3c-0.1-0.1-0.1-0.2-0.2-0.2c0,0,0.1-0.2,0-0.3s-0.2-0.3-0.3-0.2
				C99.4,82.5,99,82.6,99,82.6z"/>
		</g>
		<g>
			<path class="st7" d="M100.9,82l0.1,0.4l0.2,0l0-0.2c0,0,0.1,0,0.2,0c0.1,0,0.2,0,0.2,0.1c0,0.1,0,0.2-0.1,0.2c-0.1,0-0.2,0-0.2,0
				l0-0.1l-0.2,0l0.1,0.7l0.2,0l-0.1-0.4c0,0,0.1,0,0.2,0c0.2,0,0.2-0.2,0.2-0.4c0-0.2-0.2-0.3-0.3-0.3C101.1,82,100.9,82,100.9,82z
				"/>
		</g>
		<g>
			<path class="st7" d="M102.2,82.8c0.1,0,0.2-0.1,0.1-0.2c0-0.1-0.1-0.8-0.1-0.8l0.2,0c0,0,0.1,0.6,0.1,0.7c0,0.2,0,0.4-0.3,0.4
				c-0.3,0-0.4-0.2-0.4-0.3c0-0.1-0.1-0.7-0.1-0.7l0.2,0c0,0,0.1,0.7,0.1,0.8C102.1,82.7,102.1,82.8,102.2,82.8z"/>
		</g>
		<g>
			<path class="st7" d="M102.8,82.9c0,0,0.3,0,0.4,0c0.2,0,0.3-0.2,0.3-0.4c0-0.1-0.1-0.2-0.1-0.3c0.1-0.1,0.1-0.2,0.1-0.2
				c0-0.2-0.2-0.3-0.4-0.2c-0.3,0-0.4,0-0.4,0l0,0.3l0.2,0l0-0.1c0,0,0.2,0,0.2,0c0.1,0,0.1,0.1,0.1,0.1c0,0,0,0.1-0.1,0.1
				c-0.1,0-0.2,0-0.2,0l0-0.1l-0.2,0l0,0.4l0.2,0l0-0.1c0,0,0.2,0,0.2,0c0.1,0,0.1,0,0.1,0.1c0,0.1,0,0.2-0.1,0.2
				c-0.1,0-0.2,0-0.2,0l0-0.2l-0.2,0L102.8,82.9z"/>
		</g>
		<g>
			<polygon class="st7" points="103.6,81.7 103.7,82.8 104.3,82.8 104.3,82.6 103.9,82.6 103.8,81.7 			"/>
		</g>
		<g>
			
				<rect x="104.4" y="81.7" transform="matrix(0.9987 -5.131854e-02 5.131854e-02 0.9987 -4.0829 5.4717)" class="st7" width="0.2" height="1.1"/>
		</g>
		<g>
			<path class="st7" d="M105.6,82c0-0.2-0.1-0.4-0.4-0.4c-0.2,0-0.4,0.2-0.4,0.6c0,0.4,0.2,0.6,0.4,0.6c0.2,0,0.4-0.2,0.4-0.4
				l-0.2,0c0,0.1-0.1,0.2-0.2,0.2c-0.1,0-0.2-0.2-0.2-0.4c0-0.2,0.1-0.4,0.2-0.4c0.2,0,0.2,0.1,0.2,0.2L105.6,82z"/>
		</g>
		<g>
			<polygon class="st7" points="106.2,82.5 106.3,82.8 106.4,82.8 106.1,81.7 105.9,81.7 105.6,82.8 105.8,82.8 105.9,82.5 
				106,82.5 106,82.4 105.9,82.4 106,81.9 106.2,82.4 106,82.4 106,82.5 			"/>
		</g>
		<g>
			<polygon class="st7" points="100.7,82.1 100,82.3 100.3,83.3 100.9,83.2 100.9,83 100.4,83.1 100.3,82.8 100.8,82.7 100.7,82.5 
				100.3,82.6 100.2,82.4 100.7,82.3 			"/>
		</g>
	</g>
	<g>
		<path class="st11" d="M95,68.4c0.4,0,0.4-0.6,0-0.6c-0.3,0-0.4,0.3-0.3,0.5C94.8,68.3,94.9,68.4,95,68.4z"/>
		<path class="st11" d="M95.5,68.9c0.4,0,0.4-0.6,0-0.6c-0.2,0-0.3,0.1-0.3,0.3C95.3,68.7,95.5,68.8,95.5,68.9z"/>
		<path class="st11" d="M97.7,71.4c0-0.1-0.1-0.1-0.3-0.1c-0.4,0-0.4,0.6,0,0.6C97.4,71.7,97.6,71.5,97.7,71.4z"/>
		<path class="st11" d="M96.8,71.5c0.4-0.1,0.3-0.7-0.1-0.6c-0.1,0-0.2,0.1-0.2,0.1c0.1,0.1,0.1,0.3,0.1,0.4
			C96.6,71.4,96.7,71.5,96.8,71.5z"/>
		<g>
			<path class="st11" d="M95.1,75.2c-0.4,0-0.4,0.6,0,0.6C95.5,75.8,95.5,75.2,95.1,75.2z"/>
		</g>
		<path class="st11" d="M97.7,79.6c0.3-0.3-0.1-0.8-0.4-0.5c-0.2,0.1-0.1,0.3,0,0.5C97.4,79.6,97.6,79.6,97.7,79.6z"/>
		<path class="st11" d="M99.3,80.5c0.3-0.2,0-0.8-0.4-0.5c-0.1,0.1-0.2,0.2-0.1,0.3C98.9,80.3,99.1,80.4,99.3,80.5z"/>
		<path class="st11" d="M96.6,76.6c-0.4,0.1-0.6-0.5-0.2-0.6c0.1,0,0.2,0,0.2,0C96.7,76.1,96.6,76.4,96.6,76.6z"/>
		<path class="st11" d="M102.8,81c0.3-0.3-0.1-0.7-0.4-0.4c-0.1,0.1-0.1,0.3-0.1,0.4C102.4,81,102.7,81,102.8,81z"/>
		<path class="st11" d="M100.2,80.1c0-0.1-0.1-0.2-0.2-0.2c-0.4-0.2-0.7,0.3-0.3,0.6C99.8,80.4,100,80.2,100.2,80.1z"/>
	</g>
</g>
</svg>
