<?xml version="1.0" encoding="utf-8"?>
<!-- Generator: Adobe Illustrator 22.1.0, SVG Export Plug-In . SVG Version: 6.00 Build 0)  -->
<svg version="1.1" id="layer_1" xmlns="http://www.w3.org/2000/svg" xmlns:xlink="http://www.w3.org/1999/xlink" x="0px" y="0px"
	 viewBox="0 0 216 144" style="enable-background:new 0 0 216 144;" xml:space="preserve">
<style type="text/css">
	.st0{fill:#FFFFFF;}
	.st1{fill:#739282;}
	.st2{fill:#AF424C;stroke:#000000;stroke-width:0.125;}
</style>
<rect x="108.4" y="0.5" class="st0" width="108.1" height="144"/>
<rect x="0.5" y="0.5" class="st1" width="108" height="144"/>
<g>
	<path class="st2" d="M138.9,91.5c-6.3,10.1-17.6,16.8-30.4,16.8c-19.8,0-35.8-16-35.8-35.8c0-19.8,16-35.8,35.8-35.8
		c12.8,0,24.1,6.7,30.4,16.8c-5-5.2-12-8.4-19.7-8.4c-15.1,0-27.4,12.3-27.4,27.4c0,15.1,12.3,27.4,27.4,27.4
		C126.9,99.9,133.9,96.6,138.9,91.5z"/>
	<polygon class="st2" points="128.6,55.8 121.2,66.1 109,62.2 116.6,72.6 109.1,82.9 121.2,78.9 128.8,89.3 128.7,76.4 140.9,72.5 
		128.7,68.6 	"/>
</g>
</svg>
