<?xml version="1.0" encoding="utf-8"?>
<!-- Generator: Adobe Illustrator 22.1.0, SVG Export Plug-In . SVG Version: 6.00 Build 0)  -->
<svg version="1.1" id="layer_1" xmlns="http://www.w3.org/2000/svg" xmlns:xlink="http://www.w3.org/1999/xlink" x="0px" y="0px"
	 viewBox="0 0 216 144" style="enable-background:new 0 0 216 144;" xml:space="preserve">
<style type="text/css">
	.st0{fill:#D24D5C;}
	.st1{fill:#4A7FC0;}
	.st2{fill:#FDE570;}
	.st3{fill:#626758;stroke:#000000;stroke-width:0.125;}
	.st4{fill:#ECECEC;stroke:#000000;stroke-width:0.125;}
	.st5{fill:#FDE570;stroke:#000000;stroke-width:0.125;}
	.st6{fill:#4A7FC0;stroke:#000000;stroke-width:0.125;}
	.st7{fill:#D24D5C;stroke:#000000;stroke-width:0.125;}
	.st8{fill:none;stroke:#000000;stroke-width:0.125;}
	.st9{fill:#AACDEF;stroke:#000000;stroke-width:0.125;}
	.st10{fill:#FFFFFF;stroke:#000000;stroke-width:0.125;}
	.st11{fill:#E1EFE9;stroke:#000000;stroke-width:0.125;}
	.st12{fill:#ADD9F8;}
	.st13{fill:none;stroke:#000000;stroke-width:0.5;}
	.st14{fill:#C5D7E3;stroke:#FDE570;}
	.st15{fill:#C7C740;stroke:#000000;stroke-width:0.125;}
	.st16{fill:#397C53;stroke:#000000;stroke-width:0.125;}
	.st17{fill:#FAE5BA;stroke:#000000;stroke-width:0.125;}
	.st18{fill:#877052;stroke:#000000;stroke-width:6.300000e-02;}
	.st19{fill:none;stroke:#000000;stroke-width:3.100000e-02;}
	.st20{fill:none;stroke:#000000;stroke-width:6.200000e-02;}
	.st21{fill:#877052;stroke:#000000;stroke-width:3.120000e-02;}
	.st22{fill:#FDE570;stroke:#000000;stroke-width:6.300000e-02;}
	.st23{fill:#D24D5C;stroke:#000000;stroke-width:6.300000e-02;}
	.st24{fill:#4A7FC0;stroke:#000000;stroke-width:6.300000e-02;}
	.st25{fill:#ADD9F8;stroke:#FDE570;stroke-width:0.125;}
</style>
<rect y="108.5" class="st0" width="216" height="36"/>
<rect y="72.5" class="st1" width="216" height="36"/>
<rect y="0.5" class="st2" width="216" height="72"/>
<g>
	<g>
		<g>
			<g>
				<polygon class="st3" points="132,47.9 79.6,93.5 80.2,94.2 132.6,48.6 				"/>
				<polygon class="st3" points="135.3,57.1 85.8,99.2 86.4,99.9 136,57.8 				"/>
			</g>
			<g>
				<polygon class="st3" points="83,47.9 135.4,93.5 134.8,94.2 82.4,48.6 				"/>
				<polygon class="st3" points="79.7,57.1 129.2,99.2 128.6,99.9 79,57.8 				"/>
			</g>
		</g>
		<g>
			<polygon class="st4" points="85.8,99.2 85.7,99.6 85.3,99.5 83.7,101.6 86,100.3 86,99.9 86.4,99.9 			"/>
			<polygon class="st4" points="79.6,93.5 79.5,94 79.1,93.9 77.5,96 79.8,94.7 79.8,94.3 80.2,94.2 			"/>
			<path class="st4" d="M136,57.8l0.8-0.2l0.3-0.7c0.2,0.3,0,1.4-0.4,1.7c0.6,0.2,1.6,0,2.1-0.4c0.5-0.4,0.8-1.4,0.7-2
				c-0.4,0.3-1.4,0.4-1.7,0.1c0.3-0.2,1.5-0.6,1.9-0.7c0.2-0.8,0.9-2.1,1.4-2.8c-0.8,0.4-2.1,0.9-2.9,0.9c-0.2,0.5-0.8,1.5-1,1.8
				l-0.4-0.4l-0.7-0.1l0,0.7l0.4,0.4l-0.8,0.2l-0.3,0.7L136,57.8z"/>
			<path class="st4" d="M132.6,48.6c0.6-0.5,1.9-1.1,2.4-1.1c0.2-0.8,0.8-2.1,1.3-2.8c-0.8,0.4-2.1,0.9-2.9,0.9
				c-0.1,0.5-0.9,1.7-1.5,2.2L132.6,48.6z"/>
			<path class="st4" d="M132,48.5c0.6,0.7,1.7,0.7,2.3-0.2c-0.5,0.3-1.2,0.4-1.7-0.2c-0.5-0.6-0.4-1.3,0-1.8
				C131.6,46.7,131.4,47.7,132,48.5z"/>
			<polygon class="st4" points="129.2,99.2 129.3,99.6 129.7,99.5 131.3,101.6 129,100.3 129,99.9 128.6,99.9 			"/>
			<polygon class="st4" points="135.4,93.5 135.5,94 135.9,93.9 137.5,96 135.2,94.7 135.2,94.3 134.8,94.2 			"/>
			<path class="st4" d="M79,57.8l-0.8-0.2L78,56.9c-0.2,0.3,0,1.4,0.4,1.7c-0.6,0.2-1.6,0-2.1-0.4c-0.5-0.4-0.8-1.4-0.7-2
				c0.4,0.3,1.4,0.4,1.7,0.1c-0.3-0.2-1.4-0.6-1.9-0.7c-0.2-0.8-0.9-2.1-1.4-2.8c0.8,0.4,2.1,0.9,2.9,0.9c0.2,0.5,0.8,1.5,1,1.8
				l0.4-0.4l0.7-0.1l0,0.7l-0.4,0.4l0.8,0.2l0.3,0.7L79,57.8z"/>
			<path class="st4" d="M82.4,48.6c-0.6-0.5-1.9-1.1-2.4-1.1c-0.2-0.8-0.8-2.1-1.3-2.8c0.8,0.4,2.1,0.9,2.9,0.9
				c0.1,0.5,0.9,1.7,1.5,2.2L82.4,48.6z"/>
			<path class="st4" d="M83,48.5c-0.6,0.7-1.7,0.7-2.3-0.2c0.5,0.3,1.2,0.4,1.7-0.2s0.4-1.3,0-1.8C83.4,46.7,83.6,47.7,83,48.5z"/>
		</g>
	</g>
	<g>
		<g>
			<path class="st5" d="M99.4,93.8c-0.1,1.7-1.3,5.6-1.9,6.6c-0.6,1-0.7,1.6,2.2,1.4c-0.6,1.4-0.5,2.7,0.1,3.1
				c-0.8-0.6,0.3-1.5,1.6-2.4c1.3-0.9,1.3-4.2,1.3-6.7L99.4,93.8z"/>
			<path class="st5" d="M115.6,93.8c0.1,1.7,1.3,5.6,1.9,6.6c0.6,1,0.7,1.6-2.2,1.4c0.6,1.4,0.5,2.7-0.1,3.1
				c0.8-0.6-0.3-1.5-1.6-2.4c-1.3-0.9-1.3-4.2-1.3-6.7L115.6,93.8z"/>
		</g>
		<g>
			<path class="st5" d="M130.4,63.6l-10,7.9l-2.5-11.3l12.9-11.3C130.8,54.3,130.9,60.9,130.4,63.6z"/>
			<path class="st5" d="M84.6,63.6l10,7.9l2.5-11.3L84.2,48.9C84.2,54.3,84.1,60.9,84.6,63.6z"/>
			<path class="st5" d="M107.5,88.8c-1.6,3.5-7.1,6.4-13.4,8.4c-2.3,0.7-5.5,0.3-7.4-1.3c-8.5-6.9-6.8-25.9-6.8-38.8l27.6,23.5
				l27.6-23.5c0,12.8,1.7,31.8-6.8,38.8c-1.9,1.6-5.1,2-7.4,1.3C114.6,95.2,109.1,92.4,107.5,88.8z"/>
		</g>
	</g>
	<g>
		<path class="st6" d="M102.7,95.9c0,2.5,0,5.8-1.3,6.7c-1.3,0.9-2.4,1.7-1.6,2.4c0.3,0.2,0.8,0.2,1.5-0.2c0.5-0.3,0.9-0.6,1.3-0.8
			c0,1.2-0.7,2.5,1.1,2.7c-1.4-0.1-1.1-0.9-0.1-1.5c0.5-0.3,0.9-0.6,1.2-0.9c0.5-0.5,0.7-1.2,0.6-2.6c-0.1-1.4-0.4-4.2-0.2-5.9
			L102.7,95.9z"/>
		<path class="st6" d="M112.3,95.9c0,2.5,0,5.8,1.3,6.7c1.3,0.9,2.4,1.7,1.6,2.4c-0.3,0.2-0.8,0.2-1.5-0.2c-0.5-0.3-0.9-0.6-1.3-0.8
			c0,1.2,0.7,2.5-1.1,2.7c1.4-0.1,1.1-0.9,0.1-1.5c-0.5-0.3-0.9-0.6-1.2-0.9c-0.5-0.5-0.7-1.2-0.6-2.6c0.1-1.4,0.4-4.2,0.2-5.9
			L112.3,95.9z"/>
		<path class="st6" d="M126.7,66c0.6-2.5-0.4-11-0.4-13.2l-8.3,7.2l2.4,11L126.7,66z"/>
		<path class="st6" d="M88.3,66c-0.6-2.5,0.4-11,0.4-13.2l8.3,7.2l-2.4,11L88.3,66z"/>
		<path class="st6" d="M113.6,94.3c4.6,1.6,10.9-0.6,11.7-3.5c0.7-2.5,2.9-2.6,2.7-4.7c-0.2-2.1,0.8-2.5,0.5-5.3
			c-0.3-2.5,1.1-3.5,0.5-5.7c-0.6-2.2,1.3-3.8,0.5-6.8c-0.7-2.4,1.2-3.5,0-6.2l-10,8.5c-0.3,4.2-9.3,17.3-11.6,19.1
			C109.2,91.5,111.4,93.1,113.6,94.3z"/>
		<path class="st6" d="M101.4,94.3c-4.6,1.6-10.9-0.6-11.7-3.5c-0.7-2.5-2.9-2.6-2.7-4.7c0.2-2.1-0.8-2.5-0.5-5.3
			c0.3-2.5-1.1-3.5-0.5-5.7c0.6-2.2-1.3-3.8-0.5-6.8c0.7-2.4-1.2-3.5,0-6.2l10,8.5c0.3,4.2,9.3,17.3,11.6,19.1
			C105.8,91.5,103.6,93.1,101.4,94.3z"/>
	</g>
	<g>
		<path class="st7" d="M109.7,95.7c0.2,1.7-0.1,4.5-0.2,5.9c-0.1,1.4,0.1,2.2,0.6,2.6c0.3,0.3,0.7,0.6,1.2,0.9
			c1,0.7,1.3,1.4-0.1,1.5c-0.6,0.1-3.8,0.5-3.8-0.6c0,1.1-3.2,0.7-3.8,0.6c-1.4-0.1-1.1-0.9-0.1-1.5c0.5-0.3,0.9-0.6,1.2-0.9
			c0.5-0.5,0.7-1.2,0.6-2.6c-0.1-1.4-0.4-4.2-0.2-5.9H109.7z"/>
		<path class="st7" d="M123.4,68.9c0.6-2.5-0.4-11-0.4-13.2l-4.9,4.3l2.5,10.7L123.4,68.9z"/>
		<path class="st7" d="M91.6,68.9C91,66.4,92,57.8,92,55.7l4.9,4.3l-2.5,10.7L91.6,68.9z"/>
		<path class="st7" d="M109.9,91.8c5.9,2.6,11.5-1.3,11.8-3.3c0.3-1.8,2.9-2.4,2.4-4.1c-0.5-1.7,1.3-2.4,0.8-4
			c-0.5-1.6,1.4-3.4,0.9-5.4c-0.5-2,1.1-3.3,0.4-4.9c-0.7-1.6,0.7-3-0.4-5l-6,5.1c-0.2,5.3-6.5,18.5-11.8,19.6
			C108.5,90.5,109.4,91.4,109.9,91.8z"/>
		<path class="st7" d="M105.1,91.8c-5.9,2.6-11.5-1.3-11.8-3.3c-0.3-1.8-2.9-2.4-2.4-4.1c0.5-1.7-1.3-2.4-0.8-4
			c0.5-1.6-1.4-3.4-0.9-5.4c0.5-2-1.1-3.3-0.4-4.9c0.7-1.6-0.7-3,0.4-5l6,5.1c0.2,5.3,6.5,18.5,11.8,19.6
			C106.5,90.5,105.6,91.4,105.1,91.8z"/>
	</g>
	<g>
		<g>
			<path class="st8" d="M102.6,103.9c1.2-0.7,2.1-1.1,2.5-0.6c0.2,0.3,0.1,0.6-0.2,0.9"/>
			<path class="st8" d="M99.7,101.9c0.6,0,2.5,0,1.9,0.5"/>
		</g>
		<g>
			<path class="st8" d="M112.4,103.9c-1.2-0.7-2.1-1.1-2.5-0.6c-0.2,0.3-0.1,0.6,0.2,0.9"/>
			<path class="st8" d="M115.3,101.9c-0.6,0-2.5,0-1.9,0.5"/>
		</g>
		<line class="st8" x1="107.5" y1="106" x2="107.5" y2="96"/>
	</g>
	<g>
		<g>
			<path class="st9" d="M107.5,88.4c-5.9,0-13-4.5-13-17.9c0-13.4,7.2-17.9,13-17.9s13,4.5,13,17.9
				C120.5,83.9,113.4,88.4,107.5,88.4z"/>
		</g>
		<path class="st10" d="M120.4,73.5c0.1-0.6,0.1-1.3,0.1-2c-0.8-0.7-2.6-0.9-4.6-0.7c-2,0.2-4.8-2-6-3.2l-0.4-0.1
			c-0.5-0.5-1.5-1.8-1.9-2.2c-0.4-0.4-0.8-0.5-1.2-0.2c-0.3-0.4-1.1-1.2-1.4-1.4c-0.3,0.2-1.3-0.1-2.3,0.5c-0.8-0.5-2.8-1.1-3.8-1.4
			c-1.1,1.3-3.2,2.6-4.1,3.3c-0.2,1.3-0.3,2.8-0.3,4.3c0,1,0,2,0.1,3c0.6-0.3,1.2-0.4,1.8-0.2c0.6,0.2,2.4,0.2,2.9,0.1
			c0.5-0.1,1,0.1,1.4,0.2c0.4,0.1,1,0.1,1.5,0c0.5-0.1,1.6-0.3,2.3-0.1c1.2,0.2,4.5-0.6,5.9-0.4C111.6,73.3,117.6,73.5,120.4,73.5"
			/>
		<path class="st11" d="M120.4,73.5c-0.2,2.6-0.8,4.8-1.6,6.7c-0.3-0.1-0.6-0.2-1.1-0.1c-0.5,0-0.6-0.1-0.5-0.3
			c0.2-0.2,0.1-0.3,0-0.5c-0.2-0.3-1-0.3-1.7-0.2c-0.7,0.1-1.5-0.1-1.9-0.3c-0.3-0.2-1.2-0.2-1.6,0c-0.6,0.2-0.8,0-0.6-0.2
			c0.2-0.2,0.4-0.3,0.3-0.5c-0.2-0.2-0.9,0-1.4,0.3c-0.5,0.3-2.3,0.4-3.4,0.4c-1.1,0-1.7-0.4-0.5-0.5c1.2,0,0.7-0.7,2.6-0.7
			c1.2,0,2.7-0.2,2.6-0.7c0-0.5-3.3-0.5-4.3-0.5c-1,0-2.6-0.1-2.7-0.7c-0.1-0.6-0.9-0.6-1.1-1.1c-0.1-0.2-0.3-0.5-0.9-0.7
			c-0.6-0.2-0.7-0.4-0.6-0.5c0.5-0.1,1.6-0.3,2.3-0.1c1.2,0.2,4.5-0.6,5.9-0.4C111.6,73.3,117.6,73.5,120.4,73.5"/>
		<path class="st11" d="M94.6,73.4c0.4,5,2,8.5,4,10.8c1.2-0.2,1.5-1.2,3.1-1.7c0.7-0.2,0.3-0.5-0.2-0.6c-0.5,0-0.6,0-1.1-0.4
			c-0.5-0.4-1.8,0-3.3-0.2c-0.5-0.1-0.6-0.5-0.2-0.7s2-0.3,2.8-0.3c0.8,0,0.8-1.1,2-1.1c0.6,0,1.4-0.2,1.3-0.5
			c-0.2-0.3-1.8-0.2-2.5-0.1c-0.8,0.1-0.4-0.4-0.9-0.5c-0.5-0.1-0.7-0.3-0.3-0.6c0.3-0.3,1.3-0.3,2.3-0.3c1,0,1.4-0.2,1.4-0.7
			c0-0.5,0.4-0.8,0.2-1.1c-0.3-0.9-1.4-1.5-2.4-1.9c-0.4-0.1-0.9-0.3-1.4-0.2c-0.5,0.1-2.3,0-2.9-0.1C95.8,73,95.2,73.1,94.6,73.4"
			/>
		<g>
			<path class="st12" d="M99.4,68.5c0,0,0,0.8,0,1.1l-1.3,1.5c0.1,0,1.4-1.4,1.4-1.4l0.2,0.8l-0.8,0.9l-0.2,0.8l1.2-1.5l0.2,0
				l-0.1,1.2l0.4-0.2l-0.1-0.2l0.1-0.7l-0.6-1L99.4,68.5L99.4,68.5z"/>
			<polygon class="st12" points="100.3,68.1 100.8,69.3 100.5,69.7 102.3,71.4 100.4,69.8 100.7,69.3 			"/>
			<path class="st12" d="M99.9,63.7l1.1,1c0,0.3,0.2,0.7,0.2,0.7l0.9,0.6l0.8,0.5l-0.7-0.3l-1.1,0l0,0.4l0.5,0.5l-0.2,0.4l0.8,0.2
				l0,0.3l1.6,2l-1-0.9h-0.6l-0.2-0.4l-0.4,0l-0.1,0.5l-0.3-1.4l-0.3-0.3l-0.3-1.3l0.2,0.4l0.2-0.3l-0.1-0.3l-0.6,0l-0.1-0.3
				L99.8,66l0.4-0.9L99.9,63.7z"/>
			<polygon class="st12" points="103.4,67.4 104.5,68.6 105,70.3 105.2,69.9 105.7,69.9 104.6,68.5 			"/>
			<polygon class="st12" points="103.3,64.8 104.2,64.3 105.8,65.6 105.8,65.2 107,66.2 107.5,66.2 107.8,66.7 108.4,66.8 
				108.6,67.2 109.2,69.6 109,70.6 109,69.7 108.4,67.2 107.6,67.1 107.7,66.7 107.4,66.4 106.9,66.6 106.2,65.9 106.2,66.5 
				106.6,68 105.2,65.3 104.9,65.5 104.6,64.9 104,66.3 103.9,66.3 104.4,64.9 103.8,64.7 			"/>
			<polygon class="st12" points="111.3,69 112.5,69.9 113.8,71 114.5,71.2 113.7,71.2 112.4,70.2 112.4,70.5 111.9,70.1 111.6,69.6 
				111.3,69.8 			"/>
			<polygon class="st12" points="109.2,68.7 109.3,68.2 109.6,68.5 109.8,67.9 109.8,68.8 109.4,68.5 			"/>
			<polygon class="st12" points="94.7,67.4 96,66 96.2,66.2 96.5,66 96.5,65.8 97.4,65.2 97.7,65.2 98.9,64 99,63.4 99.1,64 
				98.9,64.2 98.9,65.4 98.1,67.5 98.4,68.1 98.4,69.4 98.3,68.7 97.6,67.7 95.9,69.5 96.7,68.1 96.6,67.5 96,67.9 97.7,66 
				97.2,66.1 97.7,65.5 97.4,65.5 95.9,66.9 95.7,66.7 94.8,67.4 			"/>
			<polygon class="st12" points="95,72.1 95.6,71.4 95.6,71.1 96.1,71.1 94.9,72.4 			"/>
		</g>
	</g>
	<g>
		<path class="st13" d="M107.5,88.4c-5.9,0-13-4.5-13-17.9c0-13.4,7.2-17.9,13-17.9s13,4.5,13,17.9
			C120.5,83.9,113.4,88.4,107.5,88.4v1.9c6.8,0,15.1-5,15.1-19.8c0-14.8-8.3-19.8-15.1-19.8s-15.1,5-15.1,19.8
			c0,14.8,8.3,19.8,15.1,19.8V88.4z"/>
		<path class="st13" d="M107.5,70.4"/>
	</g>
	<g>
		<path class="st14" d="M107.5,88.4c-5.9,0-13-4.5-13-17.9c0-13.4,7.2-17.9,13-17.9s13,4.5,13,17.9
			C120.5,83.9,113.4,88.4,107.5,88.4v1.9c6.8,0,15.1-5,15.1-19.8c0-14.8-8.3-19.8-15.1-19.8s-15.1,5-15.1,19.8
			c0,14.8,8.3,19.8,15.1,19.8V88.4z"/>
		<path class="st14" d="M107.5,70.4"/>
	</g>
	<g>
		<g>
			<g>
				<g>
					<path class="st7" d="M135.6,57.8c-0.2,0.1-1-0.3-1.1-0.8c-0.2-0.5,0-1,0.4-1.2c0.4-0.2,0.9,0.1,1.1,0.6
						C136.1,57,135.8,57.7,135.6,57.8l-0.2-0.5c0.1,0,0.3-0.4,0.2-0.7c-0.1-0.2-0.3-0.4-0.5-0.3c-0.2,0.1-0.3,0.3-0.2,0.6
						c0.1,0.2,0.5,0.4,0.6,0.4L135.6,57.8z"/>
				</g>
				<g>
					<path class="st7" d="M134.4,67c0.3,0,0.4-0.3,0.4-1l0.8-7.7c0.1-0.6,0.1-1-0.2-1c-0.3,0-0.4,0.3-0.4,1l-0.8,7.7
						C134.2,66.6,134.2,67,134.4,67z"/>
					<path class="st7" d="M134.8,68.8c0.1-0.7,0-1.7-0.4-1.7c-0.3,0-0.7,0.8-0.7,1.6C133.7,68.9,134.8,69.1,134.8,68.8z"/>
					<path class="st7" d="M134.5,66.5c-0.5-0.1-0.6,0.9-0.1,1C134.9,67.5,135,66.5,134.5,66.5z"/>
				</g>
			</g>
			<g>
				<g>
					<path class="st7" d="M131.4,48.9c-0.2,0.1-0.9-0.3-1-0.7c-0.2-0.5,0-0.9,0.4-1.1c0.4-0.1,0.8,0.1,1,0.6
						C131.9,48.2,131.6,48.9,131.4,48.9l-0.2-0.4c0.1,0,0.2-0.4,0.2-0.6c-0.1-0.2-0.3-0.3-0.5-0.3c-0.2,0.1-0.3,0.3-0.2,0.5
						c0.1,0.2,0.4,0.4,0.5,0.4L131.4,48.9z"/>
				</g>
				<g>
					<path class="st7" d="M130.3,57.4c0.3,0,0.3-0.3,0.4-0.9l0.8-7.1c0.1-0.6,0.1-0.9-0.2-1c-0.3,0-0.3,0.3-0.4,0.9l-0.8,7.1
						C130.1,57.1,130.1,57.4,130.3,57.4z"/>
					<path class="st7" d="M130.7,59c0.1-0.7,0-1.5-0.3-1.6c-0.3,0-0.6,0.8-0.7,1.5C129.6,59.2,130.7,59.3,130.7,59z"/>
					<path class="st7" d="M130.4,56.9c-0.5-0.1-0.6,0.8-0.1,0.9C130.8,57.9,130.9,57,130.4,56.9z"/>
				</g>
			</g>
			<g>
				<g>
					<path class="st7" d="M79.4,57.8c0.2,0.1,1-0.3,1.1-0.8c0.2-0.5,0-1-0.4-1.2c-0.4-0.2-0.9,0.1-1.1,0.6
						C78.9,57,79.2,57.7,79.4,57.8l0.2-0.5c-0.1,0-0.3-0.4-0.2-0.7s0.3-0.4,0.5-0.3c0.2,0.1,0.3,0.3,0.2,0.6
						c-0.1,0.2-0.5,0.4-0.6,0.4L79.4,57.8z"/>
				</g>
				<g>
					<path class="st7" d="M80.6,67c-0.3,0-0.4-0.3-0.4-1l-0.8-7.7c-0.1-0.6-0.1-1,0.2-1c0.3,0,0.4,0.3,0.4,1l0.8,7.7
						C80.8,66.6,80.8,67,80.6,67z"/>
					<path class="st7" d="M80.2,68.8c-0.1-0.7,0-1.7,0.4-1.7c0.3,0,0.7,0.8,0.7,1.6C81.3,68.9,80.2,69.1,80.2,68.8z"/>
					<path class="st7" d="M80.5,66.5c0.5-0.1,0.6,0.9,0.1,1C80.1,67.5,80,66.5,80.5,66.5z"/>
				</g>
			</g>
			<g>
				<g>
					<path class="st7" d="M83.6,48.9c0.2,0.1,0.9-0.3,1-0.7c0.2-0.5,0-0.9-0.4-1.1c-0.4-0.1-0.8,0.1-1,0.6
						C83.1,48.2,83.4,48.9,83.6,48.9l0.2-0.4c-0.1,0-0.2-0.4-0.2-0.6c0.1-0.2,0.3-0.3,0.5-0.3c0.2,0.1,0.3,0.3,0.2,0.5
						c-0.1,0.2-0.4,0.4-0.5,0.4L83.6,48.9z"/>
				</g>
				<g>
					<path class="st7" d="M84.7,57.4c-0.3,0-0.3-0.3-0.4-0.9l-0.8-7.1c-0.1-0.6-0.1-0.9,0.2-1c0.3,0,0.3,0.3,0.4,0.9l0.8,7.1
						C84.9,57.1,84.9,57.4,84.7,57.4z"/>
					<path class="st7" d="M84.3,59c-0.1-0.7,0-1.5,0.3-1.6c0.3,0,0.6,0.8,0.7,1.5C85.4,59.2,84.3,59.3,84.3,59z"/>
					<path class="st7" d="M84.6,56.9c0.5-0.1,0.6,0.8,0.1,0.9C84.2,57.9,84.1,57,84.6,56.9z"/>
				</g>
			</g>
		</g>
		<g>
			<g>
				<g>
					<path class="st6" d="M135.9,57.7c0.1,0.2-0.3,0.9-0.8,1.1c-0.5,0.2-1-0.1-1.2-0.5c-0.1-0.4,0.2-0.9,0.7-1.1
						C135.1,57.1,135.9,57.5,135.9,57.7l-0.5,0.2c0-0.1-0.4-0.3-0.7-0.2c-0.2,0.1-0.4,0.3-0.3,0.5c0.1,0.2,0.3,0.3,0.6,0.2
						c0.2-0.1,0.5-0.5,0.4-0.6L135.9,57.7z"/>
				</g>
				<g>
					<path class="st6" d="M136,67.2c0.3,0,0.3-0.4,0.3-1l-0.3-7.8c0-0.6-0.1-1-0.4-1c-0.3,0-0.3,0.4-0.3,1l0.3,7.8
						C135.7,66.9,135.7,67.2,136,67.2z"/>
					<path class="st6" d="M136.6,68.9c0-0.8-0.3-1.7-0.6-1.6c-0.3,0-0.5,0.9-0.5,1.7C135.5,69.2,136.6,69.2,136.6,68.9z"/>
					<path class="st6" d="M136,66.7c-0.5,0-0.5,1,0,1S136.5,66.6,136,66.7z"/>
				</g>
				<path class="st6" d="M135.5,57.2c-0.5,0-0.5,0.8,0,0.8C136.1,58,136.1,57.2,135.5,57.2z"/>
			</g>
			<g>
				<g>
					<path class="st6" d="M131.7,48.8c0.1,0.2-0.3,0.9-0.7,1c-0.5,0.1-0.9-0.1-1.1-0.4c-0.1-0.4,0.1-0.8,0.6-1
						C131,48.3,131.7,48.6,131.7,48.8l-0.5,0.1c0-0.1-0.4-0.3-0.6-0.2c-0.2,0.1-0.4,0.3-0.3,0.5c0.1,0.2,0.3,0.3,0.5,0.2
						c0.2-0.1,0.4-0.4,0.4-0.5L131.7,48.8z"/>
				</g>
				<g>
					<path class="st6" d="M131.8,57.6c0.3,0,0.3-0.3,0.3-0.9l-0.3-7.2c0-0.6-0.1-0.9-0.3-0.9c-0.3,0-0.3,0.3-0.3,0.9l0.3,7.2
						C131.5,57.3,131.5,57.6,131.8,57.6z"/>
					<path class="st6" d="M132.4,59.1c0-0.7-0.3-1.5-0.6-1.5c-0.3,0-0.5,0.9-0.5,1.6C131.3,59.4,132.4,59.4,132.4,59.1z"/>
					<path class="st6" d="M131.8,57.1c-0.5,0-0.4,0.9,0,0.9C132.3,57.9,132.3,57.1,131.8,57.1z"/>
				</g>
				<path class="st6" d="M131.4,48.4c-0.5,0-0.5,0.7,0,0.7C131.8,49.1,131.8,48.4,131.4,48.4z"/>
			</g>
			<g>
				<g>
					<path class="st6" d="M79.1,57.7c-0.1,0.2,0.3,0.9,0.8,1.1s1-0.1,1.2-0.5c0.1-0.4-0.2-0.9-0.7-1.1
						C79.9,57.1,79.1,57.5,79.1,57.7l0.5,0.2c0-0.1,0.4-0.3,0.7-0.2c0.2,0.1,0.4,0.3,0.3,0.5c-0.1,0.2-0.3,0.3-0.6,0.2
						c-0.2-0.1-0.5-0.5-0.4-0.6L79.1,57.7z"/>
				</g>
				<g>
					<path class="st6" d="M79,67.2c-0.3,0-0.3-0.4-0.3-1l0.3-7.8c0-0.6,0.1-1,0.4-1c0.3,0,0.3,0.4,0.3,1l-0.3,7.8
						C79.3,66.9,79.3,67.2,79,67.2z"/>
					<path class="st6" d="M78.4,68.9c0-0.8,0.3-1.7,0.6-1.6c0.3,0,0.5,0.9,0.5,1.7C79.5,69.2,78.3,69.2,78.4,68.9z"/>
					<path class="st6" d="M79,66.7c0.5,0,0.5,1,0,1C78.5,67.6,78.5,66.6,79,66.7z"/>
				</g>
				<path class="st6" d="M79.5,57.2c0.5,0,0.5,0.8,0,0.8C78.9,58,78.9,57.2,79.5,57.2z"/>
			</g>
			<g>
				<g>
					<path class="st6" d="M83.3,48.8c-0.1,0.2,0.3,0.9,0.7,1c0.5,0.1,0.9-0.1,1.1-0.4c0.1-0.4-0.1-0.8-0.6-1
						C84,48.3,83.3,48.6,83.3,48.8l0.5,0.1c0-0.1,0.4-0.3,0.6-0.2c0.2,0.1,0.4,0.3,0.3,0.5c-0.1,0.2-0.3,0.3-0.5,0.2
						c-0.2-0.1-0.4-0.4-0.4-0.5L83.3,48.8z"/>
				</g>
				<g>
					<path class="st6" d="M83.2,57.6c-0.3,0-0.3-0.3-0.3-0.9l0.3-7.2c0-0.6,0.1-0.9,0.3-0.9c0.3,0,0.3,0.3,0.3,0.9l-0.3,7.2
						C83.5,57.3,83.5,57.6,83.2,57.6z"/>
					<path class="st6" d="M82.6,59.1c0-0.7,0.3-1.5,0.6-1.5c0.3,0,0.5,0.9,0.5,1.6C83.7,59.4,82.6,59.4,82.6,59.1z"/>
					<path class="st6" d="M83.2,57.1c0.5,0,0.4,0.9,0,0.9C82.7,57.9,82.7,57.1,83.2,57.1z"/>
				</g>
				<path class="st6" d="M83.6,48.4c0.5,0,0.5,0.7,0,0.7C83.2,49.1,83.2,48.4,83.6,48.4z"/>
			</g>
		</g>
	</g>
	<g>
		<g>
			<path class="st3" d="M124.3,93.7H94.7v-0.8h29.7C124.4,92.9,124.4,93.7,124.3,93.7z"/>
			<path class="st4" d="M94.7,92.9v0.8l-1.2,1.6l-1.2-1.7L91,94.2l-2-0.9l2-0.9l1.4,0.6c0-0.3,0.4-0.6,0.6-0.8
				c0-1.6-1.4-2.2-2.6-1.6c0.2-1.2,2-1.6,3.2-1.6c1.2,0,3,0.4,3.2,1.6c-1.2-0.6-2.6,0-2.6,1.6C94.3,92.3,94.7,92.5,94.7,92.9z"/>
			<path class="st4" d="M94.8,93.3c0,0.7-0.4,1-1.3,1c-0.9,0-1.3-0.3-1.3-1c0-0.7,0.4-1,1.3-1C94.4,92.4,94.8,92.6,94.8,93.3z"/>
		</g>
		<g>
			<path class="st3" d="M97.7,96.5h19.6c0.4,0,0.8-1.8,0.8-2.9c0-1.2-0.4-2.9-0.8-2.9H97.7c-0.4,0-0.8,1.8-0.8,2.9
				C96.9,94.7,97.2,96.5,97.7,96.5z"/>
		</g>
		<g>
			<line class="st8" x1="97.3" y1="95.8" x2="117.6" y2="95.8"/>
			<line class="st8" x1="97" y1="94.9" x2="117.8" y2="94.9"/>
			<line class="st8" x1="96.9" y1="94" x2="117.9" y2="94"/>
			<line class="st8" x1="96.9" y1="93.1" x2="118" y2="93.1"/>
			<line class="st8" x1="97" y1="92.1" x2="117.8" y2="92.1"/>
			<line class="st8" x1="97.3" y1="91.2" x2="117.6" y2="91.2"/>
		</g>
		<g>
			<rect x="105.4" y="90.4" class="st15" width="1.3" height="6.2"/>
			<path class="st15" d="M97.6,93.5c0-1.2,0.4-3.1,0.8-3.1h1.3c0.1,0,0.1,0.1,0.2,0.1l-0.4,0c-0.3,0.5-0.6,1.9-0.6,2.9
				c0,1,0.3,2.5,0.6,2.9l0.4,0c0,0.1-0.1,0.2-0.2,0.2h-1.3C98,96.6,97.6,94.7,97.6,93.5z"/>
			<path class="st15" d="M99.6,90.4h0.7c1.1,1.7,3.2,4.4,5.1,5.5v0.7h-0.5c-2.4-1.2-4.1-3.6-5.5-5.9C99.5,90.6,99.6,90.5,99.6,90.4z
				"/>
			<path class="st15" d="M99.6,96.6h0.7c1.1-1.7,3.2-4.4,5.1-5.5v-0.7h-0.5c-2.4,1.2-4.1,3.6-5.5,5.9C99.5,96.4,99.6,96.6,99.6,96.6
				z"/>
			<rect x="108.3" y="90.4" class="st15" width="1.3" height="6.2"/>
			<path class="st15" d="M117.4,93.5c0-1.2-0.4-3.1-0.8-3.1h-1.3c-0.1,0-0.1,0.1-0.2,0.1l0.4,0c0.3,0.5,0.6,1.9,0.6,2.9
				c0,1-0.3,2.5-0.6,2.9l-0.4,0c0,0.1,0.1,0.2,0.2,0.2h1.3C117,96.6,117.4,94.7,117.4,93.5z"/>
			<path class="st15" d="M115.4,90.4h-0.7c-1.1,1.7-3.2,4.4-5.1,5.5v0.7h0.5c2.4-1.2,4.1-3.6,5.5-5.9
				C115.5,90.6,115.4,90.5,115.4,90.4z"/>
			<path class="st15" d="M115.4,96.6h-0.7c-1.1-1.7-3.2-4.4-5.1-5.5v-0.7h0.5c2.4,1.2,4.1,3.6,5.5,5.9
				C115.5,96.4,115.4,96.6,115.4,96.6z"/>
		</g>
	</g>
	<g>
		<g>
			<path class="st16" d="M128.8,62.6c-0.1-4.7-0.4-9.4-2.1-13.9c0.9,4.8,1.6,12.8,1.4,14.5L128.8,62.6z"/>
			<path class="st16" d="M128.1,63.2c-0.4-6.1-1.3-11-2.8-14c1.2,4.5,2.2,10.6,2.3,14.4L128.1,63.2z"/>
			<path class="st16" d="M128.1,63.2c-1-5.6-2.6-11.3-5.2-14.9c1.9,4.2,4.4,12.1,4.4,15.6L128.1,63.2z"/>
			<path class="st16" d="M127.6,63.6c-0.8-5.5-3.7-11.9-7.1-15.6c2.4,3.5,6,11.7,6.6,16.1L127.6,63.6z"/>
			<path class="st16" d="M126,65c-1.1-2.8-4.3-8.1-6.8-10.4c3.8,3,6.4,7.2,7.3,10L126,65z"/>
			<path class="st16" d="M126.4,64.7c-1.5-3.6-4.4-8.6-7.2-11.4c3.7,3.2,6.4,7.4,7.7,10.9L126.4,64.7z"/>
			<path class="st16" d="M126.7,64.4c-1.5-4-4.8-10.1-7.1-12.6c3.9,3.5,6.2,8,7.7,12.1L126.7,64.4z"/>
			<path class="st16" d="M126.9,64.2c-2.5-7-5.6-12.5-7.7-14.9c3.9,2.8,7.3,11.5,8.1,14.5L126.9,64.2z"/>
		</g>
		<g>
			<path class="st16" d="M88.9,59.1c0.2-1.3-0.2-2.1-1.6-3.1c1-0.3,2.1,0.5,1.8,2.5"/>
			<path class="st16" d="M90.5,60.6c1.2-0.8,1.6-1.8,2.3-2.6c0.7-0.8,1.3-1.5,3-1.6c-0.8,1.3-1.3,2.1-2.8,2.8
				c-0.9,0.4-2.3,1.5-2.8,1.9L90.5,60.6z"/>
			<path class="st16" d="M88.5,63c1.9-1.4,2.5-1.8,2.9-2.5c0.4-0.7,1.2-1.3,3-1.5c-0.9,1.6-2.3,2.3-3.3,2.6c-1,0.3-2.1,1.2-2.7,2.1"
				/>
			<path class="st16" d="M90,60.7c1.2-2,3-1.4,3.8,0.4C92.8,61,92,59.1,90,60.7z"/>
			<path class="st16" d="M88.6,60.7c0-2.1,0.9-4.5,1.5-5.6c0.5-0.9,0.7-1.1,0.7-1.7c-0.1-1.7,1-3.2,1.2-4.7c0.4,1.8,0.2,3.5-0.8,4.9
				c2-2.8,3.8-2.1,4.6-3c-0.4,2.8-3.7,1.6-4.8,3.7c-1,1.7-2.1,4.2-2.1,7.9C88.7,61.9,88.6,61.1,88.6,60.7z"/>
			<path class="st16" d="M90.7,58.1c1.2-2.3,3.1-3.7,4.1-4.5c1-0.8,1.6-1.4,2-2.2c0.4-0.8,1.3-2,2.1-2.2c-0.3,0.7-1,1.5-1.7,2.1
				c-0.7,0.6-1.1,1.7-2.6,2.7c-1.4,1-2.6,2.2-3.5,3.9L90.7,58.1z"/>
			<path class="st16" d="M96.5,52.1c0.1-1,0.2-1.8,0.8-2.9c0,0.8-0.4,2-0.6,2.5c1-0.7,2.5-1,3.5-0.7c-1.1,0.5-3.2,0.5-3.8,1.2"/>
			<path class="st16" d="M88.7,61c0.4-2.2,1.5-3.5,2.1-4.4c0.5-0.9,2.2-2.1,4.1-1.8c-1,0.9-4,1.7-5,3.7c-1,2-1,2.7-1.2,3.8L88.7,61z
				"/>
			<path class="st16" d="M88.9,55.5c-0.1-1.5-0.6-3.7-2.1-4.4C86.9,52.3,87.4,54.4,88.9,55.5z"/>
			<path class="st16" d="M89.1,58.1c-0.1-1.5-0.5-2.3-0.6-3c-0.6-2.6,0.5-3.8,0.1-4.8c1.3,1.6,1.3,3.9,1,5.1
				c-0.3,1.2-0.3,1.4-0.3,2.1"/>
			<path class="st16" d="M91.1,53.6c0.5-0.8,1.2-1.8,1.5-2.4c0.3-0.7,1.4-2.5,3.5-2.9c-1.4,2.2-3.5,3.9-4.2,4.7S90.8,54.4,91.1,53.6
				z"/>
			<path class="st16" d="M88.6,63.1c1-2.1,0.4-4.7,3.4-6.3C91.2,58.5,93,58.6,88.6,63.1z"/>
			<path class="st16" d="M88.4,64.5c1.4-1.4,3.1-0.5,4.5-1.8c0.7-0.6,0.6-0.6-0.3-0.7c-1.4-0.2-2.9,0.6-4,1.8
				c0.7-1.8,0.1-4.4-0.8-5.9c-0.7-1.2-0.7-1.1-0.9,0.1c-0.2,1.1,0,2.9,0.6,3.7c0.5,0.8,0.7,1.6,0.7,2.6L88.4,64.5z"/>
		</g>
	</g>
	<g>
		<path class="st5" d="M90.4,56.4c-0.1,0.2-0.4,0.1-0.5-0.1c0-0.3,0.2-0.4,0.4-0.2c-0.2-0.1-0.1-0.4,0.1-0.5c0.3,0,0.4,0.2,0.2,0.4
			c0.1-0.2,0.4-0.1,0.5,0.1c0,0.3-0.2,0.4-0.4,0.2c0.2,0.1,0.1,0.4-0.1,0.5C90.4,56.9,90.3,56.6,90.4,56.4z"/>
		<path class="st5" d="M90.9,54.9c-0.1,0.2-0.4,0.1-0.5-0.1c0-0.3,0.2-0.4,0.4-0.2c-0.2-0.1-0.1-0.4,0.1-0.5c0.3,0,0.4,0.2,0.2,0.4
			c0.1-0.2,0.4-0.1,0.5,0.1c0,0.3-0.2,0.4-0.4,0.2c0.2,0.1,0.1,0.4-0.1,0.5C90.9,55.4,90.8,55.1,90.9,54.9z"/>
		<path class="st5" d="M89.8,55c-0.1,0.2-0.4,0.1-0.5-0.1c0-0.3,0.2-0.4,0.4-0.2c-0.2-0.1-0.1-0.4,0.1-0.5c0.3,0,0.4,0.2,0.2,0.4
			c0.1-0.2,0.4-0.1,0.5,0.1c0,0.3-0.2,0.4-0.4,0.2c0.2,0.1,0.1,0.4-0.1,0.5C89.8,55.4,89.6,55.1,89.8,55z"/>
		<path class="st5" d="M92.2,53.9c-0.1,0.2-0.4,0.1-0.5-0.1c0-0.3,0.2-0.4,0.4-0.2c-0.2-0.1-0.1-0.4,0.1-0.5c0.3,0,0.4,0.2,0.2,0.4
			c0.1-0.2,0.4-0.1,0.5,0.1c0,0.3-0.2,0.4-0.4,0.2c0.2,0.1,0.1,0.4-0.1,0.5C92.2,54.3,92,54.1,92.2,53.9z"/>
		<path class="st5" d="M96.5,52.4c-0.1,0.2-0.4,0.1-0.5-0.1c0-0.3,0.2-0.4,0.4-0.2c-0.2-0.1-0.1-0.4,0.1-0.5c0.3,0,0.4,0.2,0.2,0.4
			c0.1-0.2,0.4-0.1,0.5,0.1c0,0.3-0.2,0.4-0.4,0.2c0.2,0.1,0.1,0.4-0.1,0.5C96.5,52.8,96.4,52.6,96.5,52.4z"/>
		<path class="st5" d="M95,52.7c-0.1,0.2-0.4,0.1-0.5-0.1c0-0.3,0.2-0.4,0.4-0.2c-0.2-0.1-0.1-0.4,0.1-0.5c0.3,0,0.4,0.2,0.2,0.4
			c0.1-0.2,0.4-0.1,0.5,0.1c0,0.3-0.2,0.4-0.4,0.2c0.2,0.1,0.1,0.4-0.1,0.5C94.9,53.2,94.8,52.9,95,52.7z"/>
		<path class="st5" d="M94.6,54.6c-0.1,0.2-0.4,0.1-0.5-0.1c0-0.3,0.2-0.4,0.4-0.2c-0.2-0.1-0.1-0.4,0.1-0.5c0.3,0,0.4,0.2,0.2,0.4
			c0.1-0.2,0.4-0.1,0.5,0.1c0,0.3-0.2,0.4-0.4,0.2c0.2,0.1,0.1,0.4-0.1,0.5C94.5,55,94.4,54.8,94.6,54.6z"/>
		<path class="st5" d="M92.1,58.3c-0.1,0.2-0.4,0.1-0.5-0.1c0-0.3,0.2-0.4,0.4-0.2c-0.2-0.1-0.1-0.4,0.1-0.5c0.3,0,0.4,0.2,0.2,0.4
			c0.1-0.2,0.4-0.1,0.5,0.1c0,0.3-0.2,0.4-0.4,0.2c0.2,0.1,0.1,0.4-0.1,0.5C92.1,58.7,92,58.5,92.1,58.3z"/>
		<path class="st5" d="M95.5,55.8c-0.1,0.2-0.4,0.1-0.5-0.1c0-0.3,0.2-0.4,0.4-0.2c-0.2-0.1-0.1-0.4,0.1-0.5c0.3,0,0.4,0.2,0.2,0.4
			c0.1-0.2,0.4-0.1,0.5,0.1c0,0.3-0.2,0.4-0.4,0.2c0.2,0.1,0.1,0.4-0.1,0.5C95.5,56.2,95.4,56,95.5,55.8z"/>
		<path class="st5" d="M93.4,57.6c-0.1,0.2-0.4,0.1-0.5-0.1c0-0.3,0.2-0.4,0.4-0.2c-0.2-0.1-0.1-0.4,0.1-0.5c0.3,0,0.4,0.2,0.2,0.4
			c0.1-0.2,0.4-0.1,0.5,0.1c0,0.3-0.2,0.4-0.4,0.2c0.2,0.1,0.1,0.4-0.1,0.5C93.4,58,93.2,57.8,93.4,57.6z"/>
		<path class="st5" d="M90.1,62.2c-0.1,0.2-0.4,0.1-0.5-0.1c0-0.3,0.2-0.4,0.4-0.2c-0.2-0.1-0.1-0.4,0.1-0.5c0.3,0,0.4,0.2,0.2,0.4
			c0.1-0.2,0.4-0.1,0.5,0.1c0,0.3-0.2,0.4-0.4,0.2c0.2,0.1,0.1,0.4-0.1,0.5C90.1,62.7,89.9,62.4,90.1,62.2z"/>
		<path class="st5" d="M91.5,61.7c-0.1,0.2-0.4,0.1-0.5-0.1c0-0.3,0.2-0.4,0.4-0.2c-0.2-0.1-0.1-0.4,0.1-0.5c0.3,0,0.4,0.2,0.2,0.4
			c0.1-0.2,0.4-0.1,0.5,0.1c0,0.3-0.2,0.4-0.4,0.2c0.2,0.1,0.1,0.4-0.1,0.5C91.5,62.1,91.4,61.9,91.5,61.7z"/>
		<path class="st5" d="M93.1,56.5c-0.1,0.2-0.4,0.1-0.5-0.1c0-0.3,0.2-0.4,0.4-0.2c-0.2-0.1-0.1-0.4,0.1-0.5c0.3,0,0.4,0.2,0.2,0.4
			c0.1-0.2,0.4-0.1,0.5,0.1c0,0.3-0.2,0.4-0.4,0.2c0.2,0.1,0.1,0.4-0.1,0.5C93.1,57,93,56.7,93.1,56.5z"/>
	</g>
	<g>
		<path class="st0" d="M90.6,56.4c0.1,0,0.2-0.1,0.2-0.2c0-0.1-0.1-0.2-0.2-0.2c-0.1,0-0.2,0.1-0.2,0.2
			C90.4,56.4,90.5,56.5,90.6,56.4z"/>
		<path class="st0" d="M91.1,54.9c0.1,0,0.2-0.1,0.2-0.2c0-0.1-0.1-0.2-0.2-0.2c-0.1,0-0.2,0.1-0.2,0.2C90.9,54.9,91,54.9,91.1,54.9
			z"/>
		<path class="st0" d="M90,54.9c0.1,0,0.2-0.1,0.2-0.2c0-0.1-0.1-0.2-0.2-0.2c-0.1,0-0.2,0.1-0.2,0.2C89.8,54.9,89.9,55,90,54.9z"/>
		<path class="st0" d="M92.4,53.9c0.1,0,0.2-0.1,0.2-0.2c0-0.1-0.1-0.2-0.2-0.2c-0.1,0-0.2,0.1-0.2,0.2
			C92.1,53.8,92.2,53.9,92.4,53.9z"/>
		<path class="st0" d="M96.7,52.4c0.1,0,0.2-0.1,0.2-0.2c0-0.1-0.1-0.2-0.2-0.2c-0.1,0-0.2,0.1-0.2,0.2
			C96.5,52.3,96.6,52.4,96.7,52.4z"/>
		<path class="st0" d="M95.1,52.7c0.1,0,0.2-0.1,0.2-0.2c0-0.1-0.1-0.2-0.2-0.2c-0.1,0-0.2,0.1-0.2,0.2C94.9,52.6,95,52.7,95.1,52.7
			z"/>
		<path class="st0" d="M94.8,54.6c0.1,0,0.2-0.1,0.2-0.2c0-0.1-0.1-0.2-0.2-0.2c-0.1,0-0.2,0.1-0.2,0.2
			C94.5,54.5,94.6,54.6,94.8,54.6z"/>
		<path class="st0" d="M92.3,58.3c0.1,0,0.2-0.1,0.2-0.2c0-0.1-0.1-0.2-0.2-0.2c-0.1,0-0.2,0.1-0.2,0.2
			C92.1,58.2,92.2,58.3,92.3,58.3z"/>
		<path class="st0" d="M95.7,55.8c0.1,0,0.2-0.1,0.2-0.2c0-0.1-0.1-0.2-0.2-0.2c-0.1,0-0.2,0.1-0.2,0.2
			C95.5,55.7,95.6,55.8,95.7,55.8z"/>
		<path class="st0" d="M93.6,57.6c0.1,0,0.2-0.1,0.2-0.2c0-0.1-0.1-0.2-0.2-0.2c-0.1,0-0.2,0.1-0.2,0.2
			C93.3,57.5,93.5,57.6,93.6,57.6z"/>
		<path class="st0" d="M90.3,62.2c0.1,0,0.2-0.1,0.2-0.2c0-0.1-0.1-0.2-0.2-0.2c-0.1,0-0.2,0.1-0.2,0.2C90,62.1,90.1,62.2,90.3,62.2
			z"/>
		<path class="st0" d="M91.7,61.7c0.1,0,0.2-0.1,0.2-0.2c0-0.1-0.1-0.2-0.2-0.2c-0.1,0-0.2,0.1-0.2,0.2
			C91.5,61.6,91.6,61.7,91.7,61.7z"/>
		<path class="st0" d="M93.3,56.5c0.1,0,0.2-0.1,0.2-0.2c0-0.1-0.1-0.2-0.2-0.2c-0.1,0-0.2,0.1-0.2,0.2
			C93.1,56.5,93.2,56.5,93.3,56.5z"/>
	</g>
	<g>
		<path class="st14" d="M107.5,50.4c1.8,0,3.2,0.3,4.3,0.7c0.5,0.2,1.4,0.4,1.2,0.7c-0.3-0.1-0.7,0.1-0.9,0.6
			c-0.2,0.6-0.2,1,0.1,1.1c-0.1,0.2-0.2,0.3-0.9,0c-1-0.4-2.7-0.7-3.8-0.7c-1.1,0-2.8,0.3-3.8,0.7c-0.7,0.3-0.8,0.2-0.9,0
			c0.3-0.1,0.3-0.6,0.1-1.1c-0.2-0.6-0.6-0.7-0.9-0.6c-0.2-0.3,0.8-0.6,1.2-0.7C104.3,50.7,105.7,50.4,107.5,50.4z"/>
		<path class="st14" d="M107.5,92.6c0.8-1.2,2-2,3.2-2.3c0.5-0.2,0.6-0.3,0.5-0.5c-0.3,0.1-0.6-0.2-0.8-0.8c-0.1-0.5,0-0.9,0.4-1
			c0-0.2-0.1-0.3-0.5-0.2c-0.7,0.2-1.8,0.4-2.9,0.4c-1.1,0-2.1-0.2-2.9-0.4c-0.3-0.1-0.4,0-0.5,0.2c0.4,0.1,0.5,0.6,0.4,1
			c-0.2,0.6-0.5,0.9-0.8,0.8c-0.1,0.2,0,0.3,0.5,0.5C105.5,90.7,106.7,91.4,107.5,92.6z"/>
	</g>
	<g>
		<path class="st3" d="M76.5,39.7c4-0.9,2.7-1.3,6.4-1.9c3.7-0.7,6.4-1.9,8-2.4c1.7-0.5,4.6-1.4,5.9-1.2c1.3,0.2,4.1-0.3,5.1,0.4
			c0.5,0.4,0.5,0.9,0.5,1.3c0,0.3,0.2,0.4,0.5,0.4c0.8,0,0.8,1.1,1.5,1c0.4,0,0.5,0.2,0.5,0.6c1.3-1.3,3.5-1.2,6.6,0.2
			c0.6-0.5,1.7-0.9,2.6-0.5c0.2-0.3,0.9-0.4,1.3-0.3c0.4,0.1,0.7-0.1,0.5-0.6c-0.5-1.5,1.3-2.1,2.4-1.7c1.1,0.4,1.8,0.4,3.3,0.4
			c1.5,0,2.3,0.2,3.8,0.6c2.7,0.8,4,2.1,6.9,3.1c4.3,1.4,6.4,2.6,7.8,2.9c1.5,0.3,1,1.2-0.5,0.6c0.1,0.2-1.2,0.5-2.5,0
			c1.3,0.8-1.1,0.7-2.1,0.4c0.5,0.3-1.6,0.5-3.4-0.4c0.6,0.5-0.5,1.1-2,0.1c0.3,0.2-0.6,0.7-1.3,0.1c0.3,0.3-0.3,0.6-0.8,0.4
			c0.4,0.3,0.9,0.8,0.7,1c-0.2,0.2-1.5-0.3-2.5-1c0.2,0.3-0.5,0.5-1.1-0.1c0.2,0.3-0.8,0.2-1.3-0.3c0.1,0.4-0.5,0.5-1.1,0.1
			c0.2,0.4-0.2,1.1-0.8,0.8c0.2,0.4-0.7,0.6-1.1,0.3c0.3,0.3-0.5,0.8-1.2,0.2c0.3,0.3-0.4,1.3-1.2,0.8c0.5,0.3-0.3,1-1,0.5
			c0.5,0.3-0.5,0.8-1.3,0.3c0.5,0.3-0.6,0.7-1.3,0.1c0.3,0.2-0.2,0.5-0.4,0.3c1,1.4,2,2.7,2.3,3.1c0.4,0.5,0.4,0.6-0.1,1
			c-0.3,0.3-1.8,1.4-2.6,2c-0.2-0.1-0.4-0.2-0.7-0.3c0.3-0.4-1.8-1-3.3-1.2c0.1-0.9,0-2.3,0.1-3.1c-0.3-0.5-0.5-0.6-0.7-0.1
			c-0.1,0.6-0.5,0.7-0.6,1.2c-0.1,0.4-0.2,0.9-0.9,1.1c-0.7,0.2-0.8-0.5-0.7-1.8c-0.1,0.3-0.7-0.3-0.6-1.1c-0.1,0.3-0.9-0.2-0.9-1.7
			c-0.2,0.7-0.8,1.2-1-0.2c-0.6,0.8-1.2,1.1-1.5,0c-0.5,0.5-1.1,0.5-1.3-0.3c-0.6,0.5-1.1,0.6-1.2-0.2c-0.5,0.5-1.2,0.7-1.5-0.2
			c-0.6,0.6-1.7,0.1-1.6-0.7c-0.5,0.4-1.4,0-1.3-0.8c-0.4,0.3-1,0-0.8-0.5c-0.8,0.5-1.2,0.4-1.3-0.4c-1.2,0.6-2.5,0.8-2.7,0.5
			c-0.6,0.4-1.8,0.9-2.1,0.8c-0.3-0.1,0.2-0.8,0.8-1.3c-0.4,0.1-0.9-0.1-0.9-0.4c-0.5,0.3-1.7,0.7-1.8,0.5c-0.1-0.2,0.1-0.5,0.9-1
			c-0.8,0.5-1.9,0.5-2,0.4c-0.2-0.2,0.2-0.5,0.8-0.8c-2.3,0.9-2.7,0.5-1.9,0c-1.8,0.8-2.6,0.6-1.9-0.1c-0.9,0.3-2.7,0.4-3.4,0.3
			c-0.7-0.1-1.2-0.3-0.4-0.8c-0.5,0.1-2.3,0.1-2.7,0.1C76.2,40.1,75.8,39.9,76.5,39.7z"/>
		<path class="st10" d="M105.5,39.4c-0.2-0.2-0.1-0.6,0.3-0.7c-0.1-0.2,0.2-0.6,0.4-0.5c0-0.3,0.4-0.5,0.6-0.3
			c0.1-0.2,0.6-0.3,0.7,0c0.3-0.2,0.7-0.2,0.8,0.2c0.3,0,0.6,0.2,0.6,0.4c0.3,0,0.6,0.3,0.5,0.7c0.3,0.1,0.3,0.7,0.1,0.9
			c0.2,0.3-0.1,0.9-0.4,1c0,0.4-0.2,0.7-0.5,0.6c-0.1,0.3-0.6,0.6-0.9,0.4c-0.3,0.2-1,0.1-1-0.2c-0.3,0.1-0.7-0.1-0.7-0.4
			c-0.3,0-0.6-0.3-0.5-0.6c-0.3-0.2-0.4-0.6-0.2-0.8C105.3,40,105.3,39.7,105.5,39.4z"/>
		<path class="st17" d="M100.3,40.4c-0.2-0.8,0.2-1.2,1.1-1.2c0.3-0.5,0.8-0.8,1.1-0.7c0.5,0.1,0.8-0.2,1.5,0.2
			c0.4,0.2,1.1,0.5,2.2,0.5c1.1,0,2.3,0,2.3,0.9c0,0.7-0.8,0.6-1.6,0.6c-0.8,0-1.4,0-1.8-0.2c-0.4-0.2-0.9-0.3-1.4-0.1
			c-0.5,0.2-1.7,0.3-2.2-0.4C100.7,40,100.5,40,100.3,40.4z"/>
		<path class="st17" d="M107.3,48.9c-0.3,0.6-1,1.6-1.8,1.4c-0.9-0.2-1.2,0.3-1.1,0.6c0.1,0.3,0.8,0.4,1.2,0.2
			c-0.5,0.5-0.4,0.8-0.2,0.9c0.2,0.2,0.7,0.2,0.8-0.3c0.1-0.5,0.6-0.9,0.9-1c0.4-0.1,0.6,0.2,0.6,0.6c0,0.4,0.4,0.5,0.6,0.5
			c0.3-0.1,0.5-0.8-0.1-1c-0.5-0.2-0.8-0.4-0.6-1c0.1-0.4,0.1-0.7,0.3-1.1C107.9,48.3,107.6,48.3,107.3,48.9z"/>
		<path class="st17" d="M110.9,48.6c0,0.6,0,1.5-0.5,1.7c-0.8,0.2-0.6,0.4-1.1,0.6c-0.4,0.2-0.3,0.7-0.2,0.8
			c0.2,0.1,0.5,0.2,0.7-0.3c0.1-0.2,0.2-0.4,0.5-0.5c0.2-0.1,0.3,0.1,0.3,0.2c0,0.1,0,0.5-0.1,0.6c-0.1,0.2,0.1,0.5,0.4,0.5
			c0.3,0,0.4-0.2,0.4-0.4c0.1-0.4-0.1-0.6-0.1-0.8c0.1-0.2,0.3-0.2,0.3,0.1c0.1,0.2,0.4,0.3,0.5,0.6c0.1,0.3,0.4,0.3,0.6,0.2
			c0.2-0.2,0.4-0.6-0.3-0.9c-0.7-0.3-0.9-0.5-0.9-1.1c0-0.5-0.2-0.6-0.3-0.9S110.9,48.1,110.9,48.6z"/>
		<g>
			<path d="M104.1,51.6c-0.2-0.4,0.1-0.8,0.4-0.8c0.2,0,0.3,0.1,0.2,0.3C104.6,51.3,104.2,51.1,104.1,51.6z"/>
			<path d="M105.4,52.7c-0.3-0.3-0.2-0.8,0-0.9c0.1-0.1,0.3,0,0.3,0.2C105.7,52.2,105.3,52.2,105.4,52.7z"/>
			<path d="M108,52.4c0.4-0.2,0.4-0.6,0.3-0.8c-0.1-0.1-0.3-0.1-0.4,0.1C107.9,51.8,108.3,52,108,52.4z"/>
			<path d="M109,52.3c-0.3-0.3-0.2-0.7,0-0.9c0.1-0.1,0.3,0,0.3,0.2C109.3,51.8,108.9,51.8,109,52.3z"/>
			<path d="M112.4,52.5c0.4-0.2,0.4-0.6,0.3-0.8c-0.1-0.1-0.3-0.1-0.4,0.1C112.2,51.9,112.6,52.1,112.4,52.5z"/>
			<path d="M110.7,52.7c-0.3-0.3-0.3-0.7-0.2-0.8c0.1-0.1,0.3-0.1,0.4,0.1C111,52.2,110.7,52.1,110.7,52.7z"/>
		</g>
		<path class="st8" d="M79.3,40c1-0.2,3.4-0.8,4.4-1.4c1.8-1,4.1,0,6.5-1.7c1.4-1,3.3-0.6,4.7-1.1c1.4-0.5,2.7-0.1,3.5-0.5
			c0.8-0.4,1.2-0.5,1.3,0.1c0.1,1.1,2.3,2.4,3.8,2.5"/>
		<path class="st8" d="M83.2,40.5c0.6-0.2,2.6-1.2,3.4-2"/>
		<path class="st8" d="M85,40.6c1-0.5,2.7-1.3,4.2-2.3"/>
		<path class="st8" d="M87,40.6c0.9-0.4,2.5-1.1,3.5-1.9"/>
		<path class="st8" d="M88.3,40.9c0.8-0.3,2.1-1,2.8-1.4"/>
		<path class="st8" d="M89.1,41.4c0.8-0.3,2-1,2.8-1.5"/>
		<path class="st8" d="M90,41.8c0.4-0.4,2.1-1.5,3-2"/>
		<path class="st8" d="M91.4,42.3c0.8-0.5,1.6-1.1,2.5-1.7"/>
		<path class="st8" d="M94.1,41.8c0.6-0.3,1.4-1.1,1.8-1.4"/>
		<path class="st8" d="M95.3,42.1c0.5-0.3,1.3-1,2-1.9"/>
		<path class="st8" d="M96.1,42.7c0.3-0.2,0.9-0.8,1.4-1.4"/>
		<path class="st8" d="M97.4,43.4c0.3-0.3,0.6-0.7,0.9-1.1"/>
		<path class="st8" d="M99,44.1c0.3-0.2,0.8-0.9,1.3-1.6"/>
		<path class="st8" d="M100.5,44.3c0.3-0.3,0.9-1.2,1.2-1.6"/>
		<path class="st8" d="M104.5,44.8c0.2-0.3,0.5-0.6,0.6-0.9"/>
		<path class="st8" d="M105.5,45c0-0.3,0-0.6,0.1-0.9"/>
		<path class="st8" d="M103,44.8c0.2-0.2,0.3-0.4,0.5-0.7"/>
		<path class="st8" d="M101.8,44.5c0.2-0.2,0.3-0.3,0.4-0.5"/>
		<path class="st8" d="M106.4,46.7c0-0.2,0-0.6,0-0.9"/>
		<path class="st8" d="M107,47.8c0-0.3,0-0.7,0.1-1"/>
		<path class="st8" d="M109.9,47.5c0.2,0.3,0.3,0.7,0.5,0.8c0.2,0.1,0.2,0.6,0.5,0.9"/>
		<path class="st8" d="M111.3,49.5c0.1,0.2,0.2,0,0.2-0.4c0-0.4,0.4-0.8,0.1-1.3c-0.1-0.2,0.1-0.7,0-1c-0.1-0.3,0-0.8-0.2-1.2"/>
		<path class="st8" d="M114.1,46c-0.2-0.1-1-0.6-1.3-1"/>
		<path class="st8" d="M114.5,45.7c-0.2-0.2-0.4-0.3-0.6-0.5"/>
		<path class="st8" d="M115.8,45.6c-0.3-0.2-0.9-0.6-1.2-0.9"/>
		<path class="st8" d="M117,45.3c-0.4-0.2-1-0.5-1.3-0.7"/>
		<path class="st8" d="M119.2,44c-0.4-0.2-0.9-0.6-1.2-0.8"/>
		<path class="st8" d="M118,44.8c-0.3-0.2-1-0.6-1.3-0.8"/>
		<path class="st8" d="M120.4,43.8c-0.5-0.3-1.1-0.6-1.4-0.9"/>
		<path class="st8" d="M121.5,43.4c-0.3-0.1-0.8-0.5-1.1-0.7"/>
		<path class="st8" d="M122.3,42.7c-0.3-0.2-0.7-0.5-0.9-0.7"/>
		<path class="st8" d="M123.4,42.6c0-0.5-0.7-1.1-1-1.5"/>
		<path class="st8" d="M124.7,42.9c-0.5-0.4-1.2-1.2-1.6-1.8"/>
		<path class="st8" d="M125.8,43c-0.4-0.3-1.5-1.6-1.8-2.2"/>
		<path class="st8" d="M127.6,43.1c-0.4-0.4-1.6-1.4-2.6-2.2"/>
		<path class="st8" d="M128.4,42.7c-0.5-0.3-1.9-1.6-2.9-2.2"/>
		<path class="st8" d="M129.7,42.6c-0.6-0.3-2.8-1.8-4-2.9"/>
		<path class="st8" d="M131.7,42.5c-0.9-0.3-4.1-2-5.2-3"/>
		<path class="st8" d="M135.1,42.9c-2.7-0.8-5.6-2.6-7.1-3.7"/>
		<path class="st8" d="M137.2,42.5c-0.9-0.3-4.1-1.6-5.2-2.4"/>
		<path class="st8" d="M139.7,42.5c-1.8-0.5-3.3-1.5-5.6-1.9c-2.3-0.4-3.8-0.7-5.3-1.7c-1.5-1-3-0.7-3.8-1.4
			c-0.8-0.7-1.7-0.8-2.5-0.7c-0.8,0.1-3.2,0.4-3.7-0.7c-0.2,1.7-1.4,1.4-1.8,1.9c-0.4,0.6-1.2,0.7-1.7,0.5c-1.2-0.4-1.9,0.5-2.6,0.1
			"/>
		<path d="M103,39.1c-0.1,0-0.2,0-0.3,0.2c-0.1,0.2-0.4,0.2-0.5,0c-0.1-0.1-0.1-0.2-0.2-0.2C102.4,38.8,102.7,39.2,103,39.1z"/>
		<path class="st8" d="M101.4,39.1c0.1,0,0.4,0,0.6,0.1"/>
		<path class="st8" d="M100.4,40.2c0.1-0.1,0.2-0.3,1.1-0.3"/>
	</g>
	<g>
		<polygon class="st18" points="112.2,83 112.4,78.7 112.4,82.6 		"/>
		<polyline class="st18" points="113.9,82.6 115.1,80.8 114,82.7 		"/>
		<polyline class="st19" points="107.8,82.9 109.1,79.2 110.5,82.9 		"/>
		<polyline class="st19" points="111.2,82.8 112.3,80.2 113.3,82.5 		"/>
		<line class="st19" x1="112.3" y1="80.1" x2="113.4" y2="81.6"/>
		<path class="st18" d="M103.9,82.7c0.8,0.2,1.8,0.7,2.1,1.9c0.6-0.2,1.4,0.4,2,0.1c0.6-0.3,1,0.2,1.4,0c0.4-0.2,1.2,0.2,1.6,0
			c0.4-0.2,1.6-0.2,1.9,0c0.6-0.4,1.3-1.6,1-2.3c0-0.1,0-0.2-1.3-0.2l-0.4,0.7h-3.5v0.4c-0.8,0-1.9,0-2.2,0
			C105.4,83.3,105,82.8,103.9,82.7z"/>
		<path class="st18" d="M111.9,83c0-0.5-0.4-1-1-1c-0.5,0-1,0.4-1,1H111.9z"/>
		<polygon class="st18" points="107.9,83.3 107.8,80.2 107.2,80.2 107.1,83.3 		"/>
		<polygon class="st18" points="109,83 109.1,77.2 109.2,83 		"/>
		<g>
			<path d="M109.1,77.7c0.1,0,0.2-0.1,0.3-0.3c0-0.1,0.3-0.1,0.4-0.1c0.1,0.1,0.3,0,0.3-0.2c0,0.5-0.4,0.6-1,0.6c-0.7,0-1-0.1-1-0.6
				c0.1,0.2,0.2,0.2,0.3,0.2c0.1-0.1,0.4-0.1,0.4,0.1C108.9,77.6,109,77.7,109.1,77.7z"/>
			<path d="M108.7,78c-0.4,0.2-0.4,0.6,0,1c0.5,0.5,0.7,0.6,0.2,1.2c-0.2,0.2-0.5,0.5-0.2,0.8c0.3,0.3,0.8,0.8,0.5,1.1
				c0.4-0.1,0.1-0.9-0.1-1.1c-0.2-0.2-0.3-0.3,0-0.6c0.6-0.6,0.7-0.8-0.1-1.6c-0.2-0.2-0.3-0.4-0.1-0.5c0.2,0,0.3-0.1,0.2-0.3
				C109,78,108.9,78,108.7,78z"/>
			<path d="M109.5,78c0.4,0.2,0.4,0.6,0,1c-0.5,0.5-0.7,0.6-0.2,1.2c0.2,0.2,0.5,0.5,0.2,0.8c-0.3,0.3-0.8,0.8-0.5,1.1
				c-0.4-0.1-0.1-0.9,0.1-1.1c0.2-0.2,0.3-0.3,0-0.6c-0.6-0.6-0.7-0.8,0.1-1.6c0.2-0.2,0.3-0.4,0.1-0.5c-0.2,0-0.3-0.1-0.2-0.3
				C109.2,78,109.3,78,109.5,78z"/>
			<path d="M109.1,77.1c-0.3,0-0.3,0.1,0,0.1C109.4,77.3,109.4,77.1,109.1,77.1z"/>
		</g>
		<path class="st18" d="M113.5,82.3l0-3.6l-0.2,3.6C113.4,82.3,113.4,82.3,113.5,82.3z"/>
		<polygon class="st18" points="113.4,79.1 112.4,80 112.4,80.1 		"/>
		<path class="st20" d="M108.7,83.3c1.6,0,2.9,0,3.6,0c0.7,0,1.7,0,1.7-0.3"/>
		<path class="st21" d="M112.2,83c0.3,0,1.5,0,1.6,0c0.1,0,0.2,0,0.2-0.1"/>
		<path class="st20" d="M105.5,83.7c0.2,0.2,0.4,0.3,0.7,0.3c1.6,0.1,5.2,0.1,6.3,0.1c1.1-0.1,1.3-0.1,1.4-0.3"/>
		<polygon class="st22" points="115.2,83 115.9,81.8 115.1,80.8 114.4,82 		"/>
		<polygon class="st23" points="115.2,83 114.4,82 114.5,81.7 115.4,82.7 		"/>
		<polygon class="st24" points="115.4,82.7 114.5,81.7 114.7,81.4 115.5,82.4 		"/>
	</g>
	<g>
		<g>
			<path class="st25" d="M107.5,59.3c4.5,0,8.8,1.5,12,3.1c-0.3-0.9-0.7-2.1-1-2.7c-2.9-1.5-6.8-2.7-10.9-2.7s-8,1.2-10.9,2.7
				c-0.3,0.6-0.8,1.8-1,2.7C98.7,60.8,103,59.3,107.5,59.3z"/>
		</g>
		<g>
			<path class="st8" d="M97.9,59.6c0.4-0.1,0.6,0,0.7,0.2c0.1,0.2,0.1,0.6,0.2,0.8"/>
			<path class="st8" d="M98.6,59.8c0-0.2,0-0.4,0.2-0.5"/>
			<path class="st8" d="M101.4,58.5c-0.3,0.1-0.4,0.3-0.2,0.6c0.1,0.3,0.2,0.4,0.4,0.4c0.2,0,0.3-0.3,0.2-0.5
				C101.8,58.5,101.7,58.4,101.4,58.5z"/>
			<path class="st8" d="M100.9,58.5c0.2,0.2,0.8,0,0.9-0.2"/>
			<path class="st8" d="M101.2,59.7c0.1-0.1,0.5-0.3,0.8-0.2"/>
			<path class="st8" d="M113.2,59.6c0.2,0,0.4-0.1,0.6-0.5c0.1-0.4,0.1-0.6-0.1-0.7"/>
			<path class="st8" d="M114.4,59.9c-0.1-0.1-0.3-0.3-0.1-0.7c0.2-0.4,0.3-0.5,0.6-0.5"/>
			<path class="st8" d="M113.6,59c0.2,0,0.6,0.1,0.8,0.2"/>
			<path class="st8" d="M117.4,59.7c-0.1-0.4-0.7-0.5-0.9-0.3c-0.2,0.2,0.1,0.5,0.4,0.6c0.3,0.1,0.8,0.4,0.7,0.6
				c-0.1,0.3-1,0.2-1.3-0.4"/>
			<line class="st8" x1="117" y1="59.4" x2="117" y2="60.7"/>
		</g>
	</g>
	<g>
		<polygon class="st5" points="107.6,63.1 107.1,60.8 105.8,62.7 106.2,60.4 104.3,61.7 105.6,59.8 103.3,60.2 105.2,58.9 103,58.4 
			105.2,58 103.3,56.7 105.6,57.1 104.3,55.2 106.2,56.5 105.8,54.2 107.1,56.1 107.6,53.8 108,56.1 109.3,54.2 108.9,56.5 
			110.8,55.2 109.6,57.1 111.8,56.7 109.9,58 112.2,58.4 109.9,58.9 111.8,60.2 109.5,59.8 110.8,61.7 108.9,60.4 109.3,62.7 
			108,60.8 		"/>
		<g>
			<path class="st5" d="M107.6,60.9c1.3,0,2.4-1.1,2.4-2.4c0-1.3-1.1-2.4-2.4-2.4c-1.3,0-2.4,1.1-2.4,2.4
				C105.1,59.8,106.2,60.9,107.6,60.9z"/>
			<path class="st5" d="M107.6,58.4"/>
		</g>
		<g>
			<path d="M107.1,59.5c0.1-0.1,0.3-0.1,0.4,0c0.1-0.1,0.3-0.1,0.4,0c0.1,0.1,0.3,0,0.4,0.1c-0.1,0-0.3,0.1-0.4,0.1
				c-0.2-0.1-0.1,0-0.4,0c-0.3,0-0.3-0.1-0.4,0c-0.2,0.1-0.4-0.1-0.4-0.1C106.8,59.6,107,59.6,107.1,59.5z"/>
			<path d="M107.6,59.9c0.1,0,0.2,0,0.3-0.1c0,0,0.1-0.1,0.1,0c0,0.1-0.1,0.2-0.4,0.2c-0.3,0-0.4-0.1-0.4-0.2c0-0.1,0,0,0.1,0
				C107.3,59.9,107.4,59.9,107.6,59.9z"/>
			<path d="M107.6,59.1c0.1,0,0.1,0,0.2-0.1c0,0,0.1,0,0.2,0c0.1,0,0.1,0,0.1-0.1c0-0.1,0-0.2-0.1-0.2c0.1,0,0.1,0.1,0,0.2
				c0,0-0.1,0.1-0.1,0c-0.1,0-0.1,0-0.2,0.1C107.6,59.1,107.6,59.1,107.6,59.1c0,0-0.1-0.1-0.1-0.1c0,0-0.1-0.1-0.2-0.1
				c-0.1,0-0.1,0-0.1,0c0-0.1,0-0.2,0-0.2c-0.1,0.1-0.1,0.2-0.1,0.2c0,0,0,0.1,0.1,0.1c0.1,0,0.1,0,0.2,0
				C107.4,59.1,107.5,59.1,107.6,59.1z"/>
			<path d="M106,58c0.2-0.1,0.4-0.2,0.8-0.2c0.3,0,0.5,0.1,0.6,0.1c0.1,0,0.1,0.1,0,0.1c-0.1,0-0.3,0-0.5-0.1
				C106.6,57.9,106.3,57.9,106,58C106,58,106,58,106,58z"/>
			<path d="M107.1,58c0,0.2-0.2,0.3-0.4,0.3c-0.3,0-0.5-0.2-0.5-0.4c0,0.2,0.2,0.3,0.5,0.3C106.9,58.3,107,58.2,107.1,58z"/>
			<path d="M106.5,58c0,0.1,0.1,0.2,0.2,0.2c0.1,0,0.2,0,0.3-0.2c-0.1-0.1-0.3-0.1-0.4-0.1C106.7,58,106.6,58.1,106.5,58z"/>
			<path d="M107.4,57.7c-0.4-0.2-0.9-0.3-1.2-0.2c-0.1,0-0.2,0.1-0.1,0.1c0.1,0.1,0.1,0,0.2,0c0.3,0,0.7,0,0.9,0.1
				C107.3,57.7,107.3,57.7,107.4,57.7C107.4,57.7,107.5,57.7,107.4,57.7z"/>
			<path d="M109.1,58c-0.2-0.1-0.4-0.2-0.8-0.2c-0.3,0-0.5,0.1-0.6,0.1c-0.1,0-0.1,0.1,0,0.1c0.1,0,0.3,0,0.5-0.1
				C108.5,57.9,108.8,57.9,109.1,58C109.1,58,109.2,58,109.1,58z"/>
			<path d="M108.1,58c0,0.2,0.2,0.3,0.4,0.3c0.3,0,0.5-0.2,0.5-0.4c0,0.2-0.2,0.3-0.5,0.3C108.3,58.3,108.1,58.2,108.1,58z"/>
			<path d="M108.3,57.9c0,0.1,0.1,0.2,0.2,0.2c0.1,0,0.3,0,0.3-0.3c-0.1-0.1-0.3,0-0.4,0C108.5,57.9,108.4,58,108.3,57.9z"/>
			<path d="M107.7,57.7c0.4-0.2,0.9-0.3,1.2-0.2c0.1,0,0.2,0.1,0.1,0.1c-0.1,0.1-0.1,0-0.2,0c-0.3,0-0.7,0-0.9,0.1
				C107.8,57.7,107.8,57.7,107.7,57.7C107.7,57.7,107.6,57.7,107.7,57.7z"/>
		</g>
	</g>
</g>
</svg>
