<?xml version="1.0" encoding="utf-8"?>
<!-- Generator: Adobe Illustrator 22.1.0, SVG Export Plug-In . SVG Version: 6.00 Build 0)  -->
<svg version="1.1" id="layer_1" xmlns="http://www.w3.org/2000/svg" xmlns:xlink="http://www.w3.org/1999/xlink" x="0px" y="0px"
	 viewBox="0 0 216 144" style="enable-background:new 0 0 216 144;" xml:space="preserve">
<style type="text/css">
	.st0{fill:#D14A48;stroke:#000000;stroke-width:0.25;}
	.st1{fill:#FFF243;stroke:#000000;stroke-width:0.25;}
	.st2{fill:#D14A48;stroke:#000000;stroke-width:3.120000e-02;}
	.st3{fill:#FFF243;stroke:#000000;stroke-width:3.120000e-02;}
	.st4{fill:none;stroke:#000000;stroke-width:3.120000e-02;}
	.st5{fill:#4C9D6B;stroke:#000000;stroke-width:3.120000e-02;}
	.st6{fill:#FFFFFF;stroke:#000000;stroke-width:3.120000e-02;}
	.st7{fill:#4861A0;stroke:#000000;stroke-width:3.120000e-02;}
	.st8{fill:#FFFFFF;stroke:#000000;stroke-width:0.125;}
	.st9{fill:none;stroke:#000000;stroke-width:0.125;}
	.st10{fill:#D14A48;stroke:#000000;stroke-width:0.125;}
	.st11{fill:#FFF243;stroke:#000000;stroke-width:0.125;}
	.st12{fill:#D14A48;stroke:#000000;stroke-width:6.250000e-02;}
	.st13{fill:#FFF243;stroke:#000000;stroke-width:6.250000e-02;}
	.st14{fill:none;stroke:#000000;stroke-width:6.250000e-02;}
	.st15{fill:#4861A0;stroke:#000000;stroke-width:6.250000e-02;}
	.st16{fill:#FFFFFF;stroke:#000000;stroke-width:6.250000e-02;}
	.st17{fill:#4C9D6B;stroke:#000000;stroke-width:6.250000e-02;}
	.st18{fill:#D14A48;}
	.st19{fill:#4861A0;}
	.st20{fill:#60589F;stroke:#000000;stroke-width:6.250000e-02;}
	.st21{fill:#4861A0;stroke:#000000;stroke-width:0.125;}
	.st22{fill:#FFF243;}
</style>
<rect x="0.5" y="0.5" class="st0" width="216" height="144"/>
<rect x="0.5" y="36.5" class="st1" width="216" height="72"/>
<g>
	<path class="st2" d="M48.2,64.5C47,64,46.6,63,47,62.1c0.4-1,2.4-1.3,3.7-1c1.3-0.3,3.2,0,3.7,1c0.4,1,0,1.9-1.2,2.4
		C52,64.3,49.9,64,48.2,64.5z"/>
	<path class="st3" d="M50.7,63.2c0.5-1.1,1.4-2,2.2-2.2c0.1,0,0.2,0,0.4,0.1c0.2,0.1,0.3,0.1,0.2,0.2c-0.1,0-0.1,0-0.2,0
		c-0.8,0.3-1.8,0.8-2.5,2.3C50.8,63.7,50.7,63.4,50.7,63.2z"/>
	<path class="st3" d="M50.7,63.2c-0.5-1.1-1.4-2-2.2-2.2c-0.1,0-0.2,0-0.4,0.1c-0.2,0.1-0.3,0.1-0.2,0.2c0.1,0,0.1,0,0.2,0
		c0.8,0.3,1.8,0.8,2.5,2.3C50.6,63.7,50.7,63.4,50.7,63.2z"/>
	<path class="st3" d="M53.2,65C53.2,65,53.3,65,53.2,65c0,0.3-1.1,0.5-2.5,0.5c-1.4,0-2.6-0.2-2.6-0.4c0,0,0,0,0-0.1
		c0.1-0.1,0-0.4-0.1-0.5c-0.2,0-0.3-0.1,0-0.2c0.5-0.1,1.7-0.3,2.6-0.3c0.9,0,2.2,0.2,2.6,0.3c0.3,0.1,0.2,0.2,0,0.2
		C53.2,64.6,53.2,64.9,53.2,65z"/>
	<path class="st4" d="M53.3,64.5c-0.2,0-0.7-0.2-1.2-0.2"/>
	<path class="st4" d="M48.2,65c0.2-0.2,1.3-0.3,2.5-0.3c1.3,0,2.3,0.2,2.5,0.3"/>
	<path class="st4" d="M48.1,64.5c0.2,0,0.7-0.2,1.2-0.2"/>
	<path class="st3" d="M50.7,60.8l-0.3,0.4c0.1,0.2,0.1,0.4,0.1,0.7c0,0.2,0,0.5,0.2,0.5c0.2,0,0.2-0.2,0.2-0.5c0-0.2,0-0.5,0.1-0.7
		L50.7,60.8z"/>
	<path class="st3" d="M50.7,63.8c-0.2,0.4-0.8,0.3-0.9,0c-0.1,0.3-0.6,0.4-0.9,0.1c-0.2,0.3-0.5,0.4-0.8,0.2
		c-0.1,0.4-0.7,0.2-0.9-0.3c-0.3-0.5-0.4-0.4-0.6-0.3c-0.1-0.5,0.5-0.4,0.7,0l0.3-0.2l0,0.1h0.3l-0.2,0.2l0.1,0.2l-0.4,0.1
		c0.3,0.4,0.6,0.3,0.7-0.1c0.1,0.2,0.3,0.3,0.5,0.2c0.2-0.1,0.3-0.3,0.2-0.5l-0.4,0.3l0-0.2l-0.3,0l0.2-0.2l-0.1-0.2l0.5,0.1
		l-0.4-0.4l0.2,0l0.1-0.3l0.2,0.2l0.2-0.1l-0.1,0.6l0.4-0.3l0,0.2l0.3,0l-0.2,0.2l0.1,0.2l-0.5-0.1c0,0.3,0.3,0.4,0.4,0.4
		c0.1,0,0.4-0.2,0.4-0.4c0.1,0.2,0.3,0.3,0.5,0.3c0.2,0,0.4-0.3,0.3-0.5l-0.5,0.2l0-0.2l-0.3-0.1l0.3-0.1l0-0.2l0.5,0.2l-0.3-0.5
		l0.2,0l0.2-0.3l0.2,0.3l0.2,0L50.8,63l0.5-0.2l0,0.2l0.3,0.1l-0.3,0.1l0,0.2l-0.5-0.2c-0.1,0.3,0.1,0.5,0.3,0.5
		c0.2,0,0.4-0.2,0.5-0.3c0.1,0.2,0.3,0.4,0.4,0.4c0.2,0,0.5-0.2,0.4-0.4l-0.5,0.1l0.1-0.2l-0.2-0.2l0.3,0l0-0.2l0.4,0.3l-0.1-0.6
		l0.2,0.1l0.2-0.2l0.1,0.3l0.2,0l-0.4,0.4l0.5-0.1l-0.1,0.2l0.2,0.2l-0.3,0l0,0.2l-0.4-0.3c-0.1,0.2,0,0.4,0.2,0.5
		c0.1,0.1,0.4-0.1,0.5-0.2c0.1,0.3,0.4,0.4,0.7,0.1l-0.4-0.1l0.1-0.2l-0.2-0.2h0.3l0-0.1l0.3,0.2c0.2-0.4,0.8-0.5,0.7,0
		c-0.1-0.1-0.3-0.2-0.6,0.3c-0.3,0.5-0.8,0.7-0.9,0.3c-0.3,0.2-0.6,0.1-0.8-0.2c-0.3,0.3-0.8,0.2-0.9-0.1
		C51.4,64,50.9,64.1,50.7,63.8z"/>
	<g>
		<path class="st5" d="M52,64.4c0.4,0,0.4,0.2,0,0.2S51.7,64.3,52,64.4z"/>
		<path class="st5" d="M49.3,64.4c-0.4,0-0.4,0.2,0,0.2C49.7,64.5,49.7,64.3,49.3,64.4z"/>
	</g>
	<g>
		<path class="st2" d="M52.6,63.2c0.2,0,0.2,0.4,0,0.4C52.3,63.6,52.3,63.2,52.6,63.2z"/>
		<path class="st2" d="M50.7,63c0.2,0,0.2,0.4,0,0.4S50.4,63,50.7,63z"/>
		<path class="st2" d="M54.3,63.6c0.1,0.1-0.1,0.4-0.2,0.3C54,63.9,54.2,63.6,54.3,63.6z"/>
		<path class="st2" d="M48.8,63.2c-0.2,0-0.2,0.4,0,0.4C49.1,63.6,49.1,63.2,48.8,63.2z"/>
		<path class="st2" d="M47.1,63.6C47,63.7,47.2,64,47.3,64C47.4,63.9,47.2,63.6,47.1,63.6z"/>
		<path class="st2" d="M50.4,64.5C50.4,64.5,50.3,64.5,50.4,64.5l-0.1-0.2c0,0,0,0,0.1,0H51c0,0,0.1,0,0.1,0v0.1c0,0,0,0-0.1,0H50.4
			z"/>
		<polygon class="st2" points="53.4,64.7 53.2,64.8 53.1,64.7 53.2,64.6 		"/>
		<polygon class="st2" points="48,64.7 48.2,64.8 48.3,64.7 48.1,64.6 		"/>
	</g>
	<g>
		<path class="st6" d="M53.3,63.7c0.1,0,0.1,0.2,0,0.2C53.2,63.9,53.2,63.7,53.3,63.7z"/>
		<path class="st6" d="M51.6,63.3c0.1,0,0.1,0.2,0,0.2S51.4,63.3,51.6,63.3z"/>
		<path class="st6" d="M48.1,63.7c-0.1,0-0.1,0.2,0,0.2C48.2,63.9,48.2,63.7,48.1,63.7z"/>
		<path class="st6" d="M49.8,63.3c-0.1,0-0.1,0.2,0,0.2S49.9,63.3,49.8,63.3z"/>
		<path class="st6" d="M51.4,64.3c0.1,0,0.1,0.2,0,0.2C51.2,64.5,51.2,64.3,51.4,64.3z"/>
		<path class="st6" d="M52.7,64.5c0.1,0,0.1,0.2,0,0.2C52.6,64.7,52.6,64.5,52.7,64.5z"/>
		<path class="st6" d="M50,64.3c-0.1,0-0.1,0.2,0,0.2C50.2,64.5,50.2,64.3,50,64.3z"/>
		<path class="st6" d="M48.7,64.5c-0.1,0-0.1,0.2,0,0.2C48.8,64.7,48.8,64.5,48.7,64.5z"/>
	</g>
	<path class="st2" d="M50.7,65.4c-1.3,0-2.3-0.1-2.3-0.3c0-0.2,1-0.3,2.3-0.3c1.3,0,2.3,0.1,2.3,0.3C53,65.2,52,65.4,50.7,65.4z"/>
	<path class="st7" d="M50.7,61.1c-0.2,0-0.4-0.2-0.4-0.4c0-0.2,0.2-0.4,0.4-0.4c0.2,0,0.4,0.2,0.4,0.4
		C51.1,60.9,50.9,61.1,50.7,61.1z"/>
	<path class="st3" d="M50.6,59.7v0.2h-0.2v0.2h0.2v0.6h-0.3c0,0,0,0.1,0,0.2h0.8c0,0,0-0.1,0-0.2h-0.3v-0.6H51v-0.2h-0.2v-0.2H50.6z
		"/>
</g>
<g>
	<rect x="48.4" y="69.5" class="st8" width="4.5" height="23.5"/>
	<rect x="92" y="69.5" class="st8" width="4.5" height="23.5"/>
</g>
<g>
	<line class="st9" x1="52" y1="69.5" x2="52" y2="93"/>
	<line class="st9" x1="93" y1="69.5" x2="93" y2="93"/>
</g>
<g>
	<g>
		<path class="st10" d="M47.5,78.7c-1.1,0.6-1.6,1.2-1.1,1.7c0.2,0.2,0.8,0.8,2,0.8v-2C47.8,79.2,47.4,78.9,47.5,78.7z"/>
		<path class="st10" d="M48.4,81.3c-2.3,0-2.5-1.3-3.1-2.9c-0.4-1.1-0.1-1.3,0.7-1.9c1.6-1.3,7.5-2.5,12.1-0.9v2.8
			c-3.4-1.4-7.9-1.1-10.6,0.3c-1.1,0.6-1.6,1.2-1.1,1.7C46.5,80.6,47.1,81.2,48.4,81.3L48.4,81.3z"/>
		<path class="st10" d="M46,88.4c-0.2-0.1,0.1-0.4,0.5-0.6c2.8-1.9,5.3-2.3,7.1-3.6c1.4-1.1,1.4-1,1.4-2.4c0-0.8,0.1-1.7-0.7-1.9
			c-0.6-0.2-1-0.3-1.3-0.3v0.1c2.2,0.6,2,0.8,0.9,1.8c-1.3,1.2-4,2.6-6.2,3.3c-2.2,0.7-2.4,1.3-2.2,1.9c0.1,0.4,0.2,0.9,0.2,1.2
			C45.6,87.9,45.6,88.2,46,88.4z"/>
		<path class="st10" d="M53,79.5c2.2,0.6,2,0.8,0.9,1.8c-0.3,0.2-0.6,0.5-0.9,0.7V79.5z"/>
		<path class="st10" d="M46,88.4c-0.2-0.1,0.1-0.4,0.5-0.6c0.1,0,0.1-0.1,0.2-0.1c0.6,0.5,1.2,1.9,0.1,2.6
			C46.8,89.3,46.3,88.5,46,88.4z"/>
	</g>
	<g>
		<path class="st10" d="M97.5,78.7c1.1,0.6,1.6,1.2,1.1,1.7c-0.2,0.2-0.8,0.8-2,0.8v-2C97.2,79.2,97.6,78.9,97.5,78.7z"/>
		<path class="st10" d="M96.6,81.3c2.3,0,2.5-1.3,3.1-2.9c0.4-1.1,0.1-1.3-0.7-1.9c-1.6-1.3-7.5-2.5-12.1-0.9v2.8
			c3.4-1.4,7.9-1.1,10.6,0.3c1.1,0.6,1.6,1.2,1.1,1.7C98.5,80.6,97.9,81.2,96.6,81.3L96.6,81.3z"/>
		<path class="st10" d="M99,88.4c0.2-0.1-0.1-0.4-0.5-0.6c-2.8-1.9-5.3-2.3-7.1-3.6C90,83,90,83.1,90,81.7c0-0.8-0.1-1.7,0.7-1.9
			c0.6-0.2,1-0.3,1.3-0.3v0.1c-2.2,0.6-2,0.8-0.9,1.8c1.3,1.2,4,2.6,6.2,3.3c2.2,0.7,2.4,1.3,2.2,1.9c-0.1,0.4-0.2,0.9-0.2,1.2
			C99.4,87.9,99.4,88.2,99,88.4z"/>
		<path class="st10" d="M92,79.5c-2.2,0.6-2,0.8-0.9,1.8c0.3,0.2,0.6,0.5,0.9,0.7V79.5z"/>
		<path class="st10" d="M99,88.4c0.2-0.1-0.1-0.4-0.5-0.6c-0.1,0-0.1-0.1-0.2-0.1c-0.6,0.5-1.2,1.9-0.1,2.6
			C98.2,89.3,98.7,88.5,99,88.4z"/>
	</g>
</g>
<g>
	<g>
		<path class="st11" d="M48.4,68.5c0-0.6-0.4-1.1-0.8-1.2v-1.7h6.2v1.7c-0.5,0.1-0.8,0.6-0.8,1.2H48.4z"/>
		<path class="st11" d="M48.4,94c0,0.6-0.4,1.1-0.8,1.2v1.7h6.2v-1.7C53.3,95.2,53,94.6,53,94H48.4z"/>
		<path class="st11" d="M53,93.4c0.4,0,0.4,0.7,0,0.7h-4.5c-0.5,0-0.5-0.7,0-0.7H53z"/>
		<path class="st11" d="M53,69.1c0.4,0,0.4-0.7,0-0.7h-4.5c-0.5,0-0.5,0.7,0,0.7H53z"/>
	</g>
	<g>
		<path class="st11" d="M96.6,68.5c0-0.6,0.4-1.1,0.8-1.2v-1.7h-6.2v1.7c0.5,0.1,0.8,0.6,0.8,1.2H96.6z"/>
		<path class="st11" d="M96.6,94c0,0.6,0.4,1.1,0.8,1.2v1.7h-6.2v-1.7c0.5-0.1,0.8-0.6,0.8-1.2H96.6z"/>
		<path class="st11" d="M92,93.4c-0.4,0-0.4,0.7,0,0.7h4.5c0.5,0,0.5-0.7,0-0.7H92z"/>
		<path class="st11" d="M92,69.1c-0.4,0-0.4-0.7,0-0.7h4.5c0.5,0,0.5,0.7,0,0.7H92z"/>
	</g>
</g>
<g>
	<line class="st9" x1="47.6" y1="67.3" x2="53.8" y2="67.3"/>
	<line class="st9" x1="47.6" y1="95.2" x2="53.8" y2="95.2"/>
	<line class="st9" x1="97.4" y1="67.3" x2="91.2" y2="67.3"/>
	<line class="st9" x1="97.4" y1="95.2" x2="91.2" y2="95.2"/>
</g>
<g>
	<path class="st12" d="M72.5,52c1.9,0,5.7,0.9,7,1.7c2.7-0.7,6.2,0.8,7.4,2.3c-0.1,1.8-1.3,2-1.9,3.3c-0.6,1.3-1.9,1.6-2.6,2.2
		c-1.3-0.3-7.1-1.1-9.9-1.1c-2.8,0-8.6,0.8-9.9,1.1c-0.7-0.5-2-0.9-2.6-2.2c-0.6-1.3-1.8-1.5-1.9-3.3c1.2-1.5,4.7-2.9,7.4-2.3
		C66.8,52.9,70.6,52,72.5,52z"/>
	<path class="st13" d="M63.3,63.7c-0.1,0.1-0.1,0.1-0.1,0.2c0,0.8,4.2,1.5,9.3,1.5s9.3-0.7,9.3-1.5c0-0.1,0-0.1-0.1-0.2
		c-0.2-0.3,0.1-1.4,0.3-1.9c0.6,0.1,1.2-0.4,0-0.7c-1.7-0.4-6.2-1.1-9.5-1.1c-3.3,0-7.8,0.7-9.5,1.1c-1.2,0.3-0.6,0.8,0,0.7
		C63.3,62.3,63.5,63.4,63.3,63.7z"/>
	<path class="st14" d="M63,61.7c0.6-0.1,2.5-0.6,4.4-0.8"/>
	<path class="st14" d="M81.7,63.7c-0.7-0.7-4.5-1.3-9.2-1.3c-4.7,0-8.5,0.5-9.2,1.3"/>
	<path class="st14" d="M82,61.7c-0.6-0.1-2.5-0.6-4.4-0.8"/>
	<path class="st15" d="M72.5,48.7c0.8,0,1.4-0.6,1.4-1.4c0-0.8-0.6-1.4-1.4-1.4c-0.8,0-1.4,0.6-1.4,1.4
		C71.1,48.1,71.7,48.7,72.5,48.7z"/>
	<path class="st13" d="M72.8,43.7v0.7h0.7V45h-0.7v2.1h1.1c0,0.2,0.1,0.5,0,0.6h-2.7c-0.1-0.1-0.1-0.5,0-0.6h1.1V45h-0.7v-0.6h0.7
		v-0.7H72.8z"/>
	<g>
		<path class="st13" d="M65,50.7c-2.3-1.1-5.2-0.3-6.5,1.5c-1.4,1.8-1,3.9-0.2,5l0.5,0.1l0.7-1.2c-1.3-1.4-1-3.4,0-4.2
			c1-0.9,3.1-1.9,5.4-0.7L65,50.7z"/>
		<path class="st13" d="M80.1,50.7c2.3-1.1,5.2-0.3,6.5,1.5c1.4,1.8,1,3.9,0.2,5l-0.5,0.1l-0.7-1.2c1.3-1.4,1-3.4,0-4.2
			c-1-0.9-3.1-1.9-5.4-0.7L80.1,50.7z"/>
		<path class="st13" d="M71.5,49.5c-1.8-1.3-4.6-1.1-6.2,0.5c-1.7,1.7-0.5,3.7,0.2,4.3L65.1,55l0.3,0.4c0.2-0.3,0.8-1.1,0.8-1.1
			c-1.3-1.3-1.5-3.2-0.2-4.1c1.6-1.1,3.7-1.3,5.5,0.1L71.5,49.5z"/>
		<path class="st13" d="M73.5,49.5c1.8-1.3,4.6-1.1,6.2,0.5c1.7,1.7,0.5,3.7-0.2,4.3l0.5,0.8l-0.3,0.4c-0.2-0.3-0.8-1.1-0.8-1.1
			c1.3-1.3,1.5-3.2,0.2-4.1c-1.6-1.1-3.7-1.3-5.5,0.1L73.5,49.5z"/>
		<path class="st13" d="M72.5,55.5l1.9-1.7c-0.7-0.7-0.8-2-0.8-3.1c0-1.1,0-2.1-1.1-2.1c-1.1,0-1.1,1-1.1,2.1c0,1.1-0.1,2.3-0.8,3.1
			L72.5,55.5z"/>
	</g>
	<path class="st13" d="M72.5,54.9l1.1-1.4c-0.4-0.6-0.5-1.7-0.5-2.5c0-0.9,0-1.7-0.6-1.7c-0.6,0-0.6,0.8-0.6,1.7
		c0,0.9-0.1,1.9-0.5,2.5L72.5,54.9z"/>
	<g>
		<path class="st16" d="M72.5,54c-0.6,0-0.6-0.9,0-0.9C73.1,53.1,73.1,54,72.5,54z"/>
		<path class="st16" d="M72.5,53c-0.6,0-0.6-0.9,0-0.9C73.1,52.1,73.1,53,72.5,53z"/>
		<path class="st16" d="M72.5,52c-0.6,0-0.6-0.8,0-0.8C73.1,51.2,73.1,52,72.5,52z"/>
		<path class="st16" d="M72.5,51c-0.5,0-0.5-0.8,0-0.8C73,50.2,73,51,72.5,51z"/>
		<path class="st16" d="M72.5,50.1c-0.5,0-0.5-0.8,0-0.8C73,49.4,73,50.1,72.5,50.1z"/>
	</g>
	<path class="st13" d="M72.5,59.1c0.9,1.3,2.7,1,3.3,0.2c0.4,1.1,2.2,1.4,3.2,0.4c0.7,1.1,1.9,1.5,2.9,0.8c0.5,1.3,2.4,0.6,3.4-1.1
		s1.6-1.5,2-1.1c0.5-1.9-1.7-1.5-2.4,0l-1.1-0.8L83.6,58h-1l0.6,0.8L83,59.3l1.4,0.2c-1.1,1.3-2.1,1-2.4-0.3c-0.2,0.6-1.2,1-1.7,0.8
		c-0.7-0.2-1.2-1-0.7-1.8l1.5,1.2l0.1-0.8l1-0.1l-0.8-0.6l0.3-0.8l-1.9,0.4l1.4-1.6l-0.7-0.1l-0.3-1l-0.7,0.7l-0.7-0.2l0.5,2
		l-1.5-1.2L77.5,57l-1,0.1l0.8,0.6L77,58.4l1.9-0.4c0,0.9-0.9,1.6-1.6,1.6c-0.5-0.1-1.3-0.8-1.5-1.6c-0.2,0.6-0.9,1.2-1.6,1.1
		c-0.7-0.1-1.5-0.9-1.2-1.9l1.9,0.9l-0.1-0.9l1-0.4l-1-0.4l0.1-0.9l-1.9,0.9l1-2l-0.8,0l-0.6-0.9l-0.6,0.9l-0.8,0l1,2l-1.9-0.9
		l0.1,0.9l-1,0.4l1,0.4l-0.1,0.9l1.9-0.9c0.3,1-0.5,1.8-1.2,1.9c-0.7,0.1-1.5-0.5-1.6-1.1c-0.2,0.8-1,1.5-1.5,1.6
		c-0.7,0.1-1.6-0.6-1.6-1.6l1.9,0.4l-0.3-0.8l0.8-0.6l-1-0.1l-0.1-0.8L66,57.4l0.5-2l-0.7,0.2L65,54.9l-0.3,1L64,56l1.4,1.6
		l-1.9-0.4l0.3,0.8L63,58.5l1,0.1l0.1,0.8l1.5-1.2c0.5,0.8-0.1,1.6-0.7,1.8c-0.5,0.2-1.5-0.2-1.7-0.8c-0.3,1.2-1.3,1.6-2.4,0.3
		l1.4-0.2l-0.2-0.6l0.6-0.8h-1l-0.1-0.5l-1.1,0.8c-0.7-1.5-2.9-1.8-2.4,0c0.5-0.4,1.1-0.6,2,1.1c1,1.7,2.9,2.4,3.4,1.1
		c1,0.7,2.1,0.3,2.9-0.8c1,1.1,2.8,0.8,3.2-0.4C69.8,60.1,71.6,60.4,72.5,59.1z"/>
	<g>
		<path class="st17" d="M67.6,61.4c-1.4,0.1-1.3,0.7,0.1,0.6C69,61.9,69,61.3,67.6,61.4z"/>
		<path class="st17" d="M77.4,61.4c1.4,0.1,1.3,0.7-0.1,0.6C76,61.9,76.1,61.3,77.4,61.4z"/>
	</g>
	<g>
		<path class="st12" d="M65.8,57.1c-0.9,0-0.9,1.3,0,1.3C66.6,58.4,66.6,57.1,65.8,57.1z"/>
		<path class="st12" d="M72.5,56.3c-0.9,0-0.9,1.3,0,1.3C73.4,57.5,73.4,56.3,72.5,56.3z"/>
		<path class="st12" d="M59.5,58.8c-0.4,0.3,0.2,1.4,0.7,1.1C60.6,59.6,59.9,58.5,59.5,58.8z"/>
		<path class="st12" d="M79.3,57.1c0.9,0,0.9,1.3,0,1.3C78.4,58.4,78.4,57.1,79.3,57.1z"/>
		<path class="st12" d="M85.5,58.8c0.4,0.3-0.2,1.4-0.7,1.1C84.5,59.6,85.1,58.5,85.5,58.8z"/>
		<path class="st12" d="M73.6,61.8c0.1,0,0.2,0,0.2-0.2v-0.4c0-0.1-0.1-0.2-0.2-0.2h-2.1c-0.1,0-0.2,0-0.2,0.2v0.4
			c0,0.1,0.1,0.2,0.2,0.2H73.6z"/>
		<polygon class="st12" points="62.7,62.7 63.4,62.9 63.9,62.5 63.2,62.3 		"/>
		<polygon class="st12" points="82.4,62.7 81.7,62.9 81.1,62.5 81.8,62.3 		"/>
	</g>
	<g>
		<g>
			<path class="st16" d="M64.9,49.5c-0.5,0-0.5,0.8,0,0.8C65.4,50.3,65.5,49.5,64.9,49.5z"/>
			<path class="st16" d="M65.7,48.8c-0.5,0-0.5,0.8,0,0.8C66.2,49.6,66.2,48.8,65.7,48.8z"/>
			<path class="st16" d="M66.5,48.3c-0.5,0-0.5,0.8,0,0.8C67.1,49.1,67.1,48.3,66.5,48.3z"/>
			<path class="st16" d="M67.6,48c-0.5,0-0.5,0.8,0,0.8C68.1,48.8,68.1,48,67.6,48z"/>
			<path class="st16" d="M68.5,47.9c-0.5,0-0.5,0.8,0,0.8S69.1,47.9,68.5,47.9z"/>
			<path class="st16" d="M69.5,47.9c-0.5,0-0.5,0.8,0,0.8C70,48.7,70.1,47.9,69.5,47.9z"/>
			<path class="st16" d="M70.4,48.1c-0.5,0-0.5,0.8,0,0.8C70.9,48.9,70.9,48.1,70.4,48.1z"/>
			<path class="st16" d="M71.3,48.5c-0.5,0-0.5,0.8,0,0.8C71.8,49.3,71.8,48.5,71.3,48.5z"/>
			<path class="st16" d="M64.4,50.3c-0.5,0-0.5,0.8,0,0.8C64.9,51.1,64.9,50.3,64.4,50.3z"/>
			<path class="st16" d="M64.1,51.3c-0.5,0-0.5,0.8,0,0.8C64.6,52.1,64.6,51.3,64.1,51.3z"/>
			<path class="st16" d="M64.2,52.3c-0.5,0-0.5,0.8,0,0.8C64.7,53,64.7,52.3,64.2,52.3z"/>
			<path class="st16" d="M64.6,53.2c-0.5,0-0.5,0.8,0,0.8S65.1,53.2,64.6,53.2z"/>
			<path class="st16" d="M65.1,53.9c-0.5,0-0.5,0.8,0,0.8S65.6,53.9,65.1,53.9z"/>
			<path class="st16" d="M63.9,49.5c-0.5,0-0.5,0.8,0,0.8C64.4,50.3,64.4,49.5,63.9,49.5z"/>
			<path class="st16" d="M62.9,49.4c-0.5,0-0.5,0.8,0,0.8C63.5,50.2,63.5,49.4,62.9,49.4z"/>
			<path class="st16" d="M62,49.4c-0.5,0-0.5,0.8,0,0.8C62.5,50.2,62.5,49.4,62,49.4z"/>
			<path class="st16" d="M61,49.6c-0.5,0-0.5,0.8,0,0.8C61.5,50.4,61.5,49.6,61,49.6z"/>
			<path class="st16" d="M60,50c-0.5,0-0.5,0.8,0,0.8C60.5,50.8,60.6,50,60,50z"/>
			<path class="st16" d="M59.2,50.5c-0.5,0-0.5,0.8,0,0.8C59.7,51.3,59.7,50.5,59.2,50.5z"/>
			<path class="st16" d="M58.4,51.2c-0.5,0-0.5,0.8,0,0.8C58.9,51.9,58.9,51.2,58.4,51.2z"/>
			<path class="st16" d="M57.8,52c-0.5,0-0.5,0.8,0,0.8C58.3,52.7,58.3,52,57.8,52z"/>
			<path class="st16" d="M57.4,52.9c-0.5,0-0.5,0.8,0,0.8C57.9,53.6,57.9,52.9,57.4,52.9z"/>
			<path class="st16" d="M57.1,53.8c-0.5,0-0.5,0.8,0,0.8C57.7,54.6,57.7,53.8,57.1,53.8z"/>
			<path class="st16" d="M57.1,54.8c-0.5,0-0.5,0.8,0,0.8C57.6,55.6,57.6,54.8,57.1,54.8z"/>
			<path class="st16" d="M57.3,55.8c-0.5,0-0.5,0.8,0,0.8C57.8,56.5,57.8,55.8,57.3,55.8z"/>
			<path class="st16" d="M57.6,56.6c-0.5,0-0.5,0.8,0,0.8C58.1,57.4,58.2,56.6,57.6,56.6z"/>
			<path class="st16" d="M80.1,49.5c0.5,0,0.5,0.8,0,0.8C79.6,50.3,79.6,49.5,80.1,49.5z"/>
			<path class="st16" d="M79.4,48.8c0.5,0,0.5,0.8,0,0.8C78.9,49.6,78.9,48.8,79.4,48.8z"/>
			<path class="st16" d="M78.5,48.3c0.5,0,0.5,0.8,0,0.8C78,49.1,78,48.3,78.5,48.3z"/>
			<path class="st16" d="M77.5,48c0.5,0,0.5,0.8,0,0.8C77,48.8,77,48,77.5,48z"/>
			<path class="st16" d="M76.5,47.9c0.5,0,0.5,0.8,0,0.8C76,48.6,76,47.9,76.5,47.9z"/>
			<path class="st16" d="M75.5,47.9c0.5,0,0.5,0.8,0,0.8S75,47.9,75.5,47.9z"/>
			<path class="st16" d="M74.6,48.1c0.5,0,0.5,0.8,0,0.8S74.1,48.1,74.6,48.1z"/>
			<path class="st16" d="M73.8,48.5c0.5,0,0.5,0.8,0,0.8C73.2,49.3,73.2,48.5,73.8,48.5z"/>
			<path class="st16" d="M80.6,50.3c0.5,0,0.5,0.8,0,0.8C80.1,51.1,80.1,50.3,80.6,50.3z"/>
			<path class="st16" d="M80.9,51.3c0.5,0,0.5,0.8,0,0.8C80.4,52.1,80.4,51.3,80.9,51.3z"/>
			<path class="st16" d="M80.8,52.3c0.5,0,0.5,0.8,0,0.8C80.3,53,80.3,52.3,80.8,52.3z"/>
			<path class="st16" d="M80.5,53.2c0.5,0,0.5,0.8,0,0.8C80,53.9,79.9,53.2,80.5,53.2z"/>
			<path class="st16" d="M79.9,53.9c0.5,0,0.5,0.8,0,0.8C79.4,54.7,79.4,53.9,79.9,53.9z"/>
			<path class="st16" d="M81.1,49.5c0.5,0,0.5,0.8,0,0.8C80.6,50.3,80.6,49.5,81.1,49.5z"/>
			<path class="st16" d="M82.1,49.4c0.5,0,0.5,0.8,0,0.8C81.6,50.2,81.6,49.4,82.1,49.4z"/>
			<path class="st16" d="M83.1,49.4c0.5,0,0.5,0.8,0,0.8C82.5,50.2,82.5,49.4,83.1,49.4z"/>
			<path class="st16" d="M84.1,49.6c0.5,0,0.5,0.8,0,0.8C83.6,50.4,83.6,49.6,84.1,49.6z"/>
			<path class="st16" d="M85,50c0.5,0,0.5,0.8,0,0.8C84.5,50.8,84.5,50,85,50z"/>
			<path class="st16" d="M85.9,50.5c0.5,0,0.5,0.8,0,0.8C85.4,51.3,85.4,50.5,85.9,50.5z"/>
			<path class="st16" d="M86.6,51.2c0.5,0,0.5,0.8,0,0.8C86.1,51.9,86.1,51.2,86.6,51.2z"/>
			<path class="st16" d="M87.3,52c0.5,0,0.5,0.8,0,0.8C86.8,52.7,86.7,52,87.3,52z"/>
			<path class="st16" d="M87.7,52.9c0.5,0,0.5,0.8,0,0.8C87.2,53.6,87.2,52.9,87.7,52.9z"/>
			<path class="st16" d="M87.9,53.8c0.5,0,0.5,0.8,0,0.8C87.4,54.6,87.4,53.8,87.9,53.8z"/>
			<path class="st16" d="M87.9,54.8c0.5,0,0.5,0.8,0,0.8C87.4,55.6,87.4,54.8,87.9,54.8z"/>
			<path class="st16" d="M87.7,55.8c0.5,0,0.5,0.8,0,0.8C87.2,56.5,87.2,55.8,87.7,55.8z"/>
			<path class="st16" d="M87.4,56.6c0.5,0,0.5,0.8,0,0.8S86.9,56.6,87.4,56.6z"/>
		</g>
		<path class="st16" d="M63,58.8c-0.5,0-0.5,0.8,0,0.8C63.6,59.6,63.6,58.8,63,58.8z"/>
		<path class="st16" d="M69.3,57.6c-0.5,0-0.5,0.8,0,0.8C69.8,58.4,69.8,57.6,69.3,57.6z"/>
		<path class="st16" d="M82,58.8c0.5,0,0.5,0.8,0,0.8C81.5,59.6,81.5,58.8,82,58.8z"/>
		<path class="st16" d="M75.8,57.6c0.5,0,0.5,0.8,0,0.8C75.2,58.4,75.2,57.6,75.8,57.6z"/>
		<path class="st16" d="M70.1,61c-0.5,0-0.5,0.8,0,0.8C70.6,61.8,70.6,61,70.1,61z"/>
		<path class="st16" d="M65.2,61.7c-0.5,0-0.5,0.8,0,0.8C65.7,62.5,65.7,61.7,65.2,61.7z"/>
		<path class="st16" d="M75,61c0.5,0,0.5,0.8,0,0.8C74.4,61.8,74.4,61,75,61z"/>
		<path class="st16" d="M79.9,61.7c0.5,0,0.5,0.8,0,0.8C79.4,62.5,79.3,61.7,79.9,61.7z"/>
	</g>
	<path class="st12" d="M72.5,65c4.6,0,8.4-0.5,8.4-1c0-0.6-3.7-1-8.4-1c-4.6,0-8.4,0.5-8.4,1C64.1,64.5,67.9,65,72.5,65z"/>
	<g>
		<path class="st14" d="M58.4,52.1c-0.4,0.5-0.8,2.6,0.3,3.7l-0.5,1.3"/>
		<path class="st14" d="M86.6,52.1c0.4,0.5,0.8,2.6-0.3,3.7l0.5,1.3"/>
	</g>
</g>
<g>
	<path class="st8" d="M87.1,65.3v26.9c0,6.9-7.3,9.1-14.6,9.1c-7.3,0-14.6-2.2-14.6-9.1V65.3H87.1z"/>
	<path class="st11" d="M72.5,82v10.6c0,3-2.5,7-7.3,7s-7.3-4-7.3-7V82H72.5z"/>
	<path class="st10" d="M72.5,82v10.6c0,3,2.5,7,7.3,7c4.7,0,7.3-4,7.3-7V82H72.5z"/>
	<g>
		<path class="st10" d="M61,98.4V82h-1.3v15.2C60,97.5,60.6,98.1,61,98.4z"/>
		<path class="st10" d="M64.2,99.6V82h-1.3v17.3C63.3,99.4,63.8,99.5,64.2,99.6z"/>
		<path class="st10" d="M69.4,98.4V82h1.3v15.2C70.4,97.5,69.9,98.1,69.4,98.4z"/>
		<path class="st10" d="M66.3,99.6V82h1.3v17.3C67.1,99.4,66.6,99.5,66.3,99.6z"/>
	</g>
	<rect x="57.9" y="65.3" class="st10" width="14.6" height="16.7"/>
</g>
<g>
	<g>
		<path class="st13" d="M76.4,84.1c0-0.2,0.1-0.5,0.4-0.5h0.9c0.3,0,0.4,0.2,0.4,0.5H76.4z"/>
		<path class="st13" d="M83.2,84.1c0-0.2-0.1-0.5-0.4-0.5h-0.9c-0.3,0-0.4,0.2-0.4,0.5H83.2z"/>
		<path class="st13" d="M83.2,84.7c0,0.2-0.1,0.5-0.4,0.5h-0.9c-0.3,0-0.4-0.2-0.4-0.5H83.2z"/>
		<path class="st13" d="M76.4,84.7c0,0.2,0.1,0.5,0.4,0.5h0.9c0.3,0,0.4-0.2,0.4-0.5H76.4z"/>
		<path class="st13" d="M79.5,87.6c-0.2,0-0.5-0.1-0.5-0.4v-0.9c0-0.3,0.2-0.4,0.5-0.4V87.6z"/>
		<path class="st13" d="M80.1,87.6c0.2,0,0.5-0.1,0.5-0.4v-0.9c0-0.3-0.2-0.4-0.5-0.4V87.6z"/>
		<path class="st13" d="M79.5,95.2c-0.2,0-0.5-0.1-0.5-0.4v-0.9c0-0.3,0.2-0.4,0.5-0.4V95.2z"/>
		<path class="st13" d="M80.1,95.2c0.2,0,0.5-0.1,0.5-0.4v-0.9c0-0.3-0.2-0.4-0.5-0.4V95.2z"/>
		<path class="st13" d="M81.2,88c-0.2-0.2-0.3-0.4-0.1-0.6l0.6-0.7c0.2-0.2,0.5-0.2,0.7,0L81.2,88z"/>
		<path class="st13" d="M81.6,88.4c0.2,0.2,0.5,0.2,0.7,0l0.6-0.7c0.2-0.2,0.1-0.5-0.1-0.6L81.6,88.4z"/>
		<path class="st13" d="M76.7,93.2c-0.2-0.2-0.3-0.4-0.1-0.6l0.6-0.7c0.2-0.2,0.5-0.2,0.7,0L76.7,93.2z"/>
		<path class="st13" d="M77.1,93.6c0.2,0.2,0.5,0.2,0.7,0l0.6-0.7c0.2-0.2,0.1-0.5-0.1-0.6L77.1,93.6z"/>
		<path class="st13" d="M78.4,88c0.2-0.2,0.3-0.4,0.1-0.6l-0.6-0.7c-0.2-0.2-0.5-0.2-0.7,0L78.4,88z"/>
		<path class="st13" d="M77.9,88.4c-0.2,0.2-0.5,0.2-0.7,0l-0.6-0.7c-0.2-0.2-0.1-0.5,0.1-0.6L77.9,88.4z"/>
		<path class="st13" d="M82.9,93.2c0.2-0.2,0.3-0.4,0.1-0.6l-0.6-0.7c-0.2-0.2-0.5-0.2-0.7,0L82.9,93.2z"/>
		<path class="st13" d="M82.5,93.6c-0.2,0.2-0.5,0.2-0.7,0l-0.6-0.7c-0.2-0.2-0.1-0.5,0.1-0.6L82.5,93.6z"/>
		<path class="st13" d="M76.4,89.8c0-0.2,0.1-0.5,0.4-0.5h0.9c0.3,0,0.4,0.2,0.4,0.5H76.4z"/>
		<path class="st13" d="M76.4,90.3c0,0.2,0.1,0.5,0.4,0.5h0.9c0.3,0,0.4-0.2,0.4-0.5H76.4z"/>
		<path class="st13" d="M83.2,89.8c0-0.2-0.1-0.5-0.4-0.5h-0.9c-0.3,0-0.4,0.2-0.4,0.5H83.2z"/>
		<path class="st13" d="M83.2,90.3c0,0.2-0.1,0.5-0.4,0.5h-0.9c-0.3,0-0.4-0.2-0.4-0.5H83.2z"/>
		<path class="st13" d="M84.4,87.6c-0.2,0-0.5-0.1-0.5-0.4v-0.9c0-0.3,0.2-0.4,0.5-0.4V87.6z"/>
		<path class="st13" d="M85,87.6c0.2,0,0.5-0.1,0.5-0.4v-0.9c0-0.3-0.2-0.4-0.5-0.4V87.6z"/>
		<path class="st13" d="M84.4,93.2c-0.2,0-0.5-0.1-0.5-0.4v-0.9c0-0.3,0.2-0.4,0.5-0.4V93.2z"/>
		<path class="st13" d="M85,93.2c0.2,0,0.5-0.1,0.5-0.4v-0.9c0-0.3-0.2-0.4-0.5-0.4V93.2z"/>
		<path class="st13" d="M81.2,97c-0.1-0.2,0-0.5,0.2-0.6l0.9-0.3c0.3-0.1,0.5,0.1,0.6,0.3C82.4,96.7,81.6,96.9,81.2,97z"/>
		<path class="st13" d="M83.1,96.9c0.1,0.2,0,0.5-0.2,0.6L82,97.8c-0.3,0.1-0.5-0.1-0.6-0.3C82.1,97.4,82.8,97,83.1,96.9z"/>
		<path class="st13" d="M75.2,87.6c0.2,0,0.5-0.1,0.5-0.4v-0.9c0-0.3-0.2-0.4-0.5-0.4V87.6z"/>
		<path class="st13" d="M74.6,87.6c-0.2,0-0.5-0.1-0.5-0.4v-0.9c0-0.3,0.2-0.4,0.5-0.4V87.6z"/>
		<path class="st13" d="M75.2,93.2c0.2,0,0.5-0.1,0.5-0.4v-0.9c0-0.3-0.2-0.4-0.5-0.4V93.2z"/>
		<path class="st13" d="M74.6,93.2c-0.2,0-0.5-0.1-0.5-0.4v-0.9c0-0.3,0.2-0.4,0.5-0.4V93.2z"/>
		<path class="st13" d="M78.4,97c0.1-0.2,0-0.5-0.2-0.6l-0.9-0.3c-0.3-0.1-0.5,0.1-0.6,0.3C77.2,96.7,78,96.9,78.4,97z"/>
		<path class="st13" d="M76.5,96.9c-0.1,0.2,0,0.5,0.2,0.6l0.9,0.3c0.3,0.1,0.5-0.1,0.6-0.3C77.5,97.4,76.8,97,76.5,96.9z"/>
	</g>
	<g>
		<polyline class="st13" points="79.5,85 79.5,86.1 80.1,86.1 80.1,85 		"/>
		<path class="st13" d="M79.1,97.7c-0.5,0-1-0.1-1.4-0.3l0.2-0.5c0.4,0.1,0.8,0.2,1.2,0.2c0.1-0.2,0.2-0.3,0.4-0.4l0-1.9h0.6v1.9
			c0.2,0.1,0.3,0.2,0.4,0.4c0.5,0,0.9-0.1,1.2-0.2l0.2,0.5c-0.4,0.1-0.9,0.2-1.4,0.3c-0.1,0.3-0.4,0.5-0.7,0.5
			C79.5,98.2,79.2,98,79.1,97.7z"/>
		<path class="st13" d="M75.5,96c-0.2,0-0.4,0-0.6-0.2c-0.3-0.3-0.3-0.7-0.1-1.1c-0.1-0.3-0.2-0.7-0.2-1v-0.9h0.6v0.7
			c0,0.3,0,0.6,0.1,0.9c0.1,0,0.2,0,0.2,0l1.3-1.6l0.4,0.4L76,94.9c0.1,0.2,0.1,0.5-0.1,0.8c0.3,0.3,0.6,0.6,1,0.8L76.8,97
			C76.2,96.8,75.8,96.4,75.5,96z"/>
		<path class="st13" d="M75.2,89.4l0-2h-0.6l0,2c-0.3,0.1-0.5,0.4-0.5,0.7c0,0.3,0.2,0.6,0.5,0.7l0,1.1h0.6l0-1.1
			c0.2-0.1,0.3-0.2,0.4-0.4l1.1,0v-0.6l-1.1,0C75.5,89.6,75.4,89.4,75.2,89.4z"/>
		<path class="st13" d="M75.6,84.1l1.1,0v0.6l-1.1,0c0,0,0,0,0,0l1.9,2.2L77,87.3l-1.8-2.1v0.9h-0.6l0-1c-0.1,0-0.2-0.1-0.3-0.2
			c-0.3-0.3-0.2-0.8,0.1-1.1s0.8-0.2,1.1,0.1C75.5,84,75.6,84,75.6,84.1z"/>
		<path class="st13" d="M79.5,85c-0.2-0.1-0.3-0.2-0.4-0.4l-1.3,0v-0.6l1.3,0c0.1-0.3,0.4-0.5,0.7-0.5c0.3,0,0.6,0.2,0.7,0.5l1.3,0
			v0.6l-1.3,0c-0.1,0.2-0.2,0.3-0.4,0.4"/>
		<polygon class="st13" points="80.1,93.7 80.1,90.8 81.5,92.5 82,92.1 80.4,90.3 81.8,90.3 81.8,89.8 80.4,89.8 81.8,88.2 
			81.3,87.8 80.1,89.3 80.1,87.4 79.5,87.4 79.5,89.3 78.3,87.8 77.8,88.2 79.2,89.8 77.8,89.8 77.8,90.3 79.2,90.3 77.6,92.1 
			78.1,92.5 79.5,90.8 79.5,93.7 		"/>
		<path class="st13" d="M84.1,96c0.2,0,0.4,0,0.6-0.2c0.3-0.3,0.3-0.7,0.1-1.1c0.1-0.3,0.2-0.7,0.2-1v-0.9h-0.6v0.7
			c0,0.3,0,0.6-0.1,0.9c-0.1,0-0.2,0-0.2,0l-1.3-1.6l-0.4,0.4l1.4,1.6c-0.1,0.2-0.1,0.5,0.1,0.8c-0.3,0.3-0.6,0.6-1,0.8l0.2,0.5
			C83.4,96.8,83.8,96.4,84.1,96z"/>
		<path class="st13" d="M84.4,89.4l0-2H85l0,2c0.3,0.1,0.5,0.4,0.5,0.7c0,0.3-0.2,0.6-0.5,0.7l0,1.1h-0.6l0-1.1
			c-0.2-0.1-0.3-0.2-0.4-0.4l-1.1,0v-0.6l1.1,0C84.1,89.6,84.2,89.4,84.4,89.4z"/>
		<path class="st13" d="M84,84.1l-1.1,0v0.6l1.1,0c0,0,0,0,0,0l-1.9,2.2l0.4,0.4l1.8-2.1l0,0.9H85l0-1c0.1,0,0.2-0.1,0.3-0.2
			c0.3-0.3,0.2-0.8-0.1-1.1c-0.3-0.3-0.8-0.2-1.1,0.1C84.1,84,84,84,84,84.1z"/>
	</g>
	<g>
		<path class="st12" d="M79.8,84.7c0.2,0,0.3-0.2,0.3-0.3c0-0.2-0.2-0.3-0.3-0.3c-0.2,0-0.3,0.2-0.3,0.3
			C79.4,84.5,79.6,84.7,79.8,84.7z"/>
		<path class="st12" d="M84.4,84.7c0.1,0.1,0.4,0.1,0.5,0c0.1-0.1,0.1-0.4,0-0.5c-0.1-0.1-0.4-0.1-0.5,0
			C84.3,84.3,84.3,84.5,84.4,84.7z"/>
		<path class="st12" d="M75.1,95.5c0.1,0.1,0.4,0.1,0.5,0c0.1-0.1,0.1-0.4,0-0.5c-0.1-0.1-0.4-0.1-0.5,0C75,95.1,75,95.4,75.1,95.5z
			"/>
		<path class="st12" d="M75.2,84.7c-0.1,0.1-0.4,0.1-0.5,0c-0.1-0.1-0.1-0.4,0-0.5s0.4-0.1,0.5,0C75.3,84.3,75.3,84.5,75.2,84.7z"/>
		<path class="st12" d="M84.5,95.5c-0.1,0.1-0.4,0.1-0.5,0c-0.1-0.1-0.1-0.4,0-0.5c0.1-0.1,0.4-0.1,0.5,0
			C84.6,95.1,84.6,95.4,84.5,95.5z"/>
		<path class="st12" d="M74.6,90.1c0,0.2,0.2,0.3,0.3,0.3c0.2,0,0.3-0.2,0.3-0.3c0-0.2-0.2-0.3-0.3-0.3
			C74.7,89.7,74.6,89.9,74.6,90.1z"/>
		<path class="st12" d="M85,90.1c0,0.2-0.2,0.3-0.3,0.3c-0.2,0-0.3-0.2-0.3-0.3c0-0.2,0.2-0.3,0.3-0.3C84.9,89.7,85,89.9,85,90.1z"
			/>
		<path class="st12" d="M79.8,97.8c0.2,0,0.3-0.2,0.3-0.3c0-0.2-0.2-0.3-0.3-0.3c-0.2,0-0.3,0.2-0.3,0.3
			C79.4,97.6,79.6,97.8,79.8,97.8z"/>
	</g>
	<path class="st17" d="M79.8,91c0.5,0,0.9-0.4,0.9-0.9c0-0.5-0.4-0.9-0.9-0.9c-0.5,0-0.9,0.4-0.9,0.9C78.9,90.6,79.3,91,79.8,91z"/>
</g>
<g>
	<g>
		<rect x="72.4" y="99.5" class="st17" width="0.3" height="1.5"/>
		<path class="st17" d="M72.9,100.5c0.7-0.7,1.9-1.5,3.3-1.2C75.6,100.4,73.8,100.8,72.9,100.5z"/>
		<path class="st17" d="M72.1,100.4c-0.6-0.8-2.1-1.3-3-1C69.6,100.3,71.1,100.8,72.1,100.4z"/>
	</g>
	<path class="st13" d="M72.5,99.7c1.6,0,1.7-2.1,0.7-2.4c0.2-0.1,0.1-0.4,0.2-0.6c-0.2,0-0.4,0.1-0.6,0.2c0-0.2-0.1-0.4-0.3-0.4
		c-0.1,0.1-0.2,0.3-0.3,0.4c-0.1-0.2-0.4-0.2-0.6-0.2c0.1,0.1,0,0.5,0.2,0.6C70.8,97.6,70.9,99.7,72.5,99.7z"/>
	<path class="st18" d="M72.5,97.4c0.1,0.4-0.8,0.9,0,1.8c0-0.2,0.3-0.2,0.4-0.5C73,98.3,73,97.7,72.5,97.4z"/>
</g>
<g>
	<polygon class="st13" points="62.9,69.1 62.6,69.1 62.6,68.8 62,68.8 62,70 62.6,70 62.6,70.8 61.5,70.8 61.5,73.1 62,73.1 
		62,77.7 60.9,77.7 60.9,80 69.7,80 69.7,77.7 68.6,77.7 68.6,73.1 69.2,73.1 69.2,70.8 68.1,70.8 68.1,70 68.6,70 68.6,68.8 
		68.1,68.8 68.1,69.1 67.8,69.1 67.8,68.8 67.3,68.8 67.3,69.1 67,69.1 67,68.8 66.4,68.8 66.4,70 67,70 67,70.8 65.9,70.8 
		65.9,68.2 66.4,68.2 66.4,67.1 65.9,67.1 65.9,67.4 65.6,67.4 65.6,67.1 65.1,67.1 65.1,67.4 64.8,67.4 64.8,67.1 64.2,67.1 
		64.2,68.2 64.8,68.2 64.8,70.8 63.7,70.8 63.7,70 64.2,70 64.2,68.8 63.7,68.8 63.7,69.1 63.4,69.1 63.4,68.8 62.9,68.8 	"/>
	<g>
		<line class="st14" x1="60.9" y1="80" x2="69.7" y2="80"/>
		<line class="st14" x1="60.9" y1="79.5" x2="69.7" y2="79.5"/>
		<line class="st14" x1="60.9" y1="78.9" x2="69.7" y2="78.9"/>
		<line class="st14" x1="60.9" y1="78.3" x2="69.7" y2="78.3"/>
		<line class="st14" x1="60.9" y1="77.7" x2="69.7" y2="77.7"/>
		<line class="st14" x1="62" y1="77.1" x2="68.6" y2="77.1"/>
		<line class="st14" x1="62" y1="76.6" x2="68.6" y2="76.6"/>
		<line class="st14" x1="62" y1="76" x2="68.6" y2="76"/>
		<line class="st14" x1="62" y1="75.4" x2="68.6" y2="75.4"/>
		<line class="st14" x1="62" y1="74.8" x2="68.6" y2="74.8"/>
		<line class="st14" x1="62" y1="74.3" x2="68.6" y2="74.3"/>
		<line class="st14" x1="62" y1="73.7" x2="68.6" y2="73.7"/>
		<line class="st14" x1="61.5" y1="73.1" x2="69.2" y2="73.1"/>
		<line class="st14" x1="61.5" y1="72.5" x2="69.2" y2="72.5"/>
		<line class="st14" x1="61.5" y1="71.9" x2="69.2" y2="71.9"/>
		<line class="st14" x1="61.5" y1="71.4" x2="69.2" y2="71.4"/>
		<line class="st14" x1="62.6" y1="70.8" x2="68.1" y2="70.8"/>
		<line class="st14" x1="64.8" y1="70.2" x2="65.9" y2="70.2"/>
		<line class="st14" x1="64.8" y1="69.6" x2="65.9" y2="69.6"/>
		<line class="st14" x1="64.8" y1="69.1" x2="65.9" y2="69.1"/>
		<line class="st14" x1="64.8" y1="68.5" x2="65.9" y2="68.5"/>
		<line class="st14" x1="64.2" y1="67.7" x2="66.4" y2="67.7"/>
		<line class="st14" x1="62.6" y1="70.2" x2="63.7" y2="70.2"/>
		<line class="st14" x1="62" y1="69.5" x2="64.2" y2="69.5"/>
		<line class="st14" x1="62" y1="80" x2="62" y2="79.5"/>
		<line class="st14" x1="62" y1="78.9" x2="62" y2="78.3"/>
		<line class="st14" x1="61.5" y1="78.9" x2="61.5" y2="79.5"/>
		<line class="st14" x1="62.6" y1="79.5" x2="62.6" y2="78.9"/>
		<line class="st14" x1="63.2" y1="80" x2="63.2" y2="79.5"/>
		<line class="st14" x1="63.2" y1="78.9" x2="63.2" y2="78.3"/>
		<line class="st14" x1="63.2" y1="77.7" x2="63.2" y2="77.1"/>
		<line class="st14" x1="63.2" y1="76.6" x2="63.2" y2="76"/>
		<line class="st14" x1="62.6" y1="78.3" x2="62.6" y2="77.7"/>
		<line class="st14" x1="61.5" y1="78.3" x2="61.5" y2="77.7"/>
		<line class="st14" x1="63.7" y1="77.7" x2="63.7" y2="78.3"/>
		<line class="st14" x1="64.2" y1="77.7" x2="64.2" y2="77.1"/>
		<line class="st14" x1="62.6" y1="76.6" x2="62.6" y2="77.1"/>
		<line class="st14" x1="63.7" y1="76.6" x2="63.7" y2="77.1"/>
		<line class="st14" x1="64.8" y1="76.6" x2="64.8" y2="77.1"/>
		<line class="st14" x1="64.2" y1="76.6" x2="64.2" y2="76"/>
		<line class="st14" x1="64.8" y1="75.4" x2="64.8" y2="76"/>
		<line class="st14" x1="64.8" y1="74.3" x2="64.8" y2="74.8"/>
		<line class="st14" x1="64.2" y1="73.7" x2="64.2" y2="74.3"/>
		<line class="st14" x1="64.8" y1="73.1" x2="64.8" y2="73.7"/>
		<line class="st14" x1="63.7" y1="73.1" x2="63.7" y2="73.7"/>
		<line class="st14" x1="62.6" y1="73.1" x2="62.6" y2="73.7"/>
		<line class="st14" x1="62" y1="72.5" x2="62" y2="73.1"/>
		<line class="st14" x1="63.2" y1="72.5" x2="63.2" y2="73.1"/>
		<line class="st14" x1="64.2" y1="72.5" x2="64.2" y2="73.1"/>
		<line class="st14" x1="64.8" y1="71.9" x2="64.8" y2="72.5"/>
		<line class="st14" x1="63.7" y1="71.9" x2="63.7" y2="72.5"/>
		<line class="st14" x1="62.6" y1="71.9" x2="62.6" y2="72.5"/>
		<line class="st14" x1="62" y1="71.4" x2="62" y2="71.9"/>
		<line class="st14" x1="64.2" y1="71.4" x2="64.2" y2="71.9"/>
		<line class="st14" x1="63.2" y1="70.2" x2="63.2" y2="70.8"/>
		<line class="st14" x1="68.1" y1="70.2" x2="67" y2="70.2"/>
		<line class="st14" x1="68.6" y1="69.5" x2="66.4" y2="69.5"/>
		<line class="st14" x1="68.6" y1="80" x2="68.6" y2="79.5"/>
		<line class="st14" x1="68.6" y1="78.9" x2="68.6" y2="78.3"/>
		<line class="st14" x1="69.2" y1="78.9" x2="69.2" y2="79.5"/>
		<line class="st14" x1="68.1" y1="79.5" x2="68.1" y2="78.9"/>
		<line class="st14" x1="67.5" y1="80" x2="67.5" y2="79.5"/>
		<line class="st14" x1="67.5" y1="78.9" x2="67.5" y2="78.3"/>
		<line class="st14" x1="67.5" y1="77.7" x2="67.5" y2="77.1"/>
		<line class="st14" x1="67.5" y1="76.6" x2="67.5" y2="76"/>
		<line class="st14" x1="68.1" y1="78.3" x2="68.1" y2="77.7"/>
		<line class="st14" x1="69.2" y1="78.3" x2="69.2" y2="77.7"/>
		<line class="st14" x1="67" y1="77.7" x2="67" y2="78.3"/>
		<line class="st14" x1="66.4" y1="77.7" x2="66.4" y2="77.1"/>
		<line class="st14" x1="68.1" y1="76.6" x2="68.1" y2="77.1"/>
		<line class="st14" x1="67" y1="76.6" x2="67" y2="77.1"/>
		<line class="st14" x1="65.9" y1="76.6" x2="65.9" y2="77.1"/>
		<line class="st14" x1="66.4" y1="76.6" x2="66.4" y2="76"/>
		<line class="st14" x1="65.9" y1="75.4" x2="65.9" y2="76"/>
		<line class="st14" x1="65.9" y1="74.3" x2="65.9" y2="74.8"/>
		<line class="st14" x1="66.4" y1="73.7" x2="66.4" y2="74.3"/>
		<line class="st14" x1="65.9" y1="73.1" x2="65.9" y2="73.7"/>
		<line class="st14" x1="67" y1="73.1" x2="67" y2="73.7"/>
		<line class="st14" x1="68.1" y1="73.1" x2="68.1" y2="73.7"/>
		<line class="st14" x1="68.6" y1="72.5" x2="68.6" y2="73.1"/>
		<line class="st14" x1="67.5" y1="72.5" x2="67.5" y2="73.1"/>
		<line class="st14" x1="66.4" y1="72.5" x2="66.4" y2="73.1"/>
		<line class="st14" x1="65.9" y1="71.9" x2="65.9" y2="72.5"/>
		<line class="st14" x1="67" y1="71.9" x2="67" y2="72.5"/>
		<line class="st14" x1="68.1" y1="71.9" x2="68.1" y2="72.5"/>
		<line class="st14" x1="68.6" y1="71.4" x2="68.6" y2="71.9"/>
		<line class="st14" x1="66.4" y1="71.4" x2="66.4" y2="71.9"/>
		<line class="st14" x1="67.5" y1="70.2" x2="67.5" y2="70.8"/>
		<line class="st14" x1="65.3" y1="76.6" x2="65.3" y2="76"/>
		<line class="st14" x1="65.3" y1="74.3" x2="65.3" y2="73.7"/>
		<line class="st14" x1="65.3" y1="75.4" x2="65.3" y2="74.8"/>
		<line class="st14" x1="65.3" y1="73.1" x2="65.3" y2="72.5"/>
		<line class="st14" x1="65.3" y1="71.9" x2="65.3" y2="71.4"/>
		<line class="st14" x1="65.3" y1="70.2" x2="65.3" y2="69.6"/>
		<line class="st14" x1="65.3" y1="69.1" x2="65.3" y2="68.5"/>
		<line class="st14" x1="62.6" y1="70" x2="63.7" y2="70"/>
		<line class="st14" x1="64.8" y1="68.2" x2="65.9" y2="68.2"/>
		<line class="st14" x1="67" y1="70" x2="68.1" y2="70"/>
	</g>
	<g>
		<g>
			<path class="st13" d="M66.8,80c0-0.7,0-1.2,0-1.5c0-0.3-0.1-1.2-1.5-1.2c-1.3,0-1.5,0.9-1.5,1.2c0,0.3,0,0.8,0,1.5H66.8z"/>
			<path class="st13" d="M64.4,78.6l-0.8-0.1c0-0.3,0.1-0.7,0.3-0.8l0.6,0.5C64.5,78.3,64.4,78.4,64.4,78.6z"/>
			<path class="st13" d="M66.3,78.6l0.8-0.1c0-0.3-0.1-0.7-0.3-0.8l-0.6,0.5C66.2,78.3,66.3,78.4,66.3,78.6z"/>
			<path class="st13" d="M65.6,77.9l0.3-0.6c-0.2-0.1-0.4-0.2-0.6-0.2c-0.2,0-0.4,0-0.6,0.2l0.3,0.6C65.2,77.9,65.5,77.9,65.6,77.9z
				"/>
			<path class="st13" d="M64.2,76.1c0,0,0-1.2,0-1.5c0-0.4-0.3-0.8-0.8-0.8c-0.5,0-0.8,0.4-0.8,0.8c0,0.4,0,1.5,0,1.5H64.2z"/>
			<path class="st13" d="M66.4,76.1c0,0,0-1.2,0-1.5c0-0.4,0.3-0.8,0.8-0.8c0.5,0,0.8,0.4,0.8,0.8c0,0.4,0,1.5,0,1.5H66.4z"/>
		</g>
		<polygon class="st13" points="65.9,72.2 66,70.8 64.6,70.8 64.8,72.2 		"/>
		<polygon class="st13" points="67,72.2 66.8,70.8 68.2,70.8 68.1,72.2 		"/>
		<polygon class="st13" points="63.7,72.2 63.8,70.8 62.5,70.8 62.6,72.2 		"/>
	</g>
	<g>
		<path class="st19" d="M66.3,80c0-0.6,0-1.1,0-1.3c0-0.2-0.1-0.9-1-0.9c-0.9,0-1,0.6-1,0.9c0,0.2,0,0.7,0,1.3H66.3z"/>
		<path class="st19" d="M64.1,75.9c0,0,0-1,0-1.4c0-0.4-0.2-0.7-0.6-0.7s-0.6,0.4-0.6,0.7c0,0.3,0,1.4,0,1.4H64.1z"/>
		<path class="st19" d="M66.6,75.9c0,0,0-1,0-1.4c0-0.4,0.2-0.7,0.6-0.7c0.4,0,0.6,0.4,0.6,0.7c0,0.3,0,1.4,0,1.4H66.6z"/>
	</g>
</g>
<g>
	<path class="st12" d="M80,68.7c-0.7,0.4-1.4-0.2-1.7-0.4c-0.3-0.3-0.8-0.2-1.1-0.1c0.2,0,0.8,0.3,0.9,0.5c0.2,0.3,0.6,0.5,0.9,0.5
		c0.3,0,0.5,0.2,0.7,0.5C79.8,69.9,80.9,68.6,80,68.7z"/>
	<path class="st20" d="M80.1,69c-0.1,0.1-0.2,0.2-0.2,0.4c0,0.2-0.3,0.2-0.6-0.1c0,0.2-0.1,0.5-0.1,0.7c0,0.2,0.2,0.3,0.5,0.3
		c-0.6,0.5-1.2,0.1-1.5,0.2c-0.3,0.1-0.5-0.1-0.6-0.3c-0.1-0.2-0.5-0.5-0.7-0.6c-0.2-0.1-0.4-0.3-0.3-0.5c0.1-0.2,0.2-0.6,0-0.8
		c-0.1-0.1-0.4-0.2-0.6-0.1c-0.2,0.1-0.2,0.2-0.2,0.4c-0.1-0.1-0.5-0.1-0.7,0.1c-0.1,0.2-0.2,0.5,0,0.7c-0.2,0.1-0.4,0.1-0.4,0.5
		c0,0.4,0.5,0.4,0.5,0.7c0.2-0.1,0.7-0.2,0.6,0.1c0,0.3,0.2,0.5,0.3,0.7c0.1,0.2,0.4,0.2,0.5,0.3c-0.1,0.1-0.2,0.1-0.3,0.1
		c0.3,0.3,1.3,0.2,1.4,0.7c-0.5,0.2-0.6,0.5-0.8,0.6c-0.2,0.1-0.5,0.2-0.7,0c-0.2-0.2-0.6-0.2-0.7-0.1c-0.1,0.2-0.2,0.5,0.2,0.7
		c-0.2,0-0.5,0.1-0.4,0.4c0,0.3,0.2,0.4,0.4,0.5c0,0.2,0.1,0.4,0.4,0.3c0.3,0,0.5-0.1,0.6-0.5c0.2-0.3,0.9-0.5,0.8,0.1
		c0.2-0.1,0.6-0.5,0.8-0.8c0,0.1,0.1,0.3,0,0.4c0.2-0.1,0.4-0.3,0.6-0.5c0.4,0.5,0.9,1,1.3,1.1c0.3,0.1,0.6,0.2,0.8,0.3
		c-0.3,0-0.9,0.1-1.3,0c-0.4-0.1-0.9,0.4-0.6,0.9c0.3,0.5,0.3,0.9,0.4,1.1c0.1,0.1,0.1,0.3-0.1,0.4c-0.2,0.1-0.3,0-0.4-0.1
		c-0.2-0.1-0.3-0.4-0.6-0.5c-0.3-0.1-0.8,0.2-0.5,0.6c-0.4,0.1-0.5,0.4-0.4,0.7c0.1,0.3,0.3,0.4,0.5,0.3c-0.2,0.1-0.1,0.4,0,0.5
		c0.2,0.1,0.5,0.1,0.7-0.1c0.2-0.3,0.4-0.3,0.6-0.2c0.2,0.1,0.8,0,1.2-0.1c0.4-0.2,0.5-0.4,0.4-0.5c-0.2-0.2-0.2-0.5-0.2-0.8
		c0.1-0.3,0.1-0.6,0.6-0.4c-0.1,0.3-0.1,0.5-0.1,0.8c0,0.4,0.5,0.7,0.7,0.7c0.3,0,0.4,0.1,0.5,0.3c0.1-0.3,0.5-0.2,0.6-0.1
		c0.1,0.2,0,0.3-0.1,0.4c-0.1,0.1-0.5,0.3-0.8,0.1c-0.3-0.1-0.5,0-0.5,0.3c0,0.2,0.1,0.4,0.3,0.4c0.2-0.1,0.3,0.1,0.4,0.1
		c-0.4,0.1-0.4,0.4-0.2,0.5c0.1,0.2,0.4,0.2,0.5,0.1c0.1-0.1,0.2-0.1,0.5-0.2c-0.1,0.3,0.1,0.5,0.4,0.5c0.2,0.1,0.5-0.1,0.5-0.3
		c0.1,0,0.3-0.2,0.2-0.3c-0.1-0.2-0.2-0.4,0-0.7c0.2-0.4,0.1-0.8,0.5-1.4c0.2-0.3,0.1-0.5-0.3-0.5c-0.4-0.1-0.6-0.2-0.6-0.4
		c0-0.1-0.1-0.3-0.1-0.4c-0.1-0.3,0-0.6-0.1-1c1.4,0.2,2.1-1.1,1.7-2.1c-0.4-1.1-0.8-2.8-0.4-3.9c0.2,0,0.3-0.9,0.9-0.6
		c0.1-0.4-0.2-0.8-0.4-0.6c0.3-0.2,0.5-1,0.5-1.5c-0.1,0.4-0.8,0.4-0.9,0.8c0-0.3-0.2-0.6-0.4-0.8c0.2,0.7-1.1,1.6-0.7,2.3
		c-0.3,1.1-0.2,2.3,0.2,3.2c0.5,0.9,0.5,1.8,0,2.2c-0.5,0.4-1.1,0.2-1.6-0.2c-0.7-0.7-0.4-1.4-0.8-1.8c0.2,0.1,0.3,0.1,0.4,0.1
		c-0.2-0.3-0.2-0.9-0.2-1.1c0.1,0.2,0.3,0.4,0.8,0.4c-0.2-0.1-0.4-0.6-0.3-0.7c0.1,0.1,0.5,0.1,0.7,0c-0.4-0.2-0.5-1-0.7-1.2
		c0.1,0.1,0.5,0.2,0.7,0.2c-0.1,0-0.3-0.4-0.2-0.8c0.2-0.7,0.2-1.4-0.9-2.1c-0.6-0.4-1.4-0.2-1.7,0.1c-0.3,0.2-0.3,0.2-0.7,0.1
		c-0.3,0-0.4,0-0.4,0.2c0,0.2,0,0.5,0.1,0.6c0,0.1,0,0.2,0,0.3c0-0.1,0.1-0.2,0.3-0.2C79.8,68.6,80.2,68.8,80.1,69z"/>
	<g>
		<path class="st12" d="M75.3,67.9c0.3-0.2,0.8-0.1,0.8,0.1c0.1,0.2,0,0.3-0.3,0.3C75.6,68.3,75.8,67.9,75.3,67.9z"/>
		<path class="st12" d="M74.4,68.6c0.2-0.3,0.7-0.3,0.9-0.1c0.1,0.2-0.1,0.4-0.2,0.5C74.9,69.1,75,68.6,74.4,68.6z"/>
		<path class="st12" d="M74.3,70.3c0-0.5,0.3-0.9,0.6-0.8c0.2,0.1,0.2,0.3,0.1,0.5C74.9,70.2,74.4,69.9,74.3,70.3z"/>
		<path class="st12" d="M75.2,73.2c0.1-0.5,0.8-0.5,0.8-0.3c0,0.1,0,0.3-0.1,0.4C75.6,73.4,75.5,73,75.2,73.2z"/>
		<path class="st12" d="M75,74.5c-0.2-0.5,0.2-0.9,0.6-0.8c0.2,0.1,0.2,0.2,0.2,0.4C75.7,74.4,75.1,74.2,75,74.5z"/>
		<path class="st12" d="M76.5,75.2c-0.5,0-0.7-0.6-0.5-0.8c0.1-0.1,0.3-0.1,0.5,0C76.7,74.7,76.2,75,76.5,75.2z"/>
		<path class="st12" d="M77.4,76.8c0.2-0.5,0.8-0.4,0.9-0.1c0,0.1,0,0.3-0.2,0.3C77.8,77.1,77.8,76.7,77.4,76.8z"/>
		<path class="st12" d="M77.1,78c0-0.5,0.6-0.7,0.7-0.4c0.1,0.1,0.1,0.3,0,0.4C77.5,78.1,77.4,77.8,77.1,78z"/>
		<path class="st12" d="M78.1,79.2c-0.4-0.3-0.1-0.9,0.1-0.9c0.1,0,0.3,0.1,0.3,0.3C78.5,79,78.1,78.8,78.1,79.2z"/>
		<path class="st12" d="M81.3,79.4c-0.1-0.5,0.5-0.7,0.7-0.5c0.1,0.1,0.1,0.3,0,0.4C81.7,79.5,81.5,79.2,81.3,79.4z"/>
		<path class="st12" d="M82.1,80.6c-0.4-0.3-0.1-0.9,0.1-0.9c0.2,0,0.3,0.1,0.3,0.3C82.5,80.4,82.1,80.2,82.1,80.6z"/>
		<path class="st12" d="M83.7,80.9c-0.5-0.1-0.6-0.6-0.4-0.8c0.1-0.1,0.3-0.1,0.4,0.1C83.9,80.5,83.5,80.6,83.7,80.9z"/>
	</g>
	<g>
		<path class="st13" d="M81.9,67.7c0.6,0.4,1,0.7,1,0.8c0,0,0.2,0,0.2-0.1c0.1-0.1,0.5-0.3,0.7-0.3c-0.1-0.1-0.1-0.1-0.2-0.2
			c-0.2,0.1-0.3,0-0.4-0.1c0,0.1-0.1,0.3-0.3,0.2c-0.1-0.1,0.1-0.3,0.2-0.3c-0.1-0.2-0.1-0.3,0-0.5c-0.2,0.1-0.3,0.1-0.5,0.1
			c0.1,0.1-0.1,0.4-0.3,0.3c-0.2-0.1,0-0.4,0.2-0.3c-0.1-0.1-0.2-0.4-0.1-0.6c-0.2,0.1-0.4,0.2-0.6,0.1c0.1,0.1-0.1,0.4-0.2,0.3
			c-0.2-0.1,0-0.4,0.1-0.4c-0.1-0.1-0.1-0.3-0.1-0.5c-0.1,0.2-0.3,0.2-0.4,0.2c0.1,0.1-0.1,0.3-0.2,0.3c-0.1-0.1,0-0.3,0.1-0.3
			c-0.1-0.1-0.3-0.1-0.2-0.3c-0.1-0.1-0.1-0.1-0.2-0.1c0.1,0.2,0.1,0.6,0,0.8c0,0.1,0,0.2,0,0.3C80.9,67.1,81.3,67.3,81.9,67.7z"/>
	</g>
	<g>
		<path class="st14" d="M79.6,70.2c-0.1,0.4-1.2,0.3-1.5,0.7c0.6-0.1,0.7,0.4,1.1,0.2c-0.2,0.4-0.1,0.9-0.4,1.2
			c0.4-0.1,1.1-0.5,1.3-0.8c-0.1,0.3,0.3,0.7,0.3,1c0.2-0.3,0.5-0.5,0.5-0.8c0,0.2,0.3,0.6,0.2,0.9c0.1-0.1,0.2-0.3,0.2-0.6
			c0.1,0.2,0.2,0.4,0.4,0.5"/>
		<path class="st14" d="M81.3,76.5c0.1-0.4,0.2-0.6,0.5-0.6c0.3,0,0.2-0.2,0.1-0.4c-0.2-0.2-0.5-0.4-0.8-0.6"/>
		<path class="st14" d="M79.2,71.1c-0.8,0.3-1,1-1.4,1.2"/>
		<path class="st14" d="M79,73.5c0.2-0.2,0.3-0.5,0.4-0.6c0,0.1,0.1,0.3,0,0.5c0.3-0.2,0.4-0.8,1-1"/>
	</g>
	<path d="M80.4,67.6c0.4,0.1,0.7,0.4,0.9,0.3c-0.1-0.1,0.1-0.2-0.1-0.3c-0.2-0.1-0.3,0.2-0.5,0"/>
</g>
<g>
	<path class="st10" d="M72.5,87.9c2.8,0,5-2.6,5-5.9c0-3.3-2.2-5.9-5-5.9c-2.8,0-5,2.6-5,5.9C67.5,85.2,69.8,87.9,72.5,87.9z"/>
	<path class="st21" d="M72.5,86.4c1.8,0,3.3-2,3.3-4.5c0-2.5-1.5-4.5-3.3-4.5c-1.8,0-3.3,2-3.3,4.5C69.2,84.5,70.7,86.4,72.5,86.4z"
		/>
	<g>
		<g>
			<path class="st13" d="M71.1,79.3c0.4,0.2,0.5,0.8,0.3,1.2c-0.1,0.1-0.3,0.6-0.3,1.2c0-0.9,0.3-1.1,0.5-1.1c0.3,0,0.6,0.1,0.6,0.6
				c-0.3-0.2-1-0.1-1,0.6c0,0.2,0.2,0.4,0.5,0.3c-0.1,0.2-0.3,0.3-0.5,0.2c0,0.1-0.1,0.2-0.2,0.4c-0.1-0.1-0.2-0.3-0.2-0.4
				c-0.2,0.1-0.4,0-0.5-0.2c0.3,0.1,0.5-0.1,0.5-0.3c0-0.7-0.7-0.8-1-0.6c0-0.5,0.3-0.6,0.6-0.6c0.3,0,0.5,0.2,0.5,1.1
				c0-0.7-0.2-1.1-0.3-1.2C70.5,80.2,70.6,79.5,71.1,79.3z"/>
			<path class="st13" d="M71.1,81.7c0.2,0,0.5,0,0.5-0.2c0-0.2-0.3-0.2-0.5-0.2c-0.2,0-0.5,0-0.5,0.2C70.6,81.8,70.9,81.7,71.1,81.7
				z"/>
		</g>
		<g>
			<path class="st13" d="M73.9,79.3c-0.4,0.2-0.5,0.8-0.3,1.2c0.1,0.1,0.3,0.6,0.3,1.2c0-0.9-0.3-1.1-0.5-1.1
				c-0.3,0-0.6,0.1-0.6,0.6c0.3-0.2,1-0.1,1,0.6c0,0.2-0.2,0.4-0.5,0.3c0.1,0.2,0.3,0.3,0.5,0.2c0,0.1,0.1,0.2,0.2,0.4
				c0.1-0.1,0.2-0.3,0.2-0.4c0.2,0.1,0.4,0,0.5-0.2c-0.3,0.1-0.5-0.1-0.5-0.3c0-0.7,0.7-0.8,1-0.6c0-0.5-0.3-0.6-0.6-0.6
				c-0.3,0-0.5,0.2-0.5,1.1c0-0.7,0.2-1.1,0.3-1.2C74.5,80.2,74.4,79.5,73.9,79.3z"/>
			<path class="st13" d="M73.9,81.7c-0.2,0-0.5,0-0.5-0.2c0-0.2,0.3-0.2,0.5-0.2c0.2,0,0.5,0,0.5,0.2C74.4,81.8,74.1,81.7,73.9,81.7
				z"/>
		</g>
		<g>
			<path class="st13" d="M72.5,82.2c-0.4,0.2-0.5,0.8-0.3,1.2c0.1,0.1,0.3,0.6,0.3,1.2c0-0.9-0.3-1.1-0.5-1.1
				c-0.3,0-0.6,0.1-0.6,0.6c0.3-0.2,1-0.1,1,0.6c0,0.2-0.2,0.4-0.5,0.3c0.1,0.2,0.3,0.3,0.5,0.2c0,0.1,0.1,0.2,0.2,0.4
				c0.1-0.1,0.2-0.3,0.2-0.4c0.2,0.1,0.4,0,0.5-0.2c-0.3,0.1-0.5-0.1-0.5-0.3c0-0.7,0.7-0.8,1-0.6c0-0.5-0.3-0.6-0.6-0.6
				c-0.3,0-0.5,0.2-0.5,1.1c0-0.7,0.2-1.1,0.3-1.2C73,83.1,72.9,82.5,72.5,82.2z"/>
			<path class="st13" d="M72.5,84.7c-0.2,0-0.5,0-0.5-0.2s0.3-0.2,0.5-0.2c0.2,0,0.5,0,0.5,0.2S72.7,84.7,72.5,84.7z"/>
		</g>
	</g>
</g>
<g>
	<g>
		<path class="st19" d="M55.7,98c-0.3,0.2-1.2,0.5-2.1,0c-1.4-0.9-2.7,0.6-4.6-0.2c-1.5-0.6-2.6,0.6-3.2,0.2v-0.6
			c0.7,0.4,1.8-0.8,3.2-0.2c1.9,0.8,3.2-0.6,4.6,0.2c0.9,0.6,1.8,0.2,2.1,0V98z"/>
		<path class="st19" d="M55.7,99.5c-0.3,0.2-1.2,0.5-2.1,0c-1.4-0.9-2.7,0.6-4.6-0.2c-1.5-0.6-2.6,0.6-3.2,0.2v-0.8
			c0.7,0.4,1.8-0.8,3.2-0.2c1.9,0.8,3.2-0.6,4.6,0.2c0.9,0.6,1.8,0.2,2.1,0V99.5z"/>
		<path class="st19" d="M55.7,101.1c-0.3,0.2-1.2,0.5-2.1,0c-1.4-0.9-2.7,0.6-4.6-0.2c-1.5-0.6-2.6,0.6-3.2,0.2v-0.9
			c0.7,0.4,1.8-0.8,3.2-0.2c1.9,0.8,3.2-0.6,4.6,0.2c0.9,0.6,1.8,0.2,2.1,0V101.1z"/>
	</g>
	<g>
		<path class="st19" d="M89.3,98c0.3,0.2,1.2,0.5,2.1,0c1.4-0.9,2.7,0.6,4.6-0.2c1.5-0.6,2.6,0.6,3.2,0.2v-0.6
			c-0.7,0.4-1.8-0.8-3.2-0.2c-1.9,0.8-3.2-0.6-4.6,0.2c-0.9,0.6-1.8,0.2-2.1,0V98z"/>
		<path class="st19" d="M89.3,99.5c0.3,0.2,1.2,0.5,2.1,0c1.4-0.9,2.7,0.6,4.6-0.2c1.5-0.6,2.6,0.6,3.2,0.2v-0.8
			c-0.7,0.4-1.8-0.8-3.2-0.2c-1.9,0.8-3.2-0.6-4.6,0.2c-0.9,0.6-1.8,0.2-2.1,0V99.5z"/>
		<path class="st19" d="M89.3,101.1c0.3,0.2,1.2,0.5,2.1,0c1.4-0.9,2.7,0.6,4.6-0.2c1.5-0.6,2.6,0.6,3.2,0.2v-0.9
			c-0.7,0.4-1.8-0.8-3.2-0.2c-1.9,0.8-3.2-0.6-4.6,0.2c-0.9,0.6-1.8,0.2-2.1,0V101.1z"/>
	</g>
</g>
<g>
	<g>
		<path class="st22" d="M48.1,77.1c0,0,0.1-0.1,0.3-0.1c0.1-0.1,0.2-0.2,0.1-0.4c-0.1-0.2-0.2-0.2-0.3-0.1c-0.1,0-0.3,0.1-0.3,0.1
			C47.9,76.5,48.1,77.1,48.1,77.1l0.1,0.3l0.2,0.6L48.2,78l-0.6-1.6c0,0,0.3-0.1,0.6-0.2c0.3-0.1,0.5,0.1,0.6,0.3
			c0.1,0.3,0,0.6-0.2,0.7c-0.2,0.1-0.4,0.1-0.4,0.1L48.1,77.1z"/>
		<polygon class="st22" points="49.9,75.6 50.2,77 50.9,76.9 51,77.2 50,77.4 49.6,75.7 		"/>
		<polygon class="st22" points="52.2,77 51.6,75.3 52,75.3 52.4,76.6 52.6,75.2 52.9,75.2 52.5,77 		"/>
		<path class="st22" d="M54.8,75.9c0-0.2-0.1-0.3-0.3-0.3c-0.2,0-0.2,0.1-0.3,0.2c0,0.1,0,0.2,0.3,0.3c0.3,0.1,0.5,0.2,0.5,0.5
			c0,0.3-0.3,0.5-0.7,0.5c-0.4,0-0.5-0.4-0.5-0.6l0.3,0c0,0.2,0.1,0.3,0.3,0.3c0.2,0,0.3-0.1,0.3-0.2c0-0.1-0.1-0.2-0.3-0.3
			C54,76.2,54,76,54,75.8c0-0.2,0.2-0.5,0.6-0.4c0.4,0.1,0.5,0.3,0.5,0.6L54.8,75.9z"/>
	</g>
	<g>
		<polygon class="st22" points="90.3,77.1 89.6,75.5 89.9,75.4 90.4,76.7 90.6,75.3 90.9,75.3 90.6,77.1 		"/>
		<polygon class="st22" points="92.1,75.2 92.1,76.7 92.8,76.7 92.8,77 91.8,77 91.8,75.2 		"/>
		<polygon class="st22" points="93.9,77.1 94.1,75.7 93.6,75.6 93.7,75.3 94.9,75.5 94.8,75.8 94.4,75.7 94.1,77.2 		"/>
		<path class="st22" d="M95.8,76.5l0.2-0.4c0,0,0.3,0.1,0.4,0.1c0.1,0,0.2,0.1,0.1,0.3c0,0.1-0.2,0.2-0.3,0.2
			C96.2,76.7,95.8,76.5,95.8,76.5l-0.1,0.3c0,0,0.1,0,0.3,0.1c0.2,0.1,0.2,0.1,0.1,0.3c-0.1,0.2-0.1,0.4-0.1,0.4l0.3,0.1
			c0,0,0.1-0.4,0.2-0.5c0.1-0.2,0-0.4-0.1-0.4c0.1,0,0.3-0.1,0.4-0.3c0.1-0.2,0-0.5-0.2-0.6c-0.2-0.1-0.8-0.3-0.8-0.3
			c0,0-0.6,1.7-0.6,1.7l0.3,0.1l0.2-0.6L95.8,76.5z"/>
		<polygon class="st22" points="97.7,77.7 98.2,77.1 98,77.9 97.7,77.7 97.5,77.9 98,78.2 97.9,78.5 98.2,78.7 98.5,76.9 98.2,76.7 
			97,78 97.2,78.1 97.5,77.9 		"/>
	</g>
</g>
<g>
	<path class="st2" d="M94.3,61.8c0.5,0,1.6,0.3,1.9,0.5c0.7-0.2,1.7,0.2,2,0.6c0,0.5-0.4,0.5-0.5,0.9c-0.2,0.3-0.5,0.4-0.7,0.6
		c-0.3-0.1-2-0.3-2.7-0.3c-0.8,0-2.4,0.2-2.7,0.3c-0.2-0.1-0.5-0.2-0.7-0.6c-0.2-0.3-0.5-0.4-0.5-0.9c0.3-0.4,1.3-0.8,2-0.6
		C92.7,62,93.8,61.8,94.3,61.8z"/>
	<path class="st3" d="M91.8,65C91.8,65,91.7,65,91.8,65c0,0.3,1.1,0.5,2.5,0.5c1.4,0,2.6-0.2,2.6-0.4c0,0,0,0,0-0.1
		c-0.1-0.1,0-0.4,0.1-0.5c0.2,0,0.3-0.1,0-0.2c-0.5-0.1-1.7-0.3-2.6-0.3c-0.9,0-2.2,0.2-2.6,0.3c-0.3,0.1-0.2,0.2,0,0.2
		C91.8,64.6,91.8,64.9,91.8,65z"/>
	<path class="st4" d="M91.7,64.5c0.2,0,0.7-0.2,1.2-0.2"/>
	<path class="st4" d="M96.8,65c-0.2-0.2-1.3-0.3-2.5-0.3S92,64.8,91.8,65"/>
	<path class="st4" d="M96.9,64.5c-0.2,0-0.7-0.2-1.2-0.2"/>
	<path class="st7" d="M94.3,60.9c0.2,0,0.4-0.2,0.4-0.4c0-0.2-0.2-0.4-0.4-0.4c-0.2,0-0.4,0.2-0.4,0.4
		C93.9,60.7,94.1,60.9,94.3,60.9z"/>
	<path class="st3" d="M94.4,59.5v0.2h0.2v0.2h-0.2v0.6h0.3c0,0,0,0.1,0,0.2h-0.8c0,0,0-0.1,0-0.2h0.3v-0.6H94v-0.2h0.2v-0.2H94.4z"
		/>
	<g>
		<path class="st3" d="M92.2,61.4c-0.6-0.3-1.4-0.1-1.8,0.4c-0.4,0.5-0.3,1.1-0.1,1.4l0.1,0l0.2-0.3c-0.4-0.4-0.3-0.9,0-1.2
			c0.3-0.2,0.9-0.5,1.5-0.2L92.2,61.4z"/>
		<path class="st3" d="M96.4,61.4c0.6-0.3,1.4-0.1,1.8,0.4c0.4,0.5,0.3,1.1,0.1,1.4l-0.1,0l-0.2-0.3c0.4-0.4,0.3-0.9,0-1.2
			c-0.3-0.2-0.9-0.5-1.5-0.2L96.4,61.4z"/>
		<path class="st3" d="M94,61.1c-0.5-0.4-1.3-0.3-1.7,0.1c-0.5,0.5-0.1,1,0.1,1.2l-0.1,0.2l0.1,0.1c0.1-0.1,0.2-0.3,0.2-0.3
			c-0.4-0.3-0.4-0.9-0.1-1.1c0.4-0.3,1-0.4,1.5,0L94,61.1z"/>
		<path class="st3" d="M94.6,61.1c0.5-0.4,1.3-0.3,1.7,0.1c0.5,0.5,0.1,1-0.1,1.2l0.1,0.2l-0.1,0.1c-0.1-0.1-0.2-0.3-0.2-0.3
			c0.4-0.3,0.4-0.9,0.1-1.1c-0.4-0.3-1-0.4-1.5,0L94.6,61.1z"/>
		<path class="st3" d="M94.3,62.7l0.5-0.5c-0.2-0.2-0.2-0.6-0.2-0.8c0-0.3,0-0.6-0.3-0.6c-0.3,0-0.3,0.3-0.3,0.6
			c0,0.3,0,0.6-0.2,0.8L94.3,62.7z"/>
	</g>
	<path class="st3" d="M94.3,62.6l0.3-0.4c-0.1-0.2-0.1-0.5-0.1-0.7c0-0.2,0-0.5-0.2-0.5c-0.2,0-0.2,0.2-0.2,0.5c0,0.2,0,0.5-0.1,0.7
		L94.3,62.6z"/>
	<g>
		<path class="st6" d="M94.3,62.3c-0.2,0-0.2-0.3,0-0.3C94.5,62.1,94.5,62.3,94.3,62.3z"/>
		<path class="st6" d="M94.3,62.1c-0.2,0-0.2-0.2,0-0.2C94.5,61.8,94.5,62.1,94.3,62.1z"/>
		<path class="st6" d="M94.3,61.8c-0.2,0-0.2-0.2,0-0.2C94.5,61.5,94.5,61.8,94.3,61.8z"/>
		<path class="st6" d="M94.3,61.5c-0.1,0-0.1-0.2,0-0.2C94.5,61.3,94.5,61.5,94.3,61.5z"/>
		<path class="st6" d="M94.3,61.3c-0.1,0-0.1-0.2,0-0.2C94.5,61.1,94.4,61.3,94.3,61.3z"/>
	</g>
	<path class="st3" d="M94.3,63.8c0.2,0.4,0.8,0.3,0.9,0c0.1,0.3,0.6,0.4,0.9,0.1c0.2,0.3,0.5,0.4,0.8,0.2c0.1,0.4,0.7,0.2,0.9-0.3
		c0.3-0.5,0.4-0.4,0.6-0.3c0.1-0.5-0.5-0.4-0.7,0l-0.3-0.2l0,0.1h-0.3l0.2,0.2l-0.1,0.2l0.4,0.1c-0.3,0.4-0.6,0.3-0.7-0.1
		c-0.1,0.2-0.3,0.3-0.5,0.2c-0.2-0.1-0.3-0.3-0.2-0.5l0.4,0.3l0-0.2l0.3,0l-0.2-0.2l0.1-0.2l-0.5,0.1l0.4-0.4l-0.2,0l-0.1-0.3
		l-0.2,0.2L96,62.7l0.1,0.6l-0.4-0.3l0,0.2l-0.3,0l0.2,0.2l-0.1,0.2l0.5-0.1c0,0.3-0.3,0.4-0.4,0.4c-0.1,0-0.4-0.2-0.4-0.4
		c-0.1,0.2-0.3,0.3-0.5,0.3c-0.2,0-0.4-0.3-0.3-0.5l0.5,0.2l0-0.2l0.3-0.1L94.9,63l0-0.2L94.4,63l0.3-0.5l-0.2,0l-0.2-0.3l-0.2,0.3
		l-0.2,0l0.3,0.5l-0.5-0.2l0,0.2l-0.3,0.1l0.3,0.1l0,0.2l0.5-0.2c0.1,0.3-0.1,0.5-0.3,0.5c-0.2,0-0.4-0.2-0.5-0.3
		c-0.1,0.2-0.3,0.4-0.4,0.4c-0.2,0-0.5-0.2-0.4-0.4l0.5,0.1L93,63.3l0.2-0.2l-0.3,0l0-0.2l-0.4,0.3l0.1-0.6l-0.2,0.1l-0.2-0.2
		l-0.1,0.3l-0.2,0l0.4,0.4l-0.5-0.1l0.1,0.2l-0.2,0.2l0.3,0l0,0.2l0.4-0.3c0.1,0.2,0,0.4-0.2,0.5c-0.1,0.1-0.4-0.1-0.5-0.2
		c-0.1,0.3-0.4,0.4-0.7,0.1l0.4-0.1l-0.1-0.2l0.2-0.2h-0.3l0-0.1l-0.3,0.2c-0.2-0.4-0.8-0.5-0.7,0c0.1-0.1,0.3-0.2,0.6,0.3
		c0.3,0.5,0.8,0.7,0.9,0.3c0.3,0.2,0.6,0.1,0.8-0.2c0.3,0.3,0.8,0.2,0.9-0.1C93.6,64,94.1,64.1,94.3,63.8z"/>
	<g>
		<path class="st5" d="M93,64.4c-0.4,0-0.4,0.2,0,0.2C93.3,64.5,93.3,64.3,93,64.4z"/>
		<path class="st5" d="M95.7,64.4c0.4,0,0.4,0.2,0,0.2C95.3,64.5,95.3,64.3,95.7,64.4z"/>
	</g>
	<g>
		<path class="st2" d="M92.5,63.2c-0.2,0-0.2,0.4,0,0.4C92.7,63.6,92.7,63.2,92.5,63.2z"/>
		<path class="st2" d="M94.3,63c-0.2,0-0.2,0.4,0,0.4C94.6,63.3,94.6,63,94.3,63z"/>
		<path class="st2" d="M90.7,63.6c-0.1,0.1,0.1,0.4,0.2,0.3C91,63.9,90.8,63.6,90.7,63.6z"/>
		<path class="st2" d="M96.2,63.2c0.2,0,0.2,0.4,0,0.4S95.9,63.2,96.2,63.2z"/>
		<path class="st2" d="M97.9,63.6c0.1,0.1-0.1,0.4-0.2,0.3C97.6,63.9,97.8,63.6,97.9,63.6z"/>
		<path class="st2" d="M94.6,64.5C94.6,64.5,94.7,64.5,94.6,64.5l0.1-0.2c0,0,0,0-0.1,0H94c0,0-0.1,0-0.1,0v0.1c0,0,0,0,0.1,0H94.6z
			"/>
		<polygon class="st2" points="91.6,64.7 91.8,64.8 91.9,64.7 91.8,64.6 		"/>
		<polygon class="st2" points="97,64.7 96.8,64.8 96.7,64.7 96.9,64.6 		"/>
	</g>
	<g>
		<g>
			<path class="st6" d="M92.2,61.1c-0.1,0-0.1,0.2,0,0.2C92.4,61.3,92.4,61.1,92.2,61.1z"/>
			<path class="st6" d="M92.4,60.9c-0.1,0-0.1,0.2,0,0.2C92.6,61.1,92.6,60.9,92.4,60.9z"/>
			<path class="st6" d="M92.7,60.8c-0.1,0-0.1,0.2,0,0.2C92.8,61,92.8,60.8,92.7,60.8z"/>
			<path class="st6" d="M92.9,60.7c-0.1,0-0.1,0.2,0,0.2C93.1,60.9,93.1,60.7,92.9,60.7z"/>
			<path class="st6" d="M93.2,60.6c-0.1,0-0.1,0.2,0,0.2C93.4,60.9,93.4,60.6,93.2,60.6z"/>
			<path class="st6" d="M93.5,60.7c-0.1,0-0.1,0.2,0,0.2C93.6,60.9,93.6,60.7,93.5,60.7z"/>
			<path class="st6" d="M93.7,60.7c-0.1,0-0.1,0.2,0,0.2C93.9,60.9,93.9,60.7,93.7,60.7z"/>
			<path class="st6" d="M94,60.8c-0.1,0-0.1,0.2,0,0.2C94.1,61,94.1,60.8,94,60.8z"/>
			<path class="st6" d="M92.1,61.3c-0.1,0-0.1,0.2,0,0.2C92.2,61.5,92.2,61.3,92.1,61.3z"/>
			<path class="st6" d="M92,61.6c-0.1,0-0.1,0.2,0,0.2C92.1,61.8,92.1,61.6,92,61.6z"/>
			<path class="st6" d="M92,61.9c-0.1,0-0.1,0.2,0,0.2S92.2,61.9,92,61.9z"/>
			<path class="st6" d="M92.1,62.1c-0.1,0-0.1,0.2,0,0.2C92.3,62.3,92.3,62.1,92.1,62.1z"/>
			<path class="st6" d="M92.3,62.3c-0.1,0-0.1,0.2,0,0.2C92.4,62.5,92.4,62.3,92.3,62.3z"/>
			<path class="st6" d="M91.9,61.1c-0.1,0-0.1,0.2,0,0.2C92.1,61.3,92.1,61.1,91.9,61.1z"/>
			<path class="st6" d="M91.7,61.1c-0.1,0-0.1,0.2,0,0.2C91.8,61.3,91.8,61.1,91.7,61.1z"/>
			<path class="st6" d="M91.4,61.1c-0.1,0-0.1,0.2,0,0.2C91.6,61.3,91.6,61.1,91.4,61.1z"/>
			<path class="st6" d="M91.1,61.1c-0.1,0-0.1,0.2,0,0.2C91.3,61.3,91.3,61.1,91.1,61.1z"/>
			<path class="st6" d="M90.9,61.2c-0.1,0-0.1,0.2,0,0.2C91,61.4,91,61.2,90.9,61.2z"/>
			<path class="st6" d="M90.6,61.4c-0.1,0-0.1,0.2,0,0.2C90.8,61.6,90.8,61.4,90.6,61.4z"/>
			<path class="st6" d="M90.4,61.6c-0.1,0-0.1,0.2,0,0.2C90.6,61.8,90.6,61.6,90.4,61.6z"/>
			<path class="st6" d="M90.2,61.8c-0.1,0-0.1,0.2,0,0.2C90.4,62,90.4,61.8,90.2,61.8z"/>
			<path class="st6" d="M90.1,62c-0.1,0-0.1,0.2,0,0.2S90.3,62,90.1,62z"/>
			<path class="st6" d="M90.1,62.3c-0.1,0-0.1,0.2,0,0.2C90.2,62.5,90.2,62.3,90.1,62.3z"/>
			<path class="st6" d="M90.1,62.6c-0.1,0-0.1,0.2,0,0.2C90.2,62.8,90.2,62.6,90.1,62.6z"/>
			<path class="st6" d="M90.1,62.8c-0.1,0-0.1,0.2,0,0.2C90.3,63,90.3,62.8,90.1,62.8z"/>
			<path class="st6" d="M90.2,63c-0.1,0-0.1,0.2,0,0.2C90.4,63.3,90.4,63,90.2,63z"/>
			<path class="st6" d="M96.4,61.1c0.1,0,0.1,0.2,0,0.2C96.3,61.3,96.3,61.1,96.4,61.1z"/>
			<path class="st6" d="M96.2,60.9c0.1,0,0.1,0.2,0,0.2C96.1,61.1,96.1,60.9,96.2,60.9z"/>
			<path class="st6" d="M96,60.8c0.1,0,0.1,0.2,0,0.2C95.8,61,95.8,60.8,96,60.8z"/>
			<path class="st6" d="M95.7,60.7c0.1,0,0.1,0.2,0,0.2C95.5,60.9,95.5,60.7,95.7,60.7z"/>
			<path class="st6" d="M95.4,60.6c0.1,0,0.1,0.2,0,0.2C95.3,60.9,95.3,60.6,95.4,60.6z"/>
			<path class="st6" d="M95.1,60.7c0.1,0,0.1,0.2,0,0.2C95,60.9,95,60.7,95.1,60.7z"/>
			<path class="st6" d="M94.9,60.7c0.1,0,0.1,0.2,0,0.2C94.7,60.9,94.7,60.7,94.9,60.7z"/>
			<path class="st6" d="M94.7,60.8c0.1,0,0.1,0.2,0,0.2C94.5,61,94.5,60.8,94.7,60.8z"/>
			<path class="st6" d="M96.5,61.3c0.1,0,0.1,0.2,0,0.2C96.4,61.5,96.4,61.3,96.5,61.3z"/>
			<path class="st6" d="M96.6,61.6c0.1,0,0.1,0.2,0,0.2C96.5,61.8,96.5,61.6,96.6,61.6z"/>
			<path class="st6" d="M96.6,61.9c0.1,0,0.1,0.2,0,0.2C96.5,62.1,96.5,61.9,96.6,61.9z"/>
			<path class="st6" d="M96.5,62.1c0.1,0,0.1,0.2,0,0.2C96.4,62.3,96.4,62.1,96.5,62.1z"/>
			<path class="st6" d="M96.4,62.3c0.1,0,0.1,0.2,0,0.2C96.2,62.5,96.2,62.3,96.4,62.3z"/>
			<path class="st6" d="M96.7,61.1c0.1,0,0.1,0.2,0,0.2C96.5,61.3,96.5,61.1,96.7,61.1z"/>
			<path class="st6" d="M97,61.1c0.1,0,0.1,0.2,0,0.2C96.8,61.3,96.8,61.1,97,61.1z"/>
			<path class="st6" d="M97.2,61.1c0.1,0,0.1,0.2,0,0.2C97.1,61.3,97.1,61.1,97.2,61.1z"/>
			<path class="st6" d="M97.5,61.1c0.1,0,0.1,0.2,0,0.2C97.4,61.3,97.4,61.1,97.5,61.1z"/>
			<path class="st6" d="M97.8,61.2c0.1,0,0.1,0.2,0,0.2C97.6,61.4,97.6,61.2,97.8,61.2z"/>
			<path class="st6" d="M98,61.4c0.1,0,0.1,0.2,0,0.2C97.9,61.6,97.9,61.4,98,61.4z"/>
			<path class="st6" d="M98.2,61.6c0.1,0,0.1,0.2,0,0.2C98.1,61.8,98.1,61.6,98.2,61.6z"/>
			<path class="st6" d="M98.4,61.8c0.1,0,0.1,0.2,0,0.2C98.2,62,98.2,61.8,98.4,61.8z"/>
			<path class="st6" d="M98.5,62c0.1,0,0.1,0.2,0,0.2C98.3,62.2,98.3,62,98.5,62z"/>
			<path class="st6" d="M98.6,62.3c0.1,0,0.1,0.2,0,0.2C98.4,62.5,98.4,62.3,98.6,62.3z"/>
			<path class="st6" d="M98.6,62.6c0.1,0,0.1,0.2,0,0.2C98.4,62.8,98.4,62.6,98.6,62.6z"/>
			<path class="st6" d="M98.5,62.8c0.1,0,0.1,0.2,0,0.2C98.4,63,98.4,62.8,98.5,62.8z"/>
			<path class="st6" d="M98.4,63c0.1,0,0.1,0.2,0,0.2C98.3,63.3,98.3,63,98.4,63z"/>
		</g>
		<path class="st6" d="M91.7,63.7c-0.1,0-0.1,0.2,0,0.2C91.8,63.9,91.8,63.7,91.7,63.7z"/>
		<path class="st6" d="M93.4,63.3c-0.1,0-0.1,0.2,0,0.2C93.6,63.5,93.6,63.3,93.4,63.3z"/>
		<path class="st6" d="M96.9,63.7c0.1,0,0.1,0.2,0,0.2S96.8,63.7,96.9,63.7z"/>
		<path class="st6" d="M95.2,63.3c0.1,0,0.1,0.2,0,0.2C95.1,63.5,95.1,63.3,95.2,63.3z"/>
		<path class="st6" d="M93.6,64.3c-0.1,0-0.1,0.2,0,0.2C93.8,64.5,93.8,64.3,93.6,64.3z"/>
		<path class="st6" d="M92.3,64.5c-0.1,0-0.1,0.2,0,0.2C92.4,64.7,92.4,64.5,92.3,64.5z"/>
		<path class="st6" d="M95,64.3c0.1,0,0.1,0.2,0,0.2C94.8,64.5,94.8,64.3,95,64.3z"/>
		<path class="st6" d="M96.3,64.5c0.1,0,0.1,0.2,0,0.2S96.2,64.5,96.3,64.5z"/>
	</g>
	<path class="st2" d="M94.3,65.4c1.3,0,2.3-0.1,2.3-0.3c0-0.2-1-0.3-2.3-0.3c-1.3,0-2.3,0.1-2.3,0.3C92,65.2,93,65.4,94.3,65.4z"/>
	<g>
		<path class="st4" d="M90.4,61.8c-0.1,0.1-0.2,0.7,0.1,1l-0.1,0.4"/>
		<path class="st4" d="M98.2,61.8c0.1,0.1,0.2,0.7-0.1,1l0.1,0.4"/>
	</g>
</g>
</svg>
