<?xml version="1.0" encoding="utf-8"?>
<!-- Generator: Adobe Illustrator 22.1.0, SVG Export Plug-In . SVG Version: 6.00 Build 0)  -->
<svg version="1.1" id="layer_1" xmlns="http://www.w3.org/2000/svg" xmlns:xlink="http://www.w3.org/1999/xlink" x="0px" y="0px"
	 viewBox="0 0 216 144" style="enable-background:new 0 0 216 144;" xml:space="preserve">
<style type="text/css">
	.st0{fill:#D14A48;}
	.st1{fill:#FFFFFF;}
</style>
<g>
	<rect class="st0" width="216" height="144"/>
	<path class="st1" d="M108,72"/>
</g>
<path class="st1" d="M120.9,31c-4.1-7-17.1-11.3-24.4,1.3c-7.3,12.5,1.4,31.9,9.3,38.6c-4.7-7.4-4.4-13.3-1.4-21.4
	c0.2-0.6,1.3-0.3,1.1,0.3c-2.8,7.2-3.2,13.8,1.5,20.7c-2.1-5.6-2.5-10,2.8-12.3c9.4-4.1,10.7-12.8,6.8-19.5
	C112.6,32,115.5,27.6,120.9,31z"/>
<polygon class="st0" points="107.3,42.7 107.2,45.8 110.2,46.9 107.1,47.8 107,51 105.3,48.3 102.2,49.2 104.2,46.7 102.4,44.1 
	105.4,45.2 "/>
<path class="st1" d="M73,47.2C65,49,57,60,66.6,70.8c9.6,10.8,30.7,8.5,39.6,3.1c-8.5,2.2-14,0-20.8-5.2c-0.5-0.4,0.1-1.4,0.6-0.9
	c6,4.9,12.2,7.4,20.1,5c-6,0.2-10.3-0.8-10.8-6.4c-1-10.2-8.9-14.2-16.4-12.5C71.4,55.5,68.1,51.3,73,47.2z"/>
<polygon class="st0" points="79.9,63.8 82.8,64.8 84.8,62.3 84.7,65.5 87.7,66.6 84.6,67.4 84.5,70.6 82.7,68 79.7,68.9 81.6,66.4 
	"/>
<path class="st1" d="M73.6,97.8c-0.8,8.1,7.2,19.2,20.5,13.3c13.2-5.8,17.6-26.6,15.2-36.7c-0.6,8.7-4.3,13.3-11.4,18.2
	c-0.5,0.4-1.3-0.5-0.7-0.9c6.5-4.2,10.8-9.3,11-17.6c-1.6,5.8-3.9,9.5-9.4,8.3c-10-2.2-16.2,4.1-17,11.7
	C80.9,101.9,75.9,103.7,73.6,97.8z"/>
<polygon class="st0" points="91.4,96.4 93.4,93.9 91.6,91.2 94.6,92.3 96.5,89.8 96.4,93 99.4,94 96.4,94.9 96.3,98.1 94.5,95.5 "/>
<path class="st1" d="M121.9,112.8c7.5,3.3,20.4-0.9,19-15.4c-1.4-14.4-19.8-25-30.2-25.8c8.1,3.2,11.3,8.2,13.8,16.5
	c0.2,0.6-0.9,1-1,0.4c-2-7.5-5.5-13.1-13.4-15.9c5,3.3,7.9,6.7,5,11.5c-5.2,8.8-1.1,16.7,5.9,19.8
	C128,107.1,128.2,112.4,121.9,112.8z"/>
<polygon class="st0" points="126,95.4 124.2,92.8 121.2,93.7 123.1,91.2 121.4,88.6 124.3,89.6 126.3,87.1 126.2,90.3 129.2,91.4 
	126.1,92.3 "/>
<path class="st1" d="M151.1,71.6c5.4-6.1,5.4-19.7-8.7-22.8c-14.1-3.1-29.9,11.2-33.8,20.7c5.6-6.7,11.3-8.3,19.9-8
	c0.6,0,0.7,1.2,0.1,1.1c-7.7-0.5-14.2,1.2-19.2,7.8c4.7-3.7,8.8-5.4,12.5-1.2c6.8,7.7,15.5,6.2,20.6,0.5
	C147.6,64,152.7,65.4,151.1,71.6z"/>
<polygon class="st0" points="135.8,62.3 132.8,63.1 132.7,66.3 130.9,63.7 127.9,64.6 129.8,62.1 128,59.4 131,60.5 132.9,58 
	132.8,61.2 "/>
</svg>
