<?xml version="1.0" encoding="utf-8"?>
<!-- Generator: Adobe Illustrator 22.1.0, SVG Export Plug-In . SVG Version: 6.00 Build 0)  -->
<svg version="1.1" id="layer_1" xmlns="http://www.w3.org/2000/svg" xmlns:xlink="http://www.w3.org/1999/xlink" x="0px" y="0px"
	 viewBox="0 0 216 144" style="enable-background:new 0 0 216 144;" xml:space="preserve">
<style type="text/css">
	.st0{fill:#FFFFFF;stroke:#000000;stroke-width:0.25;}
	.st1{fill:#DB7D43;stroke:#000000;stroke-width:0.25;}
	.st2{fill:#397C53;stroke:#000000;stroke-width:0.25;}
	.st3{fill:#002144;}
	.st4{fill:#FFFFFF;}
</style>
<rect x="0.4" y="47.5" class="st0" width="216.1" height="48"/>
<rect x="0.4" y="-0.5" class="st1" width="216.1" height="48"/>
<rect x="0.4" y="95.5" class="st2" width="216.1" height="48"/>
<g>
	<g>
		<path class="st3" d="M108.5,93.8c12.3,0,22.3-10,22.3-22.3c0-12.3-10-22.3-22.3-22.3c-12.3,0-22.3,10-22.3,22.3
			C86.2,83.8,96.2,93.8,108.5,93.8z"/>
		<path class="st3" d="M108.5,71.5"/>
	</g>
	<g>
		<path class="st4" d="M112.4,52.1c-0.1,0.7-0.7,1.2-1.4,1.1c-0.7-0.1-1.2-0.7-1.1-1.4c-0.8-0.1-1.9-0.1-2.6,0
			c0.1,0.7-0.4,1.3-1.1,1.4c-0.7,0.1-1.4-0.4-1.5-1.1c-0.8,0.1-1.9,0.4-2.5,0.7c0.3,0.7,0,1.4-0.7,1.7c-0.7,0.3-1.4,0-1.7-0.7
			c-0.7,0.3-1.7,0.9-2.2,1.3c0.4,0.6,0.3,1.4-0.2,1.8c-0.6,0.4-1.4,0.3-1.8-0.2c-0.6,0.5-1.4,1.3-1.8,1.8c0.6,0.4,0.7,1.2,0.2,1.8
			c-0.4,0.6-1.2,0.7-1.8,0.3c-0.4,0.6-1,1.6-1.3,2.2c0.7,0.3,1,1,0.7,1.7c-0.3,0.7-1,1-1.7,0.7c-0.3,0.7-0.6,1.8-0.7,2.5
			c0.7,0.1,1.2,0.7,1.1,1.4c-0.1,0.7-0.7,1.2-1.4,1.1c-0.1,0.8-0.1,1.9,0,2.6c0.7-0.1,1.3,0.4,1.4,1.1c0.1,0.7-0.4,1.4-1.1,1.5
			c0.1,0.8,0.4,1.9,0.7,2.5c0.7-0.3,1.4,0,1.7,0.7c0.3,0.7,0,1.4-0.7,1.7c0.3,0.7,0.9,1.7,1.3,2.2c0.6-0.4,1.4-0.3,1.8,0.2
			c0.4,0.6,0.3,1.4-0.2,1.8c0.5,0.6,1.3,1.4,1.8,1.8c0.4-0.6,1.2-0.7,1.8-0.2c0.6,0.4,0.7,1.2,0.3,1.8c0.6,0.4,1.6,1,2.2,1.3
			c0.3-0.7,1-1,1.7-0.7c0.7,0.3,1,1,0.7,1.7c0.7,0.3,1.8,0.6,2.5,0.7c0.1-0.7,0.7-1.2,1.4-1.1c0.7,0.1,1.2,0.7,1.1,1.4
			c0.8,0.1,1.9,0.1,2.6,0c-0.1-0.7,0.4-1.3,1.1-1.4c0.7-0.1,1.4,0.4,1.5,1.1c0.8-0.1,1.9-0.4,2.5-0.7c-0.3-0.7,0-1.4,0.7-1.7
			c0.7-0.3,1.4,0,1.7,0.7c0.7-0.3,1.7-0.9,2.2-1.3c-0.4-0.6-0.3-1.4,0.2-1.8c0.6-0.4,1.4-0.3,1.8,0.2c0.6-0.5,1.4-1.3,1.8-1.8
			c-0.6-0.4-0.7-1.2-0.2-1.8c0.4-0.6,1.2-0.7,1.8-0.3c0.4-0.6,1-1.6,1.3-2.2c-0.7-0.3-1-1-0.7-1.7c0.3-0.7,1-1,1.7-0.7
			c0.3-0.7,0.6-1.8,0.7-2.5c-0.7-0.1-1.2-0.7-1.1-1.4c0.1-0.7,0.7-1.2,1.4-1.1c0.1-0.8,0.1-1.9,0-2.6c-0.7,0.1-1.3-0.4-1.4-1.1
			c-0.1-0.7,0.4-1.4,1.1-1.5c-0.1-0.8-0.4-1.9-0.7-2.5c-0.7,0.3-1.4,0-1.7-0.7c-0.3-0.7,0-1.4,0.7-1.7c-0.3-0.7-0.9-1.7-1.3-2.2
			c-0.6,0.4-1.4,0.3-1.8-0.2c-0.4-0.6-0.3-1.4,0.2-1.8c-0.5-0.6-1.3-1.4-1.8-1.8c-0.4,0.6-1.2,0.7-1.8,0.2c-0.6-0.4-0.7-1.2-0.3-1.8
			c-0.6-0.4-1.6-1-2.2-1.3c-0.3,0.7-1,1-1.7,0.7c-0.7-0.3-1-1-0.7-1.7C114.1,52.5,113,52.2,112.4,52.1z"/>
	</g>
	<g>
		<path class="st3" d="M108.5,71.5c0.3-3.8,0.1-5.8,0.7-8.3c-0.4-3.4-0.5-9.5-0.7-11.5c-0.2,2-0.3,8.1-0.7,11.5
			C108.4,65.7,108.2,67.7,108.5,71.5z"/>
		<path class="st3" d="M108.5,71.5c-0.7-3.8-1.4-5.6-1.5-8.2c-1.3-3.1-2.9-9-3.7-10.9c0.3,2,1.8,7.9,2.3,11.3
			C106.9,65.9,107.2,67.9,108.5,71.5z"/>
		<path class="st3" d="M108.5,71.5c-1.7-3.4-2.8-5.1-3.5-7.6c-2-2.7-5.2-7.9-6.3-9.6c0.8,1.8,3.8,7.2,5.1,10.3
			C105.5,66.5,106.4,68.3,108.5,71.5z"/>
		<path class="st3" d="M108.5,71.5c-2.5-2.9-4-4.2-5.4-6.4c-2.7-2.1-7-6.3-8.6-7.6c1.3,1.6,5.5,5.9,7.6,8.6
			C104.3,67.5,105.6,69,108.5,71.5z"/>
		<path class="st3" d="M108.5,71.5c-3.2-2.1-5-3-6.9-4.8c-3.1-1.3-8.4-4.3-10.3-5.1c1.6,1.2,6.9,4.3,9.6,6.3
			C103.4,68.7,105.1,69.8,108.5,71.5z"/>
		<path class="st3" d="M108.5,71.5c-3.6-1.3-5.6-1.6-7.9-2.8c-3.4-0.5-9.3-2-11.3-2.3c1.9,0.7,7.7,2.4,10.9,3.7
			C102.9,70.1,104.7,70.8,108.5,71.5z"/>
		<path class="st3" d="M108.5,71.5c-3.8-0.3-5.8-0.1-8.3-0.7c-3.4,0.4-9.5,0.5-11.5,0.7c2,0.2,8.1,0.3,11.5,0.7
			C102.7,71.6,104.7,71.8,108.5,71.5z"/>
		<path class="st3" d="M108.5,71.5c-3.8,0.7-5.6,1.4-8.2,1.5c-3.1,1.3-9,2.9-10.9,3.7c2-0.3,7.9-1.8,11.3-2.3
			C102.9,73.1,104.9,72.8,108.5,71.5z"/>
		<path class="st3" d="M108.5,71.5c-3.4,1.7-5.1,2.8-7.6,3.5c-2.7,2-7.9,5.2-9.6,6.3c1.8-0.8,7.2-3.8,10.3-5.1
			C103.5,74.5,105.3,73.6,108.5,71.5z"/>
		<path class="st3" d="M108.5,71.5c-2.9,2.5-4.2,4-6.4,5.4c-2.1,2.7-6.3,7-7.6,8.6c1.6-1.3,5.9-5.5,8.6-7.6
			C104.5,75.7,106,74.4,108.5,71.5z"/>
		<path class="st3" d="M108.5,71.5c-2.1,3.2-3,5-4.8,6.9c-1.3,3.1-4.3,8.4-5.1,10.3c1.2-1.6,4.3-6.9,6.3-9.6
			C105.7,76.6,106.8,74.9,108.5,71.5z"/>
		<path class="st3" d="M108.5,71.5c-1.3,3.6-1.6,5.6-2.8,7.9c-0.5,3.4-2,9.3-2.3,11.3c0.7-1.9,2.4-7.7,3.7-10.9
			C107.1,77.1,107.8,75.3,108.5,71.5z"/>
		<path class="st3" d="M108.5,71.5c-0.3,3.8-0.1,5.8-0.7,8.3c0.4,3.4,0.5,9.5,0.7,11.5c0.2-2,0.3-8.1,0.7-11.5
			C108.6,77.3,108.8,75.3,108.5,71.5z"/>
		<path class="st3" d="M108.5,71.5c0.7,3.8,1.4,5.6,1.5,8.2c1.3,3.1,2.9,9,3.7,10.9c-0.3-2-1.8-7.9-2.3-11.3
			C110.1,77.1,109.8,75.1,108.5,71.5z"/>
		<path class="st3" d="M108.5,71.5c1.7,3.4,2.8,5.1,3.5,7.6c2,2.7,5.2,7.9,6.3,9.6c-0.8-1.8-3.8-7.2-5.1-10.3
			C111.5,76.5,110.6,74.7,108.5,71.5z"/>
		<path class="st3" d="M108.5,71.5c2.5,2.9,4,4.2,5.4,6.4c2.7,2.1,7,6.3,8.6,7.6c-1.3-1.6-5.5-5.9-7.6-8.6
			C112.7,75.5,111.4,74,108.5,71.5z"/>
		<path class="st3" d="M108.5,71.5c3.2,2.1,5,3,6.9,4.8c3.1,1.3,8.4,4.3,10.3,5.1c-1.6-1.2-6.9-4.3-9.6-6.3
			C113.6,74.3,111.9,73.2,108.5,71.5z"/>
		<path class="st3" d="M108.5,71.5c3.6,1.3,5.6,1.6,7.9,2.8c3.4,0.5,9.3,2,11.3,2.3c-1.9-0.7-7.7-2.4-10.9-3.7
			C114.1,72.9,112.3,72.2,108.5,71.5z"/>
		<path class="st3" d="M108.5,71.5c3.8,0.3,5.8,0.1,8.3,0.7c3.4-0.4,9.5-0.5,11.5-0.7c-2-0.2-8.1-0.3-11.5-0.7
			C114.3,71.4,112.3,71.2,108.5,71.5z"/>
		<path class="st3" d="M108.5,71.5c3.8-0.7,5.6-1.4,8.2-1.5c3.1-1.3,9-2.9,10.9-3.7c-2,0.3-7.9,1.8-11.3,2.3
			C114.1,69.9,112.1,70.2,108.5,71.5z"/>
		<path class="st3" d="M108.5,71.5c3.4-1.7,5.1-2.8,7.6-3.5c2.7-2,7.9-5.2,9.6-6.3c-1.8,0.8-7.2,3.8-10.3,5.1
			C113.5,68.5,111.7,69.4,108.5,71.5z"/>
		<path class="st3" d="M108.5,71.5c2.9-2.5,4.2-4,6.4-5.4c2.1-2.7,6.3-7,7.6-8.6c-1.6,1.3-5.9,5.5-8.6,7.6
			C112.5,67.3,111,68.6,108.5,71.5z"/>
		<path class="st3" d="M108.5,71.5c2.1-3.2,3-5,4.8-6.9c1.3-3.1,4.3-8.4,5.1-10.3c-1.2,1.6-4.3,6.9-6.3,9.6
			C111.3,66.4,110.2,68.1,108.5,71.5z"/>
		<path class="st3" d="M108.5,71.5c1.3-3.6,1.6-5.6,2.8-7.9c0.5-3.4,2-9.3,2.3-11.3c-0.7,1.9-2.4,7.7-3.7,10.9
			C109.9,65.9,109.2,67.7,108.5,71.5z"/>
	</g>
</g>
</svg>
