<?xml version="1.0" encoding="utf-8"?>
<!-- Generator: Adobe Illustrator 22.1.0, SVG Export Plug-In . SVG Version: 6.00 Build 0)  -->
<svg version="1.1" id="layer_1" xmlns="http://www.w3.org/2000/svg" xmlns:xlink="http://www.w3.org/1999/xlink" x="0px" y="0px"
	 viewBox="0 0 216 144" style="enable-background:new 0 0 216 144;" xml:space="preserve">
<style type="text/css">
	.st0{fill:#FFFFFF;}
	.st1{fill:#41874C;}
	.st2{fill:#D14A43;}
	.st3{fill:none;stroke:#FFF243;stroke-width:1.3078;}
	.st4{fill:none;stroke:#FFFFFF;stroke-width:1.3078;}
</style>
<g>
	<g>
		<rect x="0.3" y="0.3" class="st0" width="216" height="144"/>
		<path class="st0" d="M108.3,72.3"/>
	</g>
	<g>
		<g>
			<path class="st1" d="M25.1,48.3h15.2c0,0,2.4,0,2.4,3.4h2.1c0,0-0.5-3.4,1.9-3.4"/>
			<path class="st1" d="M46.5,48.3h15.5c0,0,2.4,0,2.4,3.4h2.1c0,0-0.5-3.4,1.9-3.4"/>
			<path class="st1" d="M68.1,48.3h15.5c0,0,2.4,0,2.4,3.4h2.1c0,0-0.5-3.4,1.9-3.4"/>
			<path class="st1" d="M89.7,48.3h15.2c0,0,2.4,0,2.4,3.4h2.1c0,0-0.5-3.4,1.9-3.4"/>
			<path class="st1" d="M111,48.3h15.5c0,0,2.4,0,2.4,3.4h2.1c0,0-0.5-3.4,1.9-3.4"/>
			<path class="st1" d="M132.6,48.3h15.5c0,0,2.4,0,2.4,3.4h2.1c0,0-0.5-3.4,1.9-3.4"/>
			<path class="st1" d="M154.2,48.3h15.2c0,0,2.4,0,2.4,3.4h2.1c0,0-0.5-3.4,1.9-3.4"/>
			<path class="st1" d="M175.5,48.3H191c0,0,2.4,0,2.4,3.4h2.1c0,0-0.5-3.4,1.9-3.4"/>
			<path class="st1" d="M25.1,48.3c-2.4,0-1.9,3.4-1.9,3.4h-2.1c0-3.4-2.4-3.4-2.4-3.4H0.3v-48h216v48h-19.2"/>
		</g>
	</g>
	<g>
		<g>
			<path class="st2" d="M25.1,96.3h15.2c0,0,2.4,0,2.4-3.4h2.1c0,0-0.5,3.4,1.9,3.4"/>
			<path class="st2" d="M46.5,96.3h15.5c0,0,2.4,0,2.4-3.4h2.1c0,0-0.5,3.4,1.9,3.4"/>
			<path class="st2" d="M68.1,96.3h15.5c0,0,2.4,0,2.4-3.4h2.1c0,0-0.5,3.4,1.9,3.4"/>
			<path class="st2" d="M89.7,96.3h15.2c0,0,2.4,0,2.4-3.4h2.1c0,0-0.5,3.4,1.9,3.4"/>
			<path class="st2" d="M111,96.3h15.5c0,0,2.4,0,2.4-3.4h2.1c0,0-0.5,3.4,1.9,3.4"/>
			<path class="st2" d="M132.6,96.3h15.5c0,0,2.4,0,2.4-3.4h2.1c0,0-0.5,3.4,1.9,3.4"/>
			<path class="st2" d="M154.2,96.3h15.2c0,0,2.4,0,2.4-3.4h2.1c0,0-0.5,3.4,1.9,3.4"/>
			<path class="st2" d="M175.5,96.3H191c0,0,2.4,0,2.4-3.4h2.1c0,0-0.5,3.4,1.9,3.4"/>
			<path class="st2" d="M25.1,96.3c-2.4,0-1.9-3.4-1.9-3.4h-2.1c0,3.4-2.4,3.4-2.4,3.4H0.3v48h216v-48h-19.2"/>
		</g>
	</g>
	<g>
		<g>
			<polyline class="st3" points="3.3,108 3.3,102.4 11,102.4 13.4,107 19.5,107 19.5,102.1 15,102.1 15,104.6 			"/>
			<g>
				<path class="st3" d="M7.8,107.7c0.6,0,1.1-0.6,1.1-1.3c0-0.7-0.5-1.3-1.1-1.3c-0.6,0-1.1,0.6-1.1,1.3
					C6.7,107.2,7.2,107.7,7.8,107.7z"/>
			</g>
			<polyline class="st3" points="28.3,107 24.6,107 24.6,102.4 31.8,102.4 			"/>
			<polyline class="st3" points="32.1,99 32.1,107 41.9,107 41.9,99 			"/>
			<line class="st3" x1="36.9" y1="99" x2="36.9" y2="107"/>
			<line class="st3" x1="2.7" y1="99.7" x2="29.7" y2="99.7"/>
		</g>
		<g>
			<polyline class="st3" points="46.2,108 46.2,102.4 53.9,102.4 56.3,107 62.5,107 62.5,102.1 57.9,102.1 57.9,104.6 			"/>
			<g>
				<path class="st3" d="M50.7,107.7c0.6,0,1.1-0.6,1.1-1.3c0-0.7-0.5-1.3-1.1-1.3c-0.6,0-1.1,0.6-1.1,1.3
					C49.6,107.2,50.1,107.7,50.7,107.7z"/>
			</g>
			<polyline class="st3" points="71.3,107 67.5,107 67.5,102.4 74.7,102.4 			"/>
			<polyline class="st3" points="75,99 75,107 84.9,107 84.9,99 			"/>
			<line class="st3" x1="79.8" y1="99" x2="79.8" y2="107"/>
			<line class="st3" x1="45.7" y1="99.7" x2="72.6" y2="99.7"/>
		</g>
		<g>
			<polyline class="st3" points="89.1,108 89.1,102.4 96.9,102.4 99.3,107 105.4,107 105.4,102.1 100.9,102.1 100.9,104.6 			"/>
			<g>
				<path class="st3" d="M93.7,107.7c0.6,0,1.1-0.6,1.1-1.3c0-0.7-0.5-1.3-1.1-1.3s-1.1,0.6-1.1,1.3C92.5,107.2,93,107.7,93.7,107.7
					z"/>
			</g>
			<polyline class="st3" points="114.2,107 110.5,107 110.5,102.4 117.7,102.4 			"/>
			<polyline class="st3" points="117.9,99 117.9,107 127.8,107 127.8,99 			"/>
			<line class="st3" x1="122.7" y1="99" x2="122.7" y2="107"/>
			<line class="st3" x1="88.6" y1="99.7" x2="115.5" y2="99.7"/>
		</g>
		<g>
			<polyline class="st3" points="132.1,108 132.1,102.4 139.8,102.4 142.2,107 148.3,107 148.3,102.1 143.8,102.1 143.8,104.6 			
				"/>
			<g>
				<path class="st3" d="M136.6,107.7c0.6,0,1.1-0.6,1.1-1.3c0-0.7-0.5-1.3-1.1-1.3c-0.6,0-1.1,0.6-1.1,1.3
					C135.5,107.2,136,107.7,136.6,107.7z"/>
			</g>
			<polyline class="st3" points="157.1,107 153.4,107 153.4,102.4 160.6,102.4 			"/>
			<polyline class="st3" points="160.9,99 160.9,107 170.7,107 170.7,99 			"/>
			<line class="st3" x1="165.7" y1="99" x2="165.7" y2="107"/>
			<line class="st3" x1="131.5" y1="99.7" x2="158.5" y2="99.7"/>
		</g>
		<g>
			<polyline class="st3" points="175,108 175,102.4 182.7,102.4 185.1,107 191.3,107 191.3,102.1 186.7,102.1 186.7,104.6 			"/>
			<g>
				<path class="st3" d="M179.5,107.7c0.6,0,1.1-0.6,1.1-1.3c0-0.7-0.5-1.3-1.1-1.3c-0.6,0-1.1,0.6-1.1,1.3
					C178.4,107.2,178.9,107.7,179.5,107.7z"/>
			</g>
			<polyline class="st3" points="200.1,107 196.3,107 196.3,102.4 203.5,102.4 			"/>
			<polyline class="st3" points="203.8,99 203.8,107 213.7,107 213.7,99 			"/>
			<line class="st3" x1="208.6" y1="99" x2="208.6" y2="107"/>
			<line class="st3" x1="174.5" y1="99.7" x2="201.4" y2="99.7"/>
		</g>
	</g>
	<g>
		<g>
			<polyline class="st4" points="3.5,46.1 3.5,40.6 11.3,40.6 13.7,45.2 19.8,45.2 19.8,40.3 15.3,40.3 15.3,42.7 			"/>
			<g>
				<path class="st4" d="M8.1,45.9c0.6,0,1.1-0.6,1.1-1.3c0-0.7-0.5-1.3-1.1-1.3c-0.6,0-1.1,0.6-1.1,1.3C6.9,45.3,7.4,45.9,8.1,45.9
					z"/>
			</g>
			<polyline class="st4" points="28.6,45.2 24.9,45.2 24.9,40.6 32.1,40.6 			"/>
			<polyline class="st4" points="32.3,37.2 32.3,45.2 42.2,45.2 42.2,37.2 			"/>
			<line class="st4" x1="37.1" y1="37.2" x2="37.1" y2="45.2"/>
			<line class="st4" x1="3" y1="37.8" x2="29.9" y2="37.8"/>
		</g>
		<g>
			<polyline class="st4" points="46.5,46.1 46.5,40.6 54.2,40.6 56.6,45.2 62.7,45.2 62.7,40.3 58.2,40.3 58.2,42.7 			"/>
			<g>
				<path class="st4" d="M51,45.9c0.6,0,1.1-0.6,1.1-1.3c0-0.7-0.5-1.3-1.1-1.3c-0.6,0-1.1,0.6-1.1,1.3C49.9,45.3,50.4,45.9,51,45.9
					z"/>
			</g>
			<polyline class="st4" points="71.5,45.2 67.8,45.2 67.8,40.6 75,40.6 			"/>
			<polyline class="st4" points="75.3,37.2 75.3,45.2 85.1,45.2 85.1,37.2 			"/>
			<line class="st4" x1="80.1" y1="37.2" x2="80.1" y2="45.2"/>
			<line class="st4" x1="45.9" y1="37.8" x2="72.9" y2="37.8"/>
		</g>
		<g>
			<polyline class="st4" points="89.4,46.1 89.4,40.6 97.1,40.6 99.5,45.2 105.7,45.2 105.7,40.3 101.1,40.3 101.1,42.7 			"/>
			<g>
				<path class="st4" d="M93.9,45.9c0.6,0,1.1-0.6,1.1-1.3c0-0.7-0.5-1.3-1.1-1.3c-0.6,0-1.1,0.6-1.1,1.3
					C92.8,45.3,93.3,45.9,93.9,45.9z"/>
			</g>
			<polyline class="st4" points="114.5,45.2 110.7,45.2 110.7,40.6 117.9,40.6 			"/>
			<polyline class="st4" points="118.2,37.2 118.2,45.2 128.1,45.2 128.1,37.2 			"/>
			<line class="st4" x1="123" y1="37.2" x2="123" y2="45.2"/>
			<line class="st4" x1="88.9" y1="37.8" x2="115.8" y2="37.8"/>
		</g>
		<g>
			<polyline class="st4" points="132.3,46.1 132.3,40.6 140.1,40.6 142.5,45.2 148.6,45.2 148.6,40.3 144.1,40.3 144.1,42.7 			"/>
			<g>
				<path class="st4" d="M136.9,45.9c0.6,0,1.1-0.6,1.1-1.3c0-0.7-0.5-1.3-1.1-1.3c-0.6,0-1.1,0.6-1.1,1.3
					C135.7,45.3,136.2,45.9,136.9,45.9z"/>
			</g>
			<polyline class="st4" points="157.4,45.2 153.7,45.2 153.7,40.6 160.9,40.6 			"/>
			<polyline class="st4" points="161.1,37.2 161.1,45.2 171,45.2 171,37.2 			"/>
			<line class="st4" x1="165.9" y1="37.2" x2="165.9" y2="45.2"/>
			<line class="st4" x1="131.8" y1="37.8" x2="158.7" y2="37.8"/>
		</g>
		<g>
			<polyline class="st4" points="175.3,46.1 175.3,40.6 183,40.6 185.4,45.2 191.5,45.2 191.5,40.3 187,40.3 187,42.7 			"/>
			<g>
				<path class="st4" d="M179.8,45.9c0.6,0,1.1-0.6,1.1-1.3c0-0.7-0.5-1.3-1.1-1.3c-0.6,0-1.1,0.6-1.1,1.3
					C178.7,45.3,179.2,45.9,179.8,45.9z"/>
			</g>
			<polyline class="st4" points="200.3,45.2 196.6,45.2 196.6,40.6 203.8,40.6 			"/>
			<polyline class="st4" points="204.1,37.2 204.1,45.2 213.9,45.2 213.9,37.2 			"/>
			<line class="st4" x1="208.9" y1="37.2" x2="208.9" y2="45.2"/>
			<line class="st4" x1="174.7" y1="37.8" x2="201.7" y2="37.8"/>
		</g>
	</g>
</g>
<g>
	<path class="st2" d="M115.1,90C99,89.5,86.7,74.7,102.4,57.7C91.2,76.9,104.8,85.5,115.1,90z"/>
	<path class="st2" d="M99.7,87.4c-14.4-5.7-18.4-22.6,3-29.8C84.5,67.8,92.3,80.7,99.7,87.4z"/>
	<path class="st2" d="M112.9,52.5c-3.2,6.7-6.7,6.3-9.6,0C106.5,56.5,109.8,55.9,112.9,52.5z"/>
	<path class="st2" d="M101.6,90c16.1-0.5,28.4-15.3,12.6-32.4C125.4,76.9,111.8,85.5,101.6,90z"/>
	<path class="st2" d="M116.9,87.4c14.4-5.7,18.4-22.6-3-29.8C132.2,67.8,124.4,80.7,116.9,87.4z"/>
	<g>
		<path class="st2" d="M108.4,88.9c0.9,0,1.6-0.7,1.6-1.6V61.4c-2,0-0.9-7.2-1.5-4.7h-0.6c-0.3-0.2,0.7,4.6-1.2,4.7v25.8
			C106.8,88.2,107.5,88.9,108.4,88.9L108.4,88.9z"/>
		<path class="st2" d="M108.4,71.9"/>
	</g>
	<path class="st2" d="M107.1,87.2l3.1,0.3l-0.5,3.1c-0.2,1.2-2,1.4-2.2,0.2L107.1,87.2z"/>
</g>
</svg>
