<?xml version="1.0" encoding="utf-8"?>
<!-- Generator: Adobe Illustrator 22.1.0, SVG Export Plug-In . SVG Version: 6.00 Build 0)  -->
<svg version="1.1" id="layer_1" xmlns="http://www.w3.org/2000/svg" xmlns:xlink="http://www.w3.org/1999/xlink" x="0px" y="0px"
	 viewBox="0 0 216 144" style="enable-background:new 0 0 216 144;" xml:space="preserve">
<style type="text/css">
	.st0{fill:#D14A48;}
	.st1{fill:#FCDE4B;stroke:#000000;stroke-width:6.250000e-02;}
	.st2{fill:#FCDE4B;}
</style>
<rect x="-0.3" y="0.5" class="st0" width="216" height="144"/>
<g>
	<g>
		<path class="st1" d="M109.9,44.7c0.1-4.8,4.3-8.2,4.5-14.6c3.1,3.9-2,11.1-0.2,15.3c0.8-4.8,5.6-7.4,6.7-13.7
			c2.4,4.3-3.7,10.6-2.6,15c1.6-4.6,6.6-6.4,8.8-12.5c1.7,4.6-5.3,9.9-4.9,14.5c2.2-4.3,7.6-5.3,10.7-10.9c1,4.8-6.8,9-7.1,13.5
			c2.9-3.9,8.3-4,12.2-9.1c0.2,4.9-8.1,7.8-9.1,12.2c3.5-3.4,8.8-2.7,13.5-7.1c-0.6,4.9-9.3,6.4-10.9,10.7c3.9-2.8,9.1-1.3,14.5-4.9
			c-1.3,4.7-10.1,4.9-12.5,8.8c4.3-2.1,9.2,0.2,15-2.6c-2,4.5-10.8,3.2-13.7,6.8c4.6-1.4,9.1,1.6,15.3-0.2
			c-2.7,4.1-11.2,1.5-14.6,4.5c4.8-0.7,8.7,3,15.1,2.2c-3.3,3.6-11.3-0.2-15.1,2.2c4.8,0.1,8.2,4.3,14.6,4.5
			c-3.9,3.1-11.1-2-15.3-0.2c4.8,0.8,7.4,5.6,13.7,6.7c-4.3,2.4-10.6-3.7-15-2.6c4.6,1.6,6.4,6.6,12.5,8.8
			c-4.6,1.7-9.9-5.3-14.5-4.9c4.3,2.2,5.3,7.6,10.9,10.7c-4.8,1-9-6.8-13.5-7.1c3.9,2.9,4,8.3,9.1,12.2c-4.9,0.2-7.8-8.1-12.2-9.1
			c3.4,3.5,2.7,8.8,7.1,13.5c-4.9-0.6-6.4-9.3-10.7-10.9c2.8,3.9,1.3,9.1,4.9,14.5c-4.7-1.3-4.9-10.1-8.8-12.5
			c2.1,4.3-0.2,9.2,2.6,15c-4.5-2-3.2-10.8-6.8-13.7c1.4,4.6-1.6,9.1,0.2,15.3c-4.1-2.7-1.5-11.2-4.5-14.6c0.7,4.8-3,8.7-2.2,15.1
			c-3.6-3.3,0.2-11.3-2.2-15.1c-0.1,4.8-4.3,8.2-4.5,14.6c-3.1-3.9,2-11.1,0.2-15.3c-0.8,4.8-5.6,7.4-6.7,13.7
			c-2.4-4.3,3.7-10.6,2.6-15c-1.6,4.6-6.6,6.4-8.8,12.5c-1.7-4.6,5.3-9.9,4.9-14.5c-2.2,4.3-7.6,5.3-10.7,10.9
			c-1-4.8,6.8-9,7.1-13.5c-2.9,3.9-8.3,4-12.2,9.1c-0.2-4.9,8.1-7.8,9.1-12.2c-3.5,3.4-8.8,2.7-13.5,7.1c0.6-4.9,9.3-6.4,10.9-10.7
			c-3.9,2.8-9.1,1.3-14.5,4.9c1.3-4.7,10.1-4.9,12.5-8.8c-4.3,2.1-9.2-0.2-15,2.6c2-4.5,10.8-3.2,13.7-6.8
			c-4.6,1.4-9.1-1.6-15.3,0.2c2.7-4.1,11.2-1.5,14.6-4.5c-4.8,0.7-8.7-3-15.1-2.2c3.3-3.6,11.3,0.2,15.1-2.2
			c-4.8-0.1-8.2-4.3-14.6-4.5c3.9-3.1,11.1,2,15.3,0.2c-4.8-0.8-7.4-5.6-13.7-6.7c4.3-2.4,10.6,3.7,15,2.6
			c-4.6-1.6-6.4-6.6-12.5-8.8c4.6-1.7,9.9,5.3,14.5,4.9c-4.3-2.2-5.3-7.6-10.9-10.7c4.8-1,9,6.8,13.5,7.1c-3.9-2.9-4-8.3-9.1-12.2
			c4.9-0.2,7.8,8.1,12.2,9.1c-3.4-3.5-2.7-8.8-7.1-13.5c4.9,0.6,6.4,9.3,10.7,10.9c-2.8-3.9-1.3-9.1-4.9-14.5
			c4.7,1.3,4.9,10.1,8.8,12.5c-2.1-4.3,0.2-9.2-2.6-15c4.5,2,3.2,10.8,6.8,13.7c-1.4-4.6,1.6-9.1-0.2-15.3
			c4.1,2.7,1.5,11.2,4.5,14.6c-0.7-4.8,3-8.7,2.2-15.1C111.4,32.9,107.5,40.8,109.9,44.7z"/>
	</g>
	
		<ellipse transform="matrix(0.3402 -0.9404 0.9404 0.3402 2.9196 149.1609)" class="st0" cx="107.7" cy="72.5" rx="22.7" ry="22.7"/>
	<g>
		<g>
			<path class="st2" d="M107.7,52.7c5.8,0,11,2.5,14.6,6.4c-5.7,0.6-10.5,1.9-14.6,3.9c-4.1-2-8.9-3.4-14.6-3.9
				C96.8,55.2,102,52.7,107.7,52.7z"/>
			<path class="st2" d="M106.2,63.9c-0.5,0.3-0.9,0.5-1.3,0.8c-3.7-2-8.1-3.2-13.3-3.6c0.2-0.3,0.5-0.7,0.7-1
				C97.8,60.6,102.4,61.9,106.2,63.9z"/>
			<path class="st2" d="M109.2,63.9c0.5,0.3,0.9,0.5,1.3,0.8c3.7-2,8.1-3.2,13.3-3.6c-0.2-0.3-0.5-0.7-0.7-1
				C117.7,60.6,113.1,61.9,109.2,63.9z"/>
			<path class="st2" d="M90.9,62.1c-0.2,0.3-0.4,0.7-0.6,1c4.9,0.1,9,1.2,12.3,3.1c0.4-0.3,0.7-0.5,1.1-0.8
				C100.2,63.6,96,62.4,90.9,62.1z"/>
			<path class="st2" d="M90.7,82.4c-1.7-2.9-2.7-6.3-2.7-9.9c0-3,0.6-5.7,1.8-8.3c4.7,0,8.7,1,11.9,2.8
				C96.9,70.9,93.4,76.2,90.7,82.4z"/>
			<path class="st2" d="M100.6,91c-0.9-0.3-1.7-0.7-2.6-1.2c0.5-7.4,2.9-14.5,7.7-19.6c0.4,0.3,0.7,0.7,1,1.1
				C102.3,76.4,100.4,83.7,100.6,91z"/>
			<path class="st2" d="M124.6,62.1c0.2,0.3,0.4,0.7,0.6,1c-4.9,0.1-9,1.2-12.3,3.1c-0.4-0.3-0.7-0.5-1.1-0.8
				C115.3,63.6,119.5,62.4,124.6,62.1z"/>
			<path class="st2" d="M124.8,82.4c1.7-2.9,2.7-6.3,2.7-9.9c0-3-0.6-5.7-1.8-8.3c-4.7,0-8.7,1-11.9,2.8
				C118.6,70.9,122.1,76.2,124.8,82.4z"/>
			<path class="st2" d="M107.7,72.3c4.1,5.3,5.6,12.4,4.8,19.4c-1.5,0.4-3.1,0.6-4.8,0.6c-1.7,0-3.3-0.2-4.8-0.6
				C102.2,84.7,103.7,77.5,107.7,72.3z"/>
			<path class="st2" d="M114.9,91c0.9-0.3,1.7-0.7,2.6-1.2c-0.5-7.4-2.9-14.5-7.7-19.6c-0.4,0.3-0.7,0.7-1,1.1
				C113.2,76.4,115.1,83.7,114.9,91z"/>
			<path class="st2" d="M104.6,69c-0.4-0.3-0.9-0.7-1.4-1c-5,4.4-8.3,10.5-10.4,17.5c0.8,0.9,1.6,1.7,2.5,2.4
				C96.7,80.6,99.6,73.9,104.6,69z"/>
			<path class="st2" d="M110.9,69c0.4-0.3,0.9-0.7,1.4-1c5,4.4,8.3,10.5,10.4,17.5c-0.8,0.9-1.6,1.7-2.5,2.4
				C118.8,80.6,115.9,73.9,110.9,69z"/>
			<path class="st2" d="M107.7,64.8c0.2,0.1,1.1,0.7,1.3,0.8c-0.3,0.2-1.1,0.7-1.3,0.9c-0.2-0.1-1-0.7-1.3-0.9
				C106.6,65.4,107.5,64.9,107.7,64.8z"/>
			<path class="st2" d="M105.2,66.4c-0.3,0.3-0.8,0.6-1,0.8c0.5,0.3,1.1,0.8,1.3,1c0.3-0.2,0.8-0.7,1-0.9
				C106.2,67.1,105.5,66.6,105.2,66.4z"/>
			<path class="st2" d="M110.2,66.4c0.3,0.3,0.8,0.6,1,0.8c-0.5,0.3-1.1,0.8-1.3,1c-0.3-0.2-0.8-0.7-1-0.9
				C109.3,67.1,110,66.6,110.2,66.4z"/>
			<path class="st2" d="M107.7,68.3c0.2,0.2,0.9,0.8,1,0.9c-0.3,0.3-0.8,0.7-1,1c-0.2-0.3-0.7-0.7-1-1
				C106.9,69,107.5,68.4,107.7,68.3z"/>
		</g>
	</g>
</g>
</svg>
