<?xml version="1.0" encoding="utf-8"?>
<!-- Generator: Adobe Illustrator 22.1.0, SVG Export Plug-In . SVG Version: 6.00 Build 0)  -->
<svg version="1.1" id="layer_1" xmlns="http://www.w3.org/2000/svg" xmlns:xlink="http://www.w3.org/1999/xlink" x="0px" y="0px"
	 viewBox="0 0 216 144" style="enable-background:new 0 0 216 144;" xml:space="preserve">
<style type="text/css">
	.st0{fill:#3E5C91;}
	.st1{fill:#D24D5C;}
	.st2{fill:#FFFFFF;stroke:#D24D5C;stroke-width:0.25;stroke-linecap:round;stroke-linejoin:round;}
	.st3{fill:none;stroke:#D24D5C;stroke-width:0.25;stroke-linecap:round;stroke-linejoin:round;}
</style>
<g>
	<rect x="0.5" class="st0" width="216" height="144"/>
	<path class="st0" d="M108.5,72"/>
</g>
<rect x="0.5" y="36" class="st1" width="216" height="72"/>
<g>
	<path class="st2" d="M150.8,87.7c-0.6-0.3-1.6-1.4-1.9-2.3c0,0,0-5.6,0-7.4c0-1.8,0.9-2.9,1.9-3.3V67c-0.2,0.6-1.6,0.4-1.6,1.7
		H67.9c0-1.3-1.4-1.1-1.6-1.7v7.8c1,0.5,1.9,1.5,1.9,3.3c0,1.8,0,7.4,0,7.4c-0.3,0.9-1.3,2-1.9,2.3H150.8z"/>
	<rect x="64.6" y="87.7" class="st2" width="87.8" height="2.1"/>
	<rect x="62.8" y="89.9" class="st2" width="91.5" height="3.1"/>
	<rect x="60.4" y="92.9" class="st2" width="96.4" height="3.5"/>
	<rect x="57.7" y="96.5" class="st2" width="101.7" height="4.3"/>
	<rect x="54.5" y="100.8" class="st2" width="108.1" height="4.4"/>
	<line class="st2" x1="106.8" y1="85.5" x2="68.2" y2="85.5"/>
	<path class="st2" d="M83.8,74.1c0-1.1,0-11.2,0-11.7s-0.1-0.7-0.5-0.6c-0.5,0.2-1,0.8-1.3,1.4c-0.3,0.6-1,0.3-1-0.1
		c0-1.7,1-1.2,1-2.6c0-0.5-0.4-0.3-0.9,0c-0.5,0.3-0.5-0.3-0.5-0.8c0-0.8,0.6-0.6,0.6-1.6c0-0.6-0.5-0.3-0.9,0
		c-0.3,0.3-0.6,0.2-0.6-0.5c0-0.8,0.8-0.8,0.8-1.6c0-0.5-0.4-0.3-0.6,0c-0.2,0.3-0.9,0.3-0.8-0.1c0.3-1.3-0.4-2.7-0.9-3.1
		c-0.5-0.5-0.6-0.7-0.6-1.1c0-0.4,0-0.6-0.3-0.6C77,51,77,51.3,77,51.6c0,0.4,0,0.7-0.6,1.1c-0.5,0.5-1.2,1.8-0.9,3.1
		c0.1,0.4-0.5,0.5-0.8,0.1c-0.2-0.3-0.6-0.5-0.6,0c0,0.7,0.8,0.8,0.8,1.6c0,0.7-0.2,0.9-0.6,0.5c-0.3-0.3-0.9-0.7-0.9,0
		c0,1.1,0.6,0.8,0.6,1.6c0,0.6,0,1.2-0.5,0.8c-0.5-0.3-0.9-0.5-0.9,0c0,1.5,1,1,1,2.6c0,0.4-0.7,0.7-1,0.1c-0.3-0.6-0.7-1.2-1.3-1.4
		c-0.4-0.1-0.5,0-0.5,0.6s0,10.6,0,11.7H83.8z"/>
	<rect x="75.4" y="75.1" class="st2" width="3.7" height="12.7"/>
	<rect x="74" y="87.7" class="st2" width="6.6" height="17.5"/>
	<rect x="75.4" y="87.7" class="st2" width="3.7" height="17.5"/>
	<path class="st3" d="M73.3,75.1c0.8,0.7,1.2,1.2,1.2,2.3c0,1.3,0,7.6,0,8.1c0,0.5-0.6,2.3-1.9,2.3"/>
	<path class="st3" d="M70.5,87.7c1.8,0,2.1-1.4,2.1-2.3c0-1,0-8.3,0-9.4c0-1.1-1.1-1.8-1.9-1.9h-2.8"/>
	<path class="st3" d="M81.2,75.1c-0.8,0.7-1.2,1.2-1.2,2.3c0,1.3,0,7.6,0,8.1c0,0.5,0.6,2.3,1.9,2.3"/>
	<path class="st3" d="M83.8,74.1c-0.8,0.2-1.9,0.8-1.9,1.9c0,1.1,0,8.4,0,9.4c0,0.9,0.4,2.3,2.1,2.3"/>
	<path class="st3" d="M67.9,68.6v5.5c0.6,0,1.1,0.7,1.1,1.8c0,1.1,0,9.1,0,9.5c0,0.8-0.6,2.3-1.9,2.3"/>
	<path class="st2" d="M70.8,74.1c0-1.4-1.4-3.4-2.8-3.4v-6.1h1.2v5.4c0.2,0,0.3,0.2,0.4,0.3v-3.1h1.3V74.1z"/>
	<rect x="69.5" y="65.6" class="st2" width="1.3" height="1.1"/>
	<polyline class="st3" points="86.6,68.6 86.6,74.1 83.8,74.1 	"/>
	<path class="st3" d="M83.8,74.1c0-2.4,1.8-3.4,2.8-3.4"/>
	<path class="st2" d="M85.9,67.8v3.1c0.3-0.1,0.5-0.2,0.8-0.2v-2.9H85.9z"/>
	<line class="st3" x1="86.6" y1="69.3" x2="97.2" y2="69.3"/>
	<line class="st3" x1="86.6" y1="71.7" x2="97.2" y2="71.7"/>
	<line class="st3" x1="86.6" y1="72.9" x2="94.5" y2="72.9"/>
	<path class="st3" d="M98.3,75.1c-0.6,0-11,0-11.7,0c-0.7,0-0.7,0.3-0.7,0.7c0,0.7,0,8.6,0,9.7c0,0.8,0.7,2.3,2.1,2.3"/>
	<line class="st3" x1="85.9" y1="77.3" x2="98.6" y2="77.3"/>
	<path class="st3" d="M70.4,85.5V79c0-0.1,0.1-0.2,0.2-0.2h1c0.1,0,0.2,0.1,0.2,0.2v6.5"/>
	<line class="st3" x1="86.6" y1="74.1" x2="97.2" y2="74.1"/>
	<path class="st3" d="M83.2,85.5V79c0-0.1,0.1-0.2,0.2-0.2h1c0.1,0,0.2,0.1,0.2,0.2v6.5"/>
	<path class="st3" d="M85.9,78.8h0.9c0.1,0,0.2,0.1,0.2,0.2v6.5"/>
	<path class="st3" d="M90,85.5V79c0-0.1-0.1-0.2-0.2-0.2h-1c-0.1,0-0.2,0.1-0.2,0.2v6.5"/>
	<path class="st3" d="M93,85.5V79c0-0.1-0.1-0.2-0.2-0.2h-1c-0.1,0-0.2,0.1-0.2,0.2v6.5"/>
	<path class="st3" d="M96,85.5V79c0-0.1-0.1-0.2-0.2-0.2h-1c-0.1,0-0.2,0.1-0.2,0.2v6.5"/>
	<path class="st3" d="M97.6,85.5V79c0-0.1,0.1-0.2,0.2-0.2h0.8"/>
	<line class="st2" x1="110.3" y1="85.5" x2="148.9" y2="85.5"/>
	<path class="st2" d="M133.3,74.1c0-1.1,0-11.2,0-11.7s0.1-0.7,0.5-0.6c0.5,0.2,1,0.8,1.3,1.4c0.3,0.6,1,0.3,1-0.1
		c0-1.7-1-1.2-1-2.6c0-0.5,0.4-0.3,0.9,0c0.5,0.3,0.5-0.3,0.5-0.8c0-0.8-0.6-0.6-0.6-1.6c0-0.6,0.5-0.3,0.9,0
		c0.3,0.3,0.6,0.2,0.6-0.5c0-0.8-0.8-0.8-0.8-1.6c0-0.5,0.4-0.3,0.6,0c0.2,0.3,0.9,0.3,0.8-0.1c-0.3-1.3,0.4-2.7,0.9-3.1
		c0.5-0.5,0.6-0.7,0.6-1.1c0-0.4,0-0.6,0.3-0.6c0.3,0,0.3,0.2,0.3,0.6c0,0.4,0,0.7,0.6,1.1c0.5,0.5,1.2,1.8,0.9,3.1
		c-0.1,0.4,0.5,0.5,0.8,0.1c0.2-0.3,0.6-0.5,0.6,0c0,0.7-0.8,0.8-0.8,1.6c0,0.7,0.2,0.9,0.6,0.5c0.3-0.3,0.9-0.7,0.9,0
		c0,1.1-0.6,0.8-0.6,1.6c0,0.6,0,1.2,0.5,0.8c0.5-0.3,0.9-0.5,0.9,0c0,1.5-1,1-1,2.6c0,0.4,0.7,0.7,1,0.1c0.3-0.6,0.7-1.2,1.3-1.4
		c0.4-0.1,0.5,0,0.5,0.6s0,10.6,0,11.7H133.3z"/>
	<rect x="137.9" y="75.1" class="st2" width="3.7" height="12.7"/>
	<rect x="136.5" y="87.7" class="st2" width="6.6" height="17.5"/>
	<rect x="137.9" y="87.7" class="st2" width="3.7" height="17.5"/>
	<path class="st3" d="M143.7,75.1c-0.8,0.7-1.2,1.2-1.2,2.3c0,1.3,0,7.6,0,8.1c0,0.5,0.6,2.3,1.9,2.3"/>
	<path class="st3" d="M146.6,87.7c-1.8,0-2.1-1.4-2.1-2.3c0-1,0-8.3,0-9.4c0-1.1,1.1-1.8,1.9-1.9h2.8"/>
	<path class="st3" d="M135.8,75.1c0.8,0.7,1.2,1.2,1.2,2.3c0,1.3,0,7.6,0,8.1c0,0.5-0.6,2.3-1.9,2.3"/>
	<path class="st3" d="M133.3,74.1c0.8,0.2,1.9,0.8,1.9,1.9c0,1.1,0,8.4,0,9.4c0,0.9-0.4,2.3-2.1,2.3"/>
	<path class="st3" d="M149.1,68.6v5.5c-0.6,0-1.1,0.7-1.1,1.8c0,1.1,0,9.1,0,9.5c0,0.8,0.6,2.3,1.9,2.3"/>
	<path class="st2" d="M146.3,74.1c0-1.4,1.4-3.4,2.8-3.4v-6.1h-1.2v5.4c-0.2,0-0.3,0.2-0.4,0.3v-3.1h-1.3V74.1z"/>
	<rect x="146.3" y="65.6" class="st2" width="1.3" height="1.1"/>
	<polyline class="st3" points="130.4,68.6 130.4,74.1 133.3,74.1 	"/>
	<path class="st3" d="M133.3,74.1c0-2.4-1.8-3.4-2.8-3.4"/>
	<path class="st2" d="M131.2,67.8v3.1c-0.3-0.1-0.5-0.2-0.8-0.2v-2.9H131.2z"/>
	<line class="st3" x1="130.4" y1="69.3" x2="119.9" y2="69.3"/>
	<line class="st3" x1="130.4" y1="71.7" x2="119.9" y2="71.7"/>
	<line class="st3" x1="127.8" y1="72.9" x2="120" y2="72.9"/>
	<path class="st3" d="M118.7,75.1c0.6,0,11,0,11.7,0c0.7,0,0.7,0.3,0.7,0.7c0,0.7,0,8.6,0,9.7c0,0.8-0.7,2.3-2.1,2.3"/>
	<line class="st3" x1="131.2" y1="77.3" x2="118.5" y2="77.3"/>
	<path class="st3" d="M146.7,85.5V79c0-0.1-0.1-0.2-0.2-0.2h-1c-0.1,0-0.2,0.1-0.2,0.2v6.5"/>
	<line class="st3" x1="130.4" y1="74.1" x2="119.9" y2="74.1"/>
	<path class="st3" d="M133.9,85.5V79c0-0.1-0.1-0.2-0.2-0.2h-1c-0.1,0-0.2,0.1-0.2,0.2v6.5"/>
	<path class="st3" d="M131.2,78.8h-0.9c-0.1,0-0.2,0.1-0.2,0.2v6.5"/>
	<path class="st3" d="M127.1,85.5V79c0-0.1,0.1-0.2,0.2-0.2h1c0.1,0,0.2,0.1,0.2,0.2v6.5"/>
	<path class="st3" d="M124.1,85.5V79c0-0.1,0.1-0.2,0.2-0.2h1c0.1,0,0.2,0.1,0.2,0.2v6.5"/>
	<path class="st3" d="M121.1,85.5V79c0-0.1,0.1-0.2,0.2-0.2h1c0.1,0,0.2,0.1,0.2,0.2v6.5"/>
	<path class="st3" d="M119.5,85.5V79c0-0.1-0.1-0.2-0.2-0.2h-0.8"/>
	<path class="st2" d="M119.9,74.3v-11c0,0.2-1.3,0.9-1.3,1.4h-1.9c0-0.4,0-0.9,0-1.3c0.4,0,0.8-0.3,0.8-0.6c0-0.1,0-0.2-0.2-0.1
		c-0.1,0.1-0.9,0.4-1,0.2c-0.1-0.1-0.1-0.1,0.2-0.3c0.2-0.1,1-0.7,1.1-0.8c0.3-0.2-0.2-0.7-0.4-0.6c-0.3,0.2-0.6,0.4-0.9,0.6
		c-0.2,0.1-0.5,0.3-0.6,0c-0.1-0.4-0.5-0.7-1-0.7h-12.4c-0.5,0-0.9,0.3-1,0.7c-0.1,0.3-0.4,0.1-0.6,0c-0.3-0.2-0.7-0.5-0.9-0.6
		c-0.2-0.1-0.7,0.4-0.4,0.6c0.1,0.1,0.9,0.6,1.1,0.8c0.3,0.2,0.3,0.2,0.2,0.3c-0.1,0.2-0.9-0.1-1-0.2c-0.1-0.1-0.2,0-0.2,0.1
		c0.1,0.3,0.5,0.6,0.8,0.6c0,0.4,0,0.9,0,1.3h-2c0-0.6-1.2-1.2-1.2-1.4v11H119.9z"/>
	<path class="st2" d="M111.9,44.1c0,0.7-0.3,0.7-0.3,1.3c0,0.6,0.6,0.5,0.8,0.1c0.1-0.2,0.5-0.2,0.5,0.4c0,0.6-0.7,1-0.7,1.7
		c0,0.6,0.3,0.5,0.5,0.1c0.2-0.4,1.1-1.1,1.1,0c0,0.3,0.1,0.9-0.3,1.4s-0.4,0.8-0.4,1.2c0,0.4,0.3,0.8,0.7,0c0.1-0.3,1-0.9,1,0.1
		c0,0.4,0,0.9,0,1.2c0,0.6-0.8,0.8-0.8,1.4c0,0.2,0,0.7,0,1c0,0.3,0.3,0.6,0.5,0.2c0.3-0.6,1.3-1.1,1.3-0.2c0,0.2,0,0.7,0,0.9
		c0,0.2,0.1,0.4-0.5,0.9c-0.6,0.5-1,1.2-1,1.6c0,0.4,0,0.7,0,0.9c0,0.2,0.4,0.5,0.7-0.2c0.4-0.7,0.8-0.4,0.8,0.1
		c0,0.5,0.1,0.9-0.5,1.4c-0.6,0.5-0.6,0.9-0.6,1.5c0,0.5,0,2.2,0,2.6c0,0.4,0.1,0.5-0.3,0.5h-11.9c-0.5,0-0.3-0.1-0.3-0.5
		c0-0.4,0-2.1,0-2.6c0-0.5,0.1-0.9-0.6-1.5c-0.6-0.5-0.5-0.9-0.5-1.4c0-0.5,0.4-0.8,0.8-0.1c0.4,0.7,0.7,0.4,0.7,0.2
		c0-0.2,0-0.5,0-0.9c0-0.4-0.4-1.1-1-1.6c-0.6-0.5-0.5-0.7-0.5-0.9c0-0.2,0-0.7,0-0.9c0-0.9,1-0.4,1.3,0.2c0.2,0.4,0.5,0.1,0.5-0.2
		c0-0.3,0-0.7,0-1c0-0.5-0.8-0.8-0.8-1.4c0-0.3,0-0.8,0-1.2c0-1,0.9-0.4,1-0.1c0.4,0.8,0.7,0.5,0.7,0c0-0.4,0-0.7-0.4-1.2
		s-0.3-1.1-0.3-1.4c0-1,0.9-0.4,1.1,0c0.2,0.4,0.5,0.5,0.5-0.1c0-0.7-0.7-1.2-0.7-1.7c0-0.7,0.5-0.6,0.5-0.4
		c0.1,0.3,0.8,0.5,0.8-0.1c0-0.5-0.3-0.6-0.3-1.3H111.9z"/>
	<g>
		<line class="st2" x1="112" y1="46.3" x2="105" y2="46.3"/>
		<line class="st2" x1="112.9" y1="48.7" x2="104.1" y2="48.7"/>
		<line class="st2" x1="113.9" y1="51.4" x2="103.2" y2="51.4"/>
		<line class="st2" x1="114.4" y1="55.2" x2="102.6" y2="55.2"/>
		<line class="st2" x1="114.2" y1="59.2" x2="102.9" y2="59.2"/>
	</g>
	<rect x="104.8" y="70.7" class="st2" width="7.4" height="4.2"/>
	<path class="st2" d="M99.4,61.7c0.3,0.2,0.6-0.5,0.4-0.6C99.6,61,99.1,61.5,99.4,61.7z"/>
	<path class="st2" d="M117.7,61.7c-0.3,0.2-0.6-0.5-0.4-0.6C117.5,61,118,61.5,117.7,61.7z"/>
	<line class="st3" x1="98.4" y1="64.7" x2="98.4" y2="71.5"/>
	<path class="st3" d="M104.8,72.9h-5.7c-0.1-0.5-0.5-1.9-2-1.9"/>
	<line class="st3" x1="98.4" y1="70.7" x2="104.1" y2="70.7"/>
	<line class="st3" x1="99.5" y1="64.7" x2="99.5" y2="69.1"/>
	<path class="st3" d="M101.2,62.2v7.4c0.7,0.4,1.8,1.5,1.8,2.2c0.5,0,1.2,0,1.8,0.2"/>
	<line class="st3" x1="101.2" y1="69.7" x2="104.1" y2="69.7"/>
	<path class="st3" d="M101.2,67.6c0.7,0.2,1.7,0.7,2,2"/>
	<rect x="105.8" y="87.7" class="st2" width="5.4" height="17.5"/>
	<rect x="106.8" y="87.7" class="st2" width="3.5" height="17.5"/>
	<rect x="106.8" y="74.9" class="st2" width="3.5" height="12.8"/>
	<path class="st3" d="M104.8,74.9c0.6,0.3,0.7,0.8,0.7,2c0,0.6,0,7.8,0,8.5c0,0.9-0.9,2.3-1.7,2.3"/>
	<path class="st3" d="M97.2,74.3c1.3,0.4,1.4,1.3,1.4,2.2c0,0.9,0,8.1,0,9c0,0.9-0.8,2.3-2.5,2.3"/>
	<path class="st3" d="M100.9,72.9c0.8,0,2,0.8,2,2.1c0,1.3,0,9.6,0,10.5c0,1-1.3,2.3-2.6,2.3"/>
	<path class="st3" d="M101.5,85.5V79c0-0.1,0.1-0.2,0.2-0.2h1.2"/>
	<path class="st3" d="M104.2,85.5V79c0-0.1,0.1-0.2,0.2-0.2h0.3"/>
	<line class="st3" x1="118.7" y1="64.7" x2="118.7" y2="71.5"/>
	<path class="st3" d="M112.3,72.9h5.7c0.1-0.5,0.5-1.9,2-1.9"/>
	<line class="st3" x1="117.5" y1="64.7" x2="117.5" y2="69.1"/>
	<path class="st3" d="M115.8,62.2v7.4c-0.7,0.4-1.8,1.5-1.8,2.2c-0.5,0-1.2,0-1.8,0.2"/>
	<line class="st3" x1="115.8" y1="69.7" x2="113" y2="69.7"/>
	<path class="st3" d="M115.8,67.6c-0.7,0.2-1.7,0.7-2,2"/>
	<path class="st3" d="M112.3,74.9c-0.6,0.3-0.7,0.8-0.7,2c0,0.6,0,7.8,0,8.5c0,0.9,0.9,2.3,1.7,2.3"/>
	<path class="st3" d="M116.2,72.9c-0.8,0-2,0.8-2,2.1c0,1.3,0,9.6,0,10.5c0,1,1.3,2.3,2.6,2.3"/>
	<path class="st3" d="M115.6,85.5V79c0-0.1-0.1-0.2-0.2-0.2h-1.2"/>
	<path class="st3" d="M112.9,85.5V79c0-0.1-0.1-0.2-0.2-0.2h-0.3"/>
	<path class="st3" d="M119.9,74.3c-1.3,0.4-1.4,1.3-1.4,2.2c0,0.9,0,8.1,0,9c0,0.9,0.8,2.3,2.5,2.3"/>
	<path class="st2" d="M111.9,44.1c0.6,0,0.6-1.4,0-1.4h-6.8c-0.6,0-0.6,1.4,0,1.4H111.9z"/>
	<path class="st2" d="M111.1,42.6c0.4,0,0.4-0.2,0.1-0.6c-0.3-0.4-0.3-0.5-0.9-0.5h-3.7c-0.6,0-0.5,0.1-0.9,0.5
		c-0.3,0.4-0.3,0.6,0.1,0.6H111.1z"/>
	<path class="st2" d="M110.4,41.6c0.4,0,0.4-0.2,0.1-0.6c-0.3-0.4-0.3-0.5-0.9-0.5h-2.2c-0.6,0-0.5,0.1-0.9,0.5
		c-0.3,0.4-0.3,0.6,0.1,0.6H110.4z"/>
	<path class="st2" d="M109.4,40.6c0-0.5,0.1-1.9-0.8-1.9c-1,0-0.8,1.4-0.8,1.9H109.4z"/>
	<path class="st2" d="M77.8,56.9c0.2-0.3,0.6-0.6,0.9-0.7v-1c-0.3,0-0.5,0.2-0.6,0.3H78c-0.1-0.2-0.5-0.8-0.7-0.9
		c-0.3,0.2-0.7,0.7-0.7,0.9h-0.1c-0.1-0.1-0.3-0.3-0.6-0.3v1c0.4,0.1,0.7,0.4,0.9,0.7H77.8z"/>
	<path class="st2" d="M78.2,59.2c0.2-0.5,0.5-0.8,0.9-1v-1.3c-0.3,0-0.6,0.3-0.7,0.5h-0.1c-0.1-0.7-0.6-1.1-0.9-1.4
		c-0.3,0.2-0.9,0.6-0.9,1.4h-0.1c-0.1-0.2-0.3-0.5-0.7-0.5v1.3c0.4,0.2,0.7,0.5,0.9,1H78.2z"/>
	<path class="st2" d="M78.5,61.4c0.2-0.5,0.7-1,1.2-1.3v-1.2c-0.3,0-0.7,0.4-0.9,0.6h-0.1c-0.1-0.4-0.8-1.6-1.4-1.9
		c-0.6,0.3-1.3,1.4-1.4,1.9h-0.1c-0.2-0.2-0.6-0.6-0.9-0.6v1.2c0.5,0.3,1.1,0.8,1.2,1.3H78.5z"/>
	<path class="st2" d="M79,64.4c0.1-0.6,0.6-1.5,1.2-2v-1.4c-0.4,0-1,0.3-1.1,0.7h-0.1c-0.1-1.2-1-2.1-1.6-2.6
		c-0.6,0.5-1.5,1.4-1.6,2.6h-0.1c-0.2-0.4-0.7-0.7-1.1-0.7v1.4c0.6,0.5,1.1,1.4,1.2,2H79z"/>
	<path class="st2" d="M79.9,69.6c0-1.9,0.5-2.7,1.2-2.9v-2.3c-0.6,0.1-1.1,0.6-1.3,1.1h-0.2c-0.1-1.8-1.3-3.5-2.3-4.3
		c-1,0.8-2.2,2.5-2.3,4.3h-0.2c-0.2-0.5-0.7-1-1.3-1.1v2.3c0.7,0.1,1.2,1,1.2,2.9H79.9z"/>
	<path class="st2" d="M79.7,72.5c0-0.9,0.4-2.3,1.6-2.5v-2.3c-0.7,0-1.5,0.5-1.6,1.7h-0.2c0-1.7-1-3.7-2.2-4.6
		c-1.2,0.9-2.2,3-2.2,4.6h-0.2c-0.1-1.1-0.8-1.6-1.6-1.7V70c1.2,0.2,1.5,1.6,1.6,2.5H79.7z"/>
	<path class="st2" d="M80.4,74.1c-0.2-2.9-1.9-4.8-3.1-5.7c-1.2,0.9-2.9,2.8-3.1,5.7H80.4z"/>
	<path class="st2" d="M81.2,75.1v-2.7c-1.2,0.2-1.7,1-1.9,1.6h-0.2c-0.1-1.2-1-3.1-1.8-3.8c-0.7,0.7-1.6,2.6-1.8,3.8h-0.2
		c-0.2-0.6-0.7-1.4-1.9-1.6v2.7H81.2z"/>
	<g>
		<path class="st2" d="M140.3,56.9c0.2-0.3,0.6-0.6,0.9-0.7v-1c-0.3,0-0.5,0.2-0.6,0.3h-0.1c-0.1-0.2-0.5-0.8-0.7-0.9
			c-0.3,0.2-0.7,0.7-0.7,0.9h-0.1c-0.1-0.1-0.3-0.3-0.6-0.3v1c0.4,0.1,0.7,0.4,0.9,0.7H140.3z"/>
		<path class="st2" d="M140.6,59.2c0.2-0.5,0.5-0.8,0.9-1v-1.3c-0.3,0-0.6,0.3-0.7,0.5h-0.1c-0.1-0.7-0.6-1.1-0.9-1.4
			c-0.3,0.2-0.9,0.6-0.9,1.4h-0.1c-0.1-0.2-0.3-0.5-0.7-0.5v1.3c0.4,0.2,0.7,0.5,0.9,1H140.6z"/>
		<path class="st2" d="M141,61.4c0.2-0.5,0.7-1,1.2-1.3v-1.2c-0.3,0-0.7,0.4-0.9,0.6h-0.1c-0.1-0.4-0.8-1.6-1.4-1.9
			c-0.6,0.3-1.3,1.4-1.4,1.9h-0.1c-0.2-0.2-0.6-0.6-0.9-0.6v1.2c0.5,0.3,1.1,0.8,1.2,1.3H141z"/>
		<path class="st2" d="M141.5,64.4c0.1-0.6,0.6-1.5,1.2-2v-1.4c-0.4,0-1,0.3-1.1,0.7h-0.1c-0.1-1.2-1-2.1-1.6-2.6
			c-0.6,0.5-1.5,1.4-1.6,2.6H138c-0.2-0.4-0.7-0.7-1.1-0.7v1.4c0.6,0.5,1.1,1.4,1.2,2H141.5z"/>
		<path class="st2" d="M142.3,69.6c0-1.9,0.5-2.7,1.2-2.9v-2.3c-0.6,0.1-1.1,0.6-1.3,1.1h-0.2c-0.1-1.8-1.3-3.5-2.3-4.3
			c-1,0.8-2.2,2.5-2.3,4.3h-0.2c-0.2-0.5-0.7-1-1.3-1.1v2.3c0.7,0.1,1.2,1,1.2,2.9H142.3z"/>
		<path class="st2" d="M142.2,72.5c0-0.9,0.4-2.3,1.6-2.5v-2.3c-0.7,0-1.5,0.5-1.6,1.7H142c0-1.7-1-3.7-2.2-4.6
			c-1.2,0.9-2.2,3-2.2,4.6h-0.2c-0.1-1.1-0.8-1.6-1.6-1.7V70c1.2,0.2,1.5,1.6,1.6,2.5H142.2z"/>
		<path class="st2" d="M142.9,74.1c-0.2-2.9-1.9-4.8-3.1-5.7c-1.2,0.9-2.9,2.8-3.1,5.7H142.9z"/>
		<path class="st2" d="M143.7,75.1v-2.7c-1.2,0.2-1.7,1-1.9,1.6h-0.2c-0.1-1.2-1-3.1-1.8-3.8c-0.7,0.7-1.6,2.6-1.8,3.8h-0.2
			c-0.2-0.6-0.7-1.4-1.9-1.6v2.7H143.7z"/>
	</g>
	<path class="st2" d="M109.4,47.8c0.1-0.4,0.5-0.7,0.8-0.9v-1.4c-0.3,0-0.6,0.3-0.8,0.5h-0.1c-0.1-0.4-0.2-1.2-0.8-1.4
		c-0.5,0.2-0.7,1-0.8,1.4h-0.1c-0.2-0.2-0.5-0.5-0.8-0.5v1.4c0.3,0.2,0.7,0.5,0.8,0.9H109.4z"/>
	<path class="st2" d="M109.5,50.3c0.2-0.7,0.7-1.2,1.4-1.3v-1.5c-0.4,0-0.9,0.3-1.2,0.8h-0.1c0-0.8-0.5-1.7-1-2
		c-0.5,0.3-1.1,1.1-1,2h-0.1c-0.2-0.4-0.7-0.7-1.2-0.8V49c0.6,0.1,1.1,0.5,1.4,1.3H109.5z"/>
	<path class="st2" d="M109.8,53.7c0.2-0.7,1-1.5,1.5-1.7v-2.2c-0.9,0.1-1.2,0.7-1.3,1.3h-0.1c0-0.9-0.3-2.2-1.3-2.7
		c-1,0.6-1.3,1.8-1.3,2.7h-0.1c0-0.6-0.4-1.3-1.3-1.3V52c0.5,0.3,1.2,1,1.5,1.7H109.8z"/>
	<path class="st2" d="M112.1,55.8v-2.3c-0.5,0-1.5,0.7-1.5,1.4h-0.1c0-1.2-0.9-2.9-1.9-3.7c-1,0.8-1.9,2.5-1.9,3.7h-0.1
		c-0.1-0.7-1.1-1.4-1.5-1.4v2.3H112.1z"/>
	<path class="st2" d="M112.1,55.8c-0.4,0-1.9,0.2-2,2h-3.2c-0.1-1.8-1.6-2-2-2H112.1z"/>
	<path class="st2" d="M112.5,59.9v-2.4c-0.5,0-1.2,0.8-1.4,1.5h-0.1c-0.1-1.4-1.6-3.2-2.4-3.8c-0.8,0.6-2.3,2.4-2.4,3.8H106
		c-0.2-0.7-0.9-1.5-1.4-1.5v2.4H112.5z"/>
	<path class="st2" d="M112.5,59.9c-0.7,0-1.3,0.9-1.5,2.3h-4.9c-0.1-1.4-0.8-2.3-1.5-2.3H112.5z"/>
	<path class="st2" d="M113.6,64.7V62c-0.5,0.2-1.5,1-1.7,1.9h-0.1c-0.2-1.6-1.9-4.1-3.2-4.9c-1.3,0.8-3,3.3-3.2,4.9h-0.1
		c-0.2-0.9-1.2-1.7-1.7-1.9v2.7H113.6z"/>
	<path class="st2" d="M113.6,64.7c-1.5,0.5-1.6,2.7-1.7,5.5h-6.7c-0.1-2.8-0.2-5-1.7-5.5H113.6z"/>
	<path class="st2" d="M113,70.7v-3c-1,0.1-1.5,1.5-1.6,2.4h-0.2c0-1.5-0.4-5.4-2.6-6.8c-2.2,1.4-2.6,5.3-2.6,6.8h-0.2
		c-0.1-0.9-0.6-2.2-1.6-2.4v3H113z"/>
	<path class="st2" d="M112.3,74.9v-2.8c-0.7,0-1.2,0.9-1.5,1.5h-0.2c0.1-1-0.1-3.5-2-4.5c-1.9,1-2.1,3.5-2,4.5h-0.2
		c-0.3-0.6-0.9-1.5-1.5-1.5v2.8H112.3z"/>
</g>
</svg>
