<?xml version="1.0" encoding="utf-8"?>
<!-- Generator: Adobe Illustrator 22.1.0, SVG Export Plug-In . SVG Version: 6.00 Build 0)  -->
<svg version="1.1" id="layer_1" xmlns="http://www.w3.org/2000/svg" xmlns:xlink="http://www.w3.org/1999/xlink" x="0px" y="0px"
	 viewBox="0 0 216 144" style="enable-background:new 0 0 216 144;" xml:space="preserve">
<style type="text/css">
	.st0{fill:#FFFFFF;}
	.st1{fill:#4868A6;stroke:#000000;stroke-width:0.25;}
	.st2{fill:#D14A48;stroke:#000000;stroke-width:0.25;}
</style>
<rect x="0.5" y="0.5" class="st0" width="216" height="144"/>
<path class="st1" d="M138.7,92.1c-10.4,16.9-33.2,21.4-49.8,10.6C72.2,91.8,67.5,69.5,78.3,52.9c-10.4,16.8,12,38.3,30.2,19.6
	C126.7,53.8,149,75.3,138.7,92.1z"/>
<path class="st2" d="M78.3,52.9c10.4-16.9,33.2-21.4,49.8-10.6c16.7,10.8,21.4,33.1,10.5,49.8c10.4-16.8-12-38.3-30.2-19.6
	C90.3,91.2,67.9,69.7,78.3,52.9z"/>
<g>
	<rect x="142.2" y="109.2" transform="matrix(0.5547 -0.832 0.832 0.5547 -26.3394 175.1758)" width="16.5" height="6"/>
	<rect x="153.1" y="93" transform="matrix(0.5547 -0.832 0.832 0.5547 -8.0233 176.9519)" width="16.5" height="6"/>
	<rect x="149.7" y="114.2" transform="matrix(0.5547 -0.832 0.832 0.5547 -27.1597 183.6276)" width="16.5" height="6"/>
	<rect x="160.6" y="98" transform="matrix(0.5547 -0.832 0.832 0.5547 -8.8439 185.4036)" width="16.5" height="6"/>
	<rect x="157.2" y="119.2" transform="matrix(0.5547 -0.832 0.832 0.5547 -27.9789 192.0826)" width="16.5" height="6"/>
	<rect x="168" y="103" transform="matrix(0.5547 -0.832 0.832 0.5547 -9.6628 193.8588)" width="16.5" height="6"/>
	<rect x="28.1" y="27.9" transform="matrix(0.5547 -0.8321 0.8321 0.5547 -5.1701 52.0997)" width="36" height="6"/>
	<rect x="35.6" y="32.9" transform="matrix(0.5547 -0.8321 0.8321 0.5547 -5.9893 60.5535)" width="36" height="6"/>
	<rect x="43.1" y="37.9" transform="matrix(0.5547 -0.8321 0.8321 0.5547 -6.8086 69.0073)" width="36" height="6"/>
	<rect x="45.2" y="92.7" transform="matrix(0.8321 -0.5547 0.5547 0.8321 -47.9238 43.6685)" width="6" height="16.5"/>
	<rect x="56" y="108.9" transform="matrix(0.8321 -0.5547 0.5547 0.8321 -55.1071 52.3935)" width="6" height="16.5"/>
	<rect x="58" y="86.1" transform="matrix(0.8321 -0.5547 0.5547 0.8321 -47.4885 51.3463)" width="6" height="36"/>
	<rect x="43.1" y="96.1" transform="matrix(0.8321 -0.5547 0.5547 0.8321 -55.5423 44.7156)" width="6" height="36"/>
	<rect x="160.4" y="17.9" transform="matrix(0.832 -0.5547 0.5547 0.832 7.543 96.6761)" width="6" height="36"/>
	<rect x="162.5" y="14.5" transform="matrix(0.8321 -0.5547 0.5547 0.8321 15.161 95.6275)" width="6" height="16.5"/>
	<rect x="173.3" y="30.8" transform="matrix(0.8321 -0.5547 0.5547 0.8321 7.9777 104.3525)" width="6" height="16.5"/>
	<rect x="147.5" y="24.5" transform="matrix(0.8321 -0.5547 0.5547 0.8321 7.1072 88.9968)" width="6" height="16.5"/>
	<rect x="158.3" y="40.7" transform="matrix(0.832 -0.5547 0.5547 0.832 -7.570972e-02 97.723)" width="6" height="16.5"/>
</g>
</svg>
