<?xml version="1.0" encoding="utf-8"?>
<!-- Generator: Adobe Illustrator 22.1.0, SVG Export Plug-In . SVG Version: 6.00 Build 0)  -->
<svg version="1.1" id="layer_1" xmlns="http://www.w3.org/2000/svg" xmlns:xlink="http://www.w3.org/1999/xlink" x="0px" y="0px"
	 viewBox="0 0 216 144" style="enable-background:new 0 0 216 144;" xml:space="preserve">
<style type="text/css">
	.st0{fill:#3790B3;}
	.st1{fill:#FFF243;}
</style>
<rect x="0.5" y="0.5" class="st0" width="215.5" height="144"/>
<g>
	<g>
		<path class="st1" d="M134.5,28.2c-0.4,1.8-1.4,6.3-1.4,7.1c0,0.8,0.6,1.4,1.4,1.4c0.8,0,1.4-0.6,1.4-1.4
			C136,34.5,134.9,30,134.5,28.2z"/>
		<path class="st1" d="M128.2,28.8c0,1.9-0.2,6.4,0,7.3c0.2,0.8,0.9,1.3,1.7,1.1c0.8-0.2,1.3-0.9,1.1-1.7
			C130.8,34.7,128.9,30.5,128.2,28.8z"/>
		<path class="st1" d="M122,30.6c0.3,1.9,1.1,6.3,1.4,7.1c0.3,0.7,1.1,1.1,1.9,0.8c0.7-0.3,1.1-1.1,0.8-1.9
			C125.8,35.9,123.1,32.2,122,30.6z"/>
		<path class="st1" d="M116.4,33.6c0.7,1.8,2.3,6,2.8,6.7c0.4,0.7,1.3,0.8,2,0.4c0.7-0.4,0.8-1.3,0.4-2
			C121.1,38.1,117.7,34.9,116.4,33.6z"/>
		<path class="st1" d="M111.5,37.7c1,1.6,3.4,5.4,4,6.1c0.6,0.6,1.5,0.6,2,0c0.6-0.6,0.6-1.5,0-2C117,41.2,113,38.7,111.5,37.7z"/>
		<path class="st1" d="M107.4,42.6c1.3,1.4,4.4,4.7,5.1,5.2c0.7,0.4,1.6,0.3,2-0.4c0.4-0.7,0.3-1.6-0.4-2
			C113.5,45,109.1,43.3,107.4,42.6z"/>
		<path class="st1" d="M104.4,48.3c1.6,1.1,5.2,3.7,6,4.1c0.7,0.3,1.6,0,1.9-0.8c0.3-0.7,0-1.6-0.8-1.9
			C110.8,49.4,106.2,48.6,104.4,48.3z"/>
		<path class="st1" d="M102.5,54.4c1.7,0.7,5.9,2.6,6.7,2.8c0.8,0.2,1.5-0.4,1.7-1.1c0.2-0.8-0.4-1.5-1.1-1.7S104.4,54.4,102.5,54.4
			z"/>
		<path class="st1" d="M101.9,60.7c1.8,0.4,6.3,1.4,7.1,1.4c0.8,0,1.4-0.6,1.4-1.4c0-0.8-0.6-1.4-1.4-1.4
			C108.2,59.3,103.7,60.4,101.9,60.7z"/>
		<path class="st1" d="M102.5,67.1c1.9,0,6.4,0.2,7.3,0c0.8-0.2,1.3-0.9,1.1-1.7c-0.2-0.8-0.9-1.3-1.7-1.1S104.2,66.4,102.5,67.1z"
			/>
		<path class="st1" d="M104.4,73.2c1.9-0.3,6.3-1.1,7.1-1.4c0.7-0.3,1.1-1.1,0.8-1.9c-0.3-0.7-1.1-1.1-1.9-0.8
			C109.7,69.5,105.9,72.2,104.4,73.2z"/>
		<path class="st1" d="M107.4,78.8c1.8-0.7,6-2.3,6.7-2.8c0.7-0.4,0.8-1.3,0.4-2c-0.4-0.7-1.3-0.8-2-0.4
			C111.9,74.1,108.7,77.5,107.4,78.8z"/>
		<path class="st1" d="M111.4,83.8c1.6-1,5.4-3.4,6.1-4c0.6-0.6,0.6-1.5,0-2c-0.6-0.6-1.5-0.6-2,0C114.9,78.3,112.5,82.2,111.4,83.8
			z"/>
		<path class="st1" d="M116.4,87.8c1.4-1.3,4.7-4.4,5.2-5.1c0.4-0.7,0.3-1.6-0.4-2c-0.7-0.4-1.6-0.3-2,0.4
			C118.7,81.8,117.1,86.1,116.4,87.8z"/>
		<path class="st1" d="M122,90.8c1.1-1.6,3.7-5.2,4.1-6c0.3-0.7,0-1.6-0.8-1.9c-0.7-0.3-1.6,0-1.9,0.8C123.1,84.4,122.4,89,122,90.8
			z"/>
		<path class="st1" d="M128.1,92.7c0.7-1.7,2.6-5.9,2.8-6.7c0.2-0.8-0.4-1.5-1.1-1.7c-0.8-0.2-1.5,0.4-1.7,1.1
			C128,86.2,128.1,90.9,128.1,92.7z"/>
		<path class="st1" d="M134.5,93.3c0.4-1.8,1.4-6.3,1.4-7.1c0-0.8-0.6-1.4-1.4-1.4c-0.8,0-1.4,0.6-1.4,1.4
			C133,87,134.1,91.5,134.5,93.3z"/>
		<path class="st1" d="M140.8,92.7c0-1.9,0.2-6.4,0-7.3c-0.2-0.8-0.9-1.3-1.7-1.1c-0.8,0.2-1.3,0.9-1.1,1.7
			C138.2,86.8,140.1,91,140.8,92.7z"/>
		<path class="st1" d="M147,90.9c-0.3-1.9-1.1-6.3-1.4-7.1c-0.3-0.7-1.1-1.1-1.9-0.8c-0.7,0.3-1.1,1.1-0.8,1.9
			C143.2,85.6,145.9,89.3,147,90.9z"/>
		<path class="st1" d="M152.6,87.9c-0.7-1.8-2.3-6-2.8-6.7c-0.4-0.7-1.3-0.8-2-0.4c-0.7,0.4-0.8,1.3-0.4,2
			C147.9,83.4,151.3,86.6,152.6,87.9z"/>
		<path class="st1" d="M157.5,83.8c-1-1.6-3.4-5.4-4-6.1c-0.6-0.6-1.5-0.6-2,0c-0.6,0.6-0.6,1.5,0,2C152,80.3,156,82.8,157.5,83.8z"
			/>
		<path class="st1" d="M161.6,78.9c-1.3-1.4-4.4-4.7-5.1-5.2c-0.7-0.4-1.6-0.3-2,0.4c-0.4,0.7-0.3,1.6,0.4,2
			C155.5,76.5,159.9,78.2,161.6,78.9z"/>
		<path class="st1" d="M164.6,73.2c-1.6-1.1-5.2-3.7-6-4.1c-0.7-0.3-1.6,0-1.9,0.8c-0.3,0.7,0,1.6,0.8,1.9
			C158.2,72.1,162.8,72.9,164.6,73.2z"/>
		<path class="st1" d="M166.5,67.1c-1.7-0.7-5.9-2.6-6.7-2.8c-0.8-0.2-1.5,0.4-1.7,1.1c-0.2,0.8,0.4,1.5,1.1,1.7
			S164.6,67.1,166.5,67.1z"/>
		<path class="st1" d="M167.1,60.8c-1.8-0.4-6.3-1.4-7.1-1.4c-0.8,0-1.4,0.6-1.4,1.4c0,0.8,0.6,1.4,1.4,1.4
			C160.8,62.2,165.3,61.1,167.1,60.8z"/>
		<path class="st1" d="M166.5,54.4c-1.9,0-6.4-0.2-7.3,0c-0.8,0.2-1.3,0.9-1.1,1.7c0.2,0.8,0.9,1.3,1.7,1.1
			C160.5,57.1,164.8,55.1,166.5,54.4z"/>
		<path class="st1" d="M164.6,48.3c-1.9,0.3-6.3,1.1-7.1,1.4c-0.7,0.3-1.1,1.1-0.8,1.9c0.3,0.7,1.1,1.1,1.9,0.8
			C159.3,52,163.1,49.3,164.6,48.3z"/>
		<path class="st1" d="M161.6,42.7c-1.8,0.7-6,2.3-6.7,2.8c-0.7,0.4-0.8,1.3-0.4,2c0.4,0.7,1.3,0.8,2,0.4
			C157.1,47.4,160.3,44,161.6,42.7z"/>
		<path class="st1" d="M157.6,37.7c-1.6,1-5.4,3.4-6.1,4c-0.6,0.6-0.6,1.5,0,2c0.6,0.6,1.5,0.6,2,0
			C154.1,43.2,156.5,39.3,157.6,37.7z"/>
		<path class="st1" d="M152.6,33.7c-1.4,1.3-4.7,4.4-5.2,5.1c-0.4,0.7-0.3,1.6,0.4,2c0.7,0.4,1.6,0.3,2-0.4
			C150.3,39.7,151.9,35.4,152.6,33.7z"/>
		<path class="st1" d="M147,30.7c-1.1,1.6-3.7,5.2-4.1,6c-0.3,0.7,0,1.6,0.8,1.9c0.7,0.3,1.6,0,1.9-0.8
			C145.9,37.1,146.6,32.5,147,30.7z"/>
		<path class="st1" d="M140.9,28.8c-0.7,1.7-2.6,5.9-2.8,6.7c-0.2,0.8,0.4,1.5,1.1,1.7c0.8,0.2,1.5-0.4,1.7-1.1
			C141.1,35.3,140.9,30.6,140.9,28.8z"/>
	</g>
	
		<ellipse transform="matrix(0.6873 -0.7264 0.7264 0.6873 -2.0668 116.6993)" class="st1" cx="134.5" cy="60.8" rx="21.6" ry="21.6"/>
	<g>
		<path class="st1" d="M133.5,96.8c-1.5,0.2-5.9-0.2-8.3-1.2c-4-1.6-8.1-2.7-10.3-4.6c-2.8-2.4-11.9-7.4-15.3-21.4
			c-0.7-2.7-0.6-3.8-1.4-3.8c-0.4,0-0.7,2.1-0.3,4.6c0.4,2.3-0.3,2-1.6-0.9c-1.2-2.9-2-5.2-2.3-7.6c-0.2-1.8-1.6-0.2-1.3,2.5
			c0.3,2.3,1.9,6.7,3.5,9.2c1.4,2.1,0.3,2.2-1.1,0.3c-1.4-1.8-3.4-4.6-4.5-7.7c-1.1-3.1-1.1,1.2-0.6,2.9c1.3,4.3,4.6,8.2,6.3,10
			c1.8,1.8,1,2.2-0.6,1c-1.7-1.2-2.3-1.4-4.2-3.5c-1.9-2-2.7-1.1-0.9,1c1.7,2.1,3.5,3.8,5.6,5.5c1.1,0.9,2.1,1.8,0.4,1.6
			c-1.1-0.1-2.8-1.3-3.5-2.1s-2-0.8-0.9,0.7c1.2,1.6,4.1,4.3,6.5,5.1c0.8,0.3,0.1,0.8-1.6,0.4c-1.8-0.4-0.5,0.9,0.3,1.3
			c0.9,0.4,2.3,0.9,3.3,1.1c1,0.2,0.7,0.6-0.2,0.7c-0.9,0-1.6,0-2.1-0.2c-0.5-0.2-0.1,0.6,0.4,0.8c0.6,0.3,1.6,0.6,2.3,0.6
			c0.7,0,0.5,1-0.3,0.8c-0.8-0.2-1.7-0.4-1.3,0.3c0.4,0.6,2.8,1,4.4,1c1.6,0.1,1,0.6,0.2,0.8c-0.8,0.2-1.6,0.2-2.1,0.2
			s-0.9,0.9,0.3,0.9c1.3,0.1,3,0.2,5.6,1.5c3.4,1.7,7.9,3.3,11,2.8c2.8-0.4,1.3-1.2-0.1-1c-2.2,0.2-4.1-1.4-5.6-1.4
			c-1.5,0-3.8-1.8-5.4-2c-0.7-0.1-1.3-0.7-0.3-1c1-0.2,1.3-0.8,1.2-1.2c-0.1-0.6-1.9,0-3-0.5c-0.8-0.4-0.7-0.7,0-1.2
			c1-0.7,0.3-1.2-1.1-1.2c-1.4,0-1.7-0.7-1-1.2c0.7-0.5,0.3-0.9-0.4-0.8c-0.7,0-0.6-0.6-0.2-0.8c0.4-0.1,0.3-0.5-0.2-0.6
			c-1.3-0.1-2.1-1.4-3.1-1.8c-0.8-0.3-0.7-0.7-0.4-0.6c0.4,0,0.8-0.2,0.2-0.7c-0.9-0.7,0.1-1-1.2-1.7c-1-0.6-1.3-1.1-1.1-1.5
			c0.2-0.5,1.7-0.2,1.8-0.9c0.1-0.7-1.9-1.6-1.9-2.5c0-0.5,0.4-0.5,0.8-0.3c0.4,0.2,0.8,0.2,0.7-0.3c-0.1-0.6,0.1-0.8,0.9-0.4
			c2.3,1.3,4.9,5,7.5,8.9c1.7,2.6,3.5,3.7,5,4.1c2,0.5,5.8,3.1,7.4,4.6c1.1,1,1.9,1.6,3.9,1.2c2-0.4,4.1,0,5.8,0.8
			c1.7,0.8,3.3,1.7,4.8-0.2C134.6,96.6,134.5,96.6,133.5,96.8z"/>
		<path class="st1" d="M145.2,97.6c-4.4,0.1-7.1,0.5-8.1,1.4c-2,1.7-2.4,0.8-3.3,1.5s-1.7,0.7-2.2,0.4c-0.4-0.3-0.5-0.6,0.4-0.8
			c0.9-0.2,1.6-1,2.1-1.5c1.5-1.5,3.9-1.9,6-2.3c6.7-1.3,16.6-4.9,23.3-13.7c4.6-6,6.2-12.4,7-18.2c0.3-2.1,1.3-1.5,1.5-0.2
			c0.1,1.4-0.2,4.7-0.4,5.8c-0.2,1.1,0,1.9,1,0.3c1.5-2.4,3-7.4,3.4-9.8c0.4-2.5,1.3-2.2,1.3,0.1c0.1,3.4-1.6,8.8-4.6,13.4
			c-1.2,1.8-0.6,2.5,1,0.6c2.4-2.7,3.4-4.2,4.6-6.9c1-2.3,1.8-1.9,0.9,1c-1.2,4.2-3.6,7.2-5.7,9.5c-2,2.3-1.2,2.3,0,1.9
			c1.2-0.4,3.1-2.1,4.6-4.1c1.5-2,2-1.1,1,0.8c-0.9,1.7-3.4,4.7-5.2,6.3c-1.3,1.3-0.1,1.4,0.7,0.5c0.9-0.8,1.6-1.9,2.5-2.1
			c0.9-0.2,2.1-0.2-0.2,2.2c-1.1,1.1-4.3,3.5-5.9,4.2c-1.6,0.7-1,1.3,0.2,1c1.2-0.3,3.2-1.3,3.2-0.7c0,0.6-1.4,1.2-2.6,1.7
			c-1.3,0.5-2,1.7-0.5,1.7c0.7,0,0.5,0.6-0.1,0.7s-1.9,0.2-1.9,0.7c0,0.3,0.4,0.5,0.8,0.5c0.4,0,0.4,0.3-0.1,0.7
			c-1.7,1.3-4,0.5-5,1.2c-0.9,0.7,0,0.6,1.2,0.6c1.4,0,2.5,1,0.6,1.1c-2.7,0-6.1,0.8-8.9,2.1c-2.1,1-3.8-0.1-0.9-1.1
			c1.6-0.6,3.9-1.4,4.7-1.8c1.8-0.9-1.1-0.6,0.7-1.7c0.6-0.3,1.8-0.4,1.8-0.8s-1.2-0.7-0.2-1.2c0.5-0.2,1.4-0.3,1.9-0.3
			c0.5,0,1-0.7,0.2-0.9c-0.8-0.2-0.8-0.7,0.1-0.9c0.9-0.2,1.9-0.5,2.4-0.7c0.5-0.2,0.4-0.7-0.5-0.7c-1,0-1.1-0.4-0.2-0.7
			c1-0.4,2.4-1.1,3.2-1.6c0.8-0.5,0.7-0.8-0.1-1.1c-0.8-0.2-0.9-0.4-0.2-0.8c0.8-0.4,1.4-0.9,1.6-1.4c0.2-0.5,0.3-1-0.6-0.9
			c-1,0.1-1.5,0.1-1.4-1c0.1-1,0.3-1.4,0.9-2.1c0.6-0.7,0.1-1.3-1.4-0.7c-2.6,1-3.3,1.2-4.5,3c-1.2,1.8-2.7,3.7-3.4,5.4
			c-0.8,1.6-2.7,3.4-4.5,3.9s-5.9,2.4-7.7,3.7C147.3,97.1,147.9,97.5,145.2,97.6z"/>
		<path class="st1" d="M124.3,104.9c-0.9-0.4-0.9-1.2,0.4-1.4c1.3-0.2,1.3-0.2,1.9-0.5c0.6-0.3,3-1.4,4-1.5c1,0,0.9,0.8,0,0.8
			c-1,0-3.2,1.1-4,1.7c-0.8,0.6-1.2,0.7-1.6,0.6C124.6,104.5,124.4,104.6,124.3,104.9z"/>
		<path class="st1" d="M122.2,108.3c-0.9-1,0-2.2,1.4-2.7c0.4-0.2,0.9,0.6,2.2,0.5c1.4-0.1,2.8-0.3,2-1.1c-0.4-0.4-0.6-0.8,0-0.8
			c0.2,0,0.5,0,0.7-0.1c0.2-0.1,0.5-0.2,0.8,0c0.2,0.1,0.5,0.2,0.8,0.1c0.3,0,0.6,0.2,0.2,0.5c-0.9,0.7-0.2,1.2,0.4,1.1
			c0.6-0.1,1.7-0.1,2.3,0s1.2,0.2,1.6,0.1c0.5-0.1,1.4,0,2.4,0.4c1.2,0.5,1,1.3,0,1.1c-2.5-0.4-4.4-0.5-5.8-0.3
			c-1.4,0.2-3.7,0-5.2-0.2C124.7,106.8,123.4,106.6,122.2,108.3z"/>
		<path class="st1" d="M131.3,108.8c-0.7,1.1-1.8,1.8-3.1,2.2c-1.2,0.3-1.8,0.8-0.3,1c1.5,0.2,2.1-0.1,2.9-0.5
			c0.8-0.3,1-1.1,1.6-0.1c0.5,0.9,1.1,0.8,2-0.1c0.5-0.5,0.9-0.8,1.5-0.8c0.6,0,0.7,0.1,0.3,0.7c-0.4,0.5,0,1.5,0.8,0.7
			c0.9-0.8,1.3-1.3,2-1.3c0.7,0,0.5,0.3,0,0.8c-0.5,0.5-0.8,0.9,0.3,0.8c1-0.1,1.5-0.2,1.9-0.9c0.4-0.7,0.6-1,1.5-0.3
			c0.9,0.7,1.4,1.3,1.8,0.6c0.4-0.8,0.6-1,1.1-0.6c0.7,0.6,2.9,0.1,3-0.9c0.1-0.5,0.1-1.1,0.9-0.4c0.8,0.7,2.3,0.4,2.3-0.4
			c0-0.8,0.5-1,1.3-0.7c0.8,0.3,1.7,0.4,2.2,0c0.5-0.4,0.6-0.7,0.3-1.4c-0.3-0.6-0.2-1.3,0.8-0.9c1.6,0.6,3.4,1.2,4.6-0.2
			c1.2-1.4,1.6-1.8-0.4-1.7c-2,0-5.5-0.2-7.1-0.4c-1.6-0.2-3.8-0.6-4.3-0.6c-0.5,0-0.6,0.1-0.5,0.5c0,0.3-0.6,0.3-0.7,0.8
			c-0.1,0.5-0.4,0.7-0.9,0.5c-0.5-0.2-0.6-0.1-0.4,0.4c0.2,0.5,0.2,1-0.5,0.8c-1.8-0.4-2.8,0.3-4.2,0.9c-2.8,1.2-4.6,1.4-6.8,1.2
			C132.8,107.9,132,107.7,131.3,108.8z"/>
	</g>
</g>
<g>
	<g>
		<path class="st1" d="M17.5,105.6c0-1.8-3-6.6-7.2-4.2c-5.3,3,2.7,14.6,5.1,20.9c1.3,3.4-0.2,5.2-1.9,5.4c-1.8,0.2-2.4-0.8-2.6-2
			c-0.2-0.9,0.7-1.8,1.6-1.9c0.9-0.1,1.5,0.6,1.1,1.1c-1.8-0.6-2.2,1.7-0.6,1.8c2.1,0.1,2.6-2.4,1.6-3.3c-0.9-0.9-2.9-0.9-3.4,0
			c0.3-0.8,0.5-2,0.5-3.2c0-0.4,0.2-2.1,0.7-2.4c-0.4-0.2-1.1,0.2-1,0.5c-0.4-1-1-1.9-2.2-2.4c1.4,2.7,1.4,5.2,0.5,7.2
			c-1.1,2.5-0.4,6.5,4,6c4.2-0.5,4.9-4.4,2.2-9.8c-2.7-5.4-8.3-14.8-4.4-16.6c1.3-0.6,3.2,0.5,4.2,2.4c0.4,0.7,0.1,0.9-0.6,0.9
			c-0.2,0-0.8,0-1.3,0v-0.3c0-1.1-1.1-1.1-1.1,0v0.3c-0.4,0-0.7,0.4-0.7,0.6c0,0.2,0.3,0.6,0.7,0.6v0.3c0,1.1,1.1,1.1,1.1,0V107
			c0.5,0,1.8,0,2,0c0.3,0,0.6,0.2,0.6,0.6c0,1.9,0,3.4,0,4.5c0,0.4-1.4,0.3-1.3-0.7c0-0.4-0.2-0.5-0.4-0.3c-1.4,1.6,1.2,2.6,1.7,2.1
			c0,1.2,0,2.1,0,2.8c0,1.9,2.1,1.9,2.1,0c0-0.7,0-1.5,0-2.8c0.5,0.5,3.2-0.5,1.7-2.1c-0.2-0.2-0.4-0.1-0.4,0.3
			c0.1,0.9-1.3,1.1-1.3,0.7c0-1.2,0-2.6,0-4.5c0-0.4,0.3-0.6,0.6-0.6c0.2,0,1.5,0,2,0v0.3c0,1.1,1.1,1.1,1.1,0V107
			c0.4,0,0.7-0.4,0.7-0.6c0-0.2-0.3-0.6-0.7-0.6v-0.3c0-1.1-1.1-1.1-1.1,0v0.3c-0.5,0-1.1,0-1.3,0c-0.7,0-0.9-0.2-0.6-0.9
			c1-1.9,2.9-3,4.2-2.4c3.8,1.8-1.8,11.2-4.4,16.6c-2.7,5.4-2,9.3,2.2,9.8c4.4,0.5,5.2-3.5,4-6c-0.9-2-0.9-4.5,0.5-7.2
			c-1.1,0.6-1.8,1.4-2.2,2.4c0.1-0.3-0.6-0.7-1-0.5c0.5,0.4,0.7,2,0.7,2.4c0,1.2,0.2,2.4,0.5,3.2c-0.5-0.8-2.5-0.9-3.4,0
			c-0.9,0.9-0.5,3.4,1.6,3.3c1.6-0.1,1.2-2.4-0.6-1.8c-0.3-0.5,0.3-1.2,1.1-1.1c0.9,0.1,1.7,1,1.6,1.9c-0.2,1.2-0.9,2.2-2.6,2
			c-1.6-0.1-3.1-2-1.9-5.4c2.3-6.2,10.4-17.9,5.1-20.9C20.5,99,17.5,103.8,17.5,105.6z"/>
	</g>
	<g>
		<path class="st1" d="M17.5,142.2c1,1.1,2.5,1.2,3.6,0.4c2.2-1.7-0.5-4-1.4-6.7c-1.1-3.4-0.3-5.3,1.8-5.6c1.8-0.2,2.4,0.8,2.6,2
			c0.2,0.9-0.7,1.8-1.6,1.9c-0.9,0.1-1.5-0.6-1.1-1.1c1.8,0.6,2.2-1.7,0.6-1.8c-2.1-0.1-2.6,2.4-1.6,3.3c0.9,0.9,2.9,0.9,3.4,0
			c-0.3,0.8-0.5,2-0.5,3.2c0,0.4-0.2,2.1-0.7,2.4c0.4,0.2,1.1-0.2,1-0.5c0.4,1,1,1.9,2.2,2.4c-1.4-2.7-1.4-5.2-0.5-7.2
			c1.1-2.5,0.4-6.5-4-6c-4.2,0.5-5,4.7-1.8,10.7c1.1,2-1.6,2.2-2,0.5c-0.4,1.7-3,1.5-2-0.5c3.3-6,2.4-10.2-1.8-10.7
			c-4.4-0.5-5.2,3.5-4,6c0.9,2,0.9,4.5-0.5,7.2c1.1-0.6,1.8-1.4,2.2-2.4c-0.1,0.3,0.6,0.7,1,0.5c-0.5-0.4-0.7-2-0.7-2.4
			c0-1.2-0.2-2.4-0.5-3.2c0.5,0.8,2.4,0.9,3.4,0c0.9-0.9,0.5-3.4-1.6-3.3c-1.6,0.1-1.2,2.4,0.6,1.8c0.3,0.5-0.3,1.2-1.1,1.1
			c-0.9-0.1-1.7-1-1.6-1.9c0.2-1.2,0.9-2.2,2.6-2c2.1,0.3,2.9,2.2,1.8,5.6c-0.9,2.7-3.6,5-1.4,6.7C15,143.4,16.5,143.3,17.5,142.2z"
			/>
	</g>
	<g>
		<path class="st1" d="M17.5,95.9c0,1.8-3,6.6-7.2,4.2c-5.3-3,2.7-14.6,5.1-20.9c1.3-3.4-0.2-5.2-1.9-5.4c-1.8-0.2-2.4,0.8-2.6,2
			c-0.2,0.9,0.7,1.8,1.6,1.9c0.9,0.1,1.5-0.6,1.1-1.1c-1.8,0.6-2.2-1.7-0.6-1.8c2.1-0.1,2.6,2.4,1.6,3.3c-0.9,0.9-2.9,0.9-3.4,0
			c0.3,0.8,0.5,2,0.5,3.2c0,0.4,0.2,2.1,0.7,2.4c-0.4,0.2-1.1-0.2-1-0.5c-0.4,1-1,1.9-2.2,2.4c1.4-2.7,1.4-5.2,0.5-7.2
			c-1.1-2.5-0.4-6.5,4-6C18,73,18.7,77,16,82.4c-2.7,5.4-8.3,14.8-4.4,16.6c1.3,0.6,3.2-0.5,4.2-2.4c0.4-0.7,0.1-0.9-0.6-0.9
			c-0.2,0-0.8,0-1.3,0V96c0,1.1-1.1,1.1-1.1,0v-0.3c-0.4,0-0.7-0.4-0.7-0.6s0.3-0.6,0.7-0.6v-0.3c0-1.1,1.1-1.1,1.1,0v0.3
			c0.5,0,1.8,0,2,0c0.3,0,0.6-0.2,0.6-0.6c0-1.9,0-3.4,0-4.5c0-0.4-1.4-0.3-1.3,0.7c0,0.4-0.2,0.5-0.4,0.3c-1.4-1.6,1.2-2.6,1.7-2.1
			c0-1.2,0-2.1,0-2.8c0-1.9,2.1-1.9,2.1,0c0,0.7,0,1.5,0,2.8c0.5-0.5,3.2,0.5,1.7,2.1c-0.2,0.2-0.4,0.1-0.4-0.3
			c0.1-0.9-1.3-1.1-1.3-0.7c0,1.2,0,2.6,0,4.5c0,0.4,0.3,0.6,0.6,0.6c0.2,0,1.5,0,2,0v-0.3c0-1.1,1.1-1.1,1.1,0v0.3
			c0.4,0,0.7,0.4,0.7,0.6s-0.3,0.6-0.7,0.6V96c0,1.1-1.1,1.1-1.1,0v-0.3c-0.5,0-1.1,0-1.3,0c-0.7,0-0.9,0.2-0.6,0.9
			c1,1.9,2.9,3,4.2,2.4c3.8-1.8-1.8-11.2-4.4-16.6c-2.7-5.4-2-9.3,2.2-9.8c4.4-0.5,5.2,3.5,4,6c-0.9,2-0.9,4.5,0.5,7.2
			c-1.1-0.6-1.8-1.4-2.2-2.4c0.1,0.3-0.6,0.7-1,0.5c0.5-0.4,0.7-2,0.7-2.4c0-1.2,0.2-2.4,0.5-3.2c-0.5,0.8-2.5,0.9-3.4,0
			c-0.9-0.9-0.5-3.4,1.6-3.3c1.6,0.1,1.2,2.4-0.6,1.8c-0.3,0.5,0.3,1.2,1.1,1.1c0.9-0.1,1.7-1,1.6-1.9c-0.2-1.2-0.9-2.2-2.6-2
			c-1.6,0.1-3.1,2-1.9,5.4c2.3,6.2,10.4,17.9,5.1,20.9C20.5,102.5,17.5,97.7,17.5,95.9z"/>
	</g>
	<g>
		<path class="st1" d="M17.5,39.4c0,1.8-3,6.6-7.2,4.2C5,40.6,13,29,15.4,22.7c1.3-3.4-0.2-5.2-1.9-5.4c-1.8-0.2-2.4,0.8-2.6,2
			c-0.2,0.9,0.7,1.8,1.6,1.9c0.9,0.1,1.5-0.6,1.1-1.1c-1.8,0.6-2.2-1.7-0.6-1.8c2.1-0.1,2.6,2.4,1.6,3.3c-0.9,0.9-2.9,0.9-3.4,0
			c0.3,0.8,0.5,2,0.5,3.2c0,0.4,0.2,2.1,0.7,2.4c-0.4,0.2-1.1-0.2-1-0.5c-0.4,1-1,1.9-2.2,2.4c1.4-2.7,1.4-5.2,0.5-7.2
			c-1.1-2.5-0.4-6.5,4-6c4.2,0.5,4.9,4.4,2.2,9.8c-2.7,5.4-8.3,14.8-4.4,16.6c1.3,0.6,3.2-0.5,4.2-2.4c0.4-0.7,0.1-0.9-0.6-0.9
			c-0.2,0-0.8,0-1.3,0v0.3c0,1.1-1.1,1.1-1.1,0v-0.3c-0.4,0-0.7-0.4-0.7-0.6c0-0.2,0.3-0.6,0.7-0.6v-0.3c0-1.1,1.1-1.1,1.1,0V38
			c0.5,0,1.8,0,2,0c0.3,0,0.6-0.2,0.6-0.6c0-1.9,0-3.4,0-4.5c0-0.4-1.4-0.3-1.3,0.7c0,0.4-0.2,0.5-0.4,0.3c-1.4-1.6,1.2-2.6,1.7-2.1
			c0-1.2,0-2.1,0-2.8c0-1.9,2.1-1.9,2.1,0c0,0.7,0,1.5,0,2.8c0.5-0.5,3.2,0.5,1.7,2.1c-0.2,0.2-0.4,0.1-0.4-0.3
			c0.1-0.9-1.3-1.1-1.3-0.7c0,1.2,0,2.6,0,4.5c0,0.4,0.3,0.6,0.6,0.6c0.2,0,1.5,0,2,0v-0.3c0-1.1,1.1-1.1,1.1,0V38
			c0.4,0,0.7,0.4,0.7,0.6c0,0.2-0.3,0.6-0.7,0.6v0.3c0,1.1-1.1,1.1-1.1,0v-0.3c-0.5,0-1.1,0-1.3,0c-0.7,0-0.9,0.2-0.6,0.9
			c1,1.9,2.9,3,4.2,2.4c3.8-1.8-1.8-11.2-4.4-16.6c-2.7-5.4-2-9.3,2.2-9.8c4.4-0.5,5.2,3.5,4,6c-0.9,2-0.9,4.5,0.5,7.2
			c-1.1-0.6-1.8-1.4-2.2-2.4c0.1,0.3-0.6,0.7-1,0.5c0.5-0.4,0.7-2,0.7-2.4c0-1.2,0.2-2.4,0.5-3.2c-0.5,0.8-2.5,0.9-3.4,0
			c-0.9-0.9-0.5-3.4,1.6-3.3c1.6,0.1,1.2,2.4-0.6,1.8c-0.3,0.5,0.3,1.2,1.1,1.1c0.9-0.1,1.7-1,1.6-1.9c-0.2-1.2-0.9-2.2-2.6-2
			c-1.6,0.1-3.1,2-1.9,5.4C21.9,29,30,40.6,24.7,43.6C20.5,46,17.5,41.2,17.5,39.4z"/>
	</g>
	<g>
		<path class="st1" d="M17.5,2.8c1-1.1,2.5-1.2,3.6-0.4c2.2,1.7-0.5,4-1.4,6.7c-1.1,3.4-0.3,5.3,1.8,5.6c1.8,0.2,2.4-0.8,2.6-2
			c0.2-0.9-0.7-1.8-1.6-1.9c-0.9-0.1-1.5,0.6-1.1,1.1c1.8-0.6,2.2,1.7,0.6,1.8c-2.1,0.1-2.6-2.4-1.6-3.3c0.9-0.9,2.9-0.9,3.4,0
			c-0.3-0.8-0.5-2-0.5-3.2c0-0.4-0.2-2.1-0.7-2.4c0.4-0.2,1.1,0.2,1,0.5c0.4-1,1-1.9,2.2-2.4C24.3,5.5,24.3,8,25.2,10
			c1.1,2.5,0.4,6.5-4,6c-4.2-0.5-5-4.7-1.8-10.7c1.1-2-1.6-2.2-2-0.5c-0.4-1.7-3-1.5-2,0.5c3.3,6,2.4,10.2-1.8,10.7
			c-4.4,0.5-5.2-3.5-4-6c0.9-2,0.9-4.5-0.5-7.2c1.1,0.6,1.8,1.4,2.2,2.4c-0.1-0.3,0.6-0.7,1-0.5c-0.5,0.4-0.7,2-0.7,2.4
			c0,1.2-0.2,2.4-0.5,3.2c0.5-0.8,2.4-0.9,3.4,0c0.9,0.9,0.5,3.4-1.6,3.3c-1.6-0.1-1.2-2.4,0.6-1.8c0.3-0.5-0.3-1.2-1.1-1.1
			c-0.9,0.1-1.7,1-1.6,1.9c0.2,1.2,0.9,2.2,2.6,2c2.1-0.3,2.9-2.2,1.8-5.6c-0.9-2.7-3.6-5-1.4-6.7C15,1.6,16.5,1.7,17.5,2.8z"/>
	</g>
	<g>
		<path class="st1" d="M17.5,49.1c0-1.8-3-6.6-7.2-4.2c-5.3,3,2.7,14.6,5.1,20.9c1.3,3.4-0.2,5.2-1.9,5.4c-1.8,0.2-2.4-0.8-2.6-2
			c-0.2-0.9,0.7-1.8,1.6-1.9c0.9-0.1,1.5,0.6,1.1,1.1c-1.8-0.6-2.2,1.7-0.6,1.8c2.1,0.1,2.6-2.4,1.6-3.3c-0.9-0.9-2.9-0.9-3.4,0
			c0.3-0.8,0.5-2,0.5-3.2c0-0.4,0.2-2.1,0.7-2.4c-0.4-0.2-1.1,0.2-1,0.5c-0.4-1-1-1.9-2.2-2.4c1.4,2.7,1.4,5.2,0.5,7.2
			c-1.1,2.5-0.4,6.5,4,6c4.2-0.5,4.9-4.4,2.2-9.8c-2.7-5.4-8.3-14.8-4.4-16.6c1.3-0.6,3.2,0.5,4.2,2.4c0.4,0.7,0.1,0.9-0.6,0.9
			c-0.2,0-0.8,0-1.3,0v-0.3c0-1.1-1.1-1.1-1.1,0v0.3c-0.4,0-0.7,0.4-0.7,0.6c0,0.2,0.3,0.6,0.7,0.6v0.3c0,1.1,1.1,1.1,1.1,0v-0.3
			c0.5,0,1.8,0,2,0c0.3,0,0.6,0.2,0.6,0.6c0,1.9,0,3.4,0,4.5c0,0.4-1.4,0.3-1.3-0.7c0-0.4-0.2-0.5-0.4-0.3c-1.4,1.6,1.2,2.6,1.7,2.1
			c0,1.2,0,2.1,0,2.8c0,1.9,2.1,1.9,2.1,0c0-0.7,0-1.5,0-2.8c0.5,0.5,3.2-0.5,1.7-2.1c-0.2-0.2-0.4-0.1-0.4,0.3
			c0.1,0.9-1.3,1.1-1.3,0.7c0-1.2,0-2.6,0-4.5c0-0.4,0.3-0.6,0.6-0.6c0.2,0,1.5,0,2,0v0.3c0,1.1,1.1,1.1,1.1,0v-0.3
			c0.4,0,0.7-0.4,0.7-0.6c0-0.2-0.3-0.6-0.7-0.6v-0.3c0-1.1-1.1-1.1-1.1,0v0.3c-0.5,0-1.1,0-1.3,0c-0.7,0-0.9-0.2-0.6-0.9
			c1-1.9,2.9-3,4.2-2.4c3.8,1.8-1.8,11.2-4.4,16.6c-2.7,5.4-2,9.3,2.2,9.8c4.4,0.5,5.2-3.5,4-6c-0.9-2-0.9-4.5,0.5-7.2
			c-1.1,0.6-1.8,1.4-2.2,2.4c0.1-0.3-0.6-0.7-1-0.5c0.5,0.4,0.7,2,0.7,2.4c0,1.2,0.2,2.4,0.5,3.2c-0.5-0.8-2.5-0.9-3.4,0
			c-0.9,0.9-0.5,3.4,1.6,3.3c1.6-0.1,1.2-2.4-0.6-1.8c-0.3-0.5,0.3-1.2,1.1-1.1c0.9,0.1,1.7,1,1.6,1.9c-0.2,1.2-0.9,2.2-2.6,2
			c-1.6-0.1-3.1-2-1.9-5.4c2.3-6.2,10.4-17.9,5.1-20.9C20.5,42.6,17.5,47.3,17.5,49.1z"/>
	</g>
</g>
</svg>
