<?xml version="1.0" encoding="utf-8"?>
<!-- Generator: Adobe Illustrator 22.1.0, SVG Export Plug-In . SVG Version: 6.00 Build 0)  -->
<svg version="1.1" id="layer_1" xmlns="http://www.w3.org/2000/svg" xmlns:xlink="http://www.w3.org/1999/xlink" x="0px" y="0px"
	 viewBox="0 0 216 144" style="enable-background:new 0 0 216 144;" xml:space="preserve">
<style type="text/css">
	.st0{fill:#40548B;}
	.st1{fill:#D24D5C;}
	.st2{fill:#F6D167;stroke:#000000;stroke-width:0;}
</style>
<rect y="0" class="st0" width="216" height="72"/>
<rect y="72" class="st1" width="216" height="72"/>
<g>
	<path d="M33.6,39.3c-0.7,0.4-1.9,0.9-2.3,1.4c2.6,1.4,4.2,9.4,6.6,11.9c8.8,0.2,21.7,0.4,35.2,0.6c1.6,0,2.2-1.5,2.7-2.7
		c1.3-2.7,3.5-7.5,5.3-8.2c0.8-0.3,0.4-0.8-0.3-1.3c-0.7-0.5-1.4-1-2.4-1.1c1-0.7,1-1.7,0.3-2.5c1.5-1,1.2-2.3,0.2-2.8
		c1.5-1.2,0.8-2.7-0.3-2.7c1-1.4,0.6-3-1.2-2.9c0.5-1.5-0.8-2.5-2-2.1c-0.2-1.3-1.3-2.3-2.5-1.2c-0.7-1.7-2.1-2-2.9-0.7
		c-0.8-1.2-2.2-1.4-2.8-0.2c-0.9-0.7-2.2-0.4-2.6,0.5c-0.8-0.8-2.1-0.9-2.7,0.2c-1-0.6-2.1-0.5-2.5,0.4c-0.2-0.3-0.7-0.4-1-0.3
		c1.1-1.4,0.5-3.5-1.1-4c0.2-0.4,0.3-0.6,0.4-0.8c0.1-0.2,0-0.4-0.1-0.6c-0.1-0.2-0.4-0.7-0.6-1l0.5-0.5c0.5,0.3,1,0.6,1.2,0.7
		c0.2,0.1,0.4,0.2,0.7,0c0.3-0.2,1-0.7,1.3-0.9c0.3-0.2,0.1-0.4-0.1-0.5c-0.2-0.2-1-0.7-1.2-0.9c-0.3-0.2-0.5-0.1-0.8,0
		c-0.3,0.2-0.8,0.4-1.2,0.6c-0.1-0.2-0.4-0.3-0.6-0.4c0.6-1.1,0.8-1.5,0.9-1.7c0.1-0.2,0.2-0.4,0-0.7c-0.1-0.3-0.8-1.5-1-1.8
		c-0.2-0.3-0.3-0.2-0.6,0.1c-0.4,0.5-0.9,1.2-1,1.5c-0.2,0.3-0.3,0.4-0.1,0.8c0.2,0.5,0.6,1.3,0.8,1.7c-0.1,0.1-0.4,0.3-0.5,0.5
		c-0.5-0.3-1.1-0.5-1.3-0.6s-0.4-0.1-0.7,0.1c-0.5,0.3-1.4,0.8-1.6,1s0,0.3,0.3,0.5c0.3,0.2,1.1,0.7,1.3,0.9c0.2,0.1,0.4,0.1,0.7,0
		c0.3-0.1,1-0.4,1.1-0.5c0.1,0.2,0.4,0.4,0.5,0.5c-0.2,0.4-0.5,0.8-0.6,1.1c-0.2,0.3-0.2,0.4,0,0.6c0.1,0.2,0.2,0.4,0.3,0.7
		c-2.2,0.6-2.1,3-1.4,4.2c-0.3-0.1-0.7,0-0.9,0.3c-0.7-0.9-1.9-1.1-2.4-0.4c-0.6-1-1.9-1.3-2.7-0.5c-0.7-1.2-1.9-1.3-2.7-0.4
		c-0.5-0.9-2-1.2-2.7-0.1c-0.9-1-2.1-0.6-2.7,0.4c-1-0.8-2.4-0.6-2.7,1.2c-1.5-0.3-2.7,0.6-2.2,2.2c-1.9,0.1-2,1.6-1,2.7
		c-1.9,0.4-1.8,2-0.6,3c-1.5,0.6-1.1,2.3,0,2.8C32.6,37.5,32.6,38.7,33.6,39.3z"/>
	<g>
		<path class="st2" d="M33.9,34.5c-1.3,0-1.3,2,0,2C35.2,36.5,35.2,34.5,33.9,34.5z"/>
		<path class="st2" d="M34.4,37c-1.3,0-1.3,2,0,2C35.7,39,35.7,37,34.4,37z"/>
		<path class="st2" d="M33.9,31.7c-1.3,0-1.3,2,0,2C35.2,33.6,35.2,31.7,33.9,31.7z"/>
		<path class="st2" d="M34.7,28.9c-1.3,0-1.3,2,0,2C36,30.9,36,28.9,34.7,28.9z"/>
		<path class="st2" d="M36.3,26.6c-1.3,0-1.3,2,0,2C37.6,28.6,37.6,26.6,36.3,26.6z"/>
		<path class="st2" d="M38.7,25c-1.4,0-1.4,2,0,2C40.1,27,40.1,25,38.7,25z"/>
		<path class="st2" d="M41.2,24.4c-1.4,0-1.4,2,0,2C42.6,26.5,42.6,24.4,41.2,24.4z"/>
		<path class="st2" d="M43.8,24.3c-1.4,0-1.4,2,0,2C45.2,26.3,45.2,24.3,43.8,24.3z"/>
		<path class="st2" d="M46.5,24.6c-1.4,0-1.4,2,0,2S47.9,24.6,46.5,24.6z"/>
		<path class="st2" d="M49.1,25.1c-1.4,0-1.4,2,0,2S50.5,25.1,49.1,25.1z"/>
		<path class="st2" d="M51.7,25.6c-1.4,0-1.4,2,0,2S53,25.6,51.7,25.6z"/>
		<path class="st2" d="M54.1,26.1c-1.4,0-1.4,2,0,2C55.5,28.1,55.5,26.1,54.1,26.1z"/>
		<path class="st2" d="M58.5,25.9c-1.4,0-1.4,2,0,2C59.9,27.9,59.9,25.9,58.5,25.9z"/>
		<path class="st2" d="M60.9,25.4c-1.4,0-1.4,2,0,2S62.2,25.4,60.9,25.4z"/>
		<path class="st2" d="M63.3,25c-1.4,0-1.4,2,0,2C64.7,27,64.7,25,63.3,25z"/>
		<path class="st2" d="M56.4,17.3c-1,0-1,1.5,0,1.5C57.4,18.8,57.4,17.3,56.4,17.3z"/>
		<path class="st2" d="M66,24.7c-1.4,0-1.4,2,0,2C67.4,26.7,67.4,24.7,66,24.7z"/>
		<path class="st2" d="M68.6,24.4c-1.4,0-1.4,2,0,2C70,26.5,70,24.4,68.6,24.4z"/>
		<path class="st2" d="M71.3,24.7c-1.4,0-1.4,2,0,2C72.7,26.7,72.7,24.7,71.3,24.7z"/>
		<path class="st2" d="M74,25.5c-1.4,0-1.4,2,0,2C75.4,27.6,75.4,25.5,74,25.5z"/>
		<path class="st2" d="M76.2,27.2c-1.4,0-1.4,2,0,2C77.6,29.2,77.6,27.2,76.2,27.2z"/>
		<path class="st2" d="M77.8,29.3c-1.4,0-1.4,2,0,2S79.2,29.3,77.8,29.3z"/>
		<path class="st2" d="M78.4,32.2c-1.3,0-1.3,1.9,0,1.9C79.7,34.2,79.7,32.2,78.4,32.2z"/>
		<path class="st2" d="M78.4,34.8c-1.3,0-1.3,1.9,0,1.9C79.7,36.8,79.7,34.8,78.4,34.8z"/>
		<path class="st2" d="M77.8,37.5c-1.3,0-1.3,1.9,0,1.9C79.1,39.4,79.1,37.5,77.8,37.5z"/>
		<path class="st2" d="M56.2,28.7c-0.9,0-0.9,1.4,0,1.4C57.1,30.1,57.1,28.7,56.2,28.7z"/>
		<path class="st2" d="M56.3,26.8c-0.8,0-0.8,1.4,0,1.4C57.1,28.1,57.1,26.8,56.3,26.8z"/>
		<path class="st2" d="M56.1,30.7c-1.1,0-1.1,1.6,0,1.6C57.2,32.3,57.2,30.7,56.1,30.7z"/>
		<path class="st2" d="M56.2,32.8c-1.2,0-1.2,1.8,0,1.8C57.4,34.6,57.4,32.8,56.2,32.8z"/>
		<path class="st2" d="M56.1,35c-1.2,0-1.2,1.8,0,1.8C57.4,36.9,57.4,35,56.1,35z"/>
		<path class="st2" d="M38.5,52.2c0.3-0.1,0.5,0,0.3-0.6c-0.1-0.6,0.1-0.9,0.3-0.1c0.2,0.5,0.2,0.4,0.4,0.3c0.3-0.1,0.3,0,0.3-0.4
			c-0.1-0.5,0.1-0.7,0.3-0.1c0.1,0.4,0.1,0.4,0.4,0.3c0.2-0.1,0.4,0.1,0.3-0.4c-0.1-0.5,0.1-0.5,0.2-0.1c0.1,0.4,0.1,0.4,0.4,0.3
			c0.3-0.1,0.4,0,0.3-0.4c-0.1-0.5,0.1-0.6,0.3-0.1c0.2,0.5,0.2,0.3,0.5,0.3c0.3-0.1,0.5,0,0.4-0.5c-0.1-0.5,0.1-0.8,0.3-0.1
			c0.1,0.4,0.2,0.4,0.6,0.3c0.4-0.1,0.5,0,0.5-0.4c-0.1-0.4,0.2-0.5,0.3-0.1c0.1,0.3,0.1,0.4,0.5,0.3c0.4-0.1,0.5,0,0.5-0.5
			c0-0.6,0.2-0.9,0.3,0c0.1,0.6,0.1,0.4,0.5,0.4c0.4,0,0.5,0,0.5-0.5c0-0.4,0.2-0.6,0.2,0c0.1,0.5,0.1,0.4,0.4,0.4
			c0.3,0,0.5,0.1,0.4-0.5c0-0.5,0.3-0.7,0.3,0c0,0.5,0.1,0.4,0.4,0.4c0.4,0,0.4,0.1,0.4-0.4c0-0.7,0.3-0.7,0.3-0.1
			c0,0.5,0.1,0.4,0.4,0.4c0.4,0,0.5,0.1,0.5-0.5c0-0.5,0.2-0.5,0.3,0c0.1,0.4,0,0.4,0.4,0.4c0.5,0,0.4,0,0.4-0.5
			c0-0.5,0.3-0.5,0.3,0c0,0.5,0,0.5,0.4,0.4c0.5,0,0.5,0.1,0.5-0.4c0-0.5,0.3-0.7,0.4,0c0,0.4-0.1,0.4,0.5,0.4s0.6,0.1,0.6-0.5
			c0-0.6,0.3-0.7,0.4-0.1c0,0.7,0.2,0.5,0.4,0.5c0.3,0,0.5,0,0.7,0c0.2,0,0.2,0,0.2-0.4s0.3-0.7,0.3,0c0,0.4-0.1,0.4,0.4,0.5
			c0.5,0,0.4,0.1,0.4-0.4c0-0.5,0.3-0.6,0.3,0c0,0.5,0,0.4,0.3,0.4c0.3,0,0.4,0.1,0.4-0.3c0-0.5,0.4-0.9,0.4,0
			c0,0.5-0.1,0.4,0.4,0.4c0.4,0,0.3,0.1,0.4-0.4c0-0.5,0.4-0.8,0.4,0c0,0.4-0.1,0.4,0.4,0.5c0.4,0.1,0.5,0.1,0.5-0.4
			c0-0.7,0.4-0.6,0.3,0c0,0.6-0.1,0.5,0.4,0.5c0.5,0.1,0.6,0.2,0.6-0.4c0.1-0.7,0.4-0.6,0.3,0c0,0.7,0.1,0.5,0.3,0.5
			c0.3,0,0.4,0.2,0.4-0.4c0-0.5,0.4-0.8,0.3,0c-0.1,0.4,0,0.4,0.3,0.5c0.3,0.1,0.5,0.2,0.5-0.3c0.1-0.5,0.4-0.6,0.3,0
			c-0.1,0.5,0,0.4,0.3,0.5c0.3,0.1,0.4,0.2,0.5-0.3c0.1-0.7,0.4-0.7,0.4,0c0,0.3,0,0.4,0.2,0.4c0.2,0,0.4,0.1,0.6,0.1
			c0.1,0,0.2,0,0.2-0.4c0.1-0.5,0.4-0.6,0.4,0c0,0.6,0,0.5,0.3,0.5c0.3,0,0.3,0.1,0.4-0.4c0.1-0.5,0.4-0.6,0.3,0
			c-0.1,0.6,0,0.4,0.3,0.5c0.3,0.1,0.3,0.1,0.4-0.3c0.1-0.4,0.5-0.6,0.4,0.1c-0.1,0.5-0.1,0.4,0.2,0.5c0.3,0.1,0.4,0.2,0.5-0.2
			c0.1-0.4,0.4-0.6,0.3,0c-0.1,0.5,0,0.4,0.3,0.5c0.3,0.1,0.4,0.2,0.5-0.3c0.1-0.5,0.5-0.5,0.3,0c-0.2,0.5-0.2,0.4,0.2,0.5
			c0.4,0.1,0.4,0.2,0.5-0.3c0.1-0.5,0.5-0.5,0.4,0.1c-0.2,0.6-0.1,0.4,0.2,0.5c0.3,0.1,0.3,0.2,0.5-0.3c0.2-0.5,0.4-0.5,0.3,0.1
			c-0.1,0.4-0.2,0.5,0.3,0.5c0.5,0,0.8-0.2,1.6-1.4c1.8-2.9,2.8-7.5,5.9-9.3c0.6-0.3,0.2-0.8-0.8-1.1c-3.5-1.2-7-1.1-8.8,3.6
			c-0.3,0.7-0.6,0.5-0.4-0.1c0.7-2.6,0.4-5.7-1.8-6.3c-2.9-0.8-6.2,1.8-7.2,4.9c-0.2,0.5-0.4,0.3-0.5-0.4c-0.6-4.1-2.6-5.3-4.9-5.3
			c-2.3,0-5,0.9-5.3,5c0,0.5-0.3,0.1-0.6-0.2c-3.3-3.8-4.8-5-6.7-4.5c-1.8,0.5-3,3.3-2.6,5.4c0,0.3-0.2,0.6-0.4,0
			c-1.1-3.6-5.2-4.8-8.3-2.6c-0.3,0.2-0.5,0.1,0.2,0.8c2,1.9,2.8,6.9,5.4,10.8C38.1,52.3,38.2,52.3,38.5,52.2z"/>
		<path class="st2" d="M38,30.9c-1,1.3-0.8,4.7,0,6.3V30.9z"/>
		<path class="st2" d="M38.4,37.8c0.2,0.4,0.5,0.7,0.9,0.9v-9c-0.3,0.2-0.6,0.5-0.9,0.8V37.8z"/>
		<path class="st2" d="M39.6,38.9c0.4,0.1,0.7,0.1,1,0v-9.8c-0.3,0.1-0.6,0.3-1,0.4V38.9z"/>
		<path class="st2" d="M40.9,38.7c0.3-0.1,0.5-0.4,0.8-0.6c0,0,0.1,0,0.1-0.1v-9.3c-0.3,0.1-0.6,0.1-0.9,0.2V38.7z"/>
		<path class="st2" d="M42.2,37.7c0.3-0.2,0.5-0.4,0.8-0.5v-8.7c-0.3,0-0.6,0.1-0.8,0.1V37.7z"/>
		<path class="st2" d="M43.4,37.1c0.2-0.1,0.5-0.1,0.7-0.1v-8.5c-0.2,0-0.5,0-0.7,0V37.1z"/>
		<path class="st2" d="M44.5,37c0.2,0,0.5,0.1,0.8,0.1v-8.5c-0.3,0-0.5,0-0.8-0.1V37z"/>
		<path class="st2" d="M45.5,37.2c0.3,0.1,0.6,0.3,1,0.5v-8.9c-0.3-0.1-0.6-0.1-1-0.2V37.2z"/>
		<path class="st2" d="M46.9,37.9c0.3,0.2,0.6,0.4,0.8,0.7v-9.5c-0.2-0.1-0.5-0.2-0.8-0.2V37.9z"/>
		<path class="st2" d="M48.1,38.9c0.3,0.3,0.6,0.5,0.8,0.6v-10c-0.3-0.1-0.6-0.2-0.8-0.3V38.9z"/>
		<path class="st2" d="M49.3,39.6c0.3,0.1,0.6,0,0.9-0.1v-9.4c-0.3-0.2-0.6-0.3-0.9-0.4V39.6z"/>
		<path class="st2" d="M50.5,39.2c0.4-0.2,0.7-0.5,1-0.8V31c-0.3-0.2-0.6-0.4-1-0.6V39.2z"/>
		<path class="st2" d="M51.8,38c0.7-1.3,1.9-4.7,0-6.7V38z"/>
		<path class="st2" d="M60.3,31v7.5c0.3,0.4,0.6,0.7,1,1v-9.1C60.9,30.6,60.5,30.8,60.3,31z"/>
		<path class="st2" d="M67.8,37.3c0.2,0,0.5,0.1,0.8,0.2v-8.6c-0.3,0-0.6,0-0.8,0V37.3z"/>
		<path class="st2" d="M69,37.6c0.3,0.1,0.6,0.3,0.9,0.6v-9.3c-0.3,0-0.6-0.1-0.9-0.1V37.6z"/>
		<path class="st2" d="M71.1,29.2c-0.3-0.1-0.6-0.2-0.9-0.2v9.5c0.3,0.3,0.6,0.6,0.9,0.8V29.2z"/>
		<path class="st2" d="M71.5,39.5c0.3,0.2,0.6,0.3,0.9,0.2v-10c-0.3-0.2-0.6-0.3-0.9-0.4V39.5z"/>
		<path class="st2" d="M61.6,39.7c0.3,0.1,0.6,0.1,0.9,0v-9.8c-0.3,0.1-0.6,0.2-0.9,0.3V39.7z"/>
		<path class="st2" d="M63.7,29.6c-0.3,0.1-0.6,0.1-0.8,0.2v9.7c0.3-0.2,0.6-0.4,0.8-0.6V29.6z"/>
		<path class="st2" d="M64.1,38.7c0.3-0.2,0.6-0.4,0.9-0.5v-8.9c-0.3,0.1-0.6,0.1-0.9,0.2V38.7z"/>
		<path class="st2" d="M65.3,38c0.3-0.2,0.6-0.3,0.9-0.4v-8.5c-0.3,0-0.6,0.1-0.9,0.2V38z"/>
		<path class="st2" d="M66.5,37.5c0.3-0.1,0.6-0.1,0.9-0.2v-8.4c-0.3,0-0.6,0.1-0.9,0.1V37.5z"/>
		<path class="st2" d="M59.9,31.4c-0.4,0.6-0.7,1.3-0.7,2.4c-0.1,1.8,0.2,3.2,0.7,4.3V31.4z"/>
		<path class="st2" d="M72.8,30v9.6c0.3-0.2,0.6-0.5,0.9-0.9v-7.9C73.4,30.4,73.1,30.2,72.8,30z"/>
		<path class="st2" d="M74,37.9c1-1.9,1.4-4.8,0-6.7V37.9z"/>
		<path class="st2" d="M58.8,28.5c10.3-2.3,14.1-2.2,16.7,0.9c2.6,3.2,1.4,7.3,0.5,10.3c-0.5,0.1-1.6,0.4-2.1,0.6
			c2.2-5.2,2.4-7.7-0.2-10.4c-2.6-2.7-9-2-14.7-0.1C58.8,29.4,58.7,28.9,58.8,28.5z"/>
		<path class="st2" d="M58.4,28.5c0,2.9,0.1,6.7,0.9,9.2c-0.5-0.3-0.9-0.4-1.3-0.5c-0.5-4.8-0.8-7.9-0.7-8.6
			C57.6,28.5,58,28.5,58.4,28.5z"/>
		<path class="st2" d="M54,28.6c-0.1,2.9-0.6,7-1.4,9.1c0.7-0.3,1.1-0.7,1.6-0.7c0.5-1.8,0.8-6.6,1-8.2C54.8,28.6,54.6,28.5,54,28.6
			z"/>
		<path class="st2" d="M53.4,28.7c-9.4-2.9-14.3-2.2-16.1-0.1c-1.8,2.1-2.9,4.7-1.1,10.1c0.8,0.1,1.6,0.2,2.2,0.7
			c-2.9-6-1.9-8.6,0.7-10.3c3.3-2.1,9.4-0.6,14.1,0.7C53.4,29.4,53.4,29,53.4,28.7z"/>
		<path class="st2" d="M55.5,21.9c-0.5,0.1-0.9,0.6-1.1,1c0,0.1,0,0.1,0.3,0.1c0.3,0,0.5,0,0.7,0c0.2,0,0.2-0.1,0.2-0.3
			c0-0.2,0-0.7,0-0.8C55.6,21.8,55.6,21.8,55.5,21.9z"/>
		<path class="st2" d="M56,21.8c0,0.5-0.1,1.2-0.1,1.4c0,0.2,0,0.2-0.3,0.2c-0.3,0-1.2,0.1-1.3,0.1c-0.2,0-0.1,0.1-0.2,0.2
			c0,0.1,0,0.4,0,0.6c0,0.2,0.1,0.1,0.4,0.1c1.1-0.2,2.5-0.1,3.6,0.1c0.2,0,0.3-0.1,0.3-0.3s0-0.4,0-0.5c0-0.2-0.1-0.2-0.3-0.2
			c-0.2,0-0.9-0.1-1.1-0.1c-0.2,0-0.3-0.1-0.3-0.3c0-0.2,0-0.8,0-1.1c0-0.3,0-0.3-0.2-0.3c-0.2,0-0.3,0-0.5,0
			C55.9,21.7,56,21.7,56,21.8z"/>
		<path class="st2" d="M57.1,22.2c0,0.1,0,0.5,0,0.6c0,0.1,0,0.2,0.2,0.2c0.2,0,0.6,0,0.8,0c0.2,0,0.3,0.1,0.1-0.2
			c-0.2-0.4-0.5-0.7-0.8-0.8C57.1,21.9,57.1,22,57.1,22.2z"/>
		<path class="st2" d="M54.4,24.8c-0.2,0-0.2,0-0.1,0.3c0.3,0.6,0.8,1.4,1.8,1.4c1.1,0,1.7-0.7,2.1-1.4c0.1-0.2,0-0.3-0.5-0.3
			C57.1,24.6,55.3,24.6,54.4,24.8z"/>
		<path class="st2" d="M55.9,21.3c-0.2-0.2-0.3-0.5-0.4-0.6c-0.1-0.2,0-0.3,0.1-0.6c0.2-0.3,0.3-0.6,0.4-0.8
			c0.1-0.1,0.1-0.2,0.2-0.2c0.1,0,0.2,0,0.3,0c0.1,0,0.1,0,0.3,0.2c0.1,0.2,0.4,0.8,0.5,1c0.1,0.2,0.1,0.2,0,0.4
			c-0.1,0.2-0.3,0.4-0.4,0.6C56.5,21.3,56.2,21.3,55.9,21.3z"/>
		<path class="st2" d="M55.1,18.2c-0.3,0.1-0.9,0.4-1.1,0.5c-0.2,0.1-0.3,0.1-0.6-0.1c-0.3-0.2-0.6-0.4-0.8-0.5
			c-0.2-0.1-0.3-0.2,0.1-0.4c0.4-0.2,0.6-0.4,0.9-0.5s0.4-0.2,0.7,0c0.3,0.1,0.6,0.3,0.9,0.4C55.1,17.7,55,18,55.1,18.2z"/>
		<path class="st2" d="M56.4,16.8c-0.3-0.6-0.7-1.4-0.8-1.7c-0.1-0.3-0.2-0.3,0.1-0.7c0.2-0.3,0.5-0.9,0.7-1.1
			c0.1-0.2,0.2-0.4,0.4,0c0.3,0.5,0.5,0.9,0.6,1.2c0.2,0.3,0.2,0.5,0.1,0.7c-0.3,0.5-0.7,1.3-0.8,1.6H56.4z"/>
		<path class="st2" d="M57.6,17.8c0,0.1,0,0.4-0.1,0.5c0.4,0.2,0.9,0.4,1.2,0.5c0.2,0.1,0.4,0.2,0.7,0c0.3-0.2,0.8-0.5,0.9-0.6
			c0.2-0.1,0.1-0.2-0.1-0.4c-0.2-0.2-0.5-0.4-0.8-0.6c-0.2-0.1-0.3-0.2-0.6,0C58.6,17.3,58,17.6,57.6,17.8z"/>
	</g>
	<g>
		<path d="M34.5,42.2c-0.3-0.2-0.5-0.4-0.7-0.5c-0.2-0.2-0.1-0.4,0.3-0.2c0.4,0.2,0.6,0.4,0.7,0.6C34.9,42.2,34.8,42.4,34.5,42.2z"
			/>
		<path d="M35.5,42.2c-0.3-0.2-0.4-0.4-0.6-0.7c-0.2-0.3,0-0.8,0.3-0.2c0.2,0.3,0.3,0.5,0.4,0.7C35.8,42.1,35.7,42.3,35.5,42.2z"/>
		<path d="M36.1,41.6c0.1,0.3,0.3,0.7,0.5,0.9c0.1,0.2,0.5,0.3,0.3-0.1c-0.1-0.4-0.2-0.6-0.3-0.9C36.4,41.2,35.9,41.1,36.1,41.6z"/>
		<path d="M37.3,41.9c0.1,0.3,0.3,0.7,0.4,0.9c0.1,0.2,0.3,0.1,0.2-0.2c0-0.3-0.1-0.4-0.1-0.7C37.7,41.6,37.2,41.5,37.3,41.9z"/>
		<path d="M38.4,42.4c0.1,0.3,0.1,0.5,0.2,0.7c0.1,0.3,0.2,0.2,0.2,0c0-0.2,0-0.5-0.1-0.8C38.7,42.1,38.3,42,38.4,42.4z"/>
		<path d="M42.4,44c-0.2-0.3-0.4-0.6-0.6-0.8s-0.6-0.1-0.3,0.3c0.3,0.4,0.6,0.6,0.7,0.7C42.3,44.3,42.6,44.3,42.4,44z"/>
		<path d="M42.6,43c-0.2-0.3-0.5-0.5-0.7-0.8c-0.2-0.2-0.1-0.8,0.2-0.3c0.3,0.5,0.5,0.7,0.6,0.9C42.9,43.1,42.8,43.3,42.6,43z"/>
		<path d="M42.5,41.2c0.2,0.3,0.4,0.6,0.5,0.8c0.1,0.2,0.3,0.1,0.2-0.2C43,41.6,43,41.3,42.8,41C42.6,40.6,42.2,40.8,42.5,41.2z"/>
		<path d="M43.6,41.1c-0.1-0.3-0.2-0.4-0.3-0.6c-0.1-0.3,0.3-0.7,0.4-0.1c0.1,0.3,0.1,0.5,0.2,0.7C43.8,41.2,43.7,41.4,43.6,41.1z"
			/>
		<path d="M44.5,40.9c-0.1-0.3-0.3-0.5-0.5-0.9c-0.1-0.3,0.2-0.6,0.4-0.1c0.2,0.5,0.3,0.7,0.3,0.9C44.9,41.1,44.7,41.2,44.5,40.9z"
			/>
		<path d="M45.5,40.9c-0.1-0.3-0.3-0.6-0.4-0.9c-0.1-0.3,0.3-0.5,0.4,0c0.2,0.5,0.2,0.6,0.3,0.9C45.8,41.1,45.6,41.2,45.5,40.9z"/>
		<path d="M46.2,40.4c-0.1-0.4,0.3-0.7,0.4-0.1c0.2,0.5,0.2,0.9,0.3,1.1c0.1,0.2-0.2,0.3-0.3-0.1C46.5,41,46.3,40.7,46.2,40.4z"/>
		<path d="M47.5,40.9c0,0.2,0.2,0.7,0.3,0.9c0.1,0.2,0.3,0.2,0.3-0.1C48,41.4,48,41.3,47.9,41S47.4,40.6,47.5,40.9z"/>
		<path d="M52.1,42.7c-0.1-0.3-0.1-0.6-0.2-0.9c-0.1-0.3,0.3-0.5,0.4-0.1c0.1,0.4,0.1,0.7,0.2,1C52.4,42.9,52.1,42.9,52.1,42.7z"/>
		<path d="M52.7,41.5c-0.1-0.4-0.2-0.6-0.3-0.9c-0.1-0.3,0.3-0.6,0.4-0.1c0.1,0.5,0.1,0.7,0.1,1C53,41.6,52.8,41.8,52.7,41.5z"/>
		<path d="M53.6,40.4c0-0.3-0.1-0.7-0.1-1c-0.1-0.3,0.4-0.5,0.4,0c0,0.4,0,0.8,0,0.9C53.8,40.5,53.6,40.6,53.6,40.4z"/>
		<path d="M54.6,39.8c0-0.4-0.1-0.7-0.1-0.9c0-0.2,0.4-0.5,0.5,0c0,0.4,0,0.7,0,0.9C54.9,40.1,54.6,40.2,54.6,39.8z"/>
		<path d="M55.5,39.9c0-0.3-0.1-0.8-0.1-1c-0.1-0.4,0.5-0.5,0.5,0.1c0,0.5,0,0.7,0,1C55.7,40.2,55.5,40.3,55.5,39.9z"/>
		<path d="M56.4,39.9c0-0.3-0.1-0.8,0-1c0-0.3,0.5-0.3,0.5,0.1c-0.1,0.4-0.2,0.7-0.2,1C56.6,40.2,56.4,40.2,56.4,39.9z"/>
		<path d="M57.4,40c0-0.4,0-0.5,0.1-0.8c0-0.3,0.3-0.4,0.3,0c0,0.5,0,0.6,0,0.8C57.7,40.2,57.4,40.3,57.4,40z"/>
		<path d="M58.1,40.9c0.1-0.3,0.1-0.8,0.2-1.1c0.1-0.3,0.5-0.3,0.4,0.1c-0.1,0.4-0.2,0.9-0.3,1.1C58.4,41.2,58,41.4,58.1,40.9z"/>
		<path d="M58.8,41.4c0.1-0.2,0.1-0.4,0.2-0.5c0-0.1,0.3-0.2,0.3,0c0,0.2-0.2,0.5-0.2,0.6C59,41.7,58.8,41.7,58.8,41.4z"/>
		<path d="M62.9,43.2c0-0.3,0-0.4-0.1-0.7c0-0.3,0.5-0.6,0.4-0.1c0,0.5-0.1,0.6-0.1,0.8C63.1,43.4,62.9,43.4,62.9,43.2z"/>
		<path d="M63.9,42.3c0-0.4,0.1-0.7,0.1-1c0.1-0.3,0.6-0.3,0.5,0c-0.1,0.4-0.3,0.8-0.3,1C64.2,42.5,63.9,42.6,63.9,42.3z"/>
		<path d="M65,41.8c0-0.3,0.1-0.5,0.1-0.9s0.7-0.7,0.6-0.3c-0.1,0.5-0.3,0.9-0.4,1.2C65.2,42,65,42,65,41.8z"/>
		<path d="M66,41.4c0.1-0.3,0.1-0.7,0.2-1c0.1-0.3,0.7-0.5,0.5,0.1c-0.2,0.5-0.3,0.8-0.4,1C66.1,41.6,65.9,41.7,66,41.4z"/>
		<path d="M67.1,41c0.1-0.4,0.1-0.6,0.2-0.9c0.1-0.2,0.6-0.3,0.5,0.1c-0.2,0.4-0.2,0.7-0.3,0.9C67.3,41.4,67.1,41.4,67.1,41z"/>
		<path d="M68,41.6c0.1-0.3,0.2-0.8,0.3-1.1c0.1-0.3,0.6-0.5,0.4,0.2c-0.2,0.6-0.3,0.8-0.4,1C68.2,41.9,67.9,41.9,68,41.6z"/>
		<path d="M68.6,42.3c0.1-0.3,0.3-0.7,0.4-1c0.1-0.3,0.5-0.3,0.3,0.1c-0.2,0.4-0.4,0.8-0.5,1C68.7,42.6,68.5,42.6,68.6,42.3z"/>
		<path d="M68.9,43.2c0.2-0.3,0.3-0.5,0.5-0.7c0.1-0.2,0.6-0.1,0.3,0.2c-0.2,0.3-0.4,0.5-0.6,0.7C69,43.6,68.7,43.4,68.9,43.2z"/>
		<path d="M73.4,43.4c0-0.3,0.1-0.5,0.3-0.7c0.2-0.2,0.5-0.1,0.3,0.1s-0.3,0.5-0.3,0.7C73.7,43.6,73.4,43.7,73.4,43.4z"/>
		<path d="M74.4,43.1c0.1-0.4,0.3-0.9,0.4-1.1c0.2-0.2,0.6-0.1,0.4,0.2c-0.2,0.3-0.5,0.8-0.6,1C74.5,43.3,74.3,43.4,74.4,43.1z"/>
		<path d="M75.5,42.7c0.2-0.4,0.3-0.8,0.5-1.1c0.2-0.2,0.7-0.2,0.4,0.2c-0.3,0.3-0.5,0.8-0.6,1C75.7,43.1,75.4,43,75.5,42.7z"/>
		<path d="M76.6,42.6c0.2-0.3,0.3-0.6,0.5-0.8c0.1-0.3,0.8-0.2,0.5,0.2c-0.3,0.5-0.5,0.7-0.7,0.8C76.7,42.9,76.4,42.9,76.6,42.6z"/>
		<path d="M77.6,42.4c0.2-0.2,0.3-0.4,0.6-0.6c0.3-0.2,0.6-0.1,0.4,0.2c-0.2,0.3-0.6,0.5-0.8,0.7C77.6,42.8,77.4,42.6,77.6,42.4z"/>
		<path d="M72.3,50c0.9-1.5,1.9-3,3.2-3.7c0.6-0.3,0.7-0.7-0.1-0.3c-0.8,0.4-1.3,0.2-0.9-0.4c0.4-0.6,0.6-1.2,0.7-1.4
			c0.2-0.2,0-0.6-0.3-0.1c-0.5,0.8-1.2,1.5-1.5,1.8c-0.3,0.3-0.6,0.4-0.7,0.1c-0.1-0.3-0.2-0.5-0.3-0.7s-0.3-0.2-0.3,0.3
			c0.1,1.8,0.1,3.4-0.2,4.4C71.8,50.4,72.2,50.2,72.3,50z"/>
		<path d="M65.4,48.5c0.6-1.8,1.2-2.8,1.9-3.6c0.3-0.3,0.7-0.7,0.8-0.8c0.1-0.2,0.1-0.3-0.2-0.2c-0.3,0.1-0.5,0.3-0.9,0.5
			c-0.3,0.1-0.5,0.1-0.4-0.5c0.1-0.6,0.4-1.3,0.4-1.6c0-0.3,0-0.3-0.2-0.1c-0.3,0.3-0.7,1.6-1,2c-0.3,0.3-0.5,0.1-0.6-0.2
			c-0.1-0.3-0.3-0.7-0.4-0.9c-0.2-0.2-0.4-0.1-0.2,0.5c0.4,1.2,0.5,2.9,0.5,3.5c0,0.6-0.1,1.1,0,1.4C65.1,48.7,65.3,48.8,65.4,48.5z
			"/>
		<path d="M56.1,48c0.4-2.6,0.9-3.7,2-5.7c0.4-0.7,0-0.7-0.3-0.2c-0.6,0.8-0.8,0.9-1.1,0.4c-0.3-0.5-0.4-1-0.4-1.5
			c0-0.5-0.4-0.6-0.4,0c0,0.6-0.3,1.2-0.5,1.5c-0.2,0.3-0.5,0.2-0.8,0.1c-0.3-0.2-0.5-0.3-0.8-0.5c-0.3-0.2-0.6-0.1-0.2,0.4
			c1.1,1.6,2.2,3,2.2,5.6C55.8,48.4,56,48.6,56.1,48z"/>
		<path d="M46.9,48.5c-0.3-2.1-0.4-3.8,0.1-4.9c0.2-0.4,0-0.8-0.3-0.1c-0.2,0.4-0.5,0.6-0.8,0.2c-0.3-0.4-0.8-1.4-1-1.9
			c-0.2-0.5-0.4-0.3-0.3,0.1c0.3,1.2,0.4,1.9,0.4,2.1c-0.1,0.3-0.2,0.3-0.4,0.2c-0.2-0.1-0.5-0.2-0.7-0.4c-0.2-0.1-0.4,0-0.1,0.3
			c1.5,1.2,2.5,2.6,2.8,4.2C46.8,48.8,47,48.9,46.9,48.5z"/>
		<path d="M39.8,49.1c-0.5-1.3-0.7-2.4-0.6-3c0.1-0.7,0.3-1.1,0.3-1.5c0-0.4-0.2-0.4-0.3,0c-0.1,0.2-0.2,0.6-0.3,0.7
			c-0.1,0.1-0.4,0.2-0.7-0.2c-0.3-0.4-1.1-1.2-1.3-1.4c-0.3-0.2-0.5-0.2-0.3,0.2c0.4,0.5,0.8,1.2,0.8,1.6c0,0.3-0.1,0.3-0.3,0.3
			c-0.4,0-0.7-0.3-1-0.4c-0.4-0.1-0.5,0.1-0.2,0.3c1.5,1.1,2.9,2.2,3.5,3.3C39.7,49.3,40,49.5,39.8,49.1z"/>
	</g>
</g>
</svg>
