<?xml version="1.0" encoding="utf-8"?>
<!-- Generator: Adobe Illustrator 22.1.0, SVG Export Plug-In . SVG Version: 6.00 Build 0)  -->
<svg version="1.1" id="layer_1" xmlns="http://www.w3.org/2000/svg" xmlns:xlink="http://www.w3.org/1999/xlink" x="0px" y="0px"
	 viewBox="0 0 216 144" style="enable-background:new 0 0 216 144;" xml:space="preserve">
<style type="text/css">
	.st0{fill:#FCDE4B;}
	.st1{fill:#1C5B41;stroke:#000000;stroke-width:0.25;}
	.st2{fill:#DC7D47;stroke:#000000;stroke-width:0.25;}
	.st3{fill:#893B3E;stroke:#000000;stroke-width:0.25;}
	.st4{fill:#FCDE4B;stroke:#000000;stroke-width:0.125;}
	.st5{fill:none;stroke:#000000;stroke-width:0.125;}
</style>
<g>
	<rect y="0.1" class="st0" width="216" height="144"/>
	<path class="st0" d="M108,72.1"/>
</g>
<rect x="8.6" y="11.5" class="st1" width="29.2" height="121.1"/>
<rect x="37.9" y="11.5" class="st2" width="29.2" height="121.1"/>
<rect x="75.8" y="11.5" class="st3" width="131.6" height="121.1"/>
<g>
	<path class="st4" d="M146.6,65.1c3.5-0.9,9.4,1.1,14-0.5c4.1-1.5,8.6,0.9,12.2-0.9c1.7-0.8,5.4-1,5.6-6.2c0.1-3.8-2.7-6.4-8.6-4.6
		c-6,1.7-11.7,1.7-15.1-1c-3.5-2.7-3.9,1.7-3.5,3.3c-3.1-3.2-2.2-6.2-1-8c-6.8-10,1.2-18.2,8.4-18.2c7,0,10.2,3.1,15.7,8.5
		c1.6,1.6,5.1,6.6,6.2,5.7c-1.2-3.4,2.6-5.4,3.5-1.4c0.7,3.1-1.2,5.7-3.9,5c-4.2-1.1-3.7-3.9-8.4-7.9c1,1.1-0.3,3.8,2.4,5.1
		c-2.3,0.4-4.8-1.8-5.6-4.8c-0.3,3.3-2,4.8-4.1,4.4c2.9-4.5,1.2-8-1.9-9.3c2.6,4.6-0.2,9.3-3.8,9.3c2.9-4,1.6-7.9-1.1-9.6
		c-0.9-0.6-2.2-0.7-1.6,0.2c0.6,0.9,0.1,3.7-1.2,4.2c0.1-3.2-3.4-2.4-4.1,0c-0.6,1.9-0.5,3.7,1.5,5.3c1.4-4.1,5.4-3.2,5.4-1.2
		c-3.4,0.8-2.8,4.5-1.4,6.2c0.1-1.7,1.6-3.3,2.6-2.7c-0.7,4.5,4.2,4.4,7.7,3.8c3.5-0.5,7.9-2.4,11.8,0.2c3.9,2.6,5.2,11.3-0.3,15.5
		c5.5,8.6,3.1,17.6,0.8,26.5c-2.3,8.7,0.1,14.3,1.6,14.3c1,0,1.5,0.4,1.2,1.8c-0.7,3.1-3.5,2.9-3.7,6.6s3.1,5.5,1.7,7.3
		c-2.4,0-2.6-0.5-3.3-1.7c-0.5,1.1-0.6,1.7-1.7,1.7c-1.1,0-1.7-0.5-2.1-1.7c-0.6,1.3-1.1,1.7-2,1.7c-1,0-1.3-0.6-1.6-1.7
		c-0.6,1.1-1.3,1.7-2.5,1.7c0-4.6,3.9-5.5,5.3-5.8c1.4-0.3,1.7-1.4,1.7-2.5c0-1.1-0.1-3.5-0.2-5.8c-0.2-3.2-3.1-5.2-6-7.6
		c-0.7,1.8-2.3,2.8-1.1,5.2c0.9,1.8,2.7,1.2,2.9,0.3c1.2,4.2-4.4,5.5-2.6,11.1c0.6,2,0.5,3-0.3,5.1c-1.8,0-2.4-0.2-3.2-1.5
		c-0.5,1.2-0.6,1.7-2,1.7c-1.3,0-1.4-1.1-1.6-1.9c-0.5,1-0.5,1.7-1.8,1.7c-1.2,0-1.3-0.5-1.7-1.7c-0.8,1.4-1.7,1.7-2.7,1.7
		c0-3.3,1.9-5.2,4-4.9c2.1,0.3,3.1-0.5,3.5-2.1c0.4-1.7-0.3-3.2,0-6.2c0.7-6-6.6-10.5-5.2-17.8c-7.5,0-13,6.7-17.6,8
		c-0.9,2.2-1.8,4.1-2.3,5.2c-1.6,3.8,1.8,4.7,3.6,4.1c-0.5,3-2.3,4.8-4,5.2c-1.7,0.4-1.7,1.6-1.1,3.1c0.6,1.6,0.4,2.6-1,5.3
		c-2.8,0-2.8-0.8-3.1-1.4c-0.5,0.5-0.7,1.4-2,1.4c-1.6,0-1.6-0.3-2.2-1.4c-0.6,1-0.7,1.4-1.9,1.4c-1.2,0-1.3-0.3-1.7-1.4
		c-0.5,0.9-0.9,1.4-2.4,1.4c1.4-11.2,6.3-1.5,9.2-8.5c1.2-3-0.4-7.1-1.5-12c-2-1.1-3.8-2.6-5.1-4c-4.9,9-7.4,1.4-9-0.4
		c-1.7-2-2.4,0.1-2.1,1.4c-1-1.5-1.5-2.5-1.1-5.7c0.4-3.2-0.9-3.8-3.5-4.3c-2.6-0.4-2.7-5-2.8-9.2c-0.1-4.2,4.8-3,5.2-2.4
		c2.5,3.3,5.8,7.6,8.1,10.9c-1.9-8.7,1.8-18.2,7.9-22.6c2.1-1.5,2.5-3.3,1.4-4.2c-0.7-0.7-2.1,1.3-1.8,2.5c-2-1.4-1.3-3.3-2.2-4.2
		c0.2,0.9-0.5,2.4-0.2,3.2c-0.3-1.1-1.3-0.7-1.7-3.1c-1.1,1.2-2.3,1.4-3.4,1.2c1.4-0.8,0.8-2.1,1.3-2.5c-1.7,1.4-3.5,0.5-4.4,1.2
		c1.3-1.2,0.6-4.8,2.2-6.6c-0.6-0.5-1.1-1.1-1.2-1.8c-0.4-1.5,0-2.6,2.2-0.8c2.4,1.9,5.8,3.4,9.3,3.6c-1.2-2.5-2.7-3.5-3-6.2
		c-0.5,1.3-0.5,2.2-0.1,3.4c-0.4-1.2-1.7-0.9-2.6-3.2c0.3,1,0,1.9,0.4,2.7c-2.7-1.3-2-2.7-4.1-5c-2.6-2.8-1.5-3.9-2.2-5.3
		c-0.6-1.3-0.7-4.6,1.8-5.2c2-0.5,3.1,3,2,4.4c0.9-1,2.7-0.2,4-1.2c1.9-1.4,3.2,1,5.2-2.6c0.7-1.3-0.4-2.2-0.1-3.1
		c0.2,1.2,3.8-1.2,5.3,1.5c1.4,2.5,2.3-1.3,1.2-3.4c1,1.4,3.1-0.1,5,4.4c-0.1-1.2,1.3-2.3,0.7-4.1c2,0.7,3.4,1.9,4,3
		c0.8,1.7,3.1,1.1,4.1-2.1c0.3,3-0.5,5.2-2.4,7.8c1.9,2.4,1.7,6.3,1.3,8.6c0,0.1,0-0.1,0,0c0.4,1.9-0.4,5.5-0.1,6.8
		c0-0.4-0.3-0.8-0.7-1.2c-0.3,3.3,1.4,4.5,0.8,6.9c0.1-0.6-0.6-1.4-1.5-2.3c-0.3,2.4,0.8,5.1,1.6,5.3c-0.2,0.1-0.4,0.2-0.6,0.2
		C146.3,64.4,146.4,64.7,146.6,65.1z"/>
	<path class="st4" d="M108.1,75.4c0-29.3,1-50.8,3.5-53.2c-10.2,7.1-9,24.1-9,53.2l1.3,1.5c0,0.9,0,13.2,0,13.8
		c-0.8,0.5-1.6-1.8-2.5,0.2c-0.6,1.4,1.2,2.7,2.5,1.7c0,1.3-0.8,2.7-1.5,3.1c1.6,1.6,1.8,5.4-0.1,6.3c0.4-0.7-1.1-2.2-1.8-0.7
		c-0.7,1.5,1,3.5,2.7,3.4c0,0.7-0.9,1.6-1.7,2.1c0.4,0.3,1.6,0.7,2.4,0.6c0.1,1.3,0.2,2.4,1.1,3.2c0.9-0.9,1-1.9,1.1-3.2
		c0.8,0.1,1.9-0.3,2.4-0.6c-0.9-0.5-1.7-1.4-1.7-2.1c1.7,0.1,3.4-2,2.7-3.4c-0.7-1.5-2.2,0-1.8,0.7c-1.9-0.9-1.6-4.7-0.1-6.3
		c-0.7-0.4-1.4-1.8-1.5-3.1c0.8-0.5,1.6,1.8,2.5-0.2c0.6-1.4-1.2-2.7-2.5-1.6c0-0.6,0-12.9,0-13.8L108.1,75.4z"/>
	<path class="st4" d="M105.3,78.3c7.3,0,6.6-6.5,4.1-7.4c-2.5-1-2.7,3-1.4,3.1c-0.3,1.3-1.8,1.4-2.7,1.4c-0.9,0-2.4-0.1-2.7-1.4
		c1.2-0.1,1.1-4-1.4-3.1C98.7,71.9,98.1,78.3,105.3,78.3z"/>
	<g>
		<path class="st4" d="M107.4,80.5c0.3-0.8,1.6-1,1.9-1.9c0.5,1.7-0.4,1.8-0.7,2.7c-0.1,0.3-1.1,1.4-1.8,0.4
			C106.7,81.6,107.2,81.1,107.4,80.5z"/>
		<path class="st4" d="M105.2,78.8c1.7,0.8,2.5,1,2.3,2.4c-0.3,1.4-1.7,0.8-2.6,0.4c-0.9-0.4-2.4-0.6-2.3-2.3
			C102.6,78.1,104,78.2,105.2,78.8z"/>
		<path class="st4" d="M107.4,83.1c0.3-0.8,1.6-1,1.9-1.9c0.5,1.7-0.4,1.8-0.7,2.7c-0.1,0.3-1.1,1.4-1.8,0.4
			C106.7,84.2,107.2,83.7,107.4,83.1z"/>
		<path class="st4" d="M105.2,81.3c1.7,0.8,2.5,1,2.3,2.4c-0.3,1.4-1.7,0.8-2.6,0.4c-0.9-0.4-3-0.3-2.8-2.7
			C102.1,79.7,104,80.8,105.2,81.3z"/>
		<path class="st4" d="M107.4,85.7c0.3-0.8,1.6-1,1.9-1.9c0.5,1.7-0.4,1.8-0.7,2.7c-0.1,0.3-1.1,1.4-1.8,0.4
			C106.7,86.8,107.2,86.3,107.4,85.7z"/>
		<path class="st4" d="M105.2,83.9c1.7,0.8,2.5,1,2.3,2.4c-0.3,1.4-1.7,0.8-2.6,0.4c-0.9-0.4-2.3-0.1-2.2-2.3
			C102.7,83.3,104,83.4,105.2,83.9z"/>
		<path class="st4" d="M107.4,88c0.3-0.8,1.6-1,1.9-1.9c0.5,1.7-0.4,1.8-0.7,2.7c-0.1,0.3-1.1,1.4-1.8,0.4
			C106.7,89.1,107.2,88.6,107.4,88z"/>
		<path class="st4" d="M105.2,86.5c1.7,0.8,2.5,1,2.3,2.4c-0.3,1.4-1.7,0.8-2.6,0.4c-0.9-0.4-1.8-0.6-1.8-2.1
			C103.1,86,104,86,105.2,86.5z"/>
	</g>
	<path class="st4" d="M78.9,20.6c0.2-1.4,0.6-2.9-0.5-3.4c-0.9-0.4-1.2-1.5-0.4-2.6c0.8-1.1,1.6-0.7,1.9,0.5
		c0.4,1.4,1.5,1.1,2.5,0.6c5.2-2.2,8.8,9,8,16.8C90.5,27.5,76.8,32.7,78.9,20.6z"/>
	<path class="st4" d="M201.8,20.6c-0.2-1.4-0.6-2.9,0.5-3.4c0.9-0.4,1.2-1.5,0.4-2.6c-0.8-1.1-1.6-0.7-1.9,0.5
		c-0.4,1.4-1.5,1.1-2.5,0.6c-5.2-2.2-8.8,9-8,16.8C190.2,27.5,203.9,32.7,201.8,20.6z"/>
	<path class="st4" d="M78.9,123.6c0.2,1.4,0.6,2.9-0.5,3.4c-0.9,0.4-1.2,1.5-0.4,2.6c0.8,1.1,1.6,0.7,1.9-0.5
		c0.4-1.4,1.5-1.1,2.5-0.6c5.2,2.2,8.8-9,8-16.8C90.5,116.7,76.8,111.6,78.9,123.6z"/>
	<path class="st4" d="M201.8,123.6c-0.2,1.4-0.6,2.9,0.5,3.4c0.9,0.4,1.2,1.5,0.4,2.6c-0.8,1.1-1.6,0.7-1.9-0.5
		c-0.4-1.4-1.5-1.1-2.5-0.6c-5.2,2.2-8.8-9-8-16.8C190.2,116.7,203.9,111.6,201.8,123.6z"/>
</g>
<g>
	<path class="st5" d="M116.1,52.8c1.6,1.3,4.4,2.1,7.8,2.4c-0.5,0.3-0.5,1.5-1.1,2c2-0.8,3.1,0.7,4.7,0.2c-0.3-1.5-0.7-2.7-1.1-3.6"
		/>
	<path class="st5" d="M116.9,87.9c0.8,3.5,2.4,6.9,5.2,9.7"/>
	<path class="st5" d="M127.1,89.1c-1.3,4.5-0.7,8.7,0.2,12.5"/>
	<path class="st5" d="M167.3,100.4c-1.5-1.3-2.9-2.6-3.9-4.4c-2-3.5-4.2-4.9-8.1-4.9"/>
	<path class="st5" d="M137.7,99.1c2-4.9,4.2-11.5,3.1-15.6"/>
	<path class="st5" d="M145.2,36.5c-1.4,2.2-4.7,3.3-7.2,2.6c1.2,0.5,1.2,2.3,2.5,2.8c-1.6,0.6-5.1,1.2-6.8-1.6
		c1.2,1.5,0.6,2.2,1.9,3.1c-2.4,0.2-3.9-0.7-4.9-1.9c-1-1.2-3.5-2-3.8,0.6c-0.2,1.3,0.6,2.1,1.3,2.1c0.7,0,1.1-0.7,1.1-1.3
		c0-0.7-0.1-1.3-0.9-1.4"/>
	<path class="st5" d="M127.9,59.6c-0.1,1.7,0.9,3.4,0.5,4.3c0.9-0.4,1.5-2.3,1.6-3.4c0.5,1.8,0.7,3,0.3,3.7c1.1-0.5,1.9-2.4,2.2-3.4
		c0.8,1.2,1.9,3,1.9,4.5c0.7-0.9,0.4-3.5,0.7-4.1c0.5,1.7,3.1,1.5,3.2,4.5c0.5-1.3,0.6-3.4,0.4-4.9"/>
	<path class="st5" d="M144.4,44.5c0.9,2.1,1.9,2.1,2.3,3.5"/>
	<path class="st5" d="M130,49.2c-0.2,3.2,2.2,2.8,2,4.1c0-1.4,1.2-2.1,1.2-3.2c0.1,1.7,1.7,1.3,2.1,3.3c-0.3-1.5,0.6-2.4-0.4-4.8
		c0.1,0.9,1.3,1.9,1.4,3.2c0-0.9,1.1-2.1,0.5-3.8c0,1.4,1.7,1.4,1.4,3.5c0.2-0.9,1.1-1.8,0.8-4.7c0,2.4,2.8,2.5,2.7,4.7
		c0.6-1.6,0.6-4.1-0.1-6.4c1,1,1.3,2.5,1.6,4.8c0.2,1.6,1.7,2.9,2.6,4"/>
	<path class="st5" d="M146.6,65.1c0.5,0.9,1.2,1.5,2.2,2.1c-0.9,0.5-3,1.1-4,0.1c0.7,1.2-0.3,3.2,0.3,4.4c-0.4-0.7-3.7-0.7-4.2-2.4
		c-0.6,2.5-2.4,2.9-2.7,4c0.6-2-1.8-5.8-1.3-7.5c-1.3,0.1-0.7,4.3-2.2,5.6c0.5-1.1-1.4-2.6-1.2-4c-0.3,2.1-1,4-2.4,5
		c0.8-2.4-0.8-3.3-0.3-4.5c-0.5,5.7-2.5,4-2.9,5.7c0.5-2.9-0.9-4.1-0.3-5.2c-0.4,0.7-2.1,1.8-3.2,1.7c1.7-0.9,1.1-4.1,2.2-4.8"/>
	<path class="st5" d="M146.2,64c-2.4,0.6-4.6-1.9-5.4-4c0.1,0.8-0.1,2.4-0.3,2.8c-0.2-1.4-2.8-1.8-3.3-4.5c-0.1,1-0.6,1.9-0.8,2.2
		c-0.1-2.1-1.2-3.3-2.2-4.3c0.2,1-0.8,2.3-1,3.1c-0.1-1.1-1.9-1.9-2-3.9"/>
	<path class="st5" d="M145.1,58.5c-1.5-1.4-3.6-3.1-3.6-5.1c0.1,0.9-0.9,2.5-0.9,3.4c0-0.9-2-1.9-2.1-3.4c0.9,2.7-0.4,3-0.5,4.3
		c0.1-1-1.2-2.7-2-3.2"/>
</g>
</svg>
