<?xml version="1.0" encoding="utf-8"?>
<!-- Generator: Adobe Illustrator 22.1.0, SVG Export Plug-In . SVG Version: 6.00 Build 0)  -->
<svg version="1.1" id="layer_1" xmlns="http://www.w3.org/2000/svg" xmlns:xlink="http://www.w3.org/1999/xlink" x="0px" y="0px"
	 viewBox="0 0 216 144" style="enable-background:new 0 0 216 144;" xml:space="preserve">
<style type="text/css">
	.st0{fill:#D14A48;}
	.st1{fill:#5785A1;}
	.st2{fill:#FBDF64;}
	.st3{fill:#FBDF64;stroke:#000000;stroke-width:0.125;}
	.st4{fill:#E9A84D;stroke:#000000;stroke-width:0.125;}
	.st5{fill:none;stroke:#000000;stroke-width:0.125;stroke-linecap:round;}
	.st6{fill:none;stroke:#000000;stroke-width:0.125;}
	.st7{fill:#D14A48;stroke:#000000;stroke-width:0.125;}
	.st8{fill:#5785A1;stroke:#000000;stroke-width:0.125;}
	.st9{fill:#FFFFFF;}
	.st10{fill:#46926D;stroke:#000000;stroke-width:0.125;}
	.st11{fill:#FBDF64;stroke:#000000;stroke-width:0.125;stroke-linecap:round;}
</style>
<rect x="155.5" y="0.5" class="st0" width="60.5" height="144"/>
<rect y="0.5" class="st1" width="59.5" height="144"/>
<rect x="59.5" y="0.5" class="st2" width="96" height="144"/>
<g>
	<g>
		<path class="st3" d="M99.2,33.7c0.7,0,1.4,0,1.7-0.5c0.5,0.7,0.6,1.4,0,2.2c-0.3-0.5-1.1-0.5-1.7-0.5l0,3.7c0,0.5,0,1.1,0.4,1.5
			l-1,1.4l-1-1.4c0.4-0.4,0.4-1,0.4-1.5V35c-0.7,0-1.4,0-1.7,0.5c-0.5-0.7-0.6-1.4,0-2.2c0.3,0.5,1,0.5,1.7,0.5c0-0.7,0-1.4-0.5-1.7
			c0.8-0.6,1.6-0.5,2.2,0C99.2,32.3,99.2,33.1,99.2,33.7z"/>
	</g>
	<g>
		<path class="st4" d="M107.5,109.9c1.5-1.1,4-2.6,5.5-3.4c-1.4-2.5-3.7-7.5-3.8-11.2c1.1,2.9,3.5,6.9,5.7,10.1
			c1-0.6,3.6-1.9,5.2-2.8c-2.9-3.1-7.6-8.9-9.1-13.4c-1.3,0.7-2.8,1.4-3.5,2.4c-0.7-0.9-2.2-1.7-3.5-2.4c-1.5,4.5-6.1,10.3-9.1,13.4
			c1.6,0.9,4.2,2.2,5.2,2.8c2.2-3.2,4.6-7.2,5.7-10.1c-0.1,3.7-2.4,8.6-3.8,11.2C103.5,107.4,106,108.8,107.5,109.9z"/>
		<path class="st4" d="M90.2,54.9c0,0,0,19.7,0,25.1c0,5.4-0.7,7-3,9.4c-0.2,4-1.4,5.7-4.2,6.7c-0.6,2.2-1.8,3.8-4.4,4.9
			c0,0,0-39.3,0-50.4c0-4.5,0.9-5.6,2.1-7c1.9-2.3,2.2-2,3.2-1.9c2,0.2,4.6,1.8,5.4,2.4c1.5,1.2,1.7,1.3,0.9,3.1
			c-0.7,1.6-0.9,2.4-0.5,3.7c3.6-0.6,4,2.4,7,3.1c4.4,1,6.7-1.3,7.2-5.2h7c0.5,3.9,2.9,6.2,7.2,5.2c3-0.7,3.4-3.7,7-3.1
			c0.4-1.2,0.2-2.1-0.5-3.7c-0.7-1.8-0.6-1.9,0.9-3.1c0.8-0.6,3.3-2.2,5.4-2.4c1-0.1,1.3-0.3,3.2,1.9c1.2,1.4,2.1,2.5,2.1,7
			c0,11.1,0,50.4,0,50.4c-2.5-1-3.8-2.7-4.4-4.9c-2.8-1.1-3.9-2.7-4.2-6.7c-2.4-2.3-3-4-3-9.4c0-5.4,0-25.1,0-25.1H90.2z"/>
		<path class="st4" d="M113.4,53.3c-0.8-0.2-1.8-0.3-2.5-0.8c0.2,0.4,0.4,0.7,0.6,1c-1.2,0-1.9-0.4-2.4-1.2
			c-0.4,0.4-1.1,1.4-1.6,2.1c-0.6-0.7-1.3-1.5-1.7-2c-0.3,1.1-1.8,1.1-2.6,1.1c0.1-0.1,0.2-0.3,0.2-0.4c-0.6,0.6-1.9,0.8-2.7,0.9
			c1.4-1.9,2.7-6,2.9-9.9c0.1-2.7-0.5-3.6-1.3-4.4c-0.4-0.4-0.7-2.8-0.6-2.9c2.3-2.6,5.7-1.8,6.6-1.5c0.9,0.3,2.1,1.3,3.8,0.8
			c-0.1,0.4-0.4,0.8-0.8,1c0.9,0.5,0.7,1.1,1.5,1.6c-0.2,0.2-0.7,0.3-1,0.3c0.7,0.4,0.4,1.4,1.2,1.9c-0.3,0.1-0.6,0.3-1,0
			c0.7,0.8,0.4,3.4,0.7,4.1c-0.2,0-0.7-0.4-0.7-1C112.1,46.6,111.9,50.7,113.4,53.3z"/>
	</g>
	<g>
		<path class="st5" d="M103.5,36.9c0.5,0.1,0.7,0.4,1.4,0.4c1.1,0,1.4-0.4,1.9-0.4c0.4,0,1,0.1,1.4,0.4"/>
		<g>
			<path class="st6" d="M104.9,45.2c0,2.3-0.2,5.8-1.4,8"/>
			<path class="st6" d="M106.6,45.4c-0.2,2.2-0.3,5.5-0.8,7.1"/>
			<path class="st6" d="M108.1,45.5c0.1,2,0,5.3,1,6.9"/>
			<path class="st6" d="M110,46.2c0.1,2,0.2,4.8,0.9,6.3"/>
		</g>
		<g>
			<path class="st6" d="M87.2,89.3c0-0.5,0-1.1,0-1.6c0-5.2,0-31.7,0-31.7"/>
			<path class="st6" d="M83,96.1c0.6-2.2,0.6-4.9,0.6-8.2c0-5.6,0-32.5,0-32.5"/>
			<path class="st6" d="M90.3,44.8c-3.3,2.1-5,6.1-2.9,11.8c0.3-1.1,1.5-3.3,2.7-4.8"/>
			<path class="st6" d="M91.9,54.8c0.1-1.3,2.1-2,2.3-2.5"/>
			<path class="st6" d="M94,52.5c0.3,0.7,0.9,1.6,1.6,2.3c0.1-0.4,0.4-0.8,0.7-1.2"/>
			<path class="st6" d="M87,42.5c-1.4,1.7-1.2,5.3,0,6.2"/>
			<path class="st6" d="M86.4,43.5c-2.5,2.5-3.9,5.2,0,8"/>
			<path class="st6" d="M82.9,41.6c-0.7,1.2-0.2,4.6,1.2,5.4"/>
			<path class="st6" d="M79.7,44.9c-0.2,1.6,0.2,2.8,1.1,3.9c0.5-0.9,1.3-2.2,2.4-2.7"/>
			<path class="st6" d="M84.1,48.5c-2.3,2.7-2.2,4.5,0,7.6c0.4-2,1-4,2.2-4.8"/>
			<path class="st6" d="M81.3,48c-0.3,1.3,0.3,2.7,1.1,3.4"/>
			<path class="st6" d="M80.6,48.5c-1.7,2-3.1,3.8-0.4,7.9c1.2-1.5,0.9-3.4,2.1-4.3"/>
			<path class="st6" d="M89.7,50.7c0.3,0.9,0.9,3,2.2,4.3"/>
		</g>
		<g>
			<path class="st6" d="M127.8,89.3c0-0.5,0-1.1,0-1.6c0-5.2,0-31.7,0-31.7"/>
			<path class="st6" d="M132,96.1c-0.6-2.2-0.6-4.9-0.6-8.2c0-5.6,0-32.5,0-32.5"/>
			<path class="st6" d="M124.7,44.8c3.3,2.1,5,6.1,2.9,11.8c-0.3-1.1-1.5-3.3-2.7-4.8"/>
			<path class="st6" d="M123.1,54.8c-0.1-1.3-2.1-2-2.3-2.5"/>
			<path class="st6" d="M121,52.5c-0.3,0.7-0.9,1.6-1.6,2.3c-0.1-0.4-0.4-0.8-0.7-1.2"/>
			<path class="st6" d="M128,42.5c1.4,1.7,1.2,5.3,0,6.2"/>
			<path class="st6" d="M128.6,43.5c2.5,2.5,3.9,5.2,0,8"/>
			<path class="st6" d="M132.1,41.6c0.7,1.2,0.2,4.6-1.2,5.4"/>
			<path class="st6" d="M135.3,44.9c0.2,1.6-0.2,2.8-1.1,3.9c-0.5-0.9-1.3-2.2-2.4-2.7"/>
			<path class="st6" d="M130.9,48.5c2.3,2.7,2.2,4.5,0,7.6c-0.4-2-1-4-2.2-4.8"/>
			<path class="st6" d="M133.7,48c0.3,1.3-0.3,2.7-1.1,3.4"/>
			<path class="st6" d="M134.4,48.5c1.7,2,3.1,3.8,0.4,7.9c-1.2-1.5-0.9-3.4-2.1-4.3"/>
			<path class="st6" d="M125.3,50.7c-0.3,0.9-0.9,3-2.2,4.3"/>
		</g>
	</g>
	<path class="st7" d="M90.2,71c0-6.9,0-16.1,0-16.1h34.6c0,0,0,9.2,0,16.1H90.2z"/>
	<path class="st8" d="M124.8,71c0,3.4,0,6.3,0,7.1c0,4.2-0.8,6.6-4.6,7.8c-3.8,1.2-11,3.5-12.7,5.7c-1.7-2.2-8.9-4.5-12.7-5.7
		c-3.8-1.2-4.6-3.6-4.6-7.8c0-0.8,0-3.7,0-7.1H124.8z"/>
	<g>
		<path class="st3" d="M107.5,88.7c0.9,0,2-0.3,2.2-0.8c0.2-0.5,0.5-0.9,1.6-1c0.8,0,1.3-0.5,1.3-1.3c0-0.9,0-1.3-1.2-2.2
			c-1.1-0.9-1-1.6-1-2.5c0-0.8,0-3.4,0-4.2c0-3.9,3.4-4.1,5.7-4.1c-0.5-0.6-1-1.4-1.5-2.2c5.8-2.3,8-11.1-0.4-14
			c3.5,3.8,2.2,9.3-0.2,9.4c-0.8,0.1-0.8,0.3-1,0.7c-0.2,0.4-0.8,0.7-1.3,0.7c-1.3,0-1-0.9-2.1-0.9c-1,0-1.3,0.9-2.3,0.9
			s-1.3-0.9-2.3-0.9c-1,0-0.8,0.9-2.1,0.9c-0.5,0-1.1-0.2-1.3-0.7c-0.2-0.3-0.1-0.6-1-0.7c-2.4-0.2-3.7-5.6-0.2-9.4
			c-8.5,2.9-6.2,11.7-0.4,14c-0.5,0.8-1,1.5-1.5,2.2c2.3,0,5.7,0.2,5.7,4.1c0,0.8,0,3.4,0,4.2c0,0.8,0.1,1.5-1,2.5
			c-1.1,0.9-1.2,1.3-1.2,2.2c0,0.8,0.6,1.3,1.3,1.3c1.2,0,1.4,0.5,1.6,1C105.5,88.5,106.6,88.7,107.5,88.7z"/>
		<path class="st3" d="M94.3,81.6c-0.9,0.1-1.7-0.6-1.8-1.6c-0.1-0.9,0.6-1.7,1.6-1.8c-0.3-0.9,0.1-1.8,0.9-2.2
			c0.9-0.3,1.8,0.1,2.2,0.9c0.7-0.6,1.8-0.5,2.4,0.2c0.6,0.7,0.5,1.8-0.2,2.4c0.8,0.5,1,1.5,0.5,2.3c-0.5,0.8-1.5,1-2.3,0.5
			c-0.2,0.9-1.1,1.4-2,1.2C94.6,83.4,94,82.5,94.3,81.6z"/>
		<path class="st3" d="M121.4,76.9c-1.8-1.8-4.7-1.6-6.2,0.6c-1.1,1.6-1.1,4.6,1.7,5.9C115.6,80.7,117.3,76.8,121.4,76.9z"/>
		<polygon class="st3" points="107.5,57 108.3,58.3 109.9,58 109.6,59.5 110.9,60.4 109.6,61.3 109.9,62.8 108.4,62.5 107.5,63.8 
			106.6,62.5 105.1,62.8 105.4,61.3 104.1,60.4 105.4,59.5 105.1,58 106.7,58.3 		"/>
		<path class="st3" d="M103.1,76.3c0,0.7,0,4.3,0,4.8c0,0.5-0.2,1.1-0.7,1.2l-1.1-5.9L103.1,76.3z"/>
		
			<rect x="101.5" y="74.3" transform="matrix(0.7071 -0.7071 0.7071 0.7071 -23.0538 94.1541)" class="st3" width="1.2" height="1.2"/>
		<path class="st3" d="M111.9,76.3c0,0.7,0,4.3,0,4.8c0,0.5,0.2,1.1,0.7,1.2l1.1-5.9L111.9,76.3z"/>
		
			<rect x="112.3" y="74.3" transform="matrix(0.7071 -0.7071 0.7071 0.7071 -19.911 101.7456)" class="st3" width="1.2" height="1.2"/>
		<path class="st3" d="M98.8,71c-1.8,0.8-3.6,2.1-3.6,2.1s-1.8-1.4-3.6-2.1c1.8-0.8,3.6-2.1,3.6-2.1S97,70.3,98.8,71z"/>
		<path class="st3" d="M116.2,71c1.8,0.8,3.6,2.1,3.6,2.1s1.8-1.4,3.6-2.1c-1.8-0.8-3.6-2.1-3.6-2.1S118,70.3,116.2,71z"/>
	</g>
	<g>
		<path class="st7" d="M102.3,39.8c0-1,0.8-1.3,2.7-0.4c0.2-0.7-2.1-1-2.6-2.2c-0.5-1.2-4-1.6-4.7,0.8c1.2-0.9,3.9-0.7,4.2,0.3
			c-0.5-0.3-2.1,0-2.6-0.1v0.5C99.5,38.9,101.4,38.6,102.3,39.8z"/>
	</g>
	<path d="M106.7,37.8c-0.4-0.5-1-0.6-1.6-0.5c-0.7,0-0.7,0.4-1.1,0.4c0.3,0.2,0.5,0.7,1.2,0.7C105.9,38.4,106,37.8,106.7,37.8z"/>
	<path class="st9" d="M105.5,38.1c-0.1,0.1-0.2,0.2-0.4,0.2c-0.3,0-0.5-0.2-0.5-0.5c0-0.3,0.2-0.5,0.5-0.5c0.2,0,0.3,0.1,0.4,0.2
		c-0.2,0-0.3,0.3-0.4,0.3C105.3,37.9,105.3,38.1,105.5,38.1z"/>
	<g>
		<path class="st10" d="M89.4,96.4c0.7,1.5,2.1,3.4,3.3,4.1c1,0.6-0.8,1.4-1.1,1.1c-0.7-0.6-2-2.4-2.7-4c-1.9-4.2-4.4-8.7-6.4-10.7
			c-1.9-2.1-7.2-10.3-9.1-12.1c-0.5-0.5-0.7-1.7,1.1,0.6c1.8,2.3,7.8,10.1,9.4,12.1C85.4,89.4,88.2,94.1,89.4,96.4z"/>
		<path class="st10" d="M70,71.7c0.3,0.9,1.3,3,3.6,3.2C73.2,73,70.9,71.6,70,71.7z"/>
		<path class="st10" d="M71.4,70.7c-0.1,1.1,1,3.3,2.5,3.9C74,73.4,72.7,70.9,71.4,70.7z"/>
		<path class="st10" d="M74.1,74.7c0,1.6,1,3.6,2.6,4.1C76.7,77.3,75.5,75.1,74.1,74.7z"/>
		<path class="st10" d="M78.3,79.8C78.1,78,77,75.5,75.4,75C75.5,76.8,76,79.6,78.3,79.8z"/>
		<path class="st10" d="M73.6,76.9c1.6-0.2,3.2,1.3,3.8,2.5C74.8,79.1,74.1,78.1,73.6,76.9z"/>
		<path class="st10" d="M78.2,80c-1.7-2.4,0.1-4.2-0.1-4.9C79.1,76.4,79.5,78.7,78.2,80z"/>
		<path class="st10" d="M78.2,80c-1.5-2.2-3.6-1.8-4.8-1.4C74.7,80.1,76.7,80.6,78.2,80z"/>
		<path class="st10" d="M77.9,80.7c2.7,0.8,4.8,3.9,5.1,6.1C80.4,86,78,82.7,77.9,80.7z"/>
		<path class="st10" d="M83.3,87.3c-0.9-1.9-2.9-3.6-5.9-3.3C78.7,86.2,81.5,87.7,83.3,87.3z"/>
		<path class="st10" d="M81.6,81.1c2.1,1.8,2.1,4.7,1.7,6.2C80.2,84.8,82,82.5,81.6,81.1z"/>
		<path class="st10" d="M83.6,87.8c0.2,2.2,1.6,4.6,3.5,4.6C87.1,90.1,85.7,88.3,83.6,87.8z"/>
		<path class="st10" d="M87.3,92.5c-1.8-1.6-4.4-1.3-5.3-0.7C83.9,93.5,86.4,93,87.3,92.5z"/>
		<path class="st10" d="M87.2,92.7c-0.8-1.6-1.1-3.2-0.1-4.7c0.3,1.1,2.2,2.6,0.1,4.6"/>
		<path class="st10" d="M82.8,87.1c-1.2,0.2-0.9,1.8,0.2,1.6C84.2,88.6,83.9,87,82.8,87.1z"/>
		<path class="st10" d="M83.9,86.2c-1.2,0.2-0.9,1.8,0.2,1.6C85.3,87.6,85.1,86,83.9,86.2z"/>
		<path class="st10" d="M77,80.1c-1.2,0.2-0.9,1.8,0.2,1.6C78.4,81.5,78.2,79.9,77,80.1z"/>
		<path class="st10" d="M78.5,79.5c-1.2,0.2-0.9,1.8,0.2,1.6C80,81,79.7,79.3,78.5,79.5z"/>
		<path class="st10" d="M73.3,74.2c-1,0.1-0.8,1.5,0.2,1.4C74.5,75.4,74.3,74.1,73.3,74.2z"/>
		<path class="st10" d="M74.1,73.6c-0.9,0.1-0.7,1.4,0.2,1.2C75.1,74.7,75,73.5,74.1,73.6z"/>
		<path class="st10" d="M87.8,91.8c-1.2,0.2-0.9,1.8,0.2,1.6C89.2,93.2,89,91.6,87.8,91.8z"/>
		<path class="st10" d="M86.6,92.4c-1.2,0.2-0.9,1.8,0.2,1.6C88,93.9,87.7,92.2,86.6,92.4z"/>
	</g>
	<g>
		<path class="st3" d="M128.6,94.3c0.1,0.8-1.1,1.7-1.9,2.7c-1.2,1.4-1.7,3.3-2.7,3.9c0.2,0.3,0,0.9-0.3,1.2
			c-0.5,0.5-1.1,0.2-1.7,0.6c0.2-0.7-0.3-1.1,0-1.8c0.2-0.5,0.7-0.8,1.1-0.7c0.2-1.1,1.8-2.3,2.7-3.8c0.7-1.1,1.1-2.5,1.9-2.7"/>
		<path class="st11" d="M128.1,94c0.6,0.4,1.4,0.3,1.8-0.3c0.4-0.6,0.3-1.4-0.3-1.8c-0.6-0.4-1.4-0.3-1.8,0.3
			C127.4,92.8,127.5,93.6,128.1,94z"/>
		<path class="st11" d="M135.8,84.1l-2.5,3.6c-1.1,1.5-0.9,2.8-1.9,4.1c-0.4,0.6-1.3,0.8-2,0.3c-0.6-0.4-0.8-1.3-0.3-2
			c0.9-1.3,2.1-1.6,3.2-3.1l2.6-3.6"/>
		<path class="st11" d="M133.4,84.7c-0.3,0.5,1.4,1.7,1.7,1.2C135.4,85.4,133.7,84.2,133.4,84.7z"/>
		<path class="st11" d="M133.8,84.1c-0.3,0.5,1.4,1.7,1.7,1.2C135.9,84.8,134.2,83.6,133.8,84.1z"/>
		<path class="st11" d="M134.3,83.4c-0.3,0.5,1.4,1.7,1.7,1.2C136.3,84.2,134.6,83,134.3,83.4z"/>
		<path class="st11" d="M135.3,83.9c0.6,0.4,1.5,0.3,2-0.3c0.9-1.3,0.5-2.1,1.6-3.7c0.5-0.7,1.1-1.2,1.8-1.3c-0.1-0.4-0.4-1-0.7-1.2
			c-0.3-0.2-0.9-0.3-1.4-0.3c0.2,0.6-0.1,1.4-0.6,2.1c-1.1,1.5-2,1.4-2.9,2.7C134.5,82.5,134.6,83.4,135.3,83.9z"/>
		<path class="st11" d="M139.7,77.6c0.5,0.3,1.3,0.3,1.9,0c0.2-1.7,2.5-3.3,3.9-3.1c0.1-1.1-0.7-2.4-1.5-3c-0.8-0.6-2.4-0.9-3.3-0.4
			c0.7,1.3-0.1,4-1.6,4.7C138.9,76.4,139.2,77.3,139.7,77.6z"/>
		<path class="st11" d="M139.7,77.6c0.3,0.2,0.9,0,1.3-0.4c0.5-1.5,2.5-3.3,3.4-3.5c0.3-0.9,0-1.9-0.5-2.3c-0.5-0.3-1.5-0.3-2.3,0.3
			c0.2,1-0.9,3.5-2.1,4.4C139.4,76.8,139.4,77.4,139.7,77.6z"/>
		<path class="st11" d="M143.6,71.1c-0.3,0.5,0.6,1.1,0.9,0.7S143.9,70.6,143.6,71.1z"/>
		<path class="st11" d="M144.2,71.2c1.6,0.2,0.8-1.2,1.5-2.1C145,70.1,143.4,69.8,144.2,71.2z"/>
	</g>
	<g>
		<g>
			<path class="st7" d="M87.6,97.4c-0.7,1-1.7,0.1-1.2-0.5c0.3-0.3,0.7-1.2,1.2-1.8c0.5-0.6,1-1,1.5-1c0.5,0,0.9,0.1,1.2-0.2
				c1.3-1.3,2.5-3.7,3.6-5.4c0.9-1.4,2.9,0.4,2.5,0.9c-1,2.1-4,6.8-5.2,8.2C90.7,98.5,88.2,96.8,87.6,97.4z"/>
			<path class="st7" d="M88,96.9c-0.8,1-0.9,1.2-0.4,1.6c0.4,0.3,0.7,0.2,1.4-0.7c0.8-0.9,1.1-1.2,0.6-1.6
				C89.2,95.8,88.7,96,88,96.9z"/>
			<path class="st7" d="M88.9,97.8c-0.5,0.6-1.1,0.9-0.4,1.5c0.3,0.3,0.7,0.2,1.4-0.7c0.8-0.9,1.2-1.4,0.7-1.8
				C90,96.3,89.4,97.3,88.9,97.8z"/>
			<path class="st7" d="M90,98.5c-0.8,0.8-1.2,0.9-0.5,1.5c0.2,0.2,0.5,0,1.3-0.8c0.9-1,1-1.5,0.6-1.8C91,96.9,90.5,98.1,90,98.5z"
				/>
		</g>
		<g>
			<path class="st7" d="M127.4,97.4c0.7,1,1.7,0.1,1.2-0.5c-0.3-0.3-0.7-1.2-1.2-1.8c-0.5-0.6-1-1-1.5-1c-0.5,0-0.9,0.1-1.2-0.2
				c-1.3-1.3-2.5-3.7-3.6-5.4c-0.9-1.4-2.9,0.4-2.5,0.9c1,2.1,4,6.8,5.2,8.2C124.3,98.5,126.8,96.8,127.4,97.4z"/>
			<path class="st7" d="M127,96.9c0.8,1,0.9,1.2,0.4,1.6c-0.4,0.3-0.7,0.2-1.4-0.7c-0.8-0.9-1.1-1.2-0.6-1.6
				C125.7,95.8,126.3,96,127,96.9z"/>
			<path class="st7" d="M126.1,97.8c0.5,0.6,1.1,0.9,0.4,1.5c-0.3,0.3-0.7,0.2-1.4-0.7c-0.8-0.9-1.2-1.4-0.7-1.8
				C125,96.3,125.6,97.3,126.1,97.8z"/>
			<path class="st7" d="M125,98.5c0.8,0.8,1.2,0.9,0.5,1.5c-0.2,0.2-0.5,0-1.3-0.8c-0.9-1-1-1.5-0.6-1.8
				C124,96.9,124.5,98.1,125,98.5z"/>
		</g>
	</g>
	<g>
		<path class="st4" d="M99.3,87.4c-1.2,1.4-1.7,3.5-2.6,4.1c0-0.4-0.1-1.1-0.2-1.5c-0.4,0.3-1,0.5-1.7,0.7c0.1-0.3-0.1-1.5-0.3-1.9
			c-0.3,0.3-1.4,0.9-1.8,0.7c0.6-0.7,0.3-1.4,1.6-3.8C95.5,86.2,98.2,87,99.3,87.4z"/>
		<path class="st4" d="M115.7,87.4c1.2,1.4,1.7,3.5,2.6,4.1c0-0.4,0.1-1.1,0.2-1.5c0.4,0.3,1,0.5,1.7,0.7c-0.1-0.3,0.1-1.5,0.3-1.9
			c0.3,0.3,1.4,0.9,1.8,0.7c-0.6-0.7-0.3-1.4-1.6-3.8C119.5,86.2,116.8,87,115.7,87.4z"/>
	</g>
	<g>
		<path class="st7" d="M89.4,96.7c0.5,0.1,1-1.1,0.3-1.5c0.1,0.6-0.6,0.6-0.7,0.9C88.9,96.4,89.1,96.7,89.4,96.7z"/>
		<path class="st7" d="M86.3,97c-0.5,0.8,0.6,2.1,1.7,1.5c-0.9-0.4-0.3-1.3-0.6-1.5C87.1,96.7,86.5,96.7,86.3,97z"/>
		<path class="st7" d="M90.4,97.4c0.5,0.1,1-1.1,0.3-1.5c0.1,0.6-0.6,0.6-0.7,0.9C89.9,97.1,90.1,97.4,90.4,97.4z"/>
		<path class="st7" d="M91.3,98.1c0.5,0.1,1-1.1,0.3-1.5c0.1,0.6-0.6,0.6-0.7,0.9C90.8,97.8,91,98,91.3,98.1z"/>
		<path class="st7" d="M125.6,96.7c-0.5,0.1-1-1.1-0.3-1.5c-0.1,0.6,0.6,0.6,0.7,0.9C126.1,96.4,125.9,96.7,125.6,96.7z"/>
		<path class="st7" d="M128.7,97c0.5,0.8-0.6,2.1-1.7,1.5c0.9-0.4,0.3-1.3,0.6-1.5C127.9,96.7,128.5,96.7,128.7,97z"/>
		<path class="st7" d="M124.6,97.4c-0.5,0.1-1-1.1-0.3-1.5c-0.1,0.6,0.6,0.6,0.7,0.9C125.1,97.1,124.9,97.4,124.6,97.4z"/>
		<path class="st7" d="M123.7,98.1c-0.5,0.1-1-1.1-0.3-1.5c-0.1,0.6,0.6,0.6,0.7,0.9C124.2,97.8,124,98,123.7,98.1z"/>
	</g>
	<g>
		<path d="M104.3,85.7c0.8-0.2,1.6-0.4,1.6,0.1c0,0.5-0.5,0.4-1.4,0.4C103.5,86.2,103.3,85.9,104.3,85.7z"/>
		<path d="M110.7,85.7c-0.8-0.2-1.6-0.4-1.6,0.1c0,0.5,0.5,0.4,1.4,0.4C111.5,86.2,111.7,85.9,110.7,85.7z"/>
	</g>
</g>
</svg>
