<?xml version="1.0" encoding="utf-8"?>
<!-- Generator: Adobe Illustrator 22.1.0, SVG Export Plug-In . SVG Version: 6.00 Build 0)  -->
<svg version="1.1" id="layer_1" xmlns="http://www.w3.org/2000/svg" xmlns:xlink="http://www.w3.org/1999/xlink" x="0px" y="0px"
	 viewBox="0 0 216 144" style="enable-background:new 0 0 216 144;" xml:space="preserve">
<style type="text/css">
	.st0{fill:#FFFFFF;}
	.st1{fill:#D14A48;}
	.st2{fill:#9A9FA2;stroke:#9A9FA2;stroke-width:0.263;}
	.st3{fill:#DEDDDE;stroke:#9A9FA2;stroke-width:0.263;}
	.st4{fill:#DEDDDE;stroke:#9A9FA2;stroke-width:0.263;stroke-linejoin:bevel;}
	.st5{fill:#9A9FA2;}
	.st6{fill:#DEDDDE;}
</style>
<rect x="0.5" y="0.5" class="st0" width="108" height="144"/>
<rect x="108.5" y="0.5" class="st1" width="108" height="144"/>
<g>
	<path class="st1" d="M33.9,4.8v11.1c0.6,0.2,1.3,0.6,1.8,1.2c0.6,0.6,1,1.3,1.2,1.8h11.1v15H36.9c-0.2,0.6-0.6,1.3-1.2,1.8
		c-0.6,0.6-1.3,1-1.8,1.2v11.1h-15V36.8c-0.6-0.2-1.3-0.6-1.8-1.2c-0.6-0.6-1-1.3-1.2-1.8H4.8v-15h11.1c0.2-0.6,0.6-1.3,1.2-1.8
		c0.6-0.6,1.3-1,1.8-1.2V4.8H33.9z"/>
	<g>
		<rect x="32.7" y="5.9" class="st2" width="0.2" height="11.1"/>
		<rect x="32.7" y="35.9" class="st2" width="0.2" height="10.8"/>
		<rect x="35.9" y="32.7" class="st2" width="11.1" height="0.2"/>
		<rect x="6" y="32.7" class="st2" width="10.9" height="0.2"/>
		<rect x="46.8" y="20" class="st2" width="0.2" height="12.7"/>
		<rect x="20" y="46.7" class="st2" width="12.8" height="0.2"/>
	</g>
	<path class="st3" d="M46.8,20H36c0-0.6-0.3-1.6-1-2.3c-0.7-0.7-1.7-1-2.3-1V5.9H20v10.8c-0.6,0-1.6,0.3-2.3,1c-0.7,0.7-1,1.6-1,2.3
		H6v12.7h10.8c0,0.6,0.3,1.6,1,2.3c0.7,0.7,1.7,1,2.3,1v10.8h12.7V35.9c0.6,0,1.6-0.3,2.3-1c0.7-0.7,1-1.7,1-2.3h10.8V20z"/>
	<g>
		<path d="M18.8,18.8"/>
		<path class="st4" d="M18.8,17.3c0.2,0.5,1.3,1.5,1.6,1.6c-0.1,0.3-0.4,0.6-0.6,0.8c-0.1-0.7-1.1-1.7-1.7-1.9
			c0.2,0.2,1,1.8,1.3,2.2c-0.5-0.2-1.7-0.6-2.1-0.7c0-0.3,0-0.4,0.1-0.6c0.2,0.3,0.7,0.4,1.1,0.6c-0.1-0.3-0.5-1.1-0.9-1.1
			C17.8,17.8,18.3,17.3,18.8,17.3z"/>
		<path class="st3" d="M19.5,17.3c-0.4-0.1-1.1-0.1-1.7,0.5c-0.5,0.5-0.7,1.7-0.2,2.1s1.6,0.3,2.1-0.2c0.5-0.5,1.1-1.4,0.6-1.9
			c-0.1-0.1-0.3-0.2-0.4-0.1l0.7-0.7c0.7,0.7,0.1,1.9-0.8,2.8c-0.6,0.6-1.8,1.1-2.8,0.8c-0.7-0.6,0.1-2.2,0.7-2.8
			c0.5-0.5,1.3-1,2.3-1v0.1L19.5,17.3z"/>
		<path class="st5" d="M17.8,17.7c0.5-0.5,1.3-1,2.3-1v0.1l-0.6,0.4C19.1,17.2,18.4,17.2,17.8,17.7L17.8,17.7z"/>
	</g>
	<g>
		<path d="M18.8,33.9"/>
		<path class="st4" d="M17.3,33.9c0.5-0.2,1.5-1.3,1.6-1.6c0.3,0.1,0.6,0.4,0.8,0.6C19,32.9,18,34,17.7,34.6c0.2-0.2,1.8-1,2.2-1.3
			c-0.2,0.5-0.6,1.7-0.7,2.1c-0.3,0-0.4,0-0.6-0.1c0.3-0.2,0.4-0.7,0.6-1.1c-0.3,0.1-1.1,0.5-1.1,0.9C17.8,34.9,17.3,34.4,17.3,33.9
			z"/>
		<path class="st3" d="M17.3,33.2c-0.1,0.4-0.1,1.1,0.5,1.7c0.5,0.5,1.7,0.7,2.1,0.2s0.3-1.6-0.2-2.1c-0.5-0.5-1.4-1.1-1.9-0.6
			c-0.1,0.1-0.2,0.3-0.1,0.4l-0.7-0.7c0.7-0.7,1.9-0.1,2.8,0.8c0.6,0.6,1.1,1.8,0.8,2.8c-0.6,0.7-2.2-0.1-2.8-0.7
			c-0.5-0.5-1-1.3-1-2.3h0.1L17.3,33.2z"/>
		<path class="st5" d="M17.8,35c-0.5-0.5-1-1.3-1-2.3h0.1l0.4,0.6C17.2,33.6,17.2,34.3,17.8,35L17.8,35z"/>
	</g>
	<g>
		<path d="M34,33.9"/>
		<path class="st4" d="M33.9,35.4c-0.2-0.5-1.3-1.5-1.6-1.6c0.1-0.3,0.4-0.6,0.6-0.8c0.1,0.7,1.1,1.7,1.7,1.9
			c-0.2-0.2-1-1.8-1.3-2.2c0.5,0.2,1.7,0.6,2.1,0.7c0,0.3,0,0.4-0.1,0.6c-0.2-0.3-0.7-0.4-1.1-0.6c0.1,0.3,0.5,1.1,0.9,1.1
			C35,34.9,34.4,35.4,33.9,35.4z"/>
		<path class="st3" d="M33.3,35.4c0.4,0.1,1.1,0.1,1.7-0.5c0.5-0.5,0.7-1.7,0.2-2.1c-0.5-0.5-1.6-0.3-2.1,0.2
			c-0.5,0.5-1.1,1.4-0.6,1.9c0.1,0.1,0.3,0.2,0.4,0.1l-0.7,0.7c-0.7-0.7-0.1-1.9,0.8-2.8c0.6-0.6,1.8-1.1,2.8-0.8
			c0.7,0.6-0.1,2.2-0.7,2.8c-0.5,0.5-1.3,1-2.3,1v-0.1L33.3,35.4z"/>
		<path class="st5" d="M35,35c-0.5,0.5-1.3,1-2.3,1v-0.1l0.6-0.4C33.7,35.5,34.3,35.5,35,35L35,35z"/>
	</g>
	<g>
		<path d="M34,18.8"/>
		<path class="st4" d="M35.5,18.8c-0.5,0.2-1.5,1.3-1.6,1.6c-0.3-0.1-0.6-0.4-0.8-0.6c0.7-0.1,1.7-1.1,1.9-1.7
			c-0.2,0.2-1.8,1-2.2,1.3c0.2-0.5,0.6-1.7,0.7-2.1c0.3,0,0.4,0,0.6,0.1c-0.3,0.2-0.4,0.7-0.6,1.1c0.3-0.1,1.1-0.5,1.1-0.9
			C35,17.8,35.4,18.3,35.5,18.8z"/>
		<path class="st3" d="M35.5,19.5c0.1-0.4,0.1-1.1-0.5-1.7c-0.5-0.5-1.7-0.7-2.1-0.2c-0.5,0.5-0.3,1.6,0.2,2.1
			c0.5,0.5,1.4,1.1,1.9,0.6c0.1-0.1,0.2-0.3,0.1-0.4l0.7,0.7c-0.7,0.7-1.9,0.1-2.8-0.8c-0.6-0.6-1.1-1.8-0.8-2.8
			c0.6-0.7,2.2,0.1,2.8,0.7c0.5,0.5,1,1.3,1,2.3h-0.1L35.5,19.5z"/>
		<path class="st5" d="M35,17.7c0.5,0.5,1,1.3,1,2.3h-0.1l-0.4-0.6C35.6,19.1,35.5,18.4,35,17.7L35,17.7z"/>
	</g>
	<g>
		<rect x="31.9" y="6.8" class="st2" width="0.2" height="14.1"/>
		<rect x="6.8" y="31.8" class="st2" width="14.1" height="0.2"/>
		<rect x="45.9" y="20.9" class="st2" width="0.2" height="11"/>
		<rect x="31.9" y="31.8" class="st2" width="0.2" height="14.1"/>
		<rect x="32" y="31.8" class="st2" width="14.1" height="0.2"/>
		<rect x="20.9" y="45.9" class="st2" width="11.2" height="0.2"/>
	</g>
	<polygon class="st3" points="20.9,31.8 6.8,31.8 6.8,20.9 20.9,20.9 20.9,6.8 31.9,6.8 31.9,20.9 45.9,20.9 45.9,31.8 31.9,31.8 
		31.9,45.9 20.9,45.9 	"/>
	<g>
		<ellipse transform="matrix(0.7071 -0.7071 0.7071 0.7071 -10.9514 26.4799)" class="st2" cx="26.5" cy="26.5" rx="9.3" ry="9.3"/>
		<path class="st2" d="M26.5,26.5"/>
	</g>
	<g>
		<circle class="st3" cx="26.4" cy="26.3" r="9.3"/>
		<path class="st3" d="M26.4,26.3"/>
	</g>
	<g>
		<circle class="st3" cx="26.4" cy="26.3" r="6.5"/>
		<path class="st3" d="M26.4,26.3"/>
	</g>
	<g>
		<g>
			<path class="st5" d="M21,30.7L21,30.7c-0.1-0.1-0.3-0.2-0.4-0.1l-1.3,0.7c-0.1,0.1-0.1,0.2-0.1,0.4l-0.1,0l-0.9-1.6l0.6-0.3
				l0,0.1c-0.3,0.2-0.3,0.6-0.2,0.7c0,0.1,0.1,0.2,0.1,0.3c0,0.1,0.1,0.1,0.2,0c0.1-0.1,0.6-0.3,0.6-0.3c-0.1-0.1-0.2-0.4-0.6-0.2
				l0-0.1l0.9-0.5l0,0.1c-0.4,0.3-0.2,0.6-0.2,0.7l0.6-0.3c0.1-0.1,0.1-0.2,0.1-0.3l0.1,0L21,30.7z"/>
		</g>
		<path class="st5" d="M19.6,27.6c-0.1-0.3-0.5-0.5-1-0.4c-0.5,0.1-0.9,0.4-0.9,0.7c0.1,0.3,0.5,0.5,1,0.4
			C19.3,28.2,19.7,28,19.6,27.6L19.6,27.6c0.2,0.6-0.2,1.1-0.8,1.2c-0.6,0.1-1.1-0.2-1.2-0.8c-0.1-0.7,0.3-1.1,0.8-1.2
			C19.1,26.7,19.6,27,19.6,27.6L19.6,27.6z"/>
		<path class="st5" d="M18.6,25.2c0.1-0.5-0.1-0.6-0.4-0.7c-0.3-0.1-0.5,0.1-0.5,0.3c0,0.1,0,0.2,0.1,0.2L18.6,25.2L18.6,25.2
			l0.7,0.1c0.2,0,0.2-0.1,0.3-0.2l0.1,0l-0.2,1l-0.1,0c0-0.1,0-0.3-0.2-0.3l-1.4-0.3c-0.2,0-0.2,0.1-0.3,0.2l-0.1,0l0.2-1
			c0.1-0.5,0.3-0.8,0.7-0.7c0.3,0.1,0.4,0.3,0.4,0.6l1-0.4c0,0,0,0,0.1-0.1l0.1,0l-0.1,0.6L18.6,25.2C18.7,25.1,18.7,25.2,18.6,25.2
			L18.6,25.2z"/>
		<g>
			<path class="st5" d="M21.4,21.8c-0.4,0.5-1,0.6-1.5,0.1c-0.5-0.4-0.4-1.1,0-1.5c0.2-0.2,0.3-0.3,0.4-0.3c0.1-0.1,0.1-0.2,0.1-0.2
				l0.1-0.1l0.5,0.5l-0.1,0.1c-0.5-0.2-0.8,0-1,0.2c-0.1,0.1-0.3,0.4,0.3,1C20.8,22.1,21.1,21.9,21.4,21.8c0-0.2,0.1-0.3,0-0.4
				s-0.2-0.2-0.3-0.3c-0.1-0.1-0.2-0.1-0.3,0l0,0l0.7-0.7l0,0c-0.1,0.1-0.1,0.2,0,0.3c0.1,0.1,0.4,0.3,0.4,0.3
				C21.7,21.3,21.5,21.6,21.4,21.8z"/>
		</g>
		<path class="st5" d="M22.9,19.7l0.3-0.2c-0.6-0.5-0.6-0.5-0.6-0.5s0,0.3,0.1,0.8L22.9,19.7l0.1,0.1L22.6,20c0,0.1,0,0.2,0,0.3
			c0,0.3,0.1,0.2,0.3,0.2l0,0.1l-0.6,0.3l0-0.1c0.1-0.1,0.1-0.2,0.1-0.3c-0.1-1.9-0.1-1.9-0.1-1.9l0.1,0c0,0,0.1,0.1,1.4,1.2
			c0.1,0.1,0.2,0.2,0.4,0.1l0,0.1l-0.9,0.5l0-0.1c0.2-0.1,0.3-0.2,0.1-0.3c-0.1-0.1-0.2-0.2-0.2-0.2l-0.4,0.2L22.9,19.7z"/>
		<g>
			<path class="st5" d="M25.6,17.5L25.6,17.5c-0.1,0.1-0.3,0.1-0.2,0.3l0.1,1.4c0,0.2,0.1,0.2,0.2,0.2c0.1,0,0.2,0,0.3,0
				c0.2,0,0.5-0.2,0.6-0.6l0.1,0l-0.1,0.7l-1.8,0.2l0-0.1c0.1,0,0.3-0.1,0.3-0.3l-0.1-1.5c0-0.2-0.1-0.2-0.3-0.2l0-0.1L25.6,17.5z"
				/>
		</g>
		<g>
			<path class="st5" d="M28.5,17.8L28.5,17.8c-0.2,0-0.3,0.1-0.3,0.2l-0.3,1.4c0,0.2,0,0.2,0.1,0.3c0.1,0,0.2,0,0.3,0.1
				c0.2,0.1,0.6,0,0.8-0.4l0.1,0l-0.3,0.6l-1.7-0.4l0-0.1c0.1,0,0.3,0,0.3-0.2l0.3-1.4c0-0.2-0.1-0.2-0.2-0.3l0-0.1L28.5,17.8z"/>
		</g>
		<path class="st5" d="M30.4,20l0.3,0.2c0.1-0.7,0.2-0.8,0.2-0.8s-0.2,0.2-0.7,0.4L30.4,20l-0.1,0.1l-0.3-0.2
			c-0.1,0-0.2,0.1-0.2,0.2c-0.2,0.1-0.1,0.2,0,0.4l0,0l-0.5-0.3l0,0c0.1,0,0.2,0,0.3-0.1c1.6-1,1.6-1.1,1.6-1.1l0.1,0.1
			c0,0,0,0.1-0.4,1.9c0,0.1-0.1,0.2,0.1,0.4l0,0l-0.9-0.6l0,0c0.2,0.1,0.3,0.1,0.4-0.1c0-0.1,0-0.2,0.1-0.3l-0.3-0.2L30.4,20z"/>
		<g>
			<path class="st5" d="M33,20.5C33,20.5,33,20.4,33,20.5l0-0.1l0.4,0.5L33,22.6l0.8-0.6c0.1-0.1,0.1-0.2,0-0.3l0.1,0l0.3,0.5
				l-0.1,0c-0.1-0.1-0.2-0.1-0.3,0l-1.4,1L32.4,23l0.5-2.1l-1.1,0.8c-0.1,0.1-0.1,0.2,0,0.3l0,0l-0.4-0.5l0,0
				c0.1,0.1,0.2,0.2,0.3,0.1l1.2-0.9L33,20.5z"/>
		</g>
		<g>
			<path class="st5" d="M32.8,24L32.8,24c0.1,0.1,0.2,0.2,0.4,0.2l1.6-0.5l0-0.1c-0.1-0.2-0.3-0.4-0.6-0.3l0-0.1l0.6-0.2l0.5,1.7
				l-0.6,0.2l0-0.1c0.3-0.1,0.4-0.4,0.3-0.6l0-0.1l-1.6,0.5c-0.2,0-0.2,0.2-0.2,0.3l-0.1,0L32.8,24z"/>
		</g>
		<path class="st5" d="M34.3,26.6c0,0.5,0.2,0.6,0.4,0.6c0.3,0,0.4-0.1,0.5-0.3c0-0.1,0-0.2-0.1-0.2L34.3,26.6L34.3,26.6l-0.8-0.1
			c-0.2,0-0.2,0.1-0.3,0.2l-0.1,0l0.1-1l0.1,0c0,0.1,0,0.3,0.2,0.3l1.5,0.1c0.2,0,0.2-0.1,0.3-0.3l0.1,0l-0.1,1
			c0,0.5-0.2,0.9-0.6,0.8c-0.3,0-0.4-0.2-0.5-0.5l-1,0.6c0,0,0,0.1,0,0.1l-0.1,0l0-0.6L34.3,26.6C34.2,26.7,34.2,26.6,34.3,26.6
			L34.3,26.6z"/>
		<g>
			<path class="st5" d="M32.8,29.6c-0.2-0.1-0.3,0-0.3,0.2l-0.1,0l0.5-1l0.1,0c0,0.1-0.1,0.3,0.1,0.4c0.1,0.1,0.5,0.2,0.5,0.2
				s0.5,0,1.1-0.1c0.2,0,0.2,0,0.3-0.1l0.1,0l-0.4,0.9l-0.1,0c0.1-0.1,0.1-0.3-0.1-0.3c-0.3,0-0.9,0.1-0.9,0.1l0.4,0.6
				c0.2,0.3,0.3,0.1,0.4,0l0.1,0L34,31.2l-0.1,0c0-0.1,0-0.3-0.1-0.4l-0.5-0.8C33.3,29.9,32.9,29.7,32.8,29.6z"/>
		</g>
	</g>
	<g>
		<path class="st5" d="M25.7,20.5c0.2-0.2,0.5-0.1,0.6-0.2c0.1-0.1,0.4,0.1,0.5,0.3c0.2,0,0.4,0,0.5-0.1c0.1-0.1,0.3-0.1,0.4,0.1
			c0.3,0.4,1,0.5,1.4,0.8c0.5,0.4,1,0.9-0.4,1.4c0.5,0.5,0.8,1.1,0.9,1.4c0.7-0.6,1-0.7,1.3-0.4c0.3,0.3,0.9,0.6,1.2,0.7
			c0.3,0.1,0.6,0.4,0.6,0.7c0,0.3-0.2,0.6-0.5,0.5c-0.3,0-0.3-0.1-0.4-0.4C31.7,25,31.3,25,31,24.8c-0.5-0.3-0.5-0.2-0.8,0
			c-0.2,0.1-0.3,0.1-0.3,0.3c0,0.2,0.1,0.1,0.4,0.1c0.3,0,0.5,0,0.8,0.4c0.3,0.4,0.6,0.9,0.9,1.1c0.3,0.1,0.4,0.2,0.2,0.5
			c-0.1,0.3-0.2,0.4,0,0.6c0.3,0.1,0.3,0.3,0.1,0.6c-0.2,0.2-0.6,0.8-0.9,1c0,0.4,0.2,0.3,0,0.5c-0.2,0.2-0.3,0.6-1.1,0.6
			c-0.8,0-1.2-0.1-1.8,0.1c-0.6,0.2-1.6,0-2.2,0.4c-0.4,0.2-0.4-0.3-0.4-0.4c0-0.3-0.1-0.4-0.4-0.2c-0.2,0.2-0.3,0.1-0.5,0
			c-0.2-0.1-0.5-0.1-0.7,0c-0.2,0.1-0.4,0.4,0,0.6c1.2,0.5,2.5,0.9,3.3,1.2c0.2,0.1,0.2,0.5-0.3,0.3c-1.2-0.4-2-0.7-2.6-0.9
			c-0.3-0.1-0.5,0.4-1.3,0.3c-0.4-0.1-0.5-0.3,0-0.3c0.5,0,0.9-0.1,0.4-0.3c-0.6-0.2-1.2-0.4-2-0.7c-0.2-0.1-0.1-0.4,0.3-0.3
			c0.3,0.1,0.6,0.3,0.9,0.3c0.2,0.1,0.3,0,0.2-0.2c0-0.2,0.2-0.5,0.7-0.6c-0.1-0.2-0.4-0.5-0.6-0.6c-0.2,0-0.3-0.2-0.2-0.6
			c0.1-0.5,0.3-0.8-0.1-0.8c-0.4,0-0.8-0.2-1-0.8c-0.6-0.4-0.8-0.5-0.9-0.4c-0.1,0.2,0,0.2,0.1,0.3c0.3,0.2,0.3,0.7,0.1,1.7
			c0,0.1,0,0.2,0.1,0.3c0.1,0.1,0.1,0.7-0.2,1c-0.3,0.2-0.3-0.1-0.2-0.2c0-0.1,0-0.2-0.2-0.3c-0.1-0.1-0.2-0.1-0.1-0.4
			c0.1-0.2,0.1-0.4,0-0.5c-0.2-0.1-0.5-0.3-0.4-0.7c0.1-0.4,0.1-0.7-0.3-1c-0.3-0.3-0.1-0.7,0.1-0.9c0.3-0.3,0.7-0.7,1.5,0.4
			c0.1-0.2,0.5-0.7,0.7-0.9v-0.2c-0.2,0-0.4-0.4-0.5-0.6c-0.1-0.2-0.4-0.2-0.7,0.1c-0.3,0.3-0.5,0.6-0.7,0.5c-0.2,0-0.4-0.4-0.2-0.7
			c-0.1-0.2-0.2-0.5,0.1-0.8c0-0.3-0.1-0.6,0.4-0.8c0-0.3,0.1-0.8,0.6-0.9c0-0.1-0.1-0.2-0.1-0.4c0.4-0.5,1.5-1.1,1.9-1.3
			c0.3,0,0.4,0.4,0.7,0.2c0.2-0.1,0.5-0.2,0.9-0.1C25.5,20.6,25.6,20.6,25.7,20.5z"/>
		<g>
			<path class="st6" d="M22.2,23.9c0-0.1,0.1-0.3,0.1-0.4c0.1-0.1-0.1-0.2-0.4,0c-0.3,0.2-0.7,0.4-0.9,0.5c-0.2,0.1-0.3,0.4,0.1,0.2
				c0.4-0.2,0.7-0.3,0.8-0.4c0.1-0.1,0.1,0,0.1,0.1C22,23.9,22.2,24,22.2,23.9z"/>
			<path class="st6" d="M22,24.1c-0.2,0.2-0.4,0.2-0.7,0.3c-0.3,0.2-0.4,0.3-0.3,0.4c0,0.2,0.1,0.2,0.3,0c0.2-0.2,0.6-0.5,0.8-0.6
				C22.2,24.2,22.2,24,22,24.1z"/>
			<path class="st6" d="M21.3,23.2c0.3-0.2,0.8-0.3,1.1-0.4c0.4-0.1,0.5,0.1,0.1,0.2c-0.4,0.1-1.1,0.5-1.3,0.6
				C21,23.8,20.9,23.4,21.3,23.2z"/>
			<path class="st6" d="M21.5,22.9c0-0.2,0.1-0.8,0.8-0.8c0.3,0,0.9-0.1,1.1-0.1s0.1,0.3-0.2,0.3C23,22.3,21.8,22.7,21.5,22.9z"/>
			<path class="st6" d="M23.9,21.4c-0.1,0.1-0.2,0.2-0.2,0.3c-0.4-0.1-0.5,0.1-0.8,0.1s-0.7,0-0.8,0c0.2-0.2,0.4-0.4,0.6-0.3
				c0.2,0.1,0.4,0.1,0.6-0.1C23.6,21.4,23.8,21.3,23.9,21.4z"/>
			<path class="st6" d="M22.5,21.3c0.5-0.4,0.9-0.4,1.3-0.3c0.4,0.1,0.8,0.2,1,0.1c0.2-0.1,0.3-0.1,0.4,0c0.1,0.1,0.2,0.2-0.2,0.1
				c-0.4,0-0.9,0-1.1-0.1c-0.2-0.1-0.5,0-0.6,0.1C23.2,21.4,22.7,21.4,22.5,21.3z"/>
			<path class="st6" d="M23.7,20.6c0.3,0.1,0.9,0.2,1.1,0.1c0.2-0.1,0.7-0.1,0.9,0.1L25.4,21c-0.2-0.2-0.5-0.2-0.7-0.1
				c-0.2,0.1-0.6,0.1-0.8,0c-0.2-0.1-0.5-0.1-0.5-0.1C23.5,20.7,23.6,20.7,23.7,20.6z"/>
			<path class="st6" d="M21.7,26.1c-0.3-0.5-0.7-0.3-0.9,0c-0.2,0.3,0.1,0.1,0.1,0.3c0,0.2,0.1,0.1,0.1,0.2c0,0.1,0.2,0.1,0.2-0.1
				c0-0.2,0.1-0.4,0.3-0.3C21.7,26.3,21.8,26.2,21.7,26.1z"/>
			<path class="st6" d="M21.2,26.8c0,0.1,0,0.2-0.1,0.2c-0.1,0-0.2,0.1,0,0.2c0.2,0.1,0.1,0.2,0,0.4c0,0.1-0.1,0.4,0.1,0.6
				c0.1,0.1,0.2-0.1,0.3,0.1c0.1,0.1,0.2,0,0.2-0.3s-0.1-0.4-0.2-0.3c-0.1,0.1-0.2,0.1-0.3,0c0-0.1-0.1-0.3,0.2-0.3
				c0.3,0,0.4,0,0.2-0.2C21.2,26.6,21.2,26.6,21.2,26.8z"/>
			<path class="st6" d="M25.8,20.7c0.1,0.1,0.1,0.5,0.1,0.7c0,0.1,0.1,0.1,0.2,0c0.1-0.2,0.4-0.1,0.4-0.4c0,0-0.1,0-0.1,0
				c0,0.1-0.2,0-0.2-0.1C26.2,20.9,26,20.6,25.8,20.7z"/>
			<path class="st6" d="M28.4,21.4c-0.2,0-0.2,0-0.2,0.1c0,0.1-0.1,0.1-0.2,0.1c-0.1,0-0.1,0.2,0,0.2c0.2,0,0,0.1,0.3,0.1
				c0.2,0,0.5,0,0.5-0.1c0.1,0,0.1,0,0-0.2C28.7,21.5,28.5,21.4,28.4,21.4z"/>
			<path class="st6" d="M27,21c-0.1,0.2-0.1,0.7-0.2,0.9c-0.1,0.2,0,0.8-0.2,1c-0.1,0.2-0.2,0.6,0.2,0.5c0.4-0.2,0.8-0.3,1-0.3
				c0.2,0,0.4-0.3,0.2-0.4c-0.2-0.1-0.5-0.3-0.6-0.7c-0.1-0.4,0-0.5,0.1-0.4c0.1,0.1,0.2,0.1,0.2-0.1c0-0.1,0.1-0.2,0.2-0.2
				c0.1,0,0.1-0.2,0-0.2c-0.1,0-0.1-0.1-0.2-0.1c0-0.1-0.2,0-0.2,0c-0.1,0-0.3,0-0.3,0C27.1,20.9,27,20.9,27,21z"/>
			<path class="st6" d="M25.5,21.4c-0.1,0.1-0.6,0.2-0.9,0.1c-0.2,0-0.4-0.1-0.5,0.2c-0.1,0.3-0.6,0.8-0.8,1
				c-0.2,0.2-0.7,0.8-0.8,1.2c-0.1,0.3,0,0.4,0.1,0.6c0.1,0.2,0.2,0.2,0.3,0c0.1-0.1,0.1-0.2,0-0.4c-0.1-0.2-0.1-0.4,0.1-0.6
				c0.2-0.2,0.6-0.6,0.7-0.8c0.1-0.2,0.2-0.3,0.4-0.4c0.1-0.1,0.2-0.1,0.3-0.3c0.1-0.1,0.3-0.2,0.4-0.1c0.1,0.1,0.2,0.2,0,0.3
				c0,0,0,0,0,0c0-0.1-0.3-0.1-0.3,0.2c0,0.1,0,0.1,0.1,0c0.1,0,0.1-0.1,0.1,0.1c0,0.1,0.1,0.2-0.1,0.2c-0.2,0.1-0.2,0.1-0.1,0.2
				c0.1,0.1,0.1,0.2,0.2,0.1c0.1-0.1,0.2-0.1,0.2-0.2c0-0.1,0.2-0.1,0.3,0c0.1,0.1,0,0.2,0,0.3s0,0.1-0.1,0s-0.1,0-0.2,0
				c0,0.1-0.1,0-0.2,0c-0.1,0-0.1,0.1-0.1,0.2c0,0.1,0,0.1,0.1,0.1c0.1,0,0.1,0.1,0.1,0.1c0.1,0,0.1,0.1,0,0.1c0,0,0,0.1,0,0.1
				c0,0,0-0.1-0.1-0.1c-0.1,0-0.3,0.1-0.2,0.3c0.1,0.2-0.1,0.3,0,0.4c0.1,0.1,0.2,0.1,0.4,0.1c0.2,0,0.6-0.1,0.8,0.1
				c0.2,0.1,0.4,0.2,0.8,0.3c0.3,0,0.5,0.1,0.5,0.4c0,0.2,0.1,0.3,0.3,0.5c0.2,0.2,0.4,0.5,0.4,0.6c0,0.1,0.1,0.4,0.3,0.3
				c0.1,0,0.3,0,0.4,0s0.3,0.1,0.1-0.1c-0.2-0.3-0.4-0.3-0.5-0.4c-0.1-0.2-0.2-0.5-0.3-0.7c-0.1-0.1-0.1-0.3-0.1-0.4
				c0-0.1-0.1-0.1-0.1-0.2c0-0.1-0.1-0.3-0.2-0.3c-0.2-0.1-0.5-0.3-0.7-0.3c-0.2,0-0.2-0.1-0.2-0.2c0-0.1-0.1-0.1-0.1,0
				c0,0.1-0.1,0-0.1,0c0-0.1-0.1-0.1-0.1-0.1c-0.1,0-0.3,0-0.1-0.2c0.1-0.2,0.1-0.3,0-0.4c-0.2-0.1-0.2-0.2-0.1-0.3
				c0.1-0.1,0-0.2,0.2-0.2c0.2,0,0-0.1,0.2-0.2c0.1,0,0.1-0.1,0.1-0.1c0,0,0.1-0.2,0-0.3c0-0.1,0-0.2,0-0.3c0.1-0.1,0-0.2,0-0.2
				c0,0-0.1-0.1-0.1-0.1c0,0-0.1-0.1-0.1,0c-0.1,0.1-0.2,0.2-0.3,0c-0.1-0.1,0-0.2,0-0.3c0-0.1,0.1-0.2,0-0.3
				C25.6,21.3,25.6,21.3,25.5,21.4z"/>
			<path class="st6" d="M28.2,24.1c-0.1-0.1-0.4,0-0.5-0.1c-0.1-0.1-0.2-0.2-0.3-0.2c-0.1,0-0.3,0.1-0.3-0.1c-0.1-0.2-0.2-0.2-0.2,0
				c-0.1,0.2-0.2,0.2-0.3,0.3c-0.1,0.1-0.2,0.2,0.1,0.3c0.3,0.1,0.6,0.2,0.7,0.3c0.1,0.1,0.2,0,0.2-0.1c0-0.1-0.1-0.2-0.2-0.2
				c-0.1,0-0.1-0.2,0.1-0.1c0.1,0,0.2,0.1,0.3,0.1c0.1,0,0.5,0,0.7,0.3c0.2,0.3,0.3,0.4,0,0.6c-0.3,0.2-0.6,0.3-0.4,0.6
				s0.3,0,0.6,0.2c0.3,0.2,0.6,0.1,0.8,0c0.2-0.1,0.4,0,0.6,0c0.2,0,0.4-0.1,0.5,0.1c0.1,0.2,0.3,0.3,0.5,0.4
				c0.2,0.1,0.3,0.2,0.4,0.2c0.1,0,0-0.2-0.2-0.4c-0.1-0.1-0.3-0.4-0.4-0.5c-0.2-0.1-0.3-0.2-0.5-0.1c-0.2,0.1-0.6,0-0.8,0
				c-0.1-0.1-0.3-0.1-0.4-0.1s-0.2-0.1,0-0.2c0.2-0.1,0.3-0.3,0.2-0.6c-0.1-0.3-0.4-1.1-0.8-1.4c-0.1-0.1-0.3,0-0.4,0
				c-0.1,0.1-0.2,0.1-0.4,0.1c-0.1,0-0.2,0.1,0,0.1c0.2,0.1,0,0.1,0.2,0.2c0.2,0.1,0.3,0.2,0.3,0.3C28.3,24.1,28.3,24.1,28.2,24.1z"
				/>
			<path class="st6" d="M27.7,24.5c0.2-0.1,0.2,0.1,0.4,0.1c0.2,0,0.2,0.2,0.1,0.2c-0.2,0-0.2-0.1-0.3-0.1
				C27.8,24.6,27.6,24.6,27.7,24.5z"/>
			<path class="st6" d="M29.7,24.5c0,0.1,0.1,0.3,0.1,0.4c0.5-0.4,0.6-0.6,0.7-0.6c0.1-0.1,0.2-0.1,0.5,0.1c0.3,0.2,0.7,0.5,0.8,0.5
				c0.1,0,0.2,0.1,0.3,0.4c0.1,0.1,0.3,0.1,0.3-0.1s0-0.3-0.2-0.4c-0.2-0.1-0.8-0.3-1-0.5c-0.3-0.2-0.5-0.5-0.7-0.4
				C30.1,24.1,29.8,24.4,29.7,24.5z"/>
			<path class="st6" d="M23.9,23.1c-0.2,0.2-0.4,0.5-0.6,0.6c-0.2,0.1-0.2,0.3,0,0.5c0.1,0.1,0.1,0.2,0.2,0.2s0.1,0.1,0.1,0.2
				c0,0.1,0,0.2,0.1,0.2c0.3,0,0.3-0.2,0.4-0.2c0.1,0,0.2,0,0.2-0.1c0-0.1,0.1,0,0.1-0.3c0-0.3-0.1-0.4,0-0.5c0.1-0.1,0.1-0.3,0-0.5
				C24.1,22.8,24,22.9,23.9,23.1z"/>
			<path class="st6" d="M22.9,24.8c-0.1,0,0,0.1,0.1,0.1c0.1-0.1,0-0.2,0-0.2C23,24.8,23,24.8,22.9,24.8z"/>
			<path class="st6" d="M23.3,25c0,0.1,0.1,0.3,0.1,0.4c0,0.1,0.2,0.2,0.4,0.3c0.2,0.1,0.3,0.1,0.4,0.2c0.1,0.1,0.2-0.1,0-0.2
				c-0.2-0.2-0.6-0.5-0.7-0.7C23.2,24.8,23.3,24.9,23.3,25z"/>
			<path class="st6" d="M23.9,25c0.2-0.2,0.4-0.2,0.7-0.1c0.3,0.1,1.2,0.2,1.6,0.2c0.4,0,0.7,0.1,0.7,0.3c0,0.2,0.1,0.5,0.3,0.6
				c0.1,0.1,0.1,0.1,0,0.2c-0.1,0.1,0,0.1-0.4,0.1c-0.4,0-0.7-0.1-0.9-0.1c-0.2,0-0.3,0-0.5-0.1C25.3,26.1,25,26,25,26.3
				c0,0.3,0,0.4,0.2,0.5c0.2,0.1,0.2,0.2,0,0.5c-0.1,0.2-0.7,0.8-0.9,1c-0.2,0.2-0.3,0.6,0,0.8c0.3,0.2,0.9,0.6,0.9,0.8
				c0.1,0,0.2,0,0.3,0.1c0.1,0.1,0.1,0.1,0,0.2c-0.2,0-0.2,0-0.3,0C25.3,30,25.1,30,25.1,30c-0.1,0-0.2,0-0.2-0.2
				c-0.1-0.1-0.6-0.6-0.8-0.8c-0.2-0.1-0.5-0.2-0.3-0.6c0.2-0.3,0.2-0.5,0.2-0.7c0-0.1,0-0.3,0-0.4c0.1-0.1-0.1-0.4-0.4-0.4
				c-0.3,0-0.5,0-0.6-0.2c-0.1-0.1-0.3-0.3-0.5-0.2c0-0.4,0.2-0.9,0.6-1.1c0.2,0.2,0.6,0.5,1.1,0.7c0.4,0.2,0.5,0,0.3-0.3
				C24.3,25.5,24.1,25.2,23.9,25z"/>
			<path class="st6" d="M25.3,28.7c-0.1,0-0.3,0-0.3,0c-0.1-0.1-0.2-0.2-0.3-0.3c-0.1,0-0.4,0.1-0.1,0.3c0.2,0.1,0.4,0.3,0.4,0.4
				C25,29,25.2,28.7,25.3,28.7z"/>
			<path class="st6" d="M25.6,27.3c0,0.1-0.2,0.3-0.3,0.3c-0.1,0-0.3,0.4-0.3,0.6c0,0.3,0.1,0.2,0.3,0.2c0.6,0,1.3,0,1.5,0.1
				c0.2,0.1,0.5,0.1,0.3-0.1c-0.2-0.2-0.9-0.3-1.3-0.3c-0.3,0-0.4,0.1-0.4-0.1c0-0.2,0-0.2,0.1-0.4c0.1-0.1,0.2-0.3,0.1-0.3
				C25.8,27.3,25.6,27.3,25.6,27.3z"/>
			<path class="st6" d="M24.4,29.9c-0.5,0.1-0.7,0.3-0.6,0.7l0.3,0.1C24,30.4,24,30.1,24.3,30C24.5,30,24.4,29.9,24.4,29.9z"/>
			<path class="st6" d="M30.5,26.4c-0.2-0.2-0.3-0.3-0.5-0.3c-0.2,0-0.5,0-0.6,0.1c-0.1,0.1-0.3,0.2-0.5,0.2c-0.2,0-0.3,0.1-0.1,0.2
				c0.2,0.2,0.5,0.4,0.1,0.6c0.1,0.1,0.4,0.3,0.6,0.4c0.3-0.2,0.7-0.5,0.4-0.8c-0.1-0.1-0.2-0.3-0.2-0.4c0-0.1,0-0.1,0.1-0.1
				c0.1,0.1,0.4,0.1,0.5,0.1C30.4,26.5,30.5,26.4,30.5,26.4z"/>
			<path class="st6" d="M30.9,26.5c0,0,0,0.2-0.1,0.3c0.1,0,0.1,0,0.1,0.1c0,0.1,0.2,0.1,0.2-0.1C31.1,26.7,31,26.6,30.9,26.5z"/>
			<path class="st6" d="M31.5,26.9c0.3,0.2,0.2,0.5,0.3,0.7c0.1,0.2-0.1,0.1-0.3,0.1c-0.2,0-0.5,0.1-0.5,0.4c0,0.3-0.1,0.2-0.2,0.1
				s-0.3,0.1-0.4,0c-0.1-0.1-0.3-0.1-0.3,0.1c0,0.2,0.1,0.3,0.2,0.3c0.1,0,0.1,0.1,0.3,0.1c0.1,0,0.2,0,0.2,0.2c0,0.1-0.1,0.4,0,0.5
				c0.1,0.1,0.2,0.1,0.2,0c0-0.1,0.2-0.3,0.3-0.3c0.1-0.1,0.1-0.2,0-0.2c-0.1,0.1-0.2,0-0.3,0c0,0-0.1,0-0.1-0.2
				c0-0.1,0.2-0.3,0.3-0.2c0.1,0.1,0.1,0.1,0.2,0c0-0.1,0.1-0.1,0.1,0c0,0.1,0.1,0.3,0.2,0.2c0.1-0.1,0.1-0.2,0.2-0.4
				c0-0.1,0.1,0,0.2,0.1c0.1,0.1,0,0.2-0.2,0.5c-0.2,0.2-0.6,0.7-1,0.8c-0.2,0.1-0.3,0.1-0.3,0c-0.1-0.1-0.2-0.1-0.2,0.1
				c0,0.1,0,0.2,0.1,0.3c-0.7,0.1-1.4,0.2-1.6,0.1c-0.3-0.1-1.1,0-1.3,0c0.1-0.2,0-0.4-0.1-0.5c-0.1,0-0.2,0-0.2,0.2
				c0,0.1,0.1,0.2-0.2,0.3c-0.3,0-0.4,0.1-0.5,0.3c0,0.2,0.1,0.1,0.1,0c0-0.1,0.3,0,0.6,0c0.3,0,0.8,0.1,0.3,0.1
				c-0.5,0-0.9,0.1-1,0.2c-0.1,0.1-0.4,0.1-0.3-0.1c0-0.2,0.1-0.3,0.2-0.4c0.1-0.1,0.1-0.2,0.1-0.3c0-0.1-0.1,0-0.2,0.1
				c-0.1,0-0.6-0.1-0.5-0.6c-0.1,0-0.2,0-0.3,0c-0.1,0.1-0.4,0-0.2-0.2c0.2-0.2,0.8-0.6,1.3-0.3c0.7,0.3,0.7,0,1,0.2s1,0.4,1.4,0.4
				c0.3,0,0.6-0.3,0.1-0.5c-0.1-0.1-0.3-0.1-0.5-0.1c0-0.1,0-0.2,0-0.3c0.2,0.1,0.5,0.3,0.5,0.2c0-0.2,0.1-0.2,0.3-0.1
				c0.1,0.1,0.4,0.1,0.3-0.1c-0.1-0.2-0.3-0.7,0-0.6c0.3,0,0.3-0.3,0.5-0.2c0.2,0.1,0.6,0.2,0.7,0c0.1-0.2,0-0.5,0.2-0.5
				c0.2,0,0.2-0.1,0.2-0.2C31.4,26.9,31.4,26.8,31.5,26.9z"/>
			<path class="st6" d="M29.1,27.8c-0.1-0.3-0.9-0.6-1.6-0.6c-0.7,0-0.7,0-0.6,0.1c0.1,0.1,0.1,0.1,0.1,0.2c0,0.1,0,0.1,0.3,0.1
				c0.2,0,0.6-0.1,0.8-0.1c0.2,0.1,0.3,0,0.4,0c0.1,0,0.3,0.1,0.2,0.2c-0.1,0.1,0,0.1,0.1,0.2C28.8,27.9,29.3,28.1,29.1,27.8z"/>
			<path class="st6" d="M27.9,27.8c-0.1,0-0.3,0.1-0.2,0.1c0.1,0,0.2,0,0.3,0C28,27.9,28,27.8,27.9,27.8z"/>
			<path class="st6" d="M28.3,28.1c0.1,0,0.5,0.1,0.6,0.2c0.2,0.1,0.1,0.2-0.1,0.1c-0.1,0-0.3-0.1-0.5-0.1c-0.1,0-0.2-0.1-0.2-0.1
				S28.3,28.1,28.3,28.1z"/>
			<path class="st6" d="M25.9,27.9c0.1-0.1,0.3-0.7,0.3-0.9c0.4-0.1,1.3-0.3,1.5-0.3c0,0.1,0.1,0.2,0.1,0.2c-0.8,0-1.2,0.1-1.4,0.3
				c-0.1,0.2,0,0.3,0.1,0.3c0.2,0,0.3,0,0.3,0.2s0.2,0.3,0.5,0.1c0.1,0.1,0.1,0.2,0.1,0.3c0,0.1,0.2,0.1,0.3,0.1
				c0.1,0,0.4,0.2,0.4,0.3c0,0.1,0,0.2,0.1,0.1c0.1-0.1,0.2,0,0.1,0.1c0,0.1-0.3,0.2-0.5,0c-0.1-0.2-0.9-0.7-1.4-0.7
				C26,28.1,25.7,28,25.9,27.9z"/>
			<path class="st6" d="M31.2,29.8c-0.1,0-0.4,0.1-0.4,0.1c-0.1,0.1-0.1,0.2-0.2,0.2c-0.1,0,0,0.1,0.2,0.1c0.2-0.1,0.4-0.2,0.5-0.3
				C31.3,29.9,31.3,29.8,31.2,29.8z"/>
			<path class="st6" d="M21.5,29c0,0.2,0,0.3,0,0.3c0.1,0,0.1,0.2,0.2,0.2c0.1,0,0.1-0.2,0.1-0.3c0-0.1,0.1-0.2-0.1-0.3
				C21.5,28.8,21.5,28.8,21.5,29z"/>
		</g>
		<g>
			<path class="st5" d="M27,22.3c0,0.1,0,0.4,0,0.6c0,0.1,0.2,0.1,0.2-0.1c0-0.2,0-0.4-0.1-0.4C27.1,22.3,27,22.2,27,22.3z"/>
			<path class="st5" d="M24.1,27.6c0,0.1-0.1,0.3-0.1,0.4c0,0.1,0.2,0.1,0.2,0c0-0.1,0.1-0.3,0.1-0.3C24.4,27.6,24.2,27.5,24.1,27.6
				z"/>
			<path class="st5" d="M25.2,27.1c0.1-0.2-0.1-0.4-0.3-0.5c-0.2,0-0.4,0.1-0.2,0.2c0.2,0.1,0.3,0.1,0.3,0.2
				C25,27.2,25.1,27.2,25.2,27.1z"/>
		</g>
	</g>
	<g>
		<path class="st3" d="M26.4,34.2"/>
		<path class="st3" d="M30.5,32.5c-0.7,0-0.7,1.1,0,1.1C31.2,33.6,31.2,32.5,30.5,32.5z"/>
		<path class="st3" d="M22.3,32.5c0.7,0,0.7,1.1,0,1.1C21.6,33.6,21.5,32.5,22.3,32.5z"/>
		<path class="st3" d="M25.9,33.8c-0.3-0.9,1.2-0.9,0.9,0c0.9-0.3,0.9,1.2,0,0.9c0.3,0.9-1.2,0.9-0.9,0C25,35,25.1,33.5,25.9,33.8z"
			/>
	</g>
</g>
</svg>
