<?xml version="1.0" encoding="utf-8"?>
<!-- Generator: Adobe Illustrator 22.1.0, SVG Export Plug-In . SVG Version: 6.00 Build 0)  -->
<svg version="1.1" id="layer_1" xmlns="http://www.w3.org/2000/svg" xmlns:xlink="http://www.w3.org/1999/xlink" x="0px" y="0px"
	 viewBox="0 0 216 144" style="enable-background:new 0 0 216 144;" xml:space="preserve">
<style type="text/css">
	.st0{fill:#FFFFFF;}
	.st1{fill:#D14A48;}
	.st2{fill:#397C49;}
	.st3{fill:#3E9CD4;stroke:#000000;stroke-width:0.125;}
	.st4{fill:#EDB544;stroke:#000000;stroke-width:0.125;}
	.st5{fill:none;stroke:#000000;stroke-width:0.125;}
	.st6{fill:#FFFFFF;stroke:#000000;stroke-width:0.125;}
	.st7{fill:#786E55;stroke:#000000;stroke-width:0.125;}
	.st8{fill:#AF6A35;stroke:#000000;stroke-width:0.125;}
	.st9{fill:#397C49;stroke:#000000;stroke-width:0.125;}
	.st10{fill:#D14A48;stroke:#000000;stroke-width:0.125;}
	.st11{fill:#608641;stroke:#A8BC60;stroke-width:6.250000e-02;}
	.st12{fill:#8D5629;stroke:#000000;stroke-width:0.125;}
	.st13{fill:#E9AB80;stroke:#000000;stroke-width:0.125;}
	.st14{fill:#608641;stroke:#000000;stroke-width:0.125;}
</style>
<rect x="72" y="0.5" class="st0" width="72" height="144"/>
<rect x="144" y="0.5" class="st1" width="72" height="144"/>
<rect y="0.5" class="st2" width="72" height="144"/>
<g>
	<g>
		<path class="st3" d="M104,86.8c-2.3,0.8-3.3-1.4-3.7-3c-0.3,1.4-0.2,2.2-1.2,1.9c-0.9-0.3-3.8-1.8-4.5-2.1
			C94,83.3,93.8,84,95,84.7c1.1,0.7,2.2,1.5,2.2,2c0,0.5-1,1.1-1.3,1.3c1.7,0,3.6,0.4,4.2,0.6c1.1,0.3,1.2,1.2-0.6,2.6
			c4.7-0.6,4.5,2.1,6.9,2c1.8,0,3.7,0,4.5,0c2.2-0.1,0.6-1.1,2.7-1.7c1.5-0.4,2.9-1,4.1-1.4c-1.2-0.3-1.8-0.6-1.8-0.9
			s2.3-1.3,3.4-1.9c-0.4-0.2-1.3-0.3-2.5,0.1c-1.2,0.4-3.2,0.7-5.6,0.4C108.6,87.3,105.8,87.8,104,86.8z"/>
		<g>
			<path class="st4" d="M112.2,91.8c0.3,0.5,1,0.4,1.3,0c0.3-0.5,0.1-1.1-0.2-1.3c0.2-0.7,0.4-2.4,0-3c0.3-0.2,0.5-0.8,0.2-1.3
				c-0.3-0.5-1-0.6-1.3,0c-2-0.5-6.3-0.3-7.7,0c-0.3-0.5-1-0.4-1.3,0c-0.3,0.5-0.1,1.1,0.2,1.3c-0.4,0.6-0.2,2.3,0,3
				c-0.3,0.2-0.5,0.8-0.2,1.3c0.3,0.5,1,0.6,1.3,0C106.1,92.6,110.5,92.6,112.2,91.8z"/>
			<g>
				<path class="st5" d="M103.9,90.8c0.5-0.3,0.9,0.4,0.6,1"/>
				<path class="st5" d="M104.4,86.1c0.4,0.6-0.1,1.3-0.6,1"/>
				<path class="st5" d="M112.7,90.8c-0.5-0.3-0.9,0.4-0.6,1"/>
				<path class="st5" d="M112.2,86.1c-0.4,0.6,0.1,1.3,0.6,1"/>
				<path class="st5" d="M104.6,86.1c1.7-0.1,2.2,6.5,4,6.3"/>
				<path class="st5" d="M105.7,85.9c1.7-0.2,2.5,6.7,4.4,6.4"/>
				<path class="st5" d="M106.9,85.9c1.7-0.2,2.7,6.6,4.3,6.2"/>
			</g>
		</g>
		<g>
			<path class="st6" d="M96,87c-1,0-1,1.8,0,1.8C97,88.8,97,87,96,87z"/>
			<path class="st6" d="M100.1,83c-1,0-1,1.8,0,1.8C101.1,84.8,101.1,83,100.1,83z"/>
			<path class="st6" d="M117.1,89.3c-1,0-1,1.8,0,1.8C118.2,91.1,118.2,89.3,117.1,89.3z"/>
		</g>
		<g>
			<path class="st7" d="M94.6,82.9c-0.6-0.4-1.4-0.2-1.6,0.2c-0.2,0.4,0.4,1.2,1,1.6c0.6,0.3,1.2,0.1,1.4-0.2
				C95.5,84.1,95.3,83.3,94.6,82.9z"/>
			<path class="st7" d="M99.2,90.1c-0.7,0.2-1.1,1-1.1,1.4c0.1,0.5,1,0.6,1.6,0.3c0.6-0.3,0.9-1,0.8-1.3
				C100.3,90.1,99.9,89.9,99.2,90.1z"/>
			<path class="st7" d="M118.8,88.2c0.7-0.2,1.4-1,1.3-1.5c-0.2-0.6-1.1-0.5-1.7-0.2c-0.6,0.2-1,0.9-0.9,1.2
				C117.7,88.2,118.1,88.5,118.8,88.2z"/>
		</g>
	</g>
	<g>
		<g>
			<path class="st8" d="M120.8,93.1c0.1-0.4-0.2-1.5-0.5-1.8c0.4-0.1,0.5-0.7,0.2-1c-0.3-0.2-0.6-0.1-0.7,0.1
				c-0.1,0.2-0.1,0.8,0.3,0.9c0,0.4,0.4,1.7,0.1,2.2c0.5,0,1.4,0.4,1.7,0.6c-0.1,0.4,0.3,0.8,0.5,0.7c0.2,0,0.5-0.3,0.5-0.7
				c0-0.5-0.6-0.7-0.8-0.3C121.8,93.6,121,93.2,120.8,93.1z"/>
			<path class="st8" d="M128,86.1c0-0.4-0.6-1.3-0.9-1.5c0.3-0.2,0.3-0.8-0.1-1c-0.3-0.1-0.6,0.2-0.7,0.4s0.1,0.8,0.5,0.7
				c0.1,0.3,0.8,1.4,0.7,2c0.5-0.2,1.5-0.2,1.8,0c0,0.5,0.5,0.6,0.7,0.5c0.2-0.1,0.4-0.4,0.3-0.8c-0.2-0.5-0.7-0.4-0.9,0
				C129.1,86.2,128.3,86.2,128,86.1z"/>
			<path class="st8" d="M132.1,76.8c-0.2-0.3-0.8-0.9-1.1-1c0.2-0.4,0-0.9-0.5-0.8c-0.3,0.1-0.5,0.5-0.5,0.7c0,0.2,0.4,0.6,0.7,0.4
				c0.3,0.2,1,1,1.1,1.6c0.4-0.4,1.3-0.7,1.7-0.7c0.2,0.4,0.7,0.3,0.8,0.1c0.1-0.2,0.2-0.6-0.1-0.9c-0.3-0.3-0.8,0-0.8,0.5
				C133.2,76.5,132.4,76.6,132.1,76.8z"/>
		</g>
		<g>
			<path class="st9" d="M131.7,77.9c0.3-1.4,0.3-2.7-0.4-3.9c-0.8-1.4,0-3.1-0.4-3.9c0.5,0.6,1.5,2,1.7,2.7c0.4-0.9,1.4-2.7,2.2-2.9
				c-0.1,0.5,0.1,1.3,0.2,1.8c0.2,0.9-0.7,2.3-1.5,3.1c-0.5,0.5-1.3,0.9-1.5,3.4"/>
			<path class="st9" d="M131.9,77.7c0.4-3.5-0.4-7.6,1.1-9c1.1,1.9,1.1,4.3,0.4,5.3C132.7,75.1,132,76.5,131.9,77.7z"/>
			<path class="st9" d="M126.6,87.5c1-1,1.8-1.7,1.6-3.5c-0.3-2.5,0.3-5.3,2.2-5.8c0.1,0.7,0.2,2.5,0.2,3.2c0.8-0.9,1.4-2,3-2.1
				c-1.2,1.4-1.6,4.7-3.2,5.5c-1.5,0.7-2.8,2.1-3.5,3.3"/>
			<path class="st9" d="M127.3,87.1c0.6-0.9,1.1-1.4,1.4-3.5c0.4-2.3,1.6-5.5,3.3-6.4c0.3,1.7-0.2,4.1-1.5,5.9
				C129.3,84.8,127.7,86.5,127.3,87.1z"/>
			<path class="st9" d="M119.8,93.5c1.3-1,1.7-1.6,2-2.7c0.8-2.7,3.1-3.7,3.2-4.8c0.3,1.4,0.1,2.9-0.3,3.7c0.6-0.6,1.9-1.2,2.8-1.3
				c-0.5,1.2,0,2.8-2,3.5c-2,0.8-2.9-0.4-5.8,2.1"/>
			<path class="st9" d="M119.9,93.6c1.2-1.1,2.7-2.9,3.6-4.1c0.8-1.2,2.5-2.9,4.2-2.9c-0.7,2.4-2.5,4.5-4.7,5.3
				C120.7,92.8,120.7,93.1,119.9,93.6z"/>
			<path class="st9" d="M112.2,95.5c2-0.4,2.4-3.7,6.3-3.1c-0.6,0.6-1,2.2-1.9,2.7c0.9,0.2,2.3,0.5,3.3,1.2c-1.1-0.2-3.6,2.1-5.6,1
				C112.3,96.1,112.6,95.9,112.2,95.5z"/>
			<path class="st9" d="M113.1,96.5c1.6,1.1,5.9-0.4,7.4-3.2c-1.8-0.2-3.9,0.7-5.1,1.4c-1.2,0.7-2.3,0.7-3.2,0.5
				c-2.5-0.5-5.4-0.5-8.3,1.9c-0.2,0.2,0.2,0.8,0.5,0.5C106.9,95.3,110.2,94.4,113.1,96.5z"/>
		</g>
	</g>
	<g>
		<g>
			<path class="st8" d="M95.8,93.2c-0.1-0.8-0.1-1.4-0.3-1.8c-0.2-0.4-0.3-1.4,0.1-1.4c0.4,0,0.6,0.7,0.5,1.2
				c-0.2,0.6,0,1.9,0.3,2.3"/>
			<path class="st8" d="M95.6,91.2c-0.5-0.2-0.6,0.1-0.4,0.5c0.2,0.6,0.9,0.6,1.1,0.2c0.3-0.6,0.1-0.9-0.1-0.8
				C96,91.2,95.7,91.2,95.6,91.2z"/>
			<path class="st8" d="M95.7,93.4c-0.7,0.2-1.1,0.2-1.5,0.1c-0.4-0.1-1.2,0.1-1.1,0.5c0.1,0.4,0.7,0.5,1.1,0.2
				c0.4-0.3,1.5-0.5,2-0.3"/>
			<path class="st8" d="M93.9,93.7c-0.3-0.5-0.1-0.7,0.3-0.6c0.5,0.1,0.8,0.8,0.5,1.2c-0.4,0.5-0.7,0.4-0.7,0.1
				C94.1,94.1,94,93.9,93.9,93.7z"/>
			<path class="st8" d="M88.6,86.1c0.1-0.8,0.2-1.4,0.1-1.9c-0.1-0.5,0-1.4,0.4-1.3c0.4,0.1,0.5,0.8,0.2,1.3
				c-0.3,0.5-0.3,1.8-0.1,2.4"/>
			<path class="st8" d="M88.8,83.9c-0.4-0.3-0.6-0.1-0.5,0.4c0.1,0.6,0.7,0.9,1,0.5c0.4-0.5,0.3-0.9,0.1-0.8
				C89.1,84.1,88.9,84,88.8,83.9z"/>
			<path class="st8" d="M88.6,86.2c-0.7,0-1.2,0-1.6-0.1c-0.4-0.2-1.2-0.2-1.2,0.2c0,0.4,0.6,0.6,1.1,0.4c0.5-0.2,1.9-0.1,2.3,0.2"
				/>
			<path class="st8" d="M86.8,86.2c-0.2-0.5,0-0.7,0.4-0.5c0.5,0.2,0.6,1,0.3,1.2c-0.5,0.4-0.8,0.2-0.7,0
				C86.8,86.6,86.8,86.3,86.8,86.2z"/>
			<path class="st8" d="M84.1,76.9c0.4-0.7,0.7-1.3,0.8-1.7c0.1-0.5,0.5-1.3,0.8-1.1c0.3,0.2,0.1,1-0.3,1.3c-0.4,0.3-1,1.5-1.1,2.6"
				/>
			<path class="st8" d="M85.2,75c-0.3-0.5-0.5-0.4-0.6,0.1c-0.1,0.6,0.4,1.1,0.8,0.9c0.6-0.2,0.6-0.7,0.3-0.7
				C85.4,75.3,85.2,75.1,85.2,75z"/>
			<path class="st8" d="M83.9,76.9c-0.6-0.4-1.1-0.7-1.3-1.1c-0.3-0.4-1-0.9-1.1-0.5c-0.2,0.4,0.3,0.9,0.8,1c0.5,0.1,1.7,1,1.9,1.5"
				/>
			<path class="st8" d="M82.3,75.8c0-0.6,0.3-0.6,0.6-0.2c0.3,0.5,0.1,1.2-0.3,1.2c-0.6,0.1-0.8-0.3-0.6-0.4
				C82.2,76.2,82.3,76,82.3,75.8z"/>
		</g>
		<g>
			<path class="st9" d="M84.5,79c-0.1-1.1-0.9-3.8-0.5-4.3c0.4-0.5,0.4-0.6,0.1-0.9c-0.3-0.2,0-0.7,0.4-0.9c0.6-0.3,0.9-0.9,0.4-0.8
				c-0.8,0.1-1.2-0.1-0.8-0.4c0.5-0.4,1.1-0.8,1-1.4c-0.1-0.2-0.3-0.3-0.6-0.2c-0.3,0.1-0.6-0.1-0.2-0.3c0.4-0.3,0.1-0.7,0.4-0.9
				c0.3-0.2,0.2-0.6,0-0.5c-0.2,0-0.7,0.6-0.9,0.3c-0.2-0.3-0.4-0.6-0.7,0c-0.3,0.8,0.1,1.2-0.1,1.6c-0.2,0.4-0.5,0.5-0.7,0.1
				c-0.3-0.4-0.6-0.3-0.7,0.2c0,0.5,0.2,0.8,0.4,1.2c0.3,0.5,0.2,0.8-0.3,0.5c-0.5-0.3-0.7-0.3-0.7,0.2c0,0.5,0.2,0.6,0.8,0.9
				s0.7,0.4,0.8,0.8c0.1,0.7,0.6,0.5,0.8,1.4c0.2,0.9,0.6,2.3,0.6,3.6"/>
			<path class="st9" d="M90.1,87c-1.7-1.1-2.4-1.9-2.4-3.1c0-1,0-1.4,0.3-1.8c0.3-0.4,0.1-0.8-0.2-0.5C87.3,82,87,81.9,87,81.3
				c0.1-0.6,0.3-1.4,0.1-1.9c-0.2-0.5-0.7-0.5-0.8,0.2c-0.1,0.3-0.2,0.6-0.5,0.6c-0.3,0-0.2-0.7-0.1-1.1c0.1-0.4-0.2-0.7-0.4-0.4
				c-0.2,0.4-0.6,0.7-0.8,0.2c-0.2-0.5-0.6-0.2-0.5,0.1c-0.4-0.2-0.5,0.2-0.3,0.5c0.2,0.3,0.3,0.6,0,0.5c-0.3-0.1-0.8-0.3-0.7,0.2
				c0.1,0.5,1,0.9,1.6,1c0.6,0.1,0.6,0.5,0.4,0.6c-0.3,0.1-0.4,0.1-0.8,0c-0.4-0.1-0.5,0.3-0.2,0.7c0.3,0.4,1.2,0.5,1.6,0.6
				c0.6,0.1,0.7,0.6,0.4,0.6c-0.3,0-0.8-0.2-0.8,0.1s0.7,0.7,1.2,0.6c0.5-0.1,0.6,0.1,0.7,0.3c0.7,1.2,2.1,2.6,3,2.9"/>
			<path class="st9" d="M97.1,93.9c-1.7-0.6-2.7-2.4-2.8-3.4c-0.1-1-0.2-0.7-0.4-0.5c-0.1,0.2-0.5,0.5-0.6-0.2
				c-0.2-0.9-0.1-1.7-0.4-2.1c-0.3-0.4-0.6-0.6-0.8,0.2c-0.2,0.8-0.5,0.3-0.5-0.3c0-0.6,0-1.3-0.2-1.5c-0.2-0.3-0.4-0.3-0.4,0.3
				c0,0.6-0.2,0.7-0.5,0.2c-0.3-0.6-0.7-0.9-0.6-0.3c0,0.6,0.2,1.2-0.2,1.1c-0.5,0-0.8,0.1-0.4,0.5c0.4,0.4,0.6,0.5,0.9,0.6
				c0.2,0.1,0.3,0.4,0,0.6c-0.3,0.1-0.5,0-0.8-0.1c-0.2-0.1-0.6,0-0.2,0.5c0.4,0.5,0.9,0.7,1.6,0.7s1,0.4,0.5,0.6
				c-0.4,0.3-0.7,0.3-1.2,0.2c-0.5-0.1-0.6,0.4,0.1,0.8s1.3,0.3,1.8,0.1c0.6-0.2,0.6,0,0.5,0.2c-0.1,0.2-0.1,0.5,0.5,0.3
				c0.5-0.2,1-0.4,1.6,0.1c0.6,0.5,1.3,1.2,2.1,1.7"/>
			<path class="st9" d="M112.5,97.3c-2.5-2.1-5.5-3.2-8-2.4c-0.6,0.2-1,0.4-1.3-0.3c-0.3-0.7-0.5-0.4-0.6-0.2
				c-0.1,0.2-0.5,0.2-0.9-0.5c-0.3-0.7-0.6-0.9-1-0.9c-0.4,0-0.6,0.3-0.3,0.8c0.2,0.5,0,0.8-0.3,0.4c-0.3-0.4-0.8-1-1.2-1
				c-0.4,0-0.8,0.1-0.5,0.5c0.3,0.5,0.3,0.9-0.2,0.5c-0.5-0.4-0.8-0.6-1.2-0.6c-0.6,0.1-0.2,0.8-0.7,0.9c-0.3,0.1-0.7,0.3-0.9,0.6
				c-0.2,0.2-0.2,0.8,1.1,0.6c1.2-0.2,1.3-0.2,1.2,0.3c-0.1,0.5-0.1,1,0.6,0.8c0.9-0.2,1.4-1,1.7-0.7c0.2,0.2,0,0.6-0.2,0.8
				c-0.3,0.4,0.4,0.7,0.8,0.3c0.4-0.4,0.9-1,1.2-0.9c0.3,0.1,0,0.5-0.1,0.8c-0.1,0.2,0,0.8,0.5,0.5c0.5-0.3,0.8-2,2.4-1.8
				c0.5-1,4.1-1.5,7.1,1.4c0.2,0.2,0.5,0.2,0.7,0.2C112.3,97.5,112.7,97.6,112.5,97.3z"/>
		</g>
	</g>
	<g>
		<g>
			<path class="st3" d="M108.6,97.5c0.7,0.6,1.5,1.1,1.6,1.7c-0.2,0.1-0.3,0.3-0.5,0.6c-0.4-0.6-1.1-1.1-1.6-1.7
				C108.2,98,108.5,97.7,108.6,97.5z"/>
			<path class="st3" d="M106.8,96.4c-0.7,0.8-2.1,1.1-2.5,2.7c0.3-0.1,0.6-0.2,0.9-0.2c0.1-0.8,1.6-1.6,2.2-2.3
				C107.3,96.6,107,96.5,106.8,96.4z"/>
			<path class="st3" d="M107.4,96.6c-0.6-0.1-0.9-0.4-0.9-1.3c0-1,0.1-1.2,0.9-1.2c0.3,0,0.2,0.6,0.2,1.2
				C107.7,95.9,107.8,96.7,107.4,96.6z"/>
		</g>
		<g>
			<path class="st10" d="M109.3,96.4c0.7,0.8,2.2,1.1,2.5,2.7c-0.3-0.1-0.6-0.2-0.9-0.2c-0.1-0.7-1.3-1.5-2-2.1c0-0.1,0-0.1,0-0.2
				C109,96.6,109.2,96.5,109.3,96.4z"/>
			<path class="st10" d="M108.9,96.6c-0.3,1.5-1.8,2.3-2.5,3.2c-0.2-0.3-0.3-0.5-0.5-0.6c0.2-0.9,1.8-1.6,2.3-2.5
				C108.5,96.7,108.9,96.6,108.9,96.6z"/>
			<path class="st10" d="M108.4,96.7c0.8,0,1.1-0.3,1.1-1.3c0-1.1-0.2-1.2-1.1-1.3c0.3,0,0.2,0.6,0.2,1.2
				C108.7,95.9,108.8,96.7,108.4,96.7z"/>
		</g>
		<g>
			<path class="st6" d="M108.3,96.7c-0.5,1-2.1,1.6-2.3,2.6c-0.2-0.2-0.4-0.3-0.7-0.3c0.1-0.8,1.6-1.7,2.2-2.3
				C107.6,96.7,108.2,96.7,108.3,96.7z"/>
			<path class="st6" d="M108.6,97.5c0.7,0.6,1.5,1.1,1.6,1.7c0.2-0.2,0.4-0.3,0.7-0.3c-0.1-0.7-1.3-1.5-2-2.1
				C108.8,97,108.7,97.4,108.6,97.5z"/>
			<path class="st6" d="M108.4,96.7c0.3,0.1,0.3-0.8,0.3-1.4c0-0.6,0-1.2-0.2-1.2c-0.1,0-0.3,0-0.4,0c-0.2,0-0.5,0-0.6,0
				c0.3,0,0.2,0.6,0.2,1.2c0,0.6,0.1,1.4-0.3,1.3c0.2,0,0.4,0,0.7,0C108.2,96.7,108.3,96.7,108.4,96.7z"/>
		</g>
	</g>
	<g>
		<g>
			<path class="st10" d="M91.4,74c-0.4,0.5-1.3,0-1.6-0.5c-0.4-0.4-0.7-1.2,0-2c0.6-0.6,1.3-0.3,1.7,0.5C91.8,73,91.7,73.6,91.4,74z
				"/>
			<path class="st10" d="M88.8,72c-0.4-0.4-0.4-0.7-0.2-1c0.3-0.3,0.5-0.3,0.8,0.1c0.4,0.5,0.4,0.9,0.2,1
				C89.5,72.4,89.2,72.4,88.8,72z"/>
			<path class="st10" d="M88.8,72.5c-0.4-0.1-0.5-0.3-0.4-0.6c0.1-0.3,0.3-0.3,0.6-0.1c0.4,0.2,0.5,0.4,0.4,0.6
				C89.4,72.5,89.2,72.6,88.8,72.5z"/>
			<path class="st10" d="M90.1,70.7c0-0.7,0.1-0.9,0.5-0.8c0.4,0,0.5,0.3,0.4,0.8c-0.1,0.6-0.2,0.9-0.5,0.9
				C90.3,71.5,90.1,71.3,90.1,70.7z"/>
			<polygon class="st10" points="89,69 89.6,70.3 89.3,70.4 88.7,69.2 			"/>
			<path class="st10" d="M88.7,68.3c-0.6,0-0.6,1,0,1C89.3,69.3,89.3,68.3,88.7,68.3z"/>
			<path class="st10" d="M89.4,71.4c-0.4-0.6-0.3-0.9,0.1-1.1c0.3-0.2,0.6-0.1,0.8,0.4c0.3,0.7,0.2,1.1,0,1.2
				C90,72,89.7,71.9,89.4,71.4z"/>
		</g>
		<g>
			<line class="st5" x1="90.2" y1="76.4" x2="89.6" y2="76.1"/>
			<line class="st5" x1="92.9" y1="73.1" x2="93" y2="74"/>
			<line class="st5" x1="94.8" y1="76.6" x2="95.4" y2="75.8"/>
			<line class="st5" x1="92.5" y1="80" x2="93.7" y2="79.5"/>
			<line class="st5" x1="90.8" y1="78.8" x2="91.8" y2="78.6"/>
			<line class="st5" x1="91.5" y1="78.3" x2="90.6" y2="78.4"/>
			<line class="st5" x1="96.7" y1="77.5" x2="96.4" y2="76.9"/>
			<line class="st5" x1="94.8" y1="81.6" x2="95.6" y2="81.4"/>
			<line class="st5" x1="97.2" y1="82.6" x2="97.7" y2="82.1"/>
			<line class="st5" x1="97.6" y1="82.8" x2="98.1" y2="82.2"/>
			<line class="st5" x1="102.1" y1="84.5" x2="102.8" y2="83.7"/>
			<line class="st5" x1="104.5" y1="85" x2="105.3" y2="84.1"/>
			<line class="st5" x1="102.6" y1="79.3" x2="101.6" y2="78.7"/>
			<line class="st5" x1="103.1" y1="77.8" x2="103.7" y2="78.9"/>
			<line class="st5" x1="103.6" y1="77.7" x2="103.9" y2="78.9"/>
			<line class="st5" x1="105.9" y1="78.2" x2="106" y2="79.3"/>
			<line class="st5" x1="106.5" y1="78.3" x2="106.5" y2="79.4"/>
			<line class="st5" x1="106.7" y1="84.6" x2="106.9" y2="83.9"/>
			<line class="st5" x1="107.3" y1="83.8" x2="107.1" y2="84.8"/>
			<path class="st5" d="M116.7,85c0,0.3,0.2,0.8,0.4,0.9"/>
			<path class="st5" d="M118.8,81.6c0-0.2,0.1-0.9,0.2-1.2"/>
			<line class="st5" x1="120.3" y1="80.6" x2="120.7" y2="79.5"/>
			<line class="st5" x1="120.4" y1="85.3" x2="121.3" y2="85.7"/>
			<line class="st5" x1="120.7" y1="85.1" x2="121.5" y2="85.3"/>
			<line class="st5" x1="122.4" y1="83.9" x2="123.4" y2="83.7"/>
			<line class="st5" x1="113" y1="85.1" x2="114" y2="85.7"/>
			<line class="st5" x1="113.3" y1="85" x2="114.5" y2="85.3"/>
		</g>
		<g>
			<path class="st9" d="M95,79.8c-2.6-0.1-4.7-1.7-4.9-3.7c-0.2-1.9,1.4-3.1,2.8-2.3c2.4,1.3,1.8,4.2,3.2,4.4L95,79.8z"/>
			<path class="st9" d="M101.8,80.3c-1.2-1.4-4-4-5.8-2.6c-1.8,1.3-1.2,2.9-0.7,3.5c0.7,1,4,1.6,6.2,0.7L101.8,80.3z"/>
			<path class="st9" d="M110.5,81.1c-3.6-1.7-6.1-3.2-8.1-1.9c-2,1.4-1.3,3.4-0.1,4.4c1.2,1,4.8,0.5,6.4,0.1
				C110.4,83.2,110.8,82.3,110.5,81.1z"/>
			<path class="st9" d="M116.1,83.2c2,0.1,1.9-0.6,2.4-1.4c0.6-0.9,2.1-2,3.3-0.9c1.3,1.2,1.5,2.8,0,3.8c-1.5,1-2.6,1.3-4.2,0.7
				c-1.6-0.6-2.5-0.9-2.9-1C115.5,84,115.9,83.6,116.1,83.2z"/>
			<path class="st9" d="M110.9,88c0.2-4.4,5.8-1.7,5.4-6c-0.2-1.9-3.1-1.7-5.5-1c-2.4,0.7-2.5,3.7-2.6,7.1c0,0.2,0.5,0.2,1.4,0.2
				C110.4,88.3,110.9,88.4,110.9,88z"/>
		</g>
		<g>
			<path class="st10" d="M122.3,80.6c-0.7,0.5-0.9,1.1-0.7,1.6c0.2,0.5,1.1,0.4,1.6,0c0.6-0.4,0.9-1.2,0.6-1.7
				C123.7,80,122.9,80.2,122.3,80.6z"/>
			<polygon class="st10" points="125.7,78.8 124.8,79.9 124.6,79.6 125.5,78.6 			"/>
			<path class="st10" d="M126.2,78.4c-0.2-0.6-1-0.3-0.8,0.3C125.5,79.3,126.4,79,126.2,78.4z"/>
			<path class="st10" d="M123.3,79.4c0.3-0.6,0.5-0.8,0.8-0.5c0.3,0.2,0.3,0.6,0,1c-0.3,0.5-0.5,0.7-0.8,0.5
				C123.1,80.3,123,79.9,123.3,79.4z"/>
			<path class="st10" d="M124.4,80.5c0.6-0.1,0.8-0.1,0.9,0.4c0.1,0.4-0.2,0.6-0.7,0.6c-0.5,0-0.8,0-0.9-0.4
				C123.8,80.9,123.9,80.6,124.4,80.5z"/>
			<path class="st10" d="M124,79.8c0.4-0.5,0.7-0.5,0.9-0.1c0.2,0.4,0.1,0.7-0.3,0.9c-0.5,0.2-0.7,0.4-0.9,0.1
				C123.5,80.5,123.6,80.2,124,79.8z"/>
		</g>
		<g>
			<path class="st11" d="M91.6,75.2c-0.5,0.3-0.3,0.8,0.2,0.6C92.3,75.5,92.1,74.9,91.6,75.2z"/>
			<path class="st11" d="M93,75c-0.5,0.2-0.4,0.8,0.1,0.6C93.7,75.4,93.5,74.8,93,75z"/>
			<path class="st11" d="M91.2,76.7c-0.1,0.6,0.5,0.7,0.5,0.1C91.8,76.1,91.3,76.1,91.2,76.7z"/>
			<path class="st11" d="M92.5,76.7c-0.3,0.4,0,0.7,0.3,0.3S92.8,76.2,92.5,76.7z"/>
			<path class="st11" d="M94.1,76.3c-0.5,0.1-0.4,0.7,0.1,0.6C94.8,76.8,94.7,76.2,94.1,76.3z"/>
			<path class="st11" d="M93.9,78.1c-0.3,0.5,0,0.9,0.3,0.4C94.5,78,94.3,77.6,93.9,78.1z"/>
			<path class="st11" d="M92.5,78.1c-0.3,0.6,0.2,0.9,0.5,0.3C93.3,77.9,92.8,77.6,92.5,78.1z"/>
			<path class="st11" d="M96.1,79.3c-0.3,0.6,0.2,0.9,0.5,0.3C96.8,79,96.3,78.7,96.1,79.3z"/>
			<path class="st11" d="M97.1,78.3c-0.4,0.5,0,0.9,0.4,0.4C97.9,78.2,97.5,77.8,97.1,78.3z"/>
			<path class="st11" d="M96.5,80.8c0,0.6,0.5,0.7,0.5,0C97,80.2,96.5,80.2,96.5,80.8z"/>
			<path class="st11" d="M97.8,80.3c-0.2,0.6,0.3,0.8,0.5,0.2C98.5,79.8,98,79.6,97.8,80.3z"/>
			<path class="st11" d="M99.7,80.6c-0.2,0.6,0.3,0.8,0.5,0.2C100.4,80.2,99.9,80,99.7,80.6z"/>
			<path class="st11" d="M98.7,81.6c0,0.6,0.5,0.7,0.5,0C99.2,80.9,98.7,80.9,98.7,81.6z"/>
			<path class="st11" d="M102.8,81c-0.3,0.6,0.2,0.9,0.5,0.3C103.5,80.7,103.1,80.4,102.8,81z"/>
			<path class="st11" d="M103.3,82.8c0.1,0.6,0.7,0.5,0.5-0.2C103.7,82,103.2,82.2,103.3,82.8z"/>
			<path class="st11" d="M104.1,79.7c-0.3,0.6,0.2,0.9,0.5,0.3C104.8,79.5,104.3,79.1,104.1,79.7z"/>
			<path class="st11" d="M105,81.3c-0.4,0.5,0,0.9,0.4,0.4C105.7,81.2,105.3,80.8,105,81.3z"/>
			<path class="st11" d="M106.3,80.1c-0.4,0.5,0,0.9,0.4,0.4C107,80,106.7,79.6,106.3,80.1z"/>
			<path class="st11" d="M105.6,83.2c0.2,0.6,0.7,0.3,0.5-0.3C105.9,82.3,105.4,82.6,105.6,83.2z"/>
			<path class="st11" d="M106.8,81.8c-0.2,0.6,0.3,0.8,0.5,0.2C107.5,81.4,107,81.2,106.8,81.8z"/>
			<path class="st11" d="M110.2,85.4c-0.5-0.3-0.8,0.3-0.3,0.6C110.4,86.4,110.7,85.7,110.2,85.4z"/>
			<path class="st11" d="M109.4,83.6c-0.5-0.3-0.8,0.3-0.3,0.6C109.5,84.6,109.9,83.9,109.4,83.6z"/>
			<path class="st11" d="M112.4,83.4c-0.5-0.3-0.9,0.4-0.4,0.7C112.5,84.4,112.9,83.7,112.4,83.4z"/>
			<path class="st11" d="M113,81.5c-0.5-0.2-0.7,0.4-0.2,0.6C113.3,82.3,113.5,81.7,113,81.5z"/>
			<path class="st11" d="M110.7,83.3c-0.4-0.2-0.5,0.4-0.1,0.7C111,84.2,111.2,83.5,110.7,83.3z"/>
			<path class="st11" d="M114,83.8c-0.5-0.2-0.7,0.4-0.2,0.6C114.3,84.6,114.5,84,114,83.8z"/>
			<path class="st11" d="M114.8,82.1c-0.5-0.2-0.8,0.4-0.2,0.7C115.1,82.9,115.3,82.3,114.8,82.1z"/>
			<path class="st11" d="M117.2,83.9c-0.4-0.5-0.8-0.1-0.4,0.4C117.1,84.8,117.5,84.4,117.2,83.9z"/>
			<path class="st11" d="M119.1,83.6c-0.5-0.3-0.8,0.3-0.3,0.6C119.3,84.6,119.6,84,119.1,83.6z"/>
			<path class="st11" d="M120.5,84c-0.5-0.3-0.8,0.3-0.3,0.6C120.7,85,121,84.4,120.5,84z"/>
			<path class="st11" d="M119.7,81.5c-0.5-0.3-0.9,0.3-0.4,0.7C119.8,82.5,120.2,81.8,119.7,81.5z"/>
			<path class="st11" d="M120.8,82.3c-0.5-0.3-0.9,0.3-0.4,0.7C120.9,83.3,121.3,82.6,120.8,82.3z"/>
		</g>
		<g>
			<path class="st10" d="M98.7,76.9c-0.8,0.6-1,1.8-0.6,2.5c0.4,0.8,1.1,0.5,1.5,0c0.4-0.5,0.3-1.8,0.1-2.3L98.7,76.9z"/>
			<path class="st10" d="M99.6,75.1c-0.6,0-0.6,1,0,1C100.1,76.1,100.2,75.1,99.6,75.1z"/>
			<path class="st10" d="M99,75.5c-0.6,0-0.6,1.1,0,1.1C99.6,76.6,99.6,75.5,99,75.5z"/>
			<path class="st10" d="M99.9,75.7c-0.6,0-0.6,1.1,0,1.1C100.5,76.8,100.5,75.7,99.9,75.7z"/>
			<path class="st10" d="M99.5,77.2c0.3,0.5,1.1,0.2,1.1-0.7c-0.2,0.1-0.7,0.3-1,0.1L99.5,77.2z"/>
			<path class="st10" d="M99.1,76.5c-0.3-0.1-0.7-0.2-0.7-0.7c-0.5,0.6,0,1.6,0.8,1.2L99.1,76.5z"/>
			<path class="st10" d="M99.2,77.4c-0.3-0.1-0.3-0.7-0.3-0.9c0.1-0.6,1.1-0.3,1,0.4C99.8,77.4,99.5,77.5,99.2,77.4z"/>
		</g>
		<g>
			<line class="st5" x1="91.4" y1="76.7" x2="90.8" y2="76.3"/>
			<line class="st5" x1="91.2" y1="74.8" x2="91.7" y2="75.5"/>
			<line class="st5" x1="93" y1="74.4" x2="93" y2="75.3"/>
			<line class="st5" x1="92.6" y1="76.8" x2="92.1" y2="76.3"/>
			<line class="st5" x1="92.7" y1="78.3" x2="92.1" y2="77.9"/>
			<line class="st5" x1="94" y1="78.3" x2="93.4" y2="77.7"/>
			<line class="st5" x1="94.1" y1="76.5" x2="93.9" y2="75.6"/>
			<line class="st5" x1="91.8" y1="75.4" x2="91.7" y2="74.5"/>
			<line class="st5" x1="96.3" y1="79.4" x2="95.6" y2="79.1"/>
			<line class="st5" x1="96.8" y1="78" x2="97.2" y2="78.5"/>
			<line class="st5" x1="96.2" y1="81" x2="96.7" y2="80.9"/>
			<line class="st5" x1="96.7" y1="80.7" x2="96" y2="80.4"/>
			<line class="st5" x1="97.4" y1="80.4" x2="98" y2="80.4"/>
			<line class="st5" x1="98" y1="80.3" x2="97.4" y2="79.7"/>
			<line class="st5" x1="99.3" y1="80.6" x2="100.1" y2="80.6"/>
			<line class="st5" x1="98.9" y1="81.5" x2="98.1" y2="81.5"/>
			<line class="st5" x1="102.2" y1="81.2" x2="102.9" y2="81.3"/>
			<line class="st5" x1="103" y1="80.9" x2="102.5" y2="80.4"/>
			<line class="st5" x1="103.6" y1="79.5" x2="104.2" y2="79.8"/>
			<line class="st5" x1="105.8" y1="79.9" x2="106.4" y2="80.3"/>
			<line class="st5" x1="104.3" y1="81.4" x2="104.9" y2="81.6"/>
			<line class="st5" x1="105.2" y1="81.3" x2="104.7" y2="80.7"/>
			<line class="st5" x1="106.2" y1="81.7" x2="107.1" y2="81.9"/>
			<line class="st5" x1="105.2" y1="83.3" x2="105.8" y2="83.1"/>
			<line class="st5" x1="109.2" y1="83.9" x2="109.1" y2="83"/>
			<line class="st5" x1="110.1" y1="85.7" x2="110.1" y2="84.8"/>
			<line class="st5" x1="110.9" y1="85.2" x2="110.2" y2="85.7"/>
			<line class="st5" x1="112.2" y1="83.7" x2="112.3" y2="82.8"/>
			<line class="st5" x1="112.4" y1="83.7" x2="113.3" y2="83.2"/>
			<line class="st5" x1="114" y1="84.1" x2="114.5" y2="83.7"/>
			<line class="st5" x1="114.8" y1="82.4" x2="115.2" y2="81.8"/>
			<line class="st5" x1="112.9" y1="81.8" x2="113.4" y2="81.1"/>
			<line class="st5" x1="117" y1="84.1" x2="117.5" y2="83.5"/>
			<line class="st5" x1="119" y1="83" x2="118.8" y2="83.9"/>
			<line class="st5" x1="119" y1="84" x2="119.5" y2="83.5"/>
			<line class="st5" x1="120.3" y1="84.3" x2="120.9" y2="83.7"/>
			<line class="st5" x1="120.5" y1="82.6" x2="121" y2="82"/>
			<line class="st5" x1="119.6" y1="81.9" x2="119.8" y2="80.9"/>
		</g>
	</g>
	<g>
		<g>
			<g>
				<path class="st12" d="M98.1,53.7c-0.5-0.4-0.4-0.9,0.5-1.6c0.6-0.5,1.3-1.4,1.3-2.1c0-0.7,0.1-0.7,0.3-0.1
					c0.1,0.5,0.1,1,0.1,1.4c0.4-0.6,0.5-1.8,0.5-2.2c0-0.5,0.3-0.9,0.4-0.1c0.1,0.8,0.1,1.1,0.1,1.4c0.2-0.1,0.4-0.2,0.6-0.4
					c0.1-0.5,0.2-1,0.2-1.3c0-0.8,0.2-1.1,0.3-0.5c0.1,0.4,0.1,0.9,0.1,1.4c0.3-0.2,0.5-0.5,0.6-0.8c0.2-0.6,0.4-1.1,0.5,0
					c0,0.2,0,0.4,0,0.7c1.1-0.7,2.6,0.7,3.4,0.5c0.8-0.2,0.7,0,0.5,0.3c-0.1,0.1-0.3,0.2-0.5,0.4c0.9,0.3,1.5,1.2,2,2.1
					c0.4-1.9-0.8-3.3-1.9-3.5c-1.1-0.2-2.3-0.3-1.7-1.8c0.3-0.8,0.7-1.4,2-1.4c0.2-0.7,1-1,2.7-0.9c2.1,0.2,4.2,0.7,6.1,1.9
					c1.9,1.2,3,1.9,4,1.3c-0.1,0.4-0.2,0.8-0.5,1.1c3.1,2.3,5.5,5.4,6.4,8.5c0.5,1.7,0.8,3.5,2.1,3.8c-0.2,0.2-0.4,0.3-0.7,0.4
					c0.5,2,0.4,5.2,0,7c-0.4,1.8,0,4.9-0.5,7c-0.5,2-0.6,0.6-0.6-0.3c0-2.5-0.5-3.2-0.4-8.4c0-0.7-0.3-1.4-0.7-1.9
					c-0.2,3.3,0.9,5.2,0.2,9.9c-0.2,1.4-0.5,0.2-0.6-1.9c-0.1-2-0.6-3.2-0.8-5c-0.1-0.7-0.3-1.3-0.5-1.8c0,2,0.6,5.7,0.5,7.7
					c-0.1,1.4-0.5,0.3-0.5-0.5c0-2.1-0.7-3.2-1-5.1c-0.1-0.5-0.4-1.3-0.9-2.2c0.3,1.5,0.5,3.2,0.5,4.1c0,0.8-0.1,1.3-0.4,0.7
					c-0.3-0.5-0.6-1.6-0.7-2.9c-0.1-1.3-0.9-2-1.5-2.7c0.4,1,0.9,2.5,1.1,3.5c0.2,0.9-0.1,1.1-0.2,0.7c-0.2-0.4-0.6-1.4-0.9-2.3
					c-0.3-0.9-0.9-1.8-1.6-2.1c-0.7-0.3-0.7-0.3-1.5-1.2c0.8,1,1.6,2.4,2.1,3.5c0.4,1.1,0.3,1.2-0.1,0.8c-0.4-0.4-0.6-0.7-1-1.4
					c-0.8-1.6-1-1.2-1.5-1.4c-0.5-0.2-1-0.4-1.7-1.4c-0.1,0.2-0.3,0.3-0.5,0.4c0.7,1.5,1,3,1.1,4.5c1.8,1.6,6.2,4.9,8.9,7
					c1.2,1,0.3,1.5-0.7,1.5c-0.7,0-1,0-1.3-0.2c-0.2,0.7-1.4,1.3-2.1,0.6c-0.3,0.6-1.2,0.8-1.9,0c-0.4,0.5-1,0.4-1.4,0
					c-0.4-0.4-0.6-0.6-1.7-1.9c0.1,1.6-0.4,0.7-0.6,0.1c-0.1,1.7-0.4,1.4-0.7,0.8c-0.2,1.4-0.8,1.4-1.1,0.8
					c-0.1-0.2-0.3-0.5-0.5-0.9c-0.2,1.6-0.7,1.2-1,0.6c-0.2-0.5-0.5-1-1.1-2c-0.2,0.3-0.5-0.2-1.1-1.2c-0.1-0.2-0.3-0.5-0.5-0.8
					c-0.2,2.1-0.7,1.9-1.1,1.3c-0.5,0.3-1.4,0.8-2.3,0.9c-0.9,0.1-1-0.4-0.6-0.9c-1.2-0.2-2.2-0.5-2.3-1c0-0.5,1.5-1.5,2.4-2.2
					c-0.8-0.7-1.1-1.6-1-1.7c0.2-0.2,0.8,0,1.3,0.4c-0.7-1-1.7-2.9-1.5-3.5c-0.2-0.2-0.4-0.5-0.5-0.7c-0.3,0.2-0.7,0.3-0.6-0.3
					c0.1-0.7-0.7-2.1-0.7-3.3c-0.1-1.1,0.6-1.7,0.9-2.8c-0.2-0.1-0.3-0.3-0.2-0.5c0.1-0.6,0.9-1.3,1.1-2.2c-0.3,0-0.4,0-0.2-0.4
					c0.3-0.4,0.4-1,0.5-1.5c-0.2,0.1-0.2,0.1-0.2-0.1c0-0.4-0.2-0.5-0.4-0.5C102.1,54.6,99,54.4,98.1,53.7z"/>
			</g>
			<g>
				<path class="st5" d="M100.7,52c0.6-0.3,1-0.7,1.4-1c0.4-0.4,1-0.9,1,0c0,0.9-1,1.6-2,1.8"/>
				<path class="st5" d="M103.5,49.9c1,0,2.3,0.7,2.7,1.2c0.4,0.5,0.4,1-0.6,0.9"/>
				<path class="st5" d="M103.2,50.7c0.9,0.3,1.8,0.8,2.3,1.3c0.5,0.5,0.4,0.9-0.5,0.6c-1-0.3-1.5-0.6-2.1-0.9"/>
				<path class="st5" d="M106.7,50.7c1.3,1.4,1.9,2.6,2.1,3.5c0.2,0.8,0.1,2-0.2,1.7c-0.2-0.3-0.6-0.5-1-0.5"/>
				<path class="st5" d="M106.4,51.8c0.8,0.9,1.4,2.8,1.2,4.1c-0.2,1.4-0.6,0.6-1,0.2c-0.4-0.4-1.3-1.7-1.2-3.4"/>
				<path class="st5" d="M101.9,53c0.8-0.3,2.2-0.2,2.1,0.5c-0.2,0.7-1.4-0.1-2,0"/>
				<path class="st5" d="M103.8,52.3c-0.1,0.2-0.1,0.5-0.4,0.6"/>
				<path class="st5" d="M103.7,53.7c0.4,0.8,1.2,1.2,1.7,0"/>
				<path class="st5" d="M105.1,61.2c-0.3,1.5-0.3,3.1,0.6,4.1c0.9,0.9,1.2,1,1.4,0.5c0.3-0.5,0.4-1.4,0.2-2.5
					c-0.2-1-0.3-1.9-0.1-2.7"/>
				<path class="st5" d="M105.3,64.6c-0.1,0.4-0.1,0.9-0.4,1.2c-0.3,0.2-0.4,0.2-0.5-0.3c-0.1-0.5-1.3-2.6-0.4-4.6"/>
				<path class="st5" d="M103.2,60.8c-1.2,2.6,0,3.2-0.1,4.1c0,0.9,0.4,0.6,0.5,0.4c0.1-0.3,0.3-0.7,0.2-1.4"/>
				<path class="st5" d="M106,56.1c-1,1.9-1.3,3.5-1.1,4.5c0.2,0.9,0.8,1.3,1.2,0.7c0.4-0.6,0.6-1,0.8-1.5"/>
				<path class="st5" d="M107,57.1c-0.4,1.7-0.3,2.7,0.3,3.4c0.5,0.5,0.8,0,1-0.5c0.4-1,0.6-2.7,0.4-4.1"/>
				<path class="st5" d="M103.9,57c-0.4,1.3-0.6,2.5-0.7,3.1c-0.1,0.6,0.1,1.1,0.6,0.8c0.5-0.3,0.9-0.7,1.1-1.5"/>
				<path class="st5" d="M103.5,65.6c0.3,0.5,0.8,0.8,1.1,1.3c0.4,0.6,0.6-0.4,0.6-1.6"/>
				<path class="st5" d="M104.4,68.8c-0.1,0.8,0.1,2.6,0.3,3.2c0.3,0.6,0.8,1.5,1.4,0.2"/>
				<path class="st5" d="M108.6,59c0,1.6,1.1,2.5,0.7,4.6c-0.2,0.9-0.5,1.5-1.7,0.3"/>
				<path class="st5" d="M108.7,58.3c-0.1,0.6,0.4,1,0.8,1.5c0.3,0.5,0.5,0.5,0.7-0.7c0.2-1.2,0.2-2.7,0-3.5"/>
				<path class="st5" d="M109.3,62.4c0.7,0.3,1.2,0.1,1.2-0.6c0-0.7-0.3-1.4-0.6-1.9"/>
				<path class="st5" d="M98.7,53.4c0,0.3,0.5,0.3,0.8,0.2c0.4-0.1,0.8-0.5,0.9-0.9c0.1-0.5-0.1-0.9-0.4-0.9"/>
				<path class="st5" d="M99,52.9c0.1,0.2,0.7,0.6,1-0.5"/>
				<path class="st5" d="M99.2,52.6c-0.1,0.1,0.2,0.2,0.4,0.1c0.1-0.1,0.3-0.6,0-0.5"/>
				<path class="st5" d="M116.5,48.1c0.3,0.5,0.4,1.1,0.4,1.4c-0.1,0.4-0.3,0.6-0.6,0.2c-0.3-0.5-0.6-0.6-0.9-0.7"/>
				<path class="st5" d="M114.6,47.1c0.4,0.5,0.7,1.1,0.7,1.5c0,0.4-0.2,1-0.6,0.7c-0.4-0.4-0.6-0.6-0.9-0.9"/>
				<path class="st5" d="M113,46.9c0.5,0.5,0.8,0.9,0.9,1.4c0.1,0.5,0.2,1-0.6,0.6c-0.8-0.4-2.6-0.8-3.8-0.9"/>
				<path class="st5" d="M111.1,46.8c1.2,0.2,1.3,1.8,1.9,2"/>
				<path class="st5" d="M113.6,50.5c1.1,0.3,2.5,0.8,2.9,1.1c0.4,0.3,1,0.6,1.2,0.2c0.2-0.4,0.6-0.9,0.4-1.4"/>
				<path class="st5" d="M117.4,52c0.2,0.8,0.1,1.8-0.5,2.3"/>
				<path class="st5" d="M114,52.7c1-0.1,2,0.6,2.5,1.3c0.5,0.6,0.8,1.7-0.2,2.6"/>
				<path class="st5" d="M118.2,51.2c2.2,2.3,5,6.5,5.5,8c0.5,1.6,0.1,2.3-1.2,0.7c-1.3-1.6-4-5.4-5-6.9"/>
				<path class="st5" d="M116.8,55.9c1.3,1.7,3,4.3,3.8,5c0.8,0.7,1.4,1.2,1.3-1.7"/>
				<path class="st5" d="M116,57.9c1.2,1.4,2.7,3.2,3.5,3.8c0.8,0.6,1.2,0.8,1.1-0.8"/>
				<path class="st5" d="M111.3,60.8c0.7,1.1,1.6,2.6,1.9,2.9c0.3,0.4,0.3,1,0.2,1.4c-0.1,0.5-0.2,0.4-0.6,0.3"/>
				<path class="st5" d="M111.4,58.8c0.5,0.8,0.5,1.5-0.3,1.6"/>
				<path class="st5" d="M111.7,59.2c0.7,0,1.2-0.4,1.3-1.5"/>
				<path class="st5" d="M112.3,57.3c0.9,0.9,1.9-0.8,1.3-1.6"/>
				<path class="st5" d="M113.1,55.6c0.9,0.1,1.2-0.8,0.6-2.1"/>
				<path class="st5" d="M113,53.6c1.1,0.2,1.4-1.3,0.4-2.6"/>
				<path class="st5" d="M112.7,51.2c0.2-0.2,0.3-0.3,0.5-0.3c0.3,0,0.5-0.2,0.3-0.8c-0.2-0.6-0.3-0.9-0.3-1.2"/>
				<path class="st5" d="M105.8,48.1c0.6-0.2,1.5-0.6,2.1-0.2"/>
				<path class="st5" d="M107.9,49c0.5-0.2,1.2-0.3,1.8,0"/>
				<path class="st5" d="M109.5,50.1c0.3-0.2,1.6,0,1.9,1.1"/>
				<path class="st5" d="M110.1,51.7c0.4-0.3,1.5,0.2,1.6,0.9"/>
				<path class="st5" d="M110.2,53.4c0.9,0,1.7,0.8,1.6,1.6"/>
				<path class="st5" d="M103,65.8c0.6,0.9,2.8,3.6,3.6,4.4c0.4,0.5,0.5,0.5,0.7-0.4"/>
				<path class="st5" d="M105,66.9c0.8,1.1,2.1,2.9,3.1,3.5c0.9,0.6,0.8-0.1,0.8-1.4"/>
				<path class="st5" d="M107.2,65.8c0.4,1.2,1.4,3.1,2.3,3.9c0.9,0.8,1,0.2,0.9-0.8c-0.1-1.5-1-3.3-1.5-4.4"/>
				<path class="st5" d="M105.6,70.4c0.3,0.4,1,0.4,0.7-0.4"/>
				<path class="st5" d="M107,70.6c0.8,1.7,2.7,3.7,3.2,4.2c0.6,0.5,0.6,0.4,0.7-0.4"/>
				<path class="st5" d="M108.7,70.6c0.8,1.8,1.7,3.4,2.4,3.9c0.7,0.5,0.9,0.5,0.9-0.7"/>
				<path class="st5" d="M110.2,70c0.6,1.6,1.3,3.3,1.9,4c0.6,0.8,0.9,0.4,0.9-0.8"/>
				<path class="st5" d="M110.5,62.2c0.8,1.8,1.3,3.8,1.4,5.3c0.1,1.5,0,1.5-1.5,0.5"/>
				<path class="st5" d="M111.2,61.4c0.9,2,1.4,3.6,1.6,4.7c0.1,1.1,0.1,1.4-0.9,0.9"/>
				<path class="st5" d="M112.7,67.1c0.6,2.1,1.1,4.4,1.1,5.3c0,1-0.1,2.2-0.9,0.2c-0.2-0.5-0.8-2.6-1.2-4"/>
				<path class="st5" d="M113.4,65.4c0.6,1.9,1.1,3.8,1.1,5.5c0,1.7,0,3-0.7,1.7"/>
				<path class="st5" d="M112.7,62.1c1.1-0.7,1.2-2-0.5-3.1"/>
				<path class="st5" d="M113.6,60.6c1.3-0.6,2.1-1.8-0.2-3.1"/>
				<path class="st5" d="M114.8,58.7c0.8-0.1,1.4-0.8,1.4-1.5c0-0.8-0.5-1.7-2.3-1.8"/>
				<path class="st5" d="M114.4,63.3c1.1,0.4,1.9,0.7,1.7-1.5"/>
				<path class="st5" d="M114.6,59.9c0.9,1.2,1.3,2.1,2.4,2.4c1.3,0.3,1.2,0.2,0.7-2.2"/>
				<path class="st5" d="M100.3,51.4c-0.1,0.2-0.1,0.4-0.3,0.5c-0.4,0.3-1.6,1.4-1.2,2"/>
				<path class="st5" d="M100.3,51.4c0.4-0.5,0.7-0.8,1-0.9"/>
				<path class="st5" d="M101.3,51.7c0.2-0.4,0.4-1,0.6-1.6"/>
				<path class="st5" d="M102.5,49.7c0,0.4,0,0.7-0.1,1.1"/>
				<path class="st5" d="M109,52.7c0.5,1,0.9,2,1.5,2.4c0.9,0.6-0.2,0.5-0.4,0.5c-0.4-0.1-1-0.4-1.3-1.1"/>
				<path class="st5" d="M107,50.6c-0.3,0.2-0.7,0.3-1,0.3"/>
				<path class="st5" d="M103.6,49.5c0,0.4-0.2,0.8-0.4,1.3"/>
				<path class="st5" d="M116.8,49.8c1,1,2.2,0.5,2.9-0.4"/>
				<path class="st5" d="M119.5,65.8c-0.6-0.7-1.4-1.7-1.5-2.5"/>
				<path class="st5" d="M121.5,66.5c-0.3-0.5-0.6-1-0.9-1.5"/>
				<path class="st5" d="M123.4,66.6c-0.4-0.9-0.9-1.6-1.3-2.4"/>
				<path class="st5" d="M125.1,65.4c-0.4-0.6-0.8-1.2-0.9-1.7"/>
				<path class="st5" d="M127.4,62c-1,0.2-2.5-0.5-3.7-2.5"/>
				<path class="st5" d="M107.4,46c-0.1,0.2-0.1,0.4-0.1,0.7c0.1,1.1,0.6,1.3,1.6,1.9c2.1,1.3,2.3,1,2.7,4.4c0.3,2.5,0,3.2-1.3,4.6
					c0.3,2,0.5,2.5,0.8,2.9c0.3,0.5,0.3,1-0.5,1"/>
				<path class="st5" d="M114.2,64.4c0.4-0.7,0.1-1.9-0.8-2.8"/>
				<path class="st5" d="M113.4,64.2c0.1,0.2,0.2,0.4,0.3,0.6"/>
				<path class="st5" d="M114.5,72.4c0.2-0.9,0.3-2,0.3-3.2"/>
				<path class="st5" d="M117.6,78.3c-0.9-0.9-1.7-1.9-3.2-3.4"/>
				<path class="st5" d="M119.5,78.2c-0.7-0.7-3.9-3.9-5.1-5.2"/>
				<path class="st5" d="M121.7,77.6c-1.3-1-5.2-4.3-7.1-6.3"/>
				<path class="st5" d="M113.1,73.5c0.4,1.4,0.7,2.4,0.9,3"/>
				<path class="st5" d="M111.7,77.2c-0.3-0.5-0.6-1.2-1.1-2.1"/>
				<path class="st5" d="M113.3,77.3c-0.3-0.6-0.8-1.5-1.4-2.5"/>
				<path class="st5" d="M114.5,76.4c-0.1-1.6-0.1-2.5-0.2-3.2"/>
				<path class="st5" d="M104,75c0.1-0.2,0.2-0.3,0.3-0.5c0.4-0.5,1-1,1.9-1.2"/>
				<path class="st5" d="M106.9,75.1c-0.1-0.2-0.2-0.3-0.3-0.5c-0.5-1-0.5-2.3-0.4-3.3"/>
				<path class="st5" d="M109.6,75.8c0.1-0.2,0.2-0.6,0.3-1.2"/>
				<path class="st5" d="M104.1,71.9c0.3,0.2,0.6,0.5,0.9,0.7"/>
				<path class="st5" d="M103,67.1c1.9,2.4,4,5.2,5,6.8"/>
				<path class="st5" d="M102.5,66.4c0,0,0.1-0.1,0.1-0.1c0.3-0.3,0.5-0.7,0.6-1.2"/>
				<path class="st5" d="M102,60c0.1,0,0.2,0,0.3,0c0.4-0.1,0.7-0.3,1.1-0.7"/>
				<path class="st5" d="M102.9,57.3c0,0,0.1,0,0.1,0c0.5,0,1.1-0.3,1.7-1.1"/>
				<path class="st5" d="M103.3,55.5c0.1,0,0.1-0.1,0.2-0.2c0.2-0.2,0.4-0.6,0.4-1.3"/>
			</g>
		</g>
		<g>
			<path class="st13" d="M98,53.6c-0.3,0-0.8,0.3-0.5,0.8c-1.1,0.8-1.2,2.3-0.7,3.2c0.4,0.8,1.6,0.7,1.9,0.7
				C98,58,97.8,56.4,98.1,56c0.3-0.4,0.9-1.3,2.3,0.5c0.5-0.5,0.9-1,1.4-1c0.6,0,1.1-0.6,0.8-1.2c-0.4-0.5-2.3,0.3-2.9-0.2
				C99,53.6,98.3,54.1,98,53.6z"/>
			<path class="st5" d="M101.7,55.5c0.1-0.6-0.3-0.7-0.9-0.6c-0.5,0.1-1,0.5-1.3,0.8"/>
			<path class="st5" d="M97.4,54.3c0,0.2,0.8,0.4,0.8-0.5"/>
		</g>
		<g>
			<path class="st4" d="M112.1,77.8c0.2,0.8-1,1.3-1.6,1.1c-0.6-0.3-1.3,0-1.3,1c0,0.6,0.3,1,0.8,1.1c-0.1,0.5,0.3,1.2,0.9,1.3
				c0.6,0,1.1-0.6,1.1-1.2c0.8,0.2,2-0.8,2.8-0.2c0.2,0.8,0.9,0.9,1.7,0.4c0.8-0.5,0.5-1.7-0.3-1.7c-1.3,0-2.2-0.9-3-2.3
				C113,78.5,112.6,78.9,112.1,77.8z"/>
			<path class="st5" d="M110,81c0.2-0.6,1.3-0.9,1.5-1.2c0.2-0.3,0.7-0.7,1-0.7"/>
			<path class="st5" d="M112.4,78.4c0,0.2,0.1,0.7,0,0.9c0,0.2,0,0.4,0.6,0.4c0.5,0,0.7,0,0.7-0.4c-0.1-0.4-0.1-1-0.1-1.5"/>
			<path class="st5" d="M112,81c0.5,0,1-0.4,1.1-0.9"/>
			<path class="st5" d="M113,80.9c0.3-0.1,0.6-0.4,0.7-0.8"/>
			<path class="st5" d="M113.8,80.7c0.3,0,0.5-0.3,0.5-0.6"/>
			<path class="st5" d="M111.8,79.4c-0.2,0.2-0.1,0.6,0.4,0.8"/>
			<path class="st5" d="M111.1,80c-0.2,0.2-0.1,0.9,0.3,1"/>
			<path class="st5" d="M116.1,79.6c-0.4,0-1,0-1.1,0.2"/>
			<path class="st6" d="M110,83c-1-0.5-0.8-1.8-0.1-2c0.7-0.2,0.8,0.4,0.8,0.7C110.7,82.1,109.6,82.3,110,83z"/>
			<path class="st6" d="M108.3,81.2c-0.8-0.7-0.2-1.9,0.6-1.9c0.8,0,0.7,0.9,0.4,1.2C109.1,80.7,108.1,80.2,108.3,81.2z"/>
			<path class="st6" d="M116.5,82.7c1.1-0.2,1.2-1.1,0.9-1.7c-0.3-0.6-0.8-0.5-1-0.3c-0.2,0.2-0.4,0.7,0,1
				C116.7,81.9,116.8,82.3,116.5,82.7z"/>
			<path class="st5" d="M110.3,78.9c0.3,0.1,0.5,0.3,0.5,0.4"/>
		</g>
		<g>
			<path class="st4" d="M102.6,72.3c0.5,0.2,2,0.8,3.4,1.2c-0.4,0.1-0.9,0.3-1.3,0.7c-0.9-0.2-2.4-0.6-3.3-0.7
				c-0.5,0.6-0.8,0.6-1,0.4c-0.2-0.2-0.6-0.5-1.1-0.8c-0.2,0.2-0.4,0.3-0.6,0.3c-0.3,0.3-0.5,0.4-0.7,0.3c-0.2,0.4-0.4,0.6-0.9,0.2
				c-0.4-0.4-0.6-1.2-0.6-1.6s0.2-0.6,0.5-0.6c0.1-0.6,0.5-0.8,0.8-0.8c0.1-0.6,0.6-1,1.2-0.9c0.8,0.1,2.6-0.4,3,0.2
				C102.4,70.7,103.2,71.7,102.6,72.3z"/>
			<g>
				<path class="st5" d="M97.1,71.6c-0.1,0.2,0.2,0.5,0.4,1c0.1,0.3,0.3,0.9,0.6,1"/>
				<path class="st5" d="M97.9,70.9c0,0.1,0,0.3,0,0.5c0.1,0.4,0.3,0.8,0.3,1.4c0,0.3,0.2,0.7,0.5,0.7"/>
				<path class="st5" d="M101,73c-0.6-0.3-0.6-0.7-0.6-1.1c0-0.4-0.6-0.7-1.1-0.4s-0.7,1.1-0.1,1.5c0.1,0,0.1,0.1,0.2,0.1"/>
				<path class="st5" d="M102.6,72.3c-0.3,0.3-0.5,0.5-1.2,1.2"/>
			</g>
			<g>
				<path class="st6" d="M98.9,73.4c0.2,0.5,0.8,0.9,1.5,0.4c-0.3-0.3-0.8-0.5-0.9-0.7C99.2,73.2,99.1,73.3,98.9,73.4z"/>
				<path class="st6" d="M98.2,73.7c0.1,0.4,0.8,0.7,1.4,0.3c-0.3-0.1-0.6-0.3-0.8-0.6h0C98.7,73.5,98.4,73.8,98.2,73.7z"/>
				<path class="st6" d="M97.7,74.1c0.1,0.3,0.7,0.4,1,0c-0.1-0.1-0.4-0.2-0.5-0.4c0,0,0,0-0.1,0C98,73.8,97.9,74.1,97.7,74.1z"/>
				<path class="st6" d="M100.1,69.7c-1.2-0.1-1.4,1-1.4,1.9c0,0.5,0.4,0.5,0.7,0.4c0.2-0.1,0.4-0.3,0.3-0.8
					C99.6,70.7,99.6,70.1,100.1,69.7z"/>
			</g>
		</g>
		<path class="st4" d="M96.2,50.5c0.4,0.4,0.4,1.7,0,2.1c0.1-0.4,0.1-1.2-0.2-1.5L96.2,50.5z"/>
		<path class="st14" d="M96.4,56.5c-2.2,1-2.8-0.5-2.8-1.1c0-0.6-0.1-1.2-0.3-1.8c-0.3-0.9-0.2-1.5,0.5-2c0.7-0.5,1.5-1.1,1.9-1.5
			c0.4-0.4,0.8-0.7,0.5,0.2c-0.1,0.4-0.4,1.3-0.8,1.7c-0.4,0.5-0.7,1-0.3,1.4c0.4,0.4,1.4-0.3,1.8-0.8c0.1,0.3-0.3,0.9-0.7,1
			c-0.4,0.2-1.3,0.4-1.2,0.8c0.1,0.6,1.1,0.1,2,0.2C96.7,55,96.4,55.6,96.4,56.5z"/>
		<path class="st14" d="M100.4,72.3c0.8-0.4,2.2-1.3,1.4-3.7c-1-2.9-4.1-0.8-4.8-2.1c-1.1-1.8-0.9-2.9,1.9-5.3
			c2.6-2.3,2.4-3.8,1.5-4.8c-0.2-0.3-1-1.1-1.5-1.1c-0.6,0-1,0.8-0.9,1.3c0.7,0.6,1,1.7,0.2,2.4c-2.4,2.1-4.6,4.1-3.6,7.8
			c0.8,2.8,2.8,2.3,3.5,2.3c1.2,0.1,2.2-0.1,1.9,0.8c-0.1,0.2-0.2,0.3-0.4,0.5c0,0.2,0,0.5,0.1,0.7c0.2,0,0.4,0.1,0.6,0.3
			C100.4,71.8,100.4,72.1,100.4,72.3z"/>
		<path class="st8" d="M96.6,63.8c-0.4,0.9-0.2,1.7,0.4,2.7c0.8,1.3,3.8-0.9,4.8,2.1c0.8,2.3-0.6,3.3-1.4,3.7
			c-0.1-0.2,0-0.5-0.2-0.8c-0.1-0.2-0.3-0.3-0.6-0.3c-0.1-0.2-0.1-0.5-0.1-0.7c0.2-0.2,0.3-0.4,0.4-0.5c0.4-0.9-0.7-0.8-1.9-0.8
			C95.4,69.1,95.6,65.4,96.6,63.8z"/>
		<path class="st8" d="M98,56.1c0.1-0.4,0.4-0.7,0.8-0.7c0.6,0,1.3,0.8,1.5,1.1c0.8,0.9,1.1,2.4-1.2,4.5
			C100.8,59.6,99.8,56.4,98,56.1z"/>
		<path class="st14" d="M97.7,74.1c-1.7,1.6-3.1,0.5-3.4-1.7c-0.2-1.5-0.6-1.8-1.6-2.7c-1.6-1.3-1-3-0.5-4.3
			c0.4-1.4-0.1-1.9-0.9-2.3c-0.8-0.5-2.6-1.6-0.1-1.5c2.5,0.1,2.7,3.3,2.2,4.4c-0.5,1.1-0.6,1.9,0.8,2.6s1,3.1,2,3.8
			c0.2,0.1,0.3,0.1,0.5,0.1C96.8,73.2,97.2,74,97.7,74.1z"/>
		<g>
			<path class="st8" d="M90.3,61.6c0.2-0.2,0.3-0.7-0.2-0.9c-0.6-0.2-0.6,0.4-0.9,0.5c-0.4,0.1-0.5,0.3-0.1,0.7c0.3,0.3,0,0.8,0.6,1
				c0.5,0.1,0.6-0.4,0.5-0.7C90,62,90.1,61.7,90.3,61.6z"/>
			<path class="st8" d="M90.9,61.8c0.2-0.2,0.3-0.7-0.2-0.9c-0.6-0.2-0.6,0.4-0.9,0.5c-0.4,0.1-0.5,0.3-0.1,0.7c0.3,0.3,0,0.8,0.6,1
				c0.5,0.1,0.6-0.4,0.5-0.7C90.7,62.2,90.7,61.9,90.9,61.8z"/>
			<path class="st8" d="M91.5,61.9c0.2-0.2,0.3-0.7-0.2-0.9c-0.6-0.2-0.6,0.4-0.9,0.5c-0.4,0.1-0.5,0.3-0.1,0.7c0.3,0.3,0,0.8,0.6,1
				c0.5,0.1,0.6-0.4,0.5-0.7C91.3,62.4,91.4,62.1,91.5,61.9z"/>
		</g>
		<g>
			<path class="st5" d="M98,56.1c1.8,0.3,2.8,3.5,1.2,4.9"/>
			<path class="st5" d="M98.4,58.9c-0.3,0.4,0,2.1,0.2,2.6"/>
			<path class="st5" d="M98.6,61.5c-0.6-0.2-1.9-0.5-2.3-0.6"/>
			<path class="st5" d="M97.6,59.7c-0.2,0.5,0,2.3,0.1,2.8"/>
			<path class="st5" d="M97.3,60c0.4-0.1,2.4,0.5,2.5,0.2"/>
			<path class="st5" d="M98.7,58.3c0,0.5,1.4,1.8,0.8,2.4"/>
			<path class="st5" d="M98.3,59c0.3,0.1,1.7-0.4,1.5-1.1"/>
			<path class="st5" d="M96.3,60.9c0,0.5,0.4,1.9,0.5,2.5"/>
			<path class="st5" d="M95.4,62c0.5-0.1,1.7,0.6,2.2,0.5"/>
			<path class="st5" d="M94.5,63.9c0.1-0.4,2.1-0.1,2.4-0.5"/>
			<path class="st5" d="M95.3,62.1c-0.2,0.3,0.7,1.6,1,2.3"/>
			<path class="st5" d="M94.5,63.9c-0.1,0.5,1.5,1.4,1.4,1.7"/>
			<path class="st5" d="M94.4,66c-0.1-0.6,1.6-1.3,1.9-1.7"/>
			<path class="st5" d="M94.8,67.5c-0.2-0.7,1-1.7,1.1-2.1"/>
			<path class="st5" d="M94.5,66.1c0.2-0.2,1.3,0.2,1.4,0.9"/>
			<g>
				<path class="st5" d="M96,65.5c0.1,0.1,0.5,0,0.6,0.2"/>
				<path class="st5" d="M95.9,66.4c0,0.2,1,0,1.1,0.2"/>
				<path class="st5" d="M96,67.5c-0.1-0.3,0.6-1,1.1-0.8"/>
				<path class="st5" d="M96.4,68.3c-0.1-0.3,0.5-1.6,0.9-1.5"/>
				<path class="st5" d="M97,68.9c-0.2-0.2,0.4-1.9,0.9-1.9"/>
				<path class="st5" d="M97.8,69.2c-0.2,0,0.3-2.2,0.8-2.2"/>
				<path class="st5" d="M98.4,69.2c-0.3,0,0.1-2.2,0.7-2.2"/>
				<path class="st5" d="M99.1,69.2c-0.3,0,0-2.3,0.6-2.3"/>
				<path class="st5" d="M99.6,69.3c-0.3-0.1,0.3-2.3,0.7-2.2"/>
				<path class="st5" d="M100,69.5c-0.3-0.3,0.6-2.3,0.9-2.1"/>
				<path class="st5" d="M100.1,69.6c-0.1-0.2,1.2-2,1.4-1.7"/>
				<path class="st5" d="M100,70c0.1-0.3,1.9-1.1,2-0.8"/>
				<path class="st5" d="M99.9,70.2c0.2-0.2,2.3-0.5,2.2,0"/>
				<path class="st5" d="M99.8,70.4c0.1-0.2,2.3,0.1,2.1,0.5"/>
				<path class="st5" d="M99.7,70.7c0.5,0,2.1,0.5,1.9,0.7"/>
				<path class="st5" d="M99.7,71.1c0.7,0.1,1.6,0.6,1.4,0.8"/>
			</g>
			<path class="st5" d="M94.9,67.7c0.1,0.3,0.8-0.1,1.1-0.2"/>
			<path class="st5" d="M95.5,68.5c0.2,0.2,0.7,0,0.9-0.2"/>
			<path class="st5" d="M98.6,58c0-0.4,0.4-0.8,0.8-0.9"/>
			<path class="st5" d="M99.8,57.9c-0.3-0.1-1.2-0.4-1.4-0.7"/>
			<path class="st5" d="M98.6,56.3c0.2-0.2,0.6-0.8,0.8-0.7"/>
			<path class="st5" d="M99.2,56.9c0.2-0.3,0.6-0.9,0.9-0.7"/>
			<path class="st5" d="M99.6,57.4c0.3-0.3,0.8-0.8,1-0.6"/>
			<path class="st5" d="M99.8,57.9c0.4-0.3,1-0.7,1.1-0.3"/>
			<path class="st5" d="M100,58.6c0.5-0.3,1-0.7,1-0.4"/>
			<path class="st5" d="M100,59.2c0.4-0.2,0.8-0.4,0.7-0.2"/>
			<path class="st5" d="M99.9,59.8c0.2-0.1,0.3-0.1,0.5-0.1"/>
			<path class="st5" d="M96.8,54.7c-0.4,0-1.3,2.2-1.7,2.2"/>
			<path class="st5" d="M94.4,56.7c-0.3-0.2,0.7-1.8,1.3-1.9"/>
			<path class="st5" d="M93.6,55.2c0-0.5,0.9-1,1.4-0.9"/>
			<path class="st5" d="M95,54.4c-0.4,0.1-0.9,1.3-0.2,2.4"/>
			<path class="st5" d="M95.2,54.7c-0.2,0.5,0.7,1.6,1.1,1.8"/>
			<path class="st5" d="M94.9,74.1c0.2,0.4,1.6-0.5,2-0.9"/>
			<path class="st5" d="M96.2,72.3c0.3,0.2-0.6,2.5,0,2.5"/>
			<path class="st5" d="M95.7,71.7c0.3,0.9-1.1,1.9-0.9,2.3"/>
			<path class="st5" d="M95.4,70.7c0.1,0.4-1.2,1.8-1,2.3"/>
			<path class="st5" d="M94.5,68.7c0.2,0.2-0.8,1.7-0.6,2.4"/>
			<path class="st5" d="M93.1,70.1c0.3,0.3,1.9-0.7,2.1,0.1"/>
			<path class="st5" d="M94.3,72.4c0.1,0.3,1.2,0.4,2.1,0"/>
			<path class="st5" d="M94,71.3c0.1,0.4,1,0.8,1.7,0.3"/>
			<path class="st5" d="M93.9,68.4c-0.2-0.1-1.3,1.3-1,1.5"/>
			<path class="st5" d="M92.1,69.1c-0.2-0.4,0.8-1.5,1.1-1.3"/>
			<path class="st5" d="M91.6,68.1c-0.1-0.6,1.2-1.1,1.3-0.8"/>
			<path class="st5" d="M91.7,66.9c0.1-0.5,1.4-0.7,1.3-0.1"/>
			<path class="st5" d="M92,65.8c0.2-0.6,1.5-0.3,1.3,0.2"/>
			<path class="st5" d="M92.2,65c0.1-0.5,1.3-0.7,1.3,0"/>
			<path class="st5" d="M92.2,64.1c-0.1-0.5,1.1-1,1.2-0.4"/>
			<path class="st5" d="M92,63.6c-0.3-0.5,0.9-1.3,1.1-0.9"/>
			<path class="st5" d="M91.7,63.4c-0.4-0.3,0.4-1.7,0.7-1.4"/>
			<path class="st5" d="M94.3,54.1c-0.1-0.3-0.2-0.9,0.1-1.2c0.2-0.2,0.5-0.6,0.6-1.1c0.1-0.3-0.1-0.2-0.2-0.1
				c-0.1,0.1-0.3,0.1-0.3-0.1c0-0.2,0.2-0.4,0.4-0.4c0.1,0,0.1,0.2,0.1,0.3"/>
		</g>
	</g>
</g>
</svg>
