<?xml version="1.0" encoding="utf-8"?>
<!-- Generator: Adobe Illustrator 22.1.0, SVG Export Plug-In . SVG Version: 6.00 Build 0)  -->
<svg version="1.1" id="layer_1" xmlns="http://www.w3.org/2000/svg" xmlns:xlink="http://www.w3.org/1999/xlink" x="0px" y="0px"
	 viewBox="0 0 216 144" style="enable-background:new 0 0 216 144;" xml:space="preserve">
<style type="text/css">
	.st0{fill:#FFFFFF;}
	.st1{fill:#C1272D;}
	.st2{fill:#1B2850;}
	.st3{fill:#FCDE4B;}
</style>
<rect x="0.5" y="0.5" class="st0" width="215.5" height="144"/>
<g>
	<rect x="0.5" y="0.5" class="st1" width="215.5" height="10.3"/>
	<rect x="0.5" y="21.1" class="st1" width="215.5" height="10.3"/>
	<rect x="0.5" y="41.6" class="st1" width="215.5" height="10.3"/>
	<rect x="0.5" y="62.2" class="st1" width="215.5" height="10.3"/>
	<rect x="0.5" y="82.9" class="st1" width="215.5" height="10.2"/>
	<rect x="0.5" y="103.4" class="st1" width="215.5" height="10.3"/>
	<rect x="0.5" y="123.9" class="st1" width="215.5" height="10.3"/>
</g>
<rect x="0.5" y="0.5" class="st2" width="107.4" height="82.4"/>
<g>
	<polygon class="st3" points="70,67.9 71.7,51.8 78.5,65.3 74.8,49.8 85.2,58.1 76.9,46.2 89,47.5 77.7,41.8 88.9,36 76.8,37.3 
		85.3,25.4 74.8,33.8 78.5,18.2 71.7,31.8 70,15.7 68.2,31.8 61.5,18.2 65.2,33.8 54.7,25.4 63.1,37.3 51,36 62.3,41.8 51,47.5 
		63.1,46.2 54.7,58.1 65.2,49.8 61.5,65.3 68.2,51.8 	"/>
	<path class="st3" d="M57.7,16.3c-2.3-1.2-4.8-1.9-7.4-1.9c-11.3,0-20.5,12.3-20.5,27.4c0,15.1,9.2,27.4,20.5,27.4
		c2.6,0,5.1-0.7,7.3-1.8c-3.8,3.5-8.2,5.5-13.1,5.5c-12.8,0-23.2-13.9-23.2-31c0-17.1,10.4-31,23.2-31
		C49.3,10.8,53.9,12.8,57.7,16.3z"/>
</g>
</svg>
