<?xml version="1.0" encoding="utf-8"?>
<!-- Generator: Adobe Illustrator 22.1.0, SVG Export Plug-In . SVG Version: 6.00 Build 0)  -->
<svg version="1.1" id="layer_1" xmlns="http://www.w3.org/2000/svg" xmlns:xlink="http://www.w3.org/1999/xlink" x="0px" y="0px"
	 viewBox="0 0 216 144" style="enable-background:new 0 0 216 144;" xml:space="preserve">
<style type="text/css">
	.st0{fill:#FFFFFF;stroke:#000000;stroke-width:2.5;}
	.st1{fill:#C1272D;}
	.st2{fill:#FFFFFF;}
	.st3{fill:#4C9D6B;}
	.st4{fill:none;stroke:#FFFFFF;stroke-width:2.5;}
	.st5{fill:none;stroke:#FFFFFF;stroke-width:2.5;stroke-linecap:round;stroke-linejoin:round;}
	.st6{fill:#FFFFFF;stroke:#D66549;stroke-width:0.125;}
	.st7{fill:none;stroke:#D66549;stroke-width:0.125;stroke-linecap:round;stroke-linejoin:round;}
	.st8{fill:#D66549;stroke:#D66549;stroke-width:0.5;}
	.st9{fill:#FFFFFF;stroke:#D66549;stroke-width:0.125;stroke-linecap:round;stroke-linejoin:round;}
	.st10{fill:none;stroke:#D66549;stroke-width:0.125;stroke-linejoin:round;}
	.st11{fill:none;stroke:#D66549;stroke-width:0.125;}
	.st12{fill:#D66549;stroke:#D66549;stroke-width:0.25;}
</style>
<g>
	<path class="st0" d="M123.4,72.1"/>
</g>
<rect y="0" class="st1" width="216" height="144"/>
<rect x="71.7" y="0" class="st2" width="144.3" height="48.2"/>
<rect x="71.7" y="95.6" class="st3" width="144.3" height="48.5"/>
<g>
	<path class="st4" d="M39.5,24.1c-7.1,11.7-15.2,22-24.3,28.7c-1.5,1.1-2.7,2.1-2.4,2.8c0.4,0.8,2.3,0.3,3.8-0.7
		c10.4-6.8,19.9-18.2,25.5-28.5"/>
	<path class="st4" d="M42.3,26.7c-0.1,0.2-0.9-0.2-1.8-0.9c-0.9-0.7-1.5-1.4-1.3-1.6C51.4,5.7,52.6,4.4,53.1,4.9
		C53.7,5.3,53,7.1,42.3,26.7z"/>
	<path class="st4" d="M20.1,51.7c-0.6-0.2-1.5-0.6-2.1-0.7c-0.6-0.1-0.7,0-1.3,0.4c-1.1,0.9-2.6,2.1-3.5,2.8c-1,0.7-1.1,2.5,1.2,2
		c2.3-0.5,3.9-1.9,5.9-3.5C20.9,52.2,21.1,52.1,20.1,51.7z"/>
	<path class="st4" d="M31.3,24.1c7.1,11.7,15.2,22,24.3,28.7c1.5,1.1,2.7,2.1,2.4,2.8c-0.4,0.8-2.3,0.3-3.8-0.7
		c-10.4-6.8-19.9-18.2-25.5-28.5"/>
	<path class="st4" d="M28.6,26.7c0.1,0.2,0.9-0.2,1.8-0.9c0.9-0.7,1.5-1.4,1.3-1.6C19.4,5.7,18.2,4.4,17.7,4.9
		C17.2,5.3,17.8,7.1,28.6,26.7z"/>
	<path class="st4" d="M50.8,51.7c0.6-0.2,1.5-0.6,2.1-0.7c0.6-0.1,0.7,0,1.3,0.4c1.1,0.9,2.6,2.1,3.5,2.8c1,0.7,1.1,2.5-1.2,2
		c-2.3-0.5-3.9-1.9-5.9-3.5C49.9,52.2,49.8,52.1,50.8,51.7z"/>
	<path class="st5" d="M33.1,40.1l0-20.9c1.2-1,1.8-1.5,1.8-5.1c0-1-0.1-1.8-0.2-2.4l2.1,0c-0.1,0.6-0.2,1.4-0.2,2.4
		c0,3.5,0.6,4.1,1.8,5.1v14.4C38.5,36.9,37.7,40.1,33.1,40.1z"/>
	<ellipse class="st5" cx="35.8" cy="9.9" rx="2.6" ry="2.3"/>
	<path class="st4" d="M35.8,6.7c-0.8,0-0.8,1.2,0,1.2C36.6,7.9,36.6,6.7,35.8,6.7z"/>
	<path class="st4" d="M33.4,9.2c-0.8,0-0.8,1.4,0,1.4C34.2,10.6,34.2,9.2,33.4,9.2z"/>
	<path class="st4" d="M38.2,9.2c0.8,0,0.8,1.4,0,1.4C37.4,10.6,37.4,9.2,38.2,9.2z"/>
	<path class="st4" d="M38.1,36.8c-0.2,0.6-2,2.4-2,2.6"/>
	<path class="st4" d="M34.3,40c-0.9,0-1-1.6-1.1-2.4c0-1.3,0-3.2,0.2-3.9c0.3-1.3,0.1-0.9-0.6-0.5c-0.8,0.5-4.9,1.1-7.1,1.2
		c-2.2,0.1-4.7,1.2-1.5,3.2C27.4,39.5,32,40.6,34.3,40z"/>
	<path class="st4" d="M26.6,32c0.2,0,0.4-0.2,0.4-0.5v-4.4c0-0.3-0.2-0.5-0.4-0.5H20c-0.2,0-0.4,0.2-0.4,0.5v4.4
		c0,0.3,0.2,0.5,0.4,0.5H26.6z"/>
	<path class="st4" d="M44.1,32c-0.2,0-0.4-0.2-0.4-0.5v-4.4c0-0.3,0.2-0.5,0.4-0.5h6.7c0.2,0,0.4,0.2,0.4,0.5v4.4
		c0,0.3-0.2,0.5-0.4,0.5H44.1z"/>
	<path class="st4" d="M30.4,29.3c0,0.4,0.3,0.8,0.7,0.8c0.4,0,0.7-0.3,0.7-0.8c0-0.4-0.3-0.8-0.7-0.8C30.7,28.5,30.4,28.9,30.4,29.3
		h-0.7c0-0.9,0.6-1.7,1.4-1.7c0.8,0,1.4,0.7,1.4,1.7c0,0.9-0.6,1.7-1.4,1.7c-0.8,0-1.4-0.7-1.4-1.7H30.4z"/>
	<path class="st4" d="M30.5,29.3c0,1.3-0.1,2.4-1.4,2.4c-1.3,0-1.4-1.1-1.4-2.4c0-1.3,0.1-2.4,1.4-2.4C30.5,26.9,30.5,28,30.5,29.3
		h-0.7c0-0.9,0.1-1.6-0.7-1.6s-0.7,0.7-0.7,1.6c0,0.9-0.1,1.6,0.7,1.6s0.7-0.7,0.7-1.6H30.5z"/>
	<path class="st4" d="M26.5,29.3c0,1.2-0.4,1.1,1.3,1c1.3-0.1,0.9-0.1,0.9-1c0-1,0.4-1-0.9-1C26.1,28.1,26.5,28.1,26.5,29.3z"/>
	<path class="st4" d="M29.4,29.3c0,1.1-0.3,1,0.9,0.9c1.2-0.1,0.7-0.2,0.7-0.9c0-0.8,0.5-0.9-0.7-0.9C29,28.3,29.4,28.2,29.4,29.3z"
		/>
	<path class="st4" d="M40.2,29.3c0,1.3,0.1,2.4,1.4,2.4c1.3,0,1.4-1.1,1.4-2.4c0-1.3-0.1-2.4-1.4-2.4C40.3,26.9,40.2,28,40.2,29.3
		h0.7c0-0.9-0.1-1.6,0.7-1.6c0.8,0,0.7,0.7,0.7,1.6c0,0.9,0.1,1.6-0.7,1.6c-0.8,0-0.7-0.7-0.7-1.6H40.2z"/>
	<path class="st4" d="M44.3,29.3c0,1.2,0.4,1.1-1.3,1c-1.3-0.1-0.9-0.1-0.9-1c0-1-0.4-1,0.9-1C44.7,28.1,44.3,28.1,44.3,29.3z"/>
	<path class="st4" d="M41.1,29.3c0,0.9,0.3,0.7-1.6,0.7c-1.7,0-1.6,0.1-1.6-0.7c0-0.8-0.1-0.7,1.6-0.7
		C41.4,28.6,41.1,28.4,41.1,29.3z"/>
	<path class="st6" d="M39.5,24.1c-7.1,11.7-15.2,22-24.3,28.7c-1.5,1.1-2.7,2.1-2.4,2.8c0.4,0.8,2.3,0.3,3.8-0.7
		c10.4-6.8,19.9-18.2,25.5-28.5"/>
	<path class="st6" d="M42.3,26.7c-0.1,0.2-0.9-0.2-1.8-0.9c-0.9-0.7-1.5-1.4-1.3-1.6C51.4,5.7,52.6,4.4,53.1,4.9
		C53.7,5.3,53,7.1,42.3,26.7z"/>
	<path class="st6" d="M51.8,5.9c0,0.1,0.2,0.3,0.4,0.5c0.3,0.2,0.5,0.4,0.6,0.3"/>
	<path class="st6" d="M50.7,7.4c-0.1,0.1,0.2,0.4,0.6,0.7C51.6,8.4,52,8.6,52,8.5"/>
	<g>
		<line class="st6" x1="51" y1="10.3" x2="50.6" y2="7.4"/>
		<line class="st6" x1="50.2" y1="12" x2="49.7" y2="8.6"/>
		<line class="st6" x1="49.4" y1="13.6" x2="48.9" y2="9.9"/>
		<line class="st6" x1="48.5" y1="15.2" x2="48" y2="11.2"/>
		<line class="st6" x1="47.7" y1="16.8" x2="47.1" y2="12.5"/>
		<line class="st6" x1="46.8" y1="18.3" x2="46.2" y2="13.8"/>
		<line class="st6" x1="46" y1="19.9" x2="45.3" y2="15.1"/>
		<line class="st6" x1="45.1" y1="21.5" x2="44.4" y2="16.5"/>
		<line class="st6" x1="44.3" y1="23.1" x2="43.5" y2="17.8"/>
		<line class="st6" x1="49.4" y1="9" x2="51.9" y2="8.5"/>
		<line class="st6" x1="48.4" y1="10.5" x2="51.2" y2="9.9"/>
		<line class="st6" x1="47.4" y1="12" x2="50.5" y2="11.3"/>
		<line class="st6" x1="46.4" y1="13.4" x2="49.8" y2="12.7"/>
		<line class="st6" x1="45.4" y1="14.9" x2="49" y2="14.1"/>
		<line class="st6" x1="44.4" y1="16.4" x2="48.3" y2="15.5"/>
		<line class="st6" x1="43.4" y1="17.9" x2="47.5" y2="17"/>
		<line class="st6" x1="42.5" y1="19.3" x2="46.7" y2="18.4"/>
		<line class="st6" x1="41.5" y1="20.8" x2="46" y2="19.8"/>
		<line class="st6" x1="43" y1="21.7" x2="45.2" y2="21.2"/>
	</g>
	<line class="st6" x1="43" y1="21.7" x2="42.6" y2="19.1"/>
	<path class="st6" d="M42.4,26.5c-0.1,0.2-0.9-0.3-1.7-1c-0.9-0.7-1.5-1.4-1.4-1.6l2.4-3.7c-0.1,0.1,0.5,0.8,1.2,1.4
		c0.8,0.6,1.5,1,1.5,0.9L42.4,26.5z"/>
	<path class="st6" d="M42.3,25.9c-0.1,0.1-0.7-0.2-1.4-0.8c-0.7-0.6-1.2-1.1-1.1-1.3l1.9-3c-0.1,0.1,0.4,0.6,1.1,1.1
		c0.7,0.5,1.2,0.9,1.3,0.8L42.3,25.9z"/>
	<g>
		<polygon class="st6" points="41.8,25.1 43.2,22.8 42,21.9 40.6,24.2 		"/>
		<path class="st6" d="M41.9,23.5"/>
	</g>
	<line class="st6" x1="42" y1="21.9" x2="41.8" y2="25.1"/>
	<line class="st6" x1="40.6" y1="24.2" x2="43.2" y2="22.8"/>
	<path class="st6" d="M20.1,51.7c-0.6-0.2-1.5-0.6-2.1-0.7c-0.6-0.1-0.7,0-1.3,0.4c-1.1,0.9-2.6,2.1-3.5,2.8c-1,0.7-1.1,2.5,1.2,2
		c2.3-0.5,3.9-1.9,5.9-3.5C20.9,52.2,21.1,52.1,20.1,51.7z"/>
	<path class="st6" d="M17.1,51.6c-0.7,0.6-2.7,2.3-3.4,2.8c-0.7,0.5-1,1.2-0.1,1.4c0.9,0.1,2.5-0.5,5.7-2.9c0.5-0.4,1-0.6,0.1-0.9
		c-0.8-0.2-1.3-0.4-1.5-0.5C17.4,51.4,17.2,51.5,17.1,51.6z"/>
	<path class="st7" d="M19.9,51.6c0-0.5-0.2-1.2,0-1.4c-0.3,0.3,0.4,1.1,1,0.4c0.6-0.6,0.3-1.4-0.1-1.3"/>
	<path class="st7" d="M21.5,48.5c0.1-0.4,0.5-0.2,0.6-0.5c-0.3,0.6,0.6,0.7,1.1,0.4c0.4-0.3,0.6-0.9,0.2-1.1"/>
	<path class="st7" d="M23.3,48.3c0.3-0.3,0.6,0.3,0.8-0.1"/>
	<path class="st7" d="M26,46.1c-0.2-0.5-1.1-0.8-1.6-0.3c-0.5,0.5-0.6,1.4-0.1,1.5"/>
	<path class="st7" d="M24.1,46.4c-0.1,0.3-0.4,0.5-0.7,0.3"/>
	<path class="st7" d="M25.9,45.3c0.3,0.3,0.4-0.2,0.7-0.2c-0.4-0.1-0.6-0.5-0.5-0.9c0.1-0.5,0.5-0.9,0.9-1c0.4-0.1,0.7,0.2,0.7,0.5"
		/>
	<path class="st7" d="M27.3,42.4c0.2,0.2,0,0.7-0.4,0.8"/>
	<path class="st7" d="M29,41.4c0.4,0,0.6,0.3,0.5,0.7c-0.1,0.6-0.5,0.9-1,1c-0.4,0.1-0.6-0.4-0.4-0.7c-0.3,0.3,0.3,1,0,1.4"/>
	<path class="st7" d="M29.7,41c0-0.5,0.3-0.5,0.4-0.9c-0.1,0.5,0.4,0.7,0.7,0.5c0.2-0.1,0.8-0.8,0.7-1.2"/>
	<path class="st7" d="M17.2,52.3c0.3,0.4,0.8-0.3,1.2-0.3c0.4,0,0.5,0.5,0.4,0.6C18.6,53,18,52.8,17.6,53c-0.3,0.2-0.3,0.7-0.1,0.8
		c-0.2-0.1-0.5,0.5-0.8,0.5c0.3-0.3,0-1.2-0.3-1.4c0.2,0.3-0.1,0.7,0,0.9c-0.1-0.3-0.6-0.4-0.8-0.1c-0.3,0.3-0.2,0.8,0.1,0.9
		c-0.2-0.1-0.5,0.2-0.6,0.4c0.2-0.2,0.3-0.6,0.1-0.8c-0.1-0.1-0.5-0.2-0.7,0.2c0,0.1-0.2,0.5,0.1,0.7"/>
	<path class="st7" d="M14.4,54.9c0.1,0.3-0.1,0.8-0.6,0.6c-0.2-0.1-0.3-0.5-0.1-0.6"/>
	<path class="st7" d="M15.6,53.7c0.2-0.2,0.4-0.6,0.2-0.7"/>
	<path class="st7" d="M15.7,54.6c0.2,0.1,0.2,0.3,0.1,0.4"/>
	<path class="st8" d="M52,6.7c-0.3-0.2-0.5,0.3-0.3,0.5C52,7.4,52.3,6.9,52,6.7z"/>
	<path class="st6" d="M31.3,24.1c7.1,11.7,15.2,22,24.3,28.7c1.5,1.1,2.7,2.1,2.4,2.8c-0.4,0.8-2.3,0.3-3.8-0.7
		c-10.4-6.8-19.9-18.2-25.5-28.5"/>
	<path class="st6" d="M28.6,26.7c0.1,0.2,0.9-0.2,1.8-0.9c0.9-0.7,1.5-1.4,1.3-1.6C19.4,5.7,18.2,4.4,17.7,4.9
		C17.2,5.3,17.8,7.1,28.6,26.7z"/>
	<path class="st6" d="M19.1,5.9c0,0.1-0.2,0.3-0.4,0.5c-0.3,0.2-0.5,0.4-0.6,0.3"/>
	<path class="st6" d="M20.2,7.4c0.1,0.1-0.2,0.4-0.6,0.7c-0.4,0.3-0.7,0.5-0.8,0.4"/>
	<g>
		<line class="st6" x1="19.8" y1="10.3" x2="20.2" y2="7.4"/>
		<line class="st6" x1="20.6" y1="12" x2="21.1" y2="8.6"/>
		<line class="st6" x1="21.5" y1="13.6" x2="22" y2="9.9"/>
		<line class="st6" x1="22.3" y1="15.2" x2="22.9" y2="11.2"/>
		<line class="st6" x1="23.2" y1="16.8" x2="23.8" y2="12.5"/>
		<line class="st6" x1="24" y1="18.3" x2="24.7" y2="13.8"/>
		<line class="st6" x1="24.9" y1="19.9" x2="25.5" y2="15.1"/>
		<line class="st6" x1="25.7" y1="21.5" x2="26.4" y2="16.5"/>
		<line class="st6" x1="26.6" y1="23.1" x2="27.3" y2="17.8"/>
		<line class="st6" x1="21.4" y1="9" x2="18.9" y2="8.5"/>
		<line class="st6" x1="22.4" y1="10.5" x2="19.6" y2="9.9"/>
		<line class="st6" x1="23.5" y1="12" x2="20.3" y2="11.3"/>
		<line class="st6" x1="24.5" y1="13.4" x2="21.1" y2="12.7"/>
		<line class="st6" x1="25.5" y1="14.9" x2="21.8" y2="14.1"/>
		<line class="st6" x1="26.4" y1="16.4" x2="22.6" y2="15.5"/>
		<line class="st6" x1="27.4" y1="17.9" x2="23.3" y2="17"/>
		<line class="st6" x1="28.4" y1="19.3" x2="24.1" y2="18.4"/>
		<line class="st6" x1="29.3" y1="20.8" x2="24.9" y2="19.8"/>
		<line class="st6" x1="27.9" y1="21.7" x2="25.6" y2="21.2"/>
	</g>
	<line class="st6" x1="27.8" y1="21.7" x2="28.2" y2="19.1"/>
	<path class="st6" d="M28.4,26.5c0.1,0.2,0.9-0.3,1.7-1c0.9-0.7,1.5-1.4,1.4-1.6l-2.4-3.7c0.1,0.1-0.5,0.8-1.2,1.4
		c-0.8,0.6-1.5,1-1.5,0.9L28.4,26.5z"/>
	<path class="st6" d="M28.5,25.9c0.1,0.1,0.7-0.2,1.4-0.8c0.7-0.6,1.2-1.1,1.1-1.3l-1.9-3c0.1,0.1-0.4,0.6-1.1,1.1
		c-0.7,0.5-1.2,0.9-1.3,0.8L28.5,25.9z"/>
	<g>
		<polygon class="st6" points="29.1,25.1 27.7,22.8 28.8,21.9 30.2,24.2 		"/>
		<path class="st6" d="M29,23.5"/>
	</g>
	<line class="st6" x1="28.8" y1="21.9" x2="29.1" y2="25.1"/>
	<line class="st6" x1="30.2" y1="24.2" x2="27.7" y2="22.8"/>
	<path class="st6" d="M50.8,51.7c0.6-0.2,1.5-0.6,2.1-0.7c0.6-0.1,0.7,0,1.3,0.4c1.1,0.9,2.6,2.1,3.5,2.8c1,0.7,1.1,2.5-1.2,2
		c-2.3-0.5-3.9-1.9-5.9-3.5C49.9,52.2,49.8,52.1,50.8,51.7z"/>
	<path class="st6" d="M53.8,51.6c0.7,0.6,2.7,2.3,3.4,2.8c0.7,0.5,1,1.2,0.1,1.4c-0.9,0.1-2.5-0.5-5.7-2.9c-0.5-0.4-1-0.6-0.1-0.9
		c0.8-0.2,1.3-0.4,1.5-0.5C53.4,51.4,53.6,51.5,53.8,51.6z"/>
	<path class="st7" d="M51,51.6c0-0.5,0.2-1.2,0-1.4c0.3,0.3-0.4,1.1-1,0.4c-0.6-0.6-0.3-1.4,0.1-1.3"/>
	<path class="st7" d="M49.3,48.5c-0.1-0.4-0.5-0.2-0.6-0.5c0.3,0.6-0.6,0.7-1.1,0.4c-0.4-0.3-0.6-0.9-0.2-1.1"/>
	<path class="st7" d="M47.5,48.3c-0.3-0.3-0.6,0.3-0.8-0.1"/>
	<path class="st7" d="M44.8,46.1c0.2-0.5,1.1-0.8,1.6-0.3c0.5,0.5,0.6,1.4,0.1,1.5"/>
	<path class="st7" d="M46.8,46.4c0.1,0.3,0.4,0.5,0.7,0.3"/>
	<path class="st7" d="M44.9,45.3c-0.3,0.3-0.4-0.2-0.7-0.2c0.4-0.1,0.6-0.5,0.5-0.9c-0.1-0.5-0.5-0.9-0.9-1
		c-0.4-0.1-0.7,0.2-0.7,0.5"/>
	<path class="st7" d="M43.6,42.4c-0.2,0.2,0,0.7,0.4,0.8"/>
	<path class="st7" d="M41.9,41.4c-0.4,0-0.6,0.3-0.5,0.7c0.1,0.6,0.5,0.9,1,1c0.4,0.1,0.6-0.4,0.4-0.7c0.3,0.3-0.3,1,0,1.4"/>
	<path class="st7" d="M53.7,52.3c-0.3,0.4-0.8-0.3-1.2-0.3c-0.4,0-0.5,0.5-0.4,0.6c0.2,0.4,0.8,0.1,1.2,0.3c0.3,0.2,0.3,0.7,0.1,0.8
		c0.2-0.1,0.5,0.5,0.8,0.5c-0.3-0.3,0-1.2,0.3-1.4c-0.2,0.3,0.1,0.7,0,0.9c0.1-0.3,0.6-0.4,0.8-0.1c0.3,0.3,0.2,0.8-0.1,0.9
		c0.2-0.1,0.5,0.2,0.6,0.4c-0.2-0.2-0.3-0.6-0.1-0.8c0.1-0.1,0.5-0.2,0.7,0.2c0,0.1,0.2,0.5-0.1,0.7"/>
	<path class="st7" d="M56.5,54.9c-0.1,0.3,0.1,0.8,0.6,0.6c0.2-0.1,0.3-0.5,0.1-0.6"/>
	<path class="st7" d="M55.3,53.7C55,53.5,54.9,53.2,55,53"/>
	<path class="st7" d="M55.2,54.6C55,54.7,55,55,55.1,55.1"/>
	<path class="st8" d="M18.8,6.7c0.3-0.2,0.5,0.3,0.3,0.5C18.8,7.4,18.6,6.9,18.8,6.7z"/>
	<path class="st7" d="M39.4,39.9c0.2-0.5,1.1-0.8,1.6-0.3c0.5,0.5,0.6,1.4,0.1,1.5"/>
	<path class="st7" d="M41.4,40.2c0.1,0.3,0.4,0.5,0.7,0.3"/>
	<path class="st7" d="M38.2,36.9c-0.4,0-0.6,0.3-0.5,0.7c0.1,0.6,0.5,0.9,1,1c0.4,0.1,0.6-0.4,0.4-0.7c0.3,0.3-0.3,1,0,1.4"/>
	<g>
		<path class="st9" d="M33.1,40.1l0-20.9c1.2-1,1.8-1.5,1.8-5.1c0-1-0.1-1.8-0.2-2.4l2.1,0c-0.1,0.6-0.2,1.4-0.2,2.4
			c0,3.5,0.6,4.1,1.8,5.1v14.4C38.5,36.9,37.7,40.1,33.1,40.1z"/>
		<path class="st7" d="M34.9,12.8c0,0.2,1.7,0.2,1.7,0"/>
		<path class="st7" d="M35,13.8c0,0.2,1.7,0.2,1.7,0"/>
		<path class="st7" d="M35,14.8c0,0.2,1.7,0.2,1.7,0"/>
		<path class="st7" d="M34.9,15.8c0,0.2,1.8,0.2,1.8,0"/>
		<path class="st7" d="M35.8,19.5c-0.7-0.7-1-2.2-1-2.8c0,0.2,2.1,0.2,2.1,0C36.8,17.5,36.5,18.7,35.8,19.5z"/>
		<ellipse class="st9" cx="35.8" cy="9.9" rx="2.6" ry="2.3"/>
		<path class="st9" d="M35.8,9.9"/>
		<path class="st6" d="M35.8,6.7c-0.8,0-0.8,1.2,0,1.2C36.6,7.9,36.6,6.7,35.8,6.7z"/>
		<path class="st6" d="M33.4,9.2c-0.8,0-0.8,1.4,0,1.4C34.2,10.6,34.2,9.2,33.4,9.2z"/>
		<path class="st6" d="M38.2,9.2c0.8,0,0.8,1.4,0,1.4C37.4,10.6,37.4,9.2,38.2,9.2z"/>
		<path class="st6" d="M35.8,9.2c-0.8,0-0.8,1.4,0,1.4C36.6,10.5,36.6,9.2,35.8,9.2z"/>
		<path class="st10" d="M33.9,11.5c0.3-0.4,0.4-0.9,0.4-1.6c0-0.6-0.2-1.2-0.4-1.6"/>
		<path class="st10" d="M34.4,11.8c0.3-0.5,0.5-1.2,0.5-1.9c0-0.8-0.2-1.4-0.5-1.9"/>
		<path class="st10" d="M37.6,11.5c-0.3-0.4-0.4-0.9-0.4-1.6c0-0.6,0.2-1.2,0.4-1.6"/>
		<path class="st10" d="M37.2,11.8c-0.3-0.5-0.5-1.2-0.5-1.9c0-0.8,0.2-1.4,0.5-1.9"/>
		<path class="st6" d="M35.8,18.3c-1.2,0-1.2,2.1,0,2.1C37,20.5,37,18.3,35.8,18.3z"/>
		<path class="st6" d="M34.1,18.8c-0.7,0-0.7,1.2,0,1.2C34.8,20,34.8,18.8,34.1,18.8z"/>
		<path class="st6" d="M37.5,18.8c0.7,0,0.7,1.2,0,1.2C36.8,20,36.8,18.8,37.5,18.8z"/>
		<path class="st10" d="M38.5,20.2c0,0.2-1.2,0.5-2.7,0.5c-1.5,0-2.7-0.2-2.7-0.5"/>
		<path class="st10" d="M38.5,21.1c0,0.2-1.2,0.5-2.7,0.5c-1.5,0-2.7-0.2-2.7-0.5"/>
		<path class="st10" d="M38.5,22.8c0,0.2-1.2,0.5-2.7,0.5c-1.5,0-2.7-0.2-2.7-0.5"/>
		<path class="st10" d="M38.5,23.7c0,0.2-1.2,0.5-2.7,0.5c-1.5,0-2.7-0.2-2.7-0.5"/>
		<path class="st7" d="M33.2,21.8c0-0.2,0.2-0.3,0.3,0.2c0.1,0.6,0.3,0.8,0.6,0.6c-0.1,0-0.2-0.2-0.1-0.4c0.1-0.2,0.6-0.2,0.6,0.3
			c0,0.2-0.1,0.4-0.4,0.4c0.3,0.1,0.8-0.3,0.9,0.1c-0.1-0.3-0.3-0.8,0.1-0.9c0.2,0,0.4,0.2,0.2,0.5c-0.2,0.3,0.2,0.6,0.4,0.2
			c0.1-0.3,0-1-0.3-1"/>
		<path class="st7" d="M38.4,21.8c0-0.2-0.2-0.3-0.3,0.2c-0.1,0.6-0.3,0.8-0.6,0.6c0.1,0,0.2-0.2,0.1-0.4C37.5,22,37,22,37,22.5
			c0,0.2,0.1,0.4,0.4,0.4c-0.3,0.1-0.8-0.3-0.9,0.1c0.1-0.3,0.3-0.8-0.1-0.9c-0.2,0-0.4,0.2-0.2,0.5c0.2,0.3-0.2,0.6-0.4,0.2
			c-0.1-0.3,0-1,0.3-1"/>
		<path class="st10" d="M38.5,25c0,0.2-1.2,0.5-2.7,0.5c-1.5,0-2.7-0.2-2.7-0.5"/>
		<path class="st11" d="M35.8,24.3c-0.5,0-0.5,0.9,0,0.9C36.3,25.2,36.3,24.3,35.8,24.3z"/>
		<path class="st11" d="M36.8,24.3c-0.5,0-0.5,0.9,0,0.9C37.3,25.2,37.3,24.3,36.8,24.3z"/>
		<path class="st11" d="M37.7,24.2c-0.5,0-0.5,0.9,0,0.9C38.2,25.1,38.2,24.2,37.7,24.2z"/>
		<path class="st11" d="M38.5,23.9c-0.4,0.1-0.4,0.8,0,0.9"/>
		<path class="st11" d="M34.8,24.3c0.5,0,0.5,0.9,0,0.9C34.3,25.2,34.3,24.3,34.8,24.3z"/>
		<path class="st11" d="M33.9,24.2c0.5,0,0.5,0.9,0,0.9C33.4,25.1,33.4,24.2,33.9,24.2z"/>
		<path class="st11" d="M33.1,23.9c0.4,0.1,0.4,0.8,0,0.9"/>
		<path class="st11" d="M33.1,32.1c0-0.7,1.5-2.3,2.4-3.3c1.5-1.7,2.9-3.1,2.9-3.9"/>
		<path class="st11" d="M33.1,33.4c0-0.7,1.5-2.3,2.4-3.3c1.5-1.7,2.9-3.1,2.9-3.9"/>
		<path class="st11" d="M33.1,34.7c0-0.7,1.5-2.3,2.4-3.3c1.5-1.7,2.9-3.1,2.9-3.9"/>
		<path class="st11" d="M33.1,35.9c0-0.7,1.5-2.3,2.4-3.3c1.5-1.7,2.9-3.1,2.9-3.9"/>
		<path class="st11" d="M33.1,37.2c0-0.7,1.5-2.3,2.4-3.3c1.5-1.7,2.9-3.1,2.9-3.9"/>
		<path class="st11" d="M33.1,38.4c0-0.7,1.5-2.3,2.4-3.3c1.5-1.7,2.9-3.1,2.9-3.9"/>
		<path class="st11" d="M33.1,39.7c0-0.7,1.5-2.3,2.4-3.3c1.5-1.7,2.9-3.1,2.9-3.9"/>
		<path class="st11" d="M33.8,40.1c0-0.6,1.4-2,2.1-2.9c1.3-1.5,2.6-2.7,2.6-3.5"/>
		<path class="st11" d="M34.9,39.9c0-0.5,1-1.5,1.6-2.2c1-1.1,1.9-2,1.9-2.6"/>
		<path class="st11" d="M33.1,30.9c0-0.7,1.5-2.3,2.4-3.3c0.7-0.9,1.5-1.6,2-2.3"/>
		<path class="st11" d="M33.1,29.7c0-0.7,1.5-2.3,2.4-3.3c0.3-0.3,0.6-0.7,0.9-1"/>
		<path class="st11" d="M33.1,28.5c0-0.6,1.3-2.1,2.2-3.1"/>
		<path class="st11" d="M33.1,27.3c0-0.4,0.6-1.2,1.2-1.9"/>
		<path class="st11" d="M33.1,26c0-0.2,0.2-0.5,0.4-0.9"/>
		<path class="st11" d="M38.1,36.8c-0.2,0.6-2,2.4-2,2.6"/>
		<path class="st11" d="M38.5,32.1c0-0.7-1.5-2.3-2.4-3.3c-1.5-1.7-2.9-3.1-2.9-3.9"/>
		<path class="st11" d="M38.4,33.3c0-0.7-1.5-2.2-2.4-3.3c-1.5-1.7-2.9-3.1-2.9-3.9"/>
		<path class="st11" d="M38.4,34.6c0-0.7-1.5-2.2-2.4-3.2c-1.5-1.7-2.9-3.1-2.9-3.9"/>
		<path class="st11" d="M38.3,35.7c0-0.7-1.4-2.1-2.3-3.1c-1.5-1.7-2.9-3.1-2.9-3.9"/>
		<path class="st11" d="M38.1,36.7c0-0.5-1.4-2.1-2.1-2.8c-1.5-1.7-2.9-3.1-2.9-3.9"/>
		<path class="st11" d="M37.9,37.3c-0.4-0.7-1.3-1.6-1.8-2.2c-1.5-1.7-2.9-3.1-2.9-3.9"/>
		<path class="st11" d="M37.6,37.9c-0.5-0.1-0.8-0.6-1.5-1.5c-1.5-1.7-2.9-3.1-2.9-3.9"/>
		<path class="st11" d="M37.1,38.6c-0.3,0.1-1.4-1.4-2.2-2.3c-1.3-1.5-1.8-1.8-1.8-2.6"/>
		<path class="st11" d="M38.5,30.9c0-0.7-1.5-2.3-2.4-3.3c-0.7-0.9-1.4-1.6-2-2.3"/>
		<path class="st11" d="M38.5,29.7c0-0.7-1.5-2.3-2.4-3.3c-0.3-0.3-0.5-0.7-0.8-1"/>
		<path class="st11" d="M38.5,28.5c0-0.6-1.3-2.1-2.2-3.1"/>
		<path class="st11" d="M38.5,27.3c0-0.4-0.5-1.2-1.2-1.9"/>
		<path class="st11" d="M38.5,26c0-0.2-0.1-0.5-0.3-0.9"/>
		<path class="st11" d="M33.1,36.5c0.9,1,2.6,3.1,2.8,3"/>
		<path class="st11" d="M33.2,37.6c0.9,1.1,1.8,2.2,2,2.1"/>
		<path class="st11" d="M33.2,38.8c0.5,0.6,1,1.2,1.1,1.2"/>
		<path class="st11" d="M33.2,35.4c0.6,0.8,2.5,2.9,2.7,3.2c0.3,0.3,0.5,0.6,0.6,0.5"/>
		<path class="st12" d="M33.5,32.9c-0.2,0.7-0.7,6.8-0.1,7.2c0.5-0.1,1.2-0.2,1.4-0.2c-1.3,0.2-1.5-1.6-1.5-2.6
			C33.3,34.5,33.7,32.9,33.5,32.9z"/>
		<path class="st6" d="M34.3,40c-0.9,0-1-1.6-1.1-2.4c0-1.3,0-3.2,0.2-3.9c0.3-1.3,0.1-0.9-0.6-0.5c-0.8,0.5-4.9,1.1-7.1,1.2
			c-2.2,0.1-4.7,1.2-1.5,3.2C27.4,39.5,32,40.6,34.3,40z"/>
		<path class="st6" d="M27.2,39c-0.1,0.2-2.1-0.9-3-1.4c-3.2-1.9-0.7-3.1,1.5-3.2c1.2,0,1.7-0.4,1.8-0.1c-0.3,0-0.5,0.2-0.6,2.3
			C26.9,38.3,27,38.9,27.2,39z"/>
		<path class="st11" d="M26.8,34.3c-0.3,0-0.4,0.2-0.5,2.2c-0.1,1.6,0,2.2,0.2,2.3"/>
		<path class="st11" d="M26.6,34.4c-0.7,0-2.7,3.2-3.2,2.6"/>
		<path class="st11" d="M26.2,38.7c-0.8-0.4-1.7-4.3-2.6-3.9"/>
		<path class="st11" d="M32.9,33.2c-0.6,0.2-0.7,2.3-0.7,3.8c0,1.8,0.3,3.2,1,3.1"/>
		<path class="st11" d="M27,35.5c0.4-0.3,1-1.2,1.8-1.4"/>
		<path class="st11" d="M27,36.3c0.6-0.5,2-2.3,2.8-2.3"/>
		<path class="st11" d="M26.9,37.1c1.1-1,2.9-3.1,3.6-3.2"/>
		<path class="st11" d="M26.9,37.9c1.3-1,3.8-4.1,4.7-4.3"/>
		<path class="st11" d="M27,38.6c1.3-0.7,5-4.9,5.8-5.2"/>
		<path class="st11" d="M27.1,39c0.7,0.2,4.5-3.9,5.3-4.7"/>
		<path class="st11" d="M27.7,39.2c1,0.4,2.4-1.5,4.6-3.8"/>
		<path class="st11" d="M28.4,39.4c0.7,0.2,1.4-0.2,3.9-2.8"/>
		<path class="st11" d="M29.1,39.6c0.6,0.2,1.4,0.2,3.1-2"/>
		<path class="st11" d="M30.3,39.9c0.8,0.1,1.4-0.4,2-1.3"/>
		<path class="st11" d="M31.5,40.1c0.4,0.1,0.8-0.4,1-0.7"/>
		<path class="st11" d="M32.5,40.1c0.1,0,0.3-0.2,0.3-0.2"/>
		<path class="st11" d="M27.2,34.6c0.1-0.1,0.3-0.3,0.5-0.3"/>
	</g>
	<g>
		<path class="st6" d="M26.6,32c0.2,0,0.4-0.2,0.4-0.5v-4.4c0-0.3-0.2-0.5-0.4-0.5H20c-0.2,0-0.4,0.2-0.4,0.5v4.4
			c0,0.3,0.2,0.5,0.4,0.5H26.6z"/>
		<line class="st11" x1="19.5" y1="27.7" x2="27.1" y2="27.7"/>
		<line class="st11" x1="20.5" y1="26.6" x2="19.5" y2="27.7"/>
		<line class="st11" x1="21.1" y1="26.6" x2="20.1" y2="27.7"/>
		<line class="st11" x1="21.7" y1="26.6" x2="20.7" y2="27.7"/>
		<line class="st11" x1="22.3" y1="26.6" x2="21.3" y2="27.7"/>
		<line class="st11" x1="22.9" y1="26.6" x2="21.9" y2="27.7"/>
		<line class="st11" x1="23.5" y1="26.6" x2="22.5" y2="27.7"/>
		<line class="st11" x1="24.1" y1="26.6" x2="23.1" y2="27.7"/>
		<line class="st11" x1="24.7" y1="26.6" x2="23.7" y2="27.7"/>
		<line class="st11" x1="25.3" y1="26.6" x2="24.3" y2="27.7"/>
		<line class="st11" x1="25.9" y1="26.6" x2="24.9" y2="27.7"/>
		<line class="st11" x1="26.5" y1="26.6" x2="25.5" y2="27.7"/>
		<line class="st11" x1="26.9" y1="26.7" x2="26.1" y2="27.7"/>
		<line class="st11" x1="20.5" y1="27.7" x2="19.6" y2="26.7"/>
		<line class="st11" x1="21.1" y1="27.7" x2="20.1" y2="26.6"/>
		<line class="st11" x1="21.7" y1="27.7" x2="20.7" y2="26.6"/>
		<line class="st11" x1="22.3" y1="27.7" x2="21.3" y2="26.6"/>
		<line class="st11" x1="22.9" y1="27.7" x2="21.9" y2="26.6"/>
		<line class="st11" x1="23.5" y1="27.7" x2="22.5" y2="26.6"/>
		<line class="st11" x1="24.1" y1="27.7" x2="23.1" y2="26.6"/>
		<line class="st11" x1="24.7" y1="27.7" x2="23.7" y2="26.6"/>
		<line class="st11" x1="25.3" y1="27.7" x2="24.3" y2="26.6"/>
		<line class="st11" x1="25.9" y1="27.7" x2="24.9" y2="26.6"/>
		<line class="st11" x1="26.5" y1="27.7" x2="25.5" y2="26.6"/>
		<line class="st11" x1="27.1" y1="27.7" x2="26.1" y2="26.6"/>
		<path class="st11" d="M23.3,28c0.2,0,0.2,0.5,0.3,0.6c0.1,0.1,0.3-0.1,0.4-0.2c0.3-0.3,0.6,0,0.4,0.3c-0.2,0.2-0.2,0.3,0.3,0.3
			c0.2,0,0.4,0.1,0.4,0.2s-0.1,0.2-0.4,0.2c-0.4,0-0.5,0.1-0.3,0.3c0.3,0.3-0.1,0.7-0.4,0.3c-0.1-0.1-0.3-0.3-0.4-0.2
			c-0.1,0.1,0,0.6-0.3,0.6c-0.2,0-0.2-0.5-0.3-0.6c-0.1-0.1-0.3,0.1-0.4,0.2c-0.3,0.3-0.6,0-0.4-0.3c0.2-0.2,0.2-0.3-0.3-0.3
			c-0.2,0-0.4-0.1-0.4-0.2S21.8,29,22,29c0.4,0,0.5-0.1,0.3-0.3c-0.3-0.3,0.1-0.7,0.4-0.3c0.1,0.1,0.3,0.3,0.4,0.2
			C23.1,28.5,23.1,28,23.3,28z"/>
		<path class="st11" d="M23.3,29c-0.3,0-0.3,0.6,0,0.6S23.6,29,23.3,29z"/>
		<line class="st11" x1="19.5" y1="30.8" x2="27.1" y2="30.8"/>
		<line class="st11" x1="20.5" y1="32" x2="19.5" y2="30.8"/>
		<line class="st11" x1="21.1" y1="32" x2="20.1" y2="30.8"/>
		<line class="st11" x1="21.7" y1="32" x2="20.7" y2="30.8"/>
		<line class="st11" x1="22.3" y1="32" x2="21.3" y2="30.8"/>
		<line class="st11" x1="22.9" y1="32" x2="21.9" y2="30.8"/>
		<line class="st11" x1="23.5" y1="32" x2="22.5" y2="30.8"/>
		<line class="st11" x1="24.1" y1="32" x2="23.1" y2="30.8"/>
		<line class="st11" x1="24.7" y1="32" x2="23.7" y2="30.8"/>
		<line class="st11" x1="25.3" y1="32" x2="24.3" y2="30.8"/>
		<line class="st11" x1="25.9" y1="32" x2="24.9" y2="30.8"/>
		<line class="st11" x1="26.5" y1="32" x2="25.5" y2="30.8"/>
		<line class="st11" x1="26.9" y1="31.8" x2="26.1" y2="30.8"/>
		<line class="st11" x1="20.5" y1="30.8" x2="19.6" y2="31.8"/>
		<line class="st11" x1="21.1" y1="30.8" x2="20.1" y2="32"/>
		<line class="st11" x1="21.7" y1="30.8" x2="20.7" y2="32"/>
		<line class="st11" x1="22.3" y1="30.8" x2="21.3" y2="32"/>
		<line class="st11" x1="22.9" y1="30.8" x2="21.9" y2="32"/>
		<line class="st11" x1="23.5" y1="30.8" x2="22.5" y2="32"/>
		<line class="st11" x1="24.1" y1="30.8" x2="23.1" y2="32"/>
		<line class="st11" x1="24.7" y1="30.8" x2="23.7" y2="32"/>
		<line class="st11" x1="25.3" y1="30.8" x2="24.3" y2="32"/>
		<line class="st11" x1="25.9" y1="30.8" x2="24.9" y2="32"/>
		<line class="st11" x1="26.5" y1="30.8" x2="25.5" y2="32"/>
		<line class="st11" x1="27.1" y1="30.8" x2="26.1" y2="32"/>
		<path class="st6" d="M44.1,32c-0.2,0-0.4-0.2-0.4-0.5v-4.4c0-0.3,0.2-0.5,0.4-0.5h6.7c0.2,0,0.4,0.2,0.4,0.5v4.4
			c0,0.3-0.2,0.5-0.4,0.5H44.1z"/>
		<line class="st11" x1="51.2" y1="27.7" x2="43.7" y2="27.7"/>
		<line class="st11" x1="50.2" y1="26.6" x2="51.2" y2="27.7"/>
		<line class="st11" x1="49.6" y1="26.6" x2="50.6" y2="27.7"/>
		<line class="st11" x1="49" y1="26.6" x2="50" y2="27.7"/>
		<line class="st11" x1="48.4" y1="26.6" x2="49.4" y2="27.7"/>
		<line class="st11" x1="47.8" y1="26.6" x2="48.8" y2="27.7"/>
		<line class="st11" x1="47.2" y1="26.6" x2="48.2" y2="27.7"/>
		<line class="st11" x1="46.6" y1="26.6" x2="47.6" y2="27.7"/>
		<line class="st11" x1="46" y1="26.6" x2="47" y2="27.7"/>
		<line class="st11" x1="45.4" y1="26.6" x2="46.4" y2="27.7"/>
		<line class="st11" x1="44.8" y1="26.6" x2="45.8" y2="27.7"/>
		<line class="st11" x1="44.2" y1="26.6" x2="45.3" y2="27.7"/>
		<line class="st11" x1="43.8" y1="26.7" x2="44.7" y2="27.7"/>
		<line class="st11" x1="50.2" y1="27.7" x2="51.1" y2="26.7"/>
		<line class="st11" x1="49.6" y1="27.7" x2="50.6" y2="26.6"/>
		<line class="st11" x1="49" y1="27.7" x2="50" y2="26.6"/>
		<line class="st11" x1="48.4" y1="27.7" x2="49.4" y2="26.6"/>
		<line class="st11" x1="47.8" y1="27.7" x2="48.8" y2="26.6"/>
		<line class="st11" x1="47.2" y1="27.7" x2="48.2" y2="26.6"/>
		<line class="st11" x1="46.6" y1="27.7" x2="47.6" y2="26.6"/>
		<line class="st11" x1="46" y1="27.7" x2="47" y2="26.6"/>
		<line class="st11" x1="45.4" y1="27.7" x2="46.4" y2="26.6"/>
		<line class="st11" x1="44.8" y1="27.7" x2="45.8" y2="26.6"/>
		<line class="st11" x1="44.2" y1="27.7" x2="45.3" y2="26.6"/>
		<line class="st11" x1="43.7" y1="27.7" x2="44.7" y2="26.6"/>
		<path class="st11" d="M47.4,28c-0.2,0-0.2,0.5-0.3,0.6c-0.1,0.1-0.3-0.1-0.4-0.2c-0.3-0.3-0.6,0-0.4,0.3c0.2,0.2,0.2,0.3-0.3,0.3
			c-0.2,0-0.4,0.1-0.4,0.2s0.1,0.2,0.4,0.2c0.4,0,0.5,0.1,0.3,0.3c-0.3,0.3,0.1,0.7,0.4,0.3c0.1-0.1,0.3-0.3,0.4-0.2
			c0.1,0.1,0,0.6,0.3,0.6c0.2,0,0.2-0.5,0.3-0.6c0.1-0.1,0.3,0.1,0.4,0.2c0.3,0.3,0.6,0,0.4-0.3c-0.2-0.2-0.2-0.3,0.3-0.3
			c0.2,0,0.4-0.1,0.4-0.2S48.9,29,48.7,29c-0.4,0-0.5-0.1-0.3-0.3c0.3-0.3-0.1-0.7-0.4-0.3c-0.1,0.1-0.3,0.3-0.4,0.2
			C47.6,28.5,47.7,28,47.4,28z"/>
		<path class="st11" d="M47.4,29c0.3,0,0.3,0.6,0,0.6C47.1,29.5,47.1,29,47.4,29z"/>
		<line class="st11" x1="51.2" y1="30.8" x2="43.7" y2="30.8"/>
		<line class="st11" x1="50.2" y1="32" x2="51.2" y2="30.8"/>
		<line class="st11" x1="49.6" y1="32" x2="50.6" y2="30.8"/>
		<line class="st11" x1="49" y1="32" x2="50" y2="30.8"/>
		<line class="st11" x1="48.4" y1="32" x2="49.4" y2="30.8"/>
		<line class="st11" x1="47.8" y1="32" x2="48.8" y2="30.8"/>
		<line class="st11" x1="47.2" y1="32" x2="48.2" y2="30.8"/>
		<line class="st11" x1="46.6" y1="32" x2="47.6" y2="30.8"/>
		<line class="st11" x1="46" y1="32" x2="47" y2="30.8"/>
		<line class="st11" x1="45.4" y1="32" x2="46.4" y2="30.8"/>
		<line class="st11" x1="44.8" y1="32" x2="45.8" y2="30.8"/>
		<line class="st11" x1="44.2" y1="32" x2="45.3" y2="30.8"/>
		<line class="st11" x1="43.8" y1="31.8" x2="44.7" y2="30.8"/>
		<line class="st11" x1="50.2" y1="30.8" x2="51.1" y2="31.8"/>
		<line class="st11" x1="49.6" y1="30.8" x2="50.6" y2="32"/>
		<line class="st11" x1="49" y1="30.8" x2="50" y2="32"/>
		<line class="st11" x1="48.4" y1="30.8" x2="49.4" y2="32"/>
		<line class="st11" x1="47.8" y1="30.8" x2="48.8" y2="32"/>
		<line class="st11" x1="47.2" y1="30.8" x2="48.2" y2="32"/>
		<line class="st11" x1="46.6" y1="30.8" x2="47.6" y2="32"/>
		<line class="st11" x1="46" y1="30.8" x2="47" y2="32"/>
		<line class="st11" x1="45.4" y1="30.8" x2="46.4" y2="32"/>
		<line class="st11" x1="44.8" y1="30.8" x2="45.8" y2="32"/>
		<line class="st11" x1="44.2" y1="30.8" x2="45.3" y2="32"/>
		<line class="st11" x1="43.7" y1="30.8" x2="44.7" y2="32"/>
		<path class="st6" d="M30.9,30c1.8-0.2,4.1-0.2,5.2-0.1v-1.3c-1.1,0.1-3.4,0.1-5.2-0.1V30z"/>
		<path class="st6" d="M32.3,29.3c0,0.9-0.1,1.6,0.7,1.6c0.7,0,0.7-0.7,0.7-1.6c0-0.9,0.1-1.6-0.7-1.6
			C32.2,27.7,32.3,28.4,32.3,29.3h-0.6c0-1.3,0.1-2.3,1.3-2.3c1.2,0,1.3,1,1.3,2.3c0,1.3-0.1,2.3-1.3,2.3c-1.2,0-1.3-1-1.3-2.3H32.3
			z"/>
		<path class="st6" d="M30.4,29.3c0,0.4,0.3,0.8,0.7,0.8c0.4,0,0.7-0.3,0.7-0.8c0-0.4-0.3-0.8-0.7-0.8
			C30.7,28.5,30.4,28.9,30.4,29.3h-0.7c0-0.9,0.6-1.7,1.4-1.7c0.8,0,1.4,0.7,1.4,1.7c0,0.9-0.6,1.7-1.4,1.7c-0.8,0-1.4-0.7-1.4-1.7
			H30.4z"/>
		<path class="st6" d="M30.5,29.3c0,1.3-0.1,2.4-1.4,2.4c-1.3,0-1.4-1.1-1.4-2.4c0-1.3,0.1-2.4,1.4-2.4C30.5,26.9,30.5,28,30.5,29.3
			h-0.7c0-0.9,0.1-1.6-0.7-1.6s-0.7,0.7-0.7,1.6c0,0.9-0.1,1.6,0.7,1.6s0.7-0.7,0.7-1.6H30.5z"/>
		<path class="st6" d="M26.5,29.3c0,1.2-0.4,1.1,1.3,1c1.3-0.1,0.9-0.1,0.9-1c0-1,0.4-1-0.9-1C26.1,28.1,26.5,28.1,26.5,29.3z"/>
		<path class="st6" d="M29.4,29.3c0,1.1-0.3,1,0.9,0.9c1.2-0.1,0.7-0.2,0.7-0.9c0-0.8,0.5-0.9-0.7-0.9C29,28.3,29.4,28.2,29.4,29.3z
			"/>
		<path class="st6" d="M40.2,29.3c0,1.3,0.1,2.4,1.4,2.4c1.3,0,1.4-1.1,1.4-2.4c0-1.3-0.1-2.4-1.4-2.4C40.3,26.9,40.2,28,40.2,29.3
			h0.7c0-0.9-0.1-1.6,0.7-1.6c0.8,0,0.7,0.7,0.7,1.6c0,0.9,0.1,1.6-0.7,1.6c-0.8,0-0.7-0.7-0.7-1.6H40.2z"/>
		<path class="st6" d="M44.3,29.3c0,1.2,0.4,1.1-1.3,1c-1.3-0.1-0.9-0.1-0.9-1c0-1-0.4-1,0.9-1C44.7,28.1,44.3,28.1,44.3,29.3z"/>
		<path class="st6" d="M37.1,29.3c0,0.6,0,1.1,0.6,1.1c0.6,0,0.6-0.5,0.6-1.1c0-0.6,0-1.1-0.6-1.1C37,28.2,37.1,28.7,37.1,29.3h-0.6
			c0-1.1,0.1-1.9,1.2-1.9c1.1,0,1.2,0.9,1.2,1.9c0,1.1-0.1,1.9-1.2,1.9c-1.1,0-1.2-0.9-1.2-1.9H37.1z"/>
		<path class="st6" d="M37.3,29.3c0,1.1,0.3,1-0.9,0.9c-1.2-0.1-0.7-0.2-0.7-0.9c0-0.8-0.5-0.9,0.7-0.9
			C37.6,28.3,37.3,28.2,37.3,29.3z"/>
		<path class="st6" d="M41.1,29.3c0,0.9,0.3,0.7-1.6,0.7c-1.7,0-1.6,0.1-1.6-0.7c0-0.8-0.1-0.7,1.6-0.7
			C41.4,28.6,41.1,28.4,41.1,29.3z"/>
	</g>
</g>
</svg>
