<?xml version="1.0" encoding="utf-8"?>
<!-- Generator: Adobe Illustrator 22.1.0, SVG Export Plug-In . SVG Version: 6.00 Build 0)  -->
<svg version="1.1" id="layer_1" xmlns="http://www.w3.org/2000/svg" xmlns:xlink="http://www.w3.org/1999/xlink" x="0px" y="0px"
	 viewBox="0 0 216 144" style="enable-background:new 0 0 216 144;" xml:space="preserve">
<style type="text/css">
	.st0{fill:#0000FF;}
	.st1{fill:#C1272D;}
	.st2{fill:#FFFFFF;}
	.st3{fill:#F3C95A;stroke:#000000;stroke-width:6.250000e-02;}
</style>
<rect y="0.5" class="st0" width="216" height="72"/>
<rect y="72.5" class="st1" width="216" height="72"/>
<polygon class="st2" points="0,0.5 91.8,72.5 0,144.5 "/>
<g>
	<path class="st3" d="M36.2,58.6c1,0.3,2,0.9,2.9,1.6l5.6-9.5l1.6,0.4L40,61c0.1,0.1,0.5,0.5,0.7,0.7l7.7-10.9l1.3,0.3l0.3,1.8
		l-8.2,10.2c0.1,0.2,0.4,0.7,0.5,0.9l7.4-8.4l0.3,2.1l-7.1,7.4c0.5,1.2,1,2.5,1.2,3.9l9-1.4l0.9,1.8l-9.7,1c0,0.2,0.1,0.8,0.1,1.1
		L55.6,71l0.8,1.5L55.6,74l-11.2-0.5c0,0.3-0.1,0.9-0.1,1.1l9.7,1L53,77.5L44,76c-0.3,1.4-0.7,2.7-1.2,3.9l7.1,7.4l-0.3,2.1L42.2,81
		c-0.1,0.2-0.4,0.7-0.5,0.9l8.2,10.2l-0.3,1.8l-1.3,0.3l-7.7-10.9c-0.2,0.2-0.5,0.6-0.7,0.7l6.3,9.8l-1.6,0.4l-5.6-9.5
		c-0.9,0.7-1.9,1.3-2.9,1.6l1.1,12l-1.4,1.2l-0.7-12.9c-0.2,0-0.6,0.1-0.8,0.1l0.4,15l-1.1,1l-1.1-1l0.4-15c-0.2,0-0.7-0.1-0.8-0.1
		l-0.7,12.9l-1.4-1.2l1.1-12c-1-0.3-2-0.9-2.9-1.6l-5.6,9.5l-1.6-0.4l6.3-9.8c-0.1-0.1-0.5-0.5-0.7-0.7l-7.7,10.9l-1.3-0.3l-0.3-1.8
		l8.2-10.2c-0.1-0.2-0.4-0.7-0.5-0.9l-7.4,8.4l-0.3-2.1l7.1-7.4c-0.5-1.2-1-2.5-1.2-3.9l-9,1.4l-0.9-1.8l9.7-1
		c0-0.2-0.1-0.8-0.1-1.1L11.5,74l-0.8-1.5l0.8-1.5l11.2,0.5c0-0.3,0.1-0.9,0.1-1.1l-9.7-1l0.9-1.8l9,1.5c0.3-1.4,0.7-2.7,1.2-3.9
		l-7.1-7.4l0.3-2.1l7.4,8.4c0.1-0.2,0.4-0.7,0.5-0.9l-8.2-10.2l0.3-1.8l1.3-0.3l7.7,10.9c0.2-0.2,0.5-0.6,0.7-0.7l-6.3-9.8l1.6-0.4
		l5.6,9.5c0.9-0.7,1.9-1.3,2.9-1.6l-1.1-12l1.4-1.2L32,58.3c0.2,0,0.6-0.1,0.8-0.1l-0.4-15l1.1-1l1.1,1l-0.4,15
		c0.2,0,0.7,0.1,0.8,0.1l0.7-12.9l1.4,1.2L36.2,58.6z"/>
</g>
<g>
	<polygon class="st3" points="81,72.5 76.9,70.7 76.9,64.9 74.3,69.6 70.2,67.8 72.8,72.5 70.2,77.2 74.4,75.4 76.9,80.1 76.9,74.3 
			"/>
	<polygon class="st3" points="5.4,12.9 6.3,18.6 2.6,21.5 6.9,22.1 7.8,27.8 9.6,22.5 13.9,23.1 10.6,19.2 12.4,13.9 8.7,16.8 	"/>
	<polygon class="st3" points="5.4,132.1 6.3,126.4 2.6,123.5 6.9,122.9 7.8,117.2 9.6,122.5 13.9,121.9 10.6,125.8 12.4,131.1 
		8.7,128.2 	"/>
</g>
</svg>
