<?xml version="1.0" encoding="utf-8"?>
<!-- Generator: Adobe Illustrator 22.1.0, SVG Export Plug-In . SVG Version: 6.00 Build 0)  -->
<svg version="1.1" id="layer_1" xmlns="http://www.w3.org/2000/svg" xmlns:xlink="http://www.w3.org/1999/xlink" x="0px" y="0px"
	 viewBox="0 0 216 144" style="enable-background:new 0 0 216 144;" xml:space="preserve">
<style type="text/css">
	.st0{fill:#D14A48;}
	.st1{fill:#558747;}
	.st2{fill:#FFF243;stroke:#000000;stroke-width:0.125;}
	.st3{fill:none;stroke:#000000;stroke-width:0.125;}
	.st4{fill:#D14A48;stroke:#000000;stroke-width:0.75;}
	.st5{fill:#D14A48;stroke:#FFFFFF;stroke-width:0.25;}
	.st6{fill:#FFFFFF;stroke:#000000;stroke-width:0.125;}
	.st7{fill:#FFF243;stroke:#000000;stroke-width:6.300000e-02;}
	.st8{fill:#FFF243;stroke:#000000;stroke-width:6.250000e-02;}
	.st9{fill:#4A7FC0;stroke:#000000;stroke-width:6.300000e-02;}
	.st10{fill:#FFFFFF;}
</style>
<rect x="83.6" y="0.5" class="st0" width="132.9" height="144"/>
<rect x="0.5" y="0.5" class="st1" width="83.1" height="144"/>
<g>
	<g>
		<g>
			<g>
				<path class="st2" d="M66.7,72.4l-14-11.5c0.6-0.8,1.7-2.1,2.3-2.8l14,11.5L66.7,72.4z"/>
				<path class="st2" d="M67.2,71.8c0,0-13.8-11.3-14-11.5l-1,1.2c0.5,0.4,14,11.5,14,11.5L67.2,71.8z"/>
				<path class="st2" d="M69.6,68.8c0,0-13.8-11.3-14-11.5l-1,1.2c0.5,0.4,14,11.5,14,11.5L69.6,68.8z"/>
			</g>
			<g>
				<path class="st2" d="M114.3,59.6L95,68.4c-0.4-0.8-1-2.1-1.3-2.8l19.3-8.8L114.3,59.6z"/>
				<path class="st2" d="M114.1,59c0,0-19,8.6-19.3,8.8l0.5,1.2c0.7-0.3,19.3-8.8,19.3-8.8L114.1,59z"/>
				<path class="st2" d="M112.7,56.1c0,0-19,8.6-19.3,8.8l0.5,1.2c0.7-0.3,19.3-8.8,19.3-8.8L112.7,56.1z"/>
			</g>
			<g>
				<path class="st2" d="M116.6,76.2l-20.4,5.9c-0.3-0.8-0.7-2.2-0.9-3l20.4-5.9L116.6,76.2z"/>
				<path class="st2" d="M116.4,75.6c0,0-20,5.7-20.4,5.9l0.4,1.3c0.7-0.2,20.4-5.9,20.4-5.9L116.4,75.6z"/>
				<path class="st2" d="M115.5,72.5c0,0-20,5.7-20.4,5.9l0.4,1.3c0.7-0.2,20.4-5.9,20.4-5.9L115.5,72.5z"/>
			</g>
			<g>
				<path class="st2" d="M69.6,84.7l-19.2-9.1c0.3-0.8,0.9-2.1,1.3-2.8l19.2,9.1L69.6,84.7z"/>
				<path class="st2" d="M69.9,84.1c0,0-18.8-8.9-19.2-9.1l-0.6,1.2c0.7,0.3,19.2,9.1,19.2,9.1L69.9,84.1z"/>
				<path class="st2" d="M71.3,81.2c0,0-18.8-8.9-19.2-9.1l-0.6,1.2c0.7,0.3,19.2,9.1,19.2,9.1L71.3,81.2z"/>
			</g>
			<g>
				<path class="st2" d="M108.6,94.5H57.9c-0.1-1.1-0.1-2.9,0-3.9h50.8V94.5z"/>
				<path class="st2" d="M108.6,94c0,0-49.8,0-50.8,0v1.7c1.8,0,50.8,0,50.8,0V94z"/>
				<path class="st2" d="M108.6,89.6c0,0-49.8,0-50.8,0v1.7c1.8,0,50.8,0,50.8,0V89.6z"/>
			</g>
		</g>
		<g>
			<path class="st2" d="M83.6,72.6"/>
			<path class="st2" d="M83.6,72.6"/>
			<path class="st2" d="M83.6,102.5c-16.5,0-29.9-13.4-29.9-29.9c0-16.5,13.4-29.9,29.9-29.9c16.5,0,29.9,13.4,29.9,29.9
				C113.5,89.1,100.1,102.5,83.6,102.5v5.1c19.3,0,35-15.7,35-35c0-19.3-15.7-35-35-35c-19.3,0-35,15.7-35,35c0,19.3,15.7,35,35,35
				V102.5z"/>
		</g>
		<g>
			<circle class="st3" cx="83.6" cy="72.6" r="33.8"/>
			<path class="st3" d="M83.6,72.6"/>
		</g>
		<g>
			<circle class="st3" cx="83.6" cy="72.6" r="31.1"/>
			<path class="st3" d="M83.6,72.6"/>
		</g>
		<g>
			<path class="st2" d="M81,55.9V36.9c1.2-0.1,3-0.1,4.1,0v19"/>
			<path class="st2" d="M79.9,56c0,0,0-16.6,0-18.4c0-1.4,1.7-1.3,1.7,0c0,1,0,18.4,0,18.4"/>
			<path class="st2" d="M84.4,56c0,0,0-16.6,0-18.4c0-1.4,1.7-1.3,1.7,0c0,1,0,18.4,0,18.4"/>
		</g>
		<g>
			<path class="st2" d="M71.4,60.3c0,0-15.6-5.7-17.3-6.4c-1.3-0.5-0.7-2.1,0.6-1.6c1,0.4,17.3,6.3,17.3,6.3"/>
			<g>
				<path class="st2" d="M71.8,59.5L53.9,53c-1,1.5-2.6,4.4-3.1,5.7l17.6,6.6"/>
				<path class="st2" d="M68.2,66.1c0,0-15.6-5.7-17.3-6.4c-1.3-0.5-0.7-2.1,0.6-1.6c1,0.4,17.3,6.3,17.3,6.3"/>
			</g>
		</g>
		<g>
			<path class="st2" d="M65.8,65.7L48,71.5c-0.1,1.2,0,2.8,0.1,4.3l18.4-6.2"/>
			<path class="st2" d="M65.9,66.3c0,0-15.7,5.3-17.5,5.8c-1.3,0.4-1.8-1.2-0.5-1.6c1-0.3,17.4-5.8,17.4-5.8"/>
			<path class="st2" d="M66.4,70.7c0,0-15.7,5.3-17.5,5.8c-1.3,0.4-1.8-1.2-0.5-1.6c1-0.3,17.4-5.8,17.4-5.8"/>
		</g>
		<g>
			<path class="st2" d="M81,89.4v18.9c1.2,0.1,3,0.1,4.1,0v-19"/>
			<path class="st2" d="M79.9,89.2c0,0,0,16.6,0,18.4c0,1.4,1.7,1.3,1.7,0c0-1,0-18.4,0-18.4"/>
			<path class="st2" d="M84.4,89.2c0,0,0,16.6,0,18.4c0,1.4,1.7,1.3,1.7,0c0-1,0-18.4,0-18.4"/>
		</g>
		<g>
			<path class="st2" d="M100.9,76.2l14.6,12.3c-0.8,1.7-2.5,4.4-3.4,5.6L97.5,82.2"/>
			<path class="st2" d="M100.4,76.9c0,0,12.8,10.6,14.2,11.8c1.1,0.9,2.1-0.5,1.1-1.3c-0.8-0.6-14.2-11.7-14.2-11.7"/>
			<path class="st2" d="M97,82.6c0,0,12.8,10.6,14.2,11.8c1.1,0.9,2.1-0.5,1.1-1.3c-0.8-0.6-14.2-11.7-14.2-11.7"/>
		</g>
		<g>
			<path class="st2" d="M101.4,65.7l17.8,5.9c0.1,1.2,0,2.8-0.1,4.3l-18.4-6.2"/>
			<path class="st2" d="M101.3,66.3c0,0,15.7,5.3,17.5,5.8c1.3,0.4,1.8-1.2,0.5-1.6c-1-0.3-17.4-5.8-17.4-5.8"/>
			<path class="st2" d="M100.8,70.7c0,0,15.7,5.3,17.5,5.8c1.3,0.4,1.8-1.2,0.5-1.6c-1-0.3-17.4-5.8-17.4-5.8"/>
		</g>
		<g>
			<path class="st2" d="M71.6,85.1l-17.4,7.6c-0.6-0.9-1.6-2.4-2-3.3l17.1-7.6"/>
			<path class="st2" d="M69.8,82.7c0,0-15.3,6.3-17,7c-1.3,0.5-1.9-1-0.6-1.5c0.9-0.4,17-7,17-7"/>
			<path class="st2" d="M71.7,86c0,0-15.3,6.3-17,7c-1.3,0.5-1.9-1-0.6-1.5c0.9-0.4,17-7,17-7"/>
		</g>
		<g>
			<path class="st2" d="M102.6,51.2l11.6,3.1c0.6,0.9,1.5,2.5,1.8,3.4l-13.6-3.5"/>
			<path class="st2" d="M102.6,50.2c4.6,1.2,10.1,2.6,11.1,2.8c1.4,0.3,0.9,1.8-0.4,1.5c-0.6-0.1-6.1-1.5-10.8-2.7"/>
			<path class="st2" d="M102.4,53.8c4.9,1.2,12.1,3,13.2,3.3c1.4,0.3,0.9,1.8-0.4,1.5c-0.6-0.2-7.9-2-12.9-3.2"/>
		</g>
	</g>
	<g>
		<path class="st4" d="M62.3,76.7c0,11.7,9.6,21.2,21.3,21.2c11.7,0,21.2-9.5,21.2-21.2V49.3H62.3V76.7z"/>
		<path class="st4" d="M83.6,73.6"/>
	</g>
	<g>
		<path class="st5" d="M62.3,76.7c0,11.7,9.6,21.2,21.3,21.2c11.7,0,21.2-9.5,21.2-21.2V49.3H62.3V76.7z"/>
		<path class="st5" d="M83.6,73.6"/>
	</g>
	<g>
		<path class="st6" d="M72.2,75.5c0,6.9,5.1,12.5,11.4,12.5C89.9,88,95,82.4,95,75.5V59.3H72.2V75.5z"/>
		<path class="st6" d="M83.6,73.7"/>
	</g>
	<g>
		<g>
			<rect x="69.1" y="51" class="st7" width="1.2" height="3"/>
			<rect x="66.6" y="51" class="st7" width="1.2" height="3"/>
			<rect x="64.1" y="51" class="st7" width="1.2" height="3"/>
			<rect x="66.3" y="50.7" class="st7" width="1.8" height="0.7"/>
			<rect x="64.1" y="52.4" class="st7" width="6.2" height="5.1"/>
			<rect x="63.8" y="53.5" class="st7" width="6.8" height="0.7"/>
			<rect x="63.8" y="57.5" class="st7" width="6.8" height="0.7"/>
			<path class="st7" d="M65.6,57.5c0,0,0-0.7,0-1.2c0-0.8,0.7-1.5,1.6-1.5c0.9,0,1.6,0.7,1.6,1.5c0,0.5,0,1.2,0,1.2H65.6z"/>
			<path class="st7" d="M66.3,57.5c0,0,0-0.5,0-0.9c0-0.7,0.4-1.2,1-1.2c0.5,0,1,0.5,1,1.2c0,0.4,0,0.9,0,0.9H66.3z"/>
			<rect x="68.8" y="50.7" class="st7" width="1.8" height="0.7"/>
			<rect x="63.8" y="50.7" class="st7" width="1.8" height="0.7"/>
			<path class="st7" d="M67.2,54.4"/>
		</g>
		<g>
			<rect x="101.7" y="51" class="st8" width="1.2" height="3"/>
			<rect x="99.2" y="51" class="st8" width="1.2" height="3"/>
			<rect x="96.8" y="51" class="st8" width="1.2" height="3"/>
			<rect x="98.9" y="50.6" class="st8" width="1.8" height="0.7"/>
			<rect x="96.8" y="52.3" class="st8" width="6.2" height="5.1"/>
			<rect x="96.4" y="53.5" class="st8" width="6.8" height="0.7"/>
			<rect x="96.4" y="57.5" class="st8" width="6.8" height="0.7"/>
			<path class="st8" d="M98.3,57.5c0,0,0-0.7,0-1.2c0-0.8,0.7-1.5,1.6-1.5c0.9,0,1.6,0.7,1.6,1.5c0,0.5,0,1.2,0,1.2H98.3z"/>
			<path class="st8" d="M98.9,57.5c0,0,0-0.5,0-0.9c0-0.7,0.4-1.2,1-1.2c0.5,0,1,0.5,1,1.2c0,0.4,0,0.9,0,0.9H98.9z"/>
			<rect x="101.4" y="50.6" class="st8" width="1.8" height="0.7"/>
			<rect x="96.5" y="50.6" class="st8" width="1.8" height="0.7"/>
			<path class="st8" d="M99.9,54.4"/>
		</g>
		<g>
			<rect x="85.5" y="51" class="st8" width="1.2" height="3"/>
			<rect x="83" y="51" class="st8" width="1.2" height="3"/>
			<rect x="80.5" y="51" class="st8" width="1.2" height="3"/>
			<rect x="82.7" y="50.7" class="st8" width="1.8" height="0.7"/>
			<rect x="80.5" y="52.4" class="st8" width="6.2" height="5.1"/>
			<rect x="80.2" y="53.5" class="st8" width="6.8" height="0.7"/>
			<rect x="80.2" y="57.5" class="st8" width="6.8" height="0.7"/>
			<path class="st8" d="M82,57.5c0,0,0-0.7,0-1.2c0-0.8,0.7-1.5,1.6-1.5c0.9,0,1.6,0.7,1.6,1.5c0,0.5,0,1.2,0,1.2H82z"/>
			<path class="st8" d="M82.6,57.5c0,0,0-0.5,0-0.9c0-0.7,0.4-1.2,1-1.2c0.5,0,1,0.5,1,1.2c0,0.4,0,0.9,0,0.9H82.6z"/>
			<rect x="85.2" y="50.7" class="st8" width="1.8" height="0.7"/>
			<rect x="80.2" y="50.7" class="st8" width="1.8" height="0.7"/>
			<path class="st8" d="M83.6,54.4"/>
		</g>
		<g>
			<rect x="69.1" y="70.3" class="st8" width="1.2" height="3"/>
			<rect x="66.6" y="70.3" class="st8" width="1.2" height="3"/>
			<rect x="64.1" y="70.3" class="st8" width="1.2" height="3"/>
			<rect x="66.3" y="69.9" class="st8" width="1.8" height="0.7"/>
			<rect x="64.1" y="71.6" class="st8" width="6.2" height="5.1"/>
			<rect x="63.8" y="72.8" class="st8" width="6.8" height="0.7"/>
			<rect x="63.8" y="76.8" class="st8" width="6.8" height="0.7"/>
			<path class="st8" d="M65.6,76.8c0,0,0-0.7,0-1.2c0-0.8,0.7-1.5,1.6-1.5c0.9,0,1.6,0.7,1.6,1.5c0,0.5,0,1.2,0,1.2H65.6z"/>
			<path class="st8" d="M66.3,76.8c0,0,0-0.5,0-0.9c0-0.7,0.4-1.2,1-1.2c0.5,0,1,0.5,1,1.2c0,0.4,0,0.9,0,0.9H66.3z"/>
			<rect x="68.8" y="69.9" class="st8" width="1.8" height="0.7"/>
			<rect x="63.8" y="69.9" class="st8" width="1.8" height="0.7"/>
			<path class="st8" d="M67.2,73.7"/>
		</g>
		<g>
			<rect x="96.9" y="70.3" class="st8" width="1.2" height="3"/>
			<rect x="99.4" y="70.3" class="st8" width="1.2" height="3"/>
			<rect x="101.8" y="70.3" class="st8" width="1.2" height="3"/>
			<rect x="99.1" y="69.9" class="st8" width="1.8" height="0.7"/>
			<rect x="96.9" y="71.6" class="st8" width="6.2" height="5.1"/>
			<rect x="96.6" y="72.8" class="st8" width="6.8" height="0.7"/>
			<rect x="96.6" y="76.8" class="st8" width="6.8" height="0.7"/>
			<path class="st8" d="M101.6,76.8c0,0,0-0.7,0-1.2c0-0.8-0.7-1.5-1.6-1.5c-0.9,0-1.6,0.7-1.6,1.5c0,0.5,0,1.2,0,1.2H101.6z"/>
			<path class="st8" d="M100.9,76.8c0,0,0-0.5,0-0.9c0-0.7-0.4-1.2-1-1.2c-0.5,0-1,0.5-1,1.2c0,0.4,0,0.9,0,0.9H100.9z"/>
			<rect x="96.6" y="69.9" class="st8" width="1.8" height="0.7"/>
			<rect x="101.5" y="69.9" class="st8" width="1.8" height="0.7"/>
			<path class="st8" d="M100,73.7"/>
		</g>
		<g>
			
				<rect x="74.1" y="85.6" transform="matrix(0.5524 -0.8336 0.8336 0.5524 -39.1495 101.2406)" class="st8" width="1.2" height="3"/>
			
				<rect x="72.7" y="87.6" transform="matrix(0.5524 -0.8336 0.8336 0.5524 -41.4921 101.0203)" class="st8" width="1.2" height="3"/>
			
				<rect x="71.3" y="89.7" transform="matrix(0.5524 -0.8336 0.8336 0.5524 -43.8342 100.8049)" class="st8" width="1.2" height="3"/>
			
				<rect x="71.2" y="88" transform="matrix(0.5523 -0.8336 0.8336 0.5523 -41.3611 99.6339)" class="st8" width="1.8" height="0.7"/>
			
				<rect x="72.2" y="87.9" transform="matrix(0.5524 -0.8336 0.8336 0.5524 -41.7036 103.3093)" class="st8" width="6.2" height="5.1"/>
			
				<rect x="71" y="89.5" transform="matrix(0.5525 -0.8335 0.8335 0.5525 -41.6089 102.2656)" class="st8" width="6.8" height="0.7"/>
			
				<rect x="74.3" y="91.7" transform="matrix(0.5525 -0.8335 0.8335 0.5525 -41.9596 106.0238)" class="st8" width="6.8" height="0.7"/>
			<path class="st8" d="M76.6,93.2c0,0-0.6-0.4-1-0.7c-0.7-0.5-0.9-1.4-0.4-2.2c0.5-0.7,1.5-0.9,2.2-0.5c0.5,0.3,1,0.7,1,0.7
				L76.6,93.2z"/>
			<path class="st8" d="M76.9,92.7c0,0-0.4-0.3-0.8-0.5c-0.5-0.4-0.8-1-0.5-1.5c0.3-0.4,1-0.5,1.5-0.1c0.4,0.2,0.8,0.5,0.8,0.5
				L76.9,92.7z"/>
			
				<rect x="72.5" y="85.9" transform="matrix(0.5525 -0.8335 0.8335 0.5525 -39.0396 99.827)" class="st8" width="1.8" height="0.7"/>
			
				<rect x="69.8" y="90" transform="matrix(0.5524 -0.8336 0.8336 0.5524 -43.6864 99.4049)" class="st8" width="1.8" height="0.7"/>
			<path class="st8" d="M74.9,90.2"/>
		</g>
		<g>
			
				<rect x="90.9" y="86.5" transform="matrix(0.8336 -0.5524 0.5524 0.8336 -32.7129 65.5604)" class="st8" width="3" height="1.2"/>
			
				<rect x="92.3" y="88.5" transform="matrix(0.8336 -0.5524 0.5524 0.8336 -33.6302 66.6697)" class="st8" width="3" height="1.2"/>
			
				<rect x="93.7" y="90.6" transform="matrix(0.8336 -0.5524 0.5524 0.8336 -34.5461 67.7713)" class="st8" width="3" height="1.2"/>
			
				<rect x="94.7" y="87.4" transform="matrix(0.8336 -0.5523 0.5523 0.8336 -32.9685 67.2025)" class="st8" width="0.7" height="1.8"/>
			
				<rect x="89.2" y="87.4" transform="matrix(0.8336 -0.5524 0.5524 0.8336 -34.7063 65.7728)" class="st8" width="5.1" height="6.2"/>
			
				<rect x="92.4" y="86.5" transform="matrix(0.8335 -0.5525 0.5525 0.8335 -34.2213 66.1876)" class="st8" width="0.7" height="6.8"/>
			
				<rect x="89" y="88.7" transform="matrix(0.8335 -0.5525 0.5525 0.8335 -35.9971 64.7125)" class="st8" width="0.7" height="6.8"/>
			<path class="st8" d="M90.6,93.2c0,0,0.6-0.4,1-0.7c0.7-0.5,0.9-1.4,0.4-2.2c-0.5-0.7-1.5-0.9-2.2-0.5c-0.5,0.3-1,0.7-1,0.7
				L90.6,93.2z"/>
			<path class="st8" d="M90.2,92.7c0,0,0.4-0.3,0.8-0.5c0.5-0.4,0.8-1,0.5-1.5c-0.3-0.4-1-0.5-1.5-0.1c-0.4,0.2-0.8,0.5-0.8,0.5
				L90.2,92.7z"/>
			
				<rect x="93.4" y="85.4" transform="matrix(0.8335 -0.5525 0.5525 0.8335 -32.0634 66.132)" class="st8" width="0.7" height="1.8"/>
			
				<rect x="96.1" y="89.5" transform="matrix(0.8336 -0.5524 0.5524 0.8336 -33.8801 68.3128)" class="st8" width="0.7" height="1.8"/>
			<path class="st8" d="M92.2,90.2"/>
		</g>
	</g>
	<g>
		<path class="st9" d="M80.8,65.2c0,1.6,1.2,2.9,2.8,2.9c1.5,0,2.7-1.3,2.7-2.9v-3.8h-5.5V65.2z"/>
		<path class="st9" d="M80.8,74c0,1.6,1.2,2.9,2.8,2.9c1.5,0,2.7-1.3,2.7-2.9v-3.8h-5.5V74z"/>
		<path class="st9" d="M80.8,82.8c0,1.6,1.2,2.9,2.8,2.9c1.5,0,2.7-1.3,2.7-2.9V79h-5.5V82.8z"/>
		<path class="st9" d="M73.7,74c0,1.6,1.2,2.9,2.8,2.9c1.5,0,2.7-1.3,2.7-2.9v-3.8h-5.5V74z"/>
		<path class="st9" d="M93.5,74c0,1.6-1.2,2.9-2.8,2.9c-1.5,0-2.7-1.3-2.7-2.9v-3.8h5.5V74z"/>
	</g>
	<g>
		<path class="st10" d="M83.6,64.8c0.3,0,0.5-0.2,0.5-0.5c0-0.3-0.2-0.5-0.5-0.5s-0.5,0.2-0.5,0.5C83.1,64.5,83.3,64.8,83.6,64.8z"
			/>
		<path class="st10" d="M82.3,63.1c0.3,0,0.5-0.2,0.5-0.5S82.6,62,82.3,62s-0.5,0.2-0.5,0.5S82,63.1,82.3,63.1z"/>
		<path class="st10" d="M84.9,63.1c-0.3,0-0.5-0.2-0.5-0.5s0.2-0.5,0.5-0.5c0.3,0,0.5,0.2,0.5,0.5S85.2,63.1,84.9,63.1z"/>
		<path class="st10" d="M82.3,65.4c0.3,0,0.5,0.2,0.5,0.5c0,0.3-0.2,0.5-0.5,0.5s-0.5-0.2-0.5-0.5C81.8,65.7,82,65.4,82.3,65.4z"/>
		<path class="st10" d="M84.9,65.4c-0.3,0-0.5,0.2-0.5,0.5c0,0.3,0.2,0.5,0.5,0.5c0.3,0,0.5-0.2,0.5-0.5
			C85.4,65.7,85.2,65.4,84.9,65.4z"/>
		<path class="st10" d="M83.6,73.6c0.3,0,0.5-0.2,0.5-0.5s-0.2-0.5-0.5-0.5s-0.5,0.2-0.5,0.5S83.3,73.6,83.6,73.6z"/>
		<path class="st10" d="M82.3,71.9c0.3,0,0.5-0.2,0.5-0.5s-0.2-0.5-0.5-0.5s-0.5,0.2-0.5,0.5S82,71.9,82.3,71.9z"/>
		<path class="st10" d="M84.9,71.9c-0.3,0-0.5-0.2-0.5-0.5s0.2-0.5,0.5-0.5c0.3,0,0.5,0.2,0.5,0.5S85.2,71.9,84.9,71.9z"/>
		<path class="st10" d="M82.3,74.3c0.3,0,0.5,0.2,0.5,0.5s-0.2,0.5-0.5,0.5s-0.5-0.2-0.5-0.5S82,74.3,82.3,74.3z"/>
		<path class="st10" d="M84.9,74.3c-0.3,0-0.5,0.2-0.5,0.5s0.2,0.5,0.5,0.5c0.3,0,0.5-0.2,0.5-0.5S85.2,74.3,84.9,74.3z"/>
		<path class="st10" d="M83.6,82.4c0.3,0,0.5-0.2,0.5-0.5s-0.2-0.5-0.5-0.5s-0.5,0.2-0.5,0.5S83.3,82.4,83.6,82.4z"/>
		<path class="st10" d="M82.3,80.7c0.3,0,0.5-0.2,0.5-0.5s-0.2-0.5-0.5-0.5s-0.5,0.2-0.5,0.5S82,80.7,82.3,80.7z"/>
		<path class="st10" d="M84.9,80.7c-0.3,0-0.5-0.2-0.5-0.5s0.2-0.5,0.5-0.5c0.3,0,0.5,0.2,0.5,0.5S85.2,80.7,84.9,80.7z"/>
		<path class="st10" d="M82.3,83.1c0.3,0,0.5,0.2,0.5,0.5c0,0.3-0.2,0.5-0.5,0.5s-0.5-0.2-0.5-0.5C81.8,83.3,82,83.1,82.3,83.1z"/>
		<path class="st10" d="M84.9,83.1c-0.3,0-0.5,0.2-0.5,0.5c0,0.3,0.2,0.5,0.5,0.5c0.3,0,0.5-0.2,0.5-0.5
			C85.4,83.3,85.2,83.1,84.9,83.1z"/>
		<path class="st10" d="M76.5,73.6c0.3,0,0.5-0.2,0.5-0.5s-0.2-0.5-0.5-0.5c-0.3,0-0.5,0.2-0.5,0.5S76.2,73.6,76.5,73.6z"/>
		<path class="st10" d="M75.2,71.9c0.3,0,0.5-0.2,0.5-0.5s-0.2-0.5-0.5-0.5s-0.5,0.2-0.5,0.5S74.9,71.9,75.2,71.9z"/>
		<path class="st10" d="M77.8,71.9c-0.3,0-0.5-0.2-0.5-0.5s0.2-0.5,0.5-0.5s0.5,0.2,0.5,0.5S78.1,71.9,77.8,71.9z"/>
		<path class="st10" d="M75.2,74.3c0.3,0,0.5,0.2,0.5,0.5s-0.2,0.5-0.5,0.5s-0.5-0.2-0.5-0.5S74.9,74.3,75.2,74.3z"/>
		<path class="st10" d="M77.8,74.3c-0.3,0-0.5,0.2-0.5,0.5s0.2,0.5,0.5,0.5s0.5-0.2,0.5-0.5S78.1,74.3,77.8,74.3z"/>
		<path class="st10" d="M90.7,73.6c-0.3,0-0.5-0.2-0.5-0.5s0.2-0.5,0.5-0.5s0.5,0.2,0.5,0.5S91,73.6,90.7,73.6z"/>
		<path class="st10" d="M92,71.9c-0.3,0-0.5-0.2-0.5-0.5s0.2-0.5,0.5-0.5s0.5,0.2,0.5,0.5S92.3,71.9,92,71.9z"/>
		<path class="st10" d="M89.4,71.9c0.3,0,0.5-0.2,0.5-0.5s-0.2-0.5-0.5-0.5s-0.5,0.2-0.5,0.5S89.1,71.9,89.4,71.9z"/>
		<circle class="st10" cx="92" cy="74.8" r="0.5"/>
		<path class="st10" d="M89.4,74.3c0.3,0,0.5,0.2,0.5,0.5s-0.2,0.5-0.5,0.5s-0.5-0.2-0.5-0.5S89.1,74.3,89.4,74.3z"/>
	</g>
</g>
</svg>
