<?xml version="1.0" encoding="utf-8"?>
<!-- Generator: Adobe Illustrator 22.1.0, SVG Export Plug-In . SVG Version: 6.00 Build 0)  -->
<svg version="1.1" id="layer_1" xmlns="http://www.w3.org/2000/svg" xmlns:xlink="http://www.w3.org/1999/xlink" x="0px" y="0px"
	 viewBox="0 0 216 144" style="enable-background:new 0 0 216 144;" xml:space="preserve">
<style type="text/css">
	.st0{fill:#FFFFFF;}
	.st1{fill:#D14A43;}
	.st2{display:none;fill:none;stroke:#000000;}
</style>
<g>
	<rect x="0.4" y="1.1" class="st0" width="215.2" height="142.9"/>
	<g>
		<rect x="0" y="0.4" class="st1" width="216" height="71"/>
		<g>
			<polygon class="st0" points="62.7,46.6 75.5,46.6 69,51.6 			"/>
			<polygon class="st0" points="69.1,42.3 64.5,54 69,51.7 73.5,54.2 			"/>
			<polygon class="st0" points="51.2,42.2 46.6,53.9 51.1,51.6 55.7,54.2 			"/>
			<polygon class="st0" points="44.8,46.5 57.7,46.5 51.1,51.6 			"/>
		</g>
		<polygon class="st0" points="39,29.5 51.8,29.5 45.3,34.6 		"/>
		<polygon class="st0" points="45.4,25.2 40.8,37 45.3,34.7 49.9,37.2 		"/>
		<polygon class="st0" points="74.8,25.4 70.1,37.1 74.7,34.8 79.2,37.3 		"/>
		<polygon class="st0" points="68.4,29.7 81.2,29.7 74.7,34.7 		"/>
		<g>
			<polygon class="st0" points="53.7,19.1 66.6,19.1 60,24.2 			"/>
			<polygon class="st0" points="60.1,14.8 55.5,26.6 60,24.3 64.6,26.8 			"/>
		</g>
		<path class="st0" d="M49,63C7.9,66.8,8.5,6.7,49,9.9c0,0-18.4,8.4-18.1,27.4C30.9,37.3,29.5,53.5,49,63z"/>
	</g>
	<rect x="0.4" y="1.1" class="st2" width="215" height="144.9"/>
</g>
</svg>
