<?xml version="1.0" encoding="utf-8"?>
<!-- Generator: Adobe Illustrator 22.1.0, SVG Export Plug-In . SVG Version: 6.00 Build 0)  -->
<svg version="1.1" id="layer_1" xmlns="http://www.w3.org/2000/svg" xmlns:xlink="http://www.w3.org/1999/xlink" x="0px" y="0px"
	 viewBox="0 0 216 144" style="enable-background:new 0 0 216 144;" xml:space="preserve">
<style type="text/css">
	.st0{fill:#ED1C24;}
	.st1{fill:#005DA4;}
	.st2{fill:#FFFFFF;}
	.st3{fill:#FFDD00;}
</style>
<rect y="0.4" class="st0" width="216" height="143.6"/>
<rect y="0.4" class="st1" width="216" height="95.7"/>
<rect y="0.4" class="st2" width="216" height="47.9"/>
<g transform="translate(2.2238 1) scale(.12937)">
	<path class="st1" d="M499.5,384.9l8.8-172c-68.4-43.1-147.6-43.1-216,0l8.8,172c3.9,77.3,43.5,143.2,99.2,165.6
		C456,528.1,495.5,462.2,499.5,384.9"/>
	<path class="st2" d="M319.2,408.2c9.4,56.2,40.1,101.8,81,120.5c40.9-18.7,71.6-64.4,81-120.5l-40.5-71.8l-16.2,28.7l-24.3-64.6
		l-24.3,64.6l-16.2-28.7L319.2,408.2"/>
	<g id="wave" transform="scale(5) translate(0 5.1962)">
		<path class="st1" d="M64.6,80c1.5,3.4,4.8,4.6,7.4,2.6c0,0,0,0,0,0c1.7-1.3,3.7-1.3,5.4,0c1.7,1.3,3.7,1.3,5.4,0
			c1.7-1.3,3.7-1.3,5.4,0c2.6,2,5.9,0.8,7.4-2.6c0,0,0,0,0,0v2.1c-1.5,3.4-4.8,4.6-7.4,2.6c0,0,0,0,0,0c-1.7-1.3-3.7-1.3-5.4,0
			s-3.7,1.3-5.4,0s-3.7-1.3-5.4,0c-2.6,2-5.9,0.8-7.4-2.6c0,0,0,0,0,0V80z"/>
	</g>
	<g transform="translate(0 17.321)">
		<g id="wave_1_" transform="scale(5) translate(0 5.1962)">
			<path class="st1" d="M64.6,84.2c1.5,3.4,4.8,4.6,7.4,2.6c0,0,0,0,0,0c1.7-1.3,3.7-1.3,5.4,0s3.7,1.3,5.4,0s3.7-1.3,5.4,0
				c2.6,2,5.9,0.8,7.4-2.6c0,0,0,0,0,0v2.1c-1.5,3.4-4.8,4.6-7.4,2.6c0,0,0,0,0,0c-1.7-1.3-3.7-1.3-5.4,0c-1.7,1.3-3.7,1.3-5.4,0
				c-1.7-1.3-3.7-1.3-5.4,0c-2.6,2-5.9,0.8-7.4-2.6c0,0,0,0,0,0V84.2z"/>
		</g>
	</g>
	<g id="s" transform="translate(0,-120) scale(2.25)">
		<path class="st3" d="M177.9,165l0.9,3.9l3-0.9l-2.1,3l2.1,3l-3-0.9l-0.9,3.9L177,173l-3,0.9l2.1-3l-2.1-3l3,0.9L177.9,165z"/>
	</g>
	<g transform="translate(-33.75,-45)">
		<g id="s_1_" transform="translate(0,-120) scale(2.25)">
			<path class="st3" d="M164.4,141.1l0.9,3.9l3-0.9l-2.1,3l2.1,3l-3-0.9l-0.9,3.9l-0.9-3.9l-3,0.9l2.1-3l-2.1-3l3,0.9L164.4,141.1z"
				/>
		</g>
	</g>
	<g transform="translate(33.75,-45)">
		<g id="s_2_" transform="translate(0,-120) scale(2.25)">
			<path class="st3" d="M191.4,141.1l0.9,3.9l3-0.9l-2.1,3l2.1,3l-3-0.9l-0.9,3.9l-0.9-3.9l-3,0.9l2.1-3l-2.1-3l3,0.9L191.4,141.1z"
				/>
		</g>
	</g>
	<path class="st0" d="M299.8,208.4l9,175.8c3.7,71.8,39.9,133.4,91.5,155.5c51.6-22,87.8-83.6,91.5-155.5l9-175.8
		c2.5,1.6,5,3.1,7.6,4.6l-8.8,172c-3.9,77.3-43.5,143.2-99.2,165.6c-55.8-22.4-95.3-88.4-99.2-165.6l-8.8-172
		C294.8,211.5,297.3,210,299.8,208.4"/>
</g>
</svg>
