<?xml version="1.0" encoding="utf-8"?>
<!-- Generator: Adobe Illustrator 22.1.0, SVG Export Plug-In . SVG Version: 6.00 Build 0)  -->
<svg version="1.1" id="layer_1" xmlns="http://www.w3.org/2000/svg" xmlns:xlink="http://www.w3.org/1999/xlink" x="0px" y="0px"
	 viewBox="0 0 216 144" style="enable-background:new 0 0 216 144;" xml:space="preserve">
<style type="text/css">
	.st0{fill:#C1272D;}
	.st1{fill:#009245;}
	.st2{fill:#FFFFFF;}
	.st3{fill:#E6C845;stroke:#000000;stroke-width:6.250000e-02;}
	.st4{fill:#FFFFFF;stroke:#000000;stroke-width:6.250000e-02;}
</style>
<rect y="0.5" class="st0" width="216" height="41.1"/>
<rect y="103.4" class="st1" width="216" height="41.1"/>
<rect y="41.6" class="st2" width="216" height="61.7"/>
<g>
	<polygon class="st3" points="100.5,46 99.7,48.9 96.7,48.9 99.2,50.5 98.2,53.3 100.5,51.4 102.9,53.3 101.8,50.4 104.3,48.9 
		101.3,48.9 	"/>
	<polygon class="st3" points="86.7,49.9 85.9,52.7 82.9,52.7 85.4,54.3 84.3,57.1 86.7,55.2 89,57.1 88,54.3 90.5,52.7 87.5,52.7 	
		"/>
	<polygon class="st3" points="76.8,60.3 76,63.1 73,63.1 75.5,64.7 74.5,67.5 76.8,65.6 79.2,67.5 78.1,64.7 80.6,63.1 77.6,63.1 	
		"/>
	<polygon class="st3" points="73.7,74.3 72.9,77.1 69.9,77.1 72.5,78.7 71.4,81.5 73.7,79.6 76.1,81.5 75,78.7 77.5,77.1 74.5,77.1 
			"/>
	<path class="st3" d="M100.5,92c1.5,0,2.5-1.2,3-1.4c0.5-0.2,0.6-0.4,0-0.6c-0.3-0.1-1.3-0.2-1.9,0c0-0.7-0.7-2.3-1.1-3
		c-0.4,0.7-1.1,2.3-1.1,3c-0.5-0.2-1.6-0.1-1.9,0c-0.6,0.2-0.5,0.4,0,0.6C98,90.8,99,92,100.5,92z"/>
	<path class="st3" d="M88.8,93.5c1.5-0.2,2.3-1.6,2.8-1.8c0.4-0.2,0.5-0.5-0.1-0.6c-0.3-0.1-1.4,0-1.8,0.3c-0.1-0.7-1-2.1-1.5-2.8
		c-0.3,0.8-0.8,2.5-0.7,3.1c-0.5-0.1-1.6,0.1-1.8,0.3c-0.5,0.3-0.4,0.5,0.1,0.6C86.1,92.6,87.3,93.7,88.8,93.5z"/>
	<path class="st3" d="M100.5,79.7c1.4,7,7.6,11.7,13.2,4.1c1.5,8.2,9.3,8.1,11.7,3c-4.2,2.3-9.1,1.2-11.6-3.8
		c-3.4,3.7-9.3,1.7-11.3-1.7c-2-3.4-1.6-10.1-0.7-11.6c0.9-1.5,3.2-1.5,4.3-0.1c0.5-3.9-2.1-6.5-5.5-6.5s-6.1,2.6-5.5,6.5
		c1.1-1.4,3.4-1.4,4.3,0.1c0.9,1.5,1.3,8.2-0.7,11.6c-2,3.4-8,5.4-11.3,1.7c-2.5,5-7.4,6.2-11.6,3.8c2.4,5.1,10.2,5.2,11.7-3
		C92.9,91.4,99.1,86.6,100.5,79.7z"/>
	<path class="st3" d="M100.5,94.1c5.8,0,15.2,1.5,18.9,2.7l-0.5,2.3c-4-1.2-12.8-2.5-18.4-2.5c-5.6,0-14.4,1.3-18.4,2.5l-0.5-2.3
		C85.3,95.5,94.7,94.1,100.5,94.1z"/>
	<polygon class="st3" points="114.3,49.9 115.1,52.7 118.1,52.7 115.6,54.3 116.7,57.1 114.3,55.2 112,57.1 113,54.3 110.5,52.7 
		113.5,52.7 	"/>
	<polygon class="st3" points="124.2,60.3 125,63.1 128,63.1 125.5,64.7 126.6,67.5 124.2,65.6 121.9,67.5 122.9,64.7 120.4,63.1 
		123.4,63.1 	"/>
	<polygon class="st3" points="127.3,74.3 128.1,77.1 131.1,77.1 128.6,78.7 129.7,81.5 127.3,79.6 125,81.5 126,78.7 123.5,77.1 
		126.5,77.1 	"/>
	<path class="st3" d="M112.2,93.5c-1.5-0.2-2.3-1.6-2.8-1.8c-0.4-0.2-0.5-0.5,0.1-0.6c0.3-0.1,1.4,0,1.8,0.3c0.1-0.7,1-2.1,1.5-2.8
		c0.3,0.8,0.8,2.5,0.7,3.1c0.5-0.1,1.6,0.1,1.8,0.3c0.5,0.3,0.4,0.5-0.1,0.6C114.9,92.6,113.7,93.7,112.2,93.5z"/>
</g>
<g>
	<path class="st4" d="M100.5,69.6c0.4-1.7,3.3-2.7,4.5-1.8c-0.3-1.9-1.6-3.8-4.5-3.8c-2.9,0-4.2,1.9-4.5,3.8
		C97.3,66.9,100.1,67.9,100.5,69.6z"/>
</g>
</svg>
