<?xml version="1.0" encoding="utf-8"?>
<!-- Generator: Adobe Illustrator 22.1.0, SVG Export Plug-In . SVG Version: 6.00 Build 0)  -->
<svg version="1.1" id="layer_1" xmlns="http://www.w3.org/2000/svg" xmlns:xlink="http://www.w3.org/1999/xlink" x="0px" y="0px"
	 viewBox="0 0 216 144" style="enable-background:new 0 0 216 144;" xml:space="preserve">
<style type="text/css">
	.st0{fill:#00843D;}
	.st1{fill:#FFFFFF;}
	.st2{fill:#D22630;}
	.st3{fill:#383739;}
	.st4{fill:#FFC72C;}
</style>
<rect y="-0.1" class="st0" width="216" height="144"/>
<g>
	<path id="crescent" class="st1" d="M107.2,15.9c6.4,2.7,10.9,9.1,10.9,16.5c0,9.9-8,17.9-17.9,17.9c-4.4,0-8.5-1.6-11.6-4.3
		c1.9,0.8,4,1.3,6.3,1.4c9.9,0.4,18.3-7.2,18.7-17.1C113.8,24.6,111.3,19.4,107.2,15.9L107.2,15.9z"/>
	<path id="star" class="st1" d="M90.1,29.1l2-6.2l-5.3,3.9h6.6l-5.3-3.9L90.1,29.1z"/>
	<g>
		<path id="star_1_" class="st1" d="M90.1,19.9l2-6.2l-5.3,3.9h6.6l-5.3-3.9L90.1,19.9z"/>
	</g>
	<g>
		<path id="star_2_" class="st1" d="M99.3,24.6l2-6.2L96,22.2h6.6l-5.3-3.9L99.3,24.6z"/>
	</g>
	<g>
		<path id="star_3_" class="st1" d="M81,33.6l2-6.2l-5.3,3.9h6.6L79,27.3L81,33.6z"/>
	</g>
	<g>
		<path id="star_4_" class="st1" d="M90.1,38.3l2-6.2l-5.3,3.9h6.6l-5.3-3.9L90.1,38.3z"/>
	</g>
</g>
<g>
	<rect x="25.9" y="-0.1" class="st2" width="38.9" height="144"/>
	<g id="ornm5">
		<g id="ornm">
			<path class="st3" d="M34.1-0.1l-2.4,2.2l-1-0.9h0.9l-0.2-1h-1.5l-3,2.8v1.1h1.3V3.2l0.7,0.6l-1.6,1.4L28.1,6l-2.2,2v1.4L29.6,6
				l-0.7-0.7l1.6-1.4l-1.3-1.2L30,1.8l1.7,1.6l3.7-3.4 M25.9,2.6l0.9-0.9v-1h0.9l0.7-0.8L26,0 M32.1-0.1l0.1,0.7L33-0.1"/>
			<path class="st4" d="M30.3-4 M34.2-0.1l-2.5,2.3l-1.2-1.1h1l-0.1-0.8H30l-3,2.8V4h1.1V3l0.9,0.9l-1.6,1.4L28.3,6l-2.3,2.2v1.1
				L29.5,6l-0.7-0.7l1.6-1.4l-1.3-1.2l1-1l1.7,1.6l3.6-3.3 M25.9-0.1v2.5l0.8-0.8V0.6h1l0.6-0.6 M32.2-0.1l0.1,0.5l0.6-0.5"/>
		</g>
		<g>
			<g id="ornm_1_">
				<path class="st3" d="M25.9,16.6v1.4l2.2,2l-0.7,0.7l1.6,1.4l-0.7,0.6V22h-1.3V23l3,2.8h1.5l0.2-1h-0.9l1-0.9l2.4,2.2l-2.4,2.2
					l-1-0.9h0.9l-0.2-1h-1.5l-3,2.8v1.1h1.3v-0.9l0.7,0.6l-1.6,1.4l0.7,0.7l-2.2,2v1.4l3.7-3.4l-0.7-0.7l1.6-1.4l-1.3-1.2L30,28
					l1.7,1.6l3.7-3.4l-3.7-3.4L30,24.3l-0.9-0.8l1.3-1.2l-1.6-1.4l0.7-0.7L25.9,16.6L25.9,16.6z M25.9,23.5v5.3l0.9-0.9v-1h0.9
					l0.7-0.8l-0.7-0.7h-0.9v-1L25.9,23.5L25.9,23.5z M32.2,25.4l-0.1,0.7l0.1,0.7l0.8-0.7L32.2,25.4z"/>
				<path class="st4" d="M25.9,16.8v1.1l2.3,2.2l-0.7,0.7l1.6,1.4l-0.9,0.9v-1.1H27V23l3,2.8h1.4l0.1-0.8h-1l1.2-1.1l2.5,2.3
					l-2.5,2.3l-1.2-1.1h1l-0.1-0.8H30l-3,2.8v0.9h1.1v-1.1l0.9,0.9l-1.6,1.4l0.7,0.7l-2.3,2.2v1.1l3.5-3.3l-0.7-0.7l1.6-1.4
					l-1.3-1.2l1-1l1.7,1.6l3.6-3.3l-3.6-3.3L30,24.5l-1-1l1.3-1.2l-1.6-1.4l0.7-0.7L25.9,16.8L25.9,16.8z M25.9,23.7v5l0.8-0.8v-1.1
					h1l0.6-0.6l-0.6-0.6h-1v-1.1L25.9,23.7L25.9,23.7z M32.3,25.6l-0.1,0.5l0.1,0.5l0.6-0.5L32.3,25.6z"/>
			</g>
		</g>
		<g>
			<g id="ornm_2_">
				<path class="st3" d="M25.9,43.7v1.4l2.2,2l-0.7,0.7l1.6,1.4l-0.7,0.6V49h-1.3v1.1l3,2.8h1.5l0.2-1h-0.9l1-0.9l2.4,2.2l-2.4,2.2
					l-1-0.9h0.9l-0.2-1h-1.5l-3,2.8v1.1h1.3v-0.9l0.7,0.6l-1.6,1.4l0.7,0.7l-2.2,2v1.4l3.7-3.4l-0.7-0.7l1.6-1.4l-1.3-1.2l0.9-0.8
					l1.7,1.6l3.7-3.4l-3.7-3.4L30,51.4l-0.9-0.8l1.3-1.2l-1.6-1.4l0.7-0.7L25.9,43.7L25.9,43.7z M25.9,50.6v5.3l0.9-0.9v-1h0.9
					l0.7-0.8l-0.7-0.7h-0.9v-1L25.9,50.6L25.9,50.6z M32.2,52.5l-0.1,0.7l0.1,0.7l0.8-0.7L32.2,52.5z"/>
				<path class="st4" d="M25.9,43.9V45l2.3,2.2l-0.7,0.7l1.6,1.4l-0.9,0.9v-1.1H27v0.9l3,2.8h1.4l0.1-0.8h-1l1.2-1.1l2.5,2.3
					l-2.5,2.3l-1.2-1.1h1l-0.1-0.8H30l-3,2.8v0.9h1.1v-1.1l0.9,0.9l-1.6,1.4l0.7,0.7l-2.3,2.2v1.1l3.5-3.3l-0.7-0.7l1.6-1.4
					l-1.3-1.2l1-1l1.7,1.6l3.6-3.3l-3.6-3.3L30,51.5l-1-1l1.3-1.2l-1.6-1.4l0.7-0.7L25.9,43.9L25.9,43.9z M25.9,50.7v5l0.8-0.8v-1.1
					h1l0.6-0.6l-0.6-0.6h-1v-1.1L25.9,50.7L25.9,50.7z M32.3,52.7l-0.1,0.5l0.1,0.5l0.6-0.5L32.3,52.7z"/>
			</g>
		</g>
		<g>
			<g id="ornm_3_">
				<path class="st3" d="M25.9,70.8v1.4l2.2,2l-0.7,0.7l1.6,1.4L28.2,77v-0.9h-1.3v1.1l3,2.8h1.5l0.2-1h-0.9l1-0.9l2.4,2.2l-2.4,2.2
					l-1-0.9h0.9l-0.2-1h-1.5l-3,2.8v1.1h1.3v-0.9l0.7,0.6l-1.6,1.4l0.7,0.7l-2.2,2v1.4l3.7-3.4l-0.7-0.7l1.6-1.4L29.1,83l0.9-0.8
					l1.7,1.6l3.7-3.4l-3.7-3.4L30,78.5l-0.9-0.8l1.3-1.2l-1.6-1.4l0.7-0.7L25.9,70.8L25.9,70.8z M25.9,77.6V83l0.9-0.9v-1h0.9
					l0.7-0.8l-0.7-0.7h-0.9v-1L25.9,77.6L25.9,77.6z M32.2,79.5l-0.1,0.7l0.1,0.7l0.8-0.7L32.2,79.5z"/>
				<path class="st4" d="M25.9,70.9v1.1l2.3,2.2l-0.7,0.7l1.6,1.4l-0.9,0.9v-1.1H27v0.9l3,2.8h1.4l0.1-0.8h-1l1.2-1.1l2.5,2.3
					l-2.5,2.3l-1.2-1.1h1l-0.1-0.8H30l-3,2.8v0.9h1.1v-1.1l0.9,0.9l-1.6,1.4l0.7,0.7l-2.3,2.2v1.1l3.5-3.3l-0.7-0.7l1.6-1.4L28.9,83
					l1-1l1.7,1.6l3.6-3.3L31.7,77L30,78.6l-1-1l1.3-1.2l-1.6-1.4l0.7-0.7L25.9,70.9L25.9,70.9z M25.9,77.8v5l0.8-0.8v-1.1h1l0.6-0.6
					l-0.6-0.6h-1v-1.1L25.9,77.8L25.9,77.8z M32.3,79.7l-0.1,0.5l0.1,0.5l0.6-0.5L32.3,79.7z"/>
			</g>
		</g>
		<g>
			<g id="ornm_4_">
				<path class="st3" d="M25.9,97.9v1.4l2.2,2l-0.7,0.7l1.6,1.4l-0.7,0.6v-0.9h-1.3v1.1l3,2.8h1.5l0.2-1h-0.9l1-0.9l2.4,2.2
					l-2.4,2.2l-1-0.9h0.9l-0.2-1h-1.5l-3,2.8v1.1h1.3v-0.9l0.7,0.6l-1.6,1.4l0.7,0.7l-2.2,2v1.4l3.7-3.4l-0.7-0.7l1.6-1.4l-1.3-1.2
					l0.9-0.8l1.7,1.6l3.7-3.4l-3.7-3.4l-1.7,1.6l-0.9-0.8l1.3-1.2l-1.6-1.4l0.7-0.7L25.9,97.9L25.9,97.9z M25.9,104.7v5.3l0.9-0.9
					v-1h0.9l0.7-0.8l-0.7-0.7h-0.9v-1L25.9,104.7L25.9,104.7z M32.2,106.6l-0.1,0.7l0.1,0.7l0.8-0.7L32.2,106.6z"/>
				<path class="st4" d="M25.9,98v1.1l2.3,2.2l-0.7,0.7l1.6,1.4l-0.9,0.9v-1.1H27v0.9l3,2.8h1.4l0.1-0.8h-1l1.2-1.1l2.5,2.3
					l-2.5,2.3l-1.2-1.1h1l-0.1-0.8H30l-3,2.8v0.9h1.1v-1.1l0.9,0.9l-1.6,1.4l0.7,0.7l-2.3,2.2v1.1l3.5-3.3l-0.7-0.7l1.6-1.4
					l-1.3-1.2l1-1l1.7,1.6l3.6-3.3l-3.6-3.3l-1.7,1.6l-1-1l1.3-1.2l-1.6-1.4l0.7-0.7L25.9,98L25.9,98z M25.9,104.9v5l0.8-0.8V108h1
					l0.6-0.6l-0.6-0.6h-1v-1.1L25.9,104.9L25.9,104.9z M32.3,106.8l-0.1,0.5l0.1,0.5l0.6-0.5L32.3,106.8z"/>
			</g>
		</g>
	</g>
	<g>
		<g id="ornm5_1_">
			<g id="ornm_5_">
				<path class="st3" d="M56.6-0.1L59,2.1l1-0.9h-0.9l0.2-1h1.5l3,2.8v1.1h-1.3V3.2l-0.7,0.6l1.6,1.4L62.6,6l2.2,2v1.4L61.1,6
					l0.7-0.7l-1.6-1.4l1.3-1.2l-0.9-0.8L59,3.4l-3.7-3.4 M64.8-0.1v2.7l-0.9-0.9v-1H63l-0.7-0.8 M58.6-0.1l-0.1,0.7l-0.8-0.7"/>
				<path class="st4" d="M56.5-0.1L59,2.3l1.2-1.1h-1l0.1-0.8h1.4l3,2.8V4h-1.1V3l-0.9,0.9l1.6,1.4L62.5,6l2.3,2.2v1.1L61.3,6
					L62,5.3l-1.6-1.4l1.3-1.2l-1-1L59,3.2l-3.6-3.3L56.5-0.1z M64.8,2.4L64,1.7V0.6h-1l-0.6-0.6L64.8,0V2.4z M58.5-0.1l-0.1,0.5
					l-0.6-0.5H58.5z"/>
			</g>
			<g>
				<g id="ornm_6_">
					<path class="st3" d="M64.8,16.6v1.4l-2.2,2l0.7,0.7l-1.6,1.4l0.7,0.6V22h1.3V23l-3,2.8h-1.5l-0.2-1H60L59,24l-2.4,2.2l2.4,2.2
						l1-0.9h-0.9l0.2-1h1.5l3,2.8v1.1h-1.3v-0.9l-0.7,0.6l1.6,1.4l-0.7,0.7l2.2,2v1.4l-3.7-3.4l0.7-0.7l-1.6-1.4l1.3-1.2L60.7,28
						L59,29.6l-3.7-3.4l3.7-3.4l1.7,1.6l0.9-0.8l-1.3-1.2l1.6-1.4l-0.7-0.7L64.8,16.6L64.8,16.6z M64.8,23.5v5.3l-0.9-0.9v-1H63
						l-0.7-0.8l0.7-0.7h0.9v-1L64.8,23.5L64.8,23.5z M58.5,25.4l0.1,0.7l-0.1,0.7l-0.8-0.7L58.5,25.4z"/>
					<path class="st4" d="M64.8,16.8v1.1l-2.3,2.2l0.7,0.7l-1.6,1.4l0.9,0.9v-1.1h1.1V23l-3,2.8h-1.4L59.2,25h1L59,23.8l-2.5,2.3
						l2.5,2.3l1.2-1.1h-1l0.1-0.8h1.4l3,2.8v0.9h-1.1v-1.1l-0.9,0.9l1.6,1.4l-0.7,0.7l2.3,2.2v1.1l-3.5-3.3l0.7-0.7l-1.6-1.4
						l1.3-1.2l-1-1L59,29.4l-3.6-3.3l3.6-3.3l1.7,1.6l1-1l-1.3-1.2l1.6-1.4l-0.7-0.7L64.8,16.8L64.8,16.8z M64.8,23.7v5L64,27.9
						v-1.1h-1l-0.6-0.6l0.6-0.6h1v-1.1L64.8,23.7L64.8,23.7z M58.4,25.6l0.1,0.5l-0.1,0.5l-0.6-0.5L58.4,25.6z"/>
				</g>
			</g>
			<g>
				<g id="ornm_7_">
					<path class="st3" d="M64.8,43.7v1.4l-2.2,2l0.7,0.7l-1.6,1.4l0.7,0.6V49h1.3v1.1l-3,2.8h-1.5l-0.2-1H60l-1-0.9l-2.4,2.2
						l2.4,2.2l1-0.9h-0.9l0.2-1h1.5l3,2.8v1.1h-1.3v-0.9l-0.7,0.6l1.6,1.4l-0.7,0.7l2.2,2v1.4l-3.7-3.4l0.7-0.7l-1.6-1.4l1.3-1.2
						l-0.9-0.8L59,56.7l-3.7-3.4l3.7-3.4l1.7,1.6l0.9-0.8l-1.3-1.2l1.6-1.4l-0.7-0.7L64.8,43.7L64.8,43.7z M64.8,50.6v5.3L63.9,55
						v-1H63l-0.7-0.8l0.7-0.7h0.9v-1L64.8,50.6L64.8,50.6z M58.5,52.5l0.1,0.7l-0.1,0.7l-0.8-0.7L58.5,52.5z"/>
					<path class="st4" d="M64.8,43.9V45l-2.3,2.2l0.7,0.7l-1.6,1.4l0.9,0.9v-1.1h1.1v0.9l-3,2.8h-1.4L59.2,52h1L59,50.9l-2.5,2.3
						l2.5,2.3l1.2-1.1h-1l0.1-0.8h1.4l3,2.8v0.9h-1.1v-1.1l-0.9,0.9l1.6,1.4l-0.7,0.7l2.3,2.2v1.1l-3.5-3.3l0.7-0.7l-1.6-1.4
						l1.3-1.2l-1-1L59,56.5l-3.6-3.3l3.6-3.3l1.7,1.6l1-1l-1.3-1.2l1.6-1.4l-0.7-0.7L64.8,43.9L64.8,43.9z M64.8,50.7v5L64,55v-1.1
						h-1l-0.6-0.6l0.6-0.6h1v-1.1L64.8,50.7L64.8,50.7z M58.4,52.7l0.1,0.5l-0.1,0.5l-0.6-0.5L58.4,52.7z"/>
				</g>
			</g>
			<g>
				<g id="ornm_8_">
					<path class="st3" d="M64.8,70.8v1.4l-2.2,2l0.7,0.7l-1.6,1.4l0.7,0.6v-0.9h1.3v1.1l-3,2.8h-1.5l-0.2-1H60l-1-0.9l-2.4,2.2
						l2.4,2.2l1-0.9h-0.9l0.2-1h1.5l3,2.8v1.1h-1.3v-0.9l-0.7,0.6l1.6,1.4l-0.7,0.7l2.2,2v1.4l-3.7-3.4l0.7-0.7l-1.6-1.4l1.3-1.2
						l-0.9-0.8L59,83.7l-3.7-3.4l3.7-3.4l1.7,1.6l0.9-0.8l-1.3-1.2l1.6-1.4l-0.7-0.7L64.8,70.8L64.8,70.8z M64.8,77.6V83l-0.9-0.9
						v-1H63l-0.7-0.8l0.7-0.7h0.9v-1L64.8,77.6L64.8,77.6z M58.5,79.5l0.1,0.7L58.5,81l-0.8-0.7L58.5,79.5z"/>
					<path class="st4" d="M64.8,70.9v1.1l-2.3,2.2l0.7,0.7l-1.6,1.4l0.9,0.9v-1.1h1.1v0.9l-3,2.8h-1.4l-0.1-0.8h1L59,78l-2.5,2.3
						l2.5,2.3l1.2-1.1h-1l0.1-0.8h1.4l3,2.8v0.9h-1.1v-1.1l-0.9,0.9l1.6,1.4l-0.7,0.7l2.3,2.2v1.1l-3.5-3.3l0.7-0.7l-1.6-1.4
						l1.3-1.2l-1-1L59,83.6l-3.6-3.3L59,77l1.7,1.6l1-1l-1.3-1.2l1.6-1.4l-0.7-0.7L64.8,70.9L64.8,70.9z M64.8,77.8v5L64,82v-1.1h-1
						l-0.6-0.6l0.6-0.6h1v-1.1L64.8,77.8L64.8,77.8z M58.4,79.7l0.1,0.5l-0.1,0.5l-0.6-0.5L58.4,79.7z"/>
				</g>
			</g>
			<g transform="matrix(-1,0,0,1,377.99597,0)">
				<g id="ornm_9_">
					<path class="st3" d="M64.8,97.9v1.4l-2.2,2l0.7,0.7l-1.6,1.4l0.7,0.6v-0.9h1.3v1.1l-3,2.8h-1.5l-0.2-1H60l-1-0.9l-2.4,2.2
						l2.4,2.2l1-0.9h-0.9l0.2-1h1.5l3,2.8v1.1h-1.3v-0.9l-0.7,0.6l1.6,1.4l-0.7,0.7l2.2,2v1.4l-3.7-3.4l0.7-0.7l-1.6-1.4l1.3-1.2
						l-0.9-0.8l-1.7,1.6l-3.7-3.4l3.7-3.4l1.7,1.6l0.9-0.8l-1.3-1.2l1.6-1.4l-0.7-0.7L64.8,97.9L64.8,97.9z M64.8,104.7v5.3
						l-0.9-0.9v-1H63l-0.7-0.8l0.7-0.7h0.9v-1L64.8,104.7L64.8,104.7z M58.5,106.6l0.1,0.7l-0.1,0.7l-0.8-0.7L58.5,106.6z"/>
					<path class="st4" d="M64.8,98v1.1l-2.3,2.2l0.7,0.7l-1.6,1.4l0.9,0.9v-1.1h1.1v0.9l-3,2.8h-1.4l-0.1-0.8h1L59,105l-2.5,2.3
						l2.5,2.3l1.2-1.1h-1l0.1-0.8h1.4l3,2.8v0.9h-1.1v-1.1l-0.9,0.9l1.6,1.4l-0.7,0.7l2.3,2.2v1.1l-3.5-3.3l0.7-0.7l-1.6-1.4
						l1.3-1.2l-1-1l-1.7,1.6l-3.6-3.3l3.6-3.3l1.7,1.6l1-1l-1.3-1.2L62,102l-0.7-0.7L64.8,98L64.8,98z M64.8,104.9v5l-0.8-0.8V108
						h-1l-0.6-0.6l0.6-0.6h1v-1.1L64.8,104.9L64.8,104.9z M58.4,106.8l0.1,0.5l-0.1,0.5l-0.6-0.5L58.4,106.8z"/>
				</g>
			</g>
		</g>
		<path id="branch" class="st4" d="M29.1,127.3c0.2,0.8,0.8,1.4,1,2.3c0.3-0.9,0.6-1.6,0.4-2.6c-0.2-0.7-0.7-1.2-0.8-1.9
			C29,125.7,28.9,126.5,29.1,127.3L29.1,127.3z M28.9,130.8c0.5,0.7,1.3,1.3,2.1,1.7c-0.2-0.6,0.1-1.1,0.5-1.6
			c0.4-0.6,0.6-1.2,0.3-1.9c-0.2,0.4-0.4,0.7-0.6,1c-0.4,0.5-0.6,0.9-0.7,1.6c-0.4-0.3-0.6-0.8-0.8-1.2c-0.3-0.6-0.9-1.2-1.5-1.5
			C28.3,129.4,28.5,130.2,28.9,130.8L28.9,130.8z M31.9,133c-0.1,0.4-0.2,0.8-0.2,1.2c-0.4-0.4-0.8-0.7-1.2-1
			c-0.6-0.5-1.2-0.8-1.7-1.4c0.1,0.9,0.4,1.6,1.1,2.1c0.7,0.6,1.6,0.9,2.4,1.4c-0.1-0.8,0.2-1.4,0.4-2.2c0.2-0.7,0-1.4-0.5-1.9
			C32.3,131.9,32.1,132.4,31.9,133L31.9,133z M33.6,135.6c0.2,0.6,0.6,1.1,0.9,1.6c-0.8-0.2-1.5-0.7-2.2-1.1
			c-0.9-0.5-1.8-0.8-2.5-1.4c0.4,1.4,1.3,2.2,2.7,2.7c1,0.3,1.8,0.1,2.9,0.6c-0.1-0.8-0.4-1.6-0.7-2.3c-0.3-0.5-0.6-1-0.8-1.6
			C33.6,134.6,33.5,135.1,33.6,135.6L33.6,135.6z M36.5,137.8c0.3,0.5,0.6,0.9,1.1,1.2c-1.1,0.1-2-0.6-3.1-0.7c-0.7,0-1.3,0.2-2,0.1
			c0.8,0.6,1.7,1,2.7,1.2c1.3,0.2,2.5-0.2,3.9,0c-0.7-0.5-1-1.1-1.4-1.8c-0.5-0.8-1.1-1.5-2.1-1.6C36,136.7,36.2,137.3,36.5,137.8
			L36.5,137.8z M40.5,139.7c-2,0.3-3.9,0.8-5.9,0.8c2.3,0.8,4.4,0.9,6.6,0.1c1.2-0.4,2.1-0.7,3.1-0.6c1.3,0.1,3,0.6,4.8,2.5l0.7-0.6
			C47.2,139.6,43.8,139.1,40.5,139.7L40.5,139.7z"/>
		<g transform="matrix(-1,0,0,1,378.03633,0)">
			<path id="branch_1_" class="st4" d="M61.7,127.3c-0.2,0.8-0.8,1.4-1,2.3c-0.3-0.9-0.6-1.6-0.4-2.6c0.2-0.7,0.7-1.2,0.8-1.9
				C61.7,125.7,61.8,126.5,61.7,127.3L61.7,127.3z M61.8,130.8c-0.5,0.7-1.3,1.3-2.1,1.7c0.2-0.6-0.1-1.1-0.5-1.6
				c-0.4-0.6-0.6-1.2-0.3-1.9c0.2,0.4,0.4,0.7,0.6,1c0.4,0.5,0.6,0.9,0.7,1.6c0.4-0.3,0.6-0.8,0.8-1.2c0.3-0.6,0.9-1.2,1.5-1.5
				C62.4,129.4,62.3,130.2,61.8,130.8L61.8,130.8z M58.8,133c0.1,0.4,0.2,0.8,0.2,1.2c0.4-0.4,0.8-0.7,1.2-1
				c0.6-0.5,1.2-0.8,1.7-1.4c-0.1,0.9-0.4,1.6-1.1,2.1c-0.7,0.6-1.6,0.9-2.4,1.4c0.1-0.8-0.2-1.4-0.4-2.2c-0.2-0.7,0-1.4,0.5-1.9
				C58.4,131.9,58.6,132.4,58.8,133L58.8,133z M57.1,135.6c-0.2,0.6-0.6,1.1-0.9,1.6c0.8-0.2,1.5-0.7,2.2-1.1
				c0.9-0.5,1.8-0.8,2.5-1.4c-0.4,1.4-1.3,2.2-2.7,2.7c-1,0.3-1.8,0.1-2.9,0.6c0.1-0.8,0.4-1.6,0.7-2.3c0.3-0.5,0.6-1,0.8-1.6
				C57.1,134.6,57.3,135.1,57.1,135.6L57.1,135.6z M54.2,137.8c-0.3,0.5-0.6,0.9-1.1,1.2c1.1,0.1,2-0.6,3.1-0.7c0.7,0,1.3,0.2,2,0.1
				c-0.8,0.6-1.7,1-2.7,1.2c-1.3,0.2-2.5-0.2-3.9,0c0.7-0.5,1-1.1,1.4-1.8c0.5-0.8,1.1-1.5,2.1-1.6
				C54.8,136.7,54.5,137.3,54.2,137.8L54.2,137.8z M50.2,139.7c2,0.3,3.9,0.8,5.9,0.8c-2.3,0.8-4.4,0.9-6.6,0.1
				c-1.2-0.4-2.1-0.7-3.1-0.6c-1.3,0.1-3,0.6-4.8,2.5l-0.7-0.6C43.5,139.6,46.9,139.1,50.2,139.7L50.2,139.7z"/>
		</g>
		<g>
			<path class="st3" d="M30.8,16.8l-3.1-1.9v-4.6l3.1-1.9V6l2.9-1.8h2.4l4.5-2.5h9.6l4.5,2.5H57L59.9,6v2.4l3.1,1.9l0,4.6l-3.1,1.9
				v2.4L57,21h-2.4l-4.5,2.5h-9.6L36.1,21h-2.4l-2.9-1.8L30.8,16.8z"/>
			<path class="st0" d="M40.6,1.8l-4.5,2.5h-2.3L30.9,6v2.4l-3.1,1.9v4.5l3.1,1.9v2.4l2.9,1.7h2.4l4.5,2.5h9.6l4.5-2.5H57l2.9-1.7
				v-2.4l3.1-1.9v-4.5l-3.1-1.9V6L57,4.3h-2.4l-4.5-2.5C50.1,1.8,40.6,1.8,40.6,1.8z M40.8,2.7h9l4.5,2.5h2.3l2.2,1.3V9l3.1,1.9v3.5
				l-3.1,1.9v2.4L56.7,20h-2.3l-4.5,2.5h-9L36.4,20H34l-2.2-1.3v-2.4l-3.1-1.9v-3.5L31.8,9V6.6L34,5.2h2.3
				C36.4,5.2,40.8,2.7,40.8,2.7z"/>
			<path class="st4" d="M45.3,12.7V2.8h-4.4l-4.5,2.5h-2.3l-2.1,1.3V9L28.8,11v1.6l16.6,0v9.8h4.4l4.5-2.5h2.3l2.1-1.3v-2.4l3.1-1.9
				v-1.6L45.3,12.7z"/>
			<path class="st1" d="M28.8,12.7l0,1.6l3.1,1.9v2.4l2.1,1.3h2.3l4.5,2.5h4.4v-9.8l16.6,0V11L58.8,9V6.6l-2.1-1.3h-2.3l-4.5-2.5
				h-4.4v9.8L28.8,12.7z"/>
			<g id="carp1h">
				<g id="carp1q">
					<path class="st3" d="M35.6,6.3l-0.8-0.7L34.1,6l0.8,0.7l-1,0.6H36l1.9,1.7l0.6-0.6l-1.8-1.7V5.6L35.6,6.3z"/>
					<path class="st3" d="M39.3,5.9l-0.8-0.7l-0.8,0.5l0.8,0.7l-1,0.6h2.2l1.9,1.7l0.6-0.6l-1.8-1.7V5.3L39.3,5.9z"/>
					<path class="st3" d="M35.4,8.3l-0.8-0.7l-0.8,0.5l0.8,0.7l-1,0.6h2.2l1.9,1.7l0.6-0.6l-1.8-1.7V7.7L35.4,8.3z"/>
					<path class="st3" d="M45.4,2.7h-1.9l-1,1h-2L39,4.5l0.3,0.8l1.3-0.7h0.6l2,2.3l2.2-1.3L45.4,2.7z"/>
					<path class="st2" d="M34.8,5.7l0.7,0.6L35,6.7L34.3,6L34.8,5.7z M36.6,5.8v1l1.8,1.7l-0.5,0.5l-1.8-1.7h-1.8L36.6,5.8L36.6,5.8
						z"/>
					<path class="st2" d="M38.5,5.4L39.2,6l-0.6,0.4l-0.7-0.6L38.5,5.4z M40.2,5.5v1L42,8.1l-0.5,0.5l-1.8-1.7h-1.8L40.2,5.5
						L40.2,5.5z"/>
					<path class="st2" d="M34.6,7.7l0.7,0.6l-0.6,0.4L34,8.1L34.6,7.7z M36.3,7.8v1l1.8,1.7L37.6,11l-1.8-1.7H34L36.3,7.8L36.3,7.8z
						"/>
					<path class="st2" d="M45.3,2.8h-1.8l-1,1h-2l-1.4,0.7l0.3,0.6l1.2-0.6h0.6l2,2.3l2.1-1.3L45.3,2.8z"/>
				</g>
				<g transform="matrix(1,0,0,-1,0,105.62254)">
					<g id="carp1q_1_">
						<path class="st3" d="M35.6,19l-0.8,0.7l-0.8-0.5l0.8-0.7l-1-0.6H36l1.9-1.7l0.6,0.6l-1.8,1.7v1.2L35.6,19z"/>
						<path class="st3" d="M39.3,19.3L38.5,20l-0.8-0.5l0.8-0.7l-1-0.6h2.2l1.9-1.7l0.6,0.6l-1.8,1.7V20L39.3,19.3z"/>
						<path class="st3" d="M35.4,16.9l-0.8,0.7l-0.8-0.5l0.8-0.7l-1-0.6h2.2l1.9-1.7l0.6,0.6l-1.8,1.7v1.2L35.4,16.9z"/>
						<path class="st3" d="M45.4,22.5h-1.9l-1-1h-2L39,20.8l0.3-0.8l1.3,0.7h0.6l2-2.3l2.2,1.3L45.4,22.5z"/>
						<path class="st2" d="M34.8,19.6l0.7-0.6L35,18.6l-0.7,0.6L34.8,19.6z M36.6,19.5v-1l1.8-1.7l-0.5-0.5L36.1,18h-1.8L36.6,19.5
							L36.6,19.5z"/>
						<path class="st2" d="M38.5,19.9l0.7-0.6l-0.6-0.4l-0.7,0.6L38.5,19.9z M40.2,19.8v-1l1.8-1.7l-0.5-0.5l-1.8,1.7h-1.8
							L40.2,19.8L40.2,19.8z"/>
						<path class="st2" d="M34.6,17.5l0.7-0.6l-0.6-0.4L34,17.2L34.6,17.5z M36.3,17.4v-1l1.8-1.7l-0.5-0.5L35.8,16H34L36.3,17.4
							L36.3,17.4z"/>
						<path class="st2" d="M45.3,22.4h-1.8l-1-1h-2l-1.4-0.7l0.3-0.6l1.2,0.6h0.6l2-2.3l2.1,1.3L45.3,22.4z"/>
					</g>
				</g>
				<path class="st3" d="M34.3,9.5l-0.9-0.3l0,0L32.2,10v0.2l-1.9,2.4l1.9,2.4v0.2l1.2,0.8l0.9-0.3l-0.6-0.4v-0.7l0.2-0.3h1v-3.6h-1
					l-0.2-0.3V9.8L34.3,9.5z"/>
				<path class="st2" d="M32.3,10l1.1-0.8l0.7,0.3l-0.4,0.3v0.8l0.3,0.3h0.9v3.4h-0.9l-0.3,0.3v0.8l0.4,0.3L33.4,16l-1.1-0.8l0-0.2
					l-1.9-2.4l1.9-2.4L32.3,10z"/>
			</g>
			<g id="carp1">
				<g id="carp1h_1_">
					<g id="carp1q_2_">
						<path class="st3" d="M55.1,6.3l0.8-0.7L56.6,6l-0.8,0.7l1,0.6h-2.2l-1.9,1.7l-0.6-0.6L54,6.8V5.6L55.1,6.3z"/>
						<path class="st3" d="M51.5,5.9l0.8-0.7L53,5.7l-0.8,0.7l1,0.6h-2.2l-1.9,1.7l-0.6-0.6l1.8-1.7V5.3L51.5,5.9z"/>
						<path class="st3" d="M55.4,8.3l0.8-0.7l0.8,0.5l-0.8,0.7l1,0.6h-2.2l-1.9,1.7l-0.6-0.6l1.8-1.7V7.7L55.4,8.3z"/>
						<path class="st3" d="M45.4,2.7h1.9l1,1h2l1.5,0.8l-0.3,0.8l-1.3-0.7h-0.6l-2,2.3l-2.2-1.3L45.4,2.7z"/>
						<path class="st2" d="M55.9,5.7l-0.7,0.6l0.6,0.4L56.4,6L55.9,5.7z M54.1,5.8v1l-1.8,1.7l0.5,0.5l1.8-1.7h1.8L54.1,5.8
							L54.1,5.8z"/>
						<path class="st2" d="M52.2,5.4L51.6,6l0.6,0.4l0.7-0.6L52.2,5.4z M50.5,5.5v1l-1.8,1.7l0.5,0.5L51,6.9h1.8L50.5,5.5L50.5,5.5z
							"/>
						<path class="st2" d="M56.1,7.7l-0.7,0.6L56,8.7l0.7-0.6L56.1,7.7z M54.4,7.8v1l-1.8,1.7l0.5,0.5l1.8-1.7h1.8L54.4,7.8
							L54.4,7.8z"/>
						<path class="st2" d="M45.4,2.8h1.8l1,1h2l1.4,0.7l-0.3,0.6l-1.2-0.6h-0.6l-2,2.3l-2.1-1.3L45.4,2.8z"/>
					</g>
					<g transform="matrix(-1,0,0,1,377.99368,0)">
						<g id="carp1q_3_">
							<path class="st3" d="M55.1,19l0.8,0.7l0.8-0.5l-0.8-0.7l1-0.6h-2.2l-1.9-1.7l-0.6,0.6l1.8,1.7v1.2L55.1,19z"/>
							<path class="st3" d="M51.5,19.3l0.8,0.7l0.8-0.5l-0.8-0.7l1-0.6h-2.2l-1.9-1.7l-0.6,0.6l1.8,1.7V20L51.5,19.3z"/>
							<path class="st3" d="M55.4,16.9l0.8,0.7l0.8-0.5l-0.8-0.7l1-0.6h-2.2l-1.9-1.7l-0.6,0.6l1.8,1.7v1.2L55.4,16.9z"/>
							<path class="st3" d="M45.4,22.5h1.9l1-1h2l1.5-0.8l-0.3-0.8l-1.3,0.7h-0.6l-2-2.3l-2.2,1.3L45.4,22.5z"/>
							<path class="st2" d="M55.9,19.6l-0.7-0.6l0.6-0.4l0.7,0.6L55.9,19.6z M54.1,19.5v-1l-1.8-1.7l0.5-0.5l1.8,1.7h1.8L54.1,19.5
								L54.1,19.5z"/>
							<path class="st2" d="M52.2,19.9l-0.7-0.6l0.6-0.4l0.7,0.6L52.2,19.9z M50.5,19.8v-1l-1.8-1.7l0.5-0.5l1.8,1.7h1.8L50.5,19.8
								L50.5,19.8z"/>
							<path class="st2" d="M56.1,17.5l-0.7-0.6l0.6-0.4l0.7,0.6L56.1,17.5z M54.4,17.4v-1l-1.8-1.7l0.5-0.5l1.8,1.7h1.8L54.4,17.4
								L54.4,17.4z"/>
							<path class="st2" d="M45.4,22.4h1.8l1-1h2l1.4-0.7l-0.3-0.6l-1.2,0.6h-0.6l-2-2.3l-2.1,1.3L45.4,22.4z"/>
						</g>
					</g>
					<path class="st3" d="M56.4,9.5l0.9-0.3l0,0l1.2,0.8v0.2l1.9,2.4L58.5,15v0.2l-1.2,0.8l-0.9-0.3l0.6-0.4v-0.7l-0.2-0.3h-1v-3.6
						h1l0.2-0.3V9.8L56.4,9.5z"/>
					<path class="st2" d="M58.4,10l-1.1-0.8l-0.7,0.3l0.4,0.3v0.8l-0.3,0.3h-0.9v3.4h0.9l0.3,0.3v0.8l-0.4,0.3l0.7,0.3l1.1-0.8
						l0-0.2l1.9-2.4l-1.9-2.4L58.4,10z"/>
				</g>
				<path class="st3" d="M32.7,14.7l-0.5-0.5V14L31,12.6l1.1-1.4V11l0.5-0.5l0.9,0.8l-0.5,0l0.8,0.8h1.8l1.4-1.1v-3h3.6l4.2-2.6V4.8
					l-0.6-0.4h-0.2l-0.7,0.5l-0.1,0.3l-0.5-0.7l1.1-0.9h0.2l1.2-0.9h0.4l1.2,0.9h0.2L48,4.5l-0.5,0.7l-0.1-0.3l-0.7-0.5h-0.2
					l-0.6,0.4v0.7L50,8.1h3.6v3l1.4,1.1h1.8l0.8-0.8l-0.5,0l0.9-0.8l0.5,0.5v0.2l1.1,1.4L58.6,14v0.2L58,14.7l-0.9-0.8l0.5,0
					l-0.8-0.8H55l-1.4,1.1v3H50l-4.2,2.6v0.7l0.6,0.4h0.2l0.7-0.5l0.1-0.3l0.5,0.7l-1.1,0.9h-0.2l-1.2,0.9h-0.4l-1.2-0.9h-0.2
					l-1.1-0.9l0.5-0.7l0.1,0.3l0.7,0.5h0.2l0.6-0.4v-0.7l-4.2-2.6h-3.6v-3l-1.4-1.1h-1.8l-0.8,0.8l0.5,0L32.7,14.7z"/>
				<path class="st4" d="M45.4,20.9l0.5,0.3l-0.5,0.3V20.9L45.4,20.9z M44,21.5L44,21.5l1.2,0.9h0.1v-0.7l-0.6-0.5l0.6-0.5v-1.3
					l-4.5-2.7h-3.3V14l-1.7-1.3h-2.6l-0.6,0.7L32,12.7l-0.8,0l1,1.3v0.2l0.4,0.4l0.7-0.5L33,14v-0.1l0.9-0.9h1.9l1.5,1.2v2.9h3.5
					l4.2,2.6v0.8l-0.7,0.5H44l-0.8-0.5l-0.1-0.2l-0.4,0.5l1,0.8H44L44,21.5z M32.6,12l0.5,0.6h-1L32.6,12z M45.3,3.6L44.9,4l0.5,0.3
					V3.6z M57.6,12.7l0.5,0.6l0.5-0.6H57.6L57.6,12.7z M46.7,3.7l-1.2-0.9h-0.1v0.7L46,4l-0.6,0.5v1.3l4.5,2.7h3.3v2.8l1.7,1.3h2.6
					l0.6-0.7l0.6,0.7h0.8l-1-1.3v-0.2L58,10.7l-0.7,0.5l0.4,0v0.1l-0.9,0.9H55l-1.5-1.2V8.2H50l-4.2-2.6V4.8l0.7-0.5h0.3l0.8,0.5
					L47.5,5l0.4-0.5l-1-0.8L46.7,3.7L46.7,3.7z"/>
				<path class="st1" d="M45.3,21.6l-0.5-0.3l0.5-0.3V21.6z M33.1,12.7l-0.5,0.6l-0.5-0.6H33.1z M46.8,21.5L46.8,21.5l-1.2,0.9h-0.1
					v-0.2v-0.5l0.6-0.5l-0.6-0.5v-1.3l4.5-2.7h3.3V14l1.7-1.3h2.6l0.6,0.7l0.6-0.7l0.8,0l-1,1.3v0.2L58,14.5L57.4,14l0.4,0v-0.1
					L56.9,13H55l-1.5,1.2v2.9H50l-4.2,2.6v0.8l0.7,0.5h0.3l0.8-0.5l0.1-0.2l0.4,0.5l-1,0.8H46.8L46.8,21.5z M58.1,12l-0.5,0.6h1
					L58.1,12z M44,3.7l1.2-0.9h0.1v0.7L44.7,4l0.6,0.5l0,1.3l-4.5,2.7h-3.3v2.8l-1.7,1.3h-2.6l-0.6-0.7L32,12.6h-0.8l1-1.3v-0.2
					l0.4-0.4l0.7,0.5l-0.4,0v0.1l0.9,0.9h1.9l1.5-1.2V8.2h3.5L45,5.6V4.8l-0.7-0.5H44l-0.8,0.5L43.2,5l-0.4-0.5l1-0.8
					C43.8,3.7,44,3.7,44,3.7z M45.4,4.3L45.9,4l-0.5-0.3V4.3z"/>
				<path class="st0" d="M45.3,12.7V5.9l-4.4,2.7h-3.2v2.7L36,12.6l9.4,0v6.8l4.4-2.7h3.2V14l1.6-1.3L45.3,12.7z"/>
				<path class="st2" d="M36,12.7l1.6,1.3v2.7h3.2l4.4,2.7v-6.8l9.4,0l-1.6-1.3V8.6h-3.2l-4.4-2.7v6.8L36,12.7z"/>
				<path class="st3" d="M40.6,9.3l-0.8-0.7l-0.8,0.5l0.8,0.7l-1,0.6H41l1.9,1.7l0.6-0.6l-1.8-1.7V8.7L40.6,9.3z"/>
				<path class="st3" d="M50.1,15.9l0.8,0.7l0.8-0.5l-0.8-0.7l1-0.6h-2.2l-1.9-1.7l-0.6,0.6l1.8,1.7v1.2L50.1,15.9z"/>
				<path class="st3" d="M40.6,15.9l-0.8,0.7l-0.8-0.5l0.8-0.7l-1-0.6H41l1.9-1.7l0.6,0.6l-1.8,1.7v1.2L40.6,15.9z"/>
				<path class="st3" d="M50.1,9.3l0.8-0.7l0.8,0.5l-0.8,0.7l1,0.6h-2.2l-1.9,1.7l-0.6-0.6l1.8-1.7V8.7L50.1,9.3z"/>
				<path class="st2" d="M50.9,16.5l-0.7-0.6l0.6-0.4l0.7,0.6L50.9,16.5z M49.2,16.4v-1l-1.8-1.7l0.5-0.5l1.8,1.7h1.8L49.2,16.4
					L49.2,16.4z M39.8,8.7l0.7,0.6l-0.6,0.4l-0.7-0.6L39.8,8.7z M41.5,8.9v1l1.8,1.7L42.8,12L41,10.3h-1.8L41.5,8.9L41.5,8.9z"/>
				<path class="st0" d="M50.9,8.7l-0.7,0.6l0.6,0.4l0.7-0.6L50.9,8.7z M49.2,8.9v1l-1.8,1.7l0.5,0.5l1.8-1.7h1.8L49.2,8.9L49.2,8.9
					z M39.8,16.5l0.7-0.6l-0.6-0.4l-0.7,0.6L39.8,16.5z M41.5,16.4v-1l1.8-1.7l-0.5-0.5L41,14.9h-1.8L41.5,16.4L41.5,16.4z"/>
				<path class="st3" d="M50.1,12.6l-4.8,3.2l-4.8-3.2l4.8-3.2L50.1,12.6z"/>
				<path class="st1" d="M45.3,9.6l-4.5,3h9l-4.5-3v6l4.5-3h-9l4.5,3V9.6z"/>
				<path class="st3" d="M46.6,13.7v0.9h-2.5v-0.9h-1.6v-2.2h1.6v-0.9h2.5v0.9h1.6v2.2H46.6z"/>
				<path class="st2" d="M44.2,10.8v0.9h-1.6v0.9h2.8v-1.8L44.2,10.8L44.2,10.8z M45.4,12.6h2.8v-0.9h-1.6v-0.9h-1.1L45.4,12.6
					L45.4,12.6z M42.5,12.7v0.9h1.6v0.9h1.1v-1.8L42.5,12.7L42.5,12.7z M45.4,14.5h1.1v-0.9h1.6v-0.9h-2.8V14.5L45.4,14.5z"/>
			</g>
			<g id="carpets">
				<path class="st3" d="M53.5,48.8v-1.4h3.8V46h3.8V33.4h-3.8V32h-3.8v-1.4h-3.8v-1.4h-8.6v1.4h-3.8V32h-3.8v1.4h-3.8V46h3.8v1.4
					h3.8v1.4h3.8v1.4h8.6v-1.4H53.5z"/>
				<path class="st2" d="M41.2,29.3v1.4h-3.8v1.4h-3.8v1.4h-3.8v12.4h3.8v1.4h3.8v1.4h3.8v1.4h8.4v-1.4h3.8v-1.4h3.8v-1.4h3.8V33.5
					h-3.8v-1.4h-3.8v-1.4h-3.8v-1.4H41.2L41.2,29.3z M42.2,30.3h6.3v1.4h3.8v1.4h3.8v1.4h3.8v10.4h-3.8v1.4h-3.8v1.4h-3.8v1.4h-6.3
					v-1.4h-3.8v-1.4h-3.8v-1.4h-3.8V34.5h3.8v-1.4h3.8v-1.4h3.8V30.3z"/>
				<path class="st2" d="M38.5,47.6v-1.4h-3.8v-1.4h-3.8V34.6h3.8v-1.4h3.8v-1.4h3.8v-1.4h6.1v1.4h3.8v1.4h3.8v1.4h3.8v10.2h-3.8
					v1.4h-3.8v1.4h-3.8V49h-6.1v-1.4H38.5z"/>
				<path class="st3" d="M39.3,32.8l-1-0.8v1.4l-1,0.6l0-0.9L36.5,34l-0.9-0.8l0,0.9l-1.1-0.7v1.3l-0.9,0.6l0-0.8l-1,0.7l-1-0.7
					l0,0.8l-1-0.7v4.1h-1.1v1.8h1.1v4.1l1-0.7l0,0.8l1-0.7l1,0.7l0-0.8l0.9,0.6v1.3l1.1-0.7l0,0.9l0.9-0.8l0.9,0.8l0-0.9l1,0.6v1.4
					l1-0.8l0,1l1-0.9l1,0.9l0-1l0.9,0.7v1.5l1.3-1.2V49l1.8-1.2l1.8,1.2v-1.4l1.3,1.2v-1.5l0.9-0.7l0,1l1-0.9l1,0.9l0-1l1,0.8v-1.4
					l1-0.6l0,0.9l0.9-0.8l0.9,0.8l0-0.9l1.1,0.7v-1.3l0.9-0.6l0,0.8l1-0.7l1,0.7l0-0.8l1,0.7v-4.1h1.1v-1.8H60v-4.1l-1,0.7l0-0.8
					l-1,0.7l-1-0.7l0,0.8l-0.9-0.6v-1.3l-1.1,0.7l0-0.9L54.2,34l-0.9-0.8l0,0.9l-1-0.6v-1.4l-1,0.8l0-1l-1,0.9l-1-0.9l0,1l-0.9-0.7
					v-1.5l-1.3,1.2v-1.4l-1.8,1.2l-1.8-1.2v1.4l-1.3-1.2v1.5l-0.9,0.7l0-1l-1,0.9l-1-0.9L39.3,32.8z"/>
				<g>
					<path class="st0" d="M31.7,35.6l0-0.8l0.9,0.7l0,0l0.9-0.6l0,0.8l1-0.7v9.5l-1-0.7l0,0.8l-0.9-0.7l-0.9,0.7l0-0.8l-1,0.7v-4
						h-1.1v-1.6h1.1v-4L31.7,35.6z"/>
					<path class="st0" d="M39.4,32.1l0.9,0.8l0.9-0.8l0,1l1-0.8v14.8l-1-0.8l0,1l-0.9-0.8l-0.9,0.8l0-1l-1,0.8V32.3l1,0.8L39.4,32.1
						z"/>
					<path class="st0" d="M51.3,32.1l-0.9,0.8l-0.9-0.8l0,1l-1-0.8v14.8l1-0.8l0,1l0.9-0.8l0.9,0.8l0-1l1,0.8V32.3l-1,0.8L51.3,32.1
						z"/>
					<path class="st0" d="M59,35.6l0-0.8l-0.9,0.7l0,0l-0.9-0.6l0,0.8l-1-0.7v9.5l1-0.7l0,0.8l0.9-0.7l0.9,0.7l0-0.8l1,0.7v-4h1.1
						v-1.6h-1.1v-4L59,35.6z"/>
				</g>
				<g>
					<path class="st4" d="M35.7,33.5l0.8,0.7l0.8-0.7l0,0.9l1.1-0.7v12.1l-1.1-0.7l0,0.9l-0.8-0.7l-0.8,0.7l0-0.9l-1.1,0.7V33.6
						l1.1,0.7L35.7,33.5z"/>
					<path class="st4" d="M43.6,32.1l-1.3-1.2v17.7l1.3-1.2v1.5l1.7-1.1h0h0l1.7,1.1v-1.5l1.3,1.2V30.8l-1.3,1.2v-1.5l-1.7,1.1h0h0
						l-1.7-1.1V32.1z"/>
					<path class="st4" d="M55,33.5l-0.8,0.7l-0.8-0.7l0,0.9l-1.1-0.7v12.1l1.1-0.7l0,0.9l0.8-0.7l0.8,0.7l0-0.9l1.1,0.7V33.6
						l-1.1,0.7L55,33.5z"/>
				</g>
				<g id="carp2h">
					<g id="carp2q">
						<path class="st3" d="M32.2,38c0.1,0.1,0.3,0.2,0.4,0.2c0.2,0,0.3-0.1,0.4-0.2c0.4-0.4,0.4-1,0.4-1.5c0,0-0.4,0.4-0.5,0.5
							c-0.1-0.1-0.3-0.5-0.3-0.5s-0.2,0.4-0.3,0.5c-0.1-0.1-0.5-0.5-0.5-0.5C31.9,36.9,31.9,37.6,32.2,38L32.2,38z"/>
						<path class="st3" d="M36.2,36.9l-0.3-0.3V36l-0.7,0.7l1.3,1.3l1.3-1.3L37,36v0.6l-0.3,0.3v-1.1l0.5-0.5l-0.8-0.7l-0.8,0.7
							l0.5,0.5L36.2,36.9z"/>
						<path class="st3" d="M40.1,35.7l-0.3-0.3v-0.6l-0.7,0.7l1.3,1.3l1.3-1.3l-0.7-0.7v0.6l-0.3,0.3v-1.1l0.5-0.5l-0.8-0.7
							l-0.8,0.7l0.5,0.5V35.7z"/>
						<path class="st1" d="M32.6,36.7c0.1,0.1,0.3,0.5,0.3,0.5s0.3-0.3,0.4-0.4c0,0.5-0.1,1-0.3,1.2C32.9,38,32.8,38,32.6,38
							c-0.1,0-0.2,0-0.3-0.1c-0.2-0.2-0.3-0.6-0.3-1.2c0.1,0.1,0.4,0.4,0.4,0.4C32.5,37,32.6,36.8,32.6,36.7L32.6,36.7z"/>
						<path class="st1" d="M40.5,34.6V36l0.5-0.5V35l0.5,0.4l-1.1,1.1l-1.1-1.1l0.5-0.4v0.4l0.5,0.5v-1.4l-0.5-0.4l0.6-0.5l0.6,0.5
							L40.5,34.6z"/>
						<path class="st2" d="M36.6,35.8v1.4l0.5-0.5v-0.4l0.5,0.4l-1.1,1.1l-1.1-1.1l0.5-0.4v0.4l0.5,0.5v-1.4l-0.5-0.4l0.6-0.5
							l0.6,0.5L36.6,35.8z"/>
					</g>
					<g transform="matrix(-1,0,0,1,377.9958,0)">
						<g id="carp2q_1_">
							<path class="st3" d="M58.5,38c-0.1,0.1-0.3,0.2-0.4,0.2c-0.2,0-0.3-0.1-0.4-0.2c-0.4-0.4-0.4-1-0.4-1.5c0,0,0.4,0.4,0.5,0.5
								c0.1-0.1,0.3-0.5,0.3-0.5s0.2,0.4,0.3,0.5c0.1-0.1,0.5-0.5,0.5-0.5C58.9,36.9,58.9,37.6,58.5,38L58.5,38z"/>
							<path class="st3" d="M54.5,36.9l0.3-0.3V36l0.7,0.7l-1.3,1.3L53,36.7l0.7-0.7v0.6l0.3,0.3v-1.1l-0.5-0.5l0.8-0.7l0.8,0.7
								l-0.5,0.5L54.5,36.9z"/>
							<path class="st3" d="M50.7,35.7l0.3-0.3v-0.6l0.7,0.7l-1.3,1.3l-1.3-1.3l0.7-0.7v0.6l0.3,0.3v-1.1l-0.5-0.5l0.8-0.7l0.8,0.7
								l-0.5,0.5V35.7z"/>
							<path class="st1" d="M58.1,36.7c-0.1,0.1-0.3,0.5-0.3,0.5s-0.3-0.3-0.4-0.4c0,0.5,0.1,1,0.3,1.2c0.1,0.1,0.2,0.1,0.3,0.1
								c0.1,0,0.2,0,0.3-0.1c0.2-0.2,0.3-0.6,0.3-1.2c-0.1,0.1-0.4,0.4-0.4,0.4C58.3,37,58.2,36.8,58.1,36.7L58.1,36.7z"/>
							<path class="st1" d="M50.3,34.6V36l-0.5-0.5V35l-0.5,0.4l1.1,1.1l1.1-1.1L51.1,35v0.4L50.5,36v-1.4l0.5-0.4l-0.6-0.5
								l-0.6,0.5L50.3,34.6z"/>
							<path class="st2" d="M54.1,35.8v1.4l-0.5-0.5v-0.4l-0.5,0.4l1.1,1.1l1.1-1.1l-0.5-0.4v0.4l-0.5,0.5v-1.4l0.5-0.4l-0.6-0.5
								l-0.6,0.5L54.1,35.8z"/>
						</g>
					</g>
					<path class="st3" d="M46.9,36.2l-0.4-0.6l1.1-1l-1-0.8v0.6l-0.4,0.4v-1L47,33l-1.7-1.2L43.7,33l0.9,0.7v1l-0.4-0.4v-0.6l-1,0.8
						l1.1,1l-0.4,0.6H46.9z"/>
					<path class="st2" d="M44.1,36.1l0.3-0.5l-1-1l0.7-0.6v0.4l0.6,0.5v-1.3L43.8,33l1.5-1.1l1.5,1.1L46,33.6V35l0.6-0.5V34l0.7,0.6
						l-1,1l0.3,0.5H44.1z"/>
					<path class="st3" d="M44.6,33l0.8,0.6l0.8-0.6l-0.8-0.6l0,0L44.6,33z"/>
					<path class="st0" d="M45.4,32.6c0.1,0,0.5,0.4,0.6,0.4c-0.1,0.1-0.5,0.4-0.6,0.4c-0.1,0-0.5-0.4-0.6-0.4
						C44.9,32.9,45.3,32.6,45.4,32.6z"/>
				</g>
				<g id="carp2">
					<g id="carp2h_1_">
						<g id="carp2q_2_">
							<path class="st3" d="M32.2,41.4c0.1-0.1,0.3-0.2,0.4-0.2c0.2,0,0.3,0.1,0.4,0.2c0.4,0.4,0.4,1,0.4,1.5c0,0-0.4-0.4-0.5-0.5
								c-0.1,0.1-0.3,0.5-0.3,0.5s-0.2-0.4-0.3-0.5c-0.1,0.1-0.5,0.5-0.5,0.5C31.9,42.5,31.9,41.8,32.2,41.4L32.2,41.4z"/>
							<path class="st3" d="M36.2,42.5l-0.3,0.3v0.6l-0.7-0.7l1.3-1.3l1.3,1.3L37,43.4v-0.6l-0.3-0.3v1.1l0.5,0.5l-0.8,0.7L35.7,44
								l0.5-0.5L36.2,42.5z"/>
							<path class="st3" d="M40.1,43.7L39.8,44v0.6l-0.7-0.7l1.3-1.3l1.3,1.3l-0.7,0.7V44l-0.3-0.3v1.1l0.5,0.5l-0.8,0.7l-0.8-0.7
								l0.5-0.5V43.7z"/>
							<path class="st1" d="M32.6,42.7c0.1-0.1,0.3-0.5,0.3-0.5s0.3,0.3,0.4,0.4c0-0.5-0.1-1-0.3-1.2c-0.1-0.1-0.2-0.1-0.3-0.1
								c-0.1,0-0.2,0-0.3,0.1c-0.2,0.2-0.3,0.6-0.3,1.2c0.1-0.1,0.4-0.4,0.4-0.4C32.5,42.4,32.6,42.6,32.6,42.7L32.6,42.7z"/>
							<path class="st1" d="M40.5,44.8v-1.4l0.5,0.5v0.4l0.5-0.4l-1.1-1.1l-1.1,1.1l0.5,0.4v-0.4l0.5-0.5v1.4l-0.5,0.4l0.6,0.5
								l0.6-0.5L40.5,44.8z"/>
							<path class="st2" d="M36.6,43.6v-1.4l0.5,0.5v0.4l0.5-0.4l-1.1-1.1l-1.1,1.1l0.5,0.4v-0.4l0.5-0.5v1.4L35.8,44l0.6,0.5
								l0.6-0.5L36.6,43.6z"/>
						</g>
						<g transform="matrix(1,0,0,-1,0,331.21644)">
							<g id="carp2q_3_">
								<path class="st3" d="M58.5,41.4c-0.1-0.1-0.3-0.2-0.4-0.2c-0.2,0-0.3,0.1-0.4,0.2c-0.4,0.4-0.4,1-0.4,1.5
									c0,0,0.4-0.4,0.5-0.5c0.1,0.1,0.3,0.5,0.3,0.5s0.2-0.4,0.3-0.5c0.1,0.1,0.5,0.5,0.5,0.5C58.9,42.5,58.9,41.8,58.5,41.4
									L58.5,41.4z"/>
								<path class="st3" d="M54.5,42.5l0.3,0.3v0.6l0.7-0.7l-1.3-1.3L53,42.7l0.7,0.7v-0.6l0.3-0.3v1.1L53.4,44l0.8,0.7L55,44
									l-0.5-0.5L54.5,42.5z"/>
								<path class="st3" d="M50.7,43.7L51,44v0.6l0.7-0.7l-1.3-1.3l-1.3,1.3l0.7,0.7V44l0.3-0.3v1.1l-0.5,0.5l0.8,0.7l0.8-0.7
									l-0.5-0.5V43.7z"/>
								<path class="st1" d="M58.1,42.7c-0.1-0.1-0.3-0.5-0.3-0.5s-0.3,0.3-0.4,0.4c0-0.5,0.1-1,0.3-1.2c0.1-0.1,0.2-0.1,0.3-0.1
									c0.1,0,0.2,0,0.3,0.1c0.2,0.2,0.3,0.6,0.3,1.2c-0.1-0.1-0.4-0.4-0.4-0.4C58.3,42.4,58.2,42.6,58.1,42.7L58.1,42.7z"/>
								<path class="st1" d="M50.3,44.8v-1.4l-0.5,0.5v0.4l-0.5-0.4l1.1-1.1l1.1,1.1l-0.5,0.4v-0.4l-0.5-0.5v1.4l0.5,0.4l-0.6,0.5
									l-0.6-0.5L50.3,44.8z"/>
								<path class="st2" d="M54.1,43.6v-1.4l-0.5,0.5v0.4l-0.5-0.4l1.1-1.1l1.1,1.1l-0.5,0.4v-0.4l-0.5-0.5v1.4l0.5,0.4l-0.6,0.5
									L53.6,44L54.1,43.6z"/>
							</g>
						</g>
						<path class="st3" d="M46.9,43.2l-0.4,0.6l1.1,1l-1,0.8V45l-0.4-0.4v1l0.9,0.7l-1.7,1.2l-1.7-1.2l0.9-0.7v-1L44.2,45v0.6
							l-1-0.8l1.1-1l-0.4-0.6H46.9z"/>
						<path class="st2" d="M44.1,43.3l0.3,0.5l-1,1l0.7,0.6v-0.4l0.6-0.5v1.3l-0.9,0.6l1.5,1.1l1.5-1.1L46,45.7v-1.3l0.6,0.5v0.4
							l0.7-0.6l-1-1l0.3-0.5H44.1z"/>
						<path class="st3" d="M44.6,46.4l0.8-0.6l0.8,0.6l-0.8,0.6l0,0L44.6,46.4z"/>
						<path class="st0" d="M45.4,46.8c0.1,0,0.5-0.4,0.6-0.4c-0.1-0.1-0.5-0.4-0.6-0.4c-0.1,0-0.5,0.4-0.6,0.4
							C44.9,46.4,45.3,46.8,45.4,46.8z"/>
					</g>
					<path class="st3" d="M59,39.1h-1.7v-0.7h-5.2l-3.6-2.4h0h-6.4l-3.6,2.4h-5.2v0.7h-1.7v1.2h1.7V41h5.2l3.6,2.4h6.4l3.6-2.4h5.2
						v-0.7H59V39.1z"/>
					<path class="st2" d="M42.2,36.2l-3.6,2.4h-5.1v0.7h-1.7v1h1.7v0.7h5.1l3.6,2.4h6.4l3.6-2.4h5.1v-0.7h1.7v-1h-1.7v-0.7h-5.1
						l-3.6-2.4H42.2z M42.3,36.5h6.2l3.3,2.2V39h3.7v1.4h-3.7v0.3l-3.3,2.1h-6.2L39,40.7v-0.3h-3.7V39H39v-0.3L42.3,36.5z"/>
					<path class="st2" d="M48.4,36.6l3.2,2.1v0.4h3.7v1.2h-3.7v0.4l-3.2,2.1h-6.1l-3.2-2.1v-0.4h-3.7v-1.2h3.7v-0.4l3.2-2.1H48.4z"
						/>
					<g>
						<path class="st3" d="M40.7,40.9l1.4,1l0.9-0.7l-0.5-0.4l-0.4,0.3l-0.3-0.2L47,37h-1.1L40.7,40.9z M43.7,42.4h1.1l5.2-3.9
							l-1.4-1l-0.9,0.7l0.5,0.4l0.4-0.3l0.3,0.2L43.7,42.4z M45.9,42.4H47l-5.2-3.9l0.3-0.2l0.4,0.3l0.5-0.4l-0.9-0.7l-1.4,1
							L45.9,42.4z M49,40.9l-0.3,0.2l-0.4-0.3l-0.5,0.4l0.9,0.7l1.4-1L44.8,37h-1.1L49,40.9z"/>
						<path class="st3" d="M39.6,39.7l0.9,0.6l0.9-0.6l-0.9-0.6L39.6,39.7z"/>
						<path class="st3" d="M44.4,39.7l0.9,0.6l0.9-0.6l-0.9-0.6L44.4,39.7z"/>
						<path class="st3" d="M51.1,39.7l-0.9,0.6l-0.9-0.6l0.9-0.6L51.1,39.7z"/>
						<path class="st4" d="M49.9,40.9l-1.2,0.9l-0.7-0.6l0.4-0.3l0.4,0.3l0.5-0.4L44,37.1h0.7L49.9,40.9z M46.7,42.3H46l-5.1-3.8
							l1.2-0.9l0.7,0.6l-0.4,0.3l-0.4-0.3l-0.5,0.4L46.7,42.3z M44.8,42.3H44l5.1-3.8l-0.5-0.4l-0.4,0.3l-0.4-0.3l0.7-0.6l1.2,0.9
							L44.8,42.3z M46,37.1h0.7l-5.1,3.8l0.5,0.4l0.4-0.3l0.4,0.3l-0.7,0.6l-1.2-0.9L46,37.1z"/>
						<path class="st0" d="M40.6,39.2l0.7,0.5l-0.7,0.5l-0.7-0.5L40.6,39.2z"/>
						<path class="st0" d="M45.4,39.2l0.7,0.5l-0.7,0.5l-0.7-0.5L45.4,39.2z"/>
						<path class="st0" d="M50.1,39.2l-0.7,0.5l0.7,0.5l0.7-0.5L50.1,39.2z"/>
					</g>
				</g>
				<g id="carp3">
					<g>
						<path class="st3" d="M28.9,65.7l-0.4,0.5l0.7,0.5l-0.7,0.5l0.4,0.5l0.8,0.1l0.7-0.6l1.8,1.2v-1l-1.2-0.7l1.2-0.7v-1l-1.8,1.2
							l-0.7-0.6L28.9,65.7z"/>
						<path class="st3" d="M28.9,62.4l-0.4,0.5l0.7,0.5l-0.7,0.5l0.4,0.5l0.8,0.1l0.7-0.6l1.8,1.2v-1l-1.2-0.7l1.2-0.7v-1l-1.8,1.2
							l-0.7-0.6L28.9,62.4z"/>
						<path class="st3" d="M28.9,71.2l-0.4-0.5l0.7-0.5l-0.7-0.5l0.4-0.5l0.8-0.1l0.7,0.6l1.8-1.2v1l-1.2,0.7l1.2,0.7v1l-1.8-1.2
							l-0.7,0.6L28.9,71.2z"/>
						<path class="st3" d="M61.8,65.7l0.4,0.5l-0.7,0.5l0.7,0.5l-0.4,0.5L61,67.9l-0.7-0.6l-1.8,1.2v-1l1.2-0.7L58.4,66v-1l1.8,1.2
							l0.7-0.6L61.8,65.7z"/>
						<path class="st3" d="M61.8,62.4l0.4,0.5l-0.7,0.5l0.7,0.5l-0.4,0.5L61,64.5l-0.7-0.6l-1.8,1.2v-1l1.2-0.7l-1.2-0.7v-1l1.8,1.2
							l0.7-0.6L61.8,62.4z"/>
						<path class="st3" d="M61.8,71.2l0.4-0.5l-0.7-0.5l0.7-0.5l-0.4-0.5L61,69l-0.7,0.6l-1.8-1.2v1l1.2,0.7l-1.2,0.7v1l1.8-1.2
							l0.7,0.6L61.8,71.2z"/>
						<path class="st3" d="M54.4,56.5v1.4h1v0.6h1v-1.1h-0.9v-0.9H54.4z"/>
						<path class="st3" d="M57.4,58.7v1.4h1v0.6h1v-1.1h-0.9v-0.9H57.4L57.4,58.7z"/>
						<path class="st3" d="M36.3,56.5v1.4h-1v0.6h-1v-1.1h0.9v-0.9H36.3z"/>
						<path class="st3" d="M54.4,77v-1.4h1V75h1v1.1h-0.9V77H54.4z"/>
						<path class="st3" d="M36.3,77v-1.4h-1V75h-1v1.1h0.9V77H36.3z"/>
						<path class="st3" d="M57.4,74.8v-1.4h1v-0.6h1v1.1h-0.9v0.9H57.4L57.4,74.8z"/>
						<path class="st3" d="M33.3,58.7v1.4h-1v0.6h-1v-1.1h0.9v-0.9H33.3L33.3,58.7z"/>
						<path class="st3" d="M33.3,74.8v-1.4h-1v-0.6h-1v1.1h0.9v0.9H33.3L33.3,74.8z"/>
						<path class="st3" d="M49.1,56.5c-0.1-0.1-0.8-0.8-0.8-0.8l-0.8,0.7c0,0,0.6,0.6,0.7,0.6l-0.9,0.8h1.3l0.5-0.4l0.5,0.4h1.3
							L50,57.1c0.1-0.1,0.7-0.6,0.7-0.6l-0.8-0.7C49.7,56,49.4,56.2,49.1,56.5L49.1,56.5z"/>
						<path class="st3" d="M45.4,56.5c-0.1-0.1-0.8-0.8-0.8-0.8l-0.8,0.7c0,0,0.6,0.6,0.7,0.6l-0.9,0.8h1.3l0.5-0.4l0.5,0.4h1.3
							l-0.9-0.8c0.1-0.1,0.7-0.6,0.7-0.6l-0.8-0.7C45.9,56,45.6,56.2,45.4,56.5L45.4,56.5z"/>
						<path class="st3" d="M41.6,56.5c0.1-0.1,0.8-0.8,0.8-0.8l0.8,0.7c0,0-0.6,0.6-0.7,0.6l0.9,0.8H42l-0.5-0.4l-0.5,0.4h-1.3
							l0.9-0.8C40.6,57,40,56.4,40,56.4l0.8-0.7C41.1,56,41.3,56.2,41.6,56.5L41.6,56.5z"/>
						<path class="st3" d="M49.1,77c-0.1,0.1-0.8,0.8-0.8,0.8l-0.8-0.7c0,0,0.6-0.6,0.7-0.6l-0.9-0.8h1.3l0.5,0.4l0.5-0.4h1.3
							L50,76.4c0.1,0.1,0.7,0.6,0.7,0.6l-0.8,0.7C49.7,77.5,49.4,77.3,49.1,77L49.1,77z"/>
						<path class="st3" d="M45.4,77c-0.1,0.1-0.8,0.8-0.8,0.8l-0.8-0.7c0,0,0.6-0.6,0.7-0.6l-0.9-0.8h1.3l0.5,0.4l0.5-0.4h1.3
							l-0.9,0.8c0.1,0.1,0.7,0.6,0.7,0.6l-0.8,0.7C45.9,77.5,45.6,77.3,45.4,77L45.4,77z"/>
						<path class="st3" d="M41.6,77c0.1,0.1,0.8,0.8,0.8,0.8l0.8-0.7c0,0-0.6-0.6-0.7-0.6l0.9-0.8H42L41.6,76l-0.5-0.4h-1.3l0.9,0.8
							c-0.1,0.1-0.7,0.6-0.7,0.6l0.8,0.7C41.1,77.5,41.3,77.3,41.6,77L41.6,77z"/>
					</g>
					<g>
						<path class="st0" d="M32.2,67.6v0.7l-1.7-1.1l-0.8,0.6L29,67.7l-0.3-0.4l0.7-0.5l-0.7-0.5l0.3-0.4l0.7-0.1l0.8,0.6l1.7-1.1V66
							l-1.2,0.8L32.2,67.6z"/>
						<path class="st0" d="M32.2,64.2v0.7l-1.7-1.1l-0.8,0.6L29,64.3l-0.3-0.4l0.7-0.5l-0.7-0.5l0.3-0.4l0.7-0.1l0.8,0.6l1.7-1.1
							v0.7l-1.2,0.8L32.2,64.2z"/>
						<path class="st0" d="M32.2,69.3v-0.7l-1.7,1.1l-0.8-0.6L29,69.2l-0.3,0.4l0.7,0.5l-0.7,0.5l0.3,0.4l0.7,0.1l0.8-0.6l1.7,1.1
							v-0.7l-1.2-0.8L32.2,69.3z"/>
						<path class="st0" d="M58.6,67.6v0.7l1.7-1.1l0.8,0.6l0.7-0.1l0.3-0.4l-0.7-0.5l0.7-0.5l-0.3-0.4l-0.7-0.1l-0.8,0.6l-1.7-1.1
							V66l1.2,0.8L58.6,67.6z"/>
						<path class="st0" d="M58.6,64.2v0.7l1.7-1.1l0.8,0.6l0.7-0.1l0.3-0.4l-0.7-0.5l0.7-0.5l-0.3-0.4l-0.7-0.1L60.3,63l-1.7-1.1
							v0.7l1.2,0.8L58.6,64.2z"/>
						<path class="st0" d="M58.6,69.3v-0.7l1.7,1.1l0.8-0.6l0.7,0.1l0.3,0.4l-0.7,0.5l0.7,0.5l-0.3,0.4l-0.7,0.1l-0.8-0.6l-1.7,1.1
							v-0.7l1.2-0.8L58.6,69.3z"/>
						<path class="st0" d="M55.4,56.6v0.9h0.9v0.9h-0.8v-0.6h-1v-1.2L55.4,56.6L55.4,56.6z"/>
						<path class="st0" d="M58.5,58.8v0.9h0.9v0.9h-0.8V60h-1v-1.2H58.5z"/>
						<path class="st0" d="M35.3,56.6v0.9h-0.9v0.9h0.8v-0.6h1v-1.2L35.3,56.6L35.3,56.6z"/>
						<path class="st0" d="M55.4,76.9V76h0.9v-0.9h-0.8v0.6h-1v1.2L55.4,76.9L55.4,76.9z"/>
						<path class="st0" d="M35.3,76.9V76h-0.9v-0.9h0.8v0.6h1v1.2L35.3,76.9L35.3,76.9z"/>
						<path class="st0" d="M58.5,74.7v-0.9h0.9v-0.9h-0.8v0.6h-1v1.2L58.5,74.7L58.5,74.7z"/>
						<path class="st0" d="M32.3,58.8v0.9h-0.9v0.9h0.8V60h1v-1.2H32.3z"/>
						<path class="st0" d="M32.3,74.7v-0.9h-0.9v-0.9h0.8v0.6h1v1.2L32.3,74.7L32.3,74.7z"/>
						<path class="st0" d="M48.4,55.9c0.1,0.1,0.8,0.8,0.8,0.8s0.7-0.7,0.8-0.8c0.1,0.1,0.5,0.5,0.6,0.6c-0.1,0.1-0.7,0.6-0.7,0.6
							l0.8,0.7h-1l-0.5-0.5l-0.5,0.5h-1l0.8-0.7c0,0-0.6-0.6-0.7-0.6C47.8,56.4,48.3,55.9,48.4,55.9L48.4,55.9z"/>
						<path class="st0" d="M44.6,55.9c0.1,0.1,0.8,0.8,0.8,0.8s0.7-0.7,0.8-0.8c0.1,0.1,0.5,0.5,0.6,0.6c-0.1,0.1-0.7,0.6-0.7,0.6
							l0.8,0.7h-1l-0.5-0.5l-0.5,0.5h-1l0.8-0.7c0,0-0.6-0.6-0.7-0.6C44,56.4,44.5,55.9,44.6,55.9z"/>
						<path class="st0" d="M42.4,55.9c-0.1,0.1-0.8,0.8-0.8,0.8s-0.7-0.7-0.8-0.8c-0.1,0.1-0.5,0.5-0.6,0.6c0.1,0.1,0.7,0.6,0.7,0.6
							l-0.8,0.7h1l0.5-0.5l0.5,0.5h1l-0.8-0.7c0,0,0.6-0.6,0.7-0.6C42.9,56.4,42.4,55.9,42.4,55.9z"/>
						<path class="st0" d="M48.4,77.7c0.1-0.1,0.8-0.8,0.8-0.8s0.7,0.7,0.8,0.8c0.1-0.1,0.5-0.5,0.6-0.6c-0.1-0.1-0.7-0.6-0.7-0.6
							l0.8-0.7h-1l-0.5,0.5l-0.5-0.5h-1l0.8,0.7c0,0-0.6,0.6-0.7,0.6C47.8,77.1,48.3,77.6,48.4,77.7L48.4,77.7z"/>
						<path class="st0" d="M44.6,77.7c0.1-0.1,0.8-0.8,0.8-0.8s0.7,0.7,0.8,0.8c0.1-0.1,0.5-0.5,0.6-0.6c-0.1-0.1-0.7-0.6-0.7-0.6
							l0.8-0.7h-1l-0.5,0.5l-0.5-0.5h-1l0.8,0.7c0,0-0.6,0.6-0.7,0.6C44,77.1,44.5,77.6,44.6,77.7z"/>
						<path class="st0" d="M42.4,77.7c-0.1-0.1-0.8-0.8-0.8-0.8s-0.7,0.7-0.8,0.8c-0.1-0.1-0.5-0.5-0.6-0.6c0.1-0.1,0.7-0.6,0.7-0.6
							l-0.8-0.7h1l0.5,0.5l0.5-0.5h1l-0.8,0.7c0,0,0.6,0.6,0.7,0.6C42.9,77.1,42.4,77.6,42.4,77.7z"/>
					</g>
					<path class="st3" d="M35.2,73.5v2.2h20.4v-2.2h3V60h-3v-2.2H35.2V60h-3v13.4H35.2z"/>
					<path class="st2" d="M35.3,57.9v2.2h-3v13.2h3v2.2h20.1v-2.2h3V60.1h-3v-2.2L35.3,57.9L35.3,57.9z M36.6,58.8h17.6v2.1l0.7,0.5
						h2.7v10.6h-2.7l-0.7,0.5v2.1H36.6v-2.1l-0.7-0.5h-2.7V61.4h2.7l0.7-0.5L36.6,58.8L36.6,58.8z"/>
					<path class="st2" d="M36.7,58.9v2l2.6-2H36.7z M51.4,58.9l2.6,2v-2H51.4z M33.2,61.5v1.8l2.5-1.8H33.2L33.2,61.5z M55,61.5
						l2.5,1.8v-1.8H55z M57.5,70.1L55,72h2.5V70.1z M33.2,70.1V72h2.5L33.2,70.1z M36.7,72.7v1.9h2.6L36.7,72.7z M54,72.7l-2.6,1.9
						H54V72.7z"/>
					<path class="st0" d="M51.2,58.9c0,0,6.2,4.6,6.3,4.6V70c0,0-6.3,4.6-6.3,4.6H39.5c0,0-6.2-4.6-6.3-4.6v-6.5
						c0,0,6.3-4.6,6.3-4.6H51.2L51.2,58.9z"/>
					<path class="st3" d="M34.7,70.7L34,69.9l0.7-0.8L34,68.3l0.7-0.8L34,66.8l0.7-0.8L34,65.2l0.7-0.8L34,63.6l0.7-0.8H56l0.7,0.8
						L56,64.4l0.7,0.8L56,66l0.7,0.8L56,67.5l0.7,0.8L56,69.1l0.7,0.8L56,70.7H34.7z M49.3,59.9l-0.8-0.7l-0.8,0.7l-0.8-0.7
						l-0.8,0.7l-0.8-0.7l-0.8,0.7l-0.8-0.7L43,59.8l-0.8-0.7l-0.8,0.7v13.7l0.8,0.7l0.8-0.7l0.8,0.7l0.8-0.7l0.8,0.7l0.8-0.7
						l0.8,0.7l0.8-0.7l0.8,0.7l0.8-0.7V59.9z"/>
					<g>
						<path class="st4" d="M47.7,59.9l-0.7-0.6l-0.7,0.6v13.6l0.7,0.6l0.7-0.6V59.9z"/>
						<path class="st4" d="M44.5,59.9l-0.7-0.6L43,59.9v13.6l0.7,0.6l0.7-0.6V59.9z"/>
						<path class="st4" d="M34.8,70.6l-0.6-0.7l0.6-0.7H56l0.6,0.7L56,70.6H34.8z"/>
						<path class="st4" d="M56,66l0.6,0.7L56,67.5H34.8l-0.6-0.7l0.6-0.7H56z"/>
						<path class="st4" d="M56,64.3l0.6-0.7L56,62.9H34.8l-0.6,0.7l0.6,0.7H56z"/>
					</g>
					<g>
						<path class="st2" d="M49.2,59.9l-0.7-0.6l-0.7,0.6v13.6l0.7,0.6l0.7-0.6L49.2,59.9z"/>
						<path class="st2" d="M42.9,59.9l-0.7-0.6l-0.7,0.6v13.6l0.7,0.6l0.7-0.6V59.9z"/>
						<path class="st2" d="M34.8,69.1l-0.6-0.7l0.6-0.7H56l0.6,0.7L56,69.1H34.8z"/>
						<path class="st2" d="M34.8,65.9l-0.6-0.7l0.6-0.7H56l0.6,0.7L56,65.9H34.8z"/>
						<path class="st2" d="M46.1,73.6l-0.7,0.6l-0.7-0.6V59.9l0.7-0.6l0.7,0.6V73.6z"/>
					</g>
					<path class="st3" d="M52.5,60.2H38.2v1.1h-1.8v10.8h1.8v1.1h14.3v-1.1h1.8V61.3h-1.8L52.5,60.2L52.5,60.2z"/>
					<path class="st2" d="M38.3,60.3v1.1h-1.8v10.6h1.8v1.1h1.5l-3-2.5v-7.9l3-2.5L38.3,60.3L38.3,60.3z M50.9,60.3l3,2.5v7.9
						l-3,2.5h1.5v-1.1h1.8V61.4h-1.8v-1.1L50.9,60.3L50.9,60.3z"/>
					<g>
						<path class="st0" d="M40,60.3c0,0-3,2.5-3.1,2.6v7.8c0,0,3,2.5,3.1,2.6h10.8c0,0,3-2.5,3-2.6v-7.8c0,0-3-2.5-3-2.6L40,60.3z
							 M40.1,60.7h10.5l2.8,2.3v7.4l-2.8,2.3H40.1l-2.8-2.3v-7.4L40.1,60.7z"/>
						<path class="st0" d="M42.9,70.6l0.5,0.2l0.1,0.5l-0.6,0.5l0.9,0.8h-0.8l-0.6-0.6l-0.6,0.6h-0.8l0.9-0.8l-0.6-0.5l0.1-0.5
							l0.5-0.2l0.6,0.5l0,0L42.9,70.6z"/>
						<path class="st0" d="M46,70.6l0.5,0.2l0.1,0.5l-0.6,0.5l0.9,0.8h-0.8l-0.6-0.6l-0.6,0.6h-0.8l0.9-0.8l-0.6-0.5l0.1-0.5
							l0.5-0.2l0.6,0.5l0,0L46,70.6z"/>
						<path class="st0" d="M47.8,70.6l-0.5,0.2l-0.1,0.5l0.6,0.5L47,72.7h0.8l0.6-0.6l0.6,0.6h0.8L49,71.8l0.6-0.5l-0.1-0.5L49,70.6
							L48.4,71l0,0L47.8,70.6z"/>
						<path class="st0" d="M42.9,63l0.5-0.2l0.1-0.5l-0.6-0.5l0.9-0.8h-0.8l-0.6,0.6l-0.6-0.6h-0.8l0.9,0.8l-0.6,0.5l0.1,0.5
							l0.5,0.2l0.6-0.5l0,0L42.9,63z"/>
						<path class="st0" d="M46,63l0.5-0.2l0.1-0.5l-0.6-0.5l0.9-0.8h-0.8l-0.6,0.6l-0.6-0.6h-0.8l0.9,0.8l-0.6,0.5l0.1,0.5l0.5,0.2
							l0.6-0.5l0,0L46,63z"/>
						<path class="st0" d="M47.8,63l-0.5-0.2l-0.1-0.5l0.6-0.5L47,60.9h0.8l0.6,0.6l0.6-0.6h0.8L49,61.7l0.6,0.5l-0.1,0.5L49,63
							l-0.6-0.5l0,0L47.8,63z"/>
						<path class="st0" d="M53.3,63.8l-0.5,0.4l0.5,0.4v0.6l-0.7-0.6c0,0-0.5,0.4-0.5,0.5c0,0-0.5-0.1-0.6-0.1c0,0-0.2-0.3-0.2-0.4
							c0,0,0.5-0.5,0.5-0.5s-0.4-0.4-0.5-0.5c0-0.1,0.2-0.3,0.2-0.4c0,0,0.5-0.1,0.6-0.1c0,0,0.5,0.5,0.5,0.5l0.7-0.6V63.8z"/>
						<path class="st0" d="M53.3,66.4l-0.5,0.4l0.5,0.4v0.6l-0.7-0.6c0,0-0.5,0.4-0.5,0.5c0,0-0.5-0.1-0.6-0.1c0,0-0.2-0.3-0.2-0.4
							c0,0,0.5-0.5,0.5-0.5s-0.4-0.4-0.5-0.5c0-0.1,0.2-0.3,0.2-0.4c0,0,0.5-0.1,0.6-0.1c0,0,0.5,0.5,0.5,0.5l0.7-0.6V66.4
							L53.3,66.4z"/>
						<path class="st0" d="M53.3,69.7l-0.5-0.4l0.5-0.4v-0.6l-0.7,0.6c0,0-0.5-0.4-0.5-0.5c0,0-0.5,0.1-0.6,0.1c0,0-0.2,0.3-0.2,0.4
							c0,0,0.5,0.5,0.5,0.5s-0.4,0.4-0.5,0.5c0,0.1,0.2,0.3,0.2,0.4c0,0,0.5,0.1,0.6,0.1c0,0,0.5-0.5,0.5-0.5l0.7,0.6V69.7z"/>
						<path class="st0" d="M37.5,63.8l0.5,0.4l-0.5,0.4v0.6l0.7-0.6c0,0,0.5,0.4,0.5,0.5c0,0,0.5-0.1,0.6-0.1c0,0,0.2-0.3,0.2-0.4
							c0,0-0.5-0.5-0.5-0.5s0.4-0.4,0.5-0.5c0-0.1-0.2-0.3-0.2-0.4c0,0-0.5-0.1-0.6-0.1c0,0-0.5,0.5-0.5,0.5l-0.7-0.6V63.8z"/>
						<path class="st0" d="M37.5,66.4l0.5,0.4l-0.5,0.4v0.6l0.7-0.6c0,0,0.5,0.4,0.5,0.5c0,0,0.5-0.1,0.6-0.1c0,0,0.2-0.3,0.2-0.4
							c0,0-0.5-0.5-0.5-0.5s0.4-0.4,0.5-0.5c0-0.1-0.2-0.3-0.2-0.4c0,0-0.5-0.1-0.6-0.1c0,0-0.5,0.5-0.5,0.5l-0.7-0.6V66.4
							L37.5,66.4z"/>
						<path class="st0" d="M37.5,69.7l0.5-0.4l-0.5-0.4v-0.6l0.7,0.6c0,0,0.5-0.4,0.5-0.5c0,0,0.5,0.1,0.6,0.1c0,0,0.2,0.3,0.2,0.4
							c0,0-0.5,0.5-0.5,0.5s0.4,0.4,0.5,0.5c0,0.1-0.2,0.3-0.2,0.4c0,0-0.5,0.1-0.6,0.1c0,0-0.5-0.5-0.5-0.5l-0.7,0.6V69.7z"/>
					</g>
					<path class="st2" d="M40.2,60.8c0,0-2.5,2.1-2.7,2.2c0.2,0.2,0.4,0.4,0.7,0.6c0.1-0.1,0.5-0.4,0.5-0.4l0.6,0.1l0.3,0.5
						c0,0-0.4,0.4-0.5,0.5c0.1,0.1,0.5,0.5,0.5,0.5l-0.3,0.5l-0.6,0.1c0,0-0.4-0.4-0.5-0.4l-0.7,0.6v0.2c0.2,0.2,0.5,0.4,0.7,0.6
						c0.1-0.1,0.5-0.4,0.5-0.4l0.6,0.1l0.3,0.5c0,0-0.4,0.4-0.5,0.5c0.1,0.1,0.5,0.5,0.5,0.5l-0.3,0.5l-0.6,0.1c0,0-0.4-0.4-0.5-0.4
						l-0.7,0.6v0.2l0.7,0.6c0.1-0.1,0.5-0.4,0.5-0.4l0.6,0.1l0.3,0.5c0,0-0.4,0.4-0.5,0.5c0.1,0.1,0.5,0.5,0.5,0.5l-0.3,0.5
						l-0.6,0.1c0,0-0.4-0.4-0.5-0.4c-0.2,0.2-0.4,0.4-0.7,0.6c0.1,0.1,2.6,2.2,2.7,2.2h0.6l0.9-0.8L41,71.4l0.1-0.7l0.6-0.2l0.6,0.5
						l0.6-0.5l0.6,0.2l0.1,0.7L43,71.8l0.8,0.8l0.8-0.8l-0.6-0.5l0.1-0.7l0.6-0.2l0.6,0.5l0.6-0.5l0.6,0.2l0.1,0.7l-0.5,0.5l0.8,0.8
						l0.8-0.8l-0.5-0.5l0.1-0.7l0.6-0.2l0.6,0.5l0.6-0.5l0.6,0.2l0.1,0.7l-0.5,0.5l0.9,0.8h0.6c0,0,2.5-2.1,2.7-2.2
						c-0.2-0.2-0.4-0.4-0.7-0.6c-0.1,0.1-0.5,0.4-0.5,0.4l-0.6-0.1l-0.3-0.5c0,0,0.4-0.4,0.5-0.5c-0.1-0.1-0.5-0.5-0.5-0.5l0.3-0.5
						l0.6-0.1c0,0,0.4,0.4,0.5,0.4l0.7-0.6v-0.2l-0.7-0.6c-0.1,0.1-0.5,0.4-0.5,0.4l-0.6-0.1l-0.3-0.5c0,0,0.4-0.4,0.5-0.5
						c-0.1-0.1-0.5-0.5-0.5-0.5l0.3-0.5l0.6-0.1c0,0,0.4,0.4,0.5,0.4c0.2-0.2,0.5-0.4,0.7-0.6v-0.2l-0.7-0.6
						c-0.1,0.1-0.5,0.4-0.5,0.4l-0.6-0.1l-0.3-0.5c0,0,0.4-0.4,0.5-0.5c-0.1-0.1-0.5-0.5-0.5-0.5l0.3-0.5l0.6-0.1
						c0,0,0.4,0.4,0.5,0.4c0.2-0.2,0.5-0.4,0.7-0.6c-0.1-0.1-2.6-2.2-2.7-2.2H50l-0.9,0.8l0.5,0.5l-0.1,0.7L49,63.1l-0.6-0.5
						l-0.6,0.5l-0.6-0.3l-0.1-0.7l0.5-0.5l-0.8-0.8l-0.8,0.8l0.5,0.5l-0.1,0.7l-0.6,0.3l-0.6-0.5l-0.6,0.5l-0.6-0.3l-0.1-0.7
						l0.6-0.5l-0.8-0.8L43,61.7l0.6,0.5l-0.1,0.7l-0.6,0.3l-0.6-0.5l-0.6,0.5l-0.6-0.3L41,62.2l0.5-0.5l-0.9-0.8L40.2,60.8z
						 M37.5,66.5V67l0.3-0.3L37.5,66.5z"/>
					<g>
						<path class="st1" d="M42.3,72.2l-0.4,0.4h0.9L42.3,72.2z"/>
						<path class="st1" d="M45.4,72.2l-0.4,0.4h0.9L45.4,72.2z"/>
						<path class="st1" d="M48.4,72.2L48,72.7h0.9L48.4,72.2L48.4,72.2z"/>
						<path class="st1" d="M41.8,60.8l0.5,0.4l0.4-0.4H41.8z"/>
						<path class="st1" d="M44.9,60.8l0.4,0.4l0.5-0.4H44.9z"/>
						<path class="st1" d="M48,60.8l0.4,0.4l0.4-0.4H48L48,60.8z"/>
						<path class="st1" d="M53.3,64l-0.3,0.3l0.3,0.2V64z"/>
						<path class="st1" d="M53.3,66.5l-0.3,0.3l0.3,0.3V66.5z"/>
						<path class="st1" d="M53.3,69.1l-0.3,0.3l0.3,0.3V69.1z"/>
						<path class="st1" d="M37.5,63.9v0.5l0.3-0.3L37.5,63.9z"/>
						<path class="st1" d="M37.5,66.5V67l0.3-0.3L37.5,66.5z"/>
						<path class="st1" d="M37.5,69v0.5l0.3-0.3L37.5,69z"/>
					</g>
					<g>
						<path class="st3" d="M48,65.9V65h-0.9v-1h-3.4v1h-0.9v0.9h-1.3v1.7h1.3v0.9h0.9v1h3.4v-1H48v-0.9h1.3v-1.7H48z"/>
						<path class="st4" d="M45.3,64.1v1L43.9,66v0.7h-2.3V66h1.3v-0.9h0.9v-1H45.3z"/>
						<path class="st4" d="M45.4,69.4v-1l1.5-0.8v-0.7h2.3v0.7h-1.3v0.9H47v1H45.4z"/>
						<path class="st1" d="M46.9,66.7V66l-1.5-0.8v-1H47v1h0.9V66h1.3v0.7H46.9z"/>
						<path class="st1" d="M41.6,66.8h2.3v0.7l1.5,0.8v1h-1.5v-1h-0.9v-0.9h-1.3L41.6,66.8z"/>
						<path class="st2" d="M44,66.8v0.7l1.4,0.8v-1.5H44z"/>
						<path class="st0" d="M45.3,65.2L44,66v0.7h1.4V65.2z"/>
						<path class="st2" d="M46.8,66.7V66l-1.4-0.8v1.5H46.8z"/>
						<path class="st0" d="M45.4,68.3l1.4-0.8v-0.7h-1.4V68.3z"/>
					</g>
				</g>
				<g id="carp4">
					<path class="st3" d="M33,84.8v2.8h-2.7v2.6h-2.7v7.3h2.7v2.6H33v2.8h9.7l1.7,1l-0.8,0.5h-3.5l-0.3-0.3H43l-0.9-0.9h-4.5l2,2.1
						h4.2l1.4-0.9l1.4,0.9H51l2-2.1h-4.5l-0.9,0.9h3.1l-0.3,0.3H47l-0.8-0.5l1.7-1h9.7V100h2.7v-2.6h2.7v-7.3h-2.7v-2.6h-2.7v-2.8
						h-9.7l-1.7-1l0.8-0.5h3.5l0.3,0.3h-3.1l0.9,0.9h4.5l-2-2.1h-4.2l-1.4,0.9l-1.4-0.9h-4.2l-2,2.1h4.5l0.9-0.9h-3.1l0.3-0.3h3.5
						l0.8,0.5l-1.7,1H33z"/>
					<path class="st2" d="M47.9,102.7h9.7v-2.8h2.7v-2.6H63v-7.1h-2.7v-2.5h-2.7v-2.8h-9.7l-4-2.4h-4.2l-1.8,1.9h4.2l0.7-0.7h-3.1
						l0.5-0.5h3.6l4.6,2.7h8.3v2.8h2.7v2.6H62v5h-2.7v2.6h-2.7v2.8h-8.3l-4.6,2.7h-3.6l-0.5-0.5h3.1l-0.7-0.7h-4.2l1.8,1.9h4.2
						L47.9,102.7z M42.5,101.7h-8.3v-2.8h-2.7v-2.6h-2.7v-5h2.7v-2.6h2.7V86h8.3l4.6-2.7h3.5l0.5,0.5h-3.1l0.7,0.7h4.2L51,82.5h-4.2
						l-4,2.4h-9.7v2.8h-2.7v2.5h-2.7v7.1h2.7v2.6h2.7v2.8h9.7l4,2.4H51l1.8-1.9h-4.2l-0.7,0.7h3.1l-0.5,0.5H47L42.5,101.7z"/>
					<path class="st4" d="M45.4,84.3l-2.9,1.7h-8.2v2.8h-2.7v2.6h-2.7v4.8h2.7v2.6h2.7v2.8h8.2l2.9,1.7l2.9-1.7h8.2v-2.8h2.7v-2.6
						h2.7v-4.8h-2.7v-2.6h-2.7v-2.8h-8.2L45.4,84.3z M45.4,85l2.7,1.6h7.8v2.8h2.7V92h2.7v3.6h-2.7v2.6h-2.7v2.8h-7.8l-2.7,1.6
						l-2.7-1.6h-7.8v-2.8h-2.7v-2.6h-2.7V92h2.7v-2.5h2.7v-2.8h7.8L45.4,85z"/>
					<path class="st0" d="M55.8,98.1v2.8H48l-2.7,1.6l-2.7-1.6H35v-2.8h-2.7v-2.6h-2.7v-3.4h2.7v-2.6H35v-2.8h7.7h0l2.7-1.6l2.7,1.6
						h7.7v2.8h2.7v2.6h2.7v3.4h-2.7v2.6H55.8z"/>
					<g>
						<path class="st3" d="M36,97.1v2.7h4.2L36,97.1L36,97.1z"/>
						<path class="st3" d="M36,90.6v-2.7h4.2L36,90.6L36,90.6z"/>
						<path class="st3" d="M54.8,97.1v2.7h-4.2L54.8,97.1L54.8,97.1z"/>
						<path class="st3" d="M54.8,90.6v-2.7h-4.2L54.8,90.6L54.8,90.6z"/>
						<path class="st2" d="M36.1,97.2l3.8,2.5h-3.8V97.2z"/>
						<path class="st2" d="M36.1,90.5c0.1-0.1,3.5-2.4,3.8-2.5h-3.8V90.5z"/>
						<path class="st2" d="M54.6,97.2c-0.1,0.1-3.5,2.4-3.8,2.5h3.8V97.2z"/>
						<path class="st2" d="M54.6,90.5c-0.1-0.1-3.5-2.4-3.8-2.5h3.8V90.5z"/>
					</g>
					<g id="carp4y">
						<path class="st3" d="M41.4,93.1v-1.4h-0.5l-2.3-1.4l0,0l-2.2,1.4h-0.5v1.4h-1.1v1.5h1.1V96h0.5l2.3,1.4l2.3-1.4h0.5v-1.4H43
							v-1.5L41.4,93.1z"/>
						<path class="st2" d="M38.6,90.4l2.1,1.3h-4.2L38.6,90.4L38.6,90.4z M40.7,96l-2.1,1.3L36.6,96H40.7L40.7,96z"/>
						<path class="st2" d="M40.2,93.2v1.3h-2.6v-1.3H40.2z"/>
						<g>
							<path class="st4" d="M41.3,94.6v1.3h-2.6v-1.3H41.3z"/>
							<path class="st4" d="M38.6,94.6v1.3H36v-1.3H38.6z"/>
							<path class="st4" d="M42.9,93.2v1.3h-2.6v-1.3H42.9z"/>
							<path class="st4" d="M37.5,93.2v1.3h-2.6v-1.3H37.5z"/>
							<path class="st4" d="M41.3,91.8v1.3h-2.6v-1.3H41.3z"/>
							<path class="st4" d="M38.6,91.8v1.3H36v-1.3H38.6z"/>
						</g>
						<g>
							<path class="st3" d="M36.8,93.5v0.7h-1.2v-0.7H36.8z"/>
							<path class="st3" d="M37.9,92.1v0.7h-1.2v-0.7H37.9z"/>
							<path class="st3" d="M40.6,92.1v0.7h-1.2v-0.7H40.6z"/>
							<path class="st3" d="M39.5,93.5v0.7h-1.2v-0.7H39.5z"/>
							<path class="st3" d="M42.2,93.5v0.7H41v-0.7H42.2z"/>
							<path class="st3" d="M40.6,94.9v0.7h-1.2v-0.7H40.6z"/>
							<path class="st3" d="M37.9,94.9v0.7h-1.2v-0.7H37.9z"/>
						</g>
						<g>
							<path class="st1" d="M36.7,93.6h-0.9v0.5h0.9V93.6z"/>
							<path class="st1" d="M37.8,92.2h-0.9v0.5h0.9V92.2z"/>
							<path class="st1" d="M40.5,92.2h-0.9v0.5h0.9V92.2z"/>
							<path class="st1" d="M39.4,93.6h-0.9v0.5h0.9V93.6z"/>
							<path class="st1" d="M42.1,93.6h-0.9v0.5h0.9V93.6z"/>
							<path class="st1" d="M40.5,95h-0.9v0.5h0.9V95z"/>
							<path class="st1" d="M37.8,95h-0.9v0.5h0.9V95z"/>
						</g>
					</g>
					<g transform="matrix(-1,0,0,1,377.99506,0)">
						<g id="carp4y_1_">
							<path class="st3" d="M49.3,93.1v-1.4h0.5l2.3-1.4l0,0l2.2,1.4h0.5v1.4h1.1v1.5h-1.1V96h-0.5l-2.3,1.4L49.8,96h-0.5v-1.4h-1.6
								v-1.5L49.3,93.1z"/>
							<path class="st2" d="M52.1,90.4L50,91.7h4.2L52.1,90.4L52.1,90.4z M50,96l2.1,1.3l2.1-1.3H50L50,96z"/>
							<path class="st2" d="M50.5,93.2v1.3h2.6v-1.3H50.5z"/>
							<g>
								<path class="st4" d="M49.4,94.6v1.3H52v-1.3H49.4z"/>
								<path class="st4" d="M52.1,94.6v1.3h2.6v-1.3H52.1z"/>
								<path class="st4" d="M47.8,93.2v1.3h2.6v-1.3H47.8z"/>
								<path class="st4" d="M53.2,93.2v1.3h2.6v-1.3H53.2z"/>
								<path class="st4" d="M49.4,91.8v1.3H52v-1.3H49.4z"/>
								<path class="st4" d="M52.1,91.8v1.3h2.6v-1.3H52.1z"/>
							</g>
							<g>
								<path class="st3" d="M53.9,93.5v0.7h1.2v-0.7H53.9z"/>
								<path class="st3" d="M52.8,92.1v0.7H54v-0.7H52.8z"/>
								<path class="st3" d="M50.1,92.1v0.7h1.2v-0.7H50.1z"/>
								<path class="st3" d="M51.2,93.5v0.7h1.2v-0.7H51.2z"/>
								<path class="st3" d="M48.5,93.5v0.7h1.2v-0.7H48.5z"/>
								<path class="st3" d="M50.1,94.9v0.7h1.2v-0.7H50.1z"/>
								<path class="st3" d="M52.8,94.9v0.7H54v-0.7H52.8z"/>
							</g>
							<g>
								<path class="st1" d="M54,93.6H55v0.5H54V93.6z"/>
								<path class="st1" d="M53,92.2h0.9v0.5H53V92.2z"/>
								<path class="st1" d="M50.3,92.2h0.9v0.5h-0.9V92.2z"/>
								<path class="st1" d="M51.3,93.6h0.9v0.5h-0.9V93.6z"/>
								<path class="st1" d="M48.6,93.6h0.9v0.5h-0.9V93.6z"/>
								<path class="st1" d="M50.3,95h0.9v0.5h-0.9V95z"/>
								<path class="st1" d="M53,95h0.9v0.5H53V95z"/>
							</g>
						</g>
					</g>
					<g id="carp4r">
						<path class="st3" d="M48.1,90.8v1.4h-0.5l-2.3,1.4l0,0l-2.2-1.4h-0.5v-1.4h-1.3v-1.5h1.3v-1.4h0.5l2.3-1.4l2.3,1.4h0.5v1.4
							h1.3v1.5H48.1z"/>
						<path class="st4" d="M45.4,93.5l2.1-1.3h-4.2L45.4,93.5L45.4,93.5z M47.4,87.9l-2.1-1.3l-2.1,1.3H47.4L47.4,87.9z"/>
						<g>
							<path class="st2" d="M48,89.3V88h-2.6v1.3H48z"/>
							<path class="st2" d="M45.3,89.3V88h-2.6v1.3H45.3z"/>
							<path class="st2" d="M49.4,90.7v-1.3h-2.6v1.3H49.4z"/>
							<path class="st2" d="M46.7,90.7v-1.3h-2.6v1.3H46.7z"/>
							<path class="st2" d="M44,90.7v-1.3h-2.6v1.3H44z"/>
							<path class="st2" d="M48,92.1v-1.3h-2.6v1.3H48z"/>
							<path class="st2" d="M45.3,92.1v-1.3h-2.6v1.3H45.3z"/>
						</g>
						<g>
							<path class="st3" d="M44.6,88.3V89h-1.2v-0.7H44.6z"/>
							<path class="st3" d="M47.3,88.3V89h-1.2v-0.7H47.3z"/>
							<path class="st3" d="M43.2,89.7v0.7h-1.2v-0.7H43.2z"/>
							<path class="st3" d="M45.9,89.7v0.7h-1.2v-0.7H45.9z"/>
							<path class="st3" d="M48.6,89.7v0.7h-1.2v-0.7H48.6z"/>
							<path class="st3" d="M44.6,91.1v0.7h-1.2v-0.7H44.6z"/>
							<path class="st3" d="M47.3,91.1v0.7h-1.2v-0.7H47.3z"/>
						</g>
						<g>
							<path class="st1" d="M44.5,88.4h-0.9v0.5h0.9V88.4z"/>
							<path class="st1" d="M47.2,88.4h-0.9v0.5h0.9V88.4z"/>
							<path class="st1" d="M43.1,89.8h-0.9v0.5h0.9V89.8z"/>
							<path class="st1" d="M45.8,89.8h-0.9v0.5h0.9V89.8z"/>
							<path class="st1" d="M48.5,89.8h-0.9v0.5h0.9V89.8z"/>
							<path class="st1" d="M44.5,91.2h-0.9v0.5h0.9V91.2z"/>
							<path class="st1" d="M47.2,91.2h-0.9v0.5h0.9V91.2z"/>
						</g>
					</g>
					<g>
						<g id="carp4r_1_">
							<path class="st3" d="M48.1,98.4v1.4h-0.5l-2.3,1.4l0,0l-2.2-1.4h-0.5v-1.4h-1.3v-1.5h1.3v-1.4h0.5l2.3-1.4l2.3,1.4h0.5v1.4
								h1.3v1.5H48.1z"/>
							<path class="st4" d="M45.4,101.1l2.1-1.3h-4.2L45.4,101.1L45.4,101.1z M47.4,95.5l-2.1-1.3l-2.1,1.3H47.4L47.4,95.5z"/>
							<g>
								<path class="st2" d="M48,96.9v-1.3h-2.6v1.3H48z"/>
								<path class="st2" d="M45.3,96.9v-1.3h-2.6v1.3H45.3z"/>
								<path class="st2" d="M49.4,98.3V97h-2.6v1.3H49.4z"/>
								<path class="st2" d="M46.7,98.3V97h-2.6v1.3H46.7z"/>
								<path class="st2" d="M44,98.3V97h-2.6v1.3H44z"/>
								<path class="st2" d="M48,99.7v-1.3h-2.6v1.3H48z"/>
								<path class="st2" d="M45.3,99.7v-1.3h-2.6v1.3H45.3z"/>
							</g>
							<g>
								<path class="st3" d="M44.6,95.9v0.7h-1.2v-0.7H44.6z"/>
								<path class="st3" d="M47.3,95.9v0.7h-1.2v-0.7H47.3z"/>
								<path class="st3" d="M43.2,97.3V98h-1.2v-0.7H43.2z"/>
								<path class="st3" d="M45.9,97.3V98h-1.2v-0.7H45.9z"/>
								<path class="st3" d="M48.6,97.3V98h-1.2v-0.7H48.6z"/>
								<path class="st3" d="M44.6,98.7v0.7h-1.2v-0.7H44.6z"/>
								<path class="st3" d="M47.3,98.7v0.7h-1.2v-0.7H47.3z"/>
							</g>
							<g>
								<path class="st1" d="M44.5,96h-0.9v0.5h0.9V96z"/>
								<path class="st1" d="M47.2,96h-0.9v0.5h0.9V96z"/>
								<path class="st1" d="M43.1,97.4h-0.9v0.5h0.9V97.4z"/>
								<path class="st1" d="M45.8,97.4h-0.9v0.5h0.9V97.4z"/>
								<path class="st1" d="M48.5,97.4h-0.9v0.5h0.9V97.4z"/>
								<path class="st1" d="M44.5,98.8h-0.9v0.5h0.9V98.8z"/>
								<path class="st1" d="M47.2,98.8h-0.9v0.5h0.9V98.8z"/>
							</g>
						</g>
					</g>
				</g>
				<g id="carp5">
					<path class="st3" d="M30.6,115l10.1-5.4h0H50l10.1,5.4v8.9L50,129.4h-9.2l-10.1-5.4L30.6,115z"/>
					<path class="st0" d="M40.8,109.7l-10,5.4v8.8l10,5.4H50l10-5.4v-8.8l-10-5.4H40.8z M40.9,110.4h8.8l9.5,5.1v8l-9.5,5.1h-8.8
						l-9.5-5.1v-8L40.9,110.4z"/>
					<path class="st4" d="M45.4,119.4v9h4.3l9.4-5.1v-3.9l-13.8,0v-9H41l-9.4,5.1v3.9L45.4,119.4z"/>
					<path class="st1" d="M45.3,119.4v9H41l-9.4-5.1v-3.9l13.8,0v-9h4.3l9.4,5.1v3.9L45.3,119.4z"/>
					<path class="st3" d="M46.2,127.9v-2.6l-0.8,0.5l-0.8-0.5v2.6h-2.6l1.8-1.3v-1.9l-2.7-1.7h-1.9v-7.2H41l2.7-1.7v-1.9l-1.8-1.3
						H42h2.5v2.6l0.8-0.5l0.8,0.5V111h2.6l-1.8,1.3v1.9l2.7,1.7h1.9v7.2h-1.9l-2.7,1.7v1.9l1.8,1.3H46.2z"/>
					<path class="st4" d="M46.3,111.1v2.7l-0.9-0.6v0.8l4.1,2.6h1.4v2.8h0.6V116h-1.8l-2.8-1.8v-2l1.6-1.1H46.3z M39.2,119.5v3.5H41
						l2.8,1.8v2l-1.6,1.1h2.2v-2.7l0.9,0.6v-0.8l-4.1-2.6h-1.3v-2.8L39.2,119.5L39.2,119.5z"/>
					<path class="st1" d="M42.2,111.1l1.6,1.1v2L41,116h-1.8v3.5h0.6v-2.8h1.3l4.1-2.6v-0.8l-0.9,0.6v-2.7L42.2,111.1L42.2,111.1z
						 M50.9,119.5v2.8h-1.4l-4.1,2.6v0.8l0.9-0.6v2.7h2.2l-1.6-1.1v-2l2.8-1.8h1.8v-3.5L50.9,119.5L50.9,119.5z"/>
					<path class="st2" d="M39.9,122.2h1.3l4.2,2.6l4.2-2.6h1.3v-5.5h-1.3h0l-4.2-2.6l-4.2,2.6h-1.3L39.9,122.2z"/>
					<path class="st3" d="M48.2,120.8h0.9v-0.4h-0.7v-0.8h1.4v1.9h-1.4l0,1.3h-2.8V121h1.2v0.8h-0.5v0.4h1.3v-0.7l-5.3-3.2h-0.9v0.4
						h0.7v0.8h-1.4v-1.9h1.4v-1.3h0.1H45v1.9h-1.2v-0.8h0.5v-0.4H43v0.7L48.2,120.8z M47.8,117.6v-0.7h-1.3v0.4h0.5v0.8h-1.2v-1.9
						h2.8v1.3h1.4v1.9h-1.4v-0.8h0.7v-0.4h-0.9l-5.3,3.2v0.7h1.3v-0.4h-0.5V121H45v1.9h-2.8v-1.3h-1.4v-1.9h1.4v0.8h-0.7v0.4h0.9
						L47.8,117.6z"/>
					<path class="st1" d="M47.9,121.3v0.9h-1.5v-0.6h0.5v-0.6h-1v1.7h2.6v-1.3h1.4v-1.7h-1.2v0.6h0.7v0.6h-1l-5.3-3.3v-0.9h1.5v0.6
						h-0.5v0.6h1v-1.7h-2.6v1.3h-1.4v1.7h1.2v-0.6h-0.7v-0.6h1L47.9,121.3z M48.2,118.1h1v0.6h-0.7v0.6h1.2v-1.7h-1.4v-1.3h-2.6v1.7
						h1v-0.6h-0.5v-0.6h1.5v0.9l-5.3,3.3h-1v-0.6h0.7v-0.6h-1.2v1.7h1.4v1.3h2.6v-1.7h-1v0.6h0.5v0.6h-1.5v-0.9L48.2,118.1z"/>
					<g>
						<path class="st3" d="M57.1,119.9v2.8h-1.2v-1h-1.2v1h-1.2v-2.8h1.2v1h1.2v-1H57.1z"/>
						<path class="st3" d="M52.8,123.7v2.8h-1.2v-1h-1.2v1h-1.2v-2.8h1.2v1h1.2v-1H52.8z"/>
						<path class="st3" d="M57.1,119v-2.8h-1.2v1h-1.2v-1h-1.2v2.8h1.2v-1h1.2v1H57.1z"/>
						<path class="st3" d="M33.6,119.9v2.8h1.2v-1H36v1h1.2v-2.8H36v1h-1.2v-1H33.6z"/>
						<path class="st3" d="M33.6,119v-2.8h1.2v1H36v-1h1.2v2.8H36v-1h-1.2v1H33.6z"/>
						<path class="st3" d="M52.8,115.3v-2.8h-1.2v1h-1.2v-1h-1.2v2.8h1.2v-1h1.2v1H52.8z"/>
						<path class="st3" d="M37.9,123.7v2.8h1.2v-1h1.2v1h1.2v-2.8h-1.2v1h-1.2v-1H37.9z"/>
						<path class="st3" d="M37.9,115.3v-2.8h1.2v1h1.2v-1h1.2v2.8h-1.2v-1h-1.2v1H37.9z"/>
						<path class="st3" d="M53.5,113.3v2.1h4L53.5,113.3z"/>
						<path class="st3" d="M37.2,125.6v-2.1h-4L37.2,125.6z"/>
						<path class="st3" d="M37.2,113.3v2.1h-4L37.2,113.3z"/>
						<path class="st3" d="M53.5,125.6v-2.1h4L53.5,125.6z"/>
					</g>
					<g>
						<path class="st2" d="M56,121.6v1h1V120h-1v1h-1.4v-1h-1v2.6h1v-1H56z"/>
						<path class="st2" d="M51.7,125.4v1h1v-2.6h-1v1h-1.4v-1h-1v2.6h1v-1H51.7z"/>
						<path class="st2" d="M56,117.3v-1h1v2.6h-1v-1h-1.4v1h-1v-2.6h1v1H56z"/>
						<path class="st2" d="M34.7,121.6v1h-1V120h1v1h1.4v-1h1v2.6h-1v-1H34.7z"/>
						<path class="st2" d="M34.7,117.3v-1h-1v2.6h1v-1h1.4v1h1v-2.6h-1v1H34.7z"/>
						<path class="st2" d="M51.7,113.5v-1h1v2.6h-1v-1h-1.4v1h-1v-2.6h1v1H51.7z"/>
						<path class="st2" d="M39,125.4v1h-1v-2.6h1v1h1.4v-1h1v2.6h-1v-1H39z"/>
						<path class="st2" d="M39,113.5v-1h-1v2.6h1v-1h1.4v1h1v-2.6h-1v1H39z"/>
					</g>
					<path class="st4" d="M53.7,113.5v1.9h3.5L53.7,113.5z M33.6,123.6l3.5,1.9v-1.9H33.6L33.6,123.6z"/>
					<path class="st1" d="M37.1,113.5l-3.5,1.9h3.5V113.5z M53.7,123.6v1.9l3.5-1.9H53.7z"/>
				</g>
			</g>
		</g>
	</g>
</g>
</svg>
