<?xml version="1.0" encoding="utf-8"?>
<!-- Generator: Adobe Illustrator 22.1.0, SVG Export Plug-In . SVG Version: 6.00 Build 0)  -->
<svg version="1.1" id="layer_1" xmlns="http://www.w3.org/2000/svg" xmlns:xlink="http://www.w3.org/1999/xlink" x="0px" y="0px"
	 viewBox="0 0 216 144" style="enable-background:new 0 0 216 144;" xml:space="preserve">
<style type="text/css">
	.st0{fill:#D14A48;}
	.st1{fill:#FFFFFF;}
</style>
<rect x="0.5" y="0.5" class="st0" width="216" height="144"/>
<ellipse transform="matrix(0.9874 -0.1584 0.1584 0.9874 -10.1144 18.1021)" class="st1" cx="108.5" cy="72.5" rx="36" ry="36"/>
<polygon class="st0" points="113.2,57.3 112.8,68.7 101.6,71.9 112.5,75.9 112,87.4 119.1,78.3 129.9,82.4 123.5,72.7 130.7,63.8 
	119.6,66.9 "/>
<path class="st0" d="M119.1,94c-0.5,0-1.1,0.1-1.6,0.1C105.6,94,96,84.4,96,72.5c0-11.9,9.6-21.5,21.5-21.5c0.5,0,1,0,1.6,0.1
	c-3.2-1.6-6.8-2.4-10.6-2.4c-13.2,0-23.9,10.7-23.9,23.9c0,13.2,10.7,23.9,23.9,23.9C112.4,96.4,115.9,95.6,119.1,94z"/>
</svg>
