<?xml version="1.0" encoding="utf-8"?>
<!-- Generator: Adobe Illustrator 22.1.0, SVG Export Plug-In . SVG Version: 6.00 Build 0)  -->
<svg version="1.1" id="layer_1" xmlns="http://www.w3.org/2000/svg" xmlns:xlink="http://www.w3.org/1999/xlink" x="0px" y="0px"
	 viewBox="0 0 216 144" style="enable-background:new 0 0 216 144;" xml:space="preserve">
<style type="text/css">
	.st0{fill:#FE0000;}
	.st1{fill:#000095;}
	.st2{fill:#FFFFFF;}
</style>
<rect class="st0" width="216" height="144"/>
<rect class="st1" width="108" height="72"/>
<g transform="rotate(30)">
	<path id="four_rays_1_" class="st2" d="M60.2,39.6L40.5,59.4l7.3-27l19.7-19.8 M50.4,42.2l27,7.3L57.6,29.8l-27-7.3"/>
</g>
<g transform="rotate(60)">
	<path id="four_rays_2_" class="st2" d="M57.6,42.2l-27,7.3l19.8-19.7l27-7.3 M47.8,39.6l19.7,19.8l-7.3-27L40.5,12.6"/>
</g>
<g transform="rotate(60)">
	<path id="four_rays_3_" class="st2" d="M53.8,43.2L27,35.4l27.2-6.6L81,36.6 M46.8,35.8L53.4,63l7.8-26.8L54.6,9"/>
</g>
<circle class="st1" cx="54" cy="36" r="15.3"/>
<circle class="st2" cx="54" cy="36" r="13.5"/>
</svg>
