<?xml version="1.0" encoding="utf-8"?>
<!-- Generator: Adobe Illustrator 22.1.0, SVG Export Plug-In . SVG Version: 6.00 Build 0)  -->
<svg version="1.1" id="layer_1" xmlns="http://www.w3.org/2000/svg" xmlns:xlink="http://www.w3.org/1999/xlink" x="0px" y="0px"
	 viewBox="0 0 216 144" style="enable-background:new 0 0 216 144;" xml:space="preserve">
<style type="text/css">
	.st0{fill:#ED1C24;stroke:#000000;stroke-width:0.25;}
	.st1{fill:#3790B4;stroke:#000000;stroke-width:0.25;}
	.st2{fill:#FFFFFF;stroke:#000000;stroke-width:0.25;}
	.st3{fill:#39B54A;stroke:#000000;stroke-width:0.25;}
	.st4{fill:#FFFFFF;}
</style>
<rect x="0.5" y="46.6" class="st0" width="215.5" height="51.9"/>
<rect x="0.5" y="0.5" class="st1" width="215.5" height="46.1"/>
<rect x="0.5" y="49.5" class="st2" width="215.5" height="46.1"/>
<rect x="0.5" y="98.4" class="st3" width="215.5" height="46.1"/>
<g>
	<path class="st4" d="M30.2,23.5c0,7.5,5.2,13.6,11.6,13.6c0.9,0,1.8-0.1,2.7-0.4c-2.6,2.5-5.8,4-9.5,4c-8.1,0-14.8-7.7-14.8-17.2
		C20.3,14,26.9,6.4,35,6.4c3.6,0,6.9,1.5,9.5,4c-0.9-0.2-1.8-0.4-2.7-0.4C35.4,10,30.2,16,30.2,23.5z"/>
</g>
<g>
	<polygon class="st4" points="91.5,34.2 90.8,36.7 88.5,36.7 90.4,38.3 89.7,40.8 91.5,39.2 93.4,40.8 92.7,38.3 94.5,36.7 
		92.2,36.7 	"/>
	<polygon class="st4" points="81.6,34.2 82.3,36.7 84.6,36.7 82.7,38.3 83.4,40.8 81.6,39.2 79.8,40.8 80.5,38.3 78.6,36.7 
		80.9,36.7 	"/>
	<polygon class="st4" points="71.7,34.2 72.4,36.7 74.6,36.7 72.8,38.3 73.5,40.8 71.7,39.2 69.8,40.8 70.5,38.3 68.7,36.7 71,36.7 
			"/>
	<polygon class="st4" points="61.7,34.2 62.4,36.7 64.7,36.7 62.8,38.3 63.6,40.8 61.7,39.2 59.9,40.8 60.6,38.3 58.7,36.7 61,36.7 
			"/>
	<polygon class="st4" points="51.8,34.2 51.1,36.7 48.8,36.7 50.7,38.3 49.9,40.8 51.8,39.2 53.6,40.8 52.9,38.3 54.8,36.7 
		52.5,36.7 	"/>
	<polygon class="st4" points="91.5,6.2 90.8,8.7 88.5,8.7 90.4,10.3 89.7,12.8 91.5,11.3 93.4,12.8 92.7,10.3 94.5,8.8 92.2,8.8 	
		"/>
	<polygon class="st4" points="81.6,6.2 82.3,8.8 84.6,8.8 82.7,10.3 83.4,12.8 81.6,11.3 79.8,12.8 80.5,10.3 78.6,8.7 80.9,8.7 	
		"/>
	<polygon class="st4" points="71.7,6.2 72.4,8.8 74.6,8.8 72.8,10.3 73.5,12.8 71.7,11.3 69.8,12.8 70.5,10.3 68.7,8.7 71,8.7 	"/>
	<polygon class="st4" points="91.5,20.2 90.8,22.7 88.5,22.7 90.4,24.3 89.7,26.8 91.5,25.2 93.4,26.8 92.7,24.3 94.5,22.7 
		92.2,22.7 	"/>
	<polygon class="st4" points="81.6,20.2 82.3,22.7 84.6,22.7 82.7,24.3 83.4,26.8 81.6,25.2 79.8,26.8 80.5,24.3 78.6,22.7 
		80.9,22.7 	"/>
	<polygon class="st4" points="71.7,20.2 72.4,22.7 74.6,22.7 72.8,24.3 73.5,26.8 71.7,25.2 69.8,26.8 70.5,24.3 68.7,22.7 71,22.7 
			"/>
	<polygon class="st4" points="61.7,20.2 62.4,22.7 64.7,22.7 62.8,24.3 63.6,26.8 61.7,25.2 59.9,26.8 60.6,24.3 58.7,22.7 61,22.7 
			"/>
</g>
</svg>
