<svg xmlns="http://www.w3.org/2000/svg" width="800" height="800" version="1"><circle cx="400" cy="400" r="384" fill="none" stroke-miterlimit="10" stroke-width="22"/><path d="M471 156c-32 0-60 27-60 60 0 30 20 50 50 50 33 0 62-25 62-59 0-31-22-51-52-51zm15 363c-10 0-51 63-73 63-6 0-9-5-9-10 0-12 8-31 13-42l53-145c27-73-7-92-39-92-43 0-82 22-111 50-10 10-43 41-43 54 0 5 5 10 10 10 13 0 49-65 76-65 6 0 13 7 8 20l-52 131c-5 13-30 74-30 110 0 28 18 41 45 41 75 0 161-92 161-114 0-7-5-11-9-11z"/></svg>