<svg xmlns="http://www.w3.org/2000/svg" width="800" height="800"><g clip-rule="evenodd"><path fill="none" d="M-3.6-3.6H800V800H-3.6V-3.6zm787.3 401.5l-.8-1a712 712 0 0 0-90.3-84 642.5 642.5 0 0 0-104-66.4 466.1 466.1 0 0 0-119-42.1 394.7 394.7 0 0 0-51.8-6.7 381.8 381.8 0 0 0-96.7 7.7c-29 6.2-57 15.4-84.2 27.2a620.5 620.5 0 0 0-138.3 84 709.9 709.9 0 0 0-85.2 79.9l-1.1 1.5.5.7a707 707 0 0 0 91.4 85c32.4 25 66.5 47.2 103 65.7a453.1 453.1 0 0 0 136.2 45 333.6 333.6 0 0 0 78.8 3.3 367 367 0 0 0 69.8-11.4c34.8-9 68-22 99.9-38.5a681.3 681.3 0 0 0 191-149l.8-.9z"/><path fill-rule="evenodd" d="M783.7 398l-.7.8a681.3 681.3 0 0 1-191.1 149 473.2 473.2 0 0 1-99.9 38.5 367 367 0 0 1-148.6 8.1c-48-7.3-93-23.2-136.2-45a642.1 642.1 0 0 1-103-65.7c-33-25.6-63.3-54-91.4-85l-.5-.7 1.1-1.5a710 710 0 0 1 85.2-80A620.5 620.5 0 0 1 237 232.7c27.2-11.8 55.2-21 84.2-27.1a381.5 381.5 0 0 1 96.7-7.7c17.4 1 34.6 3.2 51.7 6.6a466 466 0 0 1 119.2 42 642.4 642.4 0 0 1 104 66.6 712 712 0 0 1 90.2 84l.8 1zM397.2 247.3c-22.2.1-44.9 2.6-67.2 7.5a402 402 0 0 0-80.8 27.2 6.4 6.4 0 0 0-2.9 2.2 174.8 174.8 0 0 0-23.8 81.4c-1 23.6 2.5 46.5 10.9 68.6a173 173 0 0 0 79.3 92c35.1 19.8 73 26 112.6 20 22-3.2 42.8-10.8 61.9-22.2a174 174 0 0 0 69.8-76.8 173 173 0 0 0 15.2-96.7c-3-23.5-10.5-45.5-22.5-66a6.7 6.7 0 0 0-2.5-2.2 402.6 402.6 0 0 0-55.2-20.8c-30.7-9-62-14-94.8-14.2zm-219.3 73.9A655.8 655.8 0 0 0 81.7 398c37.6 36 78.4 67.2 123.9 93.5a228 228 0 0 1-27.7-170.2zm413 169.7c45-25.8 85.7-57.1 123.3-93a657.3 657.3 0 0 0-96.1-76.7 229 229 0 0 1-27.3 169.7z"/><path fill="none" d="M397.2 247.4c32.7.1 64 5.1 94.8 14.2 19 5.6 37.4 12.5 55.2 20.8 1 .5 2 1.3 2.5 2.3 12 20.4 19.5 42.4 22.5 66 4.2 33.6-.8 66-15.2 96.6a174 174 0 0 1-69.8 76.8 168.2 168.2 0 0 1-61.9 22.2c-39.7 6-77.5-.2-112.6-20a173 173 0 0 1-79.3-92c-8.4-22-12-45-10.9-68.6a174.7 174.7 0 0 1 23.8-81.4c.6-1 1.8-1.7 2.9-2.2a402 402 0 0 1 80.8-27.2c22.3-4.9 45-7.4 67.2-7.5zm.7 200.7a75.5 75.5 0 0 0 75.3-75 75.3 75.3 0 0 0-150.5-.5 75.5 75.5 0 0 0 75.2 75.5zm-220-126.8a228 228 0 0 0 27.7 170.2A644.5 644.5 0 0 1 81.7 398a658.1 658.1 0 0 1 96.2-76.7zM590.8 491a228.8 228.8 0 0 0 27.3-169.7c34.5 22.6 66.2 48 96 76.6a630.3 630.3 0 0 1-123.3 93z"/><path fill-rule="evenodd" d="M397.9 448.1a75.4 75.4 0 0 1 .1-150.5 75.5 75.5 0 0 1 75.2 75.4 75.5 75.5 0 0 1-75.3 75.1z"/></g></svg>