<?xml version="1.0" encoding="utf-8"?>
<!-- Generator: Adobe Illustrator 22.1.0, SVG Export Plug-In . SVG Version: 6.00 Build 0)  -->
<svg version="1.1" id="layer_1" xmlns="http://www.w3.org/2000/svg" xmlns:xlink="http://www.w3.org/1999/xlink" x="0px" y="0px"
	 viewBox="0 0 216 108" style="enable-background:new 0 0 216 108;" xml:space="preserve">
<style type="text/css">
	.st0{fill:#2E3E6B;}
	.st1{fill:#FFFFFF;stroke:#000000;stroke-width:0.25;}
	.st2{fill:#C4524E;stroke:#000000;stroke-width:0.25;stroke-linejoin:bevel;}
	.st3{fill:#C4524E;stroke:#000000;stroke-width:0.25;}
	.st4{fill:#FFFFFF;}
</style>
<g>
	<rect x="0.5" y="0.5" class="st0" width="216" height="108"/>
	<path class="st0" d="M108.5,54.5"/>
</g>
<polygon class="st1" points="0.5,18.5 23.3,18.5 0.5,7.1 0.5,0.5 13.5,0.5 45.4,16.4 45.4,0.5 63.3,0.5 63.3,16.4 95.2,0.5 
	108.3,0.5 108.3,7.1 85.5,18.5 108.3,18.5 108.3,36.5 85.5,36.5 108.3,47.9 108.3,54.5 95.2,54.5 63.3,38.6 63.3,54.5 45.4,54.5 
	45.4,38.6 13.5,54.5 0.5,54.5 0.5,47.9 23.3,36.5 0.5,36.5 "/>
<g>
	<polygon class="st2" points="99.9,0.5 63.9,18.5 72.5,18.5 108.3,0.5 	"/>
	<polygon class="st2" points="108.3,54.5 72.5,36.5 81.1,36.5 108.3,50.2 	"/>
	<polygon class="st2" points="36.6,18.5 0.5,0.5 0.5,4.8 27.9,18.5 	"/>
	<polygon class="st2" points="36.5,36.5 0.5,54.5 9.1,54.5 45.1,36.5 	"/>
	<polygon class="st3" points="0.5,22.2 49.2,22.2 49.2,0.5 59.8,0.5 59.8,22.2 108.3,22.2 108.3,32.8 59.8,32.8 59.8,54.5 
		49.2,54.5 49.2,32.8 0.5,32.8 	"/>
</g>
<g>
	<polygon class="st4" points="57.6,75 67.2,71.4 61.6,79.8 70.2,85 60.2,85.9 61.6,95.9 54.5,88.6 47.5,95.9 48.8,85.9 38.8,85 
		47.4,79.8 41.9,71.4 51.4,75 54.5,65.3 	"/>
	<polygon class="st4" points="164,15.4 168.5,13.7 165.8,17.7 169.9,20.1 165.1,20.6 165.8,25.3 162.5,21.8 159.1,25.3 159.8,20.6 
		155,20.1 159.1,17.7 156.5,13.7 161,15.4 162.5,10.8 	"/>
	<polygon class="st4" points="164,87.4 168.5,85.7 165.8,89.7 169.9,92.1 165.1,92.6 165.8,97.3 162.5,93.8 159.1,97.3 159.8,92.6 
		155,92.1 159.1,89.7 156.5,85.7 161,87.4 162.5,82.8 	"/>
	<polygon class="st4" points="187.9,37.4 192.5,35.7 189.8,39.7 193.9,42.2 189.1,42.6 189.8,47.4 186.5,43.9 183.1,47.4 
		183.8,42.6 179,42.2 183.1,39.7 180.5,35.7 185,37.4 186.5,32.8 	"/>
	<polygon class="st4" points="137,44.6 141.5,42.9 138.8,46.9 142.9,49.4 138.1,49.8 138.8,54.6 135.5,51.1 132.1,54.6 132.8,49.8 
		128,49.4 132.1,46.9 129.5,42.9 134,44.6 135.5,40 	"/>
	<polygon class="st4" points="173.3,54.3 172.2,57.5 168.8,57.6 171.6,59.6 170.5,62.8 173.3,60.8 176.1,62.8 175,59.5 177.8,57.5 
		174.3,57.6 	"/>
</g>
</svg>
