<?xml version="1.0" encoding="utf-8"?>
<!-- Generator: Adobe Illustrator 22.1.0, SVG Export Plug-In . SVG Version: 6.00 Build 0)  -->
<svg version="1.1" id="layer_1" xmlns="http://www.w3.org/2000/svg" xmlns:xlink="http://www.w3.org/1999/xlink" x="0px" y="0px"
	 viewBox="0 0 216 144" style="enable-background:new 0 0 216 144;" xml:space="preserve">
<style type="text/css">
	.st0{fill:#3790B3;}
	.st1{fill:#73B567;}
	.st2{fill:#D24D5C;}
	.st3{fill:#FFFFFF;}
</style>
<rect x="0.5" y="0.5" class="st0" width="216" height="48"/>
<rect x="0.5" y="96.5" class="st1" width="216" height="48"/>
<rect x="0.5" y="48.5" class="st2" width="216" height="48"/>
<g>
	<polygon class="st3" points="124.3,60.5 126.6,67 132.8,64 129.9,70.2 136.3,72.5 129.9,74.7 132.8,81 126.7,78 124.3,84.5 122,78 
		115.9,81 118.8,74.7 112.4,72.5 118.8,70.2 115.9,64 122.1,67 	"/>
</g>
<g>
	<path class="st3" d="M78.7,72.5c0,11.9,9.7,21.6,21.6,21.6c7,0,13.2-3.3,17.1-8.5c-3.2,3-7.5,4.8-12.2,4.8c-9.9,0-17.9-8-17.9-17.9
		c0-9.9,8-17.9,17.9-17.9c4.7,0,9,1.8,12.2,4.8c-3.9-5.1-10.1-8.5-17.1-8.5C88.4,50.9,78.7,60.6,78.7,72.5z"/>
</g>
</svg>
