<?xml version="1.0" encoding="utf-8"?>
<!-- Generator: Adobe Illustrator 22.1.0, SVG Export Plug-In . SVG Version: 6.00 Build 0)  -->
<svg version="1.1" id="layer_1" xmlns="http://www.w3.org/2000/svg" xmlns:xlink="http://www.w3.org/1999/xlink" x="0px" y="0px"
	 viewBox="0 0 216 144" style="enable-background:new 0 0 216 144;" xml:space="preserve">
<style type="text/css">
	.st0{fill:#002395;}
	.st1{fill:#FECB00;}
	.st2{fill:#FFFFFF;}
</style>
<g>
	<polygon class="st0" points="0,0.3 11.8,0.3 216,0.3 216,144.3 0,144.3 	"/>
	<path class="st1" d="M42.9,0.3h144v144L42.9,0.3z"/>
	<g id="g">
		<g>
			<path id="s_1_" class="st2" d="M26.9,27.7L35,3l8,24.7L22,12.5h26L26.9,27.7z"/>
		</g>
		<g>
			<path id="s_9_" class="st2" d="M44.9,45.3l8-24.7l8,24.7L40,30h26L44.9,45.3z"/>
		</g>
	</g>
	<g>
		<g id="g_1_">
			<path id="s_3_" class="st2" d="M62.9,63.7L71,39l8,24.7L58,48.5h26L62.9,63.7z"/>
			<g>
				<path id="s_5_" class="st2" d="M98.9,99.7l8-24.7l8,24.7L94,84.4h26L98.9,99.7z"/>
			</g>
		</g>
		<g>
			<g id="g_2_">
				<path id="s_6_" class="st2" d="M116.9,117.7l8-24.7l8,24.7l-21.1-15.3h26L116.9,117.7z"/>
				<g>
					<path id="s_8_" class="st2" d="M156,144.3l5-15.3l5,15.3l-10.1-0.1l-7.9-5.7h26l-8,5.8L156,144.3z"/>
				</g>
			</g>
		</g>
	</g>
</g>
<g>
	<path id="s_2_" class="st2" d="M80.9,81.3l8-24.7l8,24.7L76,66h26L80.9,81.3z"/>
</g>
<g>
	<path id="s_4_" class="st2" d="M134.9,135.3l8-24.7l8,24.7L130,120h26L134.9,135.3z"/>
</g>
<g>
	<path id="s_7_" class="st2" d="M8.9,9.3l2.9-9l10.2,0l2.9,9l-8-5.8l4.4-3.2L8.9,9.3z"/>
</g>
</svg>
