<?xml version="1.0" encoding="utf-8"?>
<!-- Generator: Adobe Illustrator 22.1.0, SVG Export Plug-In . SVG Version: 6.00 Build 0)  -->
<svg version="1.1" id="layer_1" xmlns="http://www.w3.org/2000/svg" xmlns:xlink="http://www.w3.org/1999/xlink" x="0px" y="0px"
	 viewBox="0 0 216 144" style="enable-background:new 0 0 216 144;" xml:space="preserve">
<style type="text/css">
	.st0{fill:#D14A48;}
	.st1{fill:#FBDF64;stroke:#000000;stroke-width:0.125;}
</style>
<g>
	<rect x="-0.3" y="-0.3" class="st0" width="216" height="144"/>
	<path class="st0" d="M107.8,71.8"/>
</g>
<g>
	<polygon class="st1" points="36.8,14.5 32,29.2 16.4,29.2 29.1,38.3 24.2,53 36.8,43.9 49.3,53 44.5,38.2 57.1,29.2 41.5,29.2 	"/>
	<polygon class="st1" points="67.4,9.5 70,14 66.6,17.9 71.7,16.8 74.3,21.3 74.8,16.1 79.9,14.9 75.1,12.8 75.6,7.7 72.2,11.6 	"/>
	<polygon class="st1" points="84.1,22.1 84.9,27.2 80.1,29.5 85.3,30.4 86,35.6 88.4,31 93.6,31.9 89.9,28.1 92.4,23.5 87.7,25.8 	
		"/>
	<polygon class="st1" points="80.4,48.2 84.7,51.1 83.2,56.2 87.4,53 91.6,55.9 89.9,51 94,47.9 88.8,48 87.1,43.1 85.6,48.1 	"/>
	<polygon class="st1" points="67.2,60 70,64.4 66.7,68.4 71.8,67.1 74.6,71.4 74.9,66.2 79.9,64.9 75,63 75.3,57.8 72.1,61.9 	"/>
</g>
</svg>
