<?xml version="1.0" encoding="utf-8"?>
<!-- Generator: Adobe Illustrator 22.1.0, SVG Export Plug-In . SVG Version: 6.00 Build 0)  -->
<svg version="1.1" id="layer_1" xmlns="http://www.w3.org/2000/svg" xmlns:xlink="http://www.w3.org/1999/xlink" x="0px" y="0px"
	 viewBox="0 0 216 144" style="enable-background:new 0 0 216 144;" xml:space="preserve">
<style type="text/css">
	.st0{fill:#FFFFFF;stroke:#000000;stroke-width:0.25;}
	.st1{fill:#EBB058;stroke:#000000;stroke-width:0.125;}
	.st2{fill:#397C49;stroke:#000000;stroke-width:0.125;}
</style>
<g>
	<g>
		<rect y="0.5" class="st0" width="216" height="144"/>
		<path class="st0" d="M108,72.5"/>
	</g>
	<g>
		<path class="st1" d="M95.2,45.2c-0.9,1.5,0.6,2.1-0.7,3.9c-1.8,2.6,0.3,4.8-3.1,6.6c-2.4,1.3-2.8,0.6-3.4,0
			c-0.7-0.6-2.4-1.5-6.3,0.2c-1.7,0.7-1.8,0.7-2.4,0.2c-0.5-0.5-0.9-0.2-2.2,0.5c-2.2,1.1-0.9,2.8-3.5,3.5c-2.6,0.7-3.4,0.4-5.4-0.7
			c-2-1.1-2.5-0.8-2.9-0.1c-0.4,0.7-0.5,1.4,0.7,2.2c1.1,0.9,1.7,1.4,1.2,2.6c-0.5,1.3-0.6,1.8,0.3,2.3c1.8,1.1,0.1,2.3,1.7,5
			c0.9,1.5,1.1,2.4,1.2,3.8c0.1,1.4,0.4,2.2,1.6,2.5c2.1,0.4,0.2,1.4,3.5,2.4c1.4,0.4,2.4,0.9,3.4,1.5c1,0.6,3.7,0.9,5.7,0.6
			c2-0.3,5.2-1.1,6,0.8c1.4,3.2,2.2,3.4,3,4.5c0.7,1.1,2.1,0.2,2.9-2.3c0.6-1.8,1.3-4.3,4.5-4.3c7.9,0,10,0.4,13.4-2.1
			c1.9-1.4,4.3-3.5,5.9-2.1c0.3,0.3,0.6-0.8,1.6-1.3c0.3-0.1,0-0.7,0.3-1.3c0.9-2-0.4-2.5,0.5-3.6c2.1-2.8,3.3-2.7,5-2.6
			c1.7,0.1,2.4,0.3,3.6,1.5c1.2,1.2,1.7,1.6,3.3,0.3c1.7-1.4,5.6-1.6,6.2-0.1c0.2,0.5,1.3,0.2,1.2-0.8c-0.1-1.1-0.4-1.8-1.7-2.6
			c-1.3-0.8-0.3-1.4-1.7-2.4c-1.4-1,0.3-1.3-2.5-3.6c-2.8-2.3-1-6.4,0.6-8.1c0.3-0.3,1.1-0.8,2.5-0.6c1.4,0.2,1.9,0.2,2.9-1.1
			c1-1.3,2-3,3.4-3.4c2-0.6,2.3-1.7,3.9-1.9c2.7-0.3,3.2-2.8,5.3-3.4c3-0.9,2-3.2,5.4-4.2c3.4-1,3.2-2.8,4.3-3.6
			c-3.2,0.8-4.4,1.3-5.6,2.3c-1.6,1.4-3,0.7-4.7,2.1c-1.7,1.4-3.2,2.1-5,1.7c-1.8-0.5-2.3-0.8-2.9,0.7c-1.5,4.1-4.1,2.4-5.4,3.7
			c-2,1.9-3.6,0.6-5.1,1.6c-2.1,1.5-6.1-0.4-8,1.2c-3.1,2.8-3.8-0.4-7.2,1.5c-2.7,1.5-5.2,1-7,0.3c-1.8-0.7-7.9-0.5-10.1-1.3
			C98.5,45.8,96.3,47,95.2,45.2z"/>
	</g>
	<g>
		<path class="st2" d="M105.2,112c-14-6.5-27.2-8.5-34-17.3c6.4,9.5,20.8,11.8,34.2,18.6C105.7,113.4,105.7,112.2,105.2,112z"/>
		<path class="st2" d="M75.7,99.2c-4.8-3.6-6.1-1.1-8.3-0.9C71.3,101,72.1,100.8,75.7,99.2z"/>
		<path class="st2" d="M75.5,99c-4.2-4.2-1.9-5.9-2-8.1C76.7,94.4,76.5,95.3,75.5,99z"/>
		<path class="st2" d="M71.8,95.4c-1.1-5.8-3.7-5-5.4-6.3C67.5,93.7,68.2,94.2,71.8,95.4z"/>
		<path class="st2" d="M79.7,101.6c-4.2-4.2-1.9-5.9-2-8.1C80.8,97.1,80.7,97.9,79.7,101.6z"/>
		<path class="st2" d="M79.7,101.8c-4.5,3.9-6,1.6-8.2,1.6C75.3,100.4,76.1,100.6,79.7,101.8z"/>
		<path class="st2" d="M84.4,104c-4.7-3.7-2.7-5.6-3-7.8C85,99.4,85,100.2,84.4,104z"/>
		<path class="st2" d="M85,104.4c-4,4.4-5.8,2.2-8,2.4C80.4,103.4,81.3,103.5,85,104.4z"/>
		<path class="st2" d="M89.9,106.3c-5-3.3-3.2-5.4-3.7-7.5C90,101.6,90.1,102.4,89.9,106.3z"/>
		<path class="st2" d="M90.3,106.7c-4,4.4-5.8,2.2-8,2.4C85.6,105.7,86.5,105.8,90.3,106.7z"/>
		<path class="st2" d="M95,108c-5-3.3-3.2-5.4-3.7-7.5C95.2,103.3,95.3,104.2,95,108z"/>
		<path class="st2" d="M95.5,108.6c-3.6,4.7-5.6,2.8-7.7,3.2C90.8,108.1,91.7,108.1,95.5,108.6z"/>
	</g>
	<g>
		<path class="st2" d="M97.1,112c14-6.5,27.2-8.5,34-17.3c-6.4,9.5-20.8,11.8-34.2,18.6C96.6,113.4,96.7,112.2,97.1,112z"/>
		<path class="st2" d="M126.7,99.2c4.8-3.6,6.1-1.1,8.3-0.9C131.1,101,130.2,100.8,126.7,99.2z"/>
		<path class="st2" d="M126.9,99c4.2-4.2,1.9-5.9,2-8.1C125.7,94.4,125.8,95.3,126.9,99z"/>
		<path class="st2" d="M130.5,95.4c1.1-5.8,3.7-5,5.4-6.3C134.9,93.7,134.1,94.2,130.5,95.4z"/>
		<path class="st2" d="M122.7,101.6c4.2-4.2,1.9-5.9,2-8.1C121.5,97.1,121.7,97.9,122.7,101.6z"/>
		<path class="st2" d="M122.6,101.8c4.5,3.9,6,1.6,8.2,1.6C127.1,100.4,126.3,100.6,122.6,101.8z"/>
		<path class="st2" d="M117.9,104c4.7-3.7,2.7-5.6,3-7.8C117.4,99.4,117.4,100.2,117.9,104z"/>
		<path class="st2" d="M117.3,104.4c4,4.4,5.8,2.2,8,2.4C122,103.4,121.1,103.5,117.3,104.4z"/>
		<path class="st2" d="M112.5,106.3c5-3.3,3.2-5.4,3.7-7.5C112.3,101.6,112.3,102.4,112.5,106.3z"/>
		<path class="st2" d="M112.1,106.7c4,4.4,5.8,2.2,8,2.4C116.7,105.7,115.9,105.8,112.1,106.7z"/>
		<path class="st2" d="M107.3,108c5-3.3,3.2-5.4,3.7-7.5C107.2,103.3,107.1,104.2,107.3,108z"/>
		<path class="st2" d="M106.9,108.6c3.6,4.7,5.6,2.8,7.7,3.2C111.5,108.1,110.7,108.1,106.9,108.6z"/>
	</g>
</g>
</svg>
