<?xml version="1.0" encoding="utf-8"?>
<!-- Generator: Adobe Illustrator 22.1.0, SVG Export Plug-In . SVG Version: 6.00 Build 0)  -->
<svg version="1.1" id="layer_1" xmlns="http://www.w3.org/2000/svg" xmlns:xlink="http://www.w3.org/1999/xlink" x="0px" y="0px"
	 viewBox="0 0 216 144" style="enable-background:new 0 0 216 144;" xml:space="preserve">
<style type="text/css">
	.st0{fill:#FFFFFF;}
	.st1{fill:#CE1126;}
	.st2{fill:#C09300;}
</style>
<rect width="216" height="144"/>
<rect class="st0" width="216" height="96"/>
<rect class="st1" width="216" height="48"/>
<g>
	<g>
		<path class="st0" d="M108.2,72.6l16.4,15.3l-1.2-27.7c-0.2-4.2-3.8-3.2-6.5-1.7c-2.7,1.7-5.7,1.7-9,0.6c-3.2,1.1-6.3,1.1-9-0.6
			c-2.7-1.5-6.3-2.5-6.5,1.7l-1.2,27.7L108.2,72.6L108.2,72.6z"/>
		<path class="st2" d="M91.4,88C91.3,88,91.3,88,91.4,88c-0.1,0-0.2-0.1-0.2-0.2l1.2-27.7c0.1-1.4,0.5-2.4,1.4-2.8
			c1.7-0.9,4.3,0.4,5.3,1c2.5,1.6,5.4,1.8,8.9,0.6c0,0,0.1,0,0.1,0c3.4,1.2,6.4,1,8.9-0.6c1.1-0.6,3.7-1.9,5.4-1
			c0.8,0.5,1.3,1.4,1.4,2.8l1.2,27.7c0,0.1,0,0.1-0.1,0.1c-0.1,0-0.1,0-0.2,0l-16.3-15.2L91.5,87.9C91.4,88,91.4,88,91.4,88z
			 M95.1,57.3c-0.4,0-0.9,0.1-1.2,0.3c-0.7,0.4-1.1,1.3-1.2,2.6l-1.2,27.3l16.6-15c0.1-0.1,0.1-0.1,0.2,0l16.2,15l-1.2-27.3
			c-0.1-1.3-0.5-2.2-1.2-2.6c-1.5-0.8-4,0.4-5,1c-2.5,1.6-5.6,1.8-9.1,0.6c-3.5,1.2-6.5,1-9.1-0.6C98.2,58.1,96.5,57.3,95.1,57.3z"
			/>
	</g>
	<g id="w">
		<path class="st2" d="M94.4,59.2l-1.1,27l-1.9,1.7l1.2-27.7C93.1,59.7,94.1,59.2,94.4,59.2L94.4,59.2z"/>
		<path class="st2" d="M96.7,61.1l-1,22.5l-1.9,2l1.2-26C95.4,60,96.5,60.9,96.7,61.1L96.7,61.1z"/>
		<path class="st2" d="M98.8,62.8l-0.8,18.8l-1.5,1.5l1-21.5C97.9,62.1,98.6,62.6,98.8,62.8L98.8,62.8z"/>
		<path class="st2" d="M101.1,63.8l-0.8,16L98.8,81l0.8-17.8C100,63.4,100.7,63.8,101.1,63.8L101.1,63.8z"/>
		<path class="st2" d="M103.2,63.8l-0.6,13.4l-1.5,1.5l0.6-14.7C102.1,63.9,103,63.9,103.2,63.8L103.2,63.8z"/>
	</g>
	<g transform="matrix(-1,0,0,1,900,0)">
		<g id="w_1_">
			<path class="st2" d="M121.6,59.2l1.1,27l1.9,1.7l-1.2-27.7C122.9,59.7,121.9,59.2,121.6,59.2L121.6,59.2z"/>
			<path class="st2" d="M119.3,61.1l1,22.5l1.9,2l-1.2-26C120.6,60,119.5,60.9,119.3,61.1L119.3,61.1z"/>
			<path class="st2" d="M117.2,62.8l0.8,18.8l1.5,1.5l-1-21.5C118.1,62.1,117.4,62.6,117.2,62.8L117.2,62.8z"/>
			<path class="st2" d="M114.9,63.8l0.8,16l1.5,1.2l-0.8-17.8C116,63.4,115.3,63.8,114.9,63.8L114.9,63.8z"/>
			<path class="st2" d="M112.8,63.8l0.6,13.4l1.5,1.5l-0.6-14.7C113.9,63.9,113,63.9,112.8,63.8L112.8,63.8z"/>
		</g>
	</g>
	<g>
		<path class="st2" d="M108.8,75.6l2.3,10.5l-0.8,0.8l-0.8-0.6l-1.3-9.4l0.6,9.4l-0.8,1l-0.8-1l0.6-9.4l-1.3,9.4l-0.8,0.6l-0.8-0.8
			l2.3-10.5H108.8L108.8,75.6z"/>
		<path class="st2" d="M108,87.5l-0.9-1.1l0.4-6.2l-0.9,6.2l-0.9,0.7l-0.9-0.9l2.3-10.7h1.7l2.3,10.7l-0.9,0.9l-0.9-0.7l-0.9-6.2
			l0.4,6.2L108,87.5z M107.4,86.2L108,87l0.6-0.8l-0.5-9.3l0.3,0l1.3,9.3l0.7,0.5l0.6-0.6l-2.3-10.3h-1.3l-2.3,10.3l0.6,0.6l0.7-0.5
			l1.3-9.3l0.3,0L107.4,86.2z"/>
	</g>
	<g id="b">
		<g>
			<path class="st0" d="M102.8,71l-4.6,16.2l6.3,1l2.7-12.2L102.8,71L102.8,71z"/>
			<path class="st2" d="M104.6,88.4C104.6,88.4,104.5,88.4,104.6,88.4l-6.3-1c0,0-0.1,0-0.1-0.1c0,0,0-0.1,0-0.1l4.6-16.2
				c0-0.1,0.1-0.1,0.1-0.1c0.1,0,0.1,0,0.1,0l4.4,5c0,0,0,0.1,0,0.1l-2.7,12.2C104.7,88.3,104.6,88.4,104.6,88.4z M98.4,87.1l6,0.9
				l2.6-12l-4.2-4.7L98.4,87.1z"/>
		</g>
		<path class="st2" d="M101.9,78C101.9,78,101.9,78,101.9,78c-0.1,0-0.1,0-0.1-0.1l-0.6-1.3l0.3-0.1l0.5,1.1l2.8-2.7l0.2,0.2l-3,2.8
			C101.9,78,101.9,78,101.9,78z"/>
		<path class="st2" d="M104,79.2C104,79.2,104,79.2,104,79.2c-0.1,0-0.1-0.1-0.2-0.1l-0.6-5.8l0.3,0l0.6,5.5l1.7-2.2l0.2,0.2
			l-1.9,2.5C104.1,79.2,104.1,79.2,104,79.2z"/>
		
			<rect x="105.5" y="77.4" transform="matrix(0.9605 -0.2783 0.2783 0.9605 -17.8933 32.538)" class="st2" width="0.3" height="3.7"/>
		<path class="st2" d="M105,86.1l-0.6-2.8l-1.2,1.9c0,0-0.1,0.1-0.1,0.1c-0.1,0-0.1,0-0.1-0.1l-0.7-2l-1.2,2c0,0.1-0.1,0.1-0.2,0.1
			c-0.1,0-0.1-0.1-0.1-0.1l-1-3.7c0-0.1,0-0.1,0-0.1l2-2c0,0,0.1-0.1,0.1,0c0.1,0,0.1,0.1,0.1,0.1l0.5,1.9l1.2-1.6
			c0,0,0.1-0.1,0.2-0.1c0.1,0,0.1,0.1,0.1,0.1l0.5,2.9l1.9-2.9l0.3,0.2l-2.1,3.1l0.7,3.1L105,86.1z M102.3,82.7
			C102.3,82.7,102.3,82.7,102.3,82.7c0.1,0,0.1,0,0.1,0.1l0.7,2l1.2-1.9l-0.5-2.8l-1.2,1.6c0,0-0.1,0.1-0.2,0.1
			c-0.1,0-0.1-0.1-0.1-0.1l-0.5-1.9l-1.7,1.8l0.9,3.2l1.2-2C102.2,82.7,102.2,82.7,102.3,82.7z"/>
		<path class="st2" d="M103.4,88.3l-0.7-2l-1,1.6c0,0.1-0.1,0.1-0.1,0.1c-0.1,0-0.1,0-0.1-0.1l-0.7-2.5L99.7,87l-0.2-0.2l1.3-1.8
			c0,0,0.1-0.1,0.1-0.1c0.1,0,0.1,0.1,0.1,0.1l0.7,2.4l1-1.6c0-0.1,0.1-0.1,0.1-0.1c0.1,0,0.1,0,0.1,0.1l0.8,2.3L103.4,88.3z"/>
	</g>
	<g transform="matrix(-1,0,0,1,900,0)">
		<g id="b_1_">
			<g>
				<path class="st0" d="M113.2,71l4.6,16.2l-6.3,1L108.8,76L113.2,71L113.2,71z"/>
				<path class="st2" d="M111.4,88.4c-0.1,0-0.1,0-0.1-0.1L108.6,76c0,0,0-0.1,0-0.1l4.4-5c0,0,0.1-0.1,0.1,0c0.1,0,0.1,0.1,0.1,0.1
					l4.6,16.2c0,0,0,0.1,0,0.1c0,0-0.1,0.1-0.1,0.1L111.4,88.4C111.5,88.4,111.4,88.4,111.4,88.4z M108.9,76l2.6,12l6-0.9l-4.5-15.8
					L108.9,76z"/>
			</g>
			<path class="st2" d="M114.1,78c0,0-0.1,0-0.1,0l-3-2.8l0.2-0.2l2.8,2.7l0.5-1.1l0.3,0.1l-0.6,1.3C114.3,78,114.2,78,114.1,78
				C114.1,78,114.1,78,114.1,78z"/>
			<path class="st2" d="M112,79.2c0,0-0.1,0-0.1-0.1l-1.9-2.5l0.2-0.2l1.7,2.2l0.6-5.5l0.3,0l-0.6,5.8
				C112.1,79.1,112.1,79.2,112,79.2C112,79.2,112,79.2,112,79.2z"/>
			
				<rect x="108.5" y="79.1" transform="matrix(0.2782 -0.9605 0.9605 0.2782 3.4841 163.2223)" class="st2" width="3.7" height="0.3"/>
			<path class="st2" d="M111,86.1l-0.3-0.1l0.7-3.1l-2.1-3.1l0.3-0.2l1.9,2.9l0.5-2.9c0-0.1,0.1-0.1,0.1-0.1c0.1,0,0.1,0,0.2,0.1
				l1.2,1.6l0.5-1.9c0-0.1,0.1-0.1,0.1-0.1c0.1,0,0.1,0,0.1,0l2,2c0,0,0.1,0.1,0,0.1l-1,3.7c0,0.1-0.1,0.1-0.1,0.1
				c-0.1,0-0.1,0-0.2-0.1l-1.2-2l-0.7,2c0,0.1-0.1,0.1-0.1,0.1c-0.1,0-0.1,0-0.1-0.1l-1.2-1.9L111,86.1z M111.7,82.9l1.2,1.9l0.7-2
				c0-0.1,0.1-0.1,0.1-0.1c0.1,0,0.1,0,0.1,0.1l1.2,2l0.9-3.2l-1.7-1.8l-0.5,1.9c0,0.1-0.1,0.1-0.1,0.1c-0.1,0-0.1,0-0.2-0.1
				l-1.2-1.6L111.7,82.9z"/>
			<path class="st2" d="M112.6,88.3l-0.3-0.1l0.8-2.3c0-0.1,0.1-0.1,0.1-0.1c0.1,0,0.1,0,0.1,0.1l1,1.6L115,85
				c0-0.1,0.1-0.1,0.1-0.1c0.1,0,0.1,0,0.1,0.1l1.3,1.8l-0.2,0.2l-1.1-1.5l-0.7,2.5c0,0.1-0.1,0.1-0.1,0.1c-0.1,0-0.1,0-0.1-0.1
				l-1-1.6L112.6,88.3z"/>
		</g>
	</g>
	<g>
		<g>
			<path class="st0" d="M108,94.5c4.8,0,9.4-0.4,12.1-1.1c1.1-0.2,1.1-0.8,1.1-1.5c1.1-0.4,0.6-1.7,1.3-1.7c-0.8,0.2-1-1.3-1.9-1.1
				c0-1.3-1.3-1.5-2.5-1.1c-2.3,0.8-6.3,0.9-10.1,0.9c-3.8-0.2-7.8-0.2-10.1-0.9c-1.1-0.4-2.5-0.2-2.5,1.1c-1-0.2-1.1,1.3-1.9,1.1
				c0.8,0,0.2,1.3,1.3,1.7c0,0.8,0,1.3,1.2,1.5C98.6,94.1,103.2,94.5,108,94.5L108,94.5z"/>
			<path class="st2" d="M108,94.8c-5.1,0-9.5-0.4-12.1-1.1c-1.3-0.2-1.4-0.9-1.4-1.6c-0.6-0.3-0.7-0.8-0.8-1.2
				c-0.1-0.3-0.1-0.4-0.2-0.4c-0.1,0-0.1,0-0.2,0c-0.1,0-0.2-0.2-0.2-0.3c0-0.1,0.1-0.2,0.3-0.2c0.1,0,0.1,0,0.2,0
				c0.1,0,0.3-0.2,0.5-0.4c0.2-0.3,0.5-0.7,1-0.7c0.1-0.5,0.3-0.8,0.6-1c0.5-0.4,1.4-0.4,2.3-0.1c1.9,0.6,4.8,0.7,8,0.8
				c0.7,0,1.4,0.1,2.1,0.1c4.9,0,8.2-0.3,10-0.9c0.9-0.3,1.7-0.2,2.3,0.1c0.2,0.2,0.5,0.5,0.6,1c0.5,0,0.8,0.4,1,0.7
				c0.2,0.3,0.3,0.4,0.5,0.4c0.1,0,0.1,0,0.2,0c0.1,0,0.3,0.1,0.3,0.2c0,0.1-0.1,0.3-0.2,0.3c-0.1,0-0.1,0-0.2,0
				c-0.1,0-0.1,0.1-0.2,0.4c-0.1,0.4-0.2,0.9-0.8,1.2c0,0.7-0.1,1.4-1.4,1.6C117.5,94.4,113.1,94.8,108,94.8z M94.1,90.2
				c0.1,0.1,0.1,0.3,0.1,0.5c0.1,0.4,0.2,0.7,0.6,0.9c0.1,0,0.2,0.1,0.2,0.3c0,0.8,0,1.1,0.9,1.3c0,0,0,0,0,0
				c2.5,0.7,6.9,1.1,11.9,1.1c5.1,0,9.4-0.4,12-1.1c0,0,0,0,0,0c0.9-0.2,0.9-0.5,0.9-1.3c0-0.1,0.1-0.2,0.2-0.3
				c0.5-0.2,0.5-0.5,0.6-0.9c0-0.1,0.1-0.3,0.1-0.5c-0.2-0.1-0.3-0.3-0.4-0.5c-0.3-0.4-0.5-0.6-0.8-0.5c-0.1,0-0.2,0-0.2-0.1
				c-0.1-0.1-0.1-0.1-0.1-0.2c0-0.4-0.1-0.6-0.4-0.8c-0.4-0.3-1-0.3-1.8-0.1c-1.9,0.6-5.2,0.9-10.2,0.9c-0.7,0-1.4-0.1-2.1-0.1
				c-3.2-0.1-6.2-0.2-8.1-0.9c-0.7-0.2-1.4-0.2-1.8,0.1c-0.2,0.2-0.4,0.4-0.4,0.8c0,0.1,0,0.2-0.1,0.2c-0.1,0.1-0.2,0.1-0.2,0.1
				c-0.3-0.1-0.5,0.1-0.8,0.5C94.4,89.9,94.3,90.1,94.1,90.2z"/>
		</g>
		<g>
			<path class="st0" d="M101.5,87.2c1.5,0.2,3.3,0.4,4.6,0.2c0.8,0,1.3,1.3-0.2,1.5c-1.3,0.2-3.4,0-4.6-0.2c-1-0.2-3.1-0.6-4.4-0.9
				c-1.3-0.6-0.4-1.7,0.4-1.5C98.5,86.7,100,87,101.5,87.2L101.5,87.2z"/>
			<path class="st2" d="M104.6,89.2c-1.2,0-2.5-0.1-3.3-0.3c-0.8-0.1-3-0.5-4.4-0.9c-0.9-0.4-0.8-1-0.7-1.2c0.2-0.5,0.7-0.8,1.2-0.7
				c0.8,0.3,2.4,0.7,4.2,1v0c1.4,0.2,3.2,0.4,4.6,0.2c0,0,0,0,0,0c0.5,0,0.9,0.4,0.9,0.9c0,0.2,0,0.8-1.1,1
				C105.5,89.2,105.1,89.2,104.6,89.2z M97.1,86.4c-0.3,0-0.6,0.2-0.7,0.5c-0.1,0.3,0.1,0.6,0.6,0.8c1.3,0.4,3.5,0.8,4.4,0.9
				c1.1,0.2,3.2,0.4,4.5,0.2c0.5-0.1,0.8-0.3,0.8-0.6c0-0.3-0.3-0.6-0.6-0.6c-1.4,0.2-3.2,0-4.6-0.2c0,0,0,0,0,0
				c-1.8-0.3-3.4-0.7-4.2-1C97.2,86.4,97.2,86.4,97.1,86.4z"/>
		</g>
		<g>
			<path class="st0" d="M114.5,87.2c-1.5,0.2-3.3,0.4-4.6,0.2c-0.8,0-1.3,1.3,0.2,1.5c1.3,0.2,3.4,0,4.6-0.2c1-0.2,3.1-0.6,4.4-0.9
				c1.3-0.6,0.4-1.7-0.4-1.5C117.5,86.7,116,87,114.5,87.2L114.5,87.2z"/>
			<path class="st2" d="M111.4,89.2c-0.5,0-0.9,0-1.3-0.1c-1.1-0.1-1.1-0.8-1.1-1c0-0.5,0.5-0.9,0.9-0.9c1.4,0.2,3.1,0,4.6-0.2
				c1.8-0.2,3.4-0.7,4.2-1c0.5-0.1,1.1,0.2,1.2,0.7c0.1,0.2,0.2,0.8-0.7,1.1c-1.4,0.4-3.6,0.8-4.4,0.9
				C113.9,89.1,112.6,89.2,111.4,89.2z M109.9,87.6c-0.3,0-0.6,0.3-0.6,0.6c0,0.3,0.3,0.6,0.8,0.6c1.4,0.2,3.5,0,4.5-0.2
				c0.8-0.1,3-0.5,4.4-0.9c0.4-0.2,0.6-0.5,0.5-0.8c-0.1-0.3-0.5-0.6-0.8-0.5c-0.8,0.3-2.4,0.7-4.2,1c0,0,0,0,0,0
				C113.1,87.6,111.3,87.8,109.9,87.6z M114.5,87.2L114.5,87.2L114.5,87.2z"/>
		</g>
		<g>
			<path class="st0" d="M96.7,86.5c-1.2-0.2-1.7,1.1-1.3,1.9c0.2-0.4,1-0.4,1.1-0.8C96.7,87,96.4,87,96.7,86.5L96.7,86.5z"/>
			<path class="st2" d="M95.4,88.5c-0.1,0-0.1,0-0.1-0.1c-0.2-0.5-0.2-1.1,0.2-1.6c0.3-0.4,0.8-0.6,1.3-0.5c0.1,0,0.1,0,0.1,0.1
				c0,0,0,0.1,0,0.1c-0.2,0.3-0.2,0.3-0.1,0.5c0,0.1,0.1,0.3-0.1,0.6c-0.1,0.3-0.4,0.4-0.7,0.5c-0.2,0.1-0.4,0.2-0.5,0.3
				C95.5,88.5,95.5,88.5,95.4,88.5C95.4,88.5,95.4,88.5,95.4,88.5z M96.5,86.6c-0.4,0-0.7,0.3-0.8,0.4c-0.2,0.3-0.3,0.7-0.2,1
				c0.1-0.1,0.3-0.2,0.5-0.2c0.2-0.1,0.4-0.2,0.5-0.3c0.1-0.2,0.1-0.3,0-0.4C96.4,87,96.4,86.8,96.5,86.6z"/>
		</g>
		<g>
			<path class="st0" d="M101.3,90c0-0.8,0.8-0.7,0.8-1.4c0-0.4-0.2-1-0.6-1c-0.4,0-0.8,0.4-0.8,0.8C100.6,89.1,101.3,89.3,101.3,90z
				"/>
			<path class="st2" d="M101.3,90.2c-0.1,0-0.2-0.1-0.2-0.2c0-0.3-0.1-0.5-0.3-0.7c-0.2-0.2-0.4-0.5-0.3-1c0-0.5,0.5-0.9,0.9-0.9
				c0.5,0,0.7,0.6,0.7,1.1c0,0.4-0.2,0.7-0.4,0.8c-0.2,0.2-0.3,0.3-0.3,0.6C101.5,90.1,101.4,90.2,101.3,90.2z M101.5,87.8
				c-0.3,0-0.6,0.3-0.6,0.6c0,0,0,0,0,0c-0.1,0.3,0.1,0.5,0.2,0.7c0.1,0.1,0.2,0.2,0.2,0.3c0.1-0.1,0.2-0.2,0.3-0.3
				c0.2-0.2,0.3-0.3,0.3-0.6C101.9,88.3,101.7,87.8,101.5,87.8z"/>
		</g>
		<g>
			<path class="st0" d="M106.8,87.8c1.1,0,1,1.5,0.5,2.3c0-0.6-1-0.8-1-1.1C106.3,88.4,107.1,88.4,106.8,87.8L106.8,87.8z"/>
			<path class="st2" d="M107.2,90.3C107.2,90.3,107.2,90.3,107.2,90.3c-0.1,0-0.2-0.1-0.2-0.2c0-0.2-0.2-0.4-0.5-0.6
				c-0.2-0.2-0.5-0.3-0.5-0.6c0-0.3,0.2-0.5,0.4-0.7c0.2-0.2,0.2-0.2,0.1-0.4c0,0,0-0.1,0-0.2s0.1-0.1,0.1-0.1
				c0.5,0,0.8,0.3,0.9,0.5c0.3,0.6,0.1,1.5-0.3,2C107.3,90.2,107.3,90.3,107.2,90.3z M107.4,90.1L107.4,90.1L107.4,90.1z M107,88
				c0,0.3-0.2,0.4-0.3,0.5c-0.2,0.1-0.3,0.2-0.3,0.4c0,0.1,0.2,0.2,0.3,0.3c0.2,0.1,0.4,0.3,0.5,0.4c0.2-0.4,0.3-1,0.1-1.4
				C107.3,88.2,107.2,88.1,107,88z"/>
		</g>
		<g>
			<path class="st0" d="M119.3,86.5c1.2-0.2,1.7,1.1,1.3,1.9c-0.2-0.4-1-0.4-1.1-0.8C119.3,87,119.6,87,119.3,86.5L119.3,86.5z"/>
			<path class="st2" d="M120.6,88.5C120.6,88.5,120.6,88.5,120.6,88.5c-0.1,0-0.1,0-0.1-0.1c-0.1-0.1-0.3-0.2-0.5-0.3
				c-0.3-0.1-0.5-0.2-0.7-0.5c-0.1-0.3-0.1-0.5-0.1-0.6c0-0.1,0-0.2-0.1-0.5c0,0,0-0.1,0-0.1c0,0,0.1-0.1,0.1-0.1
				c0.5-0.1,1,0.1,1.3,0.5c0.3,0.5,0.4,1.1,0.2,1.6C120.7,88.5,120.7,88.5,120.6,88.5z M119.5,86.6c0.1,0.2,0.1,0.3,0.1,0.5
				c0,0.1,0,0.2,0,0.5c0.1,0.1,0.3,0.2,0.5,0.3c0.2,0.1,0.3,0.1,0.5,0.2c0.1-0.3,0-0.7-0.2-1C120.2,86.9,119.9,86.6,119.5,86.6z"/>
		</g>
		<g>
			<path class="st0" d="M114.7,90c0-0.8-0.8-0.7-0.8-1.4c0-0.4,0.2-1,0.6-1c0.4,0,0.8,0.4,0.8,0.8C115.4,89.1,114.7,89.3,114.7,90
				L114.7,90z"/>
			<path class="st2" d="M114.7,90.2c-0.1,0-0.2-0.1-0.2-0.2c0-0.3-0.1-0.4-0.3-0.6c-0.2-0.2-0.4-0.4-0.4-0.8c0-0.5,0.3-1.1,0.7-1.1
				c0.5,0,0.9,0.4,0.9,0.9c0.1,0.5-0.1,0.7-0.3,1c-0.2,0.2-0.3,0.4-0.3,0.7C114.8,90.1,114.8,90.2,114.7,90.2z M114.5,87.8
				c-0.3,0-0.4,0.5-0.4,0.8c0,0.3,0.1,0.4,0.3,0.6c0.1,0.1,0.2,0.2,0.3,0.3c0.1-0.1,0.1-0.2,0.2-0.3c0.2-0.2,0.3-0.4,0.2-0.7
				c0,0,0,0,0,0C115.1,88.1,114.8,87.8,114.5,87.8z"/>
		</g>
		<g>
			<path class="st0" d="M109.2,87.8c-1.1,0-1,1.5-0.5,2.3c0-0.6,1-0.8,1-1.1C109.7,88.4,108.9,88.4,109.2,87.8z"/>
			<path class="st2" d="M108.8,90.3c0,0-0.1,0-0.1-0.1c-0.4-0.5-0.6-1.4-0.3-2c0.1-0.2,0.4-0.5,0.9-0.5c0.1,0,0.1,0,0.1,0.1
				c0,0.1,0,0.1,0,0.2c-0.1,0.2-0.1,0.2,0.1,0.4c0.2,0.1,0.4,0.3,0.4,0.7c0,0.3-0.2,0.4-0.5,0.6c-0.2,0.2-0.5,0.3-0.5,0.6
				C108.9,90.2,108.9,90.2,108.8,90.3C108.8,90.3,108.8,90.3,108.8,90.3z M109,88c-0.2,0-0.3,0.2-0.4,0.3c-0.2,0.4-0.1,1,0.1,1.4
				c0.1-0.2,0.3-0.3,0.5-0.4c0.2-0.1,0.3-0.2,0.3-0.3c0-0.2-0.1-0.3-0.3-0.4C109.1,88.4,108.9,88.3,109,88z"/>
		</g>
		<g>
			<g>
				<path class="st0" d="M97.1,86.9c0.4,0,1,0.2,1.1,0.4L97.1,86.9L97.1,86.9z"/>
				<path class="st2" d="M98.3,87.4C98.2,87.4,98.2,87.4,98.3,87.4L97.1,87c0,0,0,0,0,0l0,0c0,0-0.1-0.1,0-0.1c0,0,0.1-0.1,0.1-0.1
					c0.4,0,1,0.2,1.2,0.4C98.4,87.2,98.4,87.3,98.3,87.4C98.3,87.3,98.3,87.4,98.3,87.4z"/>
			</g>
			<g>
				<path class="st0" d="M99,87.5c0.2,0,1,0.2,1.3,0.4L99,87.5L99,87.5z"/>
				<path class="st2" d="M100.4,87.9C100.3,87.9,100.3,87.9,100.4,87.9L99,87.6c0,0-0.1,0-0.1,0l0,0c0,0,0-0.1,0-0.1
					c0,0,0.1-0.1,0.1,0c0.2,0,1,0.2,1.4,0.4C100.5,87.8,100.5,87.8,100.4,87.9C100.4,87.9,100.4,87.9,100.4,87.9z"/>
			</g>
			<g>
				<path class="st0" d="M105.9,88.2c-0.4,0-1.1,0-1.3,0.2L105.9,88.2L105.9,88.2z"/>
				<path class="st2" d="M104.6,88.5C104.5,88.5,104.5,88.5,104.6,88.5c-0.1-0.1-0.1-0.2-0.1-0.2c0.2-0.2,0.8-0.2,1.4-0.2l0,0
					c0,0,0.1,0,0.1,0.1c0,0,0,0.1,0,0.1c0,0-0.1,0.1-0.1,0.1L104.6,88.5C104.6,88.5,104.6,88.5,104.6,88.5z"/>
			</g>
			<g>
				<path class="st0" d="M103.8,88.2c-0.2-0.2-1-0.2-1.3,0H103.8L103.8,88.2z"/>
				<path class="st2" d="M103.8,88.3h-1.3c0,0-0.1,0-0.1-0.1c0,0,0-0.1,0.1-0.1c0.4-0.2,1.2-0.2,1.5,0
					C103.9,88.2,103.9,88.2,103.8,88.3C103.9,88.3,103.8,88.3,103.8,88.3z"/>
			</g>
			<g>
				<path class="st0" d="M118.9,86.9c-0.4,0-0.9,0.2-1.1,0.4L118.9,86.9z"/>
				<path class="st2" d="M117.7,87.4C117.7,87.4,117.7,87.3,117.7,87.4c-0.1-0.1-0.1-0.1-0.1-0.2c0.2-0.2,0.8-0.4,1.2-0.4
					c0.1,0,0.1,0,0.1,0.1c0,0.1,0,0.1-0.1,0.1L117.7,87.4C117.8,87.4,117.8,87.4,117.7,87.4z"/>
			</g>
			<g>
				<path class="st0" d="M117,87.5c-0.2,0-1,0.2-1.3,0.4L117,87.5L117,87.5z"/>
				<path class="st2" d="M115.6,87.9C115.6,87.9,115.6,87.9,115.6,87.9c-0.1-0.1-0.1-0.2-0.1-0.2c0.4-0.2,1.1-0.4,1.4-0.4
					c0,0,0.1,0,0.1,0.1c0,0,0,0.1,0,0.1c0,0,0,0-0.1,0L115.6,87.9C115.7,87.9,115.7,87.9,115.6,87.9z"/>
			</g>
			<g>
				<path class="st0" d="M110.1,88.2c0.4,0,1.1,0,1.3,0.2L110.1,88.2L110.1,88.2z"/>
				<path class="st2" d="M111.4,88.5C111.4,88.5,111.4,88.5,111.4,88.5l-1.3-0.2c0,0-0.1,0-0.1,0l0,0c0,0,0-0.1,0-0.1
					c0,0,0.1-0.1,0.1-0.1l0,0c0.6,0,1.2,0,1.4,0.2C111.5,88.3,111.6,88.4,111.4,88.5C111.5,88.5,111.5,88.5,111.4,88.5z"/>
			</g>
			<g>
				<path class="st0" d="M112.2,88.2c0.2-0.2,1-0.2,1.3,0H112.2L112.2,88.2z"/>
				<path class="st2" d="M113.5,88.3h-1.3c-0.1,0-0.1,0-0.1-0.1c0,0,0-0.1,0-0.1c0.3-0.2,1.1-0.2,1.5,0c0,0,0.1,0.1,0.1,0.1
					C113.6,88.3,113.6,88.3,113.5,88.3z"/>
			</g>
		</g>
		<g>
			<path class="st2" d="M96.8,89.9c-0.1,0-0.2-0.1-0.2-0.2c0-0.1,0.2-0.2,0.3-0.2c0.1,0,0.2,0.2,0.2,0.2c0,0.1-0.1,0.2-0.1,0.2
				c0,0,0,0,0,0C96.9,89.9,96.9,89.9,96.8,89.9L96.8,89.9z"/>
			<path class="st2" d="M110,90.8c0,0-0.1-0.1-0.1-0.2c0-0.1,0.1-0.2,0.2-0.2c0,0,0.2,0.1,0.2,0.1c0.1,0.1,0.1,0.2,0,0.3
				C110.2,90.9,110.1,90.9,110,90.8L110,90.8z"/>
			<path class="st2" d="M110.1,91.4c-0.1,0-0.1-0.1-0.1-0.2c0-0.1,0-0.1,0.1-0.2l0.1,0l0.1,0c0.1,0.1,0.2,0.1,0.2,0.2
				c0,0.1-0.1,0.2-0.2,0.2C110.2,91.5,110.1,91.5,110.1,91.4L110.1,91.4z"/>
			<path class="st2" d="M97.9,88.8c-0.1,0-0.2,0.1-0.3,0.1c-0.2,0-0.3,0.1-0.5,0c-0.1,0-0.3,0-0.4,0.2c0,0.2,0.3,0.2,0.4,0.1
				c0.1-0.1,0.4-0.2,0.4,0c-0.1,0.2-0.1,0.4-0.2,0.6c0,0.1-0.1,0.2-0.1,0.3c-0.1,0-0.2,0-0.3,0.1c-0.2,0-0.3,0.1-0.4,0.2
				c-0.1,0.1-0.2,0.3-0.2,0.5c0,0.2,0.2,0.2,0.4,0.2c0.2,0,0.3,0.1,0.5,0.2c0.3,0.1,0.5,0.2,0.8,0.2c0.4,0.1,0.8,0.2,1.2,0.3
				c0,0,0.1,0,0.1,0c0.2,0,0.2-0.1,0.3-0.3c0.1-0.3,0.1-0.6,0.2-0.8c0.1-0.1,0.1-0.4-0.1-0.3c-0.1,0.1-0.2,0.2-0.4,0.2
				c-0.2,0-0.1,0.2,0,0.3c0,0.1,0,0.3-0.1,0.4c-0.1,0.1-0.3,0-0.4,0c-0.1,0-0.4-0.1-0.3-0.3c0-0.1,0-0.3,0.1-0.4
				c0.1-0.1,0.1-0.3,0.1-0.5c-0.1-0.2-0.2,0.1-0.4,0.1c-0.1,0.1-0.4,0.1-0.2,0.2c0.1,0.1,0,0.3,0,0.4c0,0.2-0.2,0.2-0.4,0.2
				c-0.2,0-0.4-0.1-0.2-0.3c0-0.1,0.1-0.3,0.1-0.4c0.1-0.2,0.1-0.3,0.2-0.5c0-0.1,0.1-0.3,0.2-0.4c0-0.2,0.1-0.3,0.1-0.5
				C97.9,88.9,97.9,88.8,97.9,88.8L97.9,88.8z M97,90.6C97,90.6,97,90.6,97,90.6c0.1,0,0.1,0.1,0.1,0.1c0,0-0.1,0-0.1,0
				c-0.1,0-0.1,0-0.1-0.1C96.8,90.6,96.8,90.6,97,90.6C97,90.6,97,90.6,97,90.6L97,90.6z"/>
			<path class="st2" d="M96.7,91.8c-0.1-0.1-0.1-0.2,0.1-0.3c0.1-0.1,0.1,0,0.2,0c0.1,0.1,0.1,0.2,0,0.3c-0.1,0.1-0.1,0.1-0.2,0.1
				C96.8,91.8,96.8,91.8,96.7,91.8L96.7,91.8z"/>
			<path class="st2" d="M97.5,92c-0.1,0-0.2-0.1-0.1-0.3c0-0.1,0-0.1,0.2-0.1c0.2,0,0.2,0,0.2,0.2c0,0.1,0,0.1,0,0.1
				C97.6,92,97.5,92,97.5,92L97.5,92z"/>
			<path class="st2" d="M118.9,92c-0.1,0-0.1-0.1-0.1-0.1c0-0.1,0.1-0.2,0.2-0.2c0.2-0.1,0.2-0.1,0.3,0c0.1,0.1,0.1,0.2,0,0.3
				c-0.1,0.1-0.1,0.1-0.2,0.1C118.9,92.1,118.9,92.1,118.9,92L118.9,92z"/>
			<path class="st2" d="M98.5,92.3c-0.1,0-0.1-0.1-0.1-0.2c0-0.1,0-0.1,0.1-0.1c0,0,0.1-0.1,0.1-0.1c0.1,0,0.1,0,0.1,0
				c0.1,0.1,0.2,0.2,0.1,0.3C98.7,92.3,98.6,92.3,98.5,92.3L98.5,92.3z"/>
			<path class="st2" d="M103.7,92.5C103.7,92.5,103.7,92.5,103.7,92.5c-0.1-0.2-0.1-0.3,0-0.5c0-0.1,0-0.3,0-0.4
				c0-0.2,0-0.5,0.1-0.7c0-0.1,0-0.2,0-0.3c0-0.2,0-0.4,0.1-0.5c0-0.1,0.1-0.2,0.1-0.1c0.1,0.1,0.2,0.3,0.3,0.4
				c0.1,0.1,0,0.1-0.1,0.2c-0.1,0-0.1,0.1-0.1,0.2c0,0.1-0.1,0.2-0.1,0.3c0,0.1,0,0.3,0,0.5c0,0.1,0,0.3,0,0.5c0,0.1,0,0.2,0,0.3
				c0,0.1,0,0.2-0.1,0.3C103.9,92.6,103.8,92.6,103.7,92.5L103.7,92.5z"/>
			<path class="st2" d="M110.8,90.2c-0.1,0.1-0.2,0.2-0.3,0.3c-0.1,0.1,0.1,0.2,0.2,0.3c0,0.1,0,0.3,0,0.4c0,0.1,0.1,0.3,0.1,0.4
				c0,0.1-0.2,0.1-0.3,0.2c-0.1,0-0.2,0.2-0.3,0.2c-0.1,0.1-0.1,0.3-0.1,0.4c0,0.1-0.1,0.2,0,0.3c0,0,0,0,0,0c0,0,0.1,0,0.1,0
				c0.1,0,0.2,0,0.4,0c0.3-0.1,0.6-0.1,0.9-0.1c0.2,0,0.4-0.1,0.5-0.1c0.1,0,0.2-0.1,0.2-0.2c-0.1-0.2,0-0.3-0.1-0.5
				c-0.1-0.2,0-0.3-0.1-0.5c0-0.1-0.2-0.2-0.3-0.1c-0.1,0.1-0.2,0.1-0.3,0.2c-0.1,0.1,0.2,0.1,0.2,0.3c0,0.1,0,0.2,0,0.4
				c0,0.1-0.1,0.2-0.2,0.2c-0.1,0-0.3,0.1-0.4-0.1c0-0.1,0-0.2-0.1-0.4c0-0.2-0.1-0.4-0.1-0.6c0-0.3-0.1-0.5-0.1-0.8
				C111,90.3,111,90.1,110.8,90.2L110.8,90.2z M110.7,92.1L110.7,92.1L110.7,92.1l0.1,0.2l-0.1,0c-0.1,0-0.1,0-0.1,0c0,0,0,0,0,0
				c-0.1,0,0-0.1,0-0.2C110.6,92.1,110.6,92.1,110.7,92.1L110.7,92.1z"/>
			<path class="st2" d="M103.5,89.9c-0.1,0-0.2,0.2-0.3,0.2c-0.2,0-0.2,0.2,0,0.3c0,0.1,0,0.1,0,0.2c0,0.2-0.1,0.3-0.1,0.5
				c0,0.2-0.1,0.4-0.1,0.6c-0.1,0.2-0.1,0.4-0.1,0.7c0,0.2-0.2,0.1-0.3,0.1c0-0.1,0-0.2,0-0.3c0.1-0.2-0.1-0.3-0.3-0.3
				c-0.2,0-0.2-0.1-0.2-0.3c0.1-0.1,0.2-0.1,0.4-0.1c0.2,0,0.2-0.3,0.1-0.4c-0.1-0.2-0.3-0.2-0.3-0.4c0-0.2-0.1-0.4-0.3-0.5
				c-0.3,0-0.5,0.2-0.6,0.4c-0.1,0-0.2,0.1-0.3,0.1c-0.2,0-0.4,0.3-0.2,0.5c0.1,0,0.5,0.1,0.4,0.3c-0.1,0.2-0.3,0.2-0.5,0.1
				c-0.2,0-0.4-0.1-0.4-0.3c0-0.2,0-0.4-0.1-0.5c0-0.2-0.3-0.2-0.3,0c-0.2,0.1-0.2,0.3,0,0.5c0.1,0.2,0,0.4-0.1,0.5
				c0,0.2-0.3,0.2-0.4,0.3c-0.1,0-0.4,0-0.3,0.2c0.2,0.1,0.4,0.1,0.6,0.1c0.2,0,0.4-0.2,0.5-0.3c0.1-0.1,0.4-0.1,0.5-0.1
				c0.2,0,0.4,0.1,0.6,0c0.1-0.1,0.3-0.4,0.4-0.1c0,0.2,0.2,0.3,0.4,0.3c0.2,0,0.1,0.1,0.1,0.3c0,0.2,0.2,0.3,0.3,0.4
				c0.1,0,0.1,0,0.2,0c0.2-0.1,0.4-0.1,0.4-0.3c0.1-0.2,0.1-0.3,0.1-0.5c0-0.3,0.1-0.5,0.1-0.8c0.1-0.2,0-0.5,0.1-0.8
				c0-0.2,0.1-0.4,0.1-0.6C103.6,89.9,103.6,89.9,103.5,89.9L103.5,89.9z M101.9,90.9c0,0,0.1,0,0.1,0.1c0,0.1,0,0.2,0.1,0.2
				c0,0,0,0.1,0,0.1c0,0-0.1,0-0.2,0c-0.1,0-0.2,0-0.3-0.1l0,0l0.1,0c0,0,0.1-0.1,0.1-0.1C101.8,90.9,101.8,90.9,101.9,90.9
				L101.9,90.9z"/>
			<path class="st2" d="M117.7,89c-0.1,0-0.3,0-0.4,0.1c-0.2,0-0.4,0.2-0.1,0.4c0.1,0.4,0.4-0.1,0.6,0c0.3,0.1,0.4,0.4,0.4,0.7
				c0,0.3,0.1,0.5,0.2,0.8c0.2,0.3-0.2,0.4-0.3,0.2c-0.1-0.2-0.5-0.4-0.6-0.1c-0.2,0.1-0.2,0.4-0.4,0.5c-0.3,0.1-0.3-0.3-0.5-0.4
				c-0.1-0.2-0.4-0.2-0.6-0.3c-0.1-0.2,0-0.6-0.3-0.7c-0.2,0.1-0.5,0.4-0.2,0.6c0.3,0.2-0.1,0.3-0.2,0.5c-0.2,0.2-0.2,0.5-0.2,0.7
				c-0.3,0.2-0.4-0.2-0.4-0.4c0-0.3-0.2-0.2-0.4-0.1c-0.2,0.1-0.3,0.3-0.5,0.5c0,0.2,0,0.3,0,0.5c0.1,0.2,0.3,0.1,0.4,0.1
				c0.2-0.1,0.3,0.2,0.1,0.3c-0.1,0.2-0.5,0.1-0.5,0.3c0.1,0,0.3,0,0.4,0c0.3-0.1,0.5-0.3,0.6-0.5c0-0.3,0.4-0.2,0.6-0.3
				c0.2-0.1,0.6-0.1,0.6,0.2c0.2,0.2,0.5,0.4,0.7,0.1c0.2-0.1,0.3-0.3,0.3-0.5c0-0.2,0.3-0.2,0.4-0.1c0.1,0.2,0.5,0.1,0.7,0
				c0.2-0.1,0.2-0.4,0.5-0.4c0.4-0.1,0.9-0.2,1.3-0.4c0.3-0.1-0.1-0.3-0.1-0.4c-0.3-0.1-0.5,0.4-0.8,0.1c-0.2-0.2-0.2-0.5-0.3-0.8
				c-0.1-0.3,0-0.7-0.3-1C118.2,89.1,117.9,89,117.7,89L117.7,89z M116.1,91.3c0,0,0.1,0,0.1,0c0.1,0.1,0.2,0.2,0.2,0.2
				c0,0.1,0,0.1-0.1,0.1c0,0-0.1,0-0.1,0c0,0-0.1-0.1-0.2-0.1c0,0,0-0.1,0-0.1C116,91.4,116,91.4,116.1,91.3
				C116,91.3,116.1,91.3,116.1,91.3z M117.7,91.4c0.1,0,0.1,0,0.2,0.1c0,0.1,0,0.1-0.1,0.2c0,0-0.1,0-0.1,0c0,0,0,0-0.1-0.1
				c-0.1,0-0.1-0.1-0.1-0.1C117.5,91.5,117.5,91.4,117.7,91.4z M115.5,91.4C115.5,91.4,115.6,91.4,115.5,91.4
				c0.1,0.1,0.1,0.1,0.2,0.2c0,0.1,0,0.1,0,0.2c0,0.1,0,0.1-0.1,0.1c-0.2,0-0.2,0-0.2-0.2C115.4,91.5,115.4,91.5,115.5,91.4
				C115.4,91.4,115.5,91.4,115.5,91.4z M114.2,91.7c0,0,0.1,0,0.1,0.1c0,0.1,0,0.1-0.1,0.1c-0.1,0-0.2,0-0.2,0c0,0,0,0,0,0
				c0,0,0,0,0-0.1c0,0,0,0,0,0c0,0,0,0,0-0.1C114.1,91.8,114.1,91.7,114.2,91.7L114.2,91.7z M116.4,92c0,0,0.1,0,0.1,0
				c0,0,0,0.1,0,0.1c0,0-0.2,0-0.3,0c0,0,0,0,0-0.1c0,0,0-0.1,0.1-0.1C116.3,92,116.4,92,116.4,92L116.4,92z"/>
			<path class="st2" d="M112.3,93.2C112.3,93.2,112.2,93.2,112.3,93.2c0-0.1,0.1-0.2,0.2-0.2c0.1-0.1,0.2-0.2,0.3-0.3
				c0-0.1,0.1-0.1,0.1-0.2c0-0.1,0-0.2,0-0.3c0-0.1-0.1-0.2-0.2-0.2c-0.1,0-0.2-0.1-0.2-0.1c0-0.1,0.1-0.1,0.1-0.2
				c0.1-0.1,0.1-0.2,0.2-0.3c0.1-0.1,0.2,0,0.2,0.1c0,0.1,0.1,0.1,0.1,0.2c0.1,0.1,0.1,0.2,0.2,0.3c0,0.1,0.1,0.1,0.1,0.2
				c0,0.1,0.1,0.2,0.1,0.3c0,0.1,0,0.3,0,0.4c0,0.1-0.1,0.1-0.1,0.2c-0.1,0.1-0.2,0.1-0.3,0.2c-0.1,0-0.1,0.1-0.2,0.1
				C112.6,93.2,112.4,93.2,112.3,93.2C112.3,93.2,112.3,93.2,112.3,93.2L112.3,93.2z"/>
			<path class="st2" d="M110.6,93.3c-0.1-0.1-0.1-0.1-0.1-0.1c0-0.1,0-0.1,0.1-0.1c0.1-0.1,0.2-0.1,0.3,0c0.2,0.1,0.2,0.1,0.2,0
				c0-0.1,0.1-0.1,0.2-0.1c0.1,0,0.1,0,0.1,0c0.1,0,0.1,0.1,0.1,0.2c0,0.1,0,0.1-0.1,0.2c-0.1,0.1-0.1,0.1-0.2,0.1
				c-0.1,0-0.2-0.1-0.2-0.1c0-0.1,0-0.1,0,0c0,0,0,0-0.1,0c0,0-0.1,0.1-0.2,0.1c0,0-0.1,0-0.1,0C110.7,93.4,110.7,93.4,110.6,93.3
				L110.6,93.3z"/>
			<path class="st2" d="M105.9,91.2c-0.2,0-0.3,0.1-0.4,0.3c0,0.2,0.2,0.4,0.1,0.5c0.1,0.2-0.2,0.3-0.4,0.2
				c-0.1-0.2-0.2-0.5-0.3-0.7c-0.2-0.1-0.3,0.3-0.4,0.4c0.1,0.2,0.3,0.3,0.3,0.6c0,0.2-0.1,0.5-0.3,0.6c-0.2,0.2-0.4,0.1-0.6,0.1
				c-0.2,0.1,0.2,0.2,0.3,0.2c0.3,0,0.5,0,0.7-0.2c0.2-0.1,0.2-0.4,0.4-0.4c0.4,0,0.8,0.1,1.1,0.1c0.2,0,0.5,0,0.7,0.1
				c0,0.3,0.2,0.4,0.4,0.5c0.1,0,0.2-0.1,0.4-0.1c0.2-0.1,0.2-0.4,0.3-0.5c0.4,0,0.8,0,1.2,0c0.1,0,0.1-0.1,0.1-0.2
				c0-0.2,0-0.3,0-0.5c-0.1-0.2,0-0.4-0.1-0.6c-0.2-0.1-0.4,0.1-0.6,0.1c-0.2,0.1-0.4,0.3-0.4,0.6c-0.1,0.2-0.3,0-0.3-0.2
				c0-0.1,0-0.2,0-0.2c-0.1-0.1-0.3-0.1-0.5-0.1c-0.2,0-0.5,0-0.7,0c-0.2,0-0.4,0-0.6,0c-0.2,0-0.2-0.2-0.3-0.4
				C106,91.2,105.9,91.2,105.9,91.2L105.9,91.2z M106.4,92c0.1,0,0.2,0,0.2,0c0.1,0,0.2,0,0.3,0c0.2,0,0.5,0,0.7,0.1
				c0.1,0,0.1,0,0.2,0.1c0,0.2,0,0.3,0,0.5c0,0.1,0,0.1,0,0.2c0,0,0,0-0.1,0c-0.1,0-0.1-0.1-0.2-0.1c0-0.1,0-0.2,0-0.3
				c0,0,0-0.1,0-0.1c-0.1,0-0.1-0.1-0.2-0.1c-0.2,0-0.4,0-0.6,0c-0.2,0-0.3,0-0.5,0c-0.1,0-0.1,0-0.2-0.1c-0.1-0.1,0-0.1,0.1-0.2
				C106.2,92.1,106.3,92,106.4,92L106.4,92z M109.1,92.1C109.1,92.1,109.1,92.1,109.1,92.1c0.1,0.1,0.1,0.2,0.1,0.2c0,0,0,0,0,0.1
				c-0.1,0-0.2,0-0.3,0c0,0,0-0.1,0-0.1C109,92.1,109,92.1,109.1,92.1L109.1,92.1z"/>
		</g>
	</g>
	<g>
		<path class="st0" d="M108,78.5c7.8-6,7.2-14.9,7.2-14.9c-0.2,0-0.4,0.1-0.6,0.1c-1.6,0-5.6-0.9-6.5-2.1c-1,1.1-5,2.1-6.6,2.1
			c-0.2,0-0.4,0-0.6-0.1C100.8,63.7,100.2,72.5,108,78.5L108,78.5z"/>
		<path class="st2" d="M108,78.7L108,78.7c-7.9-6.1-7.3-14.9-7.3-15l0-0.2l0.2,0c0.2,0,0.4,0.1,0.6,0.1c1.7,0,5.6-1.1,6.5-2.1
			l0.1-0.1l0.1,0.1c0.9,1.1,4.8,2.1,6.4,2.1c0.2,0,0.4,0,0.6-0.1l0.2,0l0,0.2C115.3,63.8,115.9,72.6,108,78.7L108,78.7z M101,63.8
			c0,1.2,0,9,7,14.5c7-5.5,7.1-13.3,7-14.5c-0.2,0-0.3,0-0.5,0c-1.6,0-5.4-0.9-6.5-2.1c-1.2,1.1-5.1,2.1-6.6,2.1
			C101.3,63.9,101.1,63.9,101,63.8z"/>
	</g>
	<g>
		<path class="st0" d="M114.5,64.3c-0.1,0-0.1,0-0.2,0c-1.5,0-4.9-0.8-6.3-1.9c-1.4,1.1-4.9,1.9-6.4,1.9c-0.1,0-0.1,0-0.2,0
			c0,0.3,0,0.7,0,1c0.1,1.2,0.3,2.4,0.6,3.5c1,3.6,3,6.6,5.9,8.9c2.9-2.3,4.9-5.3,5.9-8.9c0.3-1.1,0.5-2.3,0.6-3.5
			C114.5,65,114.5,64.7,114.5,64.3L114.5,64.3z"/>
		<path class="st2" d="M108,77.9L108,77.9c-3-2.4-5-5.5-6-9c-0.3-1.2-0.5-2.3-0.6-3.5c0-0.3,0-0.6,0-1l0-0.1l0.1,0
			c0.1,0,0.1,0,0.2,0c1.5,0,5-0.9,6.3-1.9l0.1-0.1l0.1,0.1c1.3,1.1,4.8,1.9,6.2,1.9c0.1,0,0.1,0,0.2,0l0.1,0l0,0.1c0,0.4,0,0.7,0,1
			c-0.1,1.2-0.3,2.3-0.6,3.5C113,72.4,111,75.5,108,77.9L108,77.9z M101.6,64.4c0,0.3,0,0.6,0,0.9c0.1,1.2,0.3,2.3,0.6,3.5
			c1,3.5,2.9,6.5,5.8,8.8c2.9-2.3,4.8-5.3,5.8-8.8c0.3-1.2,0.5-2.3,0.6-3.5c0-0.2,0-0.5,0-0.9c0,0-0.1,0-0.1,0
			c-1.4,0-4.8-0.7-6.3-1.9C106.6,63.6,103.2,64.4,101.6,64.4C101.6,64.4,101.6,64.4,101.6,64.4z"/>
	</g>
	<path class="st2" d="M105.5,63.6c-1.4,0.4-2.9,0.7-3.8,0.7c-0.1,0-0.1,0-0.2,0c0,0.3,0,0.7,0,1c0.1,1.2,0.3,2.4,0.6,3.5
		c0.7,2.4,1.8,4.6,3.4,6.4L105.5,63.6L105.5,63.6z"/>
	<path class="st2" d="M110.4,63.6v11.8c1.6-1.9,2.8-4.1,3.5-6.6c0.3-1.1,0.5-2.3,0.6-3.5c0-0.3,0-0.6,0-1c-0.1,0-0.1,0-0.2,0
		C113.4,64.3,111.8,64.1,110.4,63.6L110.4,63.6z"/>
	<g>
		<g>
			<path class="st0" d="M111,60.7c0.2,0-0.2-0.9-0.2-0.9c0.4,0.4,2,0.5,2,0.5c-1-0.4-1.9-3.6-1.8-6.2c0.1-2.6-0.4-3.6-0.7-3.9
				c-0.5-0.5-2-0.9-3-1c-0.6,0-0.5,0.4-0.5,0.4c-1.1-0.3-2.1-0.4-2.6-0.1c-0.5,0.3-0.5,1.8-0.2,1.5c0.8-0.6,1.5-0.1,2,0.6
				c0.4,0.6,0.4,2.3-0.2,4.4c-0.6,2.1-2.4,4.3-2.4,4.3c1,0,2.3-0.8,2.3-0.8l-0.3,1.3c1-0.5,1.8-1.2,1.8-1.2l1,1c0.3-0.4,1-1,1-1
				S109.7,60.6,111,60.7L111,60.7z"/>
			<path class="st2" d="M105,61.3l0.3-1.3c-0.5,0.3-1.4,0.7-2.1,0.7h-0.3l0.2-0.2c0,0,1.7-2.1,2.4-4.2c0.6-2.1,0.6-3.7,0.2-4.2
				c-0.3-0.5-0.7-0.8-1-0.8c-0.2,0-0.5,0-0.7,0.2c-0.1,0.1-0.2,0.1-0.2,0c-0.1,0-0.2-0.2-0.2-0.4c0-0.4,0.1-1.2,0.5-1.5
				c0.6-0.4,1.8-0.2,2.5,0c0-0.1,0-0.1,0.1-0.2c0.1-0.1,0.3-0.2,0.5-0.2c1.1,0.1,2.6,0.5,3.1,1c0.4,0.4,0.9,1.5,0.8,4.1
				c-0.1,2.6,0.9,5.7,1.7,6l-0.1,0.3c-0.1,0-1.1-0.1-1.7-0.3c0.2,0.5,0.1,0.5,0.1,0.6c0,0.1-0.1,0.1-0.2,0.1l0,0
				c-1-0.1-1.7-0.7-2-0.9c-0.2,0.2-0.6,0.6-0.8,0.9L108,61l-1-1c-0.3,0.2-0.9,0.8-1.7,1.2L105,61.3z M105.8,59.4l-0.3,1.4
				c0.8-0.5,1.5-1,1.5-1.1l0.1-0.1l0.9,1c0.3-0.4,0.8-0.9,0.9-0.9l0.1-0.1l0.1,0.1c0,0,0.7,0.7,1.8,0.9c0-0.1-0.1-0.4-0.2-0.6
				l0.2-0.2c0.2,0.2,0.9,0.4,1.4,0.4c-0.9-1-1.6-3.7-1.5-6c0.1-2.6-0.4-3.5-0.7-3.8c-0.4-0.4-2-0.9-2.9-0.9c-0.1,0-0.2,0-0.3,0.1
				c-0.1,0.1,0,0.2,0,0.2l0,0.2l-0.2-0.1c-1.2-0.3-2.1-0.3-2.5-0.1c-0.1,0.1-0.2,0.3-0.3,0.7c-0.1,0.3,0,0.5,0,0.6
				c0.3-0.2,0.6-0.3,0.9-0.3c0.4,0.1,0.8,0.4,1.2,1c0.5,0.7,0.4,2.5-0.2,4.5c-0.5,1.7-1.7,3.4-2.2,4c0.9-0.1,1.9-0.8,1.9-0.8
				L105.8,59.4z"/>
		</g>
		<path class="st2" d="M105.6,59.8l-0.2-0.2c1-1.1,1.5-4.9,1.5-5l0.3,0C107.2,54.8,106.7,58.6,105.6,59.8z"/>
		<path class="st2" d="M107.1,59.9l-0.3-0.1c0.7-1.2,0.9-5.2,0.9-5.2l0.3,0C108.1,54.7,107.9,58.6,107.1,59.9z"/>
		<path class="st2" d="M108.8,59.8c-0.3-0.8-0.3-5-0.3-5.2h0.3c0,1.2,0,4.5,0.3,5.1L108.8,59.8z"/>
		<path class="st2" d="M110.6,60c-0.9-1.3-1.1-4.9-1.1-5.1l0.3,0c0,0,0.2,3.6,1.1,4.9L110.6,60z"/>
		<g>
			<path class="st2" d="M106.1,52.7c0-0.3-0.1-0.6-0.3-0.8c-0.5-0.7-1.2-1.3-2-0.6c0,0,0.3-0.8,0.9-0.9c0.5,0,1.5,0.3,2.4,1.9
				c0,0-0.7-0.2-0.8,0C106,52.5,106.1,52.7,106.1,52.7L106.1,52.7z"/>
			<path class="st2" d="M106.1,52.7c0,0,0-0.1,0-0.2c0-0.3-0.1-0.5-0.2-0.6c-0.4-0.5-0.7-0.8-1.1-0.9c-0.3,0-0.5,0-0.8,0.3l-0.1,0.1
				l0-0.1c0,0,0.3-0.9,0.9-0.9c0.5,0,1.5,0.3,2.4,1.9l0,0.1l-0.1,0c-0.3-0.1-0.7-0.1-0.8,0c-0.1,0.1-0.2,0.2-0.2,0.3
				C106.1,52.6,106.1,52.7,106.1,52.7L106.1,52.7z M104.6,50.9c0,0,0.1,0,0.1,0c0.4,0.1,0.8,0.4,1.2,0.9c0.1,0.1,0.2,0.3,0.2,0.5
				c0-0.1,0.1-0.1,0.2-0.2c0.1-0.1,0.6-0.1,0.8,0c-0.9-1.5-1.9-1.8-2.3-1.8c-0.4,0-0.7,0.5-0.8,0.7C104.2,51,104.4,50.9,104.6,50.9z
				"/>
		</g>
		<g>
			<path class="st2" d="M103.8,50.2c0.1-0.2,0.2-0.4,0.3-0.5c0.5-0.3,1.5-0.2,2.6,0.1c0,0-0.1-0.5,0.5-0.4c1,0.1,2.6,0.5,3,1
				c0.1,0.1,0.2,0.3,0.4,0.6h0c-0.2-0.3-0.9-0.3-1.1-0.3c-0.3,0-0.4,0-0.8,0.1c-0.2,0-0.4,0.1-0.5,0.2c-0.1,0.1-0.2,0.4-0.3,0.4
				c-0.3,0-0.2-0.1-0.3-0.1c-0.1-0.1-0.1-0.3-0.2-0.2c-0.3,0-0.7-0.2-1.2-0.6c-0.5-0.4-0.7-0.5-1.4-0.5
				C104,49.9,103.8,50.3,103.8,50.2L103.8,50.2L103.8,50.2z"/>
			<path class="st2" d="M107.9,51.3c-0.2,0-0.3,0-0.3-0.1c0,0,0,0,0,0c0,0-0.1-0.1-0.1-0.1c0-0.1-0.1-0.1-0.1-0.1c0,0,0,0,0,0
				c-0.3,0-0.7-0.2-1.3-0.6c-0.5-0.4-0.7-0.5-1.4-0.5c-0.7,0.1-0.9,0.4-0.9,0.4l-0.1,0l0,0c0-0.1,0.1-0.4,0.3-0.5
				c0.6-0.4,1.8-0.1,2.6,0c0-0.1,0-0.2,0.1-0.3c0.1-0.1,0.2-0.2,0.4-0.1c1,0.1,2.6,0.5,3.1,1c0.2,0.2,0.3,0.4,0.4,0.6l0,0.1h-0.1
				l0,0c-0.2-0.3-0.8-0.3-1-0.3c-0.1,0-0.1,0-0.2,0c-0.2,0-0.3,0-0.6,0.1l-0.1,0c-0.2,0-0.4,0.1-0.5,0.2c0,0-0.1,0.1-0.1,0.1
				C108.1,51.2,108,51.3,107.9,51.3z M107.3,50.8c0.1,0,0.1,0.1,0.2,0.2c0,0,0,0.1,0.1,0.1c0,0,0,0,0,0c0,0,0.1,0.1,0.2,0.1
				c0.1,0,0.1-0.1,0.2-0.2c0-0.1,0.1-0.1,0.1-0.2c0.1-0.1,0.3-0.1,0.5-0.2l0.1,0c0.2-0.1,0.4-0.1,0.6-0.1c0.1,0,0.1,0,0.2,0
				c0,0,0.6-0.1,1,0.2c-0.1-0.1-0.2-0.3-0.3-0.4c-0.5-0.5-2-0.9-3-0.9c-0.2,0-0.3,0-0.4,0.1c-0.1,0.1-0.1,0.3-0.1,0.3l0,0.1l-0.1,0
				c-1.2-0.3-2.2-0.3-2.6-0.1c-0.1,0.1-0.2,0.2-0.2,0.3c0.1-0.1,0.4-0.3,0.8-0.3c0.7,0,0.9,0.1,1.5,0.5
				C106.7,50.7,107.1,50.9,107.3,50.8C107.3,50.8,107.3,50.8,107.3,50.8z"/>
		</g>
		<circle class="st0" cx="107.7" cy="50.6" r="0.3"/>
	</g>
</g>
</svg>
