<?xml version="1.0" encoding="utf-8"?>
<!-- Generator: Adobe Illustrator 22.1.0, SVG Export Plug-In . SVG Version: 6.00 Build 0)  -->
<svg version="1.1" id="layer_1" xmlns="http://www.w3.org/2000/svg" xmlns:xlink="http://www.w3.org/1999/xlink" x="0px" y="0px"
	 viewBox="0 0 216 144" style="enable-background:new 0 0 216 144;" xml:space="preserve">
<style type="text/css">
	.st0{fill:#2E3E6B;}
	.st1{fill:#FFFFFF;}
	.st2{fill:#C4524E;}
</style>
<rect y="0.5" class="st0" width="216" height="144"/>
<polygon class="st1" points="0,48.5 45.6,48.5 0,18 0,0.5 26.1,0.5 89.9,42.9 89.9,0.5 125.9,0.5 125.9,42.9 189.7,0.5 216,0.5 
	216,18 170.2,48.5 216,48.5 216,96.5 170.2,96.5 216,127 216,144.5 189.7,144.5 125.9,102.1 125.9,144.5 89.9,144.5 89.9,102.1 
	26.1,144.5 0,144.5 0,127 45.6,96.5 0,96.5 "/>
<g>
	<polygon class="st2" points="199,0.5 126.9,48.5 144.2,48.5 216,0.5 	"/>
	<polygon class="st2" points="216,144.5 144.1,96.5 161.4,96.5 216,133 	"/>
	<polygon class="st2" points="72.2,48.5 0,0.5 0,12 54.8,48.5 	"/>
	<polygon class="st2" points="72.1,96.5 0,144.5 17.2,144.5 89.3,96.5 	"/>
	<polygon class="st2" points="0,58.5 97.6,58.5 97.6,0.5 118.7,0.5 118.7,58.5 216,58.5 216,86.6 118.7,86.6 118.7,144.5 
		97.6,144.5 97.6,86.6 0,86.6 	"/>
</g>
</svg>
