<?xml version="1.0" encoding="utf-8"?>
<!-- Generator: Adobe Illustrator 22.1.0, SVG Export Plug-In . SVG Version: 6.00 Build 0)  -->
<svg version="1.1" id="layer_1" xmlns="http://www.w3.org/2000/svg" xmlns:xlink="http://www.w3.org/1999/xlink" x="0px" y="0px"
	 viewBox="0 0 216 144" style="enable-background:new 0 0 216 144;" xml:space="preserve">
<style type="text/css">
	.st0{fill:#FFFFFF;}
	.st1{fill:#FF0000;}
	.st2{clip-path:url(#SVGID_2_);fill:#FF0000;}
	.st3{clip-path:url(#SVGID_4_);fill:#FF0000;}
	.st4{clip-path:url(#SVGID_6_);fill:#FF0000;}
	.st5{clip-path:url(#SVGID_8_);fill:#FF0000;}
	.st6{clip-path:url(#SVGID_10_);fill:#FF0000;}
	.st7{clip-path:url(#SVGID_12_);fill:#FF0000;}
	.st8{clip-path:url(#SVGID_14_);fill:#FF0000;}
	.st9{clip-path:url(#SVGID_16_);fill:#FF0000;}
</style>
<rect x="0.1" y="0" class="st0" width="215.9" height="143.9"/>
<path class="st1" d="M93.6,0v57.6H0.1v28.8h93.5V144h28.8V86.4h93.5V57.6h-93.5V0H93.6z"/>
<g>
	<g id="smallcross">
		<g>
			<defs>
				<path id="SVGID_1_" d="M-32,103.3c41.3,0,74.8-33.5,74.8-74.8S9.3-46.4-32-46.4h156.9C83.5-46.4,50-12.9,50,28.4
					s33.5,74.8,74.8,74.8H-32z"/>
			</defs>
			<clipPath id="SVGID_2_">
				<use xlink:href="#SVGID_1_"  style="overflow:visible;"/>
			</clipPath>
			<path id="varm" class="st2" d="M6.9,81.7c0-21.9,17.7-39.6,39.6-39.6S86,59.8,86,81.7V-24.8C86-3,68.3,14.8,46.4,14.8
				S6.9-3,6.9-24.8V81.7z"/>
		</g>
		<g transform="translate(64.45,39.45)">
			<g>
				<defs>
					<path id="SVGID_3_" d="M-28.4-50c0,41.3,33.5,74.8,74.8,74.8S121.3-8.7,121.3-50v156.9c0-41.3-33.5-74.8-74.8-74.8
						s-74.8,33.5-74.8,74.8V-50z"/>
				</defs>
				<clipPath id="SVGID_4_">
					<use xlink:href="#SVGID_3_"  style="overflow:visible;"/>
				</clipPath>
				<path id="varm_1_" class="st3" d="M-6.8-11.1c21.9,0,39.6,17.7,39.6,39.6S15,68-6.8,68H99.7c-21.9,0-39.6-17.7-39.6-39.6
					s17.7-39.6,39.6-39.6H-6.8z"/>
			</g>
		</g>
	</g>
	<g>
		<g id="smallcross_1_">
			<g>
				<defs>
					<path id="SVGID_5_" d="M91.1,190.4c41.3,0,74.8-33.5,74.8-74.8s-33.5-74.8-74.8-74.8H248c-41.3,0-74.8,33.5-74.8,74.8
						s33.5,74.8,74.8,74.8H91.1z"/>
				</defs>
				<clipPath id="SVGID_6_">
					<use xlink:href="#SVGID_5_"  style="overflow:visible;"/>
				</clipPath>
				<path id="varm_2_" class="st4" d="M130,168.8c0-21.9,17.7-39.6,39.6-39.6s39.6,17.7,39.6,39.6V62.3c0,21.9-17.7,39.6-39.6,39.6
					S130,84.2,130,62.3V168.8z"/>
			</g>
			<g transform="translate(235.55,160.55)">
				<g>
					<defs>
						<path id="SVGID_7_" d="M94.7,37.1c0,41.3,33.5,74.8,74.8,74.8s74.8-33.5,74.8-74.8V194c0-41.3-33.5-74.8-74.8-74.8
							S94.7,152.7,94.7,194V37.1z"/>
					</defs>
					<clipPath id="SVGID_8_">
						<use xlink:href="#SVGID_7_"  style="overflow:visible;"/>
					</clipPath>
					<path id="varm_3_" class="st5" d="M116.3,76c21.9,0,39.6,17.7,39.6,39.6s-17.7,39.6-39.6,39.6h106.5
						c-21.9,0-39.6-17.7-39.6-39.6S201,76,222.8,76H116.3z"/>
				</g>
			</g>
		</g>
		<g>
			<g id="smallcross_2_">
				<g>
					<defs>
						<path id="SVGID_9_" d="M91.1,103.3c41.3,0,74.8-33.5,74.8-74.8s-33.5-74.8-74.8-74.8H248c-41.3,0-74.8,33.5-74.8,74.8
							s33.5,74.8,74.8,74.8H91.1z"/>
					</defs>
					<clipPath id="SVGID_10_">
						<use xlink:href="#SVGID_9_"  style="overflow:visible;"/>
					</clipPath>
					<path id="varm_4_" class="st6" d="M130,81.7c0-21.9,17.7-39.6,39.6-39.6s39.6,17.7,39.6,39.6V-24.8c0,21.9-17.7,39.6-39.6,39.6
						S130-3,130-24.8V81.7z"/>
				</g>
				<g transform="translate(235.55,39.45)">
					<g>
						<defs>
							<path id="SVGID_11_" d="M94.7-50c0,41.3,33.5,74.8,74.8,74.8S244.4-8.7,244.4-50v156.9c0-41.3-33.5-74.8-74.8-74.8
								s-74.8,33.5-74.8,74.8V-50z"/>
						</defs>
						<clipPath id="SVGID_12_">
							<use xlink:href="#SVGID_11_"  style="overflow:visible;"/>
						</clipPath>
						<path id="varm_5_" class="st7" d="M116.3-11.1c21.9,0,39.6,17.7,39.6,39.6S138.2,68,116.3,68h106.5
							c-21.9,0-39.6-17.7-39.6-39.6s17.7-39.6,39.6-39.6H116.3z"/>
					</g>
				</g>
			</g>
			<g>
				<g id="smallcross_3_">
					<g>
						<defs>
							<path id="SVGID_13_" d="M-32,190.4c41.3,0,74.8-33.5,74.8-74.8S9.3,40.7-32,40.7h156.9C83.5,40.7,50,74.2,50,115.6
								s33.5,74.8,74.8,74.8H-32z"/>
						</defs>
						<clipPath id="SVGID_14_">
							<use xlink:href="#SVGID_13_"  style="overflow:visible;"/>
						</clipPath>
						<path id="varm_6_" class="st8" d="M6.9,168.8c0-21.9,17.7-39.6,39.6-39.6S86,147,86,168.8V62.3c0,21.9-17.7,39.6-39.6,39.6
							S6.9,84.2,6.9,62.3V168.8z"/>
					</g>
					<g transform="translate(64.45,160.55)">
						<g>
							<defs>
								<path id="SVGID_15_" d="M-28.4,37.1c0,41.3,33.5,74.8,74.8,74.8s74.8-33.5,74.8-74.8V194c0-41.3-33.5-74.8-74.8-74.8
									s-74.8,33.5-74.8,74.8V37.1z"/>
							</defs>
							<clipPath id="SVGID_16_">
								<use xlink:href="#SVGID_15_"  style="overflow:visible;"/>
							</clipPath>
							<path id="varm_7_" class="st9" d="M-6.8,76c21.9,0,39.6,17.7,39.6,39.6S15,155.1-6.8,155.1H99.7c-21.9,0-39.6-17.7-39.6-39.6
								S77.8,76,99.7,76H-6.8z"/>
						</g>
					</g>
				</g>
			</g>
		</g>
	</g>
</g>
</svg>
