<?xml version="1.0" encoding="utf-8"?>
<!-- Generator: Adobe Illustrator 22.1.0, SVG Export Plug-In . SVG Version: 6.00 Build 0)  -->
<svg version="1.1" id="layer_1" xmlns="http://www.w3.org/2000/svg" xmlns:xlink="http://www.w3.org/1999/xlink" x="0px" y="0px"
	 viewBox="0 0 216 144" style="enable-background:new 0 0 216 144;" xml:space="preserve">
<style type="text/css">
	.st0{fill:#FFFFFF;}
	.st1{fill:#40548B;}
</style>
<rect y="48.5" class="st0" width="216" height="48"/>
<g>
	<polygon class="st1" points="108.5,64.2 106.7,69.9 100.6,69.9 105.5,73.5 103.6,79.2 108.5,75.7 113.4,79.2 111.5,73.5 116.4,70 
		110.4,70 	"/>
	<polygon class="st1" points="128.5,51.9 126.7,57.7 120.6,57.7 125.5,61.2 123.6,66.9 128.5,63.4 133.4,66.9 131.5,61.2 
		136.4,57.7 130.4,57.7 	"/>
	<polygon class="st1" points="128.5,76.5 130.3,82.2 136.4,82.2 131.5,85.8 133.4,91.5 128.5,88 123.6,91.5 125.5,85.7 120.6,82.3 
		126.6,82.3 	"/>
	<polygon class="st1" points="88.5,51.9 90.3,57.7 96.4,57.7 91.5,61.2 93.4,66.9 88.5,63.4 83.6,66.9 85.5,61.2 80.6,57.7 
		86.6,57.7 	"/>
	<polygon class="st1" points="88.5,76.5 86.7,82.2 80.6,82.2 85.5,85.8 83.6,91.5 88.5,88 93.4,91.5 91.5,85.7 96.4,82.3 90.4,82.3 
			"/>
</g>
<g>
	<rect y="96.5" class="st1" width="216" height="48"/>
	<rect y="0.5" class="st1" width="216" height="48"/>
</g>
</svg>
