<?xml version="1.0" encoding="utf-8"?>
<!-- Generator: Adobe Illustrator 22.1.0, SVG Export Plug-In . SVG Version: 6.00 Build 0)  -->
<svg version="1.1" id="layer_1" xmlns="http://www.w3.org/2000/svg" xmlns:xlink="http://www.w3.org/1999/xlink" x="0px" y="0px"
	 viewBox="0 0 216 144" style="enable-background:new 0 0 216 144;" xml:space="preserve">
<style type="text/css">
	.st0{fill:#FFFFFF;}
	.st1{fill:#4A81C3;}
</style>
<g>
	<rect x="0.2" y="-0.2" class="st0" width="215.7" height="144"/>
	<rect x="0.2" y="-0.2" class="st0" width="215.7" height="144"/>
</g>
<g>
	<rect x="0.2" y="15.8" class="st1" width="215.7" height="16"/>
	<path class="st1" d="M108.1,23.8"/>
</g>
<g>
	<rect x="0.2" y="111.8" class="st1" width="215.7" height="16"/>
	<path class="st1" d="M108.1,119.8"/>
</g>
<path class="st1" d="M119.4,53.9h20.3l-10,17.5l10,17.4h-20.3l-10.3,18l-10.4-18H78.5l9.9-17.4l-9.9-17.5h20.2l10.4-17.8L119.4,53.9
	z M92.8,71.4l8.1,14h16.5l8.1-14l-8.1-14h-16.5L92.8,71.4z M102.8,53.9h12.4l-6.1-10.9L102.8,53.9z M127.6,67.6l5.9-10.1h-12
	L127.6,67.6z M121.7,85.4h11.7l-5.8-10.2L121.7,85.4z M103.3,88.8l5.8,10.6l6.4-10.6H103.3z M90.6,75.1l-6.1,10.2h12.2L90.6,75.1z
	 M96.5,57.4H84.7l5.9,10.1L96.5,57.4z"/>
</svg>
