<?xml version="1.0" encoding="utf-8"?>
<!-- Generator: Adobe Illustrator 22.1.0, SVG Export Plug-In . SVG Version: 6.00 Build 0)  -->
<svg version="1.1" id="layer_1" xmlns="http://www.w3.org/2000/svg" xmlns:xlink="http://www.w3.org/1999/xlink" x="0px" y="0px"
	 viewBox="0 0 216 144" style="enable-background:new 0 0 216 144;" xml:space="preserve">
<style type="text/css">
	.st0{fill:#D14A43;}
	.st1{fill:#52AB62;}
</style>
<rect y="-0.2" class="st0" width="216" height="144"/>
<path class="st1" d="M84.3,103l8.4-25.8L70.8,61.4h27.1l8.4-25.8l8.4,25.8h27.1l-21.9,15.9l8.4,25.7l-21.9-15.9L84.3,103z
	 M95.8,79.6l-4.5,13.9l11.8-8.6L95.8,79.6z M109.4,84.8l11.8,8.5l-4.5-13.8L109.4,84.8z M97,75.9l9.2,6.7l9.2-6.7L111.9,65h-11.4
	L97,75.9z M115.8,65l2.8,8.6l11.8-8.6H115.8z M82.1,65l11.8,8.5l2.8-8.5H82.1z M101.7,61.4h9l-4.5-13.9L101.7,61.4z"/>
</svg>
