<?xml version="1.0" encoding="utf-8"?>
<!-- Generator: Adobe Illustrator 22.1.0, SVG Export Plug-In . SVG Version: 6.00 Build 0)  -->
<svg version="1.1" id="layer_1" xmlns="http://www.w3.org/2000/svg" xmlns:xlink="http://www.w3.org/1999/xlink" x="0px" y="0px"
	 viewBox="0 0 216 144" style="enable-background:new 0 0 216 144;" xml:space="preserve">
<style type="text/css">
	.st0{fill:#D3AE3B;}
	.st1{fill:#C40308;}
	.st2{fill:#B96B29;}
	.st3{fill:#D4AF3A;}
	.st4{fill:#1D5E91;}
	.st5{fill:#6D8C3E;}
	.st6{fill:#C52126;}
</style>
<rect class="st0" width="216" height="144"/>
<rect x="5.4" y="7.2" class="st1" width="205.6" height="129.6"/>
<g>
	<path class="st2" d="M136.3,70.8c0.8-0.2,3.8-1.1,5.8-2.8c2.1-1.7,2.5-3,2.6-3.7c0.2-0.7,0.2-1.3-0.3-0.9c-0.5,0.4-2.1,1.7-3.2,2.3
		c-1.1,0.6-2.1,0.9-2.7,1.1c-0.6,0.2-1.1,0.3-0.5,0c0.6-0.2,2.4-0.9,3.9-2.3c1.4-1.4,2.6-3.6,2.6-4.9c0-1.3-0.1-1.2-0.5-0.9
		c-0.4,0.3-1.9,2.2-2.8,2.9c-0.9,0.7-2.2,1.7-2.9,2.1c-0.7,0.4-1.7,0.9-0.3-0.1c1.3-0.9,3.9-3.1,4.9-5.9c1-2.8,0.9-4.5,0.8-4.8
		c0-0.3-0.3-0.9-0.5-0.3c-0.2,0.5-1.9,3.9-3.3,5.4c-1.4,1.5-1,1.2-1.3,1.4c-0.3,0.2-0.8,0.7-0.2-0.2c0.7-0.8,2-2.7,2.7-4.6
		c0.7-1.9,0.9-3.8,0.9-4.9c0-1.1-0.4-2.6-0.7-3c-0.2-0.5-0.4-0.8-0.5-0.3c-0.1,0.5-1.2,3.9-1.7,5.5c-0.6,1.6-1.8,3.5-2,3.8
		c-0.2,0.4-0.9,1.1-0.2-0.1c0.7-1.2,1.9-4.8,2.1-8.3c0.2-3.4-0.3-5.3-0.8-6.3c-0.5-0.9-0.9-1.3-0.9-1.3s0.1,2.3-0.6,5.7
		c-0.7,3.4-1.7,5.1-1.7,5.1s-0.4,0.5-0.1-0.3c0.2-0.5,0.6-1.7,0.8-3.8c0.2-2.1,0.2-4.5-0.4-6.6c-0.7-2.2-1.8-3.4-1.8-3.4
		c-0.3,3.2-0.3,7.4-1.4,10.7c-0.2-0.2-0.5-0.6-0.6,0.2c-0.2,1.1-0.6,3.2-2.1,5.8c-1.5,2.6-2,3-2,3s-0.3-0.6-0.5-1
		c-0.2-0.3-0.3-0.5-0.5-0.1c-0.2,0.5-1,2.3-2.8,4.4c-1.8,2-2.8,3-2.7,4.6c0.1,1.5,0.9,2.3,1.9,3c1.1,0.7,1.3,1.1,1.1,1.9
		c-0.2,0.8-1.1,1.1-2,1.2c-0.8,0-1.9-0.1-2.3,0.2c-0.4,0.2-0.4,0.8-0.8,1.1c-0.4,0.4-0.5,0.6-0.9,0.6c-0.1,0-0.2,0-0.3,0
		c-0.1-4,1.5-5.8,1.5-5.8l-4.4-5.1c-0.2,0.1-0.5,0.2-0.7,0.3c0-0.1-0.1-0.1-0.1-0.2c-0.6-0.7-0.8-1.4-0.8-2.3c0.2,0,0.7,0.2,1.1,0.1
		c0.4-0.1,0.1-0.5,0-0.9c-0.1-0.4-0.2-1.7-0.2-2.2c0.1-0.5,0.1-0.7,0.1-0.7s0.6,0.7,1,0.7c0.4,0,0.4-0.4,0.4-0.8
		c0.1-0.7,0.4-1.5,0.9-2c0,0,0.7,0.5,1.5,0.5c0.8,0,1.9-0.2,2.7-1c0.9-0.8,0.8-1,0.8-1s1.6,0.6,2.8,0.6c1.2,0.1,2.5-0.1,3.1-1.4
		c0.6-1.3-0.2-2.4-0.3-2.6c-0.1-0.2-0.5-0.4-0.5,0c0,0.4,0,1.3-0.7,1.8c-0.7,0.5-1.3,0.5-2,0.2c-0.7-0.2-1.7-0.5-2.8-0.3
		c-1,0.1-1.1,0.2-1.1,0.2c0.1-0.1,1-1,1.8-1.3c0.9-0.3,1.4,0.1,1.7,0.5c0.3,0.4,0.6,0.9,0.8,0.1c0.2-0.8,0.1-1.8-0.3-2.4
		c-0.4-0.6-1.3-1-2.1-0.9c-0.9,0.1-1.2,0.2-1.2,0.2s-0.5-1.3-1.6-1.5c-1.4-0.3-3,0.2-4.2,0.9c0,0-1,0.2-1.9-0.1
		c-0.6-0.2-1.3-0.6-1.6-0.8c0.1-0.4,0.3-1.1,0.3-1.1s0.3-0.1,0.6-0.2c0.3-0.1,0.2-0.2,0.3-0.4c0-0.2-0.5-0.7-0.5-0.7
		s-0.1-0.7,0.9-1.2c1-0.5,0.9-0.4,0.9-0.4s0.6,0.1,0.8-0.1c0.2-0.2,0.2-0.3,0.2-0.3s0.4-0.1,0.6-0.4c0.2-0.3,0.2-0.6,0.1-0.9
		c-0.1-0.3-0.3-0.4-0.1-0.5c0.2-0.1,0.3-0.5,0.3-0.7c0-0.2,0-0.3,0-0.3s0.3-0.1,0.3-0.6c0-0.5-0.3-0.7-0.4-0.7c-0.2,0-0.3,0-0.3,0
		s0-0.3-0.3-0.7c-0.3-0.4-0.4-0.6-0.4-0.6s0.2-0.1,0.1-0.5c-0.1-0.3-0.3-0.5-0.6-0.6c-0.2-0.1-0.5,0-0.5,0s-0.8-0.5-1.1-0.6
		c-0.4-0.2-0.4-0.2-0.4-0.2s0-0.3-0.1-0.5c-0.1-0.2-0.4-0.2-0.6-0.2c-0.2,0-0.3,0.1-0.3,0.1s-1.3-0.3-1.8-0.4
		c-0.5-0.1-0.6-0.1-0.6-0.1s-1.1-0.5-1.6-0.6c-0.4-0.1-0.6-0.1-0.6-0.1s0.5-0.6,0.5-1.2c0-0.6-0.4-1.2-0.8-1.5
		c-0.3-0.2-0.4-0.2-0.5-0.2l0-0.4l0.9,0.1l0.1-1.4l-0.8,0.1l0.1-0.8l-1.7,0l0.1,0.8l-0.8-0.1l0.1,1.3l0.9-0.1l-0.1,0.5
		c0,0-0.3,0.1-0.6,0.3c-0.5,0.3-0.8,0.8-0.8,1.4c0,0.6,0.4,1.2,0.4,1.2s-0.1,0-0.6,0.1c-0.4,0.1-1.6,0.6-1.6,0.6s0,0-0.6,0.1
		c-0.5,0.1-1.8,0.4-1.8,0.4s-0.2-0.1-0.3-0.1c-0.2,0-0.5,0.1-0.6,0.2c-0.1,0.2-0.1,0.5-0.1,0.5s-0.1,0-0.4,0.2
		c-0.4,0.2-1.1,0.6-1.1,0.6s-0.2-0.1-0.5,0c-0.2,0.1-0.5,0.3-0.6,0.6c-0.1,0.3,0.1,0.5,0.1,0.5s-0.2,0.2-0.4,0.6
		c-0.3,0.4-0.3,0.7-0.3,0.7s-0.1,0-0.3,0c-0.2,0-0.4,0.2-0.4,0.7c0,0.5,0.3,0.6,0.3,0.6s0,0.1,0,0.3c0,0.2,0.2,0.6,0.3,0.7
		c0.2,0.1,0,0.2-0.1,0.5c-0.1,0.3-0.1,0.7,0.1,0.9c0.2,0.3,0.6,0.4,0.6,0.4s0,0.1,0.2,0.3c0.2,0.2,0.8,0.1,0.8,0.1s-0.1-0.1,0.9,0.4
		c1,0.5,0.9,1.2,0.9,1.2s-0.6,0.4-0.5,0.7c0,0.2,0,0.3,0.3,0.4c0.3,0.1,0.6,0.2,0.6,0.2s0.2,0.7,0.3,1.1c-0.4,0.2-1,0.6-1.6,0.8
		c-1,0.3-1.9,0.1-1.9,0.1c-1.2-0.7-2.8-1.2-4.2-0.9c-1.2,0.2-1.6,1.5-1.6,1.5s-0.3-0.1-1.2-0.2c-0.9-0.1-1.7,0.3-2.1,0.9
		c-0.4,0.6-0.5,1.6-0.3,2.4c0.2,0.8,0.5,0.3,0.8-0.1c0.3-0.4,0.8-0.7,1.7-0.5c0.9,0.3,1.8,1.2,1.8,1.3c0,0-0.2-0.1-1.1-0.2
		c-1.1-0.2-2.1,0.1-2.8,0.3c-0.7,0.2-1.3,0.2-2-0.2c-0.7-0.5-0.7-1.4-0.7-1.8s-0.4-0.2-0.5,0c-0.1,0.2-0.9,1.4-0.3,2.6
		c0.6,1.3,1.9,1.5,3.1,1.4c1.2-0.1,2.8-0.6,2.8-0.6s0,0.2,0.8,1c0.9,0.8,1.9,1,2.7,1s1.5-0.5,1.5-0.5c0.5,0.5,0.8,1.3,0.9,2
		c0.1,0.4,0,0.8,0.4,0.8c0.4,0,1-0.7,1-0.7s0,0.2,0.1,0.7c0.1,0.5,0,1.8-0.2,2.2c-0.1,0.4-0.4,0.8,0,0.9c0.4,0.1,0.8-0.1,1.1-0.1
		c0,1-0.2,1.6-0.8,2.3c-0.1,0.1-0.1,0.1-0.1,0.2c-0.2-0.1-0.4-0.2-0.7-0.3l-4.4,5.1c0,0,1.6,1.8,1.5,5.9v0c-0.1,0-0.2,0-0.3,0
		c-0.3-0.1-0.5-0.3-0.9-0.6c-0.4-0.4-0.4-0.9-0.8-1.1c-0.4-0.2-1.4-0.1-2.3-0.2c-0.8,0-1.8-0.3-2-1.2c-0.2-0.8,0-1.2,1.1-1.9
		c1.1-0.7,1.9-1.5,1.9-3c0.1-1.5-0.9-2.5-2.7-4.6c-1.8-2-2.6-3.9-2.8-4.4c-0.2-0.5-0.3-0.3-0.5,0.1c-0.2,0.3-0.5,1-0.5,1
		s-0.6-0.3-2-3c-1.5-2.6-1.9-4.7-2.1-5.8c-0.1-0.7-0.4-0.4-0.6-0.2c-1.2-3.4-1.1-7.5-1.4-10.7c0,0-1.2,1.1-1.8,3.4
		c-0.6,2.1-0.6,4.5-0.4,6.6c0.2,2,0.6,3.2,0.8,3.8c0.3,0.8-0.1,0.3-0.1,0.3s-1-1.8-1.7-5.1c-0.7-3.4-0.6-5.7-0.6-5.7
		s-0.4,0.3-0.9,1.3c-0.5,0.9-0.9,2.8-0.8,6.3c0.2,3.4,1.4,7,2.1,8.3c0.7,1.2,0,0.5-0.2,0.1c-0.2-0.4-1.4-2.2-2-3.8
		c-0.6-1.6-1.7-5-1.7-5.5c-0.1-0.5-0.3-0.2-0.5,0.3c-0.2,0.4-0.7,2-0.7,3c0,1.1,0.2,3,0.9,4.9c0.7,1.9,2.1,3.8,2.7,4.6
		c0.7,0.8,0.1,0.4-0.2,0.2c-0.3-0.2,0,0-1.3-1.4s-3.1-4.9-3.3-5.4c-0.2-0.5-0.5,0-0.5,0.3c0,0.3-0.2,1.9,0.8,4.8
		c1,2.8,3.6,5,4.9,5.9c1.3,0.9,0.4,0.5-0.3,0.1c-0.7-0.4-2.1-1.3-2.9-2.1c-0.9-0.7-2.4-2.6-2.8-2.9c-0.4-0.3-0.5-0.4-0.5,0.9
		c0,1.3,1.2,3.5,2.6,4.9c1.4,1.4,3.3,2.1,3.9,2.3c0.6,0.2,0.1,0.1-0.5,0c-0.6-0.2-1.6-0.5-2.7-1.1c-1.1-0.6-2.7-1.9-3.2-2.3
		c-0.5-0.4-0.5,0.2-0.3,0.9c0.2,0.7,0.6,2.1,2.6,3.7c2.1,1.7,5,2.5,5.8,2.8c0.8,0.2,0.2,0.2,0.2,0.2s-0.3,0-2-0.4
		c-1.7-0.4-4.3-1.7-5-2.2c-0.7-0.4-0.8-0.6-0.7,0.3c0.1,0.9,1.1,2.9,2.7,3.8c1.6,0.9,4.4,1.4,5.2,1.4c0.7,0,0.5,0.1,0.2,0.2
		c-0.3,0-1.2,0-2.5-0.1c-1.1-0.1-2.7-0.7-3.3-0.9c-0.1-0.2-0.1-0.5-0.1-0.6c-0.1-0.4-0.2-0.3-0.4-0.2c-0.1,0.1-0.2,0.1-0.6,0.3
		c-0.4,0.2-0.4,0-0.4-0.2c0-0.1-0.1-0.6-0.1-0.9c0-0.3-0.2-0.3-0.3-0.2c-0.2,0.1-1.1,0.4-1.4,0.6c-0.3,0.1,0,0.4,0.1,0.7
		c0.2,0.3,0.4,0.8,0.4,0.8s-0.8,0.2-1.1,0.3c-0.3,0.1-0.2,0.2-0.1,0.4c0.1,0.2,0.5,1.1,0.6,1.4c0.1,0.3,0.3,0.1,0.3,0.1l0.8-0.5
		l0.3,1.1c0,0-0.4,0.1-0.8,0.4c-0.4,0.3-0.3,0.7,0.2,0.8c0.5,0.1,1.1,0.4,1.7,1.6c0.6,1.2,0.8,3.3,1.2,6.6c0.4,3.3,2.5,5,2.8,5.2
		s0.1,0.4,0.1,0.4s-0.3,0.4-0.2,1.1c0.1,0.6,0.7,1,1,1.1c0.3,0.1,0.2,0.4,0.2,0.4s-0.1,0.7,0,2c0.1,1.3,1.2,2.8,1.5,3
		c0.3,0.2,0.3,0.4,0.3,0.5c0,0.1-0.2,0-0.6,0.3c-0.4,0.3-0.7,0.6-1,1.1c-0.2,0.5-0.2,0.7-0.1,1.4c0.1,0.6,1,1.2,1,1.2
		s-0.2,0-0.2,0.5c0,0.5,0.3,1,0.7,1.3c0.4,0.3,1.2,0.5,1.2,0.5s0.1,0.4,0.1,0.7c0,0.3,0.6,0.5,0.9,0.7c0.3,0.2,1,0.1,1.2,0
		c0.3-0.1,0.5,0,0.6,0.3c0.2,0.3,0.1,1.3,0.1,1.7c0,0.4-0.2,0.9-0.1,1.1c0.1,0.2,0.5,0.1,0.9-0.2c0.4-0.2,0.5-0.1,0.9,0.2
		c0.4,0.2,0.9,0.4,1.1,0.4c0.1,0,0.1-0.4,0.1-0.7s0.1-1,0.2-1.1c0.1,0,0.7-0.1,1.1-0.3c0.2-0.1,0.5-0.2,0.5-0.4c0-0.2-0.3-0.2-1-0.6
		c-0.7-0.4-0.8-0.6-1.2-0.9c-0.4-0.3-0.2-0.4-0.2-0.5c0-0.1,0.2-0.3,0.3-0.4c0.1-0.2,0-0.5,0-0.5s0.4-0.4,0.5-0.5
		c0.2-0.2,0.4-0.5,0.6-0.7c0.2-0.2,0.6-1.1,0.8-1.4c0.2-0.3,0.7-0.6,1.1-1c0.3-0.4,1.1-1,1.6-1.4c0.5-0.3,1.8-0.9,1.8-0.9
		s0,0.8,0.3,1.1c0.3,0.4,0.8-0.3,2.2-1.3c1.5-1,2.6-1.4,2.6-1.4s0.3,0.5,0.7,1c0.4,0.5,0.7,0,2.6-2.5c1.4-2,3.3-3.8,4-4.5
		c0.1,0.1,0.3,0.1,0.4,0.2c0,0.1-0.1,0.2-0.1,0.3c-0.2,0.5-0.4,0.9-0.8,1.6c-0.4,0.7-0.9,0.9-1.5,1.9c-0.6,1-0.7,1.6-0.8,2.6
		c-0.1,1,0.5,1.2,0.5,1.2s-0.9,0.9-1.2,1.6c-0.3,0.7-0.4,2-0.4,2s-0.1,0.1-0.5,0.7c-0.3,0.7-0.9,0.8-1.8,1.7
		c-0.9,0.9-1.8,1.2-2.3,1.5c-0.5,0.3-0.3,0.5-0.2,0.9c0.1,0.4,0.7,0.7,1.5,1c0.7,0.3,1,0.2,1.5,0.1c0.5,0,0.1,0.4-0.1,0.6
		c-0.2,0.2-0.5,0.9-0.4,1.7c0,0.8,0.6,0.6,1.4,0.5c0.7-0.1,1.6-0.5,1.6-0.5s0,0-0.1,0.2c-0.1,0.2-0.1,0.4-0.1,1c0,0.6,0.1,1,0.3,1.1
		c0.2,0.2,0.6-0.2,0.8-0.3c0.3-0.1,0.7-0.4,1.4-0.5c0.7-0.1,0.9-0.4,0.9-0.4s-0.2,0.2-0.2,0.7c0,0.5,0,1.1,0.1,1.5
		c0.1,0.4,0.4,0.9,0.8,1.3c0.5,0.4,0.6,0.2,0.9-0.3c0.3-0.5,1-1.2,1-1.2s0,0.2,0.5,1.6c0.5,1.5,1.9,2.7,1.9,2.7s1.5-1.2,1.9-2.7
		c0.5-1.5,0.5-1.6,0.5-1.6s0.7,0.7,1,1.2c0.3,0.5,0.4,0.7,0.9,0.3c0.5-0.4,0.7-0.9,0.8-1.3c0.1-0.4,0.1-1.1,0.1-1.5
		c0-0.5-0.2-0.7-0.2-0.7s0.2,0.3,0.9,0.4c0.7,0.1,1.1,0.4,1.4,0.5c0.3,0.1,0.6,0.4,0.8,0.3c0.2-0.2,0.3-0.5,0.3-1.1
		c0-0.6,0-0.8-0.1-1c-0.1-0.2-0.1-0.2-0.1-0.2s0.9,0.4,1.6,0.5c0.7,0.1,1.3,0.3,1.4-0.5c0-0.8-0.2-1.5-0.4-1.7
		c-0.2-0.2-0.6-0.6-0.1-0.6c0.5,0,0.7,0.1,1.5-0.1c0.7-0.3,1.3-0.6,1.5-1c0.1-0.4,0.2-0.6-0.2-0.9c-0.5-0.3-1.4-0.6-2.3-1.5
		c-0.9-0.9-1.5-1-1.8-1.7c-0.3-0.7-0.5-0.7-0.5-0.7s-0.1-1.3-0.4-2c-0.3-0.7-1.2-1.6-1.2-1.6s0.6-0.2,0.5-1.2
		c-0.1-1-0.1-1.7-0.8-2.6c-0.6-1-1.2-1.1-1.5-1.9c-0.4-0.7-0.6-1.1-0.8-1.6c0-0.1-0.1-0.2-0.1-0.3c0.2-0.1,0.4-0.2,0.5-0.2
		c0.7,0.7,2.6,2.5,4,4.5c1.8,2.5,2.2,3,2.6,2.5c0.4-0.5,0.7-1,0.7-1s1.1,0.4,2.6,1.4c1.5,1,1.9,1.7,2.2,1.3c0.2-0.2,0.2-0.5,0.2-0.8
		c0,0,0.8,0.2,1.8,0.6c0.6,0.2,1.2,0.5,1.7,0.7c1.3,0.5,1.4,0.8,2.4,1.6s2.5,0.7,3.8,0.3c1.4-0.4,5-1.6,6.5-2.3
		c1.5-0.6,2.5-1.2,2.7-1.5c0.2-0.3,0.3-1.1,0.3-1.4c0-0.3-0.3-0.7-0.4-0.8c-0.1-0.1-0.1-0.3,0-0.5c0-0.2-0.1-0.7-0.3-1
		c-0.2-0.2-0.2-0.3-0.2-1.1c0.1-1.5-1-3.4-2.5-4c0,0,0-0.2-0.2-0.3c-0.1-0.1-0.3-0.2-0.3-0.2s0-0.9,0-1.1c0-0.2,0.1-0.2,0.2-0.1
		c0.1,0.1,0.3,0.3,0.5,0.3c0.2,0.1,0.4-0.1,0.5-0.4c0.1-0.3,0.3-0.8,0.3-1.1c0.1-0.3,0-0.3-0.1-0.4c-0.1,0-0.5-0.1-0.7-0.1
		c-0.2,0-0.2-0.1-0.1-0.1c0-0.1,0.1-0.2,0.3-0.6c0.2-0.4,0-0.4-0.2-0.4c-0.2-0.1-1.2-0.4-1.5-0.4c-0.3,0-0.3,0.2-0.3,0.3
		c0,0.1,0,0.6,0,0.8c0,0.2-0.2,0.1-0.3,0.1c-0.1-0.1-0.3-0.2-0.5-0.3c-0.2-0.1-0.3,0-0.4,0.2c-0.1,0.2-0.3,1.1-0.4,1.3
		c-0.1,0.2-0.1,0.4,0.1,0.5c0.1,0,0.6,0,0.9,0c0.3,0,0.1,0.2,0.1,0.2s-0.3,0.5-0.4,0.7c-0.1,0.2-0.3,0.2-0.5,0.2c-0.2,0-0.6,0-0.6,0
		s-1.6,0.1-2.7,0.9c-1.2,0.9-1.5,1.6-1.7,2c-0.2,0.4-0.4,0.3-0.6,0.5c-0.2,0.1-0.7,0.7-0.7,1c0,0.3,0.1,0.5-0.4,0.8
		c-0.5,0.3-0.9,1.8-0.2,2.5c0.7,0.7,1,1.5,1.2,1.8c0.2,0.4,0,0.5-0.2,0.5c-0.2,0-0.6-0.3-0.9-0.5c-0.3-0.2-1.9-1.5-2.6-2
		c-0.7-0.5-0.2-0.4-0.2-0.4s0.2,0,0.6-0.2c0.4-0.2,0.5-0.4,0.1-0.5c-0.4-0.1-1.2-0.6-1.4-0.8c-0.2-0.2-0.3-0.4,0.1-0.6
		c0.4-0.2,1.3-0.8,0.6-1c-0.7-0.2-1.5-0.3-2.2-0.5c-0.7-0.2-0.7-0.4-0.7-0.4l0.4-0.6c0,0,0.4-0.5-0.1-0.6c-0.4-0.1-1.4-0.2-2.3-0.6
		c-1.8-0.8-3-2.1-3.4-3.8l0,0c0.3,0.7,1.1,1.9,2.3,2c1.6,0.1,1.8-0.5,1.4-1c-0.4-0.5-0.8-1-0.9-1.2c-0.1-0.2-0.1-0.4,0.3,0
		c0.4,0.4,1.2,1.8,3.7,1.6c2.5-0.2,2.5-0.6,2.5-0.8c0-0.5-0.5-0.5-0.8-0.8c-0.2-0.2-0.2-0.4,0.2-0.2s1.7,0.4,3.4,0.1
		c0.7-0.1,2.4-0.9,2.6-1.8c0,0-1.1-0.1-1.9-0.4c-0.8-0.3-1.2-0.6-0.4-0.4c0.8,0.2,2.4,0.5,3.8,0c0.8-0.3,1.9-0.9,1.9-2.2
		c0,0-1.5-0.3-2.1-0.5c-0.6-0.2-0.7-0.4-0.7-0.4s2.2,0.7,4.1-0.3c2-1,2.1-2.4,2.1-2.7c0-0.3,0-0.4,0-0.4s-1.8,0.4-3.1,0.4
		c-1.3,0-1.8-0.1-1.8-0.1s3.8-0.1,5.6-1.3c1.9-1.2,2-3.4,2-3.4s-2.1,0.8-3.5,0.9c-1.3,0.2-2.2,0.2-2.5,0.1c-0.3,0-0.5-0.1,0.2-0.2
		c0.7,0,3.6-0.5,5.2-1.4c1.6-0.9,2.6-2.9,2.7-3.8c0.1-0.9,0-0.8-0.7-0.3c-0.7,0.4-3.3,1.8-5,2.2c-1.7,0.4-2,0.4-2,0.4
		S135.4,71,136.3,70.8L136.3,70.8z M68.8,75.1c-0.2,0.1-0.8,0.4-0.8,0.4s-0.3-0.6-0.4-0.8c-0.1-0.2,0-0.3,0.1-0.3
		c0.1,0,0.4-0.1,0.7-0.1c0,0,0.1,0,0.1,0C68.6,74.6,68.7,74.9,68.8,75.1C68.8,75.1,68.8,75.1,68.8,75.1L68.8,75.1z M91.8,88.6
		c-0.5,0.9-1.7,1.8-2.6,2.1c-0.9,0.4-1.9,0.5-2.3,0.6c-0.4,0.1-0.1,0.6-0.1,0.6l0.4,0.6c0,0-0.1,0.2-0.7,0.4
		c-0.7,0.2-1.5,0.3-2.2,0.5c-0.7,0.2,0.2,0.8,0.6,1c0.4,0.2,0.3,0.4,0.1,0.6c-0.2,0.2-1,0.6-1.4,0.8s-0.3,0.3,0.1,0.5
		c0.4,0.2,1.5,0.4,1.5,0.4s0,0-0.7,0.5c-0.7,0.5-1.8,0.8-2.6,0.9c-0.8,0-2,0.1-3.5,0c-1.5-0.1-1.7-0.1-1.7-0.1s-0.1-0.5-0.2-1.3
		c-0.1-0.8-0.6-1.8-0.9-2.3c-0.4-0.5-1.1-1.5-1.1-1.5s0-0.2,0.1-0.5s0-0.5-0.2-1c-0.2-0.5-1.1-1.2-1.1-1.2s0-0.5,0-1
		c0-0.5-0.3-2.3-0.6-3.2C72.4,85.3,71,83,70.3,82c-0.6-1.1-1-2.7-1.2-3.9c-0.2-1.2-0.1-1.7-0.1-2c0-0.1,0.1-0.3,0.1-0.4
		c0.3,0.3,0.6,0.7,1,0.9c1.9,1.2,5.6,1.3,5.6,1.3S75.4,78,74.1,78c-1.3,0-3.1-0.4-3.1-0.4s0,0.1,0,0.4c0,0.3,0.1,1.7,2.1,2.7
		c2,1,4.1,0.3,4.1,0.3s-0.2,0.2-0.7,0.4c-0.6,0.2-2.1,0.5-2.1,0.5c0,1.2,1.1,1.9,1.9,2.2c1.4,0.5,3,0.1,3.8,0
		c0.8-0.2,0.4,0.1-0.4,0.4c-0.8,0.3-1.9,0.4-1.9,0.4c0.2,0.9,1.9,1.6,2.6,1.8c1.7,0.4,2.9,0.1,3.4-0.1s0.4,0,0.2,0.2
		c-0.3,0.3-0.8,0.4-0.8,0.8c0,0.1,0,0.6,2.5,0.8c2.5,0.2,3.3-1.2,3.7-1.6c0.4-0.4,0.4-0.2,0.3,0c-0.1,0.2-0.5,0.6-0.9,1.2
		c-0.4,0.5-0.2,1,1.4,1c1.2,0,2-1.3,2.3-2l0,0c0,0,0,0.1,0.1,0.1C92.4,87.4,92.1,88.1,91.8,88.6L91.8,88.6z M111.8,35.2
		c-0.2-0.4-0.3-0.6-0.3-0.6s0.9,0.4,1.5,1.1c0.6,0.6,0.5,1,0.6,1.3c0.1,0.3,0,0.9-0.1,1.4c-0.1,0.5-0.1,0.9,0,1
		c0.1,0.2,0.2,0.3,0.2,0.3s-0.4,0.1-0.8,0.3c-0.4,0.2-0.9,0.3-1.2,0.1c-0.3-0.2-0.4-0.4-0.2-0.6c0.2-0.2,0.8-0.3,0.9-1.5
		C112.5,36.8,112,35.6,111.8,35.2L111.8,35.2z M106.7,38.3c0.2-0.5,0.3-1.1,0.1-2.2c-0.1-0.9-0.3-1.7-0.4-2.7c0,0,0.7,0.2,1.7,1.1
		c1,0.9,1.2,1.8,1.2,2.3c0,0.5-0.2,1-0.3,1.4c0,0.4,0.1,0.8,0.1,0.8s-0.4,0.1-0.7,0.4c-0.3,0.2-0.5,0.4-1,0.3
		c-0.5,0-0.8-0.3-1.1-0.4c-0.3-0.2-0.5-0.2-0.5-0.2S106.5,38.8,106.7,38.3L106.7,38.3z M101.9,34.4c1-0.9,1.7-1.1,1.7-1.1
		c0,1-0.2,1.8-0.4,2.7c-0.2,1.1-0.1,1.6,0.1,2.2c0.2,0.5,0.8,0.9,0.8,0.9s-0.2,0-0.5,0.2c-0.3,0.2-0.6,0.4-1.1,0.4
		c-0.5,0-0.7-0.1-1-0.3c-0.3-0.2-0.7-0.4-0.7-0.4s0.2-0.4,0.1-0.8c0-0.4-0.3-1-0.3-1.4C100.7,36.3,100.9,35.3,101.9,34.4L101.9,34.4
		z M98.3,39.9c-0.3,0.2-0.8,0.1-1.2-0.1c-0.4-0.2-0.8-0.3-0.8-0.3s0.1-0.1,0.2-0.3c0.1-0.2,0.1-0.5,0-1c-0.1-0.5-0.2-1.1-0.1-1.4
		c0.1-0.3,0.1-0.6,0.6-1.3c0.6-0.6,1.5-1.1,1.5-1.1s-0.1,0.2-0.3,0.6c-0.2,0.4-0.8,1.6-0.7,2.7c0.1,1.1,0.7,1.3,0.9,1.5
		C98.7,39.5,98.6,39.7,98.3,39.9L98.3,39.9z M111.5,49.4c-1,0.5-1.5,0.4-1.5,0.8c0,0.4,0.9,0.7,0.9,0.7s-0.9,1-1.6,1.4
		c-0.7,0.4-1.5,0.7-1.5,0.7s-0.3,0-0.1,0.5c0.2,0.4,0.4,0.7,0.7,0.9c0.2,0.1,0.3,0.2,0.3,0.2s-1.2,1.3-1.7,1.7
		c-0.5,0.4-0.8,0.6-1.3,0.7c-0.4,0.2-0.2,0.9-0.1,1.2c0.1,0.3,0.5,0.8,0.7,0.8c0.2,0.1,0.3,0.2,0,0.7c-0.2,0.3-0.9,1.2-1.2,1.7l0,0
		c-0.3-0.5-1-1.4-1.2-1.7c-0.3-0.4-0.2-0.6,0-0.7c0.2-0.1,0.6-0.5,0.7-0.8c0.1-0.3,0.3-1-0.1-1.2c-0.4-0.2-0.7-0.3-1.3-0.7
		c-0.5-0.4-1.7-1.7-1.7-1.7s0.1,0,0.3-0.2c0.2-0.1,0.5-0.4,0.7-0.9c0.2-0.4-0.1-0.5-0.1-0.5s-0.8-0.3-1.5-0.7
		c-0.7-0.4-1.6-1.4-1.6-1.4s0.9-0.3,0.9-0.7c0-0.4-0.5-0.3-1.5-0.8c-1-0.5-1.3-1.2-1.3-1.2s1.1-0.4,1.7-1.5c0.2-0.4,0.2-0.8,0.2-1.1
		l0,0c1.8,0.6,3.9,0.8,5.8,0.8c1.9,0,4-0.2,5.8-0.8l0,0c0,0.3,0,0.7,0.2,1.1c0.6,1.1,1.7,1.5,1.7,1.5S112.4,48.9,111.5,49.4
		L111.5,49.4z"/>
	<g>
		<path class="st3" d="M117.4,71.3c0-3.1,1.4-5,1.4-5l-3.8-4.4c-3.6,1.4-7,1.5-9.9,0c-3,1.5-6.3,1.4-9.9,0l-3.8,4.4
			c0,0,1.4,1.9,1.4,5c0,3.1-0.6,5.3-0.9,6.8c-0.3,1.5-0.6,4.2,0.1,6.2c0.8,2,1.6,3.7,5,5.1s5.2,2.2,6.4,3.2c1.2,1,1.8,1.8,1.8,1.8
			s0.6-0.8,1.8-1.8c1.2-1,3-1.7,6.4-3.2c3.4-1.4,4.2-3.2,5-5.1c0.8-2,0.5-4.7,0.1-6.2C118,76.6,117.4,74.4,117.4,71.3L117.4,71.3z"
			/>
		<path class="st2" d="M116.2,72.6c-0.5-2.9,1.2-5.5,1.2-5.5l-3.3-3.8c-2.5,1.4-6,1.2-9.1-0.2c-3,1.4-6.6,1.6-9.1,0.2l-3.3,3.8
			c0,0,1.7,2.6,1.2,5.5c-0.5,2.9-1.5,7.5-1.3,9.4c0.3,1.9,1.6,4.1,3,5.2s3.4,2.1,4.8,2.6c1.4,0.5,2.8,1.5,3.5,2c0.7,0.5,1.1,1,1.1,1
			s0.4-0.4,1.1-1c0.7-0.5,2.1-1.5,3.5-2c1.4-0.5,3.5-1.5,4.8-2.6c1.4-1.1,2.7-3.3,3-5.2C117.7,80.1,116.6,75.5,116.2,72.6
			L116.2,72.6z"/>
		<path class="st4" d="M115.8,72.9c-0.5-3.1,0.9-5.7,0.9-5.7l-3-3.3c-2.5,1.3-5.5,1-8.8-0.2c-3.3,1.1-6.3,1.5-8.8,0.2l-3,3.3
			c0,0,1.4,2.5,0.9,5.7s-1.2,6.7-1.1,8.8c0,0.1,0,0.3,0,0.4h2.7c0,0,0.2-0.2,0.5-0.3c0.3-0.1,0.4-0.2,0.4-0.2s0.1-0.5,0.4-0.7
			c0.3-0.1,0.5-0.1,0.6-0.1s0.2,0,0.4-0.2c0.2-0.2,0.6-0.5,0.8-1.1c0.2-0.5,0.3-0.8,0.3-1.1c0-0.4,0.1-0.9,0.1-0.9s-0.1-0.2-0.3-0.1
			c-0.3,0.1-0.3-0.2-0.3-0.4c0-0.3,0-0.8,0.1-1.1c0.2-0.3,0.2-0.3,0.2-0.3l-0.1-0.4c0,0-1.7,0.3-2-1c-0.3-1.3-0.4-2-0.4-2.1
			c0-0.1-0.1-0.2-0.3-0.2c-0.2,0-0.7-0.1-1.1-0.8c-0.3-0.7-0.4-1-0.3-1.2c0.1-0.3,0.3-0.2,0.3-0.1c0.1,0.1,0.5,0.7,0.7,0.6
			c0.2-0.2,0.1-0.2-0.2-0.7c-0.3-0.5-0.2-0.7-0.1-0.9c0-0.3-0.1-0.6-0.1-0.7c0-0.1,0.2-0.3,0.3-0.2c0.2,0.1,0.3,0.2,0.4,0.3
			c0.1,0.1,0.1,0.2,0.2,0.1c0.1-0.1,0.1-0.6,0.1-0.7c0-0.2,0.2-0.3,0.4-0.1c0.2,0.1,0.3,0.4,0.3,0.5c0,0.2,0,0.3,0.1,0.3
			s0.2-0.3,0.2-0.4c0-0.2,0.1-0.4,0.3-0.2c0.2,0.2,0.2,0.5,0.2,0.9c-0.1,0.3,0.1,0.2-0.1,0.7c-0.1,0.6-0.2,0.8-0.2,1.3
			c0,0.4,0,0.7,0.2,1.2c0.2,0.5,0.4,1.1,0.8,1.2c0.4,0,0.5,0,0.5,0s0.4-0.9,0.8-1.1c0.3-0.2,0.8-0.2,1.2-0.3c0.3,0,0.5-0.1,0.5-0.2
			s-0.1-0.1-0.5-0.2c-0.4-0.1-0.8-0.2-0.8-0.5c0-0.3,0.1-0.6-0.2-0.6c-0.3,0-0.9-0.2-1.2-0.7c-0.2-0.4-0.2-0.5-0.2-0.8
			c0-0.2,0.3-0.7,0.5-0.3c0.2,0.5,0.3,0.5,0.5,0.6c0.2,0.1,0.4,0.1,0.3-0.2c-0.1-0.3-0.2-0.5-0.2-0.7c0-0.2,0.2-0.3,0.4-0.4
			c0.2,0,0.7-0.2,1-0.3c0.3-0.1,0.3-0.1,0.3-0.1s0-0.2,0.4-0.3c0.4-0.1,0.6-0.1,0.9-0.1c0.3,0,0.5,0,0.8-0.1
			c0.4-0.2,0.6-0.2,0.9-0.2c0.2,0,0.4,0.1,0.6,0.2c0.2,0.1,0.1,0.3,0.1,0.4c0,0.2,0,0.2,0.3,0.2c0.2,0,0.5,0,0.7,0.1
			c0.2,0.1,0.5,0.2,0.3,0.5c-0.2,0.2-0.2,0.5-0.3,0.5c-0.1,0-0.1,0.1-0.2,0.2c-0.1,0.1-0.1,0.2,0,0.2c0.1,0.1,0.2,0.2,0.4,0.4
			c0.2,0.2,0.5,0.4,0.2,0.7c-0.3,0.3-0.8,0.5-0.8,0.5s-0.3,0.1,0,0.3c0.3,0.2,0.5,0.6,0.6,0.7c0.1,0.1,0.3,0.2,0.3,0.2
			c0.1,0,0.1,0.3,0.1,0.3s-0.2,0.1-0.4,0.2c-0.3,0.1-0.5,0.2-0.8,0.2c-0.2,0-0.4,0-0.3,0.2c0.1,0.2,0.3,0.5,0.3,0.6
			c0,0.1,0.1,0.4,0.1,0.4s0.4,0.1,0.8,0.1c0.4,0,0.5,0,1.3-0.1c0.8-0.1,1-0.1,1.8,0c0.8,0.1,0.9,0.1,1.1,0.1
			c0.2,0.1,0.4,0.2,0.4,0.2s1.1,0,1.7-0.1c0.6-0.1,0.7-0.5,0.6-0.7c-0.1-0.2-0.1-0.5-1.1-0.6c-1-0.1-1.4-0.1-2.3-0.2
			c-0.8-0.2-2.1-0.6-2.3-1.6c-0.2-1,0.6-1.4,1-1.6c0.4-0.2,1.3-0.5,1.7-0.7c0.4-0.2,1.2-0.3,2-0.2c0.8,0.1,1.3,0.3,1.6,0.1
			c0.3-0.2,0.6,0,0.5,0.2c-0.1,0.3-0.4,0.9-1.3,1.1c-0.9,0.3-2,0.3-2.6,0.1c-0.6-0.2-1-0.4-1.4-0.3c-0.4,0.1-0.8,0.6-0.4,1.1
			c0.4,0.5,2.4,0.7,2.9,0.7c0.5,0.1,2.5-0.1,3,0.9c0.6,1,0.1,2.1-0.5,2.3c-0.7,0.2-1.2,0.4-1.7,0.5c-0.5,0.1-0.5,0.1-0.5,0.1
			s0.2,0.5,0.2,0.7c0,0.2,0,0.6,0.2,0.8c0.2,0.2,0.6,0.3,1,0.2c0.4,0,0.9,0.2,0.9,0.6c0,0.4,0.1,0.9,0.2,1.6c0,0.7,0,1.4,0,1.4
			s0,0.3-0.1,0.6c-0.1,0.3-0.6,1.3-0.6,1.3h2.9c0-0.1,0-0.3,0-0.4C117,79.6,116.3,76.1,115.8,72.9L115.8,72.9z"/>
		<path class="st5" d="M93.5,83.6c0.6,1.6,1.7,3.2,3.5,4.3c2.5,1.5,3.5,1.3,5.8,2.8c2.3,1.5,2.2,1.8,2.2,1.8c0,0-0.1-0.3,2.2-1.8
			c2.3-1.5,3.4-1.3,5.8-2.8c1.8-1.1,2.9-2.7,3.5-4.3H93.5L93.5,83.6z"/>
		<path class="st3" d="M95.5,71.2c0.3,0.3,0.5,0.4,0.9,0.3c0.4,0,0.5,0.2,0.6,0.6c0.1,0.3,0.1,1.1,0.4,1.8c0.3,0.7,1.3,0.7,1.3,0.7
			c0-0.3,0.1-0.8,0.3-1.2c0-0.1,0.2-0.4-0.2-0.4c-0.3,0-0.3-0.1-0.5-0.5c-0.2-0.3-0.6-1.2-0.7-1.8c-0.1-0.6,0.1-1.4,0.2-1.7
			c0.1-0.3,0.1-0.5,0-0.6c-0.1-0.1-0.3,0-0.3,0s0.1,0.3,0,0.3c-0.1,0-0.2-0.1-0.2-0.3c-0.1-0.2-0.2-0.2-0.3-0.2
			c-0.1,0-0.1,0.1,0,0.3c0.1,0.1,0,0.4,0,0.4s-0.3-0.2-0.4-0.3c-0.1-0.1-0.4,0.1-0.4,0.2c0,0.2,0.1,0.6,0.4,0.8
			c0.3,0.2,0.3,0.7,0.2,0.9c-0.1,0.2-0.5,0.2-0.6,0.1c-0.1-0.1-0.2-0.1-0.4,0C95.3,70.8,95.2,70.9,95.5,71.2L95.5,71.2z"/>
		<path class="st3" d="M95.3,70.4c0,0-0.2-0.1-0.2-0.2C95.1,70.2,95,70,95,70s0,0.1,0,0.2c0,0.2,0.2,0.3,0.2,0.3L95.3,70.4
			L95.3,70.4z"/>
		<path class="st3" d="M95.9,68.5c0.1-0.1,0.2-0.1,0.1-0.2C96,68.1,95.9,68,95.8,68c-0.1,0-0.2,0-0.2,0s0.1,0.2,0.1,0.4
			C95.8,68.5,95.8,68.6,95.9,68.5L95.9,68.5z"/>
		<path class="st3" d="M96.6,67.9c0,0.1,0,0.2,0.1,0.1c0.1-0.1,0.2-0.2,0.1-0.3c-0.1-0.1-0.2-0.2-0.2-0.2l-0.1-0.1
			C96.6,67.5,96.7,67.8,96.6,67.9L96.6,67.9z"/>
		<path class="st3" d="M97.7,68.1c0-0.1,0-0.3,0-0.3s0,0.2-0.1,0.3c-0.1,0.1-0.1,0.1,0,0.2C97.7,68.3,97.7,68.2,97.7,68.1L97.7,68.1
			z"/>
		<path class="st3" d="M99.3,75.1c0.2,0.5,0.7-0.3,1.2-0.9c0.5-0.6,0.5-0.1,0.4,0.3c-0.1,0.5,0.1,1,0.3,1.3c0.2,0.3,0.3,0.1,0.4-0.1
			c0.1-0.2,0.1-0.7,0.3-1c0.2-0.2,0.3,0,0.3,0.2c0,0.2,0.3,0.7,0.5,0.9c0.2,0.3,0.3-0.1,0.4-0.4c0.1-0.3,0.2-0.8,0.2-1
			c0.1-0.2,0.3,0,0.3,0s0.2,0.2,0.5,0.5c0.3,0.3,0.3-0.2,0.4-0.4c0-0.2,0-0.8,0-0.8c0.1-0.1,0.4,0.1,0.8,0.3
			c0.4,0.2,0.4-0.2,0.3-0.4c0-0.2-0.3-0.7-0.6-1c-0.3-0.3-0.4-0.6-0.3-0.8c0.1-0.1,0.5,0,0.8,0c0.3,0,0.4-0.1,0.6-0.1
			c0.2,0,0.2-0.2,0.2-0.2s-0.1-0.2-0.4-0.5c-0.3-0.2-0.4-0.4-0.8-0.5c-0.3-0.1-0.8,0-0.8,0s0,0,0-0.1c0-0.1-0.1-0.1-0.2,0
			c-0.1,0.1-0.2,0.2-0.3,0.3c-0.1,0.1-0.2,0.2-0.3,0.1c-0.1,0,0.1-0.2,0.1-0.2s0.2-0.1,0.3-0.4c0.2-0.3,0.2-0.6,0.1-0.8
			c-0.1-0.1-0.5,0-0.7,0c-0.2,0-0.3,0-0.3-0.1c0-0.1,0.2,0,0.4-0.1c0.2,0,0.4-0.3,0.5-0.6c0.1-0.2,0.1-0.2,0.3-0.1
			c0.1,0.1,0.3,0.1,0.3,0c0-0.1,0.2-0.3,0.3-0.6c0.2-0.2,0.3-0.6,0.1-0.8c-0.2-0.2-0.6-0.2-0.8,0c-0.2,0.1-0.3,0.3-0.3,0.6
			c0,0.3-0.1,0.2-0.1,0c0-0.1-0.1-0.3-0.1-0.4c0.1-0.1,0-0.3,0-0.3s0-0.3-0.4-0.4c-0.3-0.1-0.7,0-1,0.1s-0.3,0.4-0.3,0.4
			s-0.3,0-0.5,0c-0.3,0-0.6,0.1-0.8,0.2c-0.3,0.1-0.3,0.1-0.3,0.2c0,0.1,0,0.3,0,0.3s0.2,0,0.3,0.1c0.1,0.1,0,0.2-0.1,0.2
			c-0.1,0-0.2,0.1-0.2,0.2c0,0.2,0.1,0.2,0.2,0.2c0.1,0,0.4,0,0.7,0.1c0.3,0.1,0.4,0.4,0.4,0.6c0,0.2-0.5,0.4-0.7,0.4
			s-0.3,0-0.3,0.2c0,0.1,0.3,0.1,0.3,0.1s0.3,0,0.8,0.1c0.5,0.1,0.6,0.2,0.8,0.4c0.2,0.2,0.1,0.3,0,0.3c-0.1,0.1-0.3,0.2-0.5,0.3
			c-0.2,0.1-0.3,0.2-0.4,0.2c-0.2,0-0.5,0-1.3,0.3c-0.7,0.3-1,1.2-1,1.2s0.1,0,0.4-0.2c0.3-0.2,0.7-0.4,1.1-0.6
			c0.4-0.2,0.4,0.1,0.2,0.4c-0.2,0.3,0.2,0.3,0.3,0.2c0.1-0.1,0.3-0.2,0.6-0.4c0.4-0.2,0.2,0.1,0.2,0.1s-0.1,0.2-0.1,0.7
			c0,0.5,0.5,0,0.8-0.3s0.4,0,0.2,0.4c-0.2,0.4-0.5,0.7-0.8,0.7c-0.2,0-0.4-0.2-0.4-0.3c0-0.1,0.1-0.5-0.1-0.6
			c-0.1-0.1-0.5,0-0.8,0.2c-0.3,0.2-0.3,0-0.4-0.1c-0.1-0.1,0.1-0.2,0-0.3c-0.1-0.1-0.2,0-0.3,0c-0.1,0-0.4,0.2-0.8,0.4
			C99,73.7,99,73.9,99,74.2C99,74.6,99.1,74.7,99.3,75.1L99.3,75.1z"/>
		<path class="st3" d="M104,67.2c0.1-0.1,0.3-0.1,0.3-0.1s0.2-0.1,0.4-0.1c0.2,0,0.2-0.1,0.1-0.2c0-0.1-0.1-0.1-0.4-0.1
			c-0.3,0-0.5,0.1-0.6,0.2c-0.2,0.1-0.3,0.1-0.3,0.1s0,0,0.1,0.2C103.8,67.3,103.9,67.3,104,67.2L104,67.2z"/>
		<path class="st3" d="M105.2,68.4c0.1,0,0.2-0.1,0.2-0.1s0.2-0.1,0.4-0.2c0.2-0.1,0.3-0.1,0.4-0.3c0.1-0.2-0.1-0.2-0.4-0.3
			c-0.3-0.1-0.5,0-0.5,0.1c0,0.1,0,0.3-0.2,0.5C104.9,68.4,105,68.4,105.2,68.4L105.2,68.4z"/>
		<path class="st3" d="M105,68.7c-0.3,0-0.7,0.5-0.8,0.6c-0.1,0.1-0.1,0.2-0.1,0.2s0.1,0.2,0.1,0.4c0,0.2,0,0.5,0,0.5s0,0,0.2,0
			c0.2,0,0.3-0.1,0.5-0.2s0.3-0.2,0.6-0.2c0.3,0,0.4-0.1,0.6-0.2c0.3-0.1-0.1-0.4-0.4-0.6C105.5,68.7,105.4,68.7,105,68.7L105,68.7z
			"/>
		<path class="st3" d="M100.9,69.7c0.2,0,0.4-0.2,0.4-0.3c0-0.1-0.1-0.3-0.4-0.3c-0.8,0.1-1.5-0.2-1.7-1c0,0-0.3,0.5,0.2,1
			C99.8,69.8,100.6,69.8,100.9,69.7L100.9,69.7z"/>
		<path class="st3" d="M98.2,82c0,0.1,0.1,0.1,0.1,0.1h1.2c0.2-0.1,0.2-0.2,0.2-0.4c0-0.2,0.1-0.6,0.3-1.4c0.2-0.8,0.4-1.4,0.6-1.7
			s-0.1-0.4-0.2-0.6c-0.1-0.2-0.2-0.6-0.2-0.7c0-0.2-0.3-0.2-0.5-0.1c-0.2,0-0.2,0.3-0.2,0.5c0,0.2-0.1,0.9-0.2,1.5
			c-0.1,0.6-0.8,1.4-1,1.6c-0.2,0.2-0.3,0.2-0.5,0.2s-0.4,0-0.6,0.1c-0.1,0.1-0.3,0.3-0.3,0.5c0,0.2,0.3,0.3,0.3,0.3
			s0.2-0.1,0.3-0.2c0.1-0.1,0.3-0.1,0.5-0.2c0.2,0,0.2,0,0.1,0.1C98,81.8,98.1,81.8,98.2,82L98.2,82z"/>
		<path class="st3" d="M96.4,82c-0.1,0-0.2,0.1-0.2,0.2H97c0-0.1,0-0.1-0.1-0.2C96.8,81.9,96.5,81.9,96.4,82z"/>
		<path class="st3" d="M97.4,82c-0.1,0.1-0.2,0.1-0.3,0.2H98c0-0.1,0-0.2-0.1-0.3C97.8,81.7,97.6,81.9,97.4,82L97.4,82z"/>
		<path class="st3" d="M104.7,81.6c-0.1,0-0.2,0.1-0.3,0.2c-0.1,0.1-0.2,0.2-0.2,0.3c0,0,0,0,0,0h0.4c0,0,0,0,0,0
			c0-0.1,0-0.2,0.2-0.3C105,81.7,104.8,81.6,104.7,81.6L104.7,81.6z"/>
		<path class="st3" d="M105.4,82c0-0.1,0-0.2-0.1-0.2c-0.1,0-0.2,0.2-0.3,0.2c-0.1,0-0.1,0.1-0.1,0.2h0.5
			C105.4,82.1,105.4,82,105.4,82L105.4,82z"/>
		<path class="st3" d="M108.7,78.1c0.3-0.2,0.2-0.2,0.2-0.4c0-0.2,0-0.3-0.1-0.3c-0.1-0.1-0.5-0.2-0.8-0.2c-0.4,0-1,0.1-1.3,0.3
			c-0.3,0.2-0.4,0.8-0.4,1.1c0,0.3,0.1,0.4,0.1,0.4s0.2-0.2,0.2-0.2s0.3,0.4,0.5,0.7c0.2,0.3,0.1,0.4,0,0.7c-0.1,0.2-0.4,0.9-0.7,1
			c-0.3,0.1-0.5,0-0.8,0c-0.3-0.1-0.5,0-0.7,0.2c-0.2,0.2,0,0.3,0.1,0.3c0.1,0,0.3,0,0.4,0.1c0.1,0.1,0,0.3,0,0.5h1.6
			c0.3-0.1,0.4-0.5,0.5-0.7c0.1-0.2,0.4-0.5,0.6-0.7c0.2-0.2,0.2-0.3,0.2-0.6c0-0.3-0.1-0.5-0.2-0.8c-0.1-0.2-0.2-0.6-0.2-0.8
			C108.1,78.5,108.4,78.3,108.7,78.1L108.7,78.1z"/>
		<path class="st3" d="M106.1,74.2c0.2,0.3,0.1,0.3-0.1,0.3c-0.2,0-0.5,0.1-0.8,0.1c-0.3,0-0.3,0-0.3,0.2c0,0.2,0,0.5-0.2,0.8
			c-0.2,0.3-0.5,0.2-0.6,0.1s-0.2-0.1-0.3,0.1c-0.1,0.2-0.2,0.3-0.3,0.6c-0.2,0.3-0.3,0.3-0.4,0.3c-0.1,0-0.2-0.2-0.3-0.2
			c-0.1,0-0.3-0.2-0.5-0.5c-0.2-0.3-0.3,0-0.4,0.3c-0.1,0.2-0.2,0.4-0.5,0.4c-0.2,0-0.5-0.4-0.6-0.7c-0.1-0.3-0.2-0.5-0.4-0.5
			c-0.2,0-0.5,0.4-0.7,0.5c-0.2,0.1-0.3,0.1-0.4-0.1c-0.1-0.1-0.2,0-0.3,0.4c-0.1,0.3,0,0.6,0.2,0.7c0.2,0.1,0.5-0.2,0.8-0.3
			c0.2-0.2,0.3-0.1,0.6-0.1c0.2,0,0.2,0.4,0.3,1c0.1,0.6,0.4,0.7,0.4,0.7s0.1,0.1,0.4-0.3c0.3-0.4,0.3-0.9,0.5-0.9
			c0.3,0,0.3,0.1,0.5,0.4c0.3,0.3,0.5,0.6,0.6,0.3c0.1-0.3,0.3-0.7,0.4-0.8c0.2-0.1,0.3-0.2,0.1,0.1c-0.2,0.3-0.3,0.5,0.1,0.4
			c0.4-0.1,1.7-0.7,2.3-0.8c0,0,0.6-0.1,1.4-0.1c0.7,0,0.9-0.1,1.2-0.1c0.3,0,0.3,0,0.3-0.2c0-0.2-0.1-0.2-0.7-0.2
			c-0.5,0-0.9,0.1-1.3,0.1c-0.4,0.1-0.6,0-0.5,0c0.1-0.1,0.2-0.2,0.6-0.2c0.4-0.1,1.3-0.1,1.8-0.1c0.5,0,0.3,0.1,0.3,0.4
			c0,0.3,0,0.8,0.1,1.1c0,0.3,0,0.4,0.3,0.8s1.1,0.7,1.4,0.8c0.3,0.1,0.2,0,0.2-0.2c0-0.2,0.2-0.2,0.4-0.1c0.2,0.1,0.6,0.2,0.9,0.3
			c0.3,0.1,0.3,0.1,0.3,0.3c0,0.1,0,0.4,0.1,0.7c0,0.3,0,0.4-0.1,0.5c-0.1,0.2-0.6,0.7-0.6,0.7s-0.2,0-0.7,0.1
			c-0.5,0.1-0.6,0.3-0.7,0.5c0,0.2,0.1,0.3,0.1,0.3c0,0,0,0.1,0,0.2h0.1c0-0.1,0.1-0.2,0.2-0.3c0.2-0.2,0.6-0.3,0.9-0.1
			c0.2,0.1,0.2,0.3,0.2,0.4h1.1c0.1-0.3,0.5-1,0.6-1.2c0.1-0.3,0.2-0.4,0.2-0.8c0-0.4,0-1.7,0-1.8c-0.1-0.1,0-0.3,0-0.7
			c0-0.4,0-0.7-0.7-0.7c-0.7-0.1-0.9-0.4-1.2-0.6c-0.2-0.2-0.2-0.8-0.4-1.5c-0.2-0.7-0.7-0.8-1.5-1c-0.8-0.2-1.5-0.2-2.1-0.1
			c-0.6,0.1-1.4,0.1-1.9,0.1C105.9,73.8,106,74,106.1,74.2L106.1,74.2z"/>
		<path class="st3" d="M110.2,82c-0.1,0-0.1,0.1-0.2,0.2h0.7c0-0.1,0-0.1-0.1-0.2C110.6,81.8,110.4,81.9,110.2,82L110.2,82z"/>
		<path class="st3" d="M111.5,82c-0.1,0.1-0.2,0.1-0.2,0.2h0.7c0,0,0-0.1,0-0.1C112,82,111.8,81.8,111.5,82L111.5,82z"/>
		<path class="st3" d="M93.2,82.4c0,0.2,0.1,0.5,0.2,0.7h23.3c0.1-0.2,0.1-0.5,0.2-0.7H93.2L93.2,82.4z"/>
		<path class="st3" d="M108.9,71.3c0.7,0.5,3.1,0.5,4.2,0.7c1.1,0.2,1,1.1,0.7,1.5c-0.3,0.4-1.9,0.5-2.2,0.5
			c0.1,0.1,0.4,0.4,0.4,0.4s0.2,0,0.6-0.1c0.5,0,1.3-0.2,1.8-0.6c0.6-0.5,0.5-1.2,0-1.7c-0.5-0.5-1.3-0.6-2.1-0.6
			c-0.8-0.1-1.5-0.2-2.4-0.3c-0.9-0.2-1.4-0.5-1.4-1.1c0-0.5,0.5-0.8,0.9-0.9c0.4-0.1,0.9-0.3,1.5-0.1c0.5,0.2,1.1,0.2,2.1,0.1
			c1-0.1,1.3-0.8,1.3-0.8s-0.1,0.1-0.6,0.1c-0.5,0-0.9-0.2-1.8-0.2c-0.9,0-1.3,0.3-1.7,0.5c-0.4,0.2-1.6,0.3-2,1
			C107.8,70.5,108.2,70.8,108.9,71.3L108.9,71.3z"/>
		<ellipse class="st2" cx="102.8" cy="67.8" rx="0.4" ry="0.4"/>
		<path class="st2" d="M112.2,68.5c-0.6-0.1-1.3,0.1-1.3,0.1s0.1,0.1,0.3,0.1c0.2,0,0.5,0,1.1,0.1c0.6,0.1,1-0.2,1-0.2
			S112.8,68.6,112.2,68.5L112.2,68.5z"/>
		<path class="st4" d="M106.7,79.4c-0.1-0.2-0.2-0.2-0.3-0.1c-0.2,0.1-0.3-0.3-0.3-0.7c0-0.3,0.1-1.2,0.1-1.2s-0.8,0.2-1.2,0.3
			c-0.4,0.1-0.8,0.2-1.2,0.3c-0.3,0.1-0.5,0.2-0.7,0.1c-0.2,0-0.6-0.1-0.9-0.1c-0.3,0-0.3,0.1-0.6,0.4c-0.3,0.3-0.4,0.5-0.6,1
			c-0.2,0.6-0.3,1.1-0.4,1.8c-0.1,0.5-0.1,0.8-0.2,0.9h3.6c0-0.1,0.1-0.3,0.1-0.4c0.1-0.2,0.3-0.3,0.4-0.4c0.1-0.1,0.3-0.1,0.3-0.2
			c0.1-0.2,0.2-0.3,0.4-0.4c0.2-0.1,0.5,0,0.8,0c0.3,0.1,0.4-0.1,0.5-0.2c0.1-0.1,0.1-0.3,0.3-0.5c0.2-0.2,0-0.4,0-0.4
			S106.8,79.6,106.7,79.4L106.7,79.4z"/>
		<path class="st4" d="M112.5,79.5c0-0.2,0-0.2-0.2-0.3c-0.1,0-0.3-0.1-0.5-0.1c-0.2-0.1-0.2,0.4-0.2,0.4s-0.4,0-0.9,0
			c-0.5-0.1-1.1-0.5-1.3-0.6c-0.2-0.1-0.4-0.5-0.4-0.5s-0.2,0.1-0.3,0.2c-0.2,0.1-0.2,0.4-0.3,0.7c0,0.3,0.4,0.7,0.4,1
			c0,0.3-0.3,0.9-0.5,1.2c-0.1,0.2-0.3,0.5-0.4,0.7h1.8c0-0.1,0.1-0.2,0.2-0.3c0.2-0.2,0.5-0.2,0.5-0.2s0-0.1,0.1-0.2
			c0.1-0.2,0.2-0.4,0.7-0.5c0.4-0.2,1-0.2,1-0.2s0.2-0.2,0.4-0.4C112.7,80,112.6,79.7,112.5,79.5L112.5,79.5z"/>
	</g>
	<g>
		<path class="st3" d="M97.9,98.9c0.3,0.1,0.9-0.1,1.2-0.5c0.3-0.4,0.4-0.9,0.6-1.3c0.2-0.3,0.4-0.6,0.4-0.6s0,0.5-0.3,1.3
			c-0.3,0.7-0.3,1.6-0.3,2c0.1,0.8,0.7,0.9,1,0.8c0.2-0.1,0.6-0.4,0.9-1c0.1-0.2,0.2-0.4,0.3-0.6c0.2-0.4,0.4-1,0.5-1
			c0.2,0,0.1,0.5,0,0.8c-0.2,0.6-0.5,1.5-0.5,2.1c0,0.5,0,1.5,0.6,1.6c0.5,0,0.8-0.4,1.1-1.6c0.3-1.1,0.4-1.5,0.5-1.5
			c0.1,0,0.1,0.8,0.1,1.1c0,0.1,0,0.4,0,0.7c0.1,0.6,0.3,1.3,0.4,1.5c0.3,0.2,0.5,0.2,0.5,0.2s0.2,0,0.5-0.2
			c0.3-0.2,0.5-1.9,0.5-2.2c0-0.3,0-1.1,0.1-1.1c0.1,0,0.2,0.4,0.5,1.5c0.3,1.1,0.6,1.6,1.1,1.6c0.5,0,0.6-1,0.6-1.6
			c0-0.5-0.3-1.4-0.5-2.1c-0.2-0.6,0.1-0.6,0.5,0.2c0.1,0.2,0.3,0.5,0.4,0.8c0.3,0.5,0.6,0.7,0.8,0.8c0.3,0.1,0.8,0,1-0.8
			c0.1-0.8-0.5-3.1-0.5-3.1s0,0.1,0.3,0.4c0.2,0.3,0.3,0.9,0.6,1.3c0.3,0.4,0.9,0.6,1.2,0.5c0.3-0.1,0.4-0.7,0.1-1.8
			c-0.2-1.1-1.2-1.7-1.9-2.6c-0.6-0.8-1.1-2.2-1.2-2.4c-0.9,0.4-1.7,0.9-2.4,1.7c-1.4,1.5-1.8,1.9-1.8,1.9s-0.3-0.4-1.8-1.9
			c-0.7-0.7-1.5-1.2-2.4-1.7c-0.1,0.2-0.7,1.5-1.3,2.4c-0.3,0.4-0.8,0.7-1.1,1.1c-0.4,0.5-0.6,1-0.7,1.6
			C97.5,98.2,97.5,98.8,97.9,98.9L97.9,98.9z"/>
		<path class="st3" d="M97.8,102.6c0.4-0.4,0.6-0.6,0.6-0.6s0.3-0.3,0.2,0.2c-0.1,0.5-0.2,1.5-0.1,1.9c0.1,0.4,0.2,0.8,0.7,0.5
			c0.5-0.3,0.7-0.5,0.9-0.8c0.3-0.3,0.5-0.4,0.5,0c-0.1,0.4-0.3,1.1-0.2,1.9c0.1,0.9,0.5,1,1.1,0.3c0.6-0.7,0.9-1.4,1.1-1.8
			c0.2-0.4,0.5-0.7,0.5,0c0,1.4,0.3,3.5,1.9,4.1c1.6-0.6,1.9-2.6,1.9-4.1c0-0.7,0.3-0.4,0.5,0c0.2,0.4,0.5,1,1.1,1.8
			c0.6,0.7,1,0.6,1.1-0.3c0.1-0.9-0.1-1.5-0.2-1.9c-0.1-0.4,0.2-0.3,0.5,0c0.3,0.3,0.4,0.5,0.9,0.8c0.5,0.3,0.6-0.1,0.7-0.5
			c0.1-0.4-0.1-1.4-0.1-1.9c-0.1-0.5,0.2-0.2,0.2-0.2s0.2,0.2,0.6,0.6c0.4,0.4,1,0.4,1,0.4s0.3-1.5-0.4-2.4
			c-0.6-0.9-0.9-1.2-0.9-1.2s-0.4,0-0.6-0.1c-0.3-0.1-0.5-0.3-0.5-0.3s0,0.5,0,0.6v0.2c0,0,0.8,0.7,0.9,0.9c0.2,0.2,0.5,0.6,0,0.2
			c-0.5-0.4-1-0.7-1-0.7s-0.1,0.8-0.3,1c-0.2,0.2-0.5,0.2-0.7,0.2c-0.1-0.1-0.1-0.1-0.1-0.1l0,0.3c0,0,0.5,0.9,0.5,1.2
			c0.1,0.4,0,0.3-0.3-0.1c-0.2-0.5-0.6-1.1-0.8-1.4c-0.2-0.3-0.5-0.5-0.4-0.1c0,0.4-0.1,1.2-0.3,1.4c-0.1,0.3-0.2,0.4-0.2,0.4
			s0.3,1,0.3,1.2c0,0.2,0,0.4-0.2,0.2c-0.2-0.2-0.6-1.3-0.6-1.3s-0.6,0-0.8-0.2c-0.2-0.2-0.5-0.9-0.5-0.9s-0.3,0.9-0.5,1.2
			c-0.2,0.3-0.7,0.6-0.7,0.6s0,1.5-0.1,1.8c0,0.3,0,0.4-0.2,0.4c-0.1,0-0.1-0.1-0.2-0.4c0-0.3-0.1-1.8-0.1-1.8s-0.5-0.3-0.7-0.6
			c-0.2-0.3-0.5-1.2-0.5-1.2s-0.3,0.7-0.5,0.9c-0.2,0.2-0.8,0.2-0.8,0.2s-0.5,1-0.6,1.3c-0.2,0.2-0.2,0-0.2-0.2
			c0-0.2,0.3-1.2,0.3-1.2s-0.1-0.1-0.2-0.4c-0.1-0.3-0.3-1-0.3-1.4c0-0.4-0.3-0.2-0.4,0.1c-0.2,0.3-0.6,0.9-0.8,1.4
			c-0.2,0.5-0.3,0.5-0.3,0.1c0.1-0.4,0.5-1.2,0.5-1.2l0-0.3l-0.1,0.1c-0.1,0.1-0.4,0-0.7-0.2c-0.2-0.2-0.3-1-0.3-1s-0.4,0.4-1,0.7
			c-0.5,0.4-0.2,0,0-0.2c0.2-0.2,0.9-0.9,0.9-0.9s0-0.1,0-0.2V99c0,0-0.3,0.2-0.5,0.3c-0.3,0.1-0.6,0.1-0.6,0.1s-0.2,0.3-0.9,1.2
			c-0.6,0.9-0.4,2.4-0.4,2.4S97.4,103,97.8,102.6L97.8,102.6z"/>
		<path class="st3" d="M105.6,112.6c-0.4-0.5-0.5-0.7-0.5-0.7s-0.1,0.2-0.5,0.7c-0.4,0.5-1.4,1.2-1.4,1.2s0.1,1.3,0.5,1.9
			c0.4,0.6,0.8,1.1,1.4,1.5c0.6-0.4,1-0.9,1.4-1.5c0.5-0.7,0.5-1.9,0.5-1.9S106,113.1,105.6,112.6L105.6,112.6z"/>
		<path class="st2" d="M104.8,114.2c0,0.3,0,1,0.2,1s0.2-0.7,0.2-1c0-0.3,0-1,0-1h-0.5C104.8,113.2,104.8,113.9,104.8,114.2
			L104.8,114.2z"/>
		<path class="st3" d="M105,45.4c-1.7,0-3.7-0.2-4.8-0.6C99.8,44.9,99.4,45,99,45c1.8,0.7,3.3,0.9,5.9,1c2.6,0,4.1-0.3,5.9-1
			c-0.4-0.1-0.8-0.2-1.2-0.3C108.7,45.2,106.7,45.4,105,45.4L105,45.4z"/>
		<path class="st3" d="M111.2,44c-0.1-0.1-0.9-0.7-1.1-0.8c-0.2-0.1,0-0.4,0-0.5c0-0.1,0.9-0.4,1.4-0.5c0.5-0.1,0.4-0.2,0.4-0.2
			s-0.3-0.3-2-0.5c-1.7-0.2-4.8-0.1-4.8-0.1s-3.1,0-4.8,0.1c-1.7,0.2-2,0.5-2,0.5s-0.1,0.1,0.4,0.2c0.5,0.1,1.4,0.4,1.4,0.5
			c0,0.1,0.2,0.4,0,0.5c-0.2,0.1-1,0.7-1.1,0.8c-0.1,0.1-0.1,0.3,0.1,0.3c0.2,0,0.2,0,0.8-0.1c1.8-0.4,3.5-0.5,5.3-0.5
			c1.8,0,3.5,0.1,5.3,0.5c0.6,0.1,0.6,0.1,0.8,0.1C111.3,44.3,111.3,44.1,111.2,44L111.2,44z"/>
		<path class="st3" d="M109.2,44.7c-1.2-0.1-2-0.3-4.2-0.3c-2.2,0-3,0.1-4.2,0.3c0.8,0.3,2,0.5,4.2,0.5
			C107.2,45.2,108.4,45,109.2,44.7L109.2,44.7z"/>
		<polygon class="st3" points="104.6,28.3 105.5,28.2 105.5,27.4 106.4,27.6 106.5,26.8 105.4,26.9 105.6,26 104.5,26 104.7,26.9 
			103.7,26.8 103.7,27.6 104.7,27.4 		"/>
		<path class="st3" d="M106.6,29.6h-1.2v-1c-0.1,0-0.2,0-0.4,0c-0.1,0-0.2,0-0.3,0v1.1h-1.3c0,0.1-0.1,0.3-0.1,0.4
			c0,0.1,0,0.1,0,0.2h3.3c0-0.1,0-0.1,0-0.2C106.7,29.9,106.7,29.7,106.6,29.6L106.6,29.6z"/>
		<path class="st4" d="M105,31.5c0.7,0,1.3-0.4,1.6-1h-3.1C103.7,31.1,104.3,31.5,105,31.5L105,31.5z"/>
		<path class="st4" d="M105.7,28.6v0.7h0.8C106.4,29,106.1,28.8,105.7,28.6L105.7,28.6z"/>
		<path class="st4" d="M104.4,28.6c-0.4,0.1-0.6,0.4-0.8,0.7h0.8C104.4,29.4,104.4,28.6,104.4,28.6z"/>
		<path class="st2" d="M106,42c-0.3-0.1-1-0.4-1-0.4s-0.6,0.3-1,0.5c-0.3,0.2-0.3,0.1-0.4,0.4c-0.1,0.3,0,0.3,0.2,0.4
			c0.2,0.1,1.3,0.6,1.3,0.6s1.1-0.5,1.4-0.6c0.3-0.1,0.2-0.2,0.1-0.4C106.4,42.2,106.3,42.1,106,42L106,42z"/>
		<polygon class="st3" points="103.9,42.3 105,42.9 106.1,42.3 105,41.8 		"/>
		<path class="st3" d="M105,38.1c0,0-0.1,0.4-0.2,0.5c-0.1,0.2-0.2,0.3-0.2,0.5c0,0.2,0.3,0.3,0.4,0.3c0.1,0,0.4-0.1,0.4-0.3
			c0-0.2-0.1-0.3-0.2-0.5C105.1,38.5,105,38.1,105,38.1L105,38.1z"/>
		<circle class="st3" cx="105" cy="39.9" r="0.2"/>
		<path class="st3" d="M104.3,38.8c0,0,0.4-0.4,0.5-0.6c0.1-0.2,0.2-0.5,0.2-0.5s0.1,0.2,0.2,0.5c0.1,0.2,0.5,0.6,0.5,0.6
			s0.5-0.3,0.8-1.2c0.3-0.9-0.1-1.9-0.2-3c-0.1-1.1-0.2-2.9-0.2-2.9c-0.4,0.2-0.7,0.3-1.1,0.3c-0.3,0-0.7-0.1-1.1-0.3
			c0,0-0.1,1.9-0.2,2.9c-0.1,1.1-0.5,2.1-0.2,3C103.8,38.5,104.3,38.8,104.3,38.8L104.3,38.8z"/>
		<ellipse class="st2" cx="105" cy="36.7" rx="0.9" ry="0.8"/>
		<ellipse class="st2" cx="105" cy="34.7" rx="0.8" ry="0.8"/>
		<ellipse class="st2" cx="105" cy="32.9" rx="0.8" ry="0.8"/>
		<ellipse class="st3" cx="105" cy="36.5" rx="0.5" ry="0.4"/>
		<ellipse class="st3" cx="105" cy="34.6" rx="0.4" ry="0.4"/>
		<ellipse class="st3" cx="105" cy="32.8" rx="0.4" ry="0.4"/>
		<path class="st2" d="M105,100.8c0.1,0,0.1-0.1,0.1-0.4c0-0.3,0-0.9,0.1-1.2c0.1-0.4-0.1-0.3-0.2-0.3c-0.1,0-0.1,0.3-0.1,0.4
			c0,0.2,0,1.1,0,1.2S104.9,100.8,105,100.8L105,100.8z"/>
	</g>
	<g id="g4017">
		<path class="st3" d="M96.1,107.7c0.4-0.2,0.7-0.5,1.6-1.1c0.9-0.6,1.2-1.2,1.2-1.2h-0.3c-0.2,0-0.3-0.2-0.3-0.5
			c0-0.2,0-0.7,0.1-1.2c0.1-0.5-0.1-1-0.1-1s-0.4,0.3-0.9,0.6c-0.6,0.3-0.8,0.2-0.8,0.2l-0.1-0.6c0,0-0.2,0.5-0.6,1.1
			c-0.3,0.6-1.3,1.3-1.9,1.7c-0.7,0.5-1.4,1-1.9,1.2c-0.5,0.2-0.2,0.4-0.2,0.4s0.5,0.5,1.9,0.8C95.1,108.5,95.7,108,96.1,107.7
			L96.1,107.7z"/>
		<path class="st3" d="M101,107.2c-0.5-0.1-0.8-0.2-0.9-0.8c-0.1-0.4,0-1.7,0-1.7s-0.2,0.1-0.4,0.4c-0.2,0.2-0.6,0.3-0.6,0.3
			s-0.1,0.2-0.3,0.5c-0.2,0.3-0.4,0.7-0.9,1c-0.5,0.3-1,0.7-1.4,1c-0.4,0.3-0.8,0.7-1.3,0.9c-0.5,0.3-0.9,0.7-1.1,1.4
			c-0.2,0.7,0,0.9,0.5,0.9c0.6,0,0.6,0,1.5-0.2c0.9-0.2,2.2-1.2,3.1-1.8C100.3,108.4,101,107.2,101,107.2L101,107.2z"/>
		<path class="st3" d="M103.5,108c0,0-0.4-0.5-0.5-1c-0.1-0.5-0.4-1.6-0.4-1.6s-0.1,0.3-0.4,1c-0.3,0.6-0.8,0.8-0.8,0.8
			s0,0.3-0.5,0.8c-0.4,0.5-1.1,1.1-1.7,1.4c-0.6,0.4-1.5,0.9-1.9,1.5c-0.5,0.6-0.5,1.3-0.3,1.6c0.2,0.3,0.5,0,0.9-0.3
			c0.4-0.2,1.7-0.4,3.3-1.3C103,110.1,103.5,108,103.5,108L103.5,108z"/>
		<path class="st3" d="M104.2,111.8c0.5-0.7,0.5-2.4,0.5-2.4s-0.2-0.1-0.4-0.3c-0.2-0.2-0.7-0.9-0.7-0.9s-0.3,0.6-0.6,1.1
			c-0.3,0.5-0.5,0.7-1.1,1.3c-0.6,0.6-1.5,1.2-1.9,1.8c-0.4,0.6-0.2,1.9,0.1,2.3c0.2,0.4,0.6,0.3,0.9-0.1c0.4-0.3,0.5-0.4,1.1-1
			C102.9,113.2,103.8,112.5,104.2,111.8L104.2,111.8z"/>
		<path class="st2" d="M98.7,97.6c0.2-0.5,0.5-1.1,0.8-1.4c0.2-0.3,0.4-0.7,0.4-0.7S99.2,96,99,96.4c-0.2,0.4-0.4,0.8-0.5,1.2
			C98.4,98,98.4,98.1,98.7,97.6z"/>
		<path class="st2" d="M101.1,98c0.1-0.3,0.2-0.6,0.2-0.6s0.1-0.3,0-0.3c-0.1,0-0.3,0.2-0.5,0.8c-0.2,0.6-0.4,1.3-0.4,1.4
			C100.5,99.3,101,98.4,101.1,98L101.1,98z"/>
		<path class="st2" d="M103,99.6c0.1-0.2,0.1-0.2,0.1-0.2s0.2-0.6,0.2-0.8c0-0.1-0.1-0.3-0.2,0c-0.2,0.3-0.2,0.6-0.2,0.8
			c0,0.1-0.2,0.6-0.2,0.7C102.7,100.1,102.9,99.8,103,99.6L103,99.6z"/>
		<path class="st2" d="M97.1,105.3l-0.3-0.2c0,0-0.2,0.2-0.4,0.4c-0.2,0.2-0.5,0.3-0.6,0.5c-0.2,0.2-0.4,0.5-0.8,0.7
			s-0.5,0.3-0.5,0.3c0.1,0.1,0.3-0.1,0.3-0.1s0.1,0,0.6-0.3c0.5-0.3,0.6-0.4,0.9-0.7C96.7,105.8,97.1,105.3,97.1,105.3z"/>
		<path class="st2" d="M99.2,107.7c0.2-0.2,0.4-0.3,0.3-0.4c-0.1-0.1-0.2-0.1-0.4,0.1c-0.2,0.1-0.6,0.6-0.8,0.8
			c-0.2,0.2-0.4,0.3-0.6,0.5c-0.2,0.2-0.7,0.4-0.9,0.5c-0.2,0.1,0,0.1,0,0.1s0.2-0.1,0.4-0.2c0.2-0.1,0.7-0.3,0.7-0.3
			s0.2-0.1,0.5-0.3C98.6,108.3,99,107.9,99.2,107.7L99.2,107.7z"/>
		<path class="st2" d="M101.5,109.4c0.2-0.3,0-0.2-0.3-0.1c-0.3,0.1-0.8,0.7-1.1,0.9c-0.3,0.2-0.6,0.3-0.9,0.5
			c-0.3,0.1-0.3,0.2-0.3,0.3c0,0.1,0.1,0.1,0.2,0c0.1-0.1,0.5-0.3,0.5-0.3s0.2,0,0.3-0.1c0.2,0,0.4-0.2,0.7-0.5
			C101.1,109.8,101.4,109.7,101.5,109.4L101.5,109.4z"/>
		<path class="st2" d="M102.6,111.5c-0.4,0.3-1.1,0.8-1.3,1.2c-0.2,0.4-0.3,0.6-0.3,0.7c0.1,0.1,0.3-0.1,0.4-0.2
			c0.1-0.2,0.3-0.4,0.3-0.4s0.7-0.7,1-0.9c0.3-0.2,0.7-0.6,0.8-0.9c0.1-0.3,0-0.4,0-0.4S103,111.3,102.6,111.5L102.6,111.5z"/>
		<path class="st6" d="M91.5,51c-0.4-0.2-1.4-0.7-2.5-0.8c-1.1-0.1-1.9,0.1-2.8,0.3c-0.6,0.2-1.2,0.2-1.7,0.1
			c-0.8-0.2-1.4-0.9-1.6-1.8c0,0-0.7,0.9,0,1.9c0.4,0.5,0.8,0.8,1.3,0.9c1.5,0.3,3-0.6,4.3-0.7c1.2-0.1,2.2,0.7,2.2,0.7
			s0.3,0.2,0.7,0C91.8,51.4,91.9,51.2,91.5,51z"/>
		<path class="st3" d="M87.1,95.2c0,0-0.2,0-0.4,0c-0.2,0-0.7-0.2-0.8-0.2c-0.1-0.1-0.3-0.1-0.5,0.1c-0.1,0.2-1.2,0.8-1.2,0.8H86
			C86.7,95.8,87.1,95.2,87.1,95.2L87.1,95.2z"/>
		<path class="st3" d="M92.2,94.9v-0.2L92,94.2c0,0-0.3,0.2-0.6,0.5c-0.4,0.4-0.7,0.9-0.9,1.1c-0.3,0.4-0.7,0.8-0.4,0.1
			c0.4-0.6,0.5-0.9,0.8-1.3c0.3-0.4,0.5-0.6,0.5-0.6c0,0-0.3-0.1-1-0.2c-0.8-0.1-1.2-0.4-1.6-0.6c-0.4-0.2-1-0.5-1-0.5
			s-1.3,0.5-1.8,0.7c-0.5,0.1-0.8,0.2-0.3,0.4c0.5,0.2,0.9,0.3,1.1,0.4c0.2,0.1,0.9,0.4,1.4,0.4c0.4,0,1.2,0,0.9,0.3
			c-0.3,0.3-0.6,0.9-0.9,1.8c-0.3,0.9-0.3,1.7-0.3,2.1s0,0.8,0,0.8s0.5-0.6,2-1.5c1.4-0.9,2-1.2,2.2-1.3c0.3-0.1,0.4-0.1,0.4-0.5
			C92.4,95.9,92.2,95.1,92.2,94.9L92.2,94.9z"/>
		<path class="st3" d="M97.7,90.6c-0.1,0-0.2-0.1-0.3-0.1c0,0,0,0-0.1,0c-0.2,0.1-1,0.7-1.4,1.2c-0.4,0.6-0.7,0.6-0.3,0
			c0.4-0.6,0.7-1,1-1.2c0.1-0.1,0.2-0.2,0.3-0.3c-0.7-0.3-1.5-0.7-2.2-1.3c-0.1,0.2-0.3,0.5-0.5,0.7c-0.3,0.3-1,0.6-1,0.6
			s0.5-0.6,0.7-1c0.1-0.3,0.2-0.6,0.2-0.7c-0.5-0.4-1-0.9-1.4-1.4c-0.1,0.4-0.4,1.2-1.2,2.2c-1.1,1.3-3.4,1.9-3.4,1.9
			s-0.8,0.1-0.2,0.3c0.6,0.2,1.1,0.5,2.3,0.2c1.2-0.2,1.3-0.3,1.5-0.3c0.2-0.1,0.6,0,0,0.2c-0.6,0.2-2.1,0.5-2.6,0.4
			c-0.6,0-1.3-0.2-0.5,0.3c0.8,0.4,1.1,0.6,1.6,0.6c0.5,0,0.7,0.2,1.2,0.2c0.5,0,0.6-0.1,0.9-0.2c0.3-0.1,0.6,0,0.6,0.2
			c0,0.1-0.5,0.5-0.4,1.4c0,0.9,0.1,1.5,0.2,1.8c0.1,0.3,0.3,0.7,0.4,1c0.1,0.3,0.2,0.5,0.3,0c0.1-0.5,0.4-1.3,0.6-1.8
			c0.1-0.5,0.2-0.5,0.2-0.8c0-0.3,0.3-0.5,0.2,0c-0.1,0.5-0.3,1.1-0.4,1.5c-0.1,0.4-0.3,1.2,0.1,0.6c0.4-0.6,1.9-2.3,2.2-2.6
			c0.3-0.3,0.5-0.6,0.6-0.8c0.2-0.3,0.7-0.6,1-1c0.2-0.3,0.9-1,1.2-1.2C98.6,91,98.2,90.8,97.7,90.6L97.7,90.6z"/>
		<path class="st3" d="M76.8,51.9c0,0.9,1.1,2.7,1.6,3.6c0.6,0.9,0.7,1.3,0.6,1.4c-0.1,0.1-0.3-0.4-0.7-0.8
			c-0.3-0.4-0.9-1.4-1.5-2.2c-0.5-0.7-1.3-2.5-1.4-2.7c-0.1-0.2-0.1-0.3-0.4-0.1c-0.3,0.2-0.8,2.2-0.2,3.5c0.6,1.3,1.5,2.3,1.9,2.8
			c0.4,0.5,0.9,1.2,0.8,1.2c-0.1,0.1-0.2-0.1-0.7-0.6s-1.2-1.3-1.7-1.9c-0.4-0.5-1-1.5-1.2-1.8c-0.1-0.1-0.2-0.1-0.2,0
			c-0.2,0.2-0.4,0.6-0.3,1.6c0.2,1.5,0.9,2.3,1.6,3.1c0.7,0.7,1.4,1.4,1.3,1.5c-0.1,0.1-0.8-0.5-1.3-1c-0.5-0.5-1.7-1.6-1.9-1.9
			c-0.3-0.3-0.6-0.2-0.6,1.1c0,1.3,1.4,2.6,2,3.3c0.6,0.7,1.3,1.1,1.2,1.3c-0.1,0.1-0.6-0.2-1-0.5c-0.4-0.3-1.8-1.2-2.1-1.4
			c-0.3-0.2-0.4,0.2-0.1,1.4c0.4,1.2,1.4,2.2,2,2.6c0.6,0.4,1.6,1,1.6,1.1c-0.1,0.1-0.5,0-1.1-0.3c-0.6-0.3-1.3-0.5-1.8-0.7
			C73,65.2,73,65.6,73,65.6s-0.1,1,0.6,1.8s1.6,1.1,2.4,1.3c0.8,0.1,0.9,0.2,0.9,0.3c0,0.1-0.1,0.1-0.3,0.1s-0.9,0.1-1.6,0.1
			c-0.7,0-1,0.2-1,0.5c0,0.3,0,0.7,1,1.4c1,0.7,2.2,0.8,2.6,0.9c0.5,0.1,0.5,0.1,0.4,0.3c-0.1,0.1-0.3,0.1-1.1,0.2
			c-0.8,0.1-1.2,0.4-1.3,0.6c-0.1,0.2,0.1,0.8,0.7,1.2c0.6,0.4,1.4,0.6,2.6,0.5c1.2-0.1,1.5-0.1,1.5,0.1c0,0.2-0.4,0.3-1,0.4
			c-0.6,0.1-1.1,0.1-1.4,0.4c-0.3,0.3-0.1,0.9,0.5,1.3s2,0.4,2.6,0.4c0.6,0,1.5-0.3,1.6-0.1s-0.4,0.4-1.1,0.6
			c-0.6,0.2-0.8,0.4-0.9,0.6c-0.1,0.3,0,0.5,0.7,0.8c0.7,0.3,1.8,0.3,2.4,0c0.6-0.3,0.9-0.4,1-0.3c0.1,0.1,0,0.2-0.1,0.3
			c-0.1,0.1-0.6,0.5-1.2,0.7c-0.6,0.2-0.7,0.2-0.9,0.7c-0.2,0.5,0.3,0.9,1.5,0.9c1.1,0,2.6-0.4,3.1-0.7c0.5-0.3,0.7-0.3,0.7-0.2
			c0.1,0.1,0.1,0.2-0.2,0.3c-0.2,0.2-1,0.7-1.4,0.8C86,81.9,86,82.2,86,82.5c0,0.3-0.1,0.8,0.9,1c1,0.2,2.2,0.1,3.3-0.7
			c0.3-0.2,0.6-0.4,0.7-0.6c-0.1-1,0-1.7,0.1-2.4c-0.2,0-0.6-0.1-1-0.2c-0.6-0.2-0.8-0.8-1-1.1c-0.1-0.3-0.3-0.3-0.6-0.2
			c-0.2,0.1-0.5,0.2-0.8,0.2c-0.3,0-1.1-0.2-1.6-0.8c-0.5-0.6-0.4-1.2-0.4-1.5c0-0.3-0.5-0.1-0.7-0.1c-0.2,0-0.9-0.1-1.6-0.5
			c-0.6-0.4-0.6-1-0.7-1.3c-0.1-0.2-0.3-0.4-0.5-0.5c-0.2-0.1-0.5-0.2-1-0.5c-0.4-0.4-0.6-1.1-0.6-1.3c0-0.2-0.3-0.3-1.2-0.7
			c-0.9-0.5-0.8-1.4-0.8-1.8c0-0.4,0.5-0.7,0.5-0.8c0-0.1-0.3-0.2-0.6-0.4c-0.3-0.2-1.1-0.5-1.1-1.6c0-1.1,0.7-1.2,0.7-1.2
			s-0.1-0.1-0.4-0.2c-0.3-0.2-1.1-0.7-1.1-1.4c0-0.7,0.3-1,0.5-1.1c0.2-0.2,0.8-0.3,0.8-0.3s-0.4-0.2-0.5-0.8
			c-0.2-0.5-0.2-1.2,0.2-1.6c0.4-0.5,1-0.5,1.4-0.5c0.3,0,0.6,0.2,0.8,0.1c0.1-0.1,0.1-0.2,0-0.4c-0.1-0.3-0.1-0.9,0-1.1
			c0.1-0.2,0.1-0.7,1-0.9c0.9-0.3,1.8,0.3,2,0.5s0.2-0.2,0.2-0.5c0-0.3-0.6-1-1.2-2c-0.7-1-1-1.5-1.7-3.1s-1.2-3.5-1.3-4
			c-0.1-0.5-0.3-0.3-0.3-0.3s-0.2,0.1-0.7,1.2C76.9,49.9,76.8,50.9,76.8,51.9L76.8,51.9z"/>
		<path class="st3" d="M92,72.4c-0.5,0-1.2-0.3-1.7-1.1c-0.5-0.8-1.3-0.9-2.6-0.9c-1.3,0-2-0.6-2.3-1.6c-0.3-0.9,0.1-2,1.4-2.7
			s2-1.4,2-2.6c0.1-1.2-1.4-2.6-2.8-4.2c-1.4-1.6-2.5-3.9-2.5-3.9S83,56,83,56.5c0,0.5,0.2,1.1,0,1.3c-0.2,0.2-0.3-0.2-1.1-0.6
			c-0.8-0.4-1.5-0.4-2,0.2s0,1.6,0.5,2.1c0.5,0.5,0.9,0.9,0.7,1s-0.8-0.3-1.1-0.4s-0.8-0.8-1.6-0.7c-0.8,0.1-1.1,0.3-1.2,1
			c-0.1,0.7,0.7,1.3,1.2,1.5c0.5,0.3,0.7,0.5,0.6,0.6c-0.1,0.1-0.3,0-0.5-0.1c-0.2-0.1-0.9-0.2-1.3,0c-0.4,0.2-1.1,0.7-0.5,1.4
			c0.6,0.7,1.9,1,2.2,1c0.3,0.1,0.4,0,0.4,0.2c0,0.2-0.5,0.2-1.2,0.2c-0.7,0-0.9,0.7-0.8,1.2s1.3,1.1,1.9,1.2c0.6,0.1,0.9,0,0.9,0.2
			c0.1,0.2-0.1,0.3-0.4,0.4c-0.4,0.1-1.1,0.2-1.2,0.8c-0.1,0.6-0.2,0.8,0.4,1.3c0.5,0.5,1.4,0.4,1.7,0.4c0.3-0.1,0.6-0.3,0.8-0.1
			c0.3,0.3-0.2,0.5-0.7,0.8c-0.4,0.3-0.4,0.9,0.3,1.3c0.7,0.4,1.5,0.3,1.8,0.2s0.7-0.6,0.9-0.3c0.2,0.3-0.6,0.4-1,0.9
			c-0.4,0.4-0.2,1.2,0.5,1.6c0.7,0.4,1.9,0.1,2.1-0.1c0.2-0.2,0.5-0.3,0.6-0.1c0.2,0.2-0.1,0.6-0.2,0.9c-0.2,0.4-0.4,1.4,0.6,1.8
			c1.1,0.4,2.1-0.5,2.2-0.7c0.2-0.2,0.4-0.2,0.5-0.1c0.2,0.1,0.1,0.2-0.1,0.4c-0.1,0.2-0.4,1,0.4,1.5c0.5,0.4,1.1,0.3,1.4,0.3
			c0.2-0.6,0.4-1.3,0.6-2.2h-0.2c-0.1,0-0.1,0.2-0.1,0.2c0,0.1,0,0.1-0.1,0.1c-0.1,0-0.1,0.1-0.2,0.1c-0.1,0.1-0.3,0.2-0.3,0.2
			c-0.1-0.1,0.3-0.2,0.4-0.4c0.1-0.1,0.3-0.3,0.3-0.4c0-0.1,0.1-0.2,0.3-0.4c0.1,0,0.1-0.1,0.1-0.2c0.1-0.6,0.2-1.3,0.4-2.2
			c0.1-0.6,0.1-1.1,0.1-1.6L92,72.4L92,72.4z"/>
		<path class="st3" d="M69.9,56.3c1.2,2.3,2.8,3.7,2.8,3.7s-0.2-0.6-0.3-1c-0.1-0.4,0-0.9,0-0.9s-0.4-0.5-1.2-1.7
			c-0.8-1.2-1.2-2.9-1.2-2.9s0.7,1.7,1.3,2.6c0.5,0.9,1.2,1.7,1.2,1.7s0.2-0.8,0.4-0.9c0.2,0,0.3,0.1,0.4,0.3
			c0.1,0.2,0.3,0.2,0.3,0.2S73.3,57,73,56.5c-0.1-0.2-0.3-0.4-0.5-0.6c-0.4-0.7-1.4-2-1.8-3.3c-0.5-1.3-1.5-4.5-1.7-5.5
			c-0.2-1-0.4-0.4-0.5,0.3c-0.2,0.7-0.4,1.7-0.3,3.2C68.3,52.1,68.7,53.9,69.9,56.3L69.9,56.3z"/>
		<path class="st3" d="M71.4,62.6c0.4,0.3,1.1,0.7,1.1,0.7s-0.1-0.2-0.2-0.5S72.2,62,72.2,62s-0.5-0.4-0.9-0.8
			c-0.4-0.3-0.8-0.7-1.7-1.8c-0.9-1.1-0.2-0.4,0.5,0.3c0.7,0.8,2.1,1.9,2.1,1.9s0,0,0-0.3c0-0.2,0.1-0.4,0.2-0.6
			c0.1-0.2,0.1-0.2-0.7-0.8c-0.8-0.6-2.8-2.8-3.6-4.2c-0.8-1.3-1.7-3.2-1.7-3.2s-0.4,2.7,1.2,5.6C69.3,61.3,70.9,62.3,71.4,62.6z"/>
		<path class="st3" d="M79.9,79.5c0.9-0.3,0.6-1.2,0.6-1.2c0,0-0.5,0.2-1.1,0.4c-0.5,0.2-1.7,0.5-2.2,0.6c-0.5,0-0.5-0.1-0.5-0.1
			c0-0.1,0.4,0,1.1-0.1c0.7-0.1,1.9-0.8,2.2-0.9c0.2-0.1,0.2-0.2-0.1-0.2c-0.3,0-0.6-0.2-0.7-0.3c-0.1-0.1-0.4,0-1.3,0.2
			c-0.8,0.2-2.5,0.5-3.8,0.5c-1.3,0-2.5-0.2-2.7-0.3c-0.2,0-0.4,0.1,0.2,1.1c0.6,1,2.8,1.6,4.3,1.6C77.5,80.6,79,79.8,79.9,79.5
			L79.9,79.5z"/>
		<path class="st3" d="M75.9,77.3c1.6,0,2.1-0.5,2.1-0.5s0-0.1-0.2-0.4c-0.2-0.3-0.2-0.9-0.2-0.9s-0.4,0.1-1,0.2
			c-0.6,0.1-1.4,0.2-2.2,0c-0.8-0.1-0.5-0.2,0.2-0.2c0.7,0.1,1.9-0.2,2.3-0.3c0.4-0.1,0.2-0.3,0-0.4c-0.3-0.1-1-0.6-1-0.6
			s-1.9,0.2-3.7,0c-1.8-0.2-2.9-0.6-3.2-0.7c-0.4-0.1-0.3,0.1-0.3,0.1S68.5,74,69.1,75c0.6,1,1.8,1.6,2.8,1.9
			C73,77.1,74.3,77.3,75.9,77.3L75.9,77.3z"/>
		<path class="st3" d="M75.5,73.7c0,0-0.1-0.1-0.2-0.4c-0.1-0.3,0.2-0.6,0.2-0.6s-0.4-0.1-1.5-0.3c-1.2-0.1-1.2-0.2-1.9-0.4
			c-0.7-0.2-1.2-0.4-1.2-0.5s0.2,0,0.7,0.2c0.4,0.2,2.2,0.3,3,0.5c0.8,0.1,1.2,0.2,1.3,0.1c0.1-0.1,0.6-0.2,0.6-0.2
			s-0.3-0.1-0.7-0.2c-0.4-0.1-0.8-0.2-1-0.4c-0.2-0.1-0.3-0.2-1.2-0.3c-1-0.1-1.7-0.4-3.4-1c-1.7-0.6-3-1.4-3.3-1.6
			c-0.3-0.3-0.3-0.1-0.2,0.3c0.1,0.4,0.1,0.8,0.9,1.8c0.9,1,1.3,1.4,3.5,2.2C73.1,73.8,75.5,73.7,75.5,73.7L75.5,73.7z"/>
		<path class="st3" d="M69.1,68.4c1.9,1.4,4.2,1.8,4.6,1.9c0.1-0.1-0.1-0.6,0-0.8c0.1-0.3,0.3-0.3,0.8-0.4c0.5,0,0.2-0.1,0.1-0.1
			s-0.1,0-0.9-0.2c-0.8-0.2-1.5-0.3-2.6-0.7c-1.1-0.4-1.4-0.7-1.4-0.8c0-0.1,0.5,0.3,1.5,0.6c1,0.4,2.1,0.5,2.7,0.6
			c0.6,0.1,0.1-0.1-0.2-0.3c-0.3-0.2-0.7-0.8-0.7-0.8s-0.7-0.1-1.8-0.5c-1.1-0.3-2.1-0.7-3-1.3c-0.3-0.2-0.6-0.4-1-0.7
			c-0.6-0.5-1.3-0.9-1.5-1.1c-0.4-0.3-0.3-0.1-0.2,0.1c0,0.2,0.3,1,0.9,1.8C67,66.8,67.2,67,69.1,68.4z"/>
		<path class="st3" d="M68.8,64.6c1.9,1.5,3.5,2,3.8,2.1c0.3,0.1,0.3,0,0.2-0.2c-0.1-0.2-0.1-0.7-0.1-0.7S72,65.4,71.2,65
			c-0.8-0.4-1.6-1-2.1-1.4c-0.6-0.4-0.2-0.4-0.1-0.2c0.2,0.1,0.9,0.6,1.7,1.1c0.8,0.5,1.9,1.2,1.9,1.2s0-0.3,0.2-0.4
			C73,65,73.4,65,73.4,65s-0.2-0.2-0.3-0.4c-0.1-0.2-0.7-0.4-1.4-0.7c-0.7-0.3-2-1.3-2.9-2c-0.9-0.8-2.7-2.7-2.8-2.9
			c-0.1-0.2-0.2-0.1-0.2,0.1c0,0.2-0.1,0.3,0.1,1.2C66,61.2,66.9,63.1,68.8,64.6z"/>
		<path class="st3" d="M75.5,50.4c0.2,0.4,0.4,0.8,0.6,1.1c0.3,0.4,0.4,0.7,0.4,0.7s0.1-0.2,0-0.4c0-0.3-0.1-0.6,0-1.1
			c0-0.2,0.1-0.5,0.1-0.7c0-0.2-0.1-0.4-0.1-0.6c-0.1-0.3-0.3-1.4-0.5-2.1c-0.1-0.8-0.3-1.9-0.3-2.9c0-1,0.2-0.5,0.2,0
			c0,0.5,0.1,1.2,0.2,2.3c0.2,1.1,0.6,2.8,0.6,2.8s0-0.3,0.2-0.6c0.1-0.4,0.4-0.8,0.6-1.3c0.2-0.5,0.1-0.5,0.1-0.5s-0.7-3.2-0.8-4.7
			C76.5,41,76.2,37,76.2,37c-1,1-1.7,3.6-1.8,6c-0.1,1.8,0.2,3.5,0.3,4.2C74.9,48.6,75.1,49.7,75.5,50.4L75.5,50.4z"/>
		<path class="st3" d="M73.3,55.4c0-0.7,0.2-1.3,0.7-1.4c0,0-0.4-0.7-0.8-1.7c-0.2-0.7-0.4-1.6-0.6-2.3c-0.3-1.7-0.5-3.5,0.1-0.6
			c0.5,2.9,1.1,3.9,1.1,3.9l0.7,1.2c-0.1-0.5-0.1-0.9-0.1-1.5c0-0.6,0.1-1.4,0.3-2c0,0-0.9-1.8-1.4-3.9s-0.9-4.1-0.9-5.2
			c-0.1-1.1-0.1-1.6-0.1-1.6s-0.9,0.7-1.2,4.2c-0.3,3.5,0.6,6.8,1.1,8.1C72.6,53.9,73.3,55.4,73.3,55.4L73.3,55.4z"/>
		<path class="st3" d="M83.3,82c0,0-0.1-0.1-0.6-0.4c-0.4-0.3-0.3-1.1-0.3-1.1s-0.1,0.1-0.4,0.3c-0.3,0.2-0.7,0.5-1.1,0.6
			s-0.6,0.3-0.9,0.4c-0.3,0.1-0.2,0,0-0.2c0.2-0.1,0.3-0.2,0.9-0.4c0.6-0.2,1.7-1.2,1.7-1.2s-0.3,0-0.7,0c-0.5,0-1.1-0.3-1.1-0.3
			s-0.5,0.4-2.4,1.3c-1.9,0.8-3.5,1-3.5,1s0.2,1,1.1,1.3c0.8,0.3,1.8,0.5,3.9,0C81.9,82.9,83.3,82,83.3,82L83.3,82z"/>
		<path class="st3" d="M85.8,84c0.2-0.8-0.3-1.4-0.3-1.4s-0.1,0.1-0.4,0.3c-0.3,0.3-0.7,0.8-1.5,1.2c-0.8,0.4-1.1,0.4-0.3,0
			c0.8-0.4,1.9-1.6,1.9-1.6l-0.3-0.1c-0.3-0.1-0.8,0.1-3,1.4C79.7,85,78.5,85,78.5,85s1,1.2,3.6,1.1C84.7,86,85.6,84.8,85.8,84
			L85.8,84z"/>
		<path class="st3" d="M90.8,83c0,0-0.3,0.4-0.7,0.7s-1.4,0.4-1.4,0.4s0,0.1-0.2,0.4c-0.2,0.3-0.6,0.9-1.1,1.2
			c-0.5,0.3-1.2,0.5-1.2,0.5s0.4-0.3,0.9-0.5c0.4-0.3,0.9-0.8,1.2-1.1c0.3-0.3-0.1-0.3-0.1-0.3s-0.5,0-1.1,0c-0.5,0-0.4,0-0.5,0.2
			s-0.3,0.5-0.7,0.9c-0.5,0.5-0.9,1-1.3,1.5c-0.3,0.3-0.1,0.4-0.1,0.4s0.1,0.2,1.3,0.3c0.7,0.1,1.5,0,2.3-0.5c0.5-0.3,1-0.8,1.6-1.3
			C90.8,84.3,90.8,83,90.8,83L90.8,83z"/>
		<path class="st3" d="M91.4,86.2c-0.3,0.4-0.4,0.5-0.4,0.5s0.2-0.6,0.4-0.9c0.1-0.2,0.2-0.3,0.3-0.4c-0.2-0.4-0.4-0.9-0.5-1.4
			c-0.1,0.4-0.5,1.6-1,2.4c-0.6,1-1.1,1.3-0.8,1.6c0.3,0.3,1,0.3,1.8-0.1c0.7-0.4,1-1,1.1-1.5c-0.1-0.2-0.3-0.4-0.4-0.6
			C91.7,85.9,91.5,86,91.4,86.2L91.4,86.2z"/>
		<ellipse class="st3" cx="91.2" cy="47.6" rx="0.5" ry="0.5"/>
		<path class="st3" d="M90.1,46.7c0.5,0,0.8-0.2,1.3-0.2c0.6,0.1,1.5,0.4,2.6,1c0.8,0.4,1.9,0.6,2.9,0.3c0.3-0.1,0.6-0.2,0.9-0.4
			c1.3-0.7,1-2.1,1-2.1c-0.9,0.7-2.1,1-3.2,1c0,0,0.1,0.1,0.3,0.2c0.2,0.2,0.5,0.4,0.4,0.5c-0.1,0.1-0.6-0.4-1-0.6
			c-0.4-0.3-1-0.7-2-1c-1-0.3-2.1-0.3-2.8,0.1c-0.7,0.4-0.8,0.9-0.7,1.1C89.8,46.6,89.9,46.7,90.1,46.7z"/>
		<path class="st3" d="M103.9,57.1c-0.2-0.1-0.6-0.1-1.1-0.6c-0.5-0.5-1.7-1.8-1.9-2.1c-0.1-0.2-0.1-0.5,0.3-0.6
			c0.3-0.1,0.6-0.6,0.6-0.6s-0.8-0.3-1.3-0.7c-0.5-0.4-1.7-1.4-1.9-1.7c-0.2-0.3-0.1-0.3,0.2-0.4c0.2-0.1,0.3-0.2,0.3-0.2
			s-0.6-0.4-1.1-0.8c-0.5-0.4-1.2-1.1-1.2-1.1c-0.8,0.3-2,0.2-2.6,0.1c-1.2-0.2-2-0.7-2-0.7s0,0.2-0.2,0.5c-0.1,0.4-0.7,0.6-1.2,0.2
			c-0.5-0.4-0.4-1.1-0.4-1.1s-0.4-0.3-1.3-0.6c-0.9-0.3-1.6-0.4-2.3,0C86,47,85.7,48,85.7,48.7c0,0.7,0.4,0.4,0.5,0.3
			c0.1-0.1,0.2-0.6,1.2-0.8c0.9-0.1,1.7,0.3,2.8,1.1c1,0.8,1.3,0.9,1.8,1.4c0.5,0.5,0.1,0.8-0.8,1.1c-0.9,0.3-2-0.3-2.1-0.3
			c-0.2,0.1,0.4,0.9,1.1,1.2c0.8,0.3,1.7,0.1,2.5-0.2c0.5-0.2,0.6,0,0.8,0.2c0.8,0.9,1.1,1.7,1.2,2.7c0.4-0.1,0.7-0.6,0.8-0.9
			c0-0.2,0.1-0.5,0.4-0.3c0.3,0.3,0.5,1.8,0.5,2.4S96,58.4,96,58.4l0.2,0c0.1,0,0.4-0.2,0.7-0.4c0.3-0.2,0.3,0,0.3,0.4
			c0,0.4,0.1,1.1,0.6,2.3s1.2,1.7,1.2,1.7s0.1-0.2,0.3-0.7c0.1-0.5,0.2-1.5,0.2-2.3c0-0.8-0.2-2.7-0.2-2.7s1,1.3,2.1,1.6
			c1.1,0.3,2.1,0.1,2.6-0.4C104.6,57.3,104.2,57.1,103.9,57.1L103.9,57.1z"/>
		<path class="st3" d="M96.9,60.3c0,0-0.3,0.7-0.5,1c-0.2,0.3-0.3,0.3-0.3,0.3s0.3,0.3,0.8,0.4c0.5,0.1,0.9,0.2,0.9,0.2
			s-0.5-0.7-0.7-1.2C96.9,60.5,96.9,60.3,96.9,60.3L96.9,60.3z"/>
		<path class="st3" d="M103.3,59.9c-0.2-0.4-0.3-0.6-0.3-0.6c-0.7,0.1-1.9-0.2-2.4-0.5c0,0,0.5,1,1,1.3c0.5,0.3,0.6,0.4,0.6,0.4
			s-0.5,0.1-1.2-0.6c-0.7-0.7-1-1.4-1-1.4s0.1,1.7-0.1,2.8s-0.3,1.2-0.3,1.2s1.4,0.2,3-0.2c1.6-0.4,1.7-0.6,1.7-0.6s0.2,0-0.1-0.4
			C103.9,61,103.5,60.3,103.3,59.9L103.3,59.9z"/>
		<path class="st2" d="M100.5,56.1c-0.5-0.6-0.5-0.7-0.5-0.7s-0.2,0.2,0,0.4c0.1,0.2,0.8,0.8,1.3,1.1c0.5,0.3,0.9,0.3,0.9,0.3l0-0.1
			C102.2,57.2,101,56.6,100.5,56.1z"/>
		<path class="st2" d="M98.6,59.7c0,0-0.1-2.2-0.1-2.5S98.3,57,98.3,57L98,57.1c0,0,0.4,2.8,0.5,3.2c0.1,0.3,0.2,0.3,0.3,0.3
			C98.6,60.5,98.6,59.8,98.6,59.7L98.6,59.7z"/>
		<path class="st2" d="M95.7,50.3c-0.2-0.2-0.6-0.3-0.2,0.1c0.4,0.4,0.9,1,1,1.4c0.1,0.4,0.2,1,0,0.9c-0.3-0.1-0.4-0.1-0.7-0.3
			c-0.3-0.2-0.8-0.6-1-0.7c-0.2-0.1-0.6,0-0.3,0.3c0.3,0.3,0.6,0.6,1.2,1.1c0.6,0.4,0.9,0.6,1.2,0.8c0.3,0.2,0.6,0.4,0.6,0.4
			s-0.3-1.8-0.8-2.6S95.8,50.5,95.7,50.3z"/>
		<path class="st2" d="M86.1,80c-0.4,0.3-0.8,0.4-0.8,0.4s-0.2,0-0.2,0.1s0.3,0,0.5,0c0.3,0,0.6-0.3,0.8-0.4
			c0.1-0.1,0.3-0.2,0.3-0.4C86.5,79.5,86.4,79.8,86.1,80L86.1,80z"/>
		<path class="st2" d="M89.2,81.7c-0.1,0.1-0.7,0.5-0.7,0.5s-0.2,0.1-0.4,0.2c-0.2,0.1-0.2,0.2-0.2,0.2s0,0,0.2,0
			c0.2-0.1,0.8-0.5,1-0.7c0.2-0.2,0.3-0.2,0.2-0.3C89.3,81.6,89.2,81.6,89.2,81.7L89.2,81.7z"/>
		<path class="st2" d="M76.6,59.4c0.1,0.1,0.2,0.3,0.3,0.3c0.1-0.1,0-0.1-0.2-0.3c-0.1-0.2-0.2-0.3-0.2-0.3s-0.2-0.3-0.3-0.5
			c-0.1-0.1-0.3-0.2-0.1,0.1C76.3,59,76.5,59.2,76.6,59.4z"/>
		<path class="st2" d="M75.6,61.5c0.1,0.1,0.3,0.2,0.4,0.4c0.1,0.2,0.3,0.3,0.3,0.2c0.1-0.1-0.2-0.3-0.4-0.4
			c-0.1-0.2-0.2-0.3-0.4-0.4c-0.2-0.1-0.4-0.2-0.4-0.2S75.5,61.3,75.6,61.5L75.6,61.5z"/>
		<path class="st2" d="M76,64.8c0.2,0.2,0.6,0.3,0.6,0.2c0-0.1,0-0.2-0.2-0.3c-0.2-0.1-0.5-0.3-0.7-0.4c-0.2-0.1-0.3-0.2-0.4-0.3
			c-0.1-0.1-0.2-0.2-0.3-0.2c0,0,0.3,0.4,0.4,0.5C75.6,64.4,75.8,64.6,76,64.8L76,64.8z"/>
		<path class="st2" d="M76.7,67.5c0-0.1,0-0.1-0.2-0.2c-0.2,0-0.5,0-0.5,0s-0.4-0.1-0.4-0.1c0,0.1,0.3,0.2,0.5,0.2
			c0.1,0,0.3,0.1,0.4,0.1C76.6,67.7,76.7,67.6,76.7,67.5L76.7,67.5z"/>
		<path class="st2" d="M77,70.5c-0.4,0-0.8-0.1-0.8,0s0.2,0.2,0.4,0.2c0.2,0.1,0.6,0.1,0.9,0.1c0.3,0,0.3,0,0.3-0.2
			C77.8,70.5,77.4,70.5,77,70.5z"/>
		<path class="st2" d="M80.3,73.7c-0.1-0.1-0.2,0-0.4,0c-0.2,0.1-0.6,0.1-0.8,0.1c-0.2,0-0.7,0-0.7,0L78,73.9c0,0.1,0.4,0,0.9,0.1
			c0.5,0.1,0.9,0,1.1-0.1C80.3,73.9,80.3,73.8,80.3,73.7L80.3,73.7z"/>
		<path class="st2" d="M81.7,76c-0.3,0.1-0.4,0.1-0.6,0.1c-0.2,0-0.7,0.1-0.7,0.1s-0.2,0-0.2,0.1c0,0.1,0.1,0,0.3,0
			c0.2,0,0.3,0,0.7,0c0.3,0,0.5-0.1,0.8-0.1c0.2,0,0.4-0.1,0.3-0.3C82.1,75.7,81.9,75.9,81.7,76L81.7,76z"/>
		<path class="st2" d="M84.3,77.7c-0.1,0.1-0.7,0.5-0.7,0.5s-0.1,0.1-0.3,0.2c-0.2,0.1-0.2,0.2-0.2,0.2c0,0.1,0.2-0.1,0.3-0.1
			c0.1,0,0.5-0.3,0.7-0.5c0.2-0.2,0.5-0.3,0.4-0.4C84.5,77.5,84.5,77.6,84.3,77.7L84.3,77.7z"/>
		<path class="st2" d="M79.9,55.3c0,0,0,0.1,0.5,0.7c0.5,0.6,0.2,0,0.1-0.1c-0.1-0.1-0.8-1.1-1-1.4c-0.2-0.3-0.3-0.1-0.1,0
			C79.4,54.7,79.9,55.3,79.9,55.3z"/>
		<path class="st2" d="M78.9,58.2c0.1-0.1-0.1-0.1-0.3-0.5c-0.3-0.3-0.8-1-0.8-1s-0.1-0.3-0.2-0.3c0,0,0.2,0.5,0.4,0.7
			c0.2,0.2,0.5,0.6,0.6,0.8S78.9,58.3,78.9,58.2L78.9,58.2z"/>
		<path class="st2" d="M80.2,63.8c0-0.2-0.5-0.1-0.8-0.2c-0.2,0-0.7-0.1-0.7-0.1s-0.5-0.1-0.5,0c0,0.1,0.1,0.1,0.4,0.2
			c0.3,0,0.7,0.2,1,0.2C79.9,63.9,80.2,63.9,80.2,63.8L80.2,63.8z"/>
		<path class="st2" d="M78.9,60.8c0.3,0.3,0.6,0.4,0.8,0.5c0.2,0.1,0.3,0.2,0.4,0.1c0.1-0.1-0.1-0.2-0.4-0.3
			c-0.3-0.1-0.4-0.2-0.4-0.2S79.1,60.8,78.9,60.8C78.8,60.6,78.6,60.5,78.9,60.8L78.9,60.8z"/>
		<path class="st2" d="M81.9,58.8c-0.2-0.2-0.4-0.3-0.4-0.3s-0.3-0.2-0.3-0.2c0,0.1,0.3,0.3,0.5,0.5c0.2,0.1,0.5,0.6,0.6,0.5
			C82.4,59.3,82.1,59,81.9,58.8z"/>
		<path class="st2" d="M79.9,66.5c0,0-0.3,0.1-0.5,0.1c-0.2,0-0.2,0.1,0.1,0.1s0.5-0.1,0.8-0.2c0.3-0.1,0.4-0.1,0.4-0.2
			c0-0.1-0.2-0.1-0.4,0C80.3,66.4,79.9,66.5,79.9,66.5z"/>
		<path class="st2" d="M80.5,69.3c0,0.1,0.2,0,0.4-0.1c0.2-0.1,0.5-0.2,0.7-0.3c0.2-0.1,0.2-0.1,0.2-0.2c0-0.1-0.2,0-0.5,0.1
			c-0.3,0.1-0.6,0.4-0.6,0.4S80.5,69.3,80.5,69.3L80.5,69.3z"/>
		<path class="st2" d="M84.1,71c0.2-0.2,0.3-0.3,0.2-0.3c-0.1-0.1-0.2-0.1-0.4,0.1c-0.2,0.2-0.6,0.4-0.6,0.4s-0.2,0.1-0.3,0.1
			c-0.1,0.1-0.3,0.2-0.3,0.3c0,0.1,0.4,0,0.5-0.1C83.4,71.4,83.8,71.2,84.1,71L84.1,71z"/>
		<path class="st2" d="M85.8,73.3c0.1-0.1,0.4-0.2,0.5-0.3c0.1-0.1,0.2-0.4,0.1-0.4c-0.1,0-0.2,0.1-0.4,0.3c-0.2,0.2-1,0.7-1,0.7
			l-0.2,0.1c-0.2,0.1-0.1,0.1,0.1,0.1c0.2,0,0.3,0,0.5-0.2C85.6,73.4,85.7,73.4,85.8,73.3z"/>
		<path class="st2" d="M88.3,75.4c0.2-0.1,0.5-0.4,0.7-0.5c0.1-0.1,0.3-0.3,0.2-0.4c-0.1-0.1-0.2,0-0.4,0.2
			c-0.2,0.2-0.6,0.6-0.6,0.6s-0.1,0-0.3,0.2c-0.2,0.2,0,0.2,0.1,0.1C88,75.5,88.1,75.5,88.3,75.4L88.3,75.4z"/>
		<polygon class="st3" points="98.5,43.5 99.5,42.7 98.3,42.4 97.6,43.1 		"/>
		<ellipse class="st2" cx="101.8" cy="42.6" rx="1" ry="0.9"/>
		<ellipse class="st3" cx="101.8" cy="42.4" rx="0.6" ry="0.6"/>
		<path class="st3" d="M99.7,39.4c0.2,0.1,0.6,0.1,0.6,0.1s0.1-0.4-0.1-0.6c-0.2-0.2-0.5-0.4-0.6-0.5c-0.1-0.1-0.2-0.2-0.2-0.2
			s0,0.4,0,0.6C99.4,39,99.5,39.3,99.7,39.4L99.7,39.4z"/>
		<ellipse class="st3" cx="100.2" cy="39.9" rx="0.2" ry="0.2"/>
		<path class="st3" d="M98.9,39.7c-0.1,0.1-0.2,0.3-0.2,0.3s0.2,0,0.4,0.1c0.2,0.1,0.4,0.2,0.6,0.2c0.2,0,0.3-0.2,0.2-0.3
			c0-0.1-0.1-0.3-0.4-0.4C99.1,39.5,99,39.6,98.9,39.7z"/>
		<path class="st3" d="M99.6,40.8c-0.6,0.1-1.4-0.6-1.4-0.6c-0.1,0.5-0.4,0.8-0.9,0.9l0,0c0,0,0.5,0.2,1,0.3c0.3,0,0.5,0,0.8-0.1
			c0.3-0.1,0.7-0.2,0.9-0.3c0.4-0.2,0.3-0.8,0.3-0.8S100.2,40.8,99.6,40.8L99.6,40.8z"/>
		<path class="st3" d="M97.2,40.2C97,40.1,96.6,40,96.5,40c-0.2,0-0.4,0-0.3,0.2c0,0.3,0.3,0.4,0.6,0.4c0.3,0,0.4-0.1,0.6-0.2
			C97.5,40.4,97.5,40.3,97.2,40.2z"/>
		<path class="st3" d="M95.3,39.2C95.1,39,94.8,39,94.8,39s-0.2,0.5-0.1,0.8c0.1,0.3,0.3,0.4,0.6,0.4c0.3,0,0.6-0.1,0.5-0.3
			C95.7,39.5,95.6,39.4,95.3,39.2z"/>
		<ellipse class="st3" cx="95.6" cy="40.5" rx="0.2" ry="0.2"/>
		<path class="st3" d="M96.2,38.2c-0.2-0.8-0.1-1.7,0.6-2.8c0.8-1.1,2.1-1.6,2.1-1.6s0-0.1,0.5-0.5c0.4-0.4,1.3-1,1.3-1
			s-1,0.2-1.6,0.4c0,0,0,0,0,0c0,0.4-0.3,0.7-0.7,0.7c-0.1,0-0.3,0-0.4-0.1c-0.3,0.1-1.3,0.7-1.6,0.9c0.1,0.1,0.1,0.2,0.1,0.4
			c0,0.4-0.3,0.7-0.7,0.7c-0.1,0-0.2,0-0.3-0.1c0,0-0.1,0.1-0.1,0.1c-0.2,0.4-0.4,0.8-0.5,1.1c0.2,0.1,0.3,0.3,0.3,0.6
			c0,0.4-0.3,0.7-0.6,0.7c0,0.2,0,0.4,0,0.4c0,0.2,0.1,0.4,0.5,0.5c0.4,0.1,0.9,0.8,0.9,0.8C96.1,39.5,96.4,39,96.2,38.2L96.2,38.2z
			"/>
		<path class="st3" d="M98.6,33.1c0.1-0.1,0.2-0.3,0.1-0.4c-0.1-0.1-0.3-0.1-0.5,0C98,32.8,98,33,98.1,33.1
			C98.2,33.2,98.4,33.2,98.6,33.1z"/>
		<path class="st3" d="M96,34.8c0.2-0.1,0.2-0.4,0.1-0.5c-0.1-0.1-0.4-0.1-0.5,0c-0.2,0.1-0.2,0.4-0.1,0.5
			C95.6,35,95.9,34.9,96,34.8z"/>
		<ellipse class="st3" cx="94.5" cy="36.9" rx="0.4" ry="0.4"/>
		<path class="st3" d="M103,31.5c-0.2,0-0.6,0.2-1.1,0.5h0c0.4,0,0.7,0.3,0.7,0.6c0,0.3-0.4,0.7-0.7,0.7s-0.7-0.3-0.7-0.7
			c0-0.1,0-0.1,0-0.2c-0.2,0.1-0.3,0.2-0.5,0.3c-1.2,0.8-1.5,1.2-2.2,2.4c-0.6,1.1-0.8,2.4-0.6,3.2c0.3,0.7,1.2,0.9,1.3,0.9
			s-0.1-0.1-0.1-0.3c0-0.1,0-0.2,0.1-0.5c0-0.3,0-0.6,0-0.6s0.2,0,0.4,0.1c0.1,0.2,0.3,0.3,0.4,0.5c0.1,0.2,0.5,0.4,0.5,0.4
			s0.2-0.3,0.2-0.6c0-0.3-0.2-0.7-0.3-1.3s0.3-1.6,0.8-2.4c0.6-0.8,1.7-1.5,2-1.6c0.3-0.2,0.4-0.4,0.4-0.5c0-0.1,0-0.2,0.1-0.6
			C103.6,31.4,103.3,31.4,103,31.5L103,31.5z"/>
		<path class="st3" d="M101.8,32.8c0.2,0,0.4-0.2,0.4-0.4c0-0.2-0.2-0.3-0.4-0.3c-0.2,0-0.4,0.1-0.4,0.3S101.5,32.8,101.8,32.8z"/>
		<path class="st3" d="M103.6,40.2c0.3,0.1,0.6,0.1,0.8-0.1c0.2-0.1,0.2-0.4,0-0.5c-0.2-0.2-0.5-0.1-0.6-0.1
			c-0.2,0.1-0.6,0.4-0.6,0.4S103.3,40,103.6,40.2z"/>
		<path class="st3" d="M104.6,40.5c-0.1,0.2-0.2,0.3-0.5,0.3c-0.3,0-0.7,0-0.9-0.2c-0.2-0.2-0.4-0.5-0.4-0.5l-0.4,0
			c0,0-0.1,0.5-0.3,0.7c-0.2,0.1-0.7,0.2-1,0c-0.3-0.2-0.5-0.4-0.5-0.4c0,0,0,0.2,0.3,0.4c0.3,0.2,0.4,0.4,0.9,0.4h2.4
			c0,0,0.5,0,0.6-0.3c0.1-0.3,0.1-0.5,0.1-0.5C104.7,40.2,104.7,40.3,104.6,40.5L104.6,40.5z"/>
		<path class="st3" d="M100.9,40.1c0.4,0.2,0.6,0.1,0.7-0.1c0.1-0.2,0.2-0.2,0.2-0.2s-0.3-0.1-0.5-0.2c-0.2-0.1-0.3-0.2-0.4-0.2
			c-0.2,0-0.2,0-0.2,0S100.6,39.9,100.9,40.1L100.9,40.1z"/>
		<ellipse class="st2" cx="99.2" cy="36.6" rx="0.8" ry="0.8"/>
		<path class="st2" d="M100.6,33.8c-0.3-0.2-0.8-0.1-1,0.2c-0.3,0.3-0.2,0.8,0.1,1c0.3,0.2,0.8,0.1,1-0.2
			C101,34.5,100.9,34,100.6,33.8z"/>
		<ellipse class="st3" cx="99.2" cy="36.5" rx="0.5" ry="0.4"/>
		<path class="st3" d="M100.3,33.9c-0.2-0.1-0.5,0-0.6,0.2c-0.1,0.2,0,0.4,0.3,0.4C100.5,34.7,100.7,34,100.3,33.9L100.3,33.9z"/>
	</g>
	<g>
		<path class="st3" d="M88.1,95.7c0,0-1.2,0.6-1.6,0.7c-0.4,0.1-0.5,0.1-0.5,0.1s-0.8,0.8-1.5,1.1c-0.6,0.4-1.4,0.7-2.1,0.7
			c-1,0.1-3.6,0.1-4.8,0c-1.2,0-1.9,0.2-2.4,0.8c-0.5,0.6-0.6,1.4,0,2s1.4,0.3,1.6-0.1c0.2-0.4,0.1-0.9,0-1.1
			c-0.1-0.2,0.2-0.3,0.5-0.3c0.3,0,0.9,0,1.4,0.1c0.5,0.1,1.4,0.4,1.8,0.6c0.4,0.2,0.2,0.2-0.1,0.2c-0.3,0-0.6-0.2-1.1-0.3
			c-0.5-0.2-0.9-0.3-1.2-0.3c-0.3,0-0.2,0.2-0.1,0.3c0.1,0.1,0.2,0.4,0.3,0.5c0,0.1-0.1,0.6-0.1,0.6l0.2,0.3c0,0,0.2-0.3,0.2-0.4
			c0.1-0.2,0-0.4,0-0.6s0.3-0.1,0.5,0.1c0.2,0.2,0.4,0.5,0.5,1.1c0.1,0.6-0.1,1-0.1,1s0.2,0.2,0.3,0.3c0,0.1-0.1,0.7-0.1,0.7
			s0.2,0.1,0.3-0.2c0.2-0.3,0.3-0.9,0.4-1.1c0-0.2,0.2-0.6,0.4-0.3s0.4,0.6,0.5,0.8c0,0.2,0,0.3,0,0.3s0.5-0.5,0.7-0.8
			c0.2-0.3,0.6-0.8,1.1-1.2c0.5-0.4,1.4-1.3,1.8-1.6c0.4-0.3,1.5-0.9,1.9-1.1c0.3-0.2,0.4-0.2,0.5-0.8c0.1-0.6,0.3-1.1,0.5-1.5
			C88,95.9,88,95.7,88.1,95.7L88.1,95.7z"/>
		<path class="st3" d="M68.3,73.6c0-0.1-0.2-0.5-0.3-0.6c-0.1-0.2-0.2-0.1-0.2-0.1s-0.4,0.2-0.7,0.3c-0.3,0.1-0.3,0-0.4-0.2
			c0-0.2-0.1-0.6-0.2-1c-0.1-0.3-0.1-0.3-0.2-0.3c-0.1,0.1-0.5,0.2-0.7,0.3c-0.3,0.1-0.2,0.2-0.1,0.4c0.1,0.1,0.4,0.7,0.5,0.9
			c0.1,0.2,0,0.3-0.1,0.4c-0.2,0.1-0.4,0.1-0.7,0.2C65,74.1,65,74.1,65,74.2c0,0.1,0.2,0.5,0.3,0.7c0.1,0.2,0.2,0.1,0.2,0.1
			s0.3-0.3,0.6-0.4c0.3-0.1,0.3-0.1,0.4,0.1c0.1,0.2,0.4,1.3,0.4,1.5c0.1,0.2,0.2,0.2,0.3,0.1c0.1-0.1,0.3-0.1,0.5-0.1
			c0.2,0,0.2-0.4,0.2-0.4s-0.6-1.1-0.8-1.3c-0.2-0.3,0-0.3,0.1-0.4c0.1,0,0.5-0.1,0.8-0.1C68.4,73.9,68.3,73.7,68.3,73.6L68.3,73.6z
			"/>
		<path class="st3" d="M75,102.6c0-0.3,0-0.5-0.2-0.7c-0.2-0.2-0.4-0.6-0.5-0.9c-0.1-0.3,0.1-0.5,0-0.6c0-0.2-0.3-0.2-0.5,0
			c-0.2,0.2-0.6,0.4-0.6,1c0,0.6,0.2,1.3,1,1.5C75.1,103,75.1,102.8,75,102.6L75,102.6z"/>
		<path class="st3" d="M75.8,102.3c0,0-0.2-0.1-0.2,0c-0.1,0.2-0.1,0.2,0.2,0.6s0.3,0.4,0.6,0.6c0.2,0.2,0.1-0.2,0-0.2
			c0-0.1,0-0.2-0.1-0.3c-0.1-0.1-0.1-0.2-0.1-0.4C76.2,102.3,75.8,102.3,75.8,102.3L75.8,102.3z"/>
		<path class="st3" d="M76.8,105c0.2-0.2,0.3-0.3,0.6-0.5c0.4-0.2,1-0.3,1.2-0.3c0.2,0,0.7-0.5,0.7-0.9c-0.1-0.5-0.4-0.6-0.7-0.7
			c-0.3-0.1-0.5-0.1-0.6,0.1c-0.1,0.1-0.3,0.3-0.6,0.4c-0.3,0.1-0.4,0.2-0.6,0.3c-0.2,0.1,0,0.2-0.2,0.3c-0.2,0.1-0.4,0-0.6-0.1
			c-0.3-0.1-0.3-0.1-0.6-0.1c-0.3,0-1-0.1-1-0.1s0,0-0.2,0c-0.2,0-0.2,0-0.3,0.2c-0.1,0.2,0,0.6,0.2,0.9c0.2,0.2,0.8,0.3,1.2,0.5
			c0.4,0.1,0.6,0.2,0.9,0.2C76.6,105.3,76.7,105.2,76.8,105L76.8,105z"/>
		<path class="st3" d="M80.5,105.4c0.3-0.2,0.1-0.6,0.1-0.8c-0.1-0.2-0.5-0.3-0.7-0.3s-0.3,0-0.5,0.1c-0.1,0.1-0.3,0.3-0.6,0.4
			c-0.3,0.1-0.6,0.2-1,0.4c-0.5,0.2-0.6,0.5-0.8,0.6c-0.2,0.1-0.6,0-0.6,0s-0.3-0.1-0.4,0c-0.1,0.1,0,0.2,0.2,0.4
			c0.2,0.2,0.5,0.2,0.9,0.3c0.4,0.1,0.5,0,0.6-0.1c0.2-0.1,0.3-0.3,0.5-0.5c0.3-0.2,0.9-0.2,1.1-0.2
			C79.6,105.7,80.1,105.6,80.5,105.4L80.5,105.4z"/>
		<path class="st3" d="M80.5,104c0.1,0.1,0.3,0.3,0.4,0.1c0.1-0.2,0.3-0.6,0.2-0.8c-0.1-0.2-0.3-0.5-0.3-0.5s-0.2,0.7-0.3,0.9
			C80.3,103.8,80.3,103.9,80.5,104L80.5,104z"/>
		<path class="st3" d="M79.2,101.9c0-0.4-0.3-0.9-0.3-0.9s-0.1,0.4-0.3,0.7c-0.2,0.3-0.3,0.5-0.3,0.5s0.4,0.1,0.5,0.1
			S79.2,102.3,79.2,101.9L79.2,101.9z"/>
		<path class="st3" d="M77,102.7c0.4-0.1,0.6-0.3,0.8-0.4s0.3-0.6,0.2-0.8c-0.1-0.2-0.4-0.4-0.5-0.4h-0.2c0,0-0.1,0.4-0.3,0.6
			c-0.2,0.2-0.4,0.3-0.3,0.6C76.6,102.5,76.6,102.8,77,102.7L77,102.7z"/>
		<path class="st3" d="M77.8,100.8c0-0.2-0.1-0.4-0.2-0.5c-0.1-0.1-0.2-0.2-0.2-0.2s0,0.3-0.1,0.5c0,0.2,0,0.2,0,0.2
			s0.1,0.1,0.2,0.2C77.6,100.9,77.8,101,77.8,100.8L77.8,100.8z"/>
		<path class="st3" d="M72.6,90.1l0.3-1.8c-0.2-1.8-1.1-3.5-1.9-4.6c-0.7-1.2-1.5-3-1.8-4c-0.3-1-0.6-2.3-0.6-3
			c0-0.7,0.3-1.1,0.3-1.1s0.1-0.2,0-0.3c-0.1-0.1-0.3,0-0.5,0.2c-0.2,0.2-0.4,0.5-0.5,0.8c-0.1,0.2-0.1,0.3-0.1,0.3s-0.4-0.1-1,0
			c-0.6,0-0.9,0.1-0.9,0.2c0,0.1,0.1,0.2,0.5,0.4c0.4,0.2,0.7,0.3,0.9,0.5c0.2,0.3,0.8,1.6,0.9,2.2c0.2,0.6,0.5,2.3,0.7,3.7
			c0.1,1.3,0.6,3,1.2,4.3C70.5,88.4,71.7,90.5,72.6,90.1L72.6,90.1z"/>
		<path class="st3" d="M73.7,93.2c-0.4,0.2-0.4,1.9-0.2,2.8c0.2,0.9,1,2,1.3,2.2c0.3,0.3,0.3,0.3,0.5,0.2c0.1-0.1,0.2-0.1,0.2-0.1
			s0.4-0.1,0.6-0.3c0.3-0.2,0.2-0.8,0.1-1.2c0-0.5-0.4-1.4-1.1-2.5C74.5,93.2,74.1,93,73.7,93.2L73.7,93.2z"/>
		<path class="st3" d="M74.2,91.9c0-0.5-0.5-1-1-1c-0.3,0-0.5,0.1-0.6,0.2c-0.6,0.5-0.2,1.8,0.6,1.8c0.3,0,0.6,0,0.8-0.2
			C74.1,92.4,74.2,92.1,74.2,91.9L74.2,91.9z"/>
		<path class="st3" d="M82.1,107.7c-0.2,0-0.3-0.1-0.7-0.3c-0.3-0.2-0.8-0.7-0.9-0.9c-0.1-0.2-0.1-0.2-0.4-0.1
			c-0.3,0.1-0.7,0.1-1.1,0.1c-0.3,0,0,0.4,0.3,0.7c0.2,0.3,0.2,1.5,0.2,1.5s0,0.1-0.1,0.3c-0.1,0.2,0,0.3,0.1,0.3
			c0.1,0,0.1,0,0.4-0.3c0.2-0.3,0.7-1,0.7-1s0.1,0,0.4,0.1c0.4,0.1,0.9,0,1.2-0.1C82.5,108,82.4,107.7,82.1,107.7L82.1,107.7z"/>
		<path class="st3" d="M80.8,108.6c-0.2,0-0.2,0-0.3,0.1c-0.1,0.1-0.1,0.3-0.2,0.4c0,0.1,0,0.2,0.1,0.3c0.1,0.1,0.2,0.2,0.2,0.2
			s0.1,0.1,0.3,0.2c0.1,0.1,0.2-0.1,0.2-0.3c0-0.1,0.1-0.4,0.1-0.6C81.1,108.7,80.9,108.6,80.8,108.6L80.8,108.6z"/>
		<path class="st4" d="M139.5,97.2c-0.4-0.1-0.5-0.2-0.5-0.2s-0.2,0-0.3,0.2c-0.1,0.2-0.6,0.5-0.6,0.5s-0.7,0.2-0.8,0.6
			c-0.1,0.5,0.2,0.6,0.6,0.6c0.3-0.1,1.1-0.2,1.5-0.6c0.3-0.4,0.4-0.6,0.5-0.8C139.8,97.4,139.9,97.3,139.5,97.2L139.5,97.2z"/>
		<path class="st4" d="M140.5,93.5c-0.2-1-0.9-2.3-2.2-3c0,0-0.5,1.7-0.6,2.2c-0.1,0.5-0.1,0.5,0.3,0.6c0.4,0.1,1.7,0.4,2,0.5
			C140.2,94,140.7,94.2,140.5,93.5L140.5,93.5z"/>
		<path class="st4" d="M134.4,92.6c0.3,0.1,0.3-0.1,0.4-0.5c0.1-0.4,0.6-2.5,0.6-2.5s-1.4-0.1-2.5,0.5c-1.2,0.6-1.7,1.6-1.7,1.6
			s0.3,0.1,1.1,0.3C133.1,92.3,134.1,92.5,134.4,92.6L134.4,92.6z"/>
		<path class="st4" d="M131.2,95.4c-0.5-0.1-0.7-0.1-0.7-0.1s0.3,1.2,0.8,1.8c0.5,0.6,1.1,1,2.1,1c1,0,1.8-0.6,2-1
			c0.1-0.4,0.3-0.8,0.3-0.8s-1.9-0.3-2.7-0.4C132.3,95.6,131.7,95.5,131.2,95.4L131.2,95.4z"/>
		<path class="st3" d="M130.9,94.6c0.5,0.1,4.3,0.8,4.6,0.9c0.3,0.1,0.6,0.1,0.7,0.1c0.1-0.1,0.1-0.1,0.5-0.3
			c0.3-0.1,0.3-0.5,0.3-0.5s0.1-0.3,0.1-0.6c0-0.3,0.2-0.4,0.6,0c0.4,0.4,0.4,1,0.5,1.5c0.1,0.6,1,0.7,1.3,0.8
			c0.3,0.1,0.5-0.1,0.7-0.4c0.2-0.3,0.3-1,0.4-1.4c0.1-0.4,0-0.4-0.4-0.5c-0.4-0.1-2.4-0.6-2.8-0.6c-0.4-0.1-0.3-0.3-0.2-0.6
			s0.8-2.8,0.8-2.8c-0.6-0.3-1.4-0.6-2.3-0.7c0,0-0.6,2.6-0.7,3c-0.1,0.4-0.4,0.4-0.8,0.3c-0.4-0.1-3.4-0.8-3.4-0.8s0,0-0.2,0.6
			c-0.2,0.6-0.3,1.2-0.3,1.6S130.4,94.5,130.9,94.6L130.9,94.6z"/>
		<path class="st3" d="M141.1,97c-0.4-0.3-0.7-0.3-0.9,0.2c-0.2,0.5-0.2,1.2-0.7,1.7c-0.5,0.5-1.2,1-2,1c-0.7-0.1-1.1-0.2-1-1
			c0.2-0.8,1.3-1.1,1.5-1.5s0.2-0.9-0.2-1.3c-0.4-0.3-0.9-0.4-1.1-0.3c-0.2,0.1-0.6,0.5-0.8,1.1c-0.2,0.6-0.4,1.1-0.8,1.5
			c-0.5,0.4-1.7,0.8-2.7,0.6c-1-0.2-1.3-0.5-1.7-1.5c-0.4-0.9-0.8-2.5-1-2.7c-0.2-0.2-0.4-0.3-0.8,0c-0.4,0.3-0.4,0.7-0.5,1.1
			c-0.1,0.3,0,0.7,0.4,1.2c0.4,0.5,0.8,1,1,1.5c0.2,0.5,0.6,1.3,0,1.3c-0.7,0-0.9,0.1-1.4-0.4c-0.5-0.5-2.4-1.8-3-2.2
			c-0.5-0.4-0.8-0.6-0.8-0.6c-0.9,0-1.8-0.4-2.7-1c0,0,0.5,1.3,0.6,1.8c0.1,0.5,0.1,0.8,0.1,0.8s2,1,2.7,1.4
			c0.8,0.4,2.3,1.3,3.1,1.7c0.8,0.5,1.4,1.2,2.7,0.9c1.3-0.3,4.1-1.1,4.9-1.4c0.9-0.3,3.3-0.9,4.2-1.5c0.9-0.6,1-0.6,1.1-1.2
			C141.6,97.6,141.5,97.3,141.1,97L141.1,97z"/>
		<path class="st3" d="M135.9,87.7c0.1,0,0.2,0,0.7-0.1c0.5-0.1,0.3,0.4,0.2,0.5c-0.1,0.2-0.2,0.5-0.4,0.8c-0.2,0.3,0.1,0.4,0.2,0.4
			c0.1,0.1,0.3,0.1,0.7,0.2c0.4,0.1,0.3-0.2,0.3-0.3c0-0.1,0-0.9,0.1-1.1c0-0.3,0.3-0.2,0.4-0.1c0.1,0,0.3,0.2,0.5,0.3
			c0.2,0.1,0.3,0,0.3-0.1c0-0.1,0.1-0.3,0.2-0.6c0.1-0.3-0.1-0.2-0.3-0.2c-0.2,0-0.4,0-0.7,0c-0.3,0-0.1-0.3-0.1-0.3
			s0.2-0.4,0.4-0.6c0.2-0.3,0.1-0.3-0.1-0.4c-0.2,0-0.7-0.2-0.8-0.2c-0.1,0-0.2,0-0.2,0.1s0,0.6,0,0.8c0,0.2,0,0.3-0.3,0.3
			c-0.3,0-0.4-0.1-0.6-0.4c-0.2-0.2-0.3-0.1-0.3,0c0,0.1-0.2,0.7-0.2,0.9C135.7,87.7,135.8,87.7,135.9,87.7L135.9,87.7z"/>
		<path class="st3" d="M137.4,94.2c0,0,0,0.5-0.1,0.7c-0.1,0.2-0.2,0.4,0,0.5c0.2,0.1,0.4,0.2,0.5,0.1c0.1,0,0.1-0.3,0-0.5
			c-0.1-0.2-0.2-0.5-0.3-0.7C137.4,94.2,137.4,94.2,137.4,94.2L137.4,94.2z"/>
		<path class="st3" d="M140.5,96.3c0.1,0.2,0.2,0.2,0.3,0.2c0.1,0,0.3,0,0.3-0.2c0-0.2,0-0.4-0.1-0.7c-0.2-0.2-0.2-0.4-0.3-0.1
			C140.5,96,140.4,96.2,140.5,96.3L140.5,96.3z"/>
		<path class="st3" d="M129.5,94.2c0.1,0,0.4,0.1,0.4,0.1s0-0.5,0.1-0.8c0.1-0.3,0.2-0.6,0.1-0.6c-0.1,0-0.2,0.1-0.3,0.3
			c-0.1,0.1-0.3,0.2-0.4,0.6C129.3,94.2,129.4,94.2,129.5,94.2L129.5,94.2z"/>
		<circle class="st2" cx="131.7" cy="93.4" r="0.7"/>
		<circle class="st2" cx="133.6" cy="93.8" r="0.7"/>
		<circle class="st2" cx="139.4" cy="95.1" r="0.7"/>
		<circle class="st2" cx="135.6" cy="94.3" r="0.7"/>
		<circle class="st2" cx="136.1" cy="92.6" r="0.7"/>
		<circle class="st2" cx="136.6" cy="90.9" r="0.7"/>
		<circle class="st3" cx="131.7" cy="93.3" r="0.3"/>
		<circle class="st3" cx="133.7" cy="93.8" r="0.4"/>
		<circle class="st3" cx="139.4" cy="95" r="0.4"/>
		<circle class="st3" cx="135.7" cy="94.2" r="0.4"/>
		<circle class="st3" cx="136.2" cy="92.5" r="0.4"/>
		<circle class="st3" cx="136.7" cy="90.8" r="0.4"/>
	</g>
	<g transform="matrix(-1,0,0,1,639.96566,0)">
		<g id="g4017_1_">
			<path class="st3" d="M113.9,107.7c-0.4-0.2-0.7-0.5-1.6-1.1c-0.9-0.6-1.2-1.2-1.2-1.2h0.3c0.2,0,0.3-0.2,0.3-0.5
				c0-0.2,0-0.7-0.1-1.2c-0.1-0.5,0.1-1,0.1-1s0.4,0.3,0.9,0.6c0.6,0.3,0.8,0.2,0.8,0.2l0.1-0.6c0,0,0.2,0.5,0.6,1.1
				c0.3,0.6,1.3,1.3,1.9,1.7c0.7,0.5,1.4,1,1.9,1.2c0.5,0.2,0.2,0.4,0.2,0.4s-0.5,0.5-1.9,0.8C114.9,108.5,114.2,108,113.9,107.7
				L113.9,107.7z"/>
			<path class="st3" d="M109,107.2c0.5-0.1,0.8-0.2,0.9-0.8c0.1-0.4,0-1.7,0-1.7s0.2,0.1,0.4,0.4c0.2,0.2,0.6,0.3,0.6,0.3
				s0.1,0.2,0.3,0.5c0.2,0.3,0.4,0.7,0.9,1c0.5,0.3,1,0.7,1.4,1c0.4,0.3,0.8,0.7,1.3,0.9c0.5,0.3,0.9,0.7,1.1,1.4
				c0.2,0.7,0,0.9-0.5,0.9c-0.6,0-0.6,0-1.5-0.2c-0.9-0.2-2.2-1.2-3.1-1.8C109.6,108.4,109,107.2,109,107.2L109,107.2z"/>
			<path class="st3" d="M106.5,108c0,0,0.4-0.5,0.5-1c0.1-0.5,0.4-1.6,0.4-1.6s0.1,0.3,0.4,1c0.3,0.6,0.8,0.8,0.8,0.8s0,0.3,0.5,0.8
				c0.4,0.5,1.1,1.1,1.7,1.4c0.6,0.4,1.5,0.9,1.9,1.5c0.5,0.6,0.5,1.3,0.3,1.6c-0.2,0.3-0.5,0-0.9-0.3c-0.4-0.2-1.7-0.4-3.3-1.3
				C107,110.1,106.5,108,106.5,108L106.5,108z"/>
			<path class="st3" d="M105.7,111.8c-0.5-0.7-0.5-2.4-0.5-2.4s0.2-0.1,0.4-0.3c0.2-0.2,0.7-0.9,0.7-0.9s0.3,0.6,0.6,1.1
				c0.3,0.5,0.5,0.7,1.1,1.3c0.6,0.6,1.5,1.2,1.9,1.8c0.4,0.6,0.2,1.9-0.1,2.3c-0.2,0.4-0.6,0.3-0.9-0.1c-0.4-0.3-0.5-0.4-1.1-1
				C107.1,113.2,106.2,112.5,105.7,111.8L105.7,111.8z"/>
			<path class="st2" d="M111.3,97.6c-0.2-0.5-0.5-1.1-0.8-1.4c-0.2-0.3-0.4-0.7-0.4-0.7s0.6,0.6,0.8,0.9c0.2,0.4,0.4,0.8,0.5,1.2
				C111.6,98,111.5,98.1,111.3,97.6z"/>
			<path class="st2" d="M108.9,98c-0.1-0.3-0.2-0.6-0.2-0.6s-0.1-0.3,0-0.3c0.1,0,0.3,0.2,0.5,0.8c0.2,0.6,0.4,1.3,0.4,1.4
				C109.5,99.3,109,98.4,108.9,98L108.9,98z"/>
			<path class="st2" d="M107,99.6c-0.1-0.2-0.1-0.2-0.1-0.2s-0.2-0.6-0.2-0.8c0-0.1,0.1-0.3,0.2,0c0.2,0.3,0.2,0.6,0.2,0.8
				c0,0.1,0.2,0.6,0.2,0.7C107.2,100.1,107.1,99.8,107,99.6L107,99.6z"/>
			<path class="st2" d="M112.9,105.3l0.3-0.2c0,0,0.2,0.2,0.4,0.4c0.2,0.2,0.5,0.3,0.6,0.5c0.2,0.2,0.4,0.5,0.8,0.7
				c0.4,0.2,0.5,0.3,0.5,0.3c-0.1,0.1-0.3-0.1-0.3-0.1s-0.1,0-0.6-0.3c-0.5-0.3-0.6-0.4-0.9-0.7
				C113.3,105.8,112.9,105.3,112.9,105.3z"/>
			<path class="st2" d="M110.8,107.7c-0.2-0.2-0.4-0.3-0.3-0.4c0.1-0.1,0.2-0.1,0.4,0.1c0.2,0.1,0.6,0.6,0.8,0.8
				c0.2,0.2,0.4,0.3,0.6,0.5c0.2,0.2,0.7,0.4,0.9,0.5c0.2,0.1,0,0.1,0,0.1s-0.2-0.1-0.4-0.2c-0.2-0.1-0.7-0.3-0.7-0.3
				s-0.2-0.1-0.5-0.3C111.4,108.3,111,107.9,110.8,107.7L110.8,107.7z"/>
			<path class="st2" d="M108.5,109.4c-0.2-0.3,0-0.2,0.3-0.1c0.3,0.1,0.8,0.7,1.1,0.9c0.3,0.2,0.6,0.3,0.9,0.5
				c0.3,0.1,0.3,0.2,0.3,0.3c0,0.1-0.1,0.1-0.2,0c-0.1-0.1-0.5-0.3-0.5-0.3s-0.2,0-0.3-0.1c-0.2,0-0.4-0.2-0.7-0.5
				C108.9,109.8,108.6,109.7,108.5,109.4L108.5,109.4z"/>
			<path class="st2" d="M107.4,111.5c0.4,0.3,1.1,0.8,1.3,1.2c0.2,0.4,0.3,0.6,0.3,0.7c-0.1,0.1-0.3-0.1-0.4-0.2
				c-0.1-0.2-0.3-0.4-0.3-0.4s-0.7-0.7-1-0.9c-0.3-0.2-0.7-0.6-0.8-0.9c-0.1-0.3,0-0.4,0-0.4S107,111.3,107.4,111.5L107.4,111.5z"/>
			<path class="st6" d="M118.5,51c0.4-0.2,1.4-0.7,2.5-0.8c1.1-0.1,1.9,0.1,2.8,0.3c0.6,0.2,1.2,0.2,1.7,0.1
				c0.8-0.2,1.4-0.9,1.6-1.8c0,0,0.7,0.9,0,1.9c-0.4,0.5-0.8,0.8-1.3,0.9c-1.5,0.3-3-0.6-4.3-0.7c-1.2-0.1-2.2,0.7-2.2,0.7
				s-0.3,0.2-0.7,0C118.2,51.4,118.1,51.2,118.5,51z"/>
			<path class="st3" d="M122.9,95.2c0,0,0.2,0,0.4,0c0.2,0,0.7-0.2,0.8-0.2c0.1-0.1,0.3-0.1,0.5,0.1c0.1,0.2,1.2,0.8,1.2,0.8h-1.8
				C123.3,95.8,122.9,95.2,122.9,95.2L122.9,95.2z"/>
			<path class="st3" d="M117.8,94.9v-0.2l0.2-0.5c0,0,0.3,0.2,0.6,0.5c0.4,0.4,0.7,0.9,0.9,1.1c0.3,0.4,0.7,0.8,0.4,0.1
				c-0.4-0.6-0.5-0.9-0.8-1.3c-0.3-0.4-0.5-0.6-0.5-0.6c0,0,0.3-0.1,1-0.2c0.8-0.1,1.2-0.4,1.6-0.6c0.4-0.2,1-0.5,1-0.5
				s1.3,0.5,1.8,0.7c0.5,0.1,0.8,0.2,0.3,0.4c-0.5,0.2-0.9,0.3-1.1,0.4c-0.2,0.1-0.9,0.4-1.4,0.4c-0.4,0-1.2,0-0.9,0.3
				c0.3,0.3,0.6,0.9,0.9,1.8c0.3,0.9,0.3,1.7,0.3,2.1s0,0.8,0,0.8s-0.5-0.6-2-1.5c-1.4-0.9-2-1.2-2.2-1.3c-0.3-0.1-0.4-0.1-0.4-0.5
				C117.6,95.9,117.8,95.1,117.8,94.9L117.8,94.9z"/>
			<path class="st3" d="M112.3,90.6c0.1,0,0.2-0.1,0.3-0.1c0,0,0,0,0.1,0c0.2,0.1,1,0.7,1.4,1.2c0.4,0.6,0.7,0.6,0.3,0
				c-0.4-0.6-0.7-1-1-1.2c-0.1-0.1-0.2-0.2-0.3-0.3c0.7-0.3,1.5-0.7,2.2-1.3c0.1,0.2,0.3,0.5,0.5,0.7c0.3,0.3,1,0.6,1,0.6
				s-0.5-0.6-0.7-1c-0.1-0.3-0.2-0.6-0.2-0.7c0.5-0.4,1-0.9,1.4-1.4c0.1,0.4,0.4,1.2,1.2,2.2c1.1,1.3,3.4,1.9,3.4,1.9
				s0.8,0.1,0.2,0.3c-0.6,0.2-1.1,0.5-2.3,0.2c-1.2-0.2-1.3-0.3-1.5-0.3c-0.2-0.1-0.6,0,0,0.2c0.6,0.2,2.1,0.5,2.6,0.4
				c0.6,0,1.3-0.2,0.5,0.3c-0.8,0.4-1.1,0.6-1.6,0.6c-0.5,0-0.7,0.2-1.2,0.2c-0.5,0-0.6-0.1-0.9-0.2c-0.3-0.1-0.6,0-0.6,0.2
				c0,0.1,0.5,0.5,0.4,1.4c0,0.9-0.1,1.5-0.2,1.8c-0.1,0.3-0.3,0.7-0.4,1c-0.1,0.3-0.2,0.5-0.3,0c-0.1-0.5-0.4-1.3-0.6-1.8
				c-0.1-0.5-0.2-0.5-0.2-0.8c0-0.3-0.3-0.5-0.2,0c0.1,0.5,0.3,1.1,0.4,1.5c0.1,0.4,0.3,1.2-0.1,0.6c-0.4-0.6-1.9-2.3-2.2-2.6
				c-0.3-0.3-0.5-0.6-0.6-0.8c-0.2-0.3-0.7-0.6-1-1c-0.2-0.3-0.9-1-1.2-1.2C111.4,91,111.8,90.8,112.3,90.6L112.3,90.6z"/>
			<path class="st3" d="M133.2,51.9c0,0.9-1.1,2.7-1.6,3.6c-0.6,0.9-0.7,1.3-0.6,1.4c0.1,0.1,0.3-0.4,0.7-0.8
				c0.3-0.4,0.9-1.4,1.5-2.2c0.5-0.7,1.3-2.5,1.4-2.7c0.1-0.2,0.1-0.3,0.4-0.1c0.3,0.2,0.8,2.2,0.2,3.5c-0.6,1.3-1.5,2.3-1.9,2.8
				c-0.4,0.5-0.9,1.2-0.8,1.2c0.1,0.1,0.2-0.1,0.7-0.6s1.2-1.3,1.7-1.9c0.4-0.5,1-1.5,1.2-1.8c0.1-0.1,0.2-0.1,0.2,0
				c0.2,0.2,0.4,0.6,0.3,1.6c-0.2,1.5-0.9,2.3-1.6,3.1c-0.7,0.7-1.4,1.4-1.3,1.5c0.1,0.1,0.8-0.5,1.3-1c0.5-0.5,1.7-1.6,1.9-1.9
				c0.3-0.3,0.6-0.2,0.6,1.1c0,1.3-1.4,2.6-2,3.3c-0.6,0.7-1.3,1.1-1.2,1.3c0.1,0.1,0.6-0.2,1-0.5c0.4-0.3,1.8-1.2,2.1-1.4
				c0.3-0.2,0.4,0.2,0.1,1.4c-0.4,1.2-1.4,2.2-2,2.6c-0.6,0.4-1.6,1-1.6,1.1c0.1,0.1,0.5,0,1.1-0.3c0.6-0.3,1.3-0.5,1.8-0.7
				c0.5-0.1,0.5,0.2,0.5,0.2s0.1,1-0.6,1.8s-1.6,1.1-2.4,1.3c-0.8,0.1-0.9,0.2-0.9,0.3c0,0.1,0.1,0.1,0.3,0.1s0.9,0.1,1.6,0.1
				s1,0.2,1,0.5c0,0.3,0,0.7-1,1.4c-1,0.7-2.2,0.8-2.6,0.9c-0.5,0.1-0.5,0.1-0.4,0.3c0.1,0.1,0.3,0.1,1.1,0.2
				c0.8,0.1,1.2,0.4,1.3,0.6c0.1,0.2-0.1,0.8-0.7,1.2c-0.6,0.4-1.4,0.6-2.6,0.5c-1.2-0.1-1.5-0.1-1.5,0.1c0,0.2,0.4,0.3,1,0.4
				c0.6,0.1,1.1,0.1,1.4,0.4c0.3,0.3,0.1,0.9-0.5,1.3s-2,0.4-2.6,0.4s-1.5-0.3-1.6-0.1s0.4,0.4,1.1,0.6c0.6,0.2,0.8,0.4,0.9,0.6
				c0.1,0.3,0,0.5-0.7,0.8c-0.7,0.3-1.8,0.3-2.4,0c-0.6-0.3-0.9-0.4-1-0.3c-0.1,0.1,0,0.2,0.1,0.3c0.1,0.1,0.6,0.5,1.2,0.7
				c0.6,0.2,0.7,0.2,0.9,0.7c0.2,0.5-0.3,0.9-1.5,0.9c-1.1,0-2.6-0.4-3.1-0.7c-0.5-0.3-0.7-0.3-0.7-0.2c-0.1,0.1-0.1,0.2,0.2,0.3
				c0.2,0.2,1,0.7,1.4,0.8c0.4,0.1,0.4,0.4,0.4,0.6c0,0.3,0.1,0.8-0.9,1c-1,0.2-2.2,0.1-3.3-0.7c-0.3-0.2-0.6-0.4-0.7-0.6
				c0.1-1,0-1.7-0.1-2.4c0.2,0,0.6-0.1,1-0.2c0.6-0.2,0.8-0.8,1-1.1c0.1-0.3,0.3-0.3,0.6-0.2c0.2,0.1,0.5,0.2,0.8,0.2
				c0.3,0,1.1-0.2,1.6-0.8c0.5-0.6,0.4-1.2,0.4-1.5c0-0.3,0.5-0.1,0.7-0.1c0.2,0,0.9-0.1,1.6-0.5c0.6-0.4,0.6-1,0.7-1.3
				c0.1-0.2,0.3-0.4,0.5-0.5c0.2-0.1,0.5-0.2,1-0.5c0.4-0.4,0.6-1.1,0.6-1.3c0-0.2,0.3-0.3,1.2-0.7c0.9-0.5,0.8-1.4,0.8-1.8
				c0-0.4-0.5-0.7-0.5-0.8c0-0.1,0.3-0.2,0.6-0.4c0.3-0.2,1.1-0.5,1.1-1.6c0-1.1-0.7-1.2-0.7-1.2s0.1-0.1,0.4-0.2
				c0.3-0.2,1.1-0.7,1.1-1.4c0-0.7-0.3-1-0.5-1.1c-0.2-0.2-0.8-0.3-0.8-0.3s0.4-0.2,0.5-0.8c0.2-0.5,0.2-1.2-0.2-1.6
				c-0.4-0.5-1-0.5-1.4-0.5s-0.6,0.2-0.8,0.1c-0.1-0.1-0.1-0.2,0-0.4c0.1-0.3,0.1-0.9,0-1.1c-0.1-0.2-0.1-0.7-1-0.9
				c-0.9-0.3-1.8,0.3-2,0.5s-0.2-0.2-0.2-0.5c0-0.3,0.6-1,1.2-2c0.7-1,1-1.5,1.7-3.1s1.2-3.5,1.3-4c0.1-0.5,0.3-0.3,0.3-0.3
				s0.2,0.1,0.7,1.2C133.1,49.9,133.2,50.9,133.2,51.9L133.2,51.9z"/>
			<path class="st3" d="M118,72.4c0.5,0,1.2-0.3,1.7-1.1c0.5-0.8,1.3-0.9,2.6-0.9c1.3,0,2-0.6,2.3-1.6c0.3-0.9-0.1-2-1.4-2.7
				s-2-1.4-2-2.6c-0.1-1.2,1.4-2.6,2.8-4.2c1.4-1.6,2.5-3.9,2.5-3.9s0.4,0.5,0.4,1.1c0,0.5-0.2,1.1,0,1.3c0.2,0.2,0.3-0.2,1.1-0.6
				c0.8-0.4,1.5-0.4,2,0.2s0,1.6-0.5,2.1c-0.5,0.5-0.9,0.9-0.7,1c0.1,0.2,0.8-0.3,1.1-0.4s0.8-0.8,1.6-0.7c0.8,0.1,1.1,0.3,1.2,1
				c0.1,0.7-0.7,1.3-1.2,1.5c-0.5,0.3-0.7,0.5-0.6,0.6c0.1,0.1,0.3,0,0.5-0.1c0.2-0.1,0.9-0.2,1.3,0c0.4,0.2,1.1,0.7,0.5,1.4
				c-0.6,0.7-1.9,1-2.2,1c-0.3,0.1-0.4,0-0.4,0.2c0,0.2,0.5,0.2,1.2,0.2c0.7,0,0.9,0.7,0.8,1.2c-0.1,0.5-1.3,1.1-1.9,1.2
				c-0.6,0.1-0.9,0-0.9,0.2c-0.1,0.2,0.1,0.3,0.4,0.4c0.4,0.1,1.1,0.2,1.2,0.8c0.1,0.6,0.2,0.8-0.4,1.3c-0.5,0.5-1.4,0.4-1.7,0.4
				c-0.3-0.1-0.6-0.3-0.8-0.1c-0.3,0.3,0.2,0.5,0.7,0.8c0.4,0.3,0.4,0.9-0.3,1.3c-0.7,0.4-1.5,0.3-1.8,0.2c-0.3-0.1-0.7-0.6-0.9-0.3
				c-0.2,0.3,0.6,0.4,1,0.9c0.4,0.4,0.2,1.2-0.5,1.6c-0.7,0.4-1.9,0.1-2.1-0.1c-0.2-0.2-0.5-0.3-0.6-0.1c-0.2,0.2,0.1,0.6,0.2,0.9
				c0.2,0.4,0.4,1.4-0.6,1.8c-1.1,0.4-2.1-0.5-2.2-0.7c-0.2-0.2-0.4-0.2-0.5-0.1c-0.2,0.1-0.1,0.2,0.1,0.4c0.1,0.2,0.4,1-0.4,1.5
				c-0.5,0.4-1.1,0.3-1.4,0.3c-0.2-0.6-0.4-1.3-0.6-2.2h0.2c0.1,0,0.1,0.2,0.1,0.2c0,0.1,0,0.1,0.1,0.1c0.1,0,0.1,0.1,0.2,0.1
				c0.1,0.1,0.3,0.2,0.3,0.2c0.1-0.1-0.3-0.2-0.4-0.4c-0.1-0.1-0.3-0.3-0.3-0.4c0-0.1-0.1-0.2-0.3-0.4c-0.1,0-0.1-0.1-0.1-0.2
				c-0.1-0.6-0.2-1.3-0.4-2.2c-0.1-0.6-0.1-1.1-0.1-1.6L118,72.4L118,72.4z"/>
			<path class="st3" d="M140.1,56.3c-1.2,2.3-2.8,3.7-2.8,3.7s0.2-0.6,0.3-1c0.1-0.4,0-0.9,0-0.9s0.4-0.5,1.2-1.7
				c0.8-1.2,1.2-2.9,1.2-2.9s-0.7,1.7-1.3,2.6c-0.5,0.9-1.2,1.7-1.2,1.7s-0.2-0.8-0.4-0.9c-0.2,0-0.3,0.1-0.4,0.3
				c-0.1,0.2-0.3,0.2-0.3,0.2s0.2-0.4,0.5-0.8c0.1-0.2,0.3-0.4,0.5-0.6c0.4-0.7,1.4-2,1.8-3.3c0.5-1.3,1.5-4.5,1.7-5.5
				c0.2-1,0.4-0.4,0.5,0.3c0.2,0.7,0.4,1.7,0.3,3.2C141.6,52.1,141.3,53.9,140.1,56.3L140.1,56.3z"/>
			<path class="st3" d="M138.6,62.6c-0.4,0.3-1.1,0.7-1.1,0.7s0.1-0.2,0.2-0.5s0.1-0.9,0.1-0.9s0.5-0.4,0.9-0.8
				c0.4-0.3,0.8-0.7,1.7-1.8c0.9-1.1,0.2-0.4-0.5,0.3c-0.7,0.8-2.1,1.9-2.1,1.9s0,0,0-0.3c0-0.2-0.1-0.4-0.2-0.6
				c-0.1-0.2-0.1-0.2,0.7-0.8c0.8-0.6,2.8-2.8,3.6-4.2c0.8-1.3,1.7-3.2,1.7-3.2s0.4,2.7-1.2,5.6C140.7,61.3,139.1,62.3,138.6,62.6z"
				/>
			<path class="st3" d="M130.1,79.5c-0.9-0.3-0.6-1.2-0.6-1.2c0,0,0.5,0.2,1.1,0.4c0.5,0.2,1.7,0.5,2.2,0.6c0.5,0,0.5-0.1,0.5-0.1
				c0-0.1-0.4,0-1.1-0.1c-0.7-0.1-1.9-0.8-2.2-0.9c-0.2-0.1-0.2-0.2,0.1-0.2c0.3,0,0.6-0.2,0.7-0.3c0.1-0.1,0.4,0,1.3,0.2
				c0.8,0.2,2.5,0.5,3.8,0.5c1.3,0,2.5-0.2,2.7-0.3c0.2,0,0.4,0.1-0.2,1.1c-0.6,1-2.8,1.6-4.3,1.6C132.5,80.6,131,79.8,130.1,79.5
				L130.1,79.5z"/>
			<path class="st3" d="M134.1,77.3c-1.6,0-2.1-0.5-2.1-0.5s0-0.1,0.2-0.4c0.2-0.3,0.2-0.9,0.2-0.9s0.4,0.1,1,0.2
				c0.6,0.1,1.4,0.2,2.2,0c0.8-0.1,0.5-0.2-0.2-0.2c-0.7,0.1-1.9-0.2-2.3-0.3c-0.4-0.1-0.2-0.3,0-0.4c0.3-0.1,1-0.6,1-0.6
				s1.9,0.2,3.7,0c1.8-0.2,2.9-0.6,3.2-0.7c0.4-0.1,0.3,0.1,0.3,0.1s0.1,0.2-0.5,1.1c-0.6,1-1.8,1.6-2.8,1.9
				C137,77.1,135.7,77.3,134.1,77.3L134.1,77.3z"/>
			<path class="st3" d="M134.5,73.7c0,0,0.1-0.1,0.2-0.4c0.1-0.3-0.2-0.6-0.2-0.6s0.4-0.1,1.5-0.3c1.2-0.1,1.2-0.2,1.9-0.4
				c0.7-0.2,1.2-0.4,1.2-0.5s-0.2,0-0.7,0.2c-0.4,0.2-2.2,0.3-3,0.5c-0.8,0.1-1.2,0.2-1.3,0.1c-0.1-0.1-0.6-0.2-0.6-0.2
				s0.3-0.1,0.7-0.2c0.4-0.1,0.8-0.2,1-0.4c0.2-0.1,0.3-0.2,1.2-0.3c1-0.1,1.7-0.4,3.4-1c1.7-0.6,3-1.4,3.3-1.6
				c0.3-0.3,0.3-0.1,0.2,0.3c-0.1,0.4-0.1,0.8-0.9,1.8c-0.9,1-1.3,1.4-3.5,2.2C136.9,73.8,134.5,73.7,134.5,73.7L134.5,73.7z"/>
			<path class="st3" d="M140.9,68.4c-1.9,1.4-4.2,1.8-4.6,1.9c-0.1-0.1,0.1-0.6,0-0.8c-0.1-0.3-0.3-0.3-0.8-0.4
				c-0.5,0-0.2-0.1-0.1-0.1c0.1,0,0.1,0,0.9-0.2c0.8-0.2,1.5-0.3,2.6-0.7c1.1-0.4,1.4-0.7,1.3-0.8c0-0.1-0.5,0.3-1.5,0.6
				c-1,0.4-2.1,0.5-2.7,0.6c-0.6,0.1-0.1-0.1,0.2-0.3c0.3-0.2,0.7-0.8,0.7-0.8s0.7-0.1,1.8-0.5c1.1-0.3,2.1-0.7,3-1.3
				c0.3-0.2,0.6-0.4,1-0.7c0.6-0.5,1.3-0.9,1.5-1.1c0.4-0.3,0.3-0.1,0.2,0.1c0,0.2-0.3,1-0.9,1.8C143,66.8,142.8,67,140.9,68.4z"/>
			<path class="st3" d="M141.2,64.6c-1.9,1.5-3.5,2-3.8,2.1c-0.3,0.1-0.3,0-0.2-0.2c0.1-0.2,0.1-0.7,0.1-0.7s0.7-0.4,1.4-0.8
				c0.8-0.4,1.6-1,2.1-1.4c0.6-0.4,0.2-0.4,0.1-0.2c-0.2,0.1-0.9,0.6-1.7,1.1c-0.8,0.5-1.9,1.2-1.9,1.2s0-0.3-0.2-0.4
				s-0.6-0.1-0.6-0.1s0.2-0.2,0.3-0.4c0.1-0.2,0.7-0.4,1.4-0.7c0.7-0.3,2-1.3,2.9-2c0.9-0.8,2.7-2.7,2.8-2.9
				c0.1-0.2,0.2-0.1,0.2,0.1c0,0.2,0.1,0.3-0.1,1.2C144,61.2,143.1,63.1,141.2,64.6z"/>
			<path class="st3" d="M134.5,50.4c-0.2,0.4-0.4,0.8-0.6,1.1c-0.3,0.4-0.4,0.7-0.4,0.7s-0.1-0.2,0-0.4c0-0.3,0.1-0.6,0-1.1
				c0-0.2-0.1-0.5-0.1-0.7c0-0.2,0.1-0.4,0.1-0.6c0.1-0.3,0.3-1.4,0.5-2.1c0.1-0.8,0.3-1.9,0.3-2.9c0-1-0.2-0.5-0.2,0
				c0,0.5-0.1,1.2-0.2,2.3c-0.2,1.1-0.6,2.8-0.6,2.8s0-0.3-0.2-0.6c-0.1-0.4-0.4-0.8-0.6-1.3c-0.2-0.5-0.1-0.5-0.1-0.5
				s0.7-3.2,0.8-4.7c0.2-1.5,0.5-5.5,0.5-5.5c1,1,1.7,3.6,1.8,6c0.1,1.8-0.2,3.5-0.3,4.2C135.1,48.6,134.9,49.7,134.5,50.4
				L134.5,50.4z"/>
			<path class="st3" d="M136.7,55.4c0-0.7-0.2-1.3-0.7-1.4c0,0,0.4-0.7,0.8-1.7c0.2-0.7,0.4-1.6,0.6-2.3c0.3-1.7,0.5-3.5-0.1-0.6
				c-0.5,2.9-1.1,3.9-1.1,3.9l-0.7,1.2c0.1-0.5,0.1-0.9,0.1-1.5c0-0.6-0.1-1.4-0.3-2c0,0,0.9-1.8,1.4-3.9s0.9-4.1,0.9-5.2
				c0.1-1.1,0.1-1.6,0.1-1.6s0.9,0.7,1.2,4.2c0.3,3.5-0.6,6.8-1.1,8.1C137.4,53.9,136.7,55.4,136.7,55.4L136.7,55.4z"/>
			<path class="st3" d="M126.7,82c0,0,0.1-0.1,0.6-0.4c0.4-0.3,0.3-1.1,0.3-1.1s0.1,0.1,0.4,0.3c0.3,0.2,0.7,0.5,1.1,0.6
				s0.6,0.3,0.9,0.4c0.3,0.1,0.2,0,0-0.2c-0.2-0.1-0.3-0.2-0.9-0.4c-0.6-0.2-1.7-1.2-1.7-1.2s0.3,0,0.7,0c0.5,0,1.1-0.3,1.1-0.3
				s0.5,0.4,2.4,1.3c1.9,0.8,3.5,1,3.5,1s-0.2,1-1.1,1.3c-0.8,0.3-1.8,0.5-3.9,0C128.1,82.9,126.7,82,126.7,82L126.7,82z"/>
			<path class="st3" d="M124.2,84c-0.2-0.8,0.3-1.4,0.3-1.4s0.1,0.1,0.4,0.3c0.3,0.3,0.7,0.8,1.5,1.2c0.8,0.4,1.1,0.4,0.3,0
				c-0.8-0.4-1.9-1.6-1.9-1.6l0.3-0.1c0.3-0.1,0.8,0.1,3,1.4c2.2,1.3,3.4,1.3,3.4,1.3s-1,1.2-3.6,1.1C125.3,86,124.3,84.8,124.2,84
				L124.2,84z"/>
			<path class="st3" d="M119.2,83c0,0,0.3,0.4,0.7,0.7s1.4,0.4,1.4,0.4s0,0.1,0.2,0.4c0.2,0.3,0.6,0.9,1.1,1.2
				c0.5,0.3,1.2,0.5,1.2,0.5s-0.4-0.3-0.9-0.5c-0.4-0.3-0.9-0.8-1.2-1.1c-0.3-0.3,0.1-0.3,0.1-0.3s0.5,0,1.1,0c0.5,0,0.4,0,0.5,0.2
				c0.1,0.2,0.3,0.5,0.7,0.9c0.5,0.5,0.9,1,1.3,1.5c0.3,0.3,0.1,0.4,0.1,0.4s-0.1,0.2-1.3,0.3c-0.7,0.1-1.5,0-2.3-0.5
				c-0.5-0.3-1-0.8-1.6-1.3C119.2,84.3,119.2,83,119.2,83L119.2,83z"/>
			<path class="st3" d="M118.6,86.2c0.3,0.4,0.4,0.5,0.4,0.5s-0.2-0.6-0.4-0.9c-0.1-0.2-0.2-0.3-0.3-0.4c0.2-0.4,0.4-0.9,0.5-1.4
				c0.1,0.4,0.5,1.6,1,2.4c0.6,1,1.1,1.3,0.8,1.6c-0.3,0.3-1,0.3-1.8-0.1c-0.7-0.4-1-1-1.1-1.5c0.1-0.2,0.3-0.4,0.4-0.6
				C118.3,85.9,118.5,86,118.6,86.2L118.6,86.2z"/>
			<ellipse class="st3" cx="118.8" cy="47.6" rx="0.5" ry="0.5"/>
			<path class="st3" d="M119.9,46.7c-0.5,0-0.8-0.2-1.3-0.2c-0.6,0.1-1.5,0.4-2.6,1c-0.8,0.4-1.9,0.6-2.9,0.3
				c-0.3-0.1-0.6-0.2-0.9-0.4c-1.3-0.7-1-2.1-1-2.1c0.9,0.7,2.1,1,3.2,1c0,0-0.1,0.1-0.3,0.2c-0.2,0.2-0.5,0.4-0.4,0.5
				c0.1,0.1,0.6-0.4,1-0.6c0.4-0.3,1-0.7,2-1c1-0.3,2.1-0.3,2.8,0.1c0.7,0.4,0.8,0.9,0.7,1.1C120.2,46.6,120.1,46.7,119.9,46.7z"/>
			<path class="st3" d="M106,57.1c0.2-0.1,0.6-0.1,1.1-0.6c0.5-0.5,1.7-1.8,1.9-2.1c0.1-0.2,0.1-0.5-0.3-0.6
				c-0.3-0.1-0.6-0.6-0.6-0.6s0.8-0.3,1.3-0.7c0.5-0.4,1.7-1.4,1.9-1.7c0.2-0.3,0.1-0.3-0.2-0.4c-0.2-0.1-0.3-0.2-0.3-0.2
				s0.6-0.4,1.1-0.8c0.5-0.4,1.2-1.1,1.2-1.1c0.8,0.3,2,0.2,2.6,0.1c1.2-0.2,2-0.7,2-0.7s0,0.2,0.2,0.5c0.1,0.4,0.7,0.6,1.2,0.2
				c0.5-0.4,0.4-1.1,0.4-1.1s0.4-0.3,1.3-0.6c0.9-0.3,1.6-0.4,2.3,0c0.7,0.3,1.1,1.3,1.1,2.1c0,0.7-0.4,0.4-0.5,0.3
				c-0.1-0.1-0.2-0.6-1.2-0.8c-0.9-0.1-1.7,0.3-2.8,1.1c-1,0.8-1.3,0.9-1.8,1.4c-0.5,0.5-0.1,0.8,0.8,1.1c0.9,0.3,2-0.3,2.1-0.3
				c0.2,0.1-0.4,0.9-1.1,1.2c-0.8,0.3-1.7,0.1-2.5-0.2c-0.5-0.2-0.6,0-0.8,0.2c-0.8,0.9-1.1,1.7-1.2,2.7c-0.4-0.1-0.7-0.6-0.8-0.9
				c0-0.2-0.1-0.5-0.4-0.3c-0.3,0.3-0.5,1.8-0.5,2.4s0.2,1.6,0.2,1.6l-0.2,0c-0.1,0-0.4-0.2-0.7-0.4c-0.3-0.2-0.3,0-0.3,0.4
				c0,0.4-0.1,1.1-0.6,2.3s-1.2,1.7-1.2,1.7s-0.1-0.2-0.3-0.7c-0.1-0.5-0.2-1.5-0.2-2.3c0-0.8,0.2-2.7,0.2-2.7s-1,1.3-2.1,1.6
				c-1.1,0.3-2.1,0.1-2.6-0.4C105.4,57.3,105.8,57.1,106,57.1L106,57.1z"/>
			<path class="st3" d="M113.1,60.3c0,0,0.3,0.7,0.5,1c0.2,0.3,0.3,0.3,0.3,0.3s-0.3,0.3-0.8,0.4c-0.5,0.1-0.9,0.2-0.9,0.2
				s0.5-0.7,0.7-1.2C113.1,60.5,113.1,60.3,113.1,60.3L113.1,60.3z"/>
			<path class="st3" d="M106.7,59.9c0.2-0.4,0.3-0.6,0.3-0.6c0.7,0.1,1.9-0.2,2.4-0.5c0,0-0.5,1-1,1.3c-0.5,0.3-0.6,0.4-0.6,0.4
				s0.5,0.1,1.2-0.6c0.7-0.7,1-1.4,1-1.4s-0.1,1.7,0.1,2.8c0.3,1.1,0.3,1.2,0.3,1.2s-1.4,0.2-3-0.2c-1.6-0.4-1.7-0.6-1.7-0.6
				s-0.2,0,0.1-0.4C106,61,106.5,60.3,106.7,59.9L106.7,59.9z"/>
			<path class="st2" d="M109.5,56.1c0.5-0.6,0.5-0.7,0.5-0.7s0.2,0.2,0,0.4c-0.1,0.2-0.8,0.8-1.3,1.1c-0.5,0.3-0.9,0.3-0.9,0.3
				l0-0.1C107.8,57.2,109,56.6,109.5,56.1z"/>
			<path class="st2" d="M111.4,59.7c0,0,0.1-2.2,0.1-2.5s0.2-0.2,0.2-0.2l0.2,0.1c0,0-0.4,2.8-0.5,3.2c-0.1,0.3-0.2,0.3-0.3,0.3
				C111.3,60.5,111.4,59.8,111.4,59.7L111.4,59.7z"/>
			<path class="st2" d="M114.3,50.3c0.2-0.2,0.6-0.3,0.2,0.1c-0.4,0.4-0.9,1-1,1.4c-0.1,0.4-0.2,1,0,0.9c0.3-0.1,0.4-0.1,0.7-0.3
				c0.3-0.2,0.8-0.6,1-0.7c0.2-0.1,0.6,0,0.3,0.3c-0.3,0.3-0.6,0.6-1.2,1.1c-0.6,0.4-0.9,0.6-1.2,0.8c-0.3,0.2-0.6,0.4-0.6,0.4
				s0.3-1.8,0.8-2.6C113.7,50.9,114.1,50.5,114.3,50.3z"/>
			<path class="st2" d="M123.9,80c0.4,0.3,0.8,0.4,0.8,0.4s0.2,0,0.2,0.1s-0.3,0-0.5,0c-0.3,0-0.6-0.3-0.8-0.4
				c-0.1-0.1-0.3-0.2-0.3-0.4C123.5,79.5,123.6,79.8,123.9,80L123.9,80z"/>
			<path class="st2" d="M120.8,81.7c0.1,0.1,0.7,0.5,0.7,0.5s0.2,0.1,0.4,0.2c0.2,0.1,0.2,0.2,0.2,0.2s0,0-0.2,0
				c-0.2-0.1-0.8-0.5-1-0.7c-0.2-0.2-0.3-0.2-0.2-0.3C120.7,81.6,120.7,81.6,120.8,81.7L120.8,81.7z"/>
			<path class="st2" d="M133.4,59.4c-0.1,0.1-0.2,0.3-0.3,0.3c-0.1-0.1,0-0.1,0.2-0.3c0.1-0.2,0.2-0.3,0.2-0.3s0.2-0.3,0.3-0.5
				c0.1-0.1,0.3-0.2,0.1,0.1C133.7,59,133.5,59.2,133.4,59.4z"/>
			<path class="st2" d="M134.3,61.5c-0.1,0.1-0.3,0.2-0.4,0.4c-0.1,0.2-0.3,0.3-0.3,0.2c-0.1-0.1,0.2-0.3,0.4-0.4
				c0.1-0.2,0.2-0.3,0.4-0.4s0.4-0.2,0.4-0.2S134.5,61.3,134.3,61.5L134.3,61.5z"/>
			<path class="st2" d="M134,64.8c-0.2,0.2-0.6,0.3-0.6,0.2c0-0.1,0-0.2,0.2-0.3c0.2-0.1,0.5-0.3,0.7-0.4c0.2-0.1,0.3-0.2,0.4-0.3
				c0.1-0.1,0.2-0.2,0.3-0.2c0,0-0.3,0.4-0.4,0.5C134.4,64.4,134.2,64.6,134,64.8L134,64.8z"/>
			<path class="st2" d="M133.3,67.5c0-0.1,0-0.1,0.2-0.2c0.2,0,0.5,0,0.5,0s0.4-0.1,0.4-0.1c0,0.1-0.3,0.2-0.5,0.2
				c-0.1,0-0.3,0.1-0.4,0.1C133.4,67.7,133.3,67.6,133.3,67.5L133.3,67.5z"/>
			<path class="st2" d="M133,70.5c0.4,0,0.8-0.1,0.8,0s-0.2,0.2-0.4,0.2c-0.2,0.1-0.6,0.1-0.9,0.1c-0.3,0-0.3,0-0.3-0.2
				C132.2,70.5,132.6,70.5,133,70.5z"/>
			<path class="st2" d="M129.7,73.7c0.1-0.1,0.2,0,0.4,0c0.2,0.1,0.6,0.1,0.8,0.1c0.2,0,0.7,0,0.7,0l0.3,0.1c0,0.1-0.4,0-0.9,0.1
				c-0.5,0.1-0.9,0-1.1-0.1C129.7,73.9,129.6,73.8,129.7,73.7L129.7,73.7z"/>
			<path class="st2" d="M128.3,76c0.3,0.1,0.4,0.1,0.6,0.1c0.2,0,0.7,0.1,0.7,0.1s0.2,0,0.2,0.1c0,0.1-0.1,0-0.3,0
				c-0.2,0-0.3,0-0.7,0c-0.3,0-0.5-0.1-0.8-0.1c-0.2,0-0.4-0.1-0.3-0.3C127.8,75.7,128.1,75.9,128.3,76L128.3,76z"/>
			<path class="st2" d="M125.7,77.7c0.1,0.1,0.7,0.5,0.7,0.5s0.1,0.1,0.3,0.2c0.2,0.1,0.2,0.2,0.2,0.2c0,0.1-0.2-0.1-0.3-0.1
				c-0.1,0-0.5-0.3-0.7-0.5c-0.2-0.2-0.5-0.3-0.4-0.4C125.5,77.5,125.5,77.6,125.7,77.7L125.7,77.7z"/>
			<path class="st2" d="M130.1,55.3c0,0,0,0.1-0.5,0.7c-0.5,0.6-0.2,0-0.1-0.1c0.1-0.1,0.8-1.1,1-1.4c0.2-0.3,0.3-0.1,0.1,0
				C130.5,54.7,130.1,55.3,130.1,55.3z"/>
			<path class="st2" d="M131.1,58.2c-0.1-0.1,0.1-0.1,0.3-0.5c0.3-0.3,0.8-1,0.8-1s0.1-0.3,0.2-0.3c0,0-0.2,0.5-0.4,0.7
				c-0.2,0.2-0.5,0.6-0.6,0.8C131.2,58.2,131.1,58.3,131.1,58.2L131.1,58.2z"/>
			<path class="st2" d="M129.8,63.8c0-0.2,0.5-0.1,0.8-0.2c0.2,0,0.7-0.1,0.7-0.1s0.5-0.1,0.5,0c0,0.1-0.1,0.1-0.4,0.2
				c-0.3,0-0.7,0.2-1,0.2C130,63.9,129.8,63.9,129.8,63.8L129.8,63.8z"/>
			<path class="st2" d="M131.1,60.8c-0.3,0.3-0.6,0.4-0.8,0.5c-0.2,0.1-0.3,0.2-0.4,0.1c-0.1-0.1,0.1-0.2,0.4-0.3
				c0.3-0.1,0.4-0.2,0.4-0.2S130.9,60.8,131.1,60.8C131.2,60.6,131.4,60.5,131.1,60.8L131.1,60.8z"/>
			<path class="st2" d="M128.1,58.8c0.2-0.2,0.4-0.3,0.4-0.3s0.3-0.2,0.3-0.2c0,0.1-0.3,0.3-0.5,0.5c-0.2,0.1-0.5,0.6-0.6,0.5
				C127.6,59.3,127.9,59,128.1,58.8z"/>
			<path class="st2" d="M130,66.5c0,0,0.3,0.1,0.5,0.1c0.2,0,0.2,0.1-0.1,0.1c-0.3,0-0.5-0.1-0.8-0.2c-0.3-0.1-0.4-0.1-0.4-0.2
				c0-0.1,0.2-0.1,0.4,0S130,66.5,130,66.5z"/>
			<path class="st2" d="M129.5,69.3c0,0.1-0.2,0-0.4-0.1c-0.2-0.1-0.5-0.2-0.7-0.3c-0.2-0.1-0.2-0.1-0.2-0.2c0-0.1,0.2,0,0.5,0.1
				c0.3,0.1,0.6,0.4,0.6,0.4S129.5,69.3,129.5,69.3L129.5,69.3z"/>
			<path class="st2" d="M125.9,71c-0.2-0.2-0.3-0.3-0.2-0.3c0.1-0.1,0.2-0.1,0.4,0.1c0.2,0.2,0.6,0.4,0.6,0.4s0.2,0.1,0.3,0.1
				c0.1,0.1,0.3,0.2,0.3,0.3c0,0.1-0.4,0-0.5-0.1C126.6,71.4,126.2,71.2,125.9,71L125.9,71z"/>
			<path class="st2" d="M124.2,73.3c-0.1-0.1-0.4-0.2-0.5-0.3c-0.1-0.1-0.2-0.4-0.1-0.4s0.2,0.1,0.4,0.3c0.2,0.2,1,0.7,1,0.7
				l0.2,0.1c0.2,0.1,0.1,0.1-0.1,0.1c-0.2,0-0.3,0-0.5-0.2C124.4,73.4,124.3,73.4,124.2,73.3z"/>
			<path class="st2" d="M121.7,75.4c-0.2-0.1-0.5-0.4-0.7-0.5c-0.1-0.1-0.3-0.3-0.2-0.4c0.1-0.1,0.2,0,0.4,0.2
				c0.2,0.2,0.6,0.6,0.6,0.6s0.1,0,0.3,0.2c0.2,0.2,0,0.2-0.1,0.1C122,75.5,121.9,75.5,121.7,75.4L121.7,75.4z"/>
			<polygon class="st3" points="111.5,43.5 110.5,42.7 111.7,42.4 112.4,43.1 			"/>
			<ellipse class="st2" cx="108.2" cy="42.6" rx="1" ry="0.9"/>
			<ellipse class="st3" cx="108.2" cy="42.4" rx="0.6" ry="0.6"/>
			<path class="st3" d="M110.2,39.4c-0.2,0.1-0.6,0.1-0.6,0.1s-0.1-0.4,0.1-0.6c0.2-0.2,0.5-0.4,0.6-0.5c0.1-0.1,0.2-0.2,0.2-0.2
				s0,0.4,0,0.6C110.6,39,110.5,39.3,110.2,39.4L110.2,39.4z"/>
			<ellipse class="st3" cx="109.7" cy="39.9" rx="0.2" ry="0.2"/>
			<path class="st3" d="M111.1,39.7c0.1,0.1,0.2,0.3,0.2,0.3s-0.2,0-0.4,0.1c-0.2,0.1-0.4,0.2-0.6,0.2c-0.2,0-0.3-0.2-0.2-0.3
				c0-0.1,0.1-0.3,0.4-0.4C110.9,39.5,111,39.6,111.1,39.7z"/>
			<path class="st3" d="M110.4,40.8c0.6,0.1,1.4-0.6,1.4-0.6c0.1,0.5,0.4,0.8,0.9,0.9l0,0c0,0-0.5,0.2-1,0.3c-0.3,0-0.5,0-0.8-0.1
				c-0.3-0.1-0.7-0.2-0.9-0.3c-0.4-0.2-0.3-0.8-0.3-0.8S109.8,40.8,110.4,40.8L110.4,40.8z"/>
			<path class="st3" d="M112.7,40.2c0.2-0.1,0.6-0.3,0.8-0.3c0.2,0,0.4,0,0.3,0.2c0,0.3-0.3,0.4-0.6,0.4c-0.3,0-0.4-0.1-0.6-0.2
				C112.5,40.4,112.5,40.3,112.7,40.2z"/>
			<path class="st3" d="M114.6,39.2c0.3-0.2,0.5-0.2,0.5-0.2s0.2,0.5,0.1,0.8c-0.1,0.3-0.3,0.4-0.6,0.4c-0.3,0-0.6-0.1-0.5-0.3
				C114.2,39.5,114.4,39.4,114.6,39.2z"/>
			<ellipse class="st3" cx="114.4" cy="40.5" rx="0.2" ry="0.2"/>
			<path class="st3" d="M113.8,38.2c0.2-0.8,0.1-1.7-0.6-2.8c-0.8-1.1-2.1-1.6-2.1-1.6s0-0.1-0.5-0.5c-0.4-0.4-1.3-1-1.3-1
				s1,0.2,1.6,0.4c0,0,0,0,0,0c0,0.4,0.3,0.7,0.7,0.7c0.1,0,0.3,0,0.4-0.1c0.3,0.1,1.3,0.7,1.6,0.9c-0.1,0.1-0.1,0.2-0.1,0.4
				c0,0.4,0.3,0.7,0.7,0.7c0.1,0,0.2,0,0.3-0.1c0,0,0.1,0.1,0.1,0.1c0.2,0.4,0.4,0.8,0.5,1.1c-0.2,0.1-0.3,0.3-0.3,0.6
				c0,0.4,0.3,0.7,0.6,0.7c0,0.2,0,0.4,0,0.4c0,0.2-0.1,0.4-0.5,0.5c-0.4,0.1-0.9,0.8-0.9,0.8C113.9,39.5,113.6,39,113.8,38.2
				L113.8,38.2z"/>
			<path class="st3" d="M111.4,33.1c-0.1-0.1-0.2-0.3-0.1-0.4c0.1-0.1,0.3-0.1,0.5,0c0.1,0.1,0.2,0.3,0.1,0.4
				C111.8,33.2,111.5,33.2,111.4,33.1z"/>
			<path class="st3" d="M113.9,34.8c-0.2-0.1-0.2-0.4-0.1-0.5c0.1-0.1,0.4-0.1,0.5,0c0.2,0.1,0.2,0.4,0.1,0.5
				C114.3,35,114.1,34.9,113.9,34.8z"/>
			<ellipse class="st3" cx="115.5" cy="36.9" rx="0.4" ry="0.4"/>
			<path class="st3" d="M107,31.5c0.2,0,0.6,0.2,1.1,0.5h0c-0.4,0-0.7,0.3-0.7,0.6c0,0.3,0.4,0.7,0.7,0.7s0.7-0.3,0.7-0.7
				c0-0.1,0-0.1,0-0.2c0.2,0.1,0.3,0.2,0.5,0.3c1.2,0.8,1.5,1.2,2.2,2.4c0.6,1.1,0.8,2.4,0.6,3.2c-0.3,0.7-1.2,0.9-1.3,0.9
				c0,0,0.1-0.1,0.1-0.3c0-0.1,0-0.2-0.1-0.5c0-0.3,0-0.6,0-0.6s-0.2,0-0.4,0.1c-0.1,0.2-0.3,0.3-0.4,0.5c-0.1,0.2-0.5,0.4-0.5,0.4
				s-0.2-0.3-0.2-0.6c0-0.3,0.2-0.7,0.3-1.3s-0.3-1.6-0.8-2.4c-0.6-0.8-1.7-1.5-2-1.6c-0.3-0.2-0.4-0.4-0.4-0.5c0-0.1,0-0.2-0.1-0.6
				C106.3,31.4,106.7,31.4,107,31.5L107,31.5z"/>
			<path class="st3" d="M108.2,32.8c-0.2,0-0.4-0.2-0.4-0.4c0-0.2,0.2-0.3,0.4-0.3c0.2,0,0.4,0.1,0.4,0.3S108.4,32.8,108.2,32.8z"/>
			<path class="st3" d="M106.4,40.2c-0.3,0.1-0.6,0.1-0.8-0.1c-0.2-0.1-0.2-0.4,0-0.5c0.2-0.2,0.5-0.1,0.6-0.1
				c0.2,0.1,0.6,0.4,0.6,0.4S106.7,40,106.4,40.2z"/>
			<path class="st3" d="M105.4,40.5c0.1,0.2,0.2,0.3,0.5,0.3c0.3,0,0.7,0,0.9-0.2c0.2-0.2,0.4-0.5,0.4-0.5l0.4,0
				c0,0,0.1,0.5,0.3,0.7c0.2,0.1,0.7,0.2,1,0c0.3-0.2,0.5-0.4,0.5-0.4c0,0,0,0.2-0.3,0.4c-0.3,0.2-0.4,0.4-0.9,0.4h-2.4
				c0,0-0.5,0-0.6-0.3c-0.1-0.3-0.1-0.5-0.1-0.5C105.3,40.2,105.3,40.3,105.4,40.5L105.4,40.5z"/>
			<path class="st3" d="M109.1,40.1c-0.4,0.2-0.6,0.1-0.7-0.1c-0.1-0.2-0.2-0.2-0.2-0.2s0.3-0.1,0.5-0.2c0.2-0.1,0.3-0.2,0.4-0.2
				c0.2,0,0.2,0,0.2,0S109.4,39.9,109.1,40.1L109.1,40.1z"/>
			<ellipse class="st2" cx="110.8" cy="36.6" rx="0.8" ry="0.8"/>
			<path class="st2" d="M109.4,33.8c0.3-0.2,0.8-0.1,1,0.2c0.3,0.3,0.2,0.8-0.1,1c-0.3,0.2-0.8,0.1-1-0.2
				C109,34.5,109.1,34,109.4,33.8z"/>
			<ellipse class="st3" cx="110.8" cy="36.5" rx="0.5" ry="0.4"/>
			<path class="st3" d="M109.7,33.9c0.2-0.1,0.5,0,0.6,0.2c0.1,0.2,0,0.4-0.3,0.4C109.5,34.7,109.3,34,109.7,33.9L109.7,33.9z"/>
		</g>
	</g>
</g>
</svg>
