<?xml version="1.0" encoding="utf-8"?>
<!-- Generator: Adobe Illustrator 22.1.0, SVG Export Plug-In . SVG Version: 6.00 Build 0)  -->
<svg version="1.1" id="layer_1" xmlns="http://www.w3.org/2000/svg" xmlns:xlink="http://www.w3.org/1999/xlink" x="0px" y="0px"
	 viewBox="0 0 216 144" style="enable-background:new 0 0 216 144;" xml:space="preserve">
<style type="text/css">
	.st0{fill:#FBDD4B;}
	.st1{fill:#D14A48;}
</style>
<g>
	<rect y="0" class="st0" width="216" height="144"/>
	<path class="st0" d="M108,72"/>
</g>
<path class="st1" d="M216,0l-91.1,60.7c-0.4-1.2-1-2.3-1.5-3.4L183.6,0l-64.8,0l-7.1,47.3c-1.2-0.3-2.4-0.5-3.7-0.5
	c-1.3,0-2.5,0.2-3.7,0.5L97.2,0L32.4,0l60.2,57.3c-0.6,1.1-1.1,2.2-1.5,3.4L0,0l0,57.6l89.2,11.9c-0.1,0.8-0.1,1.7-0.1,2.5
	c0,0.8,0,1.7,0.1,2.5L0,86.4V144l91.1-60.7c0.4,1.2,1,2.3,1.5,3.4L32.4,144h64.8l7.1-47.3c1.2,0.3,2.4,0.5,3.7,0.5
	c1.3,0,2.5-0.2,3.7-0.5l7.1,47.3h64.8l-60.2-57.3c0.6-1.1,1.1-2.2,1.5-3.4L216,144V86.4l-89.2-11.9c0.1-0.8,0.1-1.7,0.1-2.5
	c0-0.8,0-1.7-0.1-2.5L216,57.6L216,0z"/>
<ellipse class="st0" cx="108" cy="72" rx="16.2" ry="21.6"/>
<g>
	<path class="st0" d="M108,72"/>
</g>
</svg>
