<?xml version="1.0" encoding="utf-8"?>
<!-- Generator: Adobe Illustrator 22.1.0, SVG Export Plug-In . SVG Version: 6.00 Build 0)  -->
<svg version="1.1" id="layer_1" xmlns="http://www.w3.org/2000/svg" xmlns:xlink="http://www.w3.org/1999/xlink" x="0px" y="0px"
	 viewBox="0 0 216 144" style="enable-background:new 0 0 216 144;" xml:space="preserve">
<style type="text/css">
	.st0{fill:#DA7751;}
	.st1{fill:#FFFFFF;}
	.st2{fill:#607BBA;}
	.st3{fill:#FCEE21;}
</style>
<g>
	<rect x="0" y="0" class="st0" width="216" height="144"/>
	<path class="st1" d="M108,72"/>
</g>
<rect x="72" y="0" class="st2" width="72" height="144"/>
<g>
	<path class="st3" d="M40.7,86.6c1.6,6.1-1.2,8.2-4,9.3c-2.8,1-6.4,4.3-3.2,9.4C36.8,110.7,50.3,99.8,40.7,86.6z"/>
	<path class="st3" d="M31.4,104.5c-1.6-6.1,1.4-8.8,4.2-9.8c2.8-1,6.3-3.7,3.1-8.7C34.7,80,20.6,91.5,31.4,104.5z"/>
	<rect x="17.6" y="68.1" class="st3" width="7.9" height="53.7"/>
	<path class="st3" d="M36,61c-3,0-6.4-1-8.8-6.1c1.2,6.2,4.6,10.5,8.8,10.5"/>
	<polygon class="st3" points="43.7,115.8 36,122.4 28.3,115.8 	"/>
	<rect x="27.7" y="108.7" class="st3" width="16.6" height="4.2"/>
	<rect x="27.7" y="77" class="st3" width="16.6" height="4.2"/>
	<rect x="46.5" y="68.1" class="st3" width="7.9" height="53.7"/>
	<polygon class="st3" points="43.2,67.9 36,74.4 28.8,67.9 	"/>
	<path class="st3" d="M36,61c3,0,6.4-1,8.8-6.1c-1.2,6.2-4.6,10.5-8.8,10.5"/>
	<ellipse class="st3" cx="36" cy="50.1" rx="6.5" ry="8.6"/>
	<path class="st3" d="M36.2,21.4c-0.6,1.2-0.5,2.7-0.3,3.5c0.2,0.9,0.2,1.3-0.5,2.4c-0.7,1.1-0.8,2.4-0.2,3.4c0.6,1,0.5,2.6-0.3,2.7
		c-0.8,0.1-1.7-1.1-1.2-2.3c0.3-0.7,0.2-1.7,0-2.1c-0.1-0.4,0-1,0.2-1.4c0.1-0.4,0.1-0.9,0.1-1.3c0-0.3-0.2-0.3-0.4,0.1
		c-0.4,0.8-0.5,1.3-0.3,1.7c0.1,0.5-0.1,1-0.5,1.8c-1.4,2.6-0.3,7.7,3.2,7.7c3.6,0,4.7-4.2,4.1-5.9c-0.4-1.2-0.8-2.4-0.7-3.4
		c0-1-0.3-1.7-0.6-2.3c-0.3-0.6-0.4-0.3-0.3,0.5c0.2,0.8,0.2,1.5,0,2c-0.2,0.5-0.2,1.3,0.2,2c0.3,0.6,0,2-0.9,2.1
		c-0.9,0.1-1.6-1.2-1-2.9c0.6-1.8,0.7-4.1,0.2-5.1c-0.5-1-0.8-2.1-0.6-2.7C36.5,21.2,36.3,21,36.2,21.4z"/>
</g>
<g>
	<path class="st0" d="M36,87.4c-2.3,0-2.3,4.3,0,4.3C38.3,91.6,38.4,87.4,36,87.4z"/>
	<path class="st0" d="M36,99c-2.3,0-2.3,4.3,0,4.3C38.3,103.3,38.4,99,36,99z"/>
</g>
</svg>
