<?xml version="1.0" encoding="utf-8"?>
<!-- Generator: Adobe Illustrator 22.1.0, SVG Export Plug-In . SVG Version: 6.00 Build 0)  -->
<svg version="1.1" id="layer_1" xmlns="http://www.w3.org/2000/svg" xmlns:xlink="http://www.w3.org/1999/xlink" x="0px" y="0px"
	 viewBox="0 0 216 144" style="enable-background:new 0 0 216 144;" xml:space="preserve">
<style type="text/css">
	.st0{fill:#4C9D6B;}
	.st1{fill:#4C73B6;}
	.st2{fill:#EBAF49;stroke:#4C73B6;stroke-width:6.250000e-02;}
	.st3{fill:none;stroke:#4C73B6;stroke-width:2.5;}
	.st4{fill:#FFFFFF;}
	.st5{fill:#AF424C;}
</style>
<polygon class="st0" points="0.5,144.5 216.5,144.5 216.5,0.5 "/>
<polygon class="st1" points="216.5,0.5 0.5,0.5 0.5,144.5 "/>
<polygon class="st2" points="43.1,68.6 47,58.9 55.3,65.3 53.9,55.1 64.2,56.4 57.8,48.2 67.5,44.3 57.8,40.3 64.2,32.1 53.9,33.5 
	55.3,23.2 47,29.6 43.1,19.9 39.3,29.6 31,23.2 32.3,33.5 22,32.1 28.4,40.3 18.8,44.3 28.4,48.2 22,56.4 32.3,55.1 31,65.3 
	39.3,58.9 "/>
<path class="st3" d="M43.1,57.7c7.4,0,13.5-6,13.5-13.5c0-7.4-6-13.5-13.5-13.5c-7.4,0-13.5,6-13.5,13.5
	C29.7,51.7,35.7,57.7,43.1,57.7z"/>
<polygon class="st4" points="216.5,29.2 43.6,144.5 0.5,144.5 0.5,115.8 173.4,0.5 216.5,0.5 "/>
<polygon class="st5" points="216.5,19.8 29.4,144.5 0.5,144.5 0.5,125.2 187.6,0.5 216.5,0.5 "/>
</svg>
