<?xml version="1.0" encoding="utf-8"?>
<!-- Generator: Adobe Illustrator 22.1.0, SVG Export Plug-In . SVG Version: 6.00 Build 0)  -->
<svg version="1.1" id="layer_1" xmlns="http://www.w3.org/2000/svg" xmlns:xlink="http://www.w3.org/1999/xlink" x="0px" y="0px"
	 viewBox="0 0 216 144" style="enable-background:new 0 0 216 144;" xml:space="preserve">
<style type="text/css">
	.st0{fill:#0071BC;}
	.st1{fill:#FFFFFF;}
	.st2{fill:#2E3E6B;}
	.st3{fill:#F3C95A;}
	.st4{fill:#FFFFFF;stroke:#000000;stroke-width:6.250000e-02;}
	.st5{fill:#D45854;}
	.st6{fill:#B8CFED;}
	.st7{fill:#5959A0;}
	.st8{fill:#559EDA;}
	.st9{fill:#5DB18D;}
	.st10{fill:#FFF243;}
	.st11{fill:#E6A25F;}
	.st12{fill:#D14A48;}
	.st13{fill:#FCDE4B;}
	.st14{fill:none;stroke:#000000;stroke-width:0.1;}
</style>
<g>
	<rect x="0.3" y="0" class="st0" width="216" height="144"/>
	<path class="st0" d="M108.3,72"/>
</g>
<rect x="0.3" y="48" class="st1" width="216" height="48"/>
<g>
	<polygon class="st2" points="123.3,80.4 108.3,54.9 93.3,80.4 	"/>
	<polygon class="st3" points="93.8,80.1 108.3,55.5 122.9,80.1 	"/>
	<polygon class="st2" points="94.3,79.8 108.3,56.1 122.4,79.8 	"/>
	<polygon class="st4" points="121.9,79.5 108.3,56.7 94.8,79.5 	"/>
</g>
<path class="st5" d="M107.5,69.3c-0.1,0-0.1,0-0.2,0c-0.1,0,0,0,0-0.2c0-0.5,0-1,0.2-1.2c0.2-0.2,0.4-0.2,0.6-0.2s0.2-0.2,0-0.2
	c-0.2-0.1-0.3-0.1-0.6-0.1c0-0.3,0.1-0.7,0.5-0.7c0.2,0,0.3,0,0.6,0s0.7,0.5,0.7,1c0,0.6,0,1.2,0,1.4c0,0.2-0.1,0.2-0.3,0.2
	c-0.2,0-0.3,0-0.4,0s-0.2,0-0.2,0.2s0,0.4,0,0.6c0,0.2-0.1,0.3-0.4,0.2C107.8,70.1,107.7,69.9,107.5,69.3z"/>
<g>
	<polygon class="st3" points="87.8,68.2 87.6,69.6 88.2,69.6 88.4,68.4 88.9,68.5 88.8,69.7 89.5,69.8 89.7,68.5 90.1,68.5 
		89.9,70.5 87.1,70 87.4,68.1 	"/>
	<path class="st3" d="M88.6,66.6c0.2,0.1,0.5,0.2,0.5,0.2s0.1-0.3,0.2-0.5c0.1-0.2-0.1-0.5-0.3-0.6c-0.3-0.1-0.4,0.1-0.5,0.3
		c-0.1,0.2-0.2,0.5-0.2,0.5C88.2,66.5,88.4,66.5,88.6,66.6l-0.1,0.5l-0.8-0.3c0,0,0.1-0.5,0.4-1.1c0.1-0.5,0.6-0.7,1.1-0.5
		c0.4,0.1,0.8,0.6,0.6,1c-0.1,0.3-0.2,0.6-0.2,0.6l1,0.3l-0.2,0.5l-1.8-0.6L88.6,66.6z"/>
	<path class="st3" d="M91.2,63.9c0.2-0.3,0-0.5-0.2-0.7c-0.2-0.1-1.7-0.8-1.7-0.8l0.2-0.5c0,0,1.3,0.7,1.7,0.8
		c0.4,0.2,0.8,0.6,0.4,1.3c-0.3,0.7-0.9,0.7-1.3,0.5c-0.3-0.2-1.7-0.8-1.7-0.8l0.2-0.5c0,0,1.5,0.7,1.7,0.8
		C90.8,64.2,91.1,64.2,91.2,63.9z"/>
	<path class="st3" d="M92.1,61.4c0.2,0.1,0.3,0.2,0.3,0.2s0.3-0.4,0.4-0.6c0.1-0.1,0.1-0.3-0.1-0.5c-0.2-0.1-0.4-0.1-0.5,0
		c-0.1,0.2-0.4,0.6-0.4,0.6C91.9,61.2,92,61.3,92.1,61.4l-0.3,0.5c-0.3-0.2-0.6-0.5-0.9-0.7l0.3-0.5c0.1,0.1,0.3,0.2,0.3,0.2
		s0.3-0.3,0.4-0.6c0.1-0.2,0-0.4-0.1-0.4c-0.1-0.1-0.3-0.1-0.4,0.1c-0.1,0.2-0.4,0.6-0.4,0.6c0,0,0.1,0.1,0.2,0.2l-0.3,0.5
		c-0.4-0.3-0.6-0.5-0.6-0.5s0.2-0.2,0.6-0.9c0.3-0.4,0.8-0.7,1.2-0.4c0.2,0.1,0.3,0.3,0.3,0.6c0.2-0.1,0.4-0.1,0.7,0.1
		c0.3,0.2,0.6,0.6,0.2,1.2c-0.3,0.4-0.7,1-0.7,1c0,0-0.3-0.2-0.7-0.5L92.1,61.4z"/>
	<polygon class="st3" points="92.8,57.5 94.4,59.1 95.3,58.2 95.6,58.6 94.4,59.9 92.4,57.9 	"/>
	
		<rect x="95.3" y="55.4" transform="matrix(0.7757 -0.6311 0.6311 0.7757 -14.3852 73.0529)" class="st3" width="0.6" height="2.8"/>
	<path class="st3" d="M97.9,54.6c-0.1-0.1-0.4-0.3-0.7-0.1c-0.4,0.2-0.3,0.6-0.1,1.1c0.3,0.5,0.7,0.6,1,0.4c0.3-0.2,0.3-0.6,0.2-0.7
		l0.4-0.3c0.3,0.5,0.1,1.1-0.4,1.4c-0.6,0.3-1.2,0.1-1.7-0.6c-0.5-0.7-0.4-1.4,0.2-1.8c0.6-0.4,1.2-0.1,1.4,0.3L97.9,54.6z"/>
	<path class="st3" d="M105.2,52.3c0.1,0.5,0.1,1,0.1,1c0,0,0.3,0,0.4-0.1c0.2,0,0.7-0.2,0.6-1c-0.1-0.8-0.6-0.8-0.7-0.8
		c-0.1,0-0.5,0.1-0.5,0.1S105.2,51.9,105.2,52.3l-0.5,0.1c-0.1-0.7-0.2-1.4-0.2-1.4c0.3,0,0.7-0.1,1-0.1c0.3,0,1.1,0,1.3,1.2
		c0.1,0.8-0.2,1.5-0.8,1.6c-0.6,0.1-1.1,0.1-1.1,0.1s-0.1-0.7-0.2-1.4L105.2,52.3z"/>
	<polygon class="st3" points="110.1,51.3 108.7,51.2 108.7,51.8 110,51.9 109.9,52.4 108.7,52.4 108.6,53.1 110,53.2 110,53.6 
		108.1,53.5 108.2,50.7 110.1,50.8 	"/>
	<polygon class="st3" points="114.2,51.5 114.6,53.5 115.2,51.9 115.7,52 114.8,54.7 114.3,54.5 113.8,52.5 113.3,54.2 112.8,54 
		113.6,51.4 	"/>
	
		<rect x="115.2" y="53.6" transform="matrix(0.4243 -0.9055 0.9055 0.4243 18.2746 136.5903)" class="st3" width="2.8" height="0.6"/>
	<path class="st3" d="M119.6,55.1c0.1-0.1,0.1-0.5-0.2-0.7c-0.4-0.2-0.7,0-1,0.4c-0.3,0.5-0.3,0.9,0,1.1c0.3,0.2,0.6,0.1,0.8-0.1
		l0.4,0.3c-0.3,0.5-0.9,0.6-1.5,0.3c-0.5-0.3-0.6-1.1-0.2-1.8c0.5-0.7,1.1-1,1.7-0.6c0.6,0.4,0.6,1,0.4,1.4L119.6,55.1z"/>
	<path class="st3" d="M127.8,65.8c0.2-0.2,0.3-0.4,0.2-0.7c-0.1-0.4-0.6-0.5-1.1-0.4c-0.5,0.2-0.8,0.6-0.7,1
		c0.1,0.3,0.4,0.5,0.8,0.4l-0.2-0.5l0.4-0.1l0.3,1l-1.4,0.5l-0.1-0.3c0.1,0,0.2-0.1,0.3-0.1c-0.3-0.1-0.5-0.3-0.6-0.6
		c-0.2-0.6,0.2-1.3,1-1.6c0.8-0.3,1.5,0,1.7,0.7c0.2,0.5,0,1.1-0.5,1.3L127.8,65.8z"/>
	<path class="st3" d="M127,68.8c0.1,0.4,0.3,0.4,0.6,0.4c0.2,0,1.8-0.3,1.8-0.3l0.1,0.5c0,0-1.5,0.2-1.8,0.3c-0.4,0.1-1-0.1-1.1-0.9
		c-0.1-0.8,0.3-1.1,0.8-1.2c0.4-0.1,1.8-0.3,1.8-0.3l0.1,0.5c0,0-1.6,0.3-1.8,0.3C127.2,68.3,127,68.4,127,68.8z"/>
	<path class="st3" d="M90.9,82.6c0.1,0.2,0.2,0.3,0.2,0.3l0.8-0.9l-1.2,0.3C90.7,82.3,90.8,82.4,90.9,82.6l-0.4,0.2
		c-0.1-0.2-0.2-0.4-0.2-0.4l-0.6,0.2l-0.3-0.4l2.9-0.7l0.3,0.5l-1.9,2.2l-0.3-0.4l0.4-0.4c0,0-0.2-0.2-0.3-0.5L90.9,82.6z"/>
	<polygon class="st3" points="92.1,85.9 93.3,84.1 91.7,85.6 91.4,85.2 93.5,83.3 94,83.9 92.7,85.7 94.6,84.6 95.2,85.2 93.1,87.1 
		92.8,86.7 94.3,85.3 92.4,86.3 	"/>
	<polygon class="st3" points="97.2,87.5 96.1,86.7 95.7,87.2 96.7,87.9 96.4,88.3 95.4,87.6 95,88.2 96.1,89 95.8,89.4 94.2,88.2 
		96,86 97.5,87.2 	"/>
	<path class="st3" d="M98.2,89.1c0.2,0.1,0.4,0.2,0.5,0.3c0.2,0.1,0.4,0,0.5-0.2c0.1-0.2,0-0.4-0.1-0.5c-0.2-0.1-0.6-0.3-0.6-0.3
		L98.1,89C98.1,89,98.1,89,98.2,89.1L98,89.6c-0.1-0.1-0.2-0.1-0.2-0.1l-0.5,1l-0.5-0.3c0,0,1.4-2.5,1.4-2.5c0,0,1,0.6,1.3,0.8
		c0.3,0.2,0.3,0.7,0.1,1c-0.2,0.4-0.6,0.4-0.7,0.4c0.2,0.1,0.2,0.4,0.1,0.7c-0.1,0.2-0.4,0.7-0.4,0.7l-0.5-0.3c0,0,0.2-0.3,0.3-0.6
		c0.2-0.3,0.1-0.5-0.2-0.6c-0.1-0.1-0.2-0.1-0.3-0.1L98.2,89.1z"/>
	
		<rect x="99.1" y="90.2" transform="matrix(0.3797 -0.9251 0.9251 0.3797 -21.3205 149.0659)" class="st3" width="2.8" height="0.6"/>
	<path class="st3" d="M103.6,91c0-0.2,0-0.5-0.4-0.6c-0.4-0.1-0.7,0.2-0.9,0.7c-0.1,0.5,0,1,0.4,1.1c0.4,0.1,0.6-0.1,0.7-0.3
		l0.5,0.1c-0.2,0.6-0.7,0.8-1.3,0.7c-0.6-0.2-0.9-0.8-0.7-1.6c0.2-0.8,0.8-1.2,1.5-1.1c0.7,0.2,0.9,0.8,0.8,1.2L103.6,91z"/>
	<path class="st3" d="M111.8,91.3c0-0.2-0.2-0.5-0.6-0.4c-0.4,0.1-0.6,0.5-0.5,1c0.1,0.5,0.4,0.9,0.8,0.8c0.4-0.1,0.5-0.4,0.5-0.6
		l0.5-0.1c0.1,0.6-0.3,1-0.9,1.1c-0.6,0.1-1.2-0.4-1.3-1.2c-0.1-0.8,0.2-1.5,0.9-1.6c0.7-0.1,1.1,0.4,1.2,0.8L111.8,91.3z"/>
	<polygon class="st3" points="114.9,89.9 113.5,90.4 113.7,91 114.9,90.6 115.1,91.1 113.9,91.4 114.1,92.2 115.4,91.7 115.6,92.2 
		113.7,92.8 112.9,90.1 114.7,89.5 	"/>
	<polygon class="st3" points="116.1,88.9 117.7,90 117,88.5 117.4,88.2 118.7,90.7 118.2,91 116.5,89.9 117.3,91.5 116.8,91.7 
		115.5,89.2 	"/>
	<polygon class="st3" points="120.5,89.6 119.1,87.7 118.5,88.2 118.2,87.8 119.9,86.5 120.2,86.9 119.6,87.4 120.9,89.3 	"/>
	<polygon class="st3" points="124.6,80.9 126.7,81.9 127.3,80.8 127.7,81 126.9,82.7 124.4,81.4 	"/>
	<path class="st3" d="M106,92.2c0.2,0,0.4,0,0.4,0l-0.2-1.2l-0.5,1.1C105.7,92.2,105.8,92.2,106,92.2l-0.1,0.5c-0.2,0-0.4,0-0.4,0
		l-0.2,0.6l-0.5-0.1l1.2-2.7l0.6,0.1l0.6,2.9l-0.5-0.1l-0.1-0.6c0,0-0.3,0-0.6-0.1L106,92.2z"/>
	<path class="st3" d="M124.7,84.1c0.1-0.2,0.2-0.3,0.2-0.3l-1.1-0.4l0.7,1C124.5,84.3,124.6,84.2,124.7,84.1l0.4,0.3
		c-0.1,0.2-0.3,0.4-0.3,0.4l0.4,0.5l-0.3,0.4l-1.8-2.4l0.4-0.5l2.8,0.9l-0.3,0.4l-0.6-0.2c0,0-0.2,0.2-0.3,0.5L124.7,84.1z"/>
	<path class="st3" d="M122,86.4c0.1-0.1,0.3-0.3,0.4-0.4c0.1-0.1,0.1-0.3,0-0.5c-0.2-0.2-0.4-0.1-0.5,0c-0.1,0.1-0.5,0.5-0.5,0.5
		l0.5,0.5C121.8,86.5,121.9,86.5,122,86.4l0.4,0.3c-0.1,0.1-0.2,0.2-0.2,0.2l0.8,0.8l-0.4,0.4c0,0-2-2-2-2c0,0,0.8-0.8,1.1-1.1
		c0.3-0.3,0.7-0.2,1,0.1c0.3,0.3,0.3,0.7,0.1,0.8c0.1-0.1,0.4-0.1,0.7,0.1c0.1,0.1,0.6,0.6,0.6,0.6l-0.4,0.4c0,0-0.2-0.2-0.5-0.5
		c-0.2-0.2-0.4-0.2-0.6,0c-0.1,0.1-0.1,0.1-0.2,0.2L122,86.4z"/>
	<path class="st3" d="M127.9,72c0,0.2,0,0.4,0,0.4L129,72l-1.1-0.4C127.9,71.6,127.9,71.8,127.9,72l-0.5,0c0-0.2,0-0.4,0-0.4
		l-0.6-0.2l0-0.5l2.8,0.9l0,0.6l-2.8,0.9l0-0.5l0.6-0.2c0,0,0-0.3,0-0.6L127.9,72z"/>
	<path class="st3" d="M125.4,62.4c0.1,0.2,0.2,0.3,0.2,0.3l0.8-0.9l-1.2,0.2C125.2,62.1,125.3,62.3,125.4,62.4l-0.4,0.2
		c-0.1-0.2-0.2-0.4-0.2-0.4l-0.6,0.1l-0.3-0.5l2.9-0.6l0.3,0.5l-2,2.1l-0.3-0.5l0.4-0.4c0,0-0.1-0.3-0.3-0.5L125.4,62.4z"/>
	<path class="st3" d="M121.2,57.4c0.1,0.1,0.3,0.3,0.3,0.3l0.5-1.1l-1,0.6C121,57.1,121.1,57.3,121.2,57.4l-0.3,0.3
		c-0.2-0.2-0.3-0.3-0.3-0.3l-0.5,0.3l-0.4-0.4l2.5-1.5l0.5,0.4l-1.2,2.7l-0.4-0.4l0.3-0.5c0,0-0.2-0.2-0.4-0.4L121.2,57.4z"/>
	<path class="st3" d="M100.7,54.1c0.2-0.1,0.4-0.1,0.4-0.1l-0.8-0.9l0.1,1.2C100.4,54.2,100.6,54.1,100.7,54.1l0.2,0.4
		c-0.2,0.1-0.4,0.2-0.4,0.2l0.1,0.6l-0.5,0.2l-0.2-2.9l0.6-0.2l1.9,2.3l-0.5,0.2l-0.4-0.5c0,0-0.3,0.1-0.5,0.2L100.7,54.1z"/>
	<path class="st3" d="M88.2,72.7c0-0.2,0-0.4,0-0.6c0-0.2-0.2-0.3-0.4-0.3c-0.2,0-0.4,0.2-0.4,0.4c0,0.2,0,0.7,0,0.7l0.7,0
		C88.2,72.9,88.2,72.8,88.2,72.7l0.5-0.1c0,0.2,0,0.3,0,0.3l1.1,0l0,0.6c0,0-2.8,0-2.8,0c0,0,0-1.1,0-1.5c0-0.4,0.4-0.6,0.8-0.6
		c0.4,0,0.7,0.3,0.7,0.5c0-0.2,0.2-0.4,0.6-0.4c0.2,0,0.8,0,0.8,0l0,0.5c0,0-0.3,0-0.7,0c-0.3,0-0.4,0.2-0.4,0.4c0,0.1,0,0.2,0,0.3
		L88.2,72.7z"/>
	<path class="st3" d="M123.8,59.2c0.1,0.1,0.3,0.3,0.3,0.4c0.1,0.1,0.3,0.2,0.5,0c0.2-0.1,0.2-0.4,0.1-0.5c-0.1-0.2-0.4-0.6-0.4-0.6
		l-0.6,0.5C123.6,59,123.7,59.1,123.8,59.2l-0.4,0.4c-0.1-0.1-0.2-0.2-0.2-0.2l-0.9,0.7l-0.4-0.4c0,0,2.2-1.8,2.2-1.8
		c0,0,0.7,0.9,1,1.2c0.2,0.3,0.1,0.7-0.2,1c-0.3,0.3-0.7,0.2-0.8,0.1c0.1,0.2,0.1,0.4-0.2,0.7c-0.1,0.1-0.6,0.5-0.6,0.5l-0.3-0.4
		c0,0,0.2-0.2,0.5-0.4c0.3-0.2,0.2-0.4,0.1-0.6c-0.1-0.1-0.1-0.2-0.2-0.2L123.8,59.2z"/>
	<path class="st3" d="M89.2,77.8c0.3,0,0.5-0.2,0.5-0.5c0-0.3-0.2-0.5-0.5-0.5c-0.3,0-0.5,0.2-0.5,0.5
		C88.7,77.6,88.9,77.8,89.2,77.8z"/>
	<circle class="st3" cx="127.4" cy="77.3" r="0.5"/>
</g>
<g>
	<path class="st6" d="M102.6,66.9l-0.5,0.9l4.4,0.9c0-0.1,0-0.2,0-0.3L102.6,66.9z"/>
	<path class="st6" d="M104,64.6l-0.5,0.8l3.2,1.5c0-0.1,0.1-0.1,0.1-0.2L104,64.6z"/>
	<path class="st6" d="M103.4,65.7l-0.5,0.8l3.5,1.4c0-0.1,0-0.2,0.1-0.3L103.4,65.7z"/>
	<path class="st6" d="M110.5,70.1l5,3.5c0.5,0,1.8-0.1,2-0.1l-6.9-3.7C110.6,69.9,110.6,70,110.5,70.1z"/>
	<path class="st6" d="M108.5,71.3l-0.2,2.4c0.1,0,0.4,0,0.4,0v-2.4c0,0,0,0,0,0C108.6,71.3,108.5,71.3,108.5,71.3z"/>
	<path class="st6" d="M108.8,65.5l0.6-7.5l-0.7-1.2l-0.3,0.5l0.3,8.2c0,0,0,0,0.1,0C108.7,65.5,108.8,65.5,108.8,65.5z"/>
	<path class="st6" d="M118.1,72.5l-1.1-1.9l-6.1-1.3c0,0.1-0.1,0.3-0.1,0.4L118.1,72.5z"/>
	<path class="st6" d="M116.1,69.2l-0.7-1.1l-4.5,0.7c0,0.1,0,0.2-0.1,0.4L116.1,69.2z"/>
	<path class="st6" d="M115.1,67.5l-0.5-0.8l-3.6,1.3c0,0.1,0,0.2,0,0.3L115.1,67.5z"/>
	<path class="st6" d="M114.1,65.8l-0.3-0.6l-3,2c0,0.1,0.1,0.2,0.1,0.3L114.1,65.8z"/>
	<path class="st6" d="M113.5,64.7L113,64l-2.5,2.7c0,0.1,0.1,0.2,0.1,0.3L113.5,64.7z"/>
	<path class="st6" d="M112.8,63.7l-0.3-0.5l-2.3,3c0.1,0.1,0.1,0.1,0.2,0.2L112.8,63.7z"/>
	<path class="st6" d="M112.3,62.8l-0.3-0.5l-2.2,3.5c0.1,0,0.1,0.1,0.2,0.1L112.3,62.8z"/>
	<path class="st6" d="M111.6,61.7l-0.4-0.7l-1.7,4.7c0.1,0,0.1,0.1,0.2,0.1L111.6,61.7z"/>
	<path class="st6" d="M110.7,60.1l-0.6-1l-1.1,6.3c0.1,0,0.1,0,0.2,0L110.7,60.1z"/>
	<path class="st6" d="M107.6,58.5l-0.6,1l1.2,6c0.1,0,0.1,0,0.2,0L107.6,58.5z"/>
	<path class="st6" d="M106.5,60.4l-0.4,0.7l1.8,4.6c0,0,0.1,0,0.1-0.1L106.5,60.4z"/>
	<path class="st6" d="M105.7,61.8l-0.3,0.6l2.2,3.5c0,0,0.1-0.1,0.1-0.1L105.7,61.8z"/>
	<path class="st6" d="M104.9,63l-0.6,1l2.8,2.2c0-0.1,0.1-0.1,0.1-0.1L104.9,63z"/>
	<path class="st6" d="M101.2,69.2l-0.7,1.3l6.1-1.2c0-0.1,0-0.1-0.1-0.2L101.2,69.2z"/>
	<path class="st6" d="M99.5,72.3l-0.8,1.4l8.1-3.9c0-0.1-0.1-0.1-0.1-0.2L99.5,72.3z"/>
	<path class="st6" d="M102.8,72.7l0.3,0.5l3.7-3c0,0-0.1-0.1-0.1-0.1L102.8,72.7z"/>
	<path class="st6" d="M103.5,73.7L103.5,73.7c0.3,0,0.8,0,0.9,0l2.8-3.2c0,0-0.1-0.1-0.1-0.1L103.5,73.7z"/>
	<path class="st6" d="M106.2,72.5c0.2,0,0.6-0.1,0.7-0.1l0.7-1.5c-0.1,0-0.1-0.1-0.2-0.2L106.2,72.5z"/>
	<path class="st6" d="M107.2,72.7c0.1,0.2,0.3,0.6,0.3,0.7l0.5-2.2c-0.1,0-0.1-0.1-0.2-0.1L107.2,72.7z"/>
	<path class="st6" d="M109.2,73.7c0.2,0,0.5,0,0.6,0l-0.7-2.4c-0.1,0-0.1,0-0.2,0L109.2,73.7z"/>
	<path class="st6" d="M110.5,73.7c0.1,0,0.6,0,0.8,0l-1.8-2.6c-0.1,0-0.1,0.1-0.2,0.1L110.5,73.7z"/>
	<path class="st6" d="M111.8,73.7c0.3,0,0.9,0,1.1,0l-3-2.9c0,0-0.1,0.1-0.1,0.1L111.8,73.7z"/>
	<path class="st6" d="M113.4,73.7c0.3,0,1,0,1.2,0l-4.2-3.3c-0.1,0.1-0.1,0.2-0.2,0.2L113.4,73.7z"/>
</g>
<g>
	<path class="st7" d="M116.7,70.8c0.1,0.6,0.2,1.2,0.2,1.8c0,0.4,0,0.7-0.1,1.1l0.2,0c0-0.4,0.1-0.7,0.1-1.1c0-0.5,0-0.9-0.1-1.4
		L116.7,70.8z"/>
	<path class="st7" d="M113.7,65.7c-1.5-1.1-3.3-1.8-5.3-1.8c-2,0-3.8,0.7-5.3,1.8l-0.3,0.4c1.5-1.3,3.4-2.1,5.6-2.1
		c2.1,0,4.1,0.8,5.6,2.1L113.7,65.7z"/>
	<path class="st7" d="M100,70.8l-0.3,0.4c-0.1,0.4-0.1,0.9-0.1,1.4c0,0.4,0,0.8,0.1,1.2l0.2,0c-0.1-0.4-0.1-0.8-0.1-1.2
		C99.8,71.9,99.9,71.4,100,70.8z"/>
</g>
<g>
	<path class="st2" d="M116.9,71.2c0.1,0.4,0.1,0.9,0.1,1.4c0,0.4,0,0.7-0.1,1.1l0.2,0c0-0.4,0.1-0.7,0.1-1.1c0-0.3,0-0.7-0.1-1
		L116.9,71.2z"/>
	<path class="st2" d="M113.4,65.3c-1.4-1-3.2-1.6-5.1-1.6c-1.9,0-3.7,0.6-5.1,1.6l-0.2,0.4c1.5-1.1,3.3-1.8,5.3-1.8
		c2,0,3.8,0.7,5.3,1.8L113.4,65.3z"/>
	<path class="st2" d="M99.7,71.2l-0.2,0.4c0,0.3-0.1,0.7-0.1,1c0,0.4,0,0.8,0.1,1.2l0.2,0c-0.1-0.4-0.1-0.8-0.1-1.2
		C99.6,72.1,99.7,71.6,99.7,71.2z"/>
</g>
<g>
	<path class="st8" d="M117.2,71.6c0,0.3,0.1,0.7,0.1,1c0,0.4,0,0.7-0.1,1.1l0.2,0c0-0.4,0.1-0.7,0.1-1.1c0-0.2,0-0.4,0-0.6
		L117.2,71.6z"/>
	<path class="st8" d="M113.2,64.9c-1.4-0.9-3.1-1.4-4.9-1.4c-1.8,0-3.5,0.5-4.9,1.4l-0.2,0.3c1.4-1,3.2-1.6,5.1-1.6
		c1.9,0,3.7,0.6,5.1,1.6L113.2,64.9z"/>
	<path class="st8" d="M99.5,71.6l-0.2,0.3c0,0.2,0,0.4,0,0.6c0,0.4,0,0.8,0.1,1.2l0.2,0c-0.1-0.4-0.1-0.8-0.1-1.2
		C99.5,72.2,99.5,71.9,99.5,71.6z"/>
</g>
<g>
	<path class="st9" d="M117.4,71.9c0,0.2,0,0.4,0,0.6c0,0.4,0,0.7-0.1,1.1l0.2,0c0-0.4,0.1-0.7,0.1-1.1c0-0.1,0-0.2,0-0.3L117.4,71.9
		z"/>
	<path class="st9" d="M113,64.6c-1.4-0.8-3-1.3-4.7-1.3c-1.7,0-3.3,0.5-4.7,1.3l-0.2,0.3c1.4-0.9,3.1-1.4,4.9-1.4
		c1.8,0,3.5,0.5,4.9,1.4L113,64.6z"/>
	<path class="st9" d="M99.3,71.9l-0.2,0.3c0,0.1,0,0.2,0,0.3c0,0.4,0,0.8,0.1,1.3l0.2,0c-0.1-0.4-0.1-0.8-0.1-1.2
		C99.3,72.3,99.3,72.1,99.3,71.9z"/>
</g>
<g>
	<path class="st10" d="M117.6,72.2c0,0.1,0,0.2,0,0.3c0,0.4,0,0.7-0.1,1.1l0.2,0c0-0.4,0.1-0.7,0.1-1.1c0,0,0,0,0,0L117.6,72.2z"/>
	<path class="st10" d="M112.9,64.3c-1.3-0.7-2.9-1.2-4.5-1.2c-1.6,0-3.2,0.4-4.5,1.2l-0.2,0.3c1.4-0.8,3-1.3,4.7-1.3
		c1.7,0,3.3,0.5,4.7,1.3L112.9,64.3z"/>
	<path class="st10" d="M99.1,72.2l-0.2,0.3c0,0,0,0,0,0c0,0.4,0,0.8,0.1,1.2l0.2,0c-0.1-0.4-0.1-0.8-0.1-1.3
		C99.1,72.5,99.1,72.3,99.1,72.2z"/>
</g>
<g>
	<path class="st11" d="M117.7,72.5C117.7,72.5,117.7,72.6,117.7,72.5c0,0.4,0,0.7-0.1,1.1l0.2,0c0-0.3,0-0.5,0.1-0.8L117.7,72.5z"/>
	<path class="st11" d="M112.7,64c-1.3-0.7-2.8-1-4.4-1c-1.6,0-3,0.4-4.4,1l-0.2,0.3c1.3-0.7,2.9-1.2,4.5-1.2c1.6,0,3.2,0.4,4.5,1.2
		L112.7,64z"/>
	<path class="st11" d="M98.9,72.5l-0.2,0.3c0,0.3,0,0.7,0.1,1l0.2,0C99,73.4,98.9,73,98.9,72.5C98.9,72.6,98.9,72.5,98.9,72.5z"/>
</g>
<g>
	<path class="st12" d="M117.9,72.8c0,0.3,0,0.5-0.1,0.8l0.2,0c0-0.2,0-0.4,0-0.5L117.9,72.8z"/>
	<path class="st12" d="M112.5,63.8c-1.3-0.6-2.7-0.9-4.2-0.9c-1.5,0-2.9,0.3-4.2,0.9L104,64c1.3-0.7,2.8-1,4.4-1c1.6,0,3,0.4,4.4,1
		L112.5,63.8z"/>
	<path class="st12" d="M98.6,73.1c0,0.2,0,0.5,0.1,0.7l0.2,0c0-0.3-0.1-0.7-0.1-1L98.6,73.1z"/>
</g>
<g>
	<path class="st2" d="M103.4,74.2c0.2,0,0.8,0,1,0c0.1,0,0.3,0.1,0,0.1s-0.8,0-0.8,0L103.4,74.2z"/>
	<path class="st2" d="M103.7,74.7c0.1,0,0.4,0,0.5,0c0.1,0,0.1,0.1,0,0.1c-0.1,0-0.3,0.1-0.4,0.1L103.7,74.7z"/>
	<path class="st2" d="M107.5,74.2c0.1,0,0.9,0,1,0v0.1c-0.3,0-0.8,0.1-1,0.1L107.5,74.2z"/>
	<path class="st2" d="M111.4,74c0.2,0,0.6,0,0.7,0l0,0.1c-0.2,0-0.6,0-0.6,0L111.4,74z"/>
	<path class="st2" d="M113.9,74.1c0.2,0,0.7,0,0.9,0l0,0.1c-0.3,0-0.6,0-0.8,0L113.9,74.1z"/>
	<path class="st2" d="M119.1,75c-0.3,0-0.8,0.1-0.9,0.1c-0.1,0-0.2,0.2,0,0.1c0.2,0,0.7-0.1,0.9-0.1L119.1,75z"/>
	<path class="st2" d="M97.3,75.1c0.3,0,1,0.1,1.3,0.1L99,75c-0.2,0-1.2-0.1-1.6-0.1L97.3,75.1z"/>
	<path class="st2" d="M97.6,74.6l-0.1,0.2c0.5-0.1,1.3-0.1,1.8,0l0.2-0.1C99.2,74.5,98.1,74.5,97.6,74.6z"/>
	<path class="st2" d="M97.9,74.1l-0.2,0.3c0.6-0.1,1.7-0.2,2.2-0.1l0.2-0.1C99.5,74,98.4,74.1,97.9,74.1z"/>
	<path class="st2" d="M100.6,79c-0.1,0,0-0.1,0.2-0.2c0.6-0.3,1.5-0.1,1.9,0c0.4,0.1,0.3,0.2,0.2,0.2c0.4,0,0.9,0,1.3,0
		c-0.3,0-0.6-0.1-1.2-0.3c-0.9-0.3-2-0.1-2.4,0c-0.3,0.1-0.7,0.2-1.1,0.1C99.8,78.9,100.2,78.9,100.6,79z"/>
	<path class="st2" d="M118.2,73.5c-0.6,0-2.4,0.1-3,0.1c-0.7,0-3.7,0.1-4.5,0c-0.8,0-4.4,0.1-5.5,0.1c-1,0-6,0-7-0.1L98,73.9
		c0.6,0,3.4,0,4.3,0c1,0,3.6,0,4.5,0c0.9,0,3-0.1,3.4-0.1c0.4,0,3.4,0,4,0c0.5,0,2.5-0.1,4.1-0.1L118.2,73.5z"/>
	<path class="st2" d="M118.5,73.9c-0.5,0-1.3,0.1-1.5,0.1c-0.1,0-0.3,0.1,0,0.1c0.3,0,1.1,0,1.5,0L118.5,73.9z"/>
	<path class="st2" d="M118.7,74.3c-0.4,0-1.2,0-1.3,0.1c-0.1,0-0.2,0.2,0,0.1c0.2,0,1-0.1,1.4-0.1L118.7,74.3z"/>
	<path class="st2" d="M118.9,74.7c-0.4,0-1,0.1-1.1,0.1c-0.1,0-0.3,0.1,0,0.1c0.2,0,0.9-0.1,1.2-0.1L118.9,74.7z"/>
	<path class="st2" d="M120.7,77.6c-0.4,0-0.8-0.1-1-0.1c-0.2-0.1-0.4-0.1-0.1,0.1c0.3,0.2,0.9,0.3,1.3,0.3L120.7,77.6z"/>
	<path class="st2" d="M120.9,78.1c-0.4,0-1.2-0.1-1.8-0.4c-0.7-0.3-1.5-0.2-2.3-0.1c-1.4,0.2-2.1,0.1-3.2-0.2
		c-1.1-0.3-2.7-0.2-3.2,0c-0.5,0.2-0.4,0.3,0.1,0.2c0.6-0.1,1.8-0.3,3,0c1.1,0.3,2.2,0.4,2.8,0.3c0.7-0.1,1.2-0.1,1.5-0.1
		c0.3,0,0.3,0.1,0,0.1c-2.1,0.3-2.9,0.3-4.1,0c-1.2-0.3-2.3-0.2-3.1-0.1c-0.8,0.1-1.6,0.1-2.3-0.2c-0.7-0.3-1.3-0.4-1.8-0.2
		c-0.2,0.1-0.2,0.1,0.1,0.1c0.3,0,1,0,1.7,0.3c0.6,0.3,1.6,0.4,2.5,0.2c0.9-0.1,2-0.3,2.9,0.1c0.9,0.4,2,0.3,3,0.2
		c0.9-0.1,1.6-0.3,2.3-0.1c0.7,0.2,1.6,0.2,1.9,0.2L120.9,78.1z"/>
	<path class="st2" d="M121.2,78.5c-0.4,0.1-1.5,0-2-0.1c-0.5-0.1-1.4,0-2.6,0.2c-1.2,0.2-2.5-0.2-3.2-0.3c-0.7-0.2-1.5-0.2-2.1-0.1
		c-0.6,0.1-1.6,0.2-3-0.2c-1.7-0.5-2.6-0.3-3-0.2c-0.4,0.1-1.3,0.1-2.3-0.1s-1.8-0.2-2.4,0c-0.6,0.2-1.5,0.3-2.3,0
		c-0.8-0.2-1.7-0.2-2.3-0.2l-0.1,0.2c0.5-0.1,1.7-0.1,2.4,0.2c0.9,0.3,2,0.2,2.4,0.1c0.9-0.3,1.5-0.2,2.3,0c0.6,0.2,1.7,0.2,2.5,0
		c1.2-0.3,1.9-0.1,2.9,0.2c1,0.3,2.3,0.4,3.1,0.3c0.7-0.1,1.4-0.2,2.3,0.1c0.9,0.3,2.1,0.5,3.1,0.2c1-0.2,2-0.3,2.5-0.2
		c0.5,0.1,1.3,0.2,2,0.1L121.2,78.5z"/>
	<path class="st2" d="M121.4,78.8c-0.3,0-1,0.1-1.7,0c-1.1-0.2-1.9-0.1-2.7,0.1c-1.1,0.3-1.7,0.2-2.6,0c-0.9-0.2-1.7-0.3-2.7-0.2
		c-1,0.1-2.5-0.1-3.6-0.4c-1.1-0.3-2.1-0.2-2.9,0c-0.8,0.2-2.1,0-2.6-0.2c-0.4-0.2-1-0.2-1.8,0c-0.8,0.2-1.6,0.1-2.4-0.1
		c-0.8-0.2-1.8-0.3-2.6-0.2L95.6,78c0.5-0.1,1.9-0.1,2.7,0.2c0.9,0.3,1.9,0.2,2.4,0.1c0.5-0.1,1.4-0.1,1.8,0.1
		c0.8,0.4,2.2,0.3,2.7,0.2c1.1-0.3,1.9-0.3,2.8,0c0.9,0.3,2.6,0.5,3.7,0.3c0.7-0.1,1.8-0.1,2.7,0.2c0.9,0.2,1.7,0.3,2.7,0
		c1-0.3,2.1-0.2,2.7-0.1c0.6,0.1,1,0.2,1.8,0.1L121.4,78.8z"/>
	<path class="st2" d="M121.6,79.2c-0.3,0-1.5,0-1.9,0c-0.5-0.1-1.4-0.2-2.3,0.1c-0.9,0.3-2.3,0.2-3,0c-0.7-0.2-1.7-0.3-2.6-0.2
		c-0.9,0.1-2,0.2-3.3-0.2c-1.3-0.4-1.8-0.5-3.2-0.1c-0.6,0.2-3.4,0.1-4.2,0.2c-0.8,0-1.8-0.3-2.4-0.5c-0.6-0.2-2.1-0.3-3.2-0.2
		l-0.1,0.2c1-0.2,2.3,0,2.9,0.3c-0.7-0.2-2.2-0.1-3.1,0.1L95,79.1c1.3-0.3,3.3-0.2,4-0.1c0.8,0.2,2.1,0.3,3,0.1
		c0.8-0.2,2.2,0.1,3,0.4h3.7c-0.6-0.4-1.3-0.2-1.8-0.1c-0.5,0.1-1.1-0.1-1.3-0.2c-0.3-0.2,0-0.1,0.4-0.3c1.2-0.4,2.2,0.1,2.9,0.6
		h2.9c0.8-0.5,1.5-0.3,1.9-0.1c0.1,0,0.3,0.1,0.6,0.1h3.1c0.8-0.3,1.7-0.2,2.2-0.1c0.5,0.1,1.1,0.1,2,0L121.6,79.2z"/>
</g>
<path class="st9" d="M119.4,75.6c-1.9,0-2.7-1.1-3.4-2.3c-0.4,0-0.9,0.1-1.2,0.1c-0.1,0.2-0.3,0.8-0.4,1.2c-0.4-0.3-0.8-1.1-1.1-1.6
	c-0.2,0-0.6,0-0.9,0c-0.1,0.3-0.5,1.1-0.7,1.5c-0.3-0.3-1-1.4-1.3-1.8c-0.3,0-0.8,0.1-1.2,0.1c-0.2,0.6-0.6,1.6-1.2,2.1
	c-0.4-0.4-1.1-1.8-1.4-2.4c-0.3,0-0.8,0.1-1,0.1c-0.3,0.5-1,2-1.4,2.7c-0.7-0.7-1.6-2.3-2.2-3.3l-0.9,0.1c-1.1,3-2.9,3.4-4.1,3.5
	L96.2,77c0.4,0,1.2,0.1,1.7,0.2c0.6,0.2,1.7,0.3,2.6,0c0.9-0.3,1.8-0.3,2.7-0.1c0.9,0.2,2.5,0.3,3.8-0.4c1.7,0.9,2.8,0.4,3.7,0.2
	c0.8-0.2,2-0.3,2.9,0c1.2,0.4,2.7,0.4,3.8,0.1c1.3-0.4,2.2,0.3,3.2,0.4L119.4,75.6z"/>
<g>
	<path class="st13" d="M101.3,72c0.1,1.6,1,3.3,3.3,5.3c0.1,0,0.4,0,0.5,0c-0.6-0.6-2-2.1-2.4-2.8c0-0.1,0-0.3,0-0.3
		c1.3,1.4,2.2,2.5,3.4,3.1c0.2,0,0.5-0.1,0.7-0.2c-2-1-3.1-2.5-4.6-5.1C101.9,72,101.5,72,101.3,72z"/>
	<path class="st13" d="M109.8,72.7c-0.3,1-0.7,2-1.3,2.5c0.1,0.1,0.3,0.2,0.4,0.3c0.3-0.2,0.6-0.6,0.7-0.7c0.2,0.1,0.2,0.4-0.2,1.1
		c0.5,0.4,1.4,0.8,2,1c-0.5,0.1-1.2,0.3-1.4,0.3c-1.1-0.8-2.1-1.4-2.9-2.9c-0.1,0.6,0,0.8,0.4,1.3c0.4,0.4,0.9,1,2,1.7
		c-0.6,0-1.3-0.1-2.1-0.5c-0.4-0.7-1.3-2.3-1.5-4.3c0.3,0,0.8-0.1,1-0.1c0.3,0.7,1,1.9,1.4,2.4c0.4-0.4,0.9-1.2,1.2-2.1
		C109.5,72.7,109.8,72.7,109.8,72.7z"/>
	<path class="st13" d="M112.9,73c-0.1,0.5-0.5,1.3-0.7,1.7c-0.1-0.1-0.2-0.2-0.3-0.3l0.7-1.5C112.7,73,112.9,73,112.9,73z"/>
	<path class="st13" d="M112.3,75.1c0.1,0.1,0.3,0.2,0.3,0.2c0.2-0.3,0.3-0.6,0.2-1C112.6,74.5,112.6,74.9,112.3,75.1z"/>
	<path class="st13" d="M114.6,74.6c0.1,0.1,0.2,0.2,0.3,0.2c0.2-0.5,0.4-1.1,0.4-1.5c-0.1,0-0.2,0-0.3,0
		C114.9,73.9,114.7,74.4,114.6,74.6z"/>
</g>
<polygon class="st14" points="121.9,79.5 108.3,56.7 94.8,79.5 "/>
</svg>
