<?xml version="1.0" encoding="utf-8"?>
<!-- Generator: Adobe Illustrator 22.1.0, SVG Export Plug-In . SVG Version: 6.00 Build 0)  -->
<svg version="1.1" id="layer_1" xmlns="http://www.w3.org/2000/svg" xmlns:xlink="http://www.w3.org/1999/xlink" x="0px" y="0px"
	 viewBox="0 0 216 144" style="enable-background:new 0 0 216 144;" xml:space="preserve">
<style type="text/css">
	.st0{fill:#40548B;}
	.st1{fill:#FFFFFF;stroke:#000000;stroke-width:0.25;}
	.st2{fill:#D14A48;stroke:#000000;stroke-width:0.25;stroke-linejoin:bevel;}
	.st3{fill:#D14A48;stroke:#000000;stroke-width:0.25;}
	.st4{fill:#FFFFFF;}
	.st5{fill:#D14A48;}
</style>
<rect y="0.5" class="st0" width="216" height="144"/>
<polygon class="st1" points="0,24.5 22.8,24.5 0,9.3 0,0.5 13,0.5 44.9,21.7 44.9,0.5 62.8,0.5 62.8,21.7 94.7,0.5 107.8,0.5 
	107.8,9.3 85,24.5 107.8,24.5 107.8,48.5 85,48.5 107.8,63.7 107.8,72.5 94.7,72.5 62.8,51.3 62.8,72.5 44.9,72.5 44.9,51.3 
	13,72.5 0,72.5 0,63.7 22.8,48.5 0,48.5 "/>
<g>
	<polygon class="st2" points="99.4,0.5 63.4,24.5 72,24.5 107.8,0.5 	"/>
	<polygon class="st2" points="107.8,72.5 72,48.5 80.6,48.5 107.8,66.8 	"/>
	<polygon class="st2" points="36.1,24.5 0,0.5 0,6.2 27.4,24.5 	"/>
	<polygon class="st2" points="36,48.5 0,72.5 8.6,72.5 44.6,48.5 	"/>
	<polygon class="st3" points="0,29.5 48.7,29.5 48.7,0.5 59.3,0.5 59.3,29.5 107.8,29.5 107.8,43.5 59.3,43.5 59.3,72.5 48.7,72.5 
		48.7,43.5 0,43.5 	"/>
</g>
<g>
	<polygon class="st4" points="162,18.7 160,26.7 153.6,26.7 158.8,31.7 156.8,39.8 162,34.8 167.1,39.8 165.2,31.6 170.3,26.7 
		163.9,26.7 	"/>
	<polygon class="st4" points="137,52.1 135.1,60.1 128.7,60.1 133.9,65.2 131.9,73.2 137,68.2 142.2,73.2 140.2,65.1 145.4,60.2 
		139,60.2 	"/>
	<polygon class="st4" points="183.5,44.3 181.7,51.7 175.8,51.7 180.6,56.3 178.8,63.6 183.5,59.1 188.2,63.6 186.4,56.2 
		191.1,51.7 185.3,51.7 	"/>
	<polygon class="st4" points="162,103.9 159.8,112.9 152.6,112.9 158.5,118.5 156.2,127.5 162,121.9 167.7,127.5 165.5,118.4 
		171.3,112.9 164.2,112.9 	"/>
</g>
<g>
	<polygon class="st5" points="162,22.6 160.7,27.8 156.6,27.8 159.9,31 158.7,36.2 162,33 165.3,36.2 164,31 167.4,27.8 163.3,27.8 
			"/>
	<polygon class="st5" points="137,56 135.8,61.2 131.6,61.2 135,64.5 133.7,69.7 137,66.4 140.3,69.7 139.1,64.4 142.4,61.3 
		138.3,61.3 	"/>
	<polygon class="st5" points="183.5,48.7 182.4,53.1 178.9,53.1 181.7,55.8 180.7,60.2 183.5,57.5 186.3,60.2 185.2,55.8 188,53.1 
		184.5,53.1 	"/>
	<polygon class="st5" points="162,108.1 160.5,114.2 155.7,114.2 159.6,118 158.1,124 162,120.3 165.8,124 164.4,117.9 168.3,114.2 
		163.5,114.2 	"/>
</g>
</svg>
