<?xml version="1.0" encoding="utf-8"?>
<!-- Generator: Adobe Illustrator 22.1.0, SVG Export Plug-In . SVG Version: 6.00 Build 0)  -->
<svg version="1.1" id="layer_1" xmlns="http://www.w3.org/2000/svg" xmlns:xlink="http://www.w3.org/1999/xlink" x="0px" y="0px"
	 viewBox="0 0 216 144" style="enable-background:new 0 0 216 144;" xml:space="preserve">
<style type="text/css">
	.st0{fill:#C1272D;}
	.st1{fill:#FFFFFF;}
	.st2{fill:#3C662F;}
	.st3{fill:#D14A48;}
	.st4{fill:#FFF243;}
	.st5{fill:#9FBAE3;}
	.st6{fill:none;}
	.st7{fill:#BBAF2B;}
	.st8{fill:#201600;}
	.st9{fill:#8D5629;}
</style>
<rect x="0.5" class="st0" width="72" height="144"/>
<rect x="144.5" class="st0" width="72" height="144"/>
<rect x="72.5" class="st1" width="72" height="144"/>
<g>
	<path class="st2" d="M111.5,55.9c-0.4,0.1-1,0-1.5-0.4c-0.4-0.2-0.3-0.4,0.2-0.5c0.5,0,1,0,1.6,0.2
		C112.5,55.7,112.1,55.8,111.5,55.9z"/>
	<path class="st2" d="M103.4,53.9c0.7-0.1,1.5,0,2.1,0.5c0.6,0.5,0.1,0.4-0.2,0.5c-0.6,0.2-1.4,0-2-0.4
		C102.9,54.2,103,54,103.4,53.9z"/>
	<path class="st2" d="M109,44.6c-0.7,0-0.9,0.8,0,0.8C110,45.4,109.4,44.6,109,44.6z"/>
	<path class="st2" d="M110.1,45c-0.3-0.1-0.9,0.1-1.2,0.3c-0.3,0.2-0.2,0.4,0.1,0.4c0.4,0.1,0.8-0.1,1.1-0.3
		C110.4,45.1,110.4,45,110.1,45z"/>
	<path class="st2" d="M107.9,44.3c-0.3,0-0.7,0.3-0.9,0.6c-0.1,0.3-0.1,0.6,0.4,0.6c0.4,0,0.7-0.3,0.9-0.6
		C108.4,44.5,108.1,44.3,107.9,44.3z"/>
	<path class="st2" d="M108.7,44.9c-0.3-0.1-0.9,0-1.1,0.2c-0.2,0.2-0.3,0.4,0.2,0.5c0.4,0.1,0.8,0,1.1-0.3
		C109,45.2,108.9,44.9,108.7,44.9z"/>
	<path class="st2" d="M108.9,44.5c-0.2-0.2-0.8-0.4-1.1-0.3c-0.3,0.1-0.4,0.1-0.1,0.4c0.3,0.3,0.7,0.3,1.1,0.2
		C109.1,44.8,109,44.7,108.9,44.5z"/>
	<path class="st2" d="M110,44.7c-0.2-0.3-0.7-0.5-1-0.5c-0.3,0-0.4,0.1-0.1,0.4c0.2,0.3,0.6,0.5,1,0.4C110.1,45,110.1,44.9,110,44.7
		z"/>
	<path class="st2" d="M105.4,45c0.4-0.6,1.1-0.9,1.9-0.9c0.8,0,0.3,0.3,0.2,0.5c-0.3,0.5-0.9,0.8-1.6,0.8
		C105.2,45.4,105.2,45.2,105.4,45z"/>
	<path class="st2" d="M104,45.8c0.1-0.7,0.6-1.3,1.3-1.7c0.7-0.4,0.4,0.1,0.4,0.4c-0.1,0.6-0.5,1.1-1.1,1.4
		C104,46.2,104,46.1,104,45.8z"/>
	<path class="st2" d="M102.5,46.9c0-0.7,0.5-1.7,1.1-2c0.7-0.4,0.8-0.4,0.7,0.2c-0.1,0.6-0.7,1.4-1.3,1.9
		C102.6,47.3,102.5,47.2,102.5,46.9z"/>
	<path class="st2" d="M103.9,46.1c0.6-0.4,1.4-0.4,2.1-0.2c0.7,0.3,0.2,0.4,0,0.5c-0.5,0.3-1.1,0.4-1.8,0.1
		C103.6,46.4,103.7,46.3,103.9,46.1z"/>
	<path class="st2" d="M105.8,45.6c0.5-0.4,1.3-0.5,2.1-0.3c0.7,0.2,0.2,0.4,0,0.5c-0.5,0.4-1.1,0.4-1.8,0.3
		C105.5,45.9,105.5,45.8,105.8,45.6z"/>
	<path class="st2" d="M104.7,45.6c0.4-0.6,1.8-1,2.5-1c0.8,0,0.3,0.3,0.1,0.5c-0.4,0.5-1.5,0.9-2.3,0.9
		C104.5,46,104.5,45.9,104.7,45.6z"/>
	<path class="st2" d="M102.6,47.4c0.5-0.5,1.3-0.7,2.1-0.5c0.8,0.2,0.2,0.4,0,0.6c-0.5,0.4-1.1,0.5-1.8,0.4
		C102.4,47.7,102.4,47.6,102.6,47.4z"/>
	<path class="st2" d="M102.2,47.4c0.3-0.7,1.3-1.6,2.1-1.8c0.8-0.2,0.6,0.3,0.4,0.6c-0.3,0.6-1.2,1.3-2,1.5
		C102.1,47.9,102.1,47.7,102.2,47.4z"/>
	<path class="st2" d="M101.2,48.8c-0.3-0.7-0.1-1.7,0.3-2.3c0.4-0.6,0.7-0.5,0.8,0.3c0.1,0.6,0,1.2-0.4,1.9
		C101.7,49.2,101.3,49.1,101.2,48.8z"/>
	<path class="st2" d="M102.2,49.7c0.4,0.5,0.5,1.3,0.3,2.1c-0.2,0.7-0.4,0.2-0.5,0c-0.4-0.5-0.4-1.1-0.3-1.8
		C101.9,49.4,102,49.4,102.2,49.7z"/>
	<path class="st2" d="M101.5,49.7c0.1-0.7,0.7-1.7,1.3-2.1c0.7-0.4,0.6,0.1,0.5,0.4c-0.1,0.6-0.7,1.4-1.3,1.8
		C101.5,50.1,101.5,50,101.5,49.7z"/>
	<path class="st2" d="M101.4,49.8c-0.2-0.7,0.2-1.9,0.7-2.5c0.5-0.6,0.6,0,0.6,0.2c0.1,0.6-0.3,1.6-0.7,2.2
		C101.6,50.2,101.5,50.1,101.4,49.8z"/>
	<path class="st2" d="M100.9,48.3c0.5,0.5,0.7,1.5,0.6,2.3c-0.1,0.8-0.3,0.2-0.5,0.1c-0.4-0.4-0.6-1.3-0.5-2
		C100.6,48.1,100.7,48.1,100.9,48.3z"/>
	<path class="st2" d="M100.7,50.1c0.6,0.4,1,1.3,1,2.1c0,0.8-0.3,0.3-0.5,0.2c-0.5-0.4-0.8-1.1-0.9-1.9
		C100.3,49.9,100.5,49.9,100.7,50.1z"/>
	<path class="st2" d="M103.1,52.4c0.6,0.4,0.9,1,0.9,1.8c0,0.8-0.5,0.4-0.7,0.2c-0.5-0.4-0.9-0.8-0.9-1.6
		C102.5,52.3,102.9,52.2,103.1,52.4z"/>
	<path class="st2" d="M100.4,51.9c0.7,0,1.5,0.4,2,1c0.5,0.6,0,0.4-0.3,0.4c-0.6,0-1.3-0.4-1.7-0.9C100,52,100.1,51.9,100.4,51.9z"
		/>
	<path class="st2" d="M103.5,49.2c0,0.8-0.5,1.5-1.2,1.9c-0.7,0.5-0.5-0.1-0.4-0.3c0-0.6,0.4-1.2,1-1.7
		C103.4,48.7,103.5,48.9,103.5,49.2z"/>
	<path class="st2" d="M102.4,53.2c-0.4-0.6-0.4-1.6-0.1-2.3c0.3-0.7,0.4-0.2,0.5,0c0.3,0.5,0.3,1.4,0,2
		C102.7,53.5,102.5,53.5,102.4,53.2z"/>
	<path class="st2" d="M102.1,49c0.3,0.6,0.3,1.4-0.1,2.1c-0.3,0.7-0.4,0.1-0.5-0.1c-0.3-0.5-0.2-1.2,0.1-1.8
		C101.8,48.6,101.9,48.7,102.1,49z"/>
	<path class="st2" d="M102.1,53.1c-0.5-0.5-0.8-1.4-0.7-2.2c0.1-0.8,0.3-0.3,0.5-0.1c0.4,0.4,0.7,1.2,0.6,1.9
		C102.4,53.4,102.3,53.3,102.1,53.1z"/>
	<path class="st2" d="M101.5,53.3c0.7-0.2,1.8,0.2,2.4,0.7c0.6,0.5,0.1,0.5-0.3,0.5c-0.6,0.1-1.5-0.2-2-0.7
		C101.1,53.5,101.2,53.4,101.5,53.3z"/>
	<path class="st2" d="M104.5,53.6c0.7,0,1.5,0.4,2,1c0.5,0.6,0,0.4-0.3,0.4c-0.6,0-1.4-0.3-1.8-0.9C104,53.7,104.1,53.6,104.5,53.6z
		"/>
	<path class="st2" d="M103.4,54.7c0.6-0.3,1.5-0.4,2.2-0.2c0.7,0.2,0.2,0.4,0,0.5c-0.5,0.3-1.3,0.4-2,0.2
		C102.9,55.1,103,54.9,103.4,54.7z"/>
	<path class="st2" d="M103.9,52.5c0.5,0.5,0.9,1.2,0.9,2s-0.3,0.3-0.5,0.2c-0.5-0.4-0.8-1.1-0.9-1.9
		C103.4,52.2,103.5,52.2,103.9,52.5z"/>
	<path class="st2" d="M104.5,55.4c0.5-0.5,1.2-0.9,2-0.9c0.8,0,0.3,0.3,0.2,0.5c-0.4,0.5-1.1,0.8-1.9,0.9
		C104.2,55.9,104.2,55.7,104.5,55.4z"/>
	<path class="st2" d="M106.6,55c-0.6,0.3-1.5,0.3-2.2-0.1c-0.7-0.3-0.2-0.4,0.1-0.5c0.5-0.3,1.4-0.3,2,0C107,54.7,107,54.8,106.6,55
		z"/>
	<path class="st2" d="M109.9,44.3c0.6-0.2,1.3,0.1,1.8,0.5c0.5,0.4,0,0.4-0.2,0.4c-0.5,0.1-1,0-1.5-0.4
		C109.6,44.5,109.7,44.4,109.9,44.3z"/>
	<path class="st2" d="M112.2,44.5c0.4,0.2,0.8,0.5,1.2,1.2c0.2,0.5,0.1,0.6-0.4,0.3c-0.5-0.2-0.9-0.5-1.3-1.1
		C111.2,44,111.5,44.2,112.2,44.5z"/>
	<path class="st2" d="M111.8,45.8c0.4-0.2,0.9-0.4,1.7-0.2c0.5,0.1,0.5,0.3,0,0.5c-0.5,0.2-0.9,0.4-1.5,0.3
		C110.9,46.3,111.2,46.1,111.8,45.8z"/>
	<path class="st2" d="M109.8,45.6c0.5-0.4,1.2-0.5,1.8-0.3c0.7,0.2,0.2,0.3,0,0.5c-0.4,0.3-0.9,0.4-1.6,0.3
		C109.6,45.9,109.6,45.8,109.8,45.6z"/>
	<path class="st2" d="M110,45c0.6-0.3,1.4-0.1,2,0.3c0.6,0.4,0.1,0.4-0.1,0.5c-0.5,0.2-1.1,0.1-1.7-0.2
		C109.7,45.2,109.8,45.1,110,45z"/>
	<path class="st2" d="M113.7,44.8c0.4,0.2,0.8,0.5,1.1,1.2c0.2,0.5,0,0.6-0.5,0.3c-0.5-0.3-0.9-0.5-1.2-1.1
		C112.7,44.4,113.1,44.5,113.7,44.8z"/>
	<path class="st2" d="M113.1,45.4c0.5,0.1,1,0.2,1.5,0.8c0.4,0.4,0.2,0.6-0.3,0.5c-0.5-0.1-1-0.2-1.5-0.7
		C111.9,45.3,112.4,45.3,113.1,45.4z"/>
	<path class="st2" d="M114.6,47c0.5,0.2,0.9,0.5,1.3,1.2c0.2,0.5,0,0.6-0.5,0.4c-0.5-0.2-1-0.5-1.3-1.1
		C113.5,46.6,113.9,46.7,114.6,47z"/>
	<path class="st2" d="M113.3,46.4c0.5-0.1,1-0.1,1.7,0.2c0.5,0.2,0.4,0.5-0.1,0.6c-0.5,0.1-1,0.2-1.6,0
		C112.2,46.7,112.6,46.6,113.3,46.4z"/>
	<path class="st2" d="M115.6,45.9c0.3,0.4,0.6,0.9,0.6,1.6c0,0.5-0.3,0.6-0.6,0.1c-0.3-0.4-0.6-0.9-0.7-1.6
		C114.8,44.9,115.1,45.3,115.6,45.9z"/>
	<path class="st2" d="M115.2,46.5c0.4,0.3,0.9,0.8,1.1,1.5c0.2,0.5-0.1,0.6-0.5,0.3c-0.4-0.3-0.9-0.8-1.2-1.4
		C114.1,45.8,114.6,46.1,115.2,46.5z"/>
	<path class="st2" d="M115.8,48.8c0.3,0.4,0.5,1.2,0.4,1.9c0,0.5-0.3,0.5-0.6,0.1c-0.3-0.5-0.6-1.1-0.6-1.8
		C115,47.9,115.4,48.2,115.8,48.8z"/>
	<path class="st2" d="M116.9,47.2c0.2,0.4,0.3,1.1,0.2,1.9c-0.1,0.5-0.4,0.5-0.6,0c-0.2-0.5-0.4-1.2-0.3-1.8
		C116.3,46.1,116.5,46.5,116.9,47.2z"/>
	<path class="st2" d="M117.5,49.3c0,0.5-0.1,1.2-0.6,1.8c-0.3,0.4-0.5,0.3-0.5-0.3c0-0.5,0.1-1.2,0.4-1.8
		C117.4,48.1,117.4,48.6,117.5,49.3z"/>
	<path class="st2" d="M116.7,48.9c0.2,0.5,0.4,1.3,0.1,2.1c-0.2,0.6-0.5,0.5-0.7,0c-0.2-0.6-0.4-1.3-0.3-2.1
		C116,47.7,116.3,48.1,116.7,48.9z"/>
	<path class="st2" d="M117.6,51.2c-0.1,0.5-0.4,1.1-1,1.6c-0.4,0.4-0.6,0.1-0.5-0.4c0.1-0.5,0.4-1.2,0.8-1.7
		C117.8,49.9,117.8,50.4,117.6,51.2z"/>
	<path class="st2" d="M115.8,51c0.2,0.5,0.3,1.1,0,1.9c-0.2,0.5-0.4,0.4-0.6-0.1c-0.2-0.5-0.3-1.2-0.2-1.9
		C115.3,49.9,115.6,50.3,115.8,51z"/>
	<path class="st2" d="M116.8,51.2c0,0.5-0.1,1.2-0.6,1.8c-0.3,0.4-0.5,0.3-0.5-0.3c0-0.5,0.1-1.2,0.4-1.8
		C116.6,49.9,116.7,50.4,116.8,51.2z"/>
	<path class="st2" d="M117.3,52.4c-0.2,0.4-0.6,0.8-1.2,1c-0.4,0.2-0.5-0.1-0.3-0.4c0.3-0.4,0.6-0.8,1.2-1.1
		C117.8,51.5,117.6,51.9,117.3,52.4z"/>
	<path class="st2" d="M116,54.5c-0.4,0.1-1,0.1-1.6-0.1c-0.4-0.2-0.3-0.4,0.1-0.5c0.4-0.1,1-0.2,1.6,0C117,54.2,116.7,54.3,116,54.5
		z"/>
	<path class="st2" d="M116.2,54c-0.4,0.3-1.1,0.6-1.9,0.6c-0.6,0-0.6-0.3-0.1-0.6c0.5-0.3,1.1-0.7,1.9-0.8
		C117.2,53.1,116.8,53.4,116.2,54z"/>
	<path class="st2" d="M115,53.1c-0.2,0.4-0.7,0.9-1.4,1.2c-0.5,0.2-0.6,0-0.3-0.5c0.3-0.5,0.7-1,1.3-1.3
		C115.6,52,115.4,52.4,115,53.1z"/>
	<path class="st2" d="M115.5,53.5c-0.3,0.4-0.8,0.8-1.6,1c-0.5,0.1-0.6-0.1-0.3-0.6c0.3-0.4,0.9-0.9,1.5-1.1
		C116.2,52.5,116,52.9,115.5,53.5z"/>
	<path class="st2" d="M113.3,54.4c-0.4,0.4-1,0.7-1.9,0.8c-0.6,0-0.6-0.3-0.2-0.6c0.5-0.4,1.1-0.8,1.8-0.9
		C114.2,53.5,113.9,53.9,113.3,54.4z"/>
	<path class="st2" d="M114.5,55.2c-0.5,0.2-1.2,0.2-2-0.1c-0.6-0.2-0.4-0.5,0.1-0.6c0.6-0.1,1.3-0.2,2,0
		C115.8,54.8,115.4,55,114.5,55.2z"/>
	<path class="st2" d="M113.7,55.7c-0.5,0.2-1.2,0.2-2-0.1c-0.6-0.2-0.4-0.5,0.1-0.6c0.6-0.1,1.3-0.2,2,0
		C115,55.2,114.5,55.4,113.7,55.7z"/>
	<path class="st2" d="M112.6,55.2c-0.5,0.3-1.3,0.5-2.2,0.4c-0.6-0.1-0.6-0.4,0-0.7c0.6-0.3,1.3-0.6,2.1-0.5
		C113.8,54.4,113.4,54.8,112.6,55.2z"/>
	<path class="st3" d="M115.9,98.5c-0.1,0-0.2-0.1-0.3-0.1c0.8-2.1,0.6-3.2-0.4-2.8c0.2-0.1,0.4-0.1,0.6-0.2
		C116.6,95.3,116.6,96.7,115.9,98.5z"/>
	<path class="st3" d="M116.2,98.6c0.1,0,0.2,0,0.3,0.1c0.5-1.1,0.9-2.5,0.5-3.1c-0.2-0.1-0.4-0.2-0.6-0.2
		C117,95.6,116.8,97.1,116.2,98.6z"/>
	<path class="st1" d="M116.2,98.6c-0.1,0-0.2,0-0.3-0.1c0.7-1.8,0.7-3.2-0.1-3.1c0.2,0,0.4,0,0.5,0C117,95.6,116.8,97.1,116.2,98.6z
		"/>
	<path class="st3" d="M102.3,99c0.1,0,0.1-0.1,0.2-0.1c-1.1-1.9,0.2-3,0.7-2.6c-0.2-0.2-0.3-0.3-0.5-0.4C102,96,101.3,97.3,102.3,99
		z"/>
	<path class="st1" d="M102.2,95.7c-0.7,0.5-1.3,1.6-0.2,3.4c0.1,0,0.2-0.1,0.3-0.1c-1-1.7-0.3-2.9,0.4-3
		C102.5,95.8,102.3,95.8,102.2,95.7z"/>
	<path class="st3" d="M102,99.1c-0.1,0-0.1,0.1-0.2,0.1c-1.2-1.5-0.8-2.7-0.1-3.4c0.1,0,0.3-0.1,0.5,0
		C101.5,96.3,100.9,97.4,102,99.1z"/>
	<path class="st4" d="M109.2,91.6c1.7-2.9,6.4-4.1,9.4-4.1c2.9,0,6.5-2.2,6.4-5.6c-0.1-4.5-2.8-7.6-2.8-10.2c0-2,1.3-5,4.3-7.7
		c-2.6-1.8-3.6-4.5-4.6-7.3c-5.6,2.3-9.7,1.6-12.7-0.5c-3,2.1-7.1,2.8-12.7,0.5c-1,2.8-2.1,5.5-4.6,7.3c3,2.7,4.3,5.7,4.3,7.7
		c0,2.6-2.7,5.7-2.8,10.2c0,3.4,3.5,5.6,6.4,5.6C102.8,87.6,107.5,88.7,109.2,91.6z"/>
	<path class="st3" d="M121.2,72.1c0.1,1.2,0.6,2.4,1.2,3.8c0.7,1.7,1.6,3.7,1.6,6c0,1.3-0.6,2.2-1.2,2.8c-1,1.1-2.7,1.7-4.2,1.7
		c-1.8,0-3.8,0.4-5.5,1c-1.6,0.6-2.9,1.4-3.8,2.4c-0.9-1-2.2-1.8-3.8-2.4c-1.7-0.6-3.8-1-5.5-1c-1.5,0-3.1-0.7-4.2-1.7
		c-0.5-0.6-1.2-1.5-1.2-2.8c0-2.3,0.9-4.3,1.6-6c0.6-1.3,1.1-2.5,1.2-3.8H121.2z"/>
	<path class="st5" d="M97.3,71c-0.1-1-0.5-2.1-1.1-3.3c-0.6-1.2-1.5-2.4-2.6-3.5c1.9-1.7,2.9-4,3.6-6c2.4,0.9,4.7,1.2,6.8,1.1
		c1.7-0.1,3.3-0.6,4.7-1.4V71H97.3z"/>
	<path class="st1" d="M121.2,71c0.1-1,0.5-2.1,1.1-3.3c0.6-1.2,1.5-2.4,2.6-3.5c-1.9-1.7-2.9-4-3.6-6c-2.4,0.9-4.7,1.2-6.8,1.1
		c-1.7-0.1-3.3-0.6-4.7-1.4V71H121.2z"/>
	<path class="st2" d="M117.2,93.5c1.4-0.2,3.1-0.7,3.9-1.3c0.3-0.2,0.5-0.4,0.7-0.8s0.6-0.4,0.7,0s0.1,0.7,0.4,1
		c0.3,0.3,0.3,0.9-0.4,0.7c-0.7-0.2-1.1-0.1-1.7,0.3c-0.6,0.4-2.7,1.4-4.9,1.1L117.2,93.5z"/>
	<path class="st6" d="M118.6,93.8c0.6-0.1,2-0.8,2.4-0.9"/>
	<path class="st6" d="M122,91.6c-0.1,0.3-0.1,0.3,0,0.4c0.1,0.1,0.2,0.2,0.1,0.3c0,0.1,0.1,0.2,0.3,0.3"/>
	<path class="st1" d="M111.5,94.1c0.9-0.3,1.7-0.5,2.2-0.7c0.6-0.2,2.3-0.5,3.1-0.2C116.3,94,113,94.4,111.5,94.1z"/>
	<path class="st2" d="M120.1,98.1c-3-1.2-8.4-3.4-10.2-4.2c0,0.4,0,0.8,0.1,1c0,0,0,0,0,0.1c1.9,0.8,6.8,2.7,10,4.1
		C120.6,99.4,121,98.5,120.1,98.1z"/>
	<path class="st2" d="M107.7,94.3c-3,1.4-9.6,4.4-10.7,4.9c-0.9,0.4-0.7,1.5,0.1,1.1c2.9-1.3,8.9-4.2,10.7-5.1
		c0-0.1-0.1-0.1-0.1-0.2C107.7,94.7,107.7,94.5,107.7,94.3z"/>
	<path class="st6" d="M120.1,98.1c-0.4-0.2-0.6,0.8,0,1"/>
	<path class="st6" d="M97.1,99.2c0.6-0.2,0.7,0.9,0.1,1.1"/>
	<path class="st3" d="M108.6,95.4c-0.9,2.2-3.3,3.1-4.5,1.4c-0.7-1-1.9-1.5-2.3-1.2c-0.1,0-0.1,0.1-0.1,0.1c0.9-0.3,1.5,0.7,2,1.2
		c1.4,1.4,3.6,1.6,5.1-1.5C108.8,95.5,108.7,95.4,108.6,95.4C108.6,95.4,108.6,95.4,108.6,95.4z"/>
	<path class="st2" d="M86.9,65.6c1.7-3,3.7-6.9,4.1-7.8c-0.9,0.9-1.5,1.4-2,2.2c1.7-3.3,2.6-5.2,3.2-6.8c-1.5,2.4-2.8,4.6-3.7,5.6
		c1.2-3.2,3.3-7.1,4-7.8c-1,1-1.8,2.1-2.1,2.7c0.3-0.7,0.6-1.7,0.9-2.1c-1.5,2.2-2.9,4.6-3.2,5.3c0.2-1.6,0.3-4.1,0.4-5.1
		c-0.7,2.8-1.2,5.1-1.4,6.1c0-1.4,0.1-3.6,0.2-4.4c-0.5,1.9-1.2,6-1.3,7.2c0-1.2-0.3-3-0.2-4c-0.3,1.2-0.3,2.8-0.3,3.2
		c0-0.6-0.3-1.5-0.2-2.2c-0.4,2.6-0.6,4.3-0.7,4.9c-0.2-1.5-0.7-3.4-1-4.2c0.3,3.1-0.1,6.6,0.9,12.5c-1.1-1.9-3-6.4-3.2-8.2
		c0,4.6,2.3,9.4,3.4,11.4c-1.9-2.6-4-6.3-4.8-8.2c1.6,5,3.9,9.7,5,11.7c-2.1-2.3-4.1-4.8-5.3-6.7c1.2,2.5,3.4,6.4,4.1,7.5
		c-0.8-0.8-1.8-1.9-2.6-3.1c2.1,3.9,5.2,7.9,6.5,9.5c-3-2.3-6.1-6.2-7.7-7.8c2.5,3.6,5.4,7,6.7,8.4c-2-1.5-3.4-2.6-4.5-3.8
		c2.8,3.3,5.8,6,7.7,7.6c-3.4-2.1-5.9-3.6-7.3-4.9c3.7,3.7,7.8,6.5,10.3,7.7c-3.1-1-4.9-1.5-7-2.4c2.2,1.6,5.4,3.3,7.1,3.9
		c-1.1-0.1-2.5-0.1-3.6-0.5c4.9,1.7,10.7,2.9,15.4,1.8L103,94c-4.1,0.8-7.7,1.5-10.2-7.4c-0.1,0.7-0.3,3.1-0.2,3.6
		c-0.5-2.4-0.9-6-0.9-7.7c-0.4,1.5-0.9,4-0.8,5c-0.4-2.9-0.4-6-0.3-8c-0.5,2.1-1.2,5.3-1.3,7c-0.7-3.3,0.5-9.4,0.9-12.1
		c-1.1,3.4-1.8,6-2.4,8.8c-0.4-3.5,1-9.6,1.6-11.8c-1.1,2.8-2.4,6.9-2.6,8.2c0.1-3.2,2.1-10.1,2.9-11.7c-1.5,2.1-2.3,3.6-2.9,5.2
		c0.5-2.4,2.4-6.7,3.1-7.9c-1.7,2.2-2.6,3.7-3.1,4.9c0.2-0.5,0.3-1.1,0.5-1.6c-0.4,0.5-1,1.6-1.3,2.4c1.1-3.3,3.1-7.1,4.1-8.9
		C89.1,63,87.5,64.8,86.9,65.6z"/>
	<path class="st3" d="M104.3,96.5c1.3,1.4,2.9,0.6,4-1.1c-0.1,0-0.1-0.1-0.2-0.1c-0.9,1.5-2.4,2.1-3.4,1c-0.8-0.9-1.6-1.1-2.2-1
		C102.8,95.2,103.4,95.5,104.3,96.5z"/>
	<path class="st1" d="M104.1,96.8c1.2,1.6,3.5,0.7,4.5-1.4c-0.1,0-0.2,0.1-0.4,0c-1.1,1.6-2.7,2.5-4,1.1c-0.9-1-1.6-1.3-2-1.1
		c-0.1,0.1-0.3,0.1-0.4,0.2C102.3,95.3,103.4,95.9,104.1,96.8z"/>
	<path class="st3" d="M113.3,96.2c1-0.8,2.3-1.5,3.1-1.1c-0.9-0.6-2-0.2-3.3,0.9c-1.3,1-2.4,1-3.4-0.5c-0.1,0-0.1,0.1-0.2,0.1
		C110.5,97.4,111.9,97.4,113.3,96.2z"/>
	<path class="st3" d="M116.8,95.4c-0.9-0.5-2.4,0.3-3.3,1.1c-1.5,1.3-3.2,1.4-4.2-0.9c-0.1,0-0.2,0-0.2,0c0.9,2.8,3,2.6,4.6,1.1
		c0.7-0.7,2.3-1.7,3.3-1.1C116.9,95.5,116.8,95.4,116.8,95.4z"/>
	<path class="st1" d="M113.3,96.2c-1.4,1.2-2.8,1.2-3.7-0.7c-0.1,0-0.2,0-0.2,0.1c1,2.3,2.7,2.2,4.2,0.9c0.9-0.7,2.4-1.6,3.3-1.1
		c-0.1-0.1-0.2-0.2-0.3-0.3C115.5,94.7,114.3,95.3,113.3,96.2z"/>
	<path class="st3" d="M117.3,93.7C117.3,93.7,117.3,93.7,117.3,93.7C117.3,93.6,117.3,93.6,117.3,93.7
		C117.3,93.6,117.3,93.6,117.3,93.7c0-0.2-0.1-0.2-0.1-0.3c0,0,0,0,0,0c0,0,0,0,0,0c0,0,0,0,0,0c0,0,0,0,0,0c0,0,0,0-0.1,0
		c0,0,0,0,0,0c0,0,0,0,0,0c0,0,0,0,0,0c0,0,0,0,0,0c-0.6,0.7-3.8,1.2-5.4,0.9c-0.5,0.1-1,0.3-1.5,0.4c0,0.1,0,0.2,0.1,0.3
		c0.7-0.1,3.3,0,4.1,0C115,94.8,117.3,94.7,117.3,93.7C117.3,93.7,117.3,93.7,117.3,93.7z"/>
	<path class="st3" d="M109.9,94.3c0,0.1,0,0.2,0,0.3c0,0,0,0,0.1,0c1.3-0.3,2.9-0.8,3.7-1.1c0.6-0.2,2.3-0.5,3.1-0.2c0,0,0,0,0,0
		c0.1,0.1,0.2,0.1,0.2,0.1c0,0,0,0,0,0c0,0,0,0,0,0c0,0,0,0,0,0c0,0,0,0,0,0c0.1,0.1,0.1,0.1,0.1,0.2c0,0,0,0,0,0c0,0,0,0.1,0,0.1
		c0-0.3-0.1-0.6-0.2-0.8C115.3,91.9,111.9,93.4,109.9,94.3z"/>
	<path class="st3" d="M117.1,92.1c0-0.2,0-0.5,0.1-0.6c0.1-0.3-0.2-0.6-0.6-0.7c-1.5-0.4-3.1,0.4-3.9,1c-0.7,0.6-1.7,1.1-2.6,1.4
		c-0.1,0.1-0.1,0.3-0.1,0.6C112,93.3,115.2,90.8,117.1,92.1z"/>
	<path class="st1" d="M110,93.8c0,0.1,0,0.3,0,0.5c2-0.8,5.4-2.3,7.2-1.3c0-0.1-0.1-0.3-0.1-0.4c0-0.1,0-0.3,0-0.5
		C115.2,90.8,112,93.3,110,93.8z"/>
	<path class="st3" d="M107.2,93.9c-1.7,1.1-6.6,0.6-5.7-0.3c-0.2,0.2-0.3,0.4-0.3,0.6c0,1.4,4.8,1,6.5,0.4c0-0.1,0-0.3,0-0.4
		C107.6,94.1,107.4,94,107.2,93.9z"/>
	<path class="st1" d="M101.6,93.6c-0.9,0.9,3.9,1.5,5.7,0.3C105.2,93,102.5,92.8,101.6,93.6z"/>
	<path class="st3" d="M103.3,91.5c1.4,0,2.9,0.6,4.4,1.7c0-0.1,0.1-0.2,0.2-0.2c-2.5-2.6-4.8-2.7-6.6-2c-0.7,0.3-0.9,0.6-0.4,1.1
		C101.6,91.7,102.5,91.5,103.3,91.5z"/>
	<path class="st1" d="M107.8,93.7c0-0.1,0-0.2,0-0.3c0-0.1,0-0.2,0-0.2c-2.5-1.9-5-2.2-6.8-1.1c0.2,0.2,0.2,0.5,0.2,1
		C102.9,92,104.6,92.2,107.8,93.7z"/>
	<path class="st3" d="M104.7,93.2c0,0,0.1,0,0.2,0c1,0.2,2,0.5,2.9,1c0,0,0,0,0,0c0-0.1,0-0.3,0-0.5c-3.2-1.5-4.9-1.7-6.6-0.6
		c0,0.4,0,0.8,0,1.1C101.2,93.3,102.9,92.9,104.7,93.2z"/>
	<path class="st3" d="M109.7,95.4c0.2-0.1,0.3-0.3,0.4-0.4c-0.3-0.4-0.2-1.6,0-1.8c-0.1-0.2-0.3-0.2-0.4-0.2
		C109.5,93.3,109.3,94.8,109.7,95.4z"/>
	<path class="st1" d="M109.1,95.5c0.2,0,0.4,0,0.6-0.1c-0.4-0.6-0.2-2.1,0-2.5c-0.2,0-0.3,0-0.4,0.1c-0.1,0-0.1,0.1-0.2,0.1
		C108.8,93.6,108.7,94.8,109.1,95.5z"/>
	<path class="st3" d="M109.1,95.5c-0.2,0-0.3-0.1-0.5-0.2c-0.3,0.1-0.6,0.1-0.8-0.4c-0.1-0.3-0.1-0.5,0-0.8l0,0c0-0.2,0.1-0.4,0-0.7
		c-0.1-0.6,0.4-0.7,0.9-0.3c0.2,0.1,0.3,0.1,0.5,0.1C108.8,93.6,108.7,94.8,109.1,95.5z"/>
	<path class="st6" d="M108.6,95.4c-0.3-0.1-0.4-0.8-0.1-1.2"/>
	<path class="st2" d="M129.4,92.3c-2.1,0.8-3.5,0.1-5.7-0.6c-0.3,0.1-0.5,0.2-0.7,0.2c1.2,0,1.7,0.5,2.8,1.1
		c2.7,1.3,4.1-0.1,5.1-0.1C130.5,92.9,130,92.6,129.4,92.3z"/>
	<path class="st2" d="M127.8,90.6c1.6-0.7,1.9-1.3,2.6-2.4c0.7-1.1-0.1-0.7-0.5-0.5c-0.4,0.2-1,0.1-1.9,0.2
		c-1.5,0.1-3.4,1.8-5.4,4.1c0,0.1,0.1,0.2,0.1,0.2C123.7,91.5,126.2,91.2,127.8,90.6z"/>
	<path class="st2" d="M127.8,87.9c0.3-0.5,0.5-1.1,0.4-1.8c-0.9,0.4-1.5,0.8-1.9,1.3c-0.1,0.4-0.1,0.8-0.3,1.3
		C126.7,88.2,127.3,87.9,127.8,87.9z"/>
	<path class="st2" d="M126,88.7c0.3-1.1,0.4-2.1,0.3-2.7c-0.2,0.5-2.4,2-3.2,5.4C124.1,90.2,125.1,89.3,126,88.7z"/>
	<path class="st2" d="M129.6,89.3c-0.3,0.3-0.6,0.6-1.1,0.9c0.5,0,1.1,0.1,1.6,0.1c0.4-0.4,0.6-0.9,1.1-1.3
		C130.8,89.3,130.2,89.3,129.6,89.3z"/>
	<path class="st2" d="M128.5,90.2c-0.2,0.1-0.4,0.2-0.7,0.3c-1.1,0.5-2.8,0.8-4.1,1.2c2.9,0.9,4.6,1.8,8.3-0.9
		C130.8,90.4,129.6,90.2,128.5,90.2z"/>
	<path class="st2" d="M132.6,81.9C132.6,81.9,132.6,81.9,132.6,81.9c0-0.1,0-0.2,0-0.4c-0.4-0.9-1.3-1.2-2.5-2.3
		c-0.4-0.4-0.6-0.7-0.8-1.1c-0.5-0.3-1.1-0.6-1.5-0.7c0.2,0.7,0.7,1.8,1.4,2.6C130.1,80.8,131.5,80.4,132.6,81.9z"/>
	<path class="st2" d="M135.7,75c-0.5,0.4-1.1,1-1.4,1.7c0,0.6,0,1.1,0,1.6c0,0,0,0,0.1,0c0.3-0.5,0.7-0.9,1.2-1.2
		C135.6,76.4,135.3,75.6,135.7,75z"/>
	<path class="st2" d="M132.2,76.4c-0.3-0.7-0.9-1.3-1-1.8c-0.2,0.6-0.3,1.2-0.3,1.8c0.5,0.5,0.9,1,1.2,1.6
		C132,77.6,132,77,132.2,76.4z"/>
	<path class="st2" d="M134.2,78.4c-0.1,0.6-0.2,1.1-0.4,1.5c-0.4,0.8-0.6,1.3-0.7,1.7c0,0.2-0.1,0.3-0.1,0.5c0,0.2-0.1,0.5-0.1,0.8
		c0,0,0,0.1,0,0.1c1-1.5,2.2-1.7,3.1-3c1.5-2.5,1.2-3.6,1.6-4.4C136.5,76.4,135,77.1,134.2,78.4z"/>
	<path class="st2" d="M132.5,80.4c-0.2-0.7-0.4-1.5-0.5-2.3c-0.8-1.5-2.1-2.7-3.6-3.2c1,1.6,0.4,3.2,1.8,4.3
		c1.3,1.1,2.2,1.4,2.5,2.4C132.7,81.2,132.6,80.8,132.5,80.4z"/>
	<path class="st2" d="M136.8,78c-0.2,0.6-0.5,1.2-1,2c-0.8,1.3-2.1,1.5-3.1,3c0,0,0-0.1,0-0.1c0,0,0,0,0,0c0,0.1,0,0.2-0.1,0.3
		c0.5-0.7,1.3-1.1,1.9-1.4c0.7-0.3,2.7-1.4,3-4.6C137.4,77.5,137.2,77.7,136.8,78z"/>
	<path class="st2" d="M132.6,81.9c-0.3-0.5-0.7-0.8-1.1-1c0.1,0.6,0.4,1,1.1,1.4C132.6,82.2,132.6,82,132.6,81.9z"/>
	<path class="st2" d="M133.1,74.3c-1.6,2.6-1,4.6-0.5,6.1c0.5,1.6-0.5,4.2-0.9,4.8c-0.4,0.5-0.5,1.1-1.2,2.2c0.3-0.1,0.4,0,0.1,0.5
		c0.8-0.7,1.1-2.1,1.5-2.7c0.3-0.4,0.6-1.5,0.8-2.3c0,0,0,0,0,0c0.1-0.4,0.1-0.7,0.1-0.8c0-0.5,0.2-1.1,0.8-2.2
		c0.6-1.1,0.7-3.2,0.2-5.3C133.8,74.1,133.3,73.8,133.1,74.3z"/>
	<path class="st2" d="M137.1,63.5c-0.9,1.6-2.9,2.4-3.3,4.8c-0.3,2-0.2,2.9,0,3.4c0.2-0.8,0.8-1,1.4-1.3
		C136.9,69.5,137.8,66.6,137.1,63.5z"/>
	<path class="st2" d="M132.1,70c-0.6-0.5-1.4-1.3-2.2-2.8c-0.5-0.1-1.1-0.3-1.5-0.6c1.2,3,2.4,3.6,3.4,3.9c0.5,0.2,0.8,0.3,1.1,0.4
		C132.8,70.6,132.5,70.3,132.1,70z"/>
	<path class="st2" d="M132,66.5c-0.7-0.3-2.4-1.2-2.9-1.6c0.9,3,2.1,4.3,3,5.1c0.9,0.7,1.2,1.2,1.3,1.6c0,0,0,0,0,0
		C133.6,69.7,133.9,67.4,132,66.5z"/>
	<path class="st2" d="M133.8,71.7c-0.2-0.5-0.3-1.4,0-3.4c0.1-0.6,0.3-1,0.5-1.4c-0.1-1.2-0.4-2.6-1.4-3.8c-0.6,1.3-0.8,2.6-0.8,3.6
		c1.7,1,1.4,3.2,1.1,4.9c0,0,0,0,0,0c0,0.6,0,1.9,0,2.5c0.1,0,0.2,0,0.3,0.1C133.8,72.8,133.8,72.1,133.8,71.7
		C133.8,71.6,133.8,71.6,133.8,71.7z"/>
	<path class="st2" d="M128.2,54.6c0-0.5-0.1-1-0.1-1.5c-0.4-0.4-1-0.9-1.6-1.2c0.4,0.6,0.4,1.1,0.5,1.7
		C127.3,53.8,127.8,54.1,128.2,54.6z"/>
	<path class="st2" d="M125.4,54.3c-0.3-0.2-0.7-0.4-1.2-0.7c0.2,0.8,0.5,1.4,0.8,1.9c0.3,0.1,0.5,0.1,0.8,0.1
		C125.7,55.2,125.5,54.8,125.4,54.3z"/>
	<path class="st2" d="M130.6,59.2c0,0.2,0.1,0.3,0.2,0.5c0.1,0.2,0.2,0.4,0.2,0.5c0.5-3.2,0-5.4-0.9-6.4c-0.9-0.9-1.7-1.6-2-2
		c0,0.8,0,1.9,0.1,2.7C129.2,55.6,130.2,57.1,130.6,59.2z"/>
	<path class="st2" d="M126.7,57c-0.4-0.5-0.7-0.9-0.9-1.3c-0.7-0.1-1.2-0.2-1.7-0.4c0.9,1,1.1,2.7,2.7,3.6c1.8,1,2.9,0.9,3.6,1.2
		C129.7,59.1,128.1,58.6,126.7,57z"/>
	<path class="st2" d="M130.6,59.2c-0.6-3-2.5-5-3.7-5.7c-1.2-0.6-2-1.1-2.3-1.5c1,2.3,0.8,3.3,2.2,5c1.5,1.8,3.3,2.2,3.8,3.3
		c0.5,1.2,1.3,3.2,1.8,4.4c0-0.2,0.1-0.4,0.2-0.6C131.6,61.8,130.8,60.2,130.6,59.2z"/>
	<path class="st2" d="M131.3,85.8c0.1-0.1,0.1-0.2,0.2-0.3c-0.2-0.2-0.4-0.5-0.5-0.6c0-0.1,0-0.1,0.1-0.2c0.1-0.1-0.1-0.3-0.2-0.2
		c-0.1,0.1-0.2,0.3-0.3,0.4c-0.1,0.1,0.1,0.3,0.3,0.5S131.2,85.6,131.3,85.8z"/>
	<path class="st2" d="M132.2,84.9c0.2-0.2,0.6-0.4,0.8-0.5c0.2-0.1,0.4,0.2,0.1,0.4c-0.3,0.1-1,0.5-1.2,0.6
		C132.1,85.2,132.2,85,132.2,84.9z"/>
	<path class="st3" d="M133.3,84.2c-0.4-0.1-0.7,0.6-0.1,0.7C133.5,85,133.7,84.3,133.3,84.2z"/>
	<path class="st3" d="M131.2,84.1c-0.4,0-0.6,0.7-0.2,0.7C131.3,84.7,131.5,84.1,131.2,84.1z"/>
	<path class="st3" d="M130.8,84.7c-0.3,0-0.4,0.6,0.1,0.6C131.3,85.3,131.2,84.7,130.8,84.7z"/>
	<path class="st2" d="M133.8,73c0.2-0.3,0.4-0.5,0.6-0.7c0.1-0.2,0.5,0,0.2,0.3c-0.2,0.3-0.7,0.9-0.9,1
		C133.7,73.3,133.8,73.2,133.8,73z"/>
	<path class="st2" d="M133.3,72.8c0,0.2,0,0.4,0,0.5c-0.3-0.2-0.6-0.3-0.7-0.7c-0.1-0.3,0.1-0.4,0.3-0.1
		C133.1,72.7,133.2,72.8,133.3,72.8z"/>
	<path class="st3" d="M132.6,72c0.6,0,0.4,0.7,0,0.7C132.3,72.7,132.1,72,132.6,72z"/>
	<path class="st3" d="M134.7,71.9c0.4,0,0.5,0.7-0.1,0.7C134,72.6,134.2,71.9,134.7,71.9z"/>
	<path class="st2" d="M131.7,62c0.1,0.2,0.2,0.4,0.3,0.6c0.1-0.4,0.3-1,0.4-1.2c0.1-0.2,0.2-0.2,0.3,0c0.2,0.2,0.4,0.1,0.2-0.1
		c-0.2-0.2-0.3-0.3-0.4-0.4c-0.1-0.1-0.2,0.1-0.3,0.2C132.1,61.3,131.7,61.9,131.7,62z"/>
	<path class="st2" d="M131.7,62.9c0.1,0.1,0.2,0.4,0.2,0.5c-0.4-0.3-0.9-0.4-1.2-0.5c-0.3,0-0.3-0.3,0-0.3
		C131.1,62.6,131.3,62.7,131.7,62.9z"/>
	<path class="st3" d="M130.5,62.3c0.5,0,0.5,0.8,0,0.8C130,63,130,62.3,130.5,62.3z"/>
	<path class="st3" d="M132.4,60.6c0.4,0,0.5,0.7,0,0.7C132,61.3,131.9,60.6,132.4,60.6z"/>
	<path class="st3" d="M132.8,61c0.4,0,0.5,0.7,0,0.7C132.5,61.7,132.4,61,132.8,61z"/>
	<path class="st6" d="M90.4,53.7c-0.3,0.6-1.3,2.2-1.7,3.2"/>
	<path class="st6" d="M88.1,56.8c-0.3,0.7-0.5,1.7-0.7,3.2"/>
	<path class="st6" d="M88.5,58.8c-0.2,0.5-0.8,1.8-1.2,2.6"/>
	<path class="st6" d="M87,57.8c-0.1,1.3-0.1,3.1-0.3,4.7"/>
	<path class="st6" d="M86.6,63.8c1.2-1.8,1.8-2.8,2.3-3.7"/>
	<path class="st6" d="M86,60.7c-0.1,1.1,0.1,3.6,0.2,4.8"/>
	<path class="st6" d="M85.4,59.8c-0.1,1.5,0,5.1,0.2,7.2"/>
	<path class="st6" d="M84.5,62.6c0,1.1,0.2,3.7,0.6,5.8"/>
	<path class="st6" d="M86.9,65.6c-0.7,0.9-1.4,2.4-1.6,3.9"/>
	<path class="st6" d="M86.8,70.2c-0.3,0.8-0.7,1.5-1,2.1"/>
	<path class="st6" d="M85.9,70.9c-0.3,0.8-0.4,1.9-0.4,2.6"/>
	<path class="st6" d="M84.5,70.9c0.3,0.6,0.6,1.1,1,1.7"/>
	<path class="st6" d="M86.8,73.2c-0.2,0.6-0.6,2-0.7,2.8"/>
	<path class="st6" d="M84.8,74.1c0.4,0.8,0.9,1.4,1.3,1.9"/>
	<path class="st6" d="M83.7,78.5c0.5,0.8,1.8,2.5,3.6,4.1"/>
	<path class="st6" d="M86.6,85.5c1.1,0.9,2.9,2.1,3.7,2.7"/>
	<path class="st6" d="M90.9,87.6c0,0.6,0.2,1.8,0.7,2.3"/>
	<path class="st6" d="M92.6,90.2c0,0.6,0.3,1.3,0.5,1.7"/>
	<path class="st6" d="M89.7,89.2c0.5,0.5,1.8,1.3,2.7,1.7"/>
	<path class="st6" d="M92.6,92c0.6,0.3,1.5,0.5,2,0.7"/>
	<path class="st6" d="M92.7,93.5c0.9,0.4,3.3,0.7,3.9,0.7"/>
	<path class="st4" d="M106.6,74.2c0.9-0.9,2.5,1.1,2.8,2.5s0.7,2.3,1,2.6c-0.5,0.2-1.2-0.8-1.7-2.2S107.2,74.6,106.6,74.2z"/>
	<path class="st4" d="M108.6,74.9c0.8-0.5,1.6,0.6,2.2,2.4c0.3,0.9,0.6,2.1,0.9,2.3c-0.5,0.4-1.2,0.4-1.6-1.1
		C109.6,77,109.2,76,108.6,74.9z"/>
	<path class="st4" d="M110,75.5c0.8-0.5,1.5,1.3,1.7,2.1c0.2,0.9,0.5,2,0.9,2.3c-0.4,0.4-1,0.4-1.3-0.8
		C110.9,77.9,110.5,76.6,110,75.5z"/>
	<path class="st4" d="M111,76c0.4-0.3,1.2,0.5,1.4,2.2c0.1,0.8,0.3,1.8,0.7,2.1c-0.4,0.4-1.1-0.3-1.4-1.8S111.2,76.4,111,76z"/>
	<path class="st4" d="M112,76.8c0.6-0.5,1,0.2,1.2,1c0.1,0.8,0.4,2.4,0.9,2.9c-0.9,0.4-1.5-0.6-1.7-1.5
		C112.3,78.2,112.3,77.3,112,76.8z"/>
	<path class="st4" d="M113,77.3c0.6,0,0.8,0.8,0.9,1.5c0.1,0.7,0.3,1.8,0.9,2.1c-0.5,0.3-1.2-0.1-1.5-1.5S113.2,77.6,113,77.3z"/>
	<path class="st4" d="M113.8,78.1c0.4-0.2,1,0.6,1,1.4c0,0.8,0.4,1.5,0.7,1.7c-0.4,0.2-1.4-0.2-1.5-1.7
		C114,79.2,113.9,78.3,113.8,78.1z"/>
	<path class="st4" d="M114.7,78.8c0.3-0.2,0.9,0.3,1,1.1c0.1,0.9,0.4,1.3,0.6,1.4c-0.6,0.2-1.4,0.1-1.5-1.2
		C114.8,79.4,114.7,79.1,114.7,78.8z"/>
	<path class="st4" d="M115.6,79.5c0.3-0.2,0.7,0.2,0.8,0.8c0.1,0.5,0.3,1.1,0.6,1c-0.5,0.4-0.9,0.3-1.1-0.2
		C115.7,80.6,115.7,79.8,115.6,79.5z"/>
	<path class="st4" d="M116.4,80c0.1-0.2,0.6-0.3,0.9,0.3c0.2,0.6,0.5,0.8,0.7,0.7c-0.5,0.4-1.1,0.4-1.3,0
		C116.4,80.7,116.3,80.3,116.4,80z"/>
	<path class="st4" d="M117,80c0.2-0.2,0.7-0.3,0.9,0.1c0.2,0.4,0.4,0.4,0.6,0.4c-0.1,0.5-0.4,0.8-0.9,0.4C117,80.5,117,80.2,117,80z
		"/>
	<path class="st4" d="M117.5,79.8c0.1-0.2,0.4-0.3,0.6-0.1c0.2,0.2,0.4,0.5,0.7,0.4c0,0.5-0.5,0.7-0.7,0.4
		C117.9,80.2,117.8,80,117.5,79.8z"/>
	<path class="st4" d="M117.8,79.6c0.1-0.3,0.5-0.3,0.7-0.1c0.1,0.2,0.4,0.4,0.6,0.3c0.2,0.5-0.3,0.7-0.5,0.4
		C118.3,80,118.1,79.7,117.8,79.6z"/>
	<path class="st4" d="M118.1,79.4c0.1-0.3,0.5-0.4,0.8-0.2c0.2,0.2,0.4,0.2,0.6,0.1c0.2,0.4-0.2,0.8-0.5,0.7
		C118.5,79.8,118.3,79.4,118.1,79.4z"/>
	<path class="st4" d="M118.4,79.1c-0.1-0.2,0.1-0.4,0.3-0.4c0.2,0.1,0.5,0,0.6-0.1c0.2,0.2,0.2,0.7,0,0.8
		C119.1,79.4,118.7,79,118.4,79.1z"/>
	<path class="st4" d="M118.5,78.7c-0.1-0.1-0.1-0.4,0.1-0.4c0.2,0,0.5-0.2,0.6-0.4c0.3,0.1,0.4,0.6,0.2,0.7
		C119.1,78.9,118.6,78.7,118.5,78.7z"/>
	<path class="st4" d="M118.5,78.3c-0.3-0.2-0.2-0.4,0-0.4c0.2,0,0.6-0.2,0.5-0.5c0.3,0.1,0.3,0.4,0.2,0.6
		C119.1,78.2,118.8,78.4,118.5,78.3z"/>
	<path class="st4" d="M118.4,78c-0.3-0.1-0.3-0.5,0-0.5c0.3,0,0.4-0.2,0.3-0.5c0.4,0.1,0.5,0.5,0.3,0.7
		C118.9,77.9,118.6,78,118.4,78z"/>
	<path class="st4" d="M118.1,77.7c-0.3,0-0.4-0.4-0.1-0.4c0.2-0.1,0.3-0.3,0.2-0.5c0.4,0,0.5,0.3,0.4,0.6
		C118.6,77.6,118.3,77.7,118.1,77.7z"/>
	<path class="st4" d="M118,77.5c-0.2,0.1-0.5-0.2-0.3-0.3c0.2-0.2,0.1-0.3,0-0.5c0.4-0.2,0.6,0.1,0.6,0.3
		C118.4,77.2,118.2,77.5,118,77.5z"/>
	<path class="st4" d="M117.8,77.5c-0.2,0.1-0.4-0.1-0.3-0.3c0.1-0.2,0.1-0.4,0-0.5c0.1-0.2,0.3-0.1,0.5,0
		C118.1,77,118,77.4,117.8,77.5z"/>
	<path class="st4" d="M117.7,77.5c-0.1,0.2-0.3,0.2-0.4-0.1c-0.1-0.3,0-0.4-0.1-0.5c0.1-0.3,0.3-0.2,0.5-0.1
		C117.8,77,117.8,77.4,117.7,77.5z"/>
	<path class="st4" d="M116.8,77.3c0-0.3,0.2-0.5,0.5-0.3c0.2,0.2,0.3,0.5,0.2,0.7s-0.4,0.1-0.4-0.1C117,77.3,116.9,77.3,116.8,77.3z
		"/>
	<path class="st4" d="M116.7,77.8c-0.2-0.1-0.2-0.4,0-0.5c0.3-0.2,0.7,0.2,0.7,0.4c0,0.3-0.1,0.4-0.3,0.3
		C117,77.9,116.9,77.7,116.7,77.8z"/>
	<path class="st4" d="M116.7,78.2c-0.2,0-0.3-0.3-0.2-0.5c0.2-0.2,0.7,0,0.8,0.2c0.1,0.2,0,0.4-0.2,0.3
		C116.9,78.1,116.8,78,116.7,78.2z"/>
	<path class="st4" d="M116.8,78.5c-0.2,0-0.3-0.2-0.2-0.4c0.1-0.2,0.6-0.1,0.7,0.1c0.1,0.2,0.1,0.4-0.1,0.3
		C117,78.5,116.9,78.4,116.8,78.5z"/>
	<path class="st4" d="M116.8,78.8c-0.2,0-0.3-0.2-0.2-0.4c0.1-0.2,0.6-0.1,0.7,0c0.1,0.2,0.1,0.3-0.1,0.3
		C117,78.8,116.9,78.7,116.8,78.8z"/>
	<path class="st4" d="M117,78.6c-0.3,0-0.3,0.5,0.1,0.5C117.5,79.1,117.4,78.6,117,78.6z"/>
	<path class="st4" d="M104.7,74.6c0-1.1,1.5-1,2.5,0c1.9,1.7,1.5,3.4,2.7,4.6c-0.1,0.4-0.5,0.5-0.9,0.1
		C108.8,78.9,106.8,75,104.7,74.6z"/>
	<path class="st4" d="M102.7,75c0.3-1.5,2.4-0.9,4.8,1c1.7,1.3,2.3,4.2,1.3,4C107.9,77.4,104.5,75.5,102.7,75z"/>
	<path class="st4" d="M101,76.1c0-1.5,2.8-1.5,5.1-0.2c2.2,1.3,3.5,3.8,2.5,4.5C107.2,79.9,101.4,77,101,76.1z"/>
	<path class="st4" d="M99.7,77.8c0-2.7,4-2.5,6-1.4c2.5,1.4,3.9,4.4,2.2,4.6C106.3,80.6,100.1,78,99.7,77.8z"/>
	<path class="st4" d="M103,76.6c-3.1,0-4.1,0.9-4.1,2.7s1.5,3,4.1,3.3c2.6,0.3,4.9-0.3,4.9-1.9C108,78.7,105.6,76.6,103,76.6z"/>
	<path class="st7" d="M102.5,77.2c5,0,6.7,5.6,1,5C98.9,81.8,98.2,77.2,102.5,77.2z"/>
	<path class="st4" d="M101.9,79.3c-1.7,0.1-2.6,1.2-1,2.4c1.6,1.1,4.5,0.7,5.3,0.4c0.8-0.3,0.6-0.8,0-1.6
		C105.6,79.6,102.7,79.3,101.9,79.3z"/>
	<path class="st4" d="M102.8,78.4c-0.6,0-0.9,1.4,0.1,1.4C104,79.7,103.9,78.4,102.8,78.4z"/>
	<path class="st4" d="M104.4,79.8c-0.9,0.3-0.7,1.7,0.3,1.6C105.8,81.3,105.4,79.5,104.4,79.8z"/>
	<path class="st4" d="M104.3,78.6c-1.1,0-0.9,1.4,0.2,1.4C105.5,80,105.2,78.6,104.3,78.6z"/>
	<path class="st4" d="M105.7,78.9c-1,0-1.2,1-0.1,1C106.7,79.9,106.4,78.9,105.7,78.9z"/>
	<path class="st4" d="M103.8,77.9c-0.9,0-1.3,1-0.1,1C104.8,78.9,104.5,77.9,103.8,77.9z"/>
	<path class="st4" d="M102.5,77.7c-0.7,0-0.9,0.8-0.2,0.8C103,78.5,103.2,77.7,102.5,77.7z"/>
	<path class="st4" d="M101.9,78.3c-1,0-0.9,1.4,0.1,1.4C103,79.8,102.9,78.3,101.9,78.3z"/>
	<path class="st4" d="M100.9,80.2c0.9,0.4,1.6-0.7,0.6-1.2C100.6,78.7,100,79.8,100.9,80.2"/>
	<path class="st4" d="M102.2,78.7c-1,0-0.9,1.4,0.1,1.4C103.3,80.2,103.1,78.7,102.2,78.7z"/>
	<path class="st4" d="M100.8,78.8c-0.6,0-0.8,0.7,0,0.7C101.6,79.5,101.4,78.8,100.8,78.8z"/>
	<path class="st4" d="M111.4,83.8c-1.1,0-1.6,1.3-0.6,1.3C111.8,85.1,112.3,83.8,111.4,83.8z"/>
	<path class="st4" d="M112,84.1c-0.8,0-0.8,0.9,0,0.9S112.4,84.1,112,84.1z"/>
	<path class="st4" d="M110.1,82.7c-0.6,0-1,1.1,0.1,1.1C111.3,83.8,111,82.7,110.1,82.7z"/>
	<path class="st4" d="M111.1,83.1c-0.8,0-0.9,1,0,1C112.1,84,111.7,83.1,111.1,83.1z"/>
	<path class="st4" d="M108,83.1c-1,0-1.1,1.3,0,1.3C109.1,84.5,109.1,83.2,108,83.1z"/>
	<path class="st4" d="M108.8,82.7c-0.6,0-0.9,0.9,0.1,0.9C109.8,83.7,109.6,82.7,108.8,82.7z"/>
	<path class="st4" d="M109.1,83.9c-0.5,0-0.8,1.4,0.1,1.4C110,85.3,109.8,83.9,109.1,83.9z"/>
	<path class="st4" d="M110.2,83.6c-0.6,0-0.9,1.3-0.2,1.3C111,84.9,111.4,83.6,110.2,83.6z"/>
	<path class="st4" d="M108.9,83.3c-0.7,0.2-0.8,1.2,0.3,1.1C110.2,84.3,110,83.1,108.9,83.3z"/>
	<path class="st4" d="M109.7,82.2c-0.8-0.1-1.2,1-0.3,1.3C110.4,83.7,110.8,82.3,109.7,82.2z"/>
	<path class="st4" d="M109.1,81.8c-0.7-0.2-1.1,0.7-0.3,1C109.7,83.2,109.8,82,109.1,81.8z"/>
	<path class="st4" d="M105.6,82.9c-0.9-0.2-1.4,1.1-0.2,1.4C106.6,84.6,106.6,83.1,105.6,82.9z"/>
	<path class="st4" d="M105.5,84.1c-0.7-0.3-1.1,0.7-0.3,1C106,85.4,106,84.4,105.5,84.1z"/>
	<path class="st4" d="M107.6,83.5c-1-0.5-1.7,1.3-0.7,1.5C108,85.3,108.6,83.9,107.6,83.5z"/>
	<path class="st4" d="M107.3,82.2c-0.7-0.1-1,1.1,0.1,1.4C108.5,83.9,108.4,82.5,107.3,82.2z"/>
	<path class="st1" d="M108,82.1c-0.7,0-0.8,1.1,0,1.2C108.9,83.3,109.2,82.2,108,82.1z"/>
	<path class="st4" d="M108,84.2c-0.7-0.2-0.9,0.8-0.2,0.9C108.5,85.3,108.8,84.5,108,84.2z"/>
	<path class="st4" d="M106.9,83c-0.8-0.1-1.1,1.1-0.2,1.2S108.1,83.1,106.9,83z"/>
	<path class="st4" d="M106.4,82.4c-1-0.2-1.2,1-0.3,1.2C106.9,83.7,107.3,82.6,106.4,82.4z"/>
	<path class="st4" d="M104.2,83.1c-0.6-0.2-1.3,1.2-0.3,1.4C104.8,84.7,105.5,83.4,104.2,83.1z"/>
	<path class="st4" d="M104.6,83.8c-0.5-0.1-1,0.6-0.2,0.9C105.3,85,105.7,84,104.6,83.8z"/>
	<path class="st4" d="M104.7,82.1c-0.9-0.1-0.9,1.2,0,1.4C105.6,83.6,105.6,82.2,104.7,82.1z"/>
	<path class="st4" d="M105.6,82.1c-0.7,0-0.8,1,0,1.1C106.4,83.2,106.5,82,105.6,82.1z"/>
	<path class="st1" d="M106.2,83.9c-0.8-0.1-0.7,1,0,1.1C106.9,85.1,107.2,84,106.2,83.9z"/>
	<path class="st4" d="M103.6,82.5c-0.9-0.1-1.4,1.1-0.2,1.4C104.5,84,104.6,82.6,103.6,82.5z"/>
	<path class="st4" d="M103.2,81.9c-0.7-0.1-1.3,1-0.3,1.2C103.8,83.4,103.8,82.1,103.2,81.9z"/>
	<path class="st4" d="M103.7,80.7c-1,0-1.4,1.4-0.1,1.5C104.8,82.4,104.8,80.7,103.7,80.7z"/>
	<path class="st4" d="M102.1,82.9c-0.6,0.2-0.7,1.3,0.3,1C103.5,83.6,103.1,82.6,102.1,82.9z"/>
	<path class="st4" d="M102,81.7c-0.7-0.2-1.6,0.9-0.4,1.4C102.8,83.4,103,82,102,81.7z"/>
	<path class="st4" d="M102.7,81c-0.6-0.3-1,1.1-0.4,1.3C102.9,82.5,103.2,81.2,102.7,81z"/>
	<path class="st4" d="M103.8,81.4c-0.7,0.4-0.6,1.3,0.4,0.9C105.2,82.1,104.6,81,103.8,81.4z"/>
	<path class="st4" d="M106.2,79.9c-0.9-0.3-1.4,1-0.3,1.3C106.9,81.6,107.1,80.2,106.2,79.9z"/>
	<path class="st4" d="M105.4,81.4c-0.7,0-0.9,1,0.1,1.1C106.6,82.5,106.3,81.3,105.4,81.4z"/>
	<path class="st1" d="M106.5,82.5c1.2,0,1.1-1.2-0.1-1.3C105.7,81.2,105.4,82.5,106.5,82.5z"/>
	<path class="st4" d="M101.7,82.8c-1.1,0-1.1,1,0,1C102.7,83.9,102.9,82.8,101.7,82.8z"/>
	<path class="st1" d="M104.6,82.5c-1.1,0-1.1,1,0,1C105.7,83.6,105.8,82.5,104.6,82.5z"/>
	<path class="st4" d="M100.6,80.6c-0.7-0.1-1,0.9-0.2,1.1C101.2,82,101.3,80.7,100.6,80.6z"/>
	<path class="st4" d="M99.9,81.1c-0.7-0.4-1.4,1-0.7,1.3C100.5,82.9,100.7,81.6,99.9,81.1z"/>
	<path class="st4" d="M100.4,82.1c-0.9-0.1-1,1.1,0,1.3C101.3,83.5,101.3,82.2,100.4,82.1z"/>
	<path class="st1" d="M99.2,79.9c-1-0.3-1.6,1-0.1,1.3C100.5,81.6,100.2,80.2,99.2,79.9z"/>
	<path class="st4" d="M100.6,79.5c-0.7-0.3-1.3,1-0.6,1.5C100.6,81.4,101.4,79.9,100.6,79.5z"/>
	<path class="st4" d="M101.9,79.9c-0.9-0.3-1.4,0.9-0.5,1.4C102.3,81.8,102.7,80.2,101.9,79.9z"/>
	<path class="st1" d="M101.4,81c-0.5-0.4-1.7,0.8-0.8,1.4C101.3,82.9,102,81.5,101.4,81z"/>
	<path class="st1" d="M101.7,79.8c-0.7-0.3-1.3,1-0.6,1.5C101.8,81.7,102.6,80.2,101.7,79.8z"/>
	<path class="st4" d="M103.5,79.9c-0.9-0.3-1.5,1.2-0.3,1.5C104.3,81.7,104.4,80.2,103.5,79.9z"/>
	<path class="st4" d="M101.1,78c-0.5,0.1-0.5,1.1,0.3,0.9C102.1,78.7,102,77.9,101.1,78z"/>
	<path class="st4" d="M100.9,80.2"/>
	<path class="st6" d="M124.1,90.3c0.4-0.5,1.2-2,1.4-2.4"/>
	<path class="st6" d="M124,90.4c0.1-0.1,0.2-0.4,0.2-0.7"/>
	<path class="st6" d="M124.9,88.4c0,0.2,0,0.5-0.1,0.7"/>
	<path class="st6" d="M124.8,89.2c0.1-0.2,0.5-0.4,0.6-0.5"/>
	<path class="st6" d="M127.7,86.8c-0.3,0.5-1,1.3-1.2,1.6"/>
	<path class="st6" d="M126.9,87.9c0.1-0.1,0.1-0.5,0.1-0.6"/>
	<path class="st6" d="M127.1,87.7c0.1-0.1,0.3-0.2,0.5-0.2"/>
	<path class="st6" d="M122.8,91.8c2.6-1.8,5.2-2.5,6.5-3.5"/>
	<path class="st6" d="M125.5,90.3c0.2-0.1,0.4-0.6,0.7-0.9"/>
	<path class="st6" d="M125.3,90.4c0.3-0.1,1.1,0.1,1.4,0.1"/>
	<path class="st6" d="M126.8,89.7c0.3-0.1,0.6-0.8,0.8-1.1"/>
	<path class="st6" d="M127.1,89.5c0.2-0.1,0.7,0,0.9,0.1"/>
	<path class="st6" d="M128.5,88.9c0.2-0.1,0.4-0.4,0.6-0.7"/>
	<path class="st6" d="M128.6,88.8c0.2-0.1,0.6,0,0.7,0"/>
	<path class="st6" d="M130.3,89.5c-0.4,0.2-0.8,0.5-1.5,0.7"/>
	<path class="st6" d="M124.2,91.5c2.1,0.2,5,0,6.6-0.6"/>
	<path class="st6" d="M128.7,90.8c-0.3,0.3-0.6,0.6-1.1,0.7"/>
	<path class="st6" d="M127.8,91.5c0.2,0,0.6,0.1,0.9,0.3"/>
	<path class="st6" d="M130.2,90.8c-0.1,0.1-0.3,0.4-0.4,0.4"/>
	<path class="st6" d="M129.8,91.2c0.2,0,0.5,0.1,0.7,0.2"/>
	<path class="st6" d="M125.9,91.6c0.3,0,0.9,0.4,1,0.5"/>
	<path class="st6" d="M126.1,92.4c0.9,0.3,2.6,0.5,3.6,0.4"/>
	<path class="st6" d="M126,92.4c0.2,0,0.5,0.4,0.6,0.6"/>
	<path class="st6" d="M126.7,92.6c0.5,0.1,1.1,0.5,1.3,0.8"/>
	<path class="st6" d="M128.7,92.8c0.2,0,0.4-0.1,0.5-0.2"/>
	<path class="st6" d="M128.7,92.8c0.1,0,0.3,0.1,0.4,0.3"/>
	<path class="st6" d="M136.1,79.6c0.1-0.2,0.6-0.4,0.9-0.4"/>
	<path class="st6" d="M135,80.9c0.2,0,0.4-0.1,0.6-0.2"/>
	<path class="st6" d="M134,81.8c0.2-0.1,0.5-0.1,0.6,0"/>
	<path class="st6" d="M136.1,77.6c-1,1.5-2.6,4.1-3.1,4.6"/>
	<path class="st6" d="M134.1,79.5c0,0.4,0,1-0.2,1.4c0.2-0.2,0.8-0.4,1.1-0.4"/>
	<path class="st6" d="M134.9,78.5c-0.1,0.4,0,0.8-0.1,1c0.2-0.1,0.5-0.2,0.7-0.2"/>
	<path class="st6" d="M135.7,77.8c0,0.2,0,0.5-0.1,0.6c0.2-0.1,0.6-0.1,0.7-0.2"/>
	<path class="st6" d="M134.8,76.8c-0.2,0.4-0.5,1.1-0.6,1.6"/>
	<path class="st6" d="M133.3,75.4c-0.1,1.9-0.2,4.7-0.4,5.8"/>
	<path class="st6" d="M133,76c0.1,0.2,0.3,0.4,0.3,0.6c0.1-0.3,0.2-0.5,0.4-0.7"/>
	<path class="st6" d="M132.6,77.4c0.3,0.3,0.5,0.8,0.5,1.2c0.1-0.3,0.3-0.8,0.5-1"/>
	<path class="st6" d="M132.5,79c0.2,0.2,0.5,0.6,0.5,0.9c0-0.3,0.2-0.7,0.4-0.9"/>
	<path class="st6" d="M131.4,76c0.1,0.5,0.4,1.2,0.7,1.9"/>
	<path class="st6" d="M129.5,76c0.9,2.3,3,3.9,3.2,5"/>
	<path class="st6" d="M130.2,76.5c0,0.3,0,0.9,0.1,1.2c-0.2-0.1-0.5-0.3-0.7-0.4"/>
	<path class="st6" d="M131.1,77.7c0,0.4,0.1,1.1,0.3,1.4c-0.4-0.2-1-0.3-1.2-0.3"/>
	<path class="st6" d="M129.1,78.6c0.9,0.6,1.3,1.3,1.8,1.6c0.6,0.3,1.1,0.3,1.3,0.7"/>
	<path class="st6" d="M130.9,80.2c-0.2,0-0.5,0-0.7,0"/>
	<path class="st6" d="M129,79c0.4,0,0.7,0.2,1,0.4"/>
	<path class="st6" d="M136.6,64.7c-0.3,1.9-2.3,5.5-2.9,6.7"/>
	<path class="st6" d="M135.8,65.8c0.1,0.5,0.2,0.7,0,1.1c0.3-0.3,0.6-0.6,0.9-0.8"/>
	<path class="st6" d="M135,67.3c0,0.6,0.1,1.2-0.1,1.6c0.2-0.3,0.7-0.7,0.9-0.9"/>
	<path class="st6" d="M134.2,68.8c0,0.5,0.1,1.3-0.1,1.7c0.4-0.4,0.8-0.6,1.1-0.8"/>
	<path class="st6" d="M133,64.4c0.1,0.9,0.5,3.8,0.6,4.5"/>
	<path class="st6" d="M133.5,64.9c-0.1,0.4-0.3,0.8-0.3,1.1c-0.1-0.2-0.3-0.4-0.5-0.6"/>
	<path class="st6" d="M133.9,66.4c-0.2,0.4-0.4,1-0.4,1.3c-0.2-0.4-0.3-0.6-0.5-0.9"/>
	<path class="st6" d="M130.4,66.2c1.4,1.5,2.6,3,3,4.3"/>
	<path class="st6" d="M131.2,66.5c0,0.3,0.2,0.8,0.3,1c-0.2-0.1-0.8-0.2-1-0.3"/>
	<path class="st6" d="M132.2,67.4c0.1,0.6,0.2,1,0.3,1.3c-0.4-0.2-0.8-0.3-1.1-0.3"/>
	<path class="st6" d="M133.2,68.9c0,0.3,0,0.8,0,1c-0.2-0.1-0.7-0.3-0.9-0.4"/>
	<path class="st6" d="M129.6,67.8c0.6,0.6,1.5,1.4,1.9,1.7"/>
	<path class="st6" d="M129.9,68.5c0.2,0,0.5,0,0.7,0.1"/>
	<path class="st6" d="M131,69.6c0.5,0.1,0.7,0.2,0.9,0.2"/>
	<path class="st6" d="M128.8,53.5c0.9,1.3,1.4,3.4,1.7,5.3"/>
	<path class="st6" d="M128.8,54.3c0.4,0.2,0.6,0.4,0.7,0.7c0-0.3-0.1-0.8-0.1-1"/>
	<path class="st6" d="M130.2,54.9c0,0.3-0.2,1.5-0.2,1.7c-0.3-0.3-0.6-0.5-0.8-0.7"/>
	<path class="st6" d="M130.7,57.1c-0.1,0.4-0.3,0.9-0.3,1.1"/>
	<path class="st6" d="M127.5,53.1c0.2,0.5,0.5,1.1,0.7,1.4"/>
	<path class="st6" d="M125.9,53.8c1.4,1.3,4.2,4.8,4.8,6.4"/>
	<path class="st6" d="M126.5,53.8c0,0.2,0.2,0.8,0.4,1c-0.2-0.1-0.5-0.2-0.8-0.2"/>
	<path class="st6" d="M127.8,54.9c0.3,0.7,0.4,1.2,0.6,1.6c-0.5-0.4-1.4-0.7-1.7-0.8"/>
	<path class="st6" d="M129.2,56.7c0.1,0.5,0.2,1,0.3,1.3c-0.4-0.2-1-0.4-1.6-0.4"/>
	<path class="st6" d="M125.7,56.4c0.9,0.7,1.5,1.2,1.9,1.4"/>
	<path class="st6" d="M126.5,57.9c0.4,0,0.9,0,1.2,0"/>
	<path class="st6" d="M128,58.8c0.3,0,0.6,0,0.8,0"/>
	<path class="st6" d="M124.9,54.6c0.4,0.4,0.6,0.7,0.9,1"/>
	<path class="st4" d="M106.1,61.5c0.4,0.3,1.1,0.3,1.3,0.3c0.2-0.1,0.3-0.3,0.3-0.4c0.1-0.1,0-0.3-0.1-0.4c-0.5-0.2-0.9-0.5-1.3-0.9
		c0-0.1,0-0.4,0-0.6c-0.1,0.2-0.3,0.3-0.3,0.4c-0.1-0.1-0.3-0.1-0.5,0c-0.1-0.1-0.3-0.3-0.4-0.4c0,0.2,0,0.7,0,0.8
		c-0.4,0.9-0.9,2.5-0.7,3.7c0,0.3,0,0.6-0.2,0.6c-0.8,0.2-2.1,0-3.1-0.2c-1-0.2-3-0.6-3.5,2.1c0,0.1,0.2,0.3,0.3,0.4
		c0.1-0.1,0.3-0.2,0.4-0.4c0.4,0.7,0.4,1.7,0.1,2.1c-0.2,0.2-0.1,0.3-0.1,0.4c0.3,0.6,0.4,1.5,0.4,1.8h0.7C99,70.6,99,70.4,99,70.3
		s-0.1-0.6-0.2-0.8c0-0.2-0.1-0.4,0-0.5c0.1-0.1,0.5-0.4,0.6-0.7c0.2,0.1,0.2,0.3,0.2,0.4c0,0.1,0,0.3-0.1,0.4s0,0.2,0.1,0.4
		c0.1,0.4,0.2,0.9,0.3,1.1c0,0.2,0.1,0.4-0.1,0.5h0.8c-0.3-0.7-0.3-1.2-0.4-1.4c-0.1-0.1,0-0.3,0.1-0.5c0.3-0.4,0.9-0.7,0.9-1.5
		l0.2-0.2c0.8,0.7,1.5,1,2.5,1l0.2,0.3c0.1,0.6,0.3,1.6,0.3,1.7c0.1,0.1,0,0.4,0,0.5h1.2c-0.3-0.3-0.4-0.4-0.4-0.5
		c0-0.2-0.1-0.5-0.1-0.6c0-0.1,0-0.3,0-0.4c0-0.1,0.1-0.9,0.1-1.1c1.4-1.2,1.2-2.5,1-3.7C106.1,63.5,105.7,62.2,106.1,61.5z"/>
	<path class="st6" d="M104.1,67c0,0.4,0.1,0.7,0,0.9c-0.1,0.2-0.2,0.5-0.1,0.6"/>
	<path class="st6" d="M105,67.2c-0.1,0.5-0.3,1-0.3,1.3c0,0.4,0,1.7,0,1.8c0,0.1,0,0.3,0.1,0.3c0.1,0,0.1,0.2,0.2,0.3"/>
	<path class="st6" d="M98.3,66.6c0.3,0.7,0.5,1.1,0.7,1.2c0.3,0.2,0.3,0.3,0.5,0.5"/>
	<path class="st8" d="M106.3,60.8c-0.2,0-0.1,0.2,0,0.2C106.4,61.1,106.5,60.8,106.3,60.8z"/>
	<path class="st6" d="M105.5,60c0.1,0.1,0.3,0.3,0.3,0.4"/>
	<path class="st9" d="M115.3,68.1c0.3,0.5,0.2,2.2-0.3,2.8h1.7c-0.4-0.7-0.6-2-0.2-2.8C116.2,67.9,115.6,67.8,115.3,68.1z"/>
	<path class="st2" d="M115.3,60.6c-0.6-0.3-1.4,0-1.3,0.7c-0.9,0-1.1,0.5-0.9,0.8c-0.4,0-0.6,0.5-0.5,0.8c-0.6-0.2-1.3,0.3-1.3,0.7
		c-0.4,0.1-0.6,0.6-0.4,0.9c-0.3,0.2-0.2,1.1,0.3,0.8c0.6-0.3,0.9-0.4,1.1,0l-0.2,0.2c-0.5-0.3-0.9,0.3-0.8,0.5
		c0.1,0.2,0.4,0.4,0.6,0.2c-0.1,0.3,0,0.8,0.5,0.7c-0.1,0.4,0.1,0.8,0.7,0.7c0.1,0.3,0.8,0.6,1.2,0.3c0.2,0.3,0.9,0.4,1.2,0.3
		c0.1,0.3,0.3,0.3,0.5,0.2c0.4,0.2,0.5,0.2,0.7,0.1c0.2,0.2,0.4,0.2,0.6,0.1c0.2-0.1,0.7-0.3,1.1-0.3c0.4,0,0.9-0.3,1-0.5
		c0.1-0.3,0.2-0.4,0.5-0.6c0.3-0.1,0.5-0.6,0.4-0.8c0.1-0.1,0.3-0.4,0.2-0.5c0.5-0.4,0.5-0.9-0.4-0.8c0.6-0.4,0.6-0.6,0.2-1
		c0.3-0.5,0.2-0.9,0-0.8c-0.2,0-0.7-0.3-0.9-0.2c0.5-0.3,0.5-0.6,0.3-0.8c-0.1-0.2-0.6-0.3-0.8-0.2c0,0-0.3-0.3-0.4-0.3
		c0.2-0.6-0.3-1-0.8-0.9c0.1-0.6-1-0.7-1.3-0.3C116.2,60,115.6,60.2,115.3,60.6z"/>
	<path class="st6" d="M117.5,63.3c0.4-0.2,0.9-0.2,1,0.1"/>
	<path class="st6" d="M118.5,63.8c0.6-0.1,0.6,0.1,0.5,0.4"/>
	<path class="st6" d="M117.8,64.8c0.1,0,0.5-0.1,0.7-0.2"/>
	<path class="st6" d="M117.6,65.4c0.2,0.1,0.8-0.3,0.9-0.2s0.3-0.3,0.6-0.1c0.3,0.3,0.1,0.6-0.4,0.5"/>
	<path class="st6" d="M114.3,61.5c0.2-0.4,0.6-0.6,0.9-0.2"/>
	<path class="st6" d="M115.5,63c0.5-0.2,0.6,0.1,0.9-0.1c0.4-0.2,0.6,0,0.8,0"/>
	<path class="st6" d="M115.2,63.5c0.3-0.1,0.6-0.2,0.8,0"/>
	<path class="st6" d="M115.4,64c0.3,0,0.3,0.4,0.2,0.6c0.3-0.1,0.4,0.4,0.2,0.7c0.4,0.1,0.4,0.5-0.1,0.6c0,0-0.1,0.2,0,0.4"/>
	<path class="st6" d="M114.8,64.3c-0.3,0.2-0.4,0.4-0.1,0.7"/>
	<path class="st6" d="M115.2,64.7c-0.3,0.1-0.4,0.3-0.4,0.4c-0.5,0-0.6,0.2-0.4,0.4c0.3,0.1,0.5,0.1,0.6,0.3"/>
	<path class="st6" d="M113.3,63.6c0.3-0.1,0.7-0.1,0.9,0.1"/>
	<path class="st6" d="M114,62.7c0.2,0,0.5,0,0.7,0.1"/>
	<path class="st6" d="M112.7,66c0.4-0.4,0.9-0.1,1.1,0.1"/>
	<path class="st6" d="M113.3,66.4c0.3,0.3,1.1,0.2,0.9-0.1c0.2,0,0.3,0,0.4,0"/>
	<path class="st6" d="M114.7,65.8c0.1,0.1,0.3,0.3,0.3,0.4"/>
	<path class="st6" d="M113.7,67.1c0.2,0.2,0.9,0.2,1.1,0.1"/>
	<path class="st6" d="M112.1,66.2c0-0.1,0.1-0.3,0.2-0.4"/>
	<path class="st6" d="M112,64.2c0.1,0.3,0.5,0.5,0.8,0.3c0.4-0.2,0.9-0.4,0.8,0.3"/>
	<path class="st6" d="M117,64.7c-0.4,0.3,0.1,0.4-0.1,0.6"/>
	<path class="st6" d="M116.5,65.9c0.2-0.2,0.5-0.2,0.6-0.1"/>
	<path class="st6" d="M117.3,66c0.2,0.1,0.7,0.1,0.9,0"/>
	<path class="st6" d="M118,66.6c0,0.3-0.3,0.9-1.2,0.6"/>
	<path class="st6" d="M117.3,67.3c0.2,0.3,0,0.8-0.7,0.6"/>
	<path class="st6" d="M117.7,67.5c0.3,0.1,0.5-0.1,0.5-0.4"/>
	<path class="st6" d="M118.5,67.2c0.3,0,0.4-0.1,0.4-0.3c0.2,0,0.3,0,0.3-0.2"/>
	<path class="st6" d="M119.5,65.7c0.2,0,0.5,0.1,0.6,0"/>
	<path class="st6" d="M119.2,64.7c0.5-0.3,0.9-0.2,0.8,0c0.3-0.1,0.5,0,0.5,0.3"/>
	<path class="st6" d="M120.6,64c-0.2-0.1-0.7-0.2-0.9-0.2"/>
	<path class="st6" d="M119.7,63c-0.2,0.1-0.3,0.3-0.5,0.2"/>
	<path class="st6" d="M117.6,62.4c0.4,0.2,0.8,0.1,0.9-0.1"/>
	<path class="st6" d="M118.9,61.6c-0.1,0.2-0.5,0.2-0.7,0"/>
	<path class="st6" d="M112.6,62.8c0.2,0.1,0.5,0.2,0.5,0.4"/>
	<path class="st6" d="M113.1,62.1c0.1,0.1,0.4,0.2,0.5,0.2"/>
	<path class="st6" d="M116.8,60.5c-0.2,0.1-0.4,0.3-0.4,0.5"/>
	<path class="st6" d="M111.3,63.5c0.3-0.1,0.6,0,0.8,0.1"/>
	<path class="st6" d="M112.4,65.3c0.1-0.2,0.6-0.4,0.7-0.3"/>
	<path class="st6" d="M113.4,65.4c0.2,0,0.4,0,0.5,0"/>
	<path class="st6" d="M116.8,63.8c0.1,0.4,0.3,0.6,0.5,0.4c0.3,0.3,1,0.2,0.6-0.3c0.3-0.1-0.4-0.6-0.7-0.4"/>
	<path class="st6" d="M115.5,66.5c0.2,0.1,0.3,0.4,0.1,0.6"/>
	<path class="st6" d="M115.9,66.8c0.2-0.1,0.6-0.2,0.7-0.1"/>
	<path class="st6" d="M114.5,67.9c0.1-0.1,0.4-0.2,0.5-0.4"/>
	<path class="st6" d="M115.6,67.6c-0.1,0.2,0,0.5,0.3,0.6"/>
	<path class="st6" d="M114.3,62.1c0.4,0.3,1,0.4,1.3,0.2"/>
	<path class="st6" d="M115.4,61.8c0,0.2,0.7,0.4,0.9,0.3c0.2,0.2,1,0.1,1-0.3"/>
	<path class="st6" d="M115.9,61.6c0.3-0.3,1.2-0.3,1.5-0.1"/>
	<path class="st6" d="M119.6,66.5c0.1,0.3,0.1,0.5-0.1,0.7"/>
	<path class="st6" d="M117.7,68.2c0.2-0.1,0.4-0.3,0.6-0.4"/>
	<path class="st6" d="M118.5,67.9c0.1-0.3,0.4-0.4,0.5-0.4"/>
	<path class="st6" d="M118.7,68c0.3-0.1,0.5-0.2,0.6-0.3"/>
	<g>
		<path class="st3" d="M108.3,55.5c-0.5,0.2-1.1,0.7-1.7,1.2c-0.7,0.7-1.4,1-2.3,0.9l-0.2,0.2c0.9,0.2,1.8,0,2.6-0.9
			c0.7-0.7,1.2-1.1,1.7-1.2C108.4,55.6,108.3,55.6,108.3,55.5z"/>
		<path class="st1" d="M106.6,56.7c0.6-0.6,1.1-1,1.7-1.2c0-0.1-0.1-0.1-0.1-0.2c-0.6,0.2-1.1,0.7-1.7,1.2c-0.6,0.5-1.2,1-2.2,0.8
			l0.1,0.1l-0.1,0.1C105.3,57.7,105.9,57.4,106.6,56.7z"/>
		<path class="st3" d="M106.5,56.5c0.5-0.5,1-1,1.7-1.2c0-0.1,0-0.1,0-0.2c-0.7,0.2-1.3,0.8-1.7,1.2c-0.5,0.5-1,1-2.3,0.8l0.3,0.2
			C105.4,57.5,105.9,57.1,106.5,56.5z"/>
		<g>
			<path class="st3" d="M108.2,55.4c0,0,0-0.1-0.1-0.2c-0.7-0.1-1-0.5-1.2-0.9c-0.4-0.9-0.2-1.3,0.2-1.3c-0.3,0-0.5,0-0.7,0.1
				C106.1,53.3,106.3,55.3,108.2,55.4z"/>
			<path class="st1" d="M108.3,55.5c0,0-0.1-0.1-0.1-0.1c-1.9-0.1-2.1-2-1.9-2.3c-0.1,0.1-0.2,0.2-0.3,0.3c0,0-0.1,0.1-0.1,0.1
				C105.7,54,106.6,55.8,108.3,55.5z"/>
			<path class="st3" d="M108.3,55.5c-1.7,0.3-2.6-1.4-2.3-1.9c-0.3,0.4-0.2,0.7,0,1.1c0.2,0.4,0.7,0.9,1.3,1
				C107.7,55.7,108.1,55.6,108.3,55.5C108.3,55.5,108.3,55.5,108.3,55.5C108.3,55.5,108.3,55.5,108.3,55.5z"/>
		</g>
	</g>
	<g>
		<path class="st3" d="M113.4,57.6c-0.9,0.1-1.7-0.6-2.3-1.1c-0.4-0.4-1-0.8-1.5-1c0,0.1,0,0.1-0.1,0.2c0.5,0.2,1,0.5,1.5,1
			c0.7,0.7,1.7,1.6,2.7,1.2L113.4,57.6z"/>
		<path class="st1" d="M111.3,56.4c-0.4-0.4-1-0.8-1.6-1c0,0,0,0,0,0c0,0.1,0,0.1,0,0.1c0.6,0.2,1.1,0.6,1.5,1
			c0.6,0.6,1.4,1.3,2.3,1.1l-0.2-0.1l0.1-0.2C112.5,57.4,111.7,56.8,111.3,56.4z"/>
		<path class="st3" d="M109.7,55.3c0.7,0.2,1.2,0.6,1.6,1c0.5,0.5,1.2,1.1,2.1,1l0.3-0.3c-1,0.2-1.9-0.4-2.3-0.8
			c-0.3-0.4-0.9-0.9-1.7-1.1C109.7,55.2,109.7,55.3,109.7,55.3z"/>
		<g>
			<path class="st3" d="M111.9,53.1c-0.2-0.3-1-0.5-1.8,0c0.6-0.4,1.2-0.3,1.4,0c0.2,0.3,0.1,1.4-1.9,2.1c0,0,0,0.1,0,0.1
				c0,0,0,0,0,0C111,55,112.3,53.8,111.9,53.1z"/>
			<path class="st1" d="M111.3,53.3c0.2,0.3,0.2,1.3-1.6,1.9c0,0,0,0,0,0.1c2-0.6,2.1-1.8,1.9-2.1c-0.2-0.3-0.9-0.4-1.4,0
				c0,0,0,0,0,0C110.6,52.8,111.1,53.1,111.3,53.3z"/>
			<path class="st3" d="M109.7,55.2c1.8-0.6,1.8-1.6,1.6-1.9c-0.2-0.2-0.6-0.5-1.2-0.1c0.6-0.3,0.9,0.1,0.9,0.3
				C111.2,53.9,110.9,54.6,109.7,55.2C109.7,55.1,109.7,55.1,109.7,55.2C109.7,55.1,109.7,55.2,109.7,55.2z"/>
		</g>
	</g>
	<g>
		<path class="st1" d="M109.2,54.9C109.2,54.9,109.2,54.9,109.2,54.9C109.2,54.9,109.2,54.9,109.2,54.9z"/>
		<path class="st1" d="M109.3,54.9C109.3,54.9,109.3,54.9,109.3,54.9C109.3,54.9,109.3,54.9,109.3,54.9z"/>
		<path class="st1" d="M109.3,54.9C109.3,54.9,109.3,54.9,109.3,54.9C109.3,54.9,109.3,54.9,109.3,54.9z"/>
		<path class="st3" d="M110.9,53.2c-0.5-0.2-1.2,0.6-1.6,1.5c0.1,0,0.1,0,0.2,0c0.4-0.9,1.1-1.8,1.6-1.3
			C111,53.4,111,53.3,110.9,53.2z"/>
		<path class="st1" d="M109.2,54.8C109.2,54.8,109.2,54.8,109.2,54.8C109.2,54.8,109.2,54.8,109.2,54.8z"/>
		<path class="st1" d="M109.2,54.8C109.2,54.8,109.2,54.8,109.2,54.8C109.2,54.8,109.2,54.8,109.2,54.8z"/>
		<path class="st1" d="M109.2,54.8C109.2,54.8,109.2,54.8,109.2,54.8C109.2,54.8,109.2,54.8,109.2,54.8z"/>
		<path class="st1" d="M109.2,54.8C109.2,54.8,109.2,54.8,109.2,54.8C109.2,54.8,109.2,54.8,109.2,54.8z"/>
		<path class="st1" d="M109.2,54.7C109.2,54.7,109.2,54.7,109.2,54.7C109.2,54.7,109.2,54.7,109.2,54.7z"/>
		<path class="st1" d="M109.2,54.7C109.2,54.7,109.2,54.7,109.2,54.7C109.2,54.7,109.2,54.7,109.2,54.7z"/>
		<path class="st1" d="M109.2,54.7C109.2,54.7,109.2,54.7,109.2,54.7C109.2,54.7,109.2,54.7,109.2,54.7z"/>
		<path class="st1" d="M109.1,54.7C109.1,54.7,109.1,54.7,109.1,54.7c0.1,0,0.2,0,0.2,0c0.4-0.8,1.1-1.7,1.6-1.5
			c-0.1-0.1-0.1-0.1-0.2-0.2C110,53.1,109.4,54,109.1,54.7z"/>
		<path class="st3" d="M109.1,54.7c0.3-0.8,0.9-1.6,1.6-1.6c-0.1-0.1-0.3-0.1-0.6,0.1c-0.5,0.3-0.8,0.8-1.1,1.4
			C109,54.6,109,54.7,109.1,54.7C109.1,54.8,109.1,54.7,109.1,54.7z"/>
		<path class="st3" d="M108.6,54.7c-0.1-0.5-0.2-0.9-0.7-1c-0.5-0.2-1.1-0.1-1.1,0.2c0,0.2,0.1,0.3,0.2,0.5c-0.1-0.3,0-0.4,0.4-0.4
			c0.4,0,0.8,0.1,1,0.5c0.1,0.1,0.1,0.2,0.1,0.3C108.4,54.7,108.5,54.7,108.6,54.7z"/>
		<path class="st1" d="M108.8,55c-0.1-0.2-0.1-0.3-0.2-0.3C108.7,54.7,108.8,54.9,108.8,55z"/>
		<path class="st1" d="M107.8,53.7c0.5,0.2,0.6,0.5,0.7,1c0.1,0,0.2,0,0.2,0.1c-0.1-0.6-0.2-1.2-0.9-1.4c-0.8-0.2-1.3,0-1.3,0.1
			c0,0.1,0,0.2,0.1,0.4C106.7,53.6,107.4,53.5,107.8,53.7z"/>
		<path class="st3" d="M107.9,53.4c0.7,0.2,0.8,0.8,0.9,1.4c0.1,0,0.2,0,0.2,0c-0.1-1.1-0.5-1.8-2-1.8c-0.3,0.1-0.4,0.3-0.4,0.5
			C106.6,53.4,107.1,53.1,107.9,53.4z"/>
		<path class="st3" d="M108.7,54.7c-0.2-0.1-0.5,0-0.5,0.3c0,0.3,0.1,0.4,0.2,0.6c0.1,0.2,0.3,0.2,0.4,0.1
			C109,55.6,108.7,54.7,108.7,54.7z"/>
		<path class="st3" d="M109.2,54.7C109.2,54.7,109.2,54.7,109.2,54.7C109.2,54.7,109.2,54.7,109.2,54.7
			C109.2,54.7,109.2,54.7,109.2,54.7C109.2,54.8,109.2,54.8,109.2,54.7C109.2,54.8,109.2,54.8,109.2,54.7c0.1,0.1,0.1,0.1,0.1,0.2
			c0,0,0,0,0,0c0,0,0,0,0,0c0,0.1,0,0.2,0.1,0.3l0,0l0,0c0,0.1,0,0.3,0,0.3l0,0l0,0c0,0,0,0,0,0c0,0,0,0,0,0c0,0,0,0,0,0
			c0,0,0,0,0,0c0,0-0.1,0.1-0.1,0.1c0.3,0.1,0.4,0,0.4-0.3c0,0,0,0,0,0c0-0.1,0-0.1,0-0.2c0,0,0,0,0,0
			C109.7,54.9,109.5,54.6,109.2,54.7z"/>
		<path class="st1" d="M109.3,55.6C109.3,55.6,109.3,55.6,109.3,55.6C109.3,55.6,109.3,55.6,109.3,55.6
			C109.3,55.6,109.3,55.6,109.3,55.6C109.3,55.6,109.3,55.6,109.3,55.6L109.3,55.6c0-0.1,0-0.3,0-0.4l0,0c0-0.1,0-0.2-0.1-0.3
			c0,0,0,0,0,0c0-0.1-0.1-0.1-0.1-0.2c0,0,0,0,0,0c0,0,0,0,0,0c0,0,0,0,0,0c0,0,0,0,0,0c0,0-0.1,0-0.1,0c-0.1,0-0.2,0-0.4,0
			c0.1,0,0.4,0.9,0.2,1C108.9,55.7,109,55.6,109.3,55.6C109.3,55.7,109.3,55.7,109.3,55.6z"/>
	</g>
	<path class="st6" d="M104.5,54.7c0.4,0,1.2,0,1.5,0"/>
	<path class="st6" d="M104.9,55.7c0.2-0.1,0.5-0.4,0.7-0.5"/>
	<path class="st6" d="M103.5,54.9c0.4,0,0.6,0,0.9,0"/>
	<path class="st6" d="M102.6,51.3c0,0.4-0.1,1.1-0.1,1.3"/>
	<path class="st6" d="M100.6,52.3c0.6,0.3,1.2,0.8,1.5,1"/>
	<path class="st6" d="M100.7,50.5c0.3,0.3,0.4,1.2,0.8,1.6"/>
	<path class="st6" d="M103.7,52.7c0.2,0.3,0.5,1.4,0.7,1.7"/>
	<path class="st6" d="M101.7,53.6c0.7,0.1,1.5,0.7,2.2,0.8"/>
	<path class="st6" d="M101.7,51.1c0,0.5,0.6,1.5,0.6,2.1"/>
	<path class="st6" d="M103.2,49.3c-0.4,0.2-0.9,1.5-1.1,1.8"/>
	<path class="st6" d="M101.8,49.2c0,0.4-0.1,1.3-0.1,1.5"/>
	<path class="st6" d="M100.7,48.6c0,0.5,0.5,1.3,0.6,2"/>
	<path class="st6" d="M102,46.6c0,0.3-0.2,1-0.2,1.2"/>
	<path class="st6" d="M102.4,47.5c-0.3,0.3-0.4,1.1-0.5,1.3"/>
	<path class="st6" d="M103.9,45.1c-0.3,0.3-0.6,0.9-0.8,1.2"/>
	<path class="st6" d="M102.7,47.3c0.5-0.5,1.5-1.1,1.7-1.3"/>
	<path class="st6" d="M105.4,44.3c-0.3,0.4-1,0.9-1.2,1.3"/>
	<path class="st6" d="M107.1,44.9c-0.4,0.3-1.9,0.6-2.2,0.8"/>
	<path class="st6" d="M104.7,46.3c0.4-0.1,0.9,0,1.1,0"/>
	<path class="st6" d="M103.4,47.5c0.3,0,0.9-0.2,1.1-0.3"/>
	<path class="st6" d="M106.6,45.6c0.2,0,0.7,0,0.9,0"/>
	<path class="st6" d="M110.4,44.6c0.2,0,0.5,0.2,0.7,0.2"/>
	<path class="st6" d="M110.3,45.2c0.4,0,1.3,0.4,2,0.3"/>
	<path class="st6" d="M110.2,45.8c0.2,0,0.5-0.1,0.6-0.1"/>
	<path class="st6" d="M111.8,46.1c0.2,0,0.7-0.1,0.8-0.1"/>
	<path class="st6" d="M111.9,44.6c0.3,0.3,0.5,0.6,0.8,0.8"/>
	<path class="st6" d="M112.6,45.6c0.3,0.1,1.1,0.5,1.6,0.7"/>
	<path class="st6" d="M113.4,45c0.2,0.3,0.8,0.8,0.9,1"/>
	<path class="st6" d="M113.1,46.7c0.4,0,1.1,0.1,1.4,0"/>
	<path class="st6" d="M115.3,45.9c0.1,0.3,0.4,0.9,0.4,1"/>
	<path class="st6" d="M114.7,46.6c0.5,0.4,0.9,1.4,1.2,1.6"/>
	<path class="st6" d="M114.6,47.5"/>
	<path class="st6" d="M116.5,47.1c0.1,0.4,0.2,1.5,0.3,1.9"/>
	<path class="st6" d="M115.4,48.7c0,0.4,0.5,1.7,0.6,2.2"/>
	<path class="st6" d="M116.2,48.6c0.1,0.4,0.1,1.5,0.2,1.7"/>
	<path class="st6" d="M117.2,49.2c-0.1,0.2-0.2,0.9-0.2,1.1"/>
	<path class="st6" d="M115.5,51c0.1,0.4-0.1,1.4,0.1,1.8"/>
	<path class="st6" d="M116.4,51c-0.2,0.3-0.5,1.5-0.6,1.7"/>
	<path class="st6" d="M117.4,50.7c-0.2,0.2-0.5,1-0.7,1.2"/>
	<path class="st6" d="M115.8,53.1c0.6-0.3,1-0.7,1.2-0.9"/>
	<path class="st6" d="M113.7,54.3c0.6-0.5,1.4-0.8,1.7-1.1"/>
	<path class="st6" d="M114.9,54.1c0.3-0.2,1-0.3,1.2-0.5"/>
	<path class="st6" d="M114.1,53.5c0.3-0.3,0.6-0.7,0.7-0.8"/>
	<path class="st6" d="M112.4,54.4c0.3-0.2,0.7-0.4,0.9-0.4"/>
	<path class="st6" d="M113.5,54.8c0.3,0,1,0,1.1,0"/>
	<path class="st6" d="M113.9,55.2c-0.4,0-1.1,0-1.4,0.1"/>
	<path class="st6" d="M112.9,54.7c-0.6,0.2-2.5,0.4-2.7,0.5"/>
</g>
</svg>
