<?xml version="1.0" encoding="utf-8"?>
<!-- Generator: Adobe Illustrator 22.1.0, SVG Export Plug-In . SVG Version: 6.00 Build 0)  -->
<svg version="1.1" id="layer_1" xmlns="http://www.w3.org/2000/svg" xmlns:xlink="http://www.w3.org/1999/xlink" x="0px" y="0px"
	 viewBox="0 0 216 144" style="enable-background:new 0 0 216 144;" xml:space="preserve">
<style type="text/css">
	.st0{fill:#C4524E;}
	.st1{fill:#4868A6;}
	.st2{fill:#FFFFFF;}
	.st3{fill:#FFFFFF;stroke:#000000;stroke-width:0.25;stroke-linecap:round;stroke-linejoin:round;}
	.st4{fill:#D14A48;}
	.st5{fill:#D14A48;stroke:#000000;stroke-width:6.250000e-02;stroke-linecap:round;stroke-linejoin:round;}
	.st6{fill:none;stroke:#000000;stroke-width:6.250000e-02;stroke-linecap:round;stroke-linejoin:round;}
	.st7{fill:#8D5629;stroke:#000000;stroke-width:6.250000e-02;stroke-linecap:round;stroke-linejoin:round;}
	.st8{fill:#FFFFFF;stroke:#000000;stroke-width:6.250000e-02;stroke-linecap:round;stroke-linejoin:round;}
	.st9{stroke:#000000;stroke-width:6.250000e-02;stroke-linecap:round;stroke-linejoin:round;}
	.st10{fill:#FFF243;}
</style>
<rect x="0.2" y="0" class="st0" width="216" height="48"/>
<rect x="0.2" y="96" class="st1" width="216" height="48"/>
<rect x="0.2" y="48" class="st2" width="216" height="48"/>
<g>
	<ellipse transform="matrix(0.3399 -0.9405 0.9405 0.3399 3.7405 149.3294)" class="st3" cx="108.2" cy="72" rx="15.8" ry="15.8"/>
	<path class="st4" d="M122.3,74.7c0.2-0.9,0.2-1.7,0.2-2.7c0-7.9-6.4-14.3-14.3-14.3C100.4,57.7,94,64.1,94,72c0,0.7,0,1.4,0.1,2
		c0.8-0.7,1.7-1.4,2.1-1.9c0.7,1,1.4,1.3,2,1.4c-0.1-0.5-0.1-1.1-0.1-1.6c0-5.6,4.5-10.1,10.1-10.1c5.6,0,10.1,4.5,10.1,10.1
		c0,0.7-0.1,1.4-0.2,2c0.8-0.1,1.7-1.1,2.2-1.4C120.8,73.5,121.9,74.4,122.3,74.7z"/>
	<g>
		<g>
			<path class="st5" d="M109.7,68.4c0.5,0,1.2-0.2,0.5-0.9c-0.7-0.7-2.5-1.5-3.6-1.7c-0.5-0.1-0.7,0.2-0.3,0.7
				C106.7,67.3,108.4,68.4,109.7,68.4z"/>
			<path class="st5" d="M110.6,66.8c-1.4-1.1-2.6-1.4-3.8-1.7c-0.5-0.1-0.7,0.1-0.7,0.3c0,0.2,0,0.4-0.1,0.6
				c0.1-0.1,0.2-0.2,0.5-0.1c1.2,0.2,2.9,1,3.6,1.7c0.4,0.4,0.4,0.6,0.2,0.7l0,0c0.3-0.2,0.4-0.5,0.4-0.9
				C110.8,66.9,110.8,67,110.6,66.8z"/>
			<path class="st5" d="M106.6,65.1c0.1,0,0.1,0,0.2,0c1.2,0.3,2.4,0.6,3.8,1.7c0-0.3,0-0.9-0.4-1.2c0-0.2,0-0.5-0.1-0.7
				s-0.1-0.3-0.1-0.7c0-0.4,0-1-0.7-2c-0.2,0.1-0.9,0.1-1.1,0.1c-0.3,0-0.3,0.1-0.3,0.3c0,0.2-0.2,0.3-0.7,0.6s-0.3,0.6,0.2,0.9
				C107.2,64.3,106.7,64.6,106.6,65.1z"/>
		</g>
		<g>
			<path class="st6" d="M107.5,64c0.3-0.2,0.8-0.5,0.9-0.6"/>
			<path class="st6" d="M107.8,63.9c-0.1,0-0.2-0.1-0.3-0.1"/>
			<path class="st6" d="M107.9,63.8c-0.1,0-0.2-0.1-0.2-0.1"/>
			<path class="st6" d="M108,63.7c-0.1-0.1-0.1-0.1-0.2-0.1"/>
			<path class="st6" d="M108.1,63.6c-0.1-0.1-0.1-0.1-0.2-0.1"/>
			<path class="st6" d="M108.2,63.6c-0.1-0.1-0.2-0.2-0.2-0.2"/>
			<path class="st6" d="M109.5,63.1c0.1,0.1,0.2,0.1,0.2,0.1"/>
			<path class="st6" d="M109.7,63.4c0,0-0.2-0.1-0.2-0.1"/>
			<path class="st6" d="M109.4,63.5c0.1,0,0.2,0.1,0.3,0.1"/>
			<path class="st6" d="M109.6,63.8c0,0,0.1,0.1,0.2,0.1"/>
			<path class="st6" d="M109.8,64.1c-0.1,0-0.1,0-0.2,0"/>
			<path class="st6" d="M109.7,64.3c0.1,0,0.2,0,0.2,0"/>
			<path class="st6" d="M109.8,65.2c-0.1,0-0.2-0.1-0.2-0.1"/>
			<path class="st6" d="M109.5,65.3c0.1,0.1,0.4,0.1,0.5,0.2"/>
			<path class="st6" d="M109.4,65.5c0.1,0.1,0.2,0.1,0.3,0.1"/>
			<path class="st6" d="M109.6,65.8c0.1,0,0.1,0.1,0.2,0.1"/>
			<path class="st6" d="M110.5,66.1c-0.1,0-0.2,0-0.3,0"/>
			<path class="st6" d="M110.3,66.4c0.1,0.1,0.2,0.1,0.3,0.1"/>
			<path class="st6" d="M110.1,66.8c0.1,0.1,0.4,0.4,0.5,0.5"/>
			<path class="st6" d="M109.9,67c0.2,0.1,0.6,0.5,0.7,0.6"/>
			<path class="st6" d="M106.6,66.2c0-0.1,0.4-0.1,0.6,0"/>
			<path class="st6" d="M109.6,67.4c-0.2-0.2-0.8-0.5-0.9-0.5"/>
			<path class="st6" d="M109.1,67.3c-0.3-0.3-1.1-0.7-1.4-0.7c-0.3-0.1-0.5-0.1-0.1,0.2c0.4,0.3,1.2,0.4,1.4,0.7"/>
		</g>
	</g>
	<path class="st7" d="M108.5,66.5c0,0,0,14.7,0,15c0,0.2-0.6,0.2-0.6,0V66.2C108,66.3,108.4,66.4,108.5,66.5z"/>
	<g>
		<path class="st5" d="M101.3,72.5c0,0,0.1-0.1,0.1-0.1c0.1-0.1,0.1-0.1,0.3-0.1c0.1-0.2,0-0.6,0.6-0.7c-0.1-0.1-0.1-0.2-0.1-0.3
			c0-0.1-0.1-0.1-0.1-0.1c-0.2,0.1-0.4,0.4-0.5,0.5c-0.1,0.2-0.3,0.5-0.6,0.4c-0.3-0.1-0.5-0.1-0.7,0c-0.2,0.1-0.2,0.1,0.1,0.3
			C100.7,72.4,101,72.5,101.3,72.5z"/>
		<path class="st5" d="M102.4,71.6c-0.3,0-0.5,0.1-0.6,0.4c0,0.1,0,0.2-0.1,0.2c0.2,0,0.4,0,0.5-0.1c0.1-0.1,0.1-0.1,0.1-0.2
			c0-0.1,0-0.2,0-0.2C102.4,71.7,102.4,71.6,102.4,71.6z"/>
		<path class="st8" d="M101.4,72.4C101.4,72.4,101.5,72.4,101.4,72.4c0-0.2-0.1-0.3-0.1-0.5c0-0.2-0.1-0.1-0.2,0
			c-0.1,0.2-0.2,0.4,0,0.7c0,0,0,0,0,0C101.2,72.5,101.4,72.5,101.4,72.4z"/>
		<path class="st8" d="M101.1,71.3c0-0.1,0-0.2,0.1-0.3c0,0,0,0,0,0c0-0.1-0.2-0.2-0.3-0.2c0,0,0,0,0,0c-0.1,0.2,0,0.4,0.1,0.5
			C101,71.5,101.1,71.5,101.1,71.3z"/>
		<path class="st7" d="M107.6,71.8c0-1-0.7-1.9-1.1-2c0-0.9-0.6-1-1-1.1c-0.6-0.1-0.4-0.3-0.8-0.4c-0.2,0-0.5-0.3-0.6-0.2
			c-0.2,0.1-0.3,0.2-0.4,0.2s-0.3,0-0.5,0c-0.2,0.1-0.1,0.3-0.3,0.3c-0.2,0-0.3,0.1-0.4,0.1c-0.1,0-0.3,0.2-0.2,0.3
			c-0.5,0.2-1.3,0.6-1.6,0.6c-0.1,0-0.2,0-0.2,0.2c0,0.2,0,0.1,0.1,0.2c0.1,0.1,0.1,0.2,0,0.3c-0.1,0.1,0,0.1,0.1,0.2
			c-0.1,0.1-0.1,0.3,0.1,0.3s0.3,0.1,0.3,0.2c0.2-0.1,0.4-0.2,0.5-0.1c0.1,0.1,0.1,0.1,0.2,0.1c0.1,0,0.2-0.1,0.3,0.2
			c0.1,0.1,0.1,0.3,0.1,0.3c0.1,0.1-0.2,0.2-0.1,0.4c0.1,0.1-0.2,0.3-0.5,0.3c-0.3,0-0.3,0-0.4,0.1s-0.2,0.1-0.3,0.2
			c-0.1,0.1-0.1,0.1-0.1,0.3c0,0.2,0,0.2,0.1,0.2c0.1,0.1,0.2,0.2,0.2,0.3c-0.1,0.1,0,0.3,0.1,0.4c0.2,0.1,0.3,0.5,0.3,0.6
			c0,0.2,0.1,0.2,0.1,0.1c0-0.1,0-0.2,0-0.4c0.3,0.2,0.3,0.7,0.3,0.9c0,0.2,0,0.4,0.1,0.5c0,0.4,0.2,0.7,0.4,0.8
			c0,0.5,0.6,0.4,0.5,1c0,0.2,0.1,0.2,0.2-0.2c0.2,0.5,0.1,0.6,0.3,0.9c0.1,0.2,0.2,0.1,0.1-0.1c0-0.2,0.1-0.3,0-0.5
			c0.1,0.2,0.3,0.6,0.3,0.7c0,0.2,0.1,0.2,0.1,0c0.1-0.2,0.1-0.4,0-0.6c0.1,0.3,0.4,0.2,0.3,0.9c0,0.7,0,1.4,0,1.7
			c0,0.3,0,0.3-0.1,0.3s-0.2,0.1-0.3,0.2c-0.1,0.1-0.2,0.1-0.3,0.1c-0.2,0-0.4,0.1-0.4,0.3c0,0.2,0.2,0.5,0.6,0.5
			c0.2,0.2,0.4,0.2,0.5,0.1c0.1,0.1,0.3,0.1,0.4,0c0.3,0,0.5,0,0.8,0.1c0.4,0.1,0.8-0.1,0.7-1c-0.1-0.9-0.1-1.4,0.2-1.8
			c0.3-0.4,0.5-0.6,0.4-1c0.6,0.2,1.5-0.3,2.3,0.1c0.1,0.5,0.5,0.6,0.8,0.7c0.2,0.5,0.7,0.8,1,0.9c0.1,0.2,0.2,0.3,0.3,0.4
			c-0.2-0.1-0.3,0.2-0.7,0c-0.3-0.1-0.8,0-1,0.1c-0.3,0-0.6,0.1-0.6,0.3c0,0.2-0.1,0.3-0.2,0.5c-0.1,0.1-0.1,0.3,0.4,0.3
			c0,0.1,0.1,0.1,0.2,0.1c0,0.1,0.3,0.1,0.5,0.1c0.2,0.2,0.5,0.2,0.9,0.1c0.4-0.2,0.9-0.3,1.5-0.2c0.6,0.1,1.2,0.1,1.6,0.1
			c0.6,0.1,1-0.6,0.5-1.1c0.2,0.1,0.6-0.2,0.4-0.7c-0.3-0.7-0.4-1.7-0.3-2.3c0-0.9-0.4-2.4-2.1-2.9c-0.8-0.2-1.5-0.4-2.2-1
			C109.7,73,108.2,72.1,107.6,71.8z"/>
		<path class="st7" d="M110.6,72.1c-0.1,0.2,0,0.4,0.1,0.4c-0.1,0.2-0.1,0.5,0.1,0.8c0.1-0.6,0.6-0.8,1.1-1c0.5-0.1,0.7-0.6,0.6-0.9
			c0-0.2,0.6-0.5,1-0.1c0.4,0.4,0.6,1.1,0.4,1.9c-0.6,2.2-3.5,1.8-4.4,3.5c-0.6,1.1-0.3,2,0.7,2.3c-0.9-1.4-0.1-2.7,1.1-3.1
			c1.6-0.6,2.7-1.3,3-2.5c0.3-1-0.1-2.9-1.7-2.5c-0.4,0.1-0.6,0.1-0.9-0.1c-0.3-0.2-0.6-0.1-0.7,0.4c-0.1,0.4-0.3,0.4-0.6,0.6
			c-0.1,0.1-0.1,0.3-0.2,0.4C110.4,72.1,110.5,72.2,110.6,72.1z"/>
		<g>
			<path class="st9" d="M104.6,69.6c0.1,0.1,0.1,0.2,0.1,0.3c0,0.1,0,0.2,0.2,0.1c0.1-0.1,0.1-0.2,0.3-0.3c0.1-0.1,0.2-0.1,0-0.1
				C104.9,69.5,104.8,69.5,104.6,69.6C104.6,69.5,104.6,69.5,104.6,69.6z"/>
			<path class="st9" d="M102.9,69.4c-0.1,0-0.2-0.1-0.3-0.3c0-0.1-0.2-0.1-0.2,0c0,0.1,0,0.2,0,0.2c0,0.1-0.1,0.2,0,0.2
				c0.2,0,0.2,0,0.3,0c0.1,0,0.2,0.1,0.2,0.2c0,0.1,0.2,0,0.3-0.1c0.1-0.1,0.1-0.1,0,0c-0.1,0.1-0.2,0.2-0.2,0.1
				c0-0.1-0.1-0.1,0-0.1C103,69.4,103,69.4,102.9,69.4z"/>
		</g>
		<g>
			<path class="st6" d="M101.2,70.4c0.2-0.1,1-0.4,1.1-0.5"/>
			<path class="st6" d="M100.8,70.1c0.1,0.1,0.2,0.1,0.2,0.1"/>
			<path class="st6" d="M101,69.9c0.1,0.1,0.1,0.1,0.2,0.1"/>
			<path class="st6" d="M101.3,69.8c0,0,0.1,0.1,0.2,0.2"/>
			<path class="st6" d="M101.6,69.7c0.1,0,0.2,0.1,0.2,0.1"/>
			<path class="st6" d="M101.9,69.6c0.1,0,0.2,0.1,0.2,0.1"/>
			<path class="st6" d="M101.1,70.6c0.5-0.1,1.4-0.1,1.5-0.2"/>
			<path class="st6" d="M102.4,71c-0.1-0.1-0.1-0.4-0.1-0.5c0.1,0.1,0.2,0.2,0.2,0.2"/>
			<path class="st6" d="M102.9,70.5c0.1,0.1,0.2,0.2,0.2,0.3"/>
			<path class="st6" d="M103,71c0.1,0.3,0.2,0.3,0.2,0c0.1,0.1,0.1,0.1,0.2,0c0.1,0.3,0.2,0.2,0.2,0c0.2,0.2,0.2,0.2,0.2,0.1
				c0.1,0,0.1,0,0.1-0.1c0.1,0.2,0.2,0.1,0.2-0.1c0,0,0,0,0.1,0c0.1,0,0.1,0,0.1-0.1c0-0.1,0.1-0.2,0.2-0.3c0.1-0.1,0.1-0.2,0.1-0.3
				"/>
			<path class="st6" d="M103.7,68.3c0.1,0.2,0,0.2-0.1,0.2c-0.1,0-0.2,0-0.3,0"/>
			<path class="st6" d="M103.5,68.8c0.2-0.1,0.3,0,0.4,0.1"/>
			<path class="st6" d="M103.8,69c0.1-0.1,0.2-0.2,0.4,0"/>
			<path class="st6" d="M106.5,69.7c0,0.2,0,0.3,0,0.4c0-0.2-0.3-0.8-0.6-1"/>
			<path class="st6" d="M105.7,69.9c0.2,0.1,0.5,0.4,0.6,0.5c0-0.1,0-0.2,0-0.2"/>
			<path class="st6" d="M106.5,70.5c0.1,0.3,0.2,0.5,0.3,0.6c0-0.2-0.1-0.7-0.1-0.8"/>
			<path class="st6" d="M105,70.3c0.2-0.1,0.3-0.2,0.3-0.3c0-0.1,0.1-0.2,0.2-0.4c0.1-0.1,0.1-0.3,0-0.4s-0.2-0.1-0.4-0.1
				c-0.2,0-0.5-0.1-0.6,0.1"/>
			<path class="st6" d="M104.9,70.7c0.2,0.1,0.4,0.4,0.5,0.5c0-0.1-0.1-0.3,0-0.4"/>
			<path class="st6" d="M105.4,71.3c0.3,0.4,0.2,0.9,0.5,1.1c0.3-0.3,0.4-0.7,0.3-1.1c0-0.2-0.2-0.3-0.2-0.2"/>
			<path class="st6" d="M104.5,71c0.1,0.1,0.2,0.3,0.3,0.5c0.1-0.1,0.1-0.5,0-0.6"/>
			<path class="st6" d="M104.7,71.8c0.1,0.3,0.3,0.5,0.3,0.8c0.1-0.3,0-0.9-0.2-1.2"/>
			<path class="st6" d="M104.8,72.1c0,0.2,0,0.5-0.1,0.6c-0.1,0.2-0.1,0-0.1-0.2c0-0.2-0.1-0.6-0.1-0.8"/>
			<path class="st6" d="M103.8,71.1c0,0.1,0,0.4,0,0.5c-0.1-0.1-0.2-0.2-0.2-0.3"/>
			<path class="st6" d="M103.5,71.5c0,0.3,0,0.7,0.2,0.9c0.2,0.2,0.5,0.3,0.5,0.5c0-0.2,0-0.5-0.2-0.7"/>
			<path class="st6" d="M104,72.6c0,0.2,0,0.7-0.2,0.9c0-0.3,0.1-0.5-0.1-0.8c-0.3-0.4-0.1-0.7-0.3-0.9"/>
			<path class="st6" d="M104.2,73.2c-0.1,0.2-0.2,0.6,0.2,1.1c0.2-0.2,0.1-0.6,0.2-0.7"/>
			<path class="st6" d="M102.2,72.6c0.3,0.3,0.5,0.7,0.6,0.9c0,0.3,0.1,0.4,0.2,0.5c0.1,0.1,0.1,0.1,0.1-0.2c0-0.3-0.2-0.5-0.2-0.8
				c0-0.3-0.2-0.5-0.3-0.6"/>
			<path class="st6" d="M101.4,72.8c0.2,0.4,0.5,0.2,0.7,0.5c0-0.3-0.2-0.6-0.4-0.7"/>
			<path class="st6" d="M102,72.7c0.2,0.1,0.4,0.3,0.5,0.4"/>
			<path class="st6" d="M101.8,74.2c0-0.3-0.1-0.7-0.2-0.8"/>
			<path class="st6" d="M102.2,75.5c0-0.4,0.2-0.7,0.2-0.9c-0.1-0.2-0.4-0.8-0.4-1.1"/>
			<path class="st6" d="M102.2,73.8c0,0.2,0.1,0.5,0.2,0.6"/>
			<path class="st6" d="M103.2,76.3c-0.3-0.1-0.3-0.5-0.3-1.5"/>
			<path class="st6" d="M103.3,77.2c0-0.1,0-0.4-0.1-0.5"/>
			<path class="st6" d="M102.6,76.4c0-0.1,0-0.3,0-0.4"/>
			<path class="st6" d="M103.2,72.7c0.4,0.6,0.2,1.2,0.2,1.8c0,0.6,0,1.1,0.2,1.4"/>
			<path class="st6" d="M107.1,71.1c0.1,0.3,0.2,0.7,0.2,0.9c0.1-0.2,0.1-0.9,0-1.1"/>
			<path class="st6" d="M107.6,71.8c0,0.5-0.1,1.4,0.1,1.6c0.1,0.3,0.1,0.6-0.1,0.5c-0.2-0.2-0.3-0.6-0.3-0.8"/>
			<path class="st6" d="M107.4,73.4c-0.5-0.3-0.7-1-0.8-1.4c0-0.4,0-0.7-0.1-0.9"/>
			<path class="st6" d="M108.1,73.4c0,0.3,0.1,0.9,0.1,1.1"/>
			<path class="st6" d="M108.5,73.6c0,0.2,0,0.7,0.1,0.9"/>
			<path class="st6" d="M108.7,73.9c0,0.3,0.1,0.8,0.2,0.9"/>
			<path class="st6" d="M108.9,74.1c0,0.3,0,0.6,0.2,0.9"/>
			<path class="st6" d="M106.3,72.7c-0.1,0.8-0.1,1.1,0.4,1.4c-0.1-0.4-0.1-1,0-1.1"/>
			<path class="st6" d="M106.7,74.1c-0.2,0.6-0.4,1.1,0.4,1.9"/>
			<path class="st6" d="M105.3,72.9c-0.1,1.6,0.7,1.8,0.8,2c0.3-0.7,0.3-1.4-0.1-2"/>
			<path class="st6" d="M105.8,74.6c0,0.6,0.1,1,0.4,1.4c0.1-0.4,0.2-0.9,0.1-1.2"/>
			<path class="st6" d="M106.5,75.8c0,0.3-0.1,0.5-0.2,0.6"/>
			<path class="st6" d="M104.9,75.2c0.1,0.4,0.2,0.7,0.5,0.9"/>
			<path class="st6" d="M104.6,74.1c0,0.3,0.1,0.8,0.3,0.9c0,0,0.1-0.2,0.1-0.2c0.2,0.2,0.4,0.6,0.4,0.9c0.2-0.1,0.3-0.3,0.3-0.7"/>
			<path class="st6" d="M103.9,74.8c0.3,0.6-0.3,1.5,0.6,2.3c-0.1-0.6-0.2-1.1,0.1-1.4"/>
			<path class="st6" d="M104.7,75.4c-0.1,0.6-0.1,1.1,0.4,1.7c-0.1-0.2-0.3-0.9,0-1.2"/>
			<path class="st6" d="M105.5,76.9c0,0.3,0,0.5,0.2,0.7c0-0.3,0.1-0.9,0.2-1"/>
			<path class="st6" d="M103.8,77.5c-0.1-0.2-0.2-0.6-0.2-0.8"/>
			<path class="st6" d="M105.5,78.1c-0.1,0.3-0.4,0.2-0.3,1.1c0.1,0.8,0.2,1.5-0.1,1.7c-0.3,0.2-0.5,0.4-0.4,0.6
				c0,0.2,0,0.2,0.2,0.3"/>
			<path class="st6" d="M105.1,81.7c-0.2,0-0.3-0.4-0.1-0.6c0.3-0.3,0.4-0.2,0.4-0.4"/>
			<path class="st6" d="M104.2,81.6c-0.1-0.1,0-0.5,0.3-0.6"/>
			<path class="st6" d="M104.9,77.8c0,0.3,0.2,1,0.1,1.3c0.1-0.1,0.1-0.2,0.1-0.3"/>
			<path class="st6" d="M107.2,78.1c0-0.3-0.3-0.4-0.3-0.8"/>
			<path class="st6" d="M107.4,77.3c0.1,0.2,0.2,0.3,0.3,0.4"/>
			<path class="st6" d="M107.7,77.3c0.1,0.1,0.2,0.4,0.3,0.5"/>
			<path class="st6" d="M108.3,77.5c0.1,0.1,0.1,0.2,0.2,0.2"/>
			<path class="st6" d="M108.6,77.5c0.1,0.1,0.1,0.2,0.1,0.3"/>
			<path class="st6" d="M108.8,77.4c0.1,0.1,0.1,0.2,0.1,0.3"/>
			<path class="st6" d="M109,77.4c0.1,0.1,0.1,0.2,0.1,0.2"/>
			<path class="st6" d="M110.3,77.6c-0.1,0.3,0,0.7,0,0.8"/>
			<path class="st6" d="M110.5,77.9c0,0.2,0,0.5,0.1,0.7"/>
			<path class="st6" d="M110.8,78.1c-0.1,0.2-0.1,0.5,0,0.7"/>
			<path class="st6" d="M111,78.4c-0.1,0.3-0.1,0.6,0,0.8"/>
			<path class="st6" d="M111.3,78.9c0,0.1,0,0.3,0.1,0.4"/>
			<path class="st6" d="M111.6,79.1c0,0.2,0,0.3,0,0.4"/>
			<path class="st6" d="M111.9,79.3c0,0.1,0.1,0.2,0.1,0.3"/>
			<path class="st6" d="M112.2,79.3c0,0.1,0.1,0.2,0.1,0.2"/>
			<path class="st6" d="M109.4,81.3c-0.1-0.1,0-0.1,0.1-0.4c0.1-0.3,0.2-0.5,0.3-0.5"/>
			<path class="st6" d="M109.5,81.4c0-0.3,0.2-0.3,0.3-0.5"/>
			<path class="st6" d="M110,81.6c-0.1-0.1,0-0.4,0.2-0.5"/>
			<path class="st6" d="M111.2,79.8c0.5,0.2,1.4,0.1,1.8,0.4"/>
			<path class="st6" d="M111.5,80.2c0.2,0.1,0.8,0.2,1.1,0.1"/>
			<path class="st6" d="M114.5,80.4c-0.1-0.2-0.4-0.2-0.4-0.7"/>
			<path class="st6" d="M111.9,80.7c0.1,0.1,0.2,0.2,0.4,0.1c0.1-0.1,0.1,0,0.1,0c0,0.1,0.1,0,0.1-0.1s0.1-0.1,0.2,0"/>
			<path class="st6" d="M114.1,79c-0.1,0.1-0.1,0.4-0.1,0.5"/>
			<path class="st6" d="M114,78.7c0,0.1-0.1,0.3-0.1,0.3"/>
			<path class="st6" d="M113.9,78.5c0,0.1-0.1,0.3-0.1,0.4"/>
			<path class="st6" d="M113.9,78.1c0,0.1-0.1,0.4-0.1,0.4"/>
			<path class="st6" d="M113.9,77.4c-0.1,0.1-0.2,0.3-0.2,0.5"/>
			<path class="st6" d="M113.7,76.8c0,0.3,0,0.7-0.1,0.9"/>
			<path class="st6" d="M110.7,72.5c0.1-0.2,0.2-0.2,0.3-0.3"/>
			<path class="st6" d="M111,71.9c0.1-0.3,0.4-0.6,0.9-0.6"/>
			<path class="st6" d="M112,71c-0.4,0-0.6,0-0.6,0.2"/>
			<path class="st6" d="M111,72.3c0.1-0.5,0.8-0.3,1-0.9"/>
			<path class="st6" d="M112.3,71.5c-0.2,0.6-0.8,0.4-1,0.9"/>
			<path class="st6" d="M110.8,73.2c0-0.3,0.1-0.6,0.3-0.8"/>
			<path class="st6" d="M110.6,72.1c0.1-0.2,0.1-0.3,0.2-0.4"/>
			<path class="st6" d="M110.6,71.9c0.2-0.4,0.5-0.3,0.6-0.6"/>
			<path class="st6" d="M112.4,71.2c-0.2,0.1-0.2,0.5-0.6,0.7"/>
			<path class="st6" d="M111,72.6c0.2-0.3,0.7-0.3,1-0.6"/>
		</g>
	</g>
	<g>
		<polygon class="st10" points="100.1,64.3 101,63.5 101.3,63.8 100,65.1 99.7,64.7 99.3,62.6 98.5,63.4 98.1,63.1 99.4,61.9 
			99.8,62.2 		"/>
		<polygon class="st10" points="103.6,62.4 103.2,61.5 101.7,60.2 102.2,60 103.2,60.9 103.1,59.6 103.6,59.4 103.6,61.3 104,62.2 
					"/>
		<path class="st10" d="M107.7,58.6c0,0,0.1,1.7,0.2,2.1c0,0.3-0.2,0.7-0.7,0.8c-0.5,0-0.7-0.3-0.8-0.6l0-0.5l0.5,0
			c0,0.4,0.1,0.6,0.3,0.6c0.2,0,0.3-0.3,0.2-0.5c0-0.3-0.1-1.8-0.1-1.8L107.7,58.6z"/>
		<path class="st10" d="M109.5,60.9c0.3,0,0.5-0.2,0.5-0.4c0-0.2,0.2-1.8,0.2-1.8l0.5,0.1c0,0-0.2,1.4-0.2,1.8
			c-0.1,0.4-0.3,0.9-1,0.8c-0.7-0.1-0.8-0.6-0.8-1.1c0-0.4,0.2-1.8,0.2-1.8l0.5,0.1c0,0-0.2,1.6-0.2,1.8
			C109.1,60.6,109.2,60.9,109.5,60.9z"/>
		<path class="st10" d="M112.8,60.3c0.1-0.2,0-0.4-0.3-0.5c-0.3-0.1-0.4,0.1-0.5,0.2c0,0.1,0,0.3,0.4,0.5c0.4,0.2,0.7,0.5,0.5,1
			c-0.2,0.5-0.6,0.7-1.2,0.5c-0.6-0.2-0.6-0.8-0.5-1.1l0.4,0.2c-0.1,0.3,0.1,0.5,0.3,0.6c0.3,0.1,0.5,0,0.5-0.2
			c0.1-0.2,0-0.4-0.3-0.5c-0.7-0.4-0.7-0.7-0.6-1c0.1-0.3,0.4-0.7,1.1-0.5c0.6,0.2,0.7,0.7,0.6,1.1L112.8,60.3z"/>
		<polygon class="st10" points="113.8,62.9 115,60.9 114.4,60.5 114.7,60.1 116.3,61.2 116,61.6 115.4,61.2 114.2,63.1 		"/>
		
			<rect x="114.9" y="62.8" transform="matrix(0.6773 -0.7357 0.7357 0.6773 -8.8247 105.9045)" class="st10" width="2.8" height="0.5"/>
		<path class="st10" d="M118.5,64.7c0.1-0.1,0.3-0.4,0.1-0.7c-0.2-0.3-0.6-0.2-1.1,0.1c-0.4,0.3-0.6,0.7-0.4,1
			c0.2,0.3,0.5,0.2,0.7,0.1l0.3,0.3c-0.5,0.3-1,0.3-1.4-0.2c-0.4-0.5-0.2-1.1,0.5-1.6c0.7-0.5,1.3-0.5,1.7,0
			c0.4,0.5,0.2,1.1-0.2,1.3L118.5,64.7z"/>
		
			<rect x="117.5" y="65.9" transform="matrix(0.8824 -0.4706 0.4706 0.8824 -17.1664 63.7264)" class="st10" width="2.8" height="0.5"/>
		<path class="st10" d="M96.6,68.5c0,0-0.8-0.3-0.8-0.3c0,0,0.1-0.3,0.2-0.4c0.1-0.2,0.3-0.3,0.5-0.2c0.2,0.1,0.4,0.3,0.3,0.5
			C96.7,68.2,96.6,68.5,96.6,68.5l0.4,0.1c0,0,0.1-0.3,0.2-0.6c0.2-0.4-0.2-0.8-0.6-1c-0.5-0.2-0.9,0-1.1,0.4c-0.2,0.6-0.4,1-0.4,1
			l2.6,0.9l0.2-0.4L97,68.6L96.6,68.5z"/>
		<path class="st10" d="M98.3,65.8c-0.1,0.1-0.2,0.2-0.2,0.2l-0.8-0.9l1.1,0.3C98.5,65.5,98.4,65.7,98.3,65.8l0.4,0.3
			c0.1-0.2,0.3-0.4,0.3-0.4l0.6,0.2l0.3-0.4L97,64.6l-0.3,0.5l1.9,2.2l0.3-0.4l-0.4-0.4c0,0,0.1-0.2,0.2-0.3L98.3,65.8z"/>
		<path class="st10" d="M119.4,68.3c0-0.1-0.1-0.3-0.1-0.3l1.2,0l-1,0.6C119.5,68.7,119.5,68.5,119.4,68.3l-0.4,0.1
			c0.1,0.2,0.1,0.5,0.1,0.5l-0.5,0.3l0.1,0.4l2.4-1.6l-0.2-0.5l-2.9,0.1l0.1,0.4l0.6,0c0,0,0.1,0.2,0.1,0.4L119.4,68.3z"/>
	</g>
</g>
</svg>
