<?xml version="1.0" encoding="utf-8"?>
<!-- Generator: Adobe Illustrator 22.1.0, SVG Export Plug-In . SVG Version: 6.00 Build 0)  -->
<svg version="1.1" id="layer_1" xmlns="http://www.w3.org/2000/svg" xmlns:xlink="http://www.w3.org/1999/xlink" x="0px" y="0px"
	 viewBox="0 0 216 144" style="enable-background:new 0 0 216 144;" xml:space="preserve">
<style type="text/css">
	.st0{fill:#20603D;}
	.st1{fill:#FAD201;}
	.st2{fill:#00A1DE;}
	.st3{fill:#E5BE01;}
	.st4{fill:#E5BE01;stroke:#00A1DE;stroke-width:3.4;}
</style>
<rect class="st0" width="216" height="144"/>
<rect class="st1" width="216" height="108"/>
<rect class="st2" width="216" height="72"/>
<g>
	<g id="h">
		<path id="q" class="st3" d="M-686-150.5l-16.1,0.9l15.3,5.1l-15.8-3.3l13.5,8.9l-14.4-7.2l10.7,12l-12-10.7l7.2,14.4l-8.9-13.5
			l3.3,15.8l-5.1-15.3l-0.9,16.1l-0.2-23.4L-686-150.5z"/>
		<g transform="scale(1,-1)">
			<path id="q_1_" class="st3" d="M-686-150.5l-16.1-0.9l15.3-5.1l-15.8,3.3l13.5-8.9l-14.4,7.2l10.7-12l-12,10.7l7.2-14.4
				l-8.9,13.5l3.3-15.8l-5.1,15.3l-0.9-16.1l-0.2,23.4L-686-150.5z"/>
		</g>
	</g>
	<g transform="translate(886.5,188.1)">
		<g id="h_1_">
			<path id="q_2_" class="st3" d="M-732.4-150.5l16.1,0.9l-15.3,5.1l15.8-3.3l-13.5,8.9l14.4-7.2l-10.7,12l12-10.7l-7.2,14.4
				l8.9-13.5l-3.3,15.8l5.1-15.3l0.9,16.1l0.2-23.4L-732.4-150.5z"/>
			<g transform="scale(-1,1)">
				<path id="q_3_" class="st3" d="M-732.4-150.5l16.1-0.9l-15.3-5.1l15.8,3.3l-13.5-8.9l14.4,7.2l-10.7-12l12,10.7l-7.2-14.4
					l8.9,13.5l-3.3-15.8l5.1,15.3l0.9-16.1l0.2,23.4L-732.4-150.5z"/>
			</g>
		</g>
		<circle class="st4" cx="-709.2" cy="-150.5" r="6.9"/>
	</g>
</g>
</svg>
