<?xml version="1.0" encoding="utf-8"?>
<!-- Generator: Adobe Illustrator 22.1.0, SVG Export Plug-In . SVG Version: 6.00 Build 0)  -->
<svg version="1.1" id="layer_1" xmlns="http://www.w3.org/2000/svg" xmlns:xlink="http://www.w3.org/1999/xlink" x="0px" y="0px"
	 viewBox="0 0 216 144" style="enable-background:new 0 0 216 144;" xml:space="preserve">
<style type="text/css">
	.st0{fill:#4868A6;}
	.st1{fill:#D14A48;}
	.st2{fill:#FFFFFF;}
</style>
<rect x="0.5" y="48.5" class="st0" width="216" height="48"/>
<rect x="0.5" y="96.5" class="st1" width="216" height="48"/>
<path class="st2" d="M116.8,48.5c0.3,5.5,1.9,23-1.7,32.9c-5,13.7-14.1,23.7-29.2,29.3c-15.1-5.6-24.2-15.6-29.2-29.3
	c-3.6-9.9-2-27.4-1.7-32.9H0.5v-48h216v48H116.8z"/>
<path class="st1" d="M114.1,36.5c0.5,10.6,1.4,26.8,1,34.9c-0.3,5.8-4.2,27.1-29.2,37.3C60.9,98.4,57,77.2,56.7,71.3
	c-0.4-8,0.5-24.3,1-34.9H114.1z"/>
<path class="st2" d="M85.9,39.5c1,0,3.2,0,4.1-0.2c-0.8,2.5-1.4,7.3-1.4,10.9c2.9,0.8,10-0.6,12.1-1.6c-0.3,2.5-0.5,7,0.4,9
	c-2.8-1-6.7-1.7-12.5-1.7c0,1.3,0,6.4,0,7.4c4.8,0.6,13.2-0.8,15.5-1.6c-0.6,2.6-0.6,6.8-0.2,8.8c-3.5-1.5-10.4-2-15.3-2
	c0,1.6,0,11.8,0,11.8c-0.7-0.3-1.7-0.6-2.7-0.6c-1,0-2,0.3-2.7,0.6c0,0,0-10.3,0-11.8c-4.9,0-11.8,0.5-15.3,2c0.4-2,0.4-6.2-0.2-8.8
	c2.3,0.8,10.7,2.2,15.5,1.6c0-1,0-6.1,0-7.4c-5.8,0-9.7,0.6-12.5,1.7c0.8-2,0.6-6.6,0.4-9c2.1,1,9.2,2.4,12.1,1.6
	c0-3.6-0.6-8.4-1.4-10.9C82.7,39.5,85,39.5,85.9,39.5z"/>
<path class="st0" d="M85.9,108.6c11.7-4.7,18.7-11.8,23-18.7c-1.2-3.1-3.8-5.7-7.3-5.7c-3.5,0-5.5,2.6-6.7,4.1c-1.7-5-5.2-8.5-9-8.5
	c-3.8,0-7.4,3.6-9,8.5c-1.2-1.5-3.2-4.1-6.7-4.1c-3.5,0-6,2.5-7.3,5.7C67.2,96.7,74.3,103.9,85.9,108.6z"/>
</svg>
