<?xml version="1.0" encoding="utf-8"?>
<!-- Generator: Adobe Illustrator 22.1.0, SVG Export Plug-In . SVG Version: 6.00 Build 0)  -->
<svg version="1.1" id="layer_1" xmlns="http://www.w3.org/2000/svg" xmlns:xlink="http://www.w3.org/1999/xlink" x="0px" y="0px"
	 viewBox="0 0 216 144" style="enable-background:new 0 0 216 144;" xml:space="preserve">
<style type="text/css">
	.st0{fill:#FFFFFF;}
	.st1{fill:#B22234;}
	.st2{fill:#3C3B6E;}
</style>
<rect x="0.5" y="0.2" class="st0" width="216" height="143.8"/>
<g>
	<rect id="stripe" x="0.5" y="0.2" class="st1" width="216" height="11.1"/>
</g>
<g>
	<rect id="stripe_1_" x="0.5" y="22.3" class="st1" width="216" height="11.1"/>
</g>
<g>
	<rect id="stripe_2_" x="0.5" y="44.4" class="st1" width="216" height="11.1"/>
</g>
<g>
	<rect id="stripe_3_" x="0.5" y="66.5" class="st1" width="216" height="11.1"/>
</g>
<g>
	<rect id="stripe_4_" x="0.5" y="88.7" class="st1" width="216" height="11.1"/>
</g>
<g>
	<rect id="stripe_5_" x="0.5" y="110.8" class="st1" width="216" height="11.1"/>
</g>
<g>
	<rect id="stripe_6_" x="0.5" y="132.9" class="st1" width="216" height="11.1"/>
</g>
<rect x="0.5" y="0.2" class="st2" width="86.4" height="77.5"/>
<g>
	<polygon id="star" class="st0" points="9.5,11 10.2,8.4 8.4,6.7 10.6,6.7 11.3,4.1 12,6.7 14.2,6.7 12.4,8.4 13.1,11 11.3,9.4 	"/>
</g>
<g>
	<polygon id="star_1_" class="st0" points="20.3,11 21,8.4 19.2,6.7 21.4,6.7 22.1,4.1 22.8,6.7 25,6.7 23.2,8.4 23.9,11 22.1,9.4 	
		"/>
</g>
<g>
	<polygon id="star_2_" class="st0" points="31.1,11 31.8,8.4 30,6.7 32.2,6.7 32.9,4.1 33.6,6.7 35.8,6.7 34,8.4 34.7,11 32.9,9.4 	
		"/>
</g>
<g>
	<polygon id="star_3_" class="st0" points="41.9,11 42.6,8.4 40.8,6.7 43,6.7 43.7,4.1 44.4,6.7 46.6,6.7 44.8,8.4 45.5,11 
		43.7,9.4 	"/>
</g>
<g>
	<polygon id="star_4_" class="st0" points="52.7,11 53.4,8.4 51.6,6.7 53.8,6.7 54.5,4.1 55.2,6.7 57.4,6.7 55.6,8.4 56.3,11 
		54.5,9.4 	"/>
</g>
<g>
	<polygon id="star_5_" class="st0" points="63.5,11 64.2,8.4 62.4,6.7 64.6,6.7 65.3,4.1 66,6.7 68.2,6.7 66.4,8.4 67.1,11 
		65.3,9.4 	"/>
</g>
<g>
	<polygon id="star_6_" class="st0" points="74.3,11 75,8.4 73.2,6.7 75.4,6.7 76.1,4.1 76.8,6.7 79,6.7 77.2,8.4 77.9,11 76.1,9.4 	
		"/>
</g>
<g>
	<polygon id="star_7_" class="st0" points="9.5,26.5 10.2,23.8 8.4,22.2 10.6,22.2 11.3,19.6 12,22.2 14.2,22.2 12.4,23.8 
		13.1,26.5 11.3,24.9 	"/>
</g>
<g>
	<polygon id="star_8_" class="st0" points="20.3,26.5 21,23.8 19.2,22.2 21.4,22.2 22.1,19.6 22.8,22.2 25,22.2 23.2,23.8 
		23.9,26.5 22.1,24.9 	"/>
</g>
<g>
	<polygon id="star_9_" class="st0" points="31.1,26.5 31.8,23.8 30,22.2 32.2,22.2 32.9,19.6 33.6,22.2 35.8,22.2 34,23.8 
		34.7,26.5 32.9,24.9 	"/>
</g>
<g>
	<polygon id="star_10_" class="st0" points="41.9,26.5 42.6,23.8 40.8,22.2 43,22.2 43.7,19.6 44.4,22.2 46.6,22.2 44.8,23.8 
		45.5,26.5 43.7,24.9 	"/>
</g>
<g>
	<polygon id="star_11_" class="st0" points="52.7,26.5 53.4,23.8 51.6,22.2 53.8,22.2 54.5,19.6 55.2,22.2 57.4,22.2 55.6,23.8 
		56.3,26.5 54.5,24.9 	"/>
</g>
<g>
	<polygon id="star_12_" class="st0" points="63.5,26.5 64.2,23.8 62.4,22.2 64.6,22.2 65.3,19.6 66,22.2 68.2,22.2 66.4,23.8 
		67.1,26.5 65.3,24.9 	"/>
</g>
<g>
	<polygon id="star_13_" class="st0" points="74.3,26.5 75,23.8 73.2,22.2 75.4,22.2 76.1,19.6 76.8,22.2 79,22.2 77.2,23.8 
		77.9,26.5 76.1,24.9 	"/>
</g>
<g>
	<polygon id="star_14_" class="st0" points="9.5,42 10.2,39.3 8.4,37.7 10.6,37.7 11.3,35.1 12,37.7 14.2,37.7 12.4,39.3 13.1,42 
		11.3,40.3 	"/>
</g>
<g>
	<polygon id="star_15_" class="st0" points="20.3,42 21,39.3 19.2,37.7 21.4,37.7 22.1,35.1 22.8,37.7 25,37.7 23.2,39.3 23.9,42 
		22.1,40.3 	"/>
</g>
<g>
	<polygon id="star_16_" class="st0" points="31.1,42 31.8,39.3 30,37.7 32.2,37.7 32.9,35.1 33.6,37.7 35.8,37.7 34,39.3 34.7,42 
		32.9,40.3 	"/>
</g>
<g>
	<polygon id="star_17_" class="st0" points="41.9,42 42.6,39.3 40.8,37.7 43,37.7 43.7,35.1 44.4,37.7 46.6,37.7 44.8,39.3 45.5,42 
		43.7,40.3 	"/>
</g>
<g>
	<polygon id="star_18_" class="st0" points="52.7,42 53.4,39.3 51.6,37.7 53.8,37.7 54.5,35.1 55.2,37.7 57.4,37.7 55.6,39.3 
		56.3,42 54.5,40.3 	"/>
</g>
<g>
	<polygon id="star_19_" class="st0" points="63.5,42 64.2,39.3 62.4,37.7 64.6,37.7 65.3,35.1 66,37.7 68.2,37.7 66.4,39.3 67.1,42 
		65.3,40.3 	"/>
</g>
<g>
	<polygon id="star_20_" class="st0" points="74.3,42 75,39.3 73.2,37.7 75.4,37.7 76.1,35.1 76.8,37.7 79,37.7 77.2,39.3 77.9,42 
		76.1,40.3 	"/>
</g>
<g>
	<polygon id="star_21_" class="st0" points="9.5,57.5 10.2,54.8 8.4,53.2 10.6,53.2 11.3,50.5 12,53.2 14.2,53.2 12.4,54.8 
		13.1,57.5 11.3,55.8 	"/>
</g>
<g>
	<polygon id="star_22_" class="st0" points="20.3,57.5 21,54.8 19.2,53.2 21.4,53.2 22.1,50.5 22.8,53.2 25,53.2 23.2,54.8 
		23.9,57.5 22.1,55.8 	"/>
</g>
<g>
	<polygon id="star_23_" class="st0" points="31.1,57.5 31.8,54.8 30,53.2 32.2,53.2 32.9,50.5 33.6,53.2 35.8,53.2 34,54.8 
		34.7,57.5 32.9,55.8 	"/>
</g>
<g>
	<polygon id="star_24_" class="st0" points="41.9,57.5 42.6,54.8 40.8,53.2 43,53.2 43.7,50.5 44.4,53.2 46.6,53.2 44.8,54.8 
		45.5,57.5 43.7,55.8 	"/>
</g>
<g>
	<polygon id="star_25_" class="st0" points="52.7,57.5 53.4,54.8 51.6,53.2 53.8,53.2 54.5,50.5 55.2,53.2 57.4,53.2 55.6,54.8 
		56.3,57.5 54.5,55.8 	"/>
</g>
<g>
	<polygon id="star_26_" class="st0" points="63.5,57.5 64.2,54.8 62.4,53.2 64.6,53.2 65.3,50.5 66,53.2 68.2,53.2 66.4,54.8 
		67.1,57.5 65.3,55.8 	"/>
</g>
<g>
	<polygon id="star_27_" class="st0" points="74.3,57.5 75,54.8 73.2,53.2 75.4,53.2 76.1,50.5 76.8,53.2 79,53.2 77.2,54.8 
		77.9,57.5 76.1,55.8 	"/>
</g>
<g>
	<polygon id="star_28_" class="st0" points="9.5,73 10.2,70.3 8.4,68.7 10.6,68.7 11.3,66 12,68.7 14.2,68.7 12.4,70.3 13.1,73 
		11.3,71.3 	"/>
</g>
<g>
	<polygon id="star_29_" class="st0" points="20.3,73 21,70.3 19.2,68.7 21.4,68.7 22.1,66 22.8,68.7 25,68.7 23.2,70.3 23.9,73 
		22.1,71.3 	"/>
</g>
<g>
	<polygon id="star_30_" class="st0" points="31.1,73 31.8,70.3 30,68.7 32.2,68.7 32.9,66 33.6,68.7 35.8,68.7 34,70.3 34.7,73 
		32.9,71.3 	"/>
</g>
<g>
	<polygon id="star_31_" class="st0" points="41.9,73 42.6,70.3 40.8,68.7 43,68.7 43.7,66 44.4,68.7 46.6,68.7 44.8,70.3 45.5,73 
		43.7,71.3 	"/>
</g>
<g>
	<polygon id="star_32_" class="st0" points="52.7,73 53.4,70.3 51.6,68.7 53.8,68.7 54.5,66 55.2,68.7 57.4,68.7 55.6,70.3 56.3,73 
		54.5,71.3 	"/>
</g>
<g>
	<polygon id="star_33_" class="st0" points="63.5,73 64.2,70.3 62.4,68.7 64.6,68.7 65.3,66 66,68.7 68.2,68.7 66.4,70.3 67.1,73 
		65.3,71.3 	"/>
</g>
<g>
	<polygon id="star_34_" class="st0" points="74.3,73 75,70.3 73.2,68.7 75.4,68.7 76.1,66 76.8,68.7 79,68.7 77.2,70.3 77.9,73 
		76.1,71.3 	"/>
</g>
<g>
	<polygon id="star_35_" class="st0" points="4.1,18.8 4.8,16.1 3,14.5 5.2,14.5 5.9,11.8 6.6,14.5 8.8,14.5 7,16.1 7.7,18.8 
		5.9,17.1 	"/>
</g>
<g>
	<polygon id="star_36_" class="st0" points="14.9,18.8 15.6,16.1 13.8,14.5 16,14.5 16.7,11.8 17.4,14.5 19.6,14.5 17.8,16.1 
		18.5,18.8 16.7,17.1 	"/>
</g>
<g>
	<polygon id="star_37_" class="st0" points="25.7,18.8 26.4,16.1 24.6,14.5 26.8,14.5 27.5,11.8 28.2,14.5 30.4,14.5 28.6,16.1 
		29.3,18.8 27.5,17.1 	"/>
</g>
<g>
	<polygon id="star_38_" class="st0" points="36.5,18.8 37.2,16.1 35.4,14.5 37.6,14.5 38.3,11.8 39,14.5 41.2,14.5 39.4,16.1 
		40.1,18.8 38.3,17.1 	"/>
</g>
<g>
	<polygon id="star_39_" class="st0" points="47.3,18.8 48,16.1 46.2,14.5 48.4,14.5 49.1,11.8 49.8,14.5 52,14.5 50.2,16.1 
		50.9,18.8 49.1,17.1 	"/>
</g>
<g>
	<polygon id="star_40_" class="st0" points="58.1,18.8 58.8,16.1 57,14.5 59.2,14.5 59.9,11.8 60.6,14.5 62.8,14.5 61,16.1 
		61.7,18.8 59.9,17.1 	"/>
</g>
<g>
	<polygon id="star_41_" class="st0" points="68.9,18.8 69.6,16.1 67.8,14.5 70,14.5 70.7,11.8 71.4,14.5 73.6,14.5 71.8,16.1 
		72.5,18.8 70.7,17.1 	"/>
</g>
<g>
	<polygon id="star_42_" class="st0" points="79.7,18.8 80.4,16.1 78.6,14.5 80.8,14.5 81.5,11.8 82.2,14.5 84.4,14.5 82.6,16.1 
		83.3,18.8 81.5,17.1 	"/>
</g>
<g>
	<polygon id="star_43_" class="st0" points="4.1,34.2 4.8,31.6 3,30 5.2,30 5.9,27.3 6.6,30 8.8,30 7,31.6 7.7,34.2 5.9,32.6 	"/>
</g>
<g>
	<polygon id="star_44_" class="st0" points="14.9,34.2 15.6,31.6 13.8,30 16,30 16.7,27.3 17.4,30 19.6,30 17.8,31.6 18.5,34.2 
		16.7,32.6 	"/>
</g>
<g>
	<polygon id="star_45_" class="st0" points="25.7,34.2 26.4,31.6 24.6,30 26.8,30 27.5,27.3 28.2,30 30.4,30 28.6,31.6 29.3,34.2 
		27.5,32.6 	"/>
</g>
<g>
	<polygon id="star_46_" class="st0" points="36.5,34.2 37.2,31.6 35.4,30 37.6,30 38.3,27.3 39,30 41.2,30 39.4,31.6 40.1,34.2 
		38.3,32.6 	"/>
</g>
<g>
	<polygon id="star_47_" class="st0" points="47.3,34.2 48,31.6 46.2,30 48.4,30 49.1,27.3 49.8,30 52,30 50.2,31.6 50.9,34.2 
		49.1,32.6 	"/>
</g>
<g>
	<polygon id="star_48_" class="st0" points="58.1,34.2 58.8,31.6 57,30 59.2,30 59.9,27.3 60.6,30 62.8,30 61,31.6 61.7,34.2 
		59.9,32.6 	"/>
</g>
<g>
	<polygon id="star_49_" class="st0" points="68.9,34.2 69.6,31.6 67.8,30 70,30 70.7,27.3 71.4,30 73.6,30 71.8,31.6 72.5,34.2 
		70.7,32.6 	"/>
</g>
<g>
	<polygon id="star_50_" class="st0" points="79.7,34.2 80.4,31.6 78.6,30 80.8,30 81.5,27.3 82.2,30 84.4,30 82.6,31.6 83.3,34.2 
		81.5,32.6 	"/>
</g>
<g>
	<polygon id="star_51_" class="st0" points="4.1,49.7 4.8,47.1 3,45.4 5.2,45.4 5.9,42.8 6.6,45.4 8.8,45.4 7,47.1 7.7,49.7 
		5.9,48.1 	"/>
</g>
<g>
	<polygon id="star_52_" class="st0" points="14.9,49.7 15.6,47.1 13.8,45.4 16,45.4 16.7,42.8 17.4,45.4 19.6,45.4 17.8,47.1 
		18.5,49.7 16.7,48.1 	"/>
</g>
<g>
	<polygon id="star_53_" class="st0" points="25.7,49.7 26.4,47.1 24.6,45.4 26.8,45.4 27.5,42.8 28.2,45.4 30.4,45.4 28.6,47.1 
		29.3,49.7 27.5,48.1 	"/>
</g>
<g>
	<polygon id="star_54_" class="st0" points="36.5,49.7 37.2,47.1 35.4,45.4 37.6,45.4 38.3,42.8 39,45.4 41.2,45.4 39.4,47.1 
		40.1,49.7 38.3,48.1 	"/>
</g>
<g>
	<polygon id="star_55_" class="st0" points="47.3,49.7 48,47.1 46.2,45.4 48.4,45.4 49.1,42.8 49.8,45.4 52,45.4 50.2,47.1 
		50.9,49.7 49.1,48.1 	"/>
</g>
<g>
	<polygon id="star_56_" class="st0" points="58.1,49.7 58.8,47.1 57,45.4 59.2,45.4 59.9,42.8 60.6,45.4 62.8,45.4 61,47.1 
		61.7,49.7 59.9,48.1 	"/>
</g>
<g>
	<polygon id="star_57_" class="st0" points="68.9,49.7 69.6,47.1 67.8,45.4 70,45.4 70.7,42.8 71.4,45.4 73.6,45.4 71.8,47.1 
		72.5,49.7 70.7,48.1 	"/>
</g>
<g>
	<polygon id="star_58_" class="st0" points="79.7,49.7 80.4,47.1 78.6,45.4 80.8,45.4 81.5,42.8 82.2,45.4 84.4,45.4 82.6,47.1 
		83.3,49.7 81.5,48.1 	"/>
</g>
<g>
	<polygon id="star_59_" class="st0" points="4.1,65.2 4.8,62.6 3,60.9 5.2,60.9 5.9,58.3 6.6,60.9 8.8,60.9 7,62.6 7.7,65.2 
		5.9,63.6 	"/>
</g>
<g>
	<polygon id="star_60_" class="st0" points="14.9,65.2 15.6,62.6 13.8,60.9 16,60.9 16.7,58.3 17.4,60.9 19.6,60.9 17.8,62.6 
		18.5,65.2 16.7,63.6 	"/>
</g>
<g>
	<polygon id="star_61_" class="st0" points="25.7,65.2 26.4,62.6 24.6,60.9 26.8,60.9 27.5,58.3 28.2,60.9 30.4,60.9 28.6,62.6 
		29.3,65.2 27.5,63.6 	"/>
</g>
<g>
	<polygon id="star_62_" class="st0" points="36.5,65.2 37.2,62.6 35.4,60.9 37.6,60.9 38.3,58.3 39,60.9 41.2,60.9 39.4,62.6 
		40.1,65.2 38.3,63.6 	"/>
</g>
<g>
	<polygon id="star_63_" class="st0" points="47.3,65.2 48,62.6 46.2,60.9 48.4,60.9 49.1,58.3 49.8,60.9 52,60.9 50.2,62.6 
		50.9,65.2 49.1,63.6 	"/>
</g>
<g>
	<polygon id="star_64_" class="st0" points="58.1,65.2 58.8,62.6 57,60.9 59.2,60.9 59.9,58.3 60.6,60.9 62.8,60.9 61,62.6 
		61.7,65.2 59.9,63.6 	"/>
</g>
<g>
	<polygon id="star_65_" class="st0" points="68.9,65.2 69.6,62.6 67.8,60.9 70,60.9 70.7,58.3 71.4,60.9 73.6,60.9 71.8,62.6 
		72.5,65.2 70.7,63.6 	"/>
</g>
<g>
	<polygon id="star_66_" class="st0" points="79.7,65.2 80.4,62.6 78.6,60.9 80.8,60.9 81.5,58.3 82.2,60.9 84.4,60.9 82.6,62.6 
		83.3,65.2 81.5,63.6 	"/>
</g>
</svg>
