<?xml version="1.0" encoding="utf-8"?>
<!-- Generator: Adobe Illustrator 22.1.0, SVG Export Plug-In . SVG Version: 6.00 Build 0)  -->
<svg version="1.1" id="layer_1" xmlns="http://www.w3.org/2000/svg" xmlns:xlink="http://www.w3.org/1999/xlink" x="0px" y="0px"
	 viewBox="0 0 216 144" style="enable-background:new 0 0 216 144;" xml:space="preserve">
<style type="text/css">
	.st0{fill:#FFFFFF;}
	.st1{fill:#4D69AD;}
	.st2{fill:#F0BC44;stroke:#000000;stroke-width:0.2667;}
	.st3{fill:#F0BC44;stroke:#000000;stroke-width:0.3839;}
	.st4{stroke:#000000;stroke-width:0.3839;}
	.st5{display:none;fill:none;stroke:#000000;stroke-width:2.0924;}
</style>
<g>
	<rect x="0.4" y="0.1" class="st0" width="215.6" height="143.7"/>
	<rect x="73.9" y="15.8" class="st1" width="141.4" height="16.1"/>
	<rect x="74.3" y="48.2" class="st1" width="141.4" height="16.1"/>
	<rect x="0.5" y="80.5" class="st1" width="215.5" height="16.1"/>
	<rect x="1.5" y="112.9" class="st1" width="214.2" height="16.1"/>
	<g>
		<g>
			<path class="st2" d="M46.1,49.8c4.7,3.1,10.9,0.9,11.7,0.4c0.8-0.5,4.4-1,5.5,0.9c1-2.4-4.8-5-5.6-5.1c-3.5-0.4-6.9-4.8-7.8-6.3
				c5.4-1.4,8.6-7.5,8.8-8.4c0.2-0.9,2.5-4.1,4.5-3.5c-0.9-2.5-6.7,0.2-7.3,0.7c-2.7,2.4-8.4,1.8-10,1.5c2.9-5.1,0.8-11.8,0.4-12.6
				c-0.4-0.8-0.9-4.8,0.9-5.9c-2.2-1.1-4.6,5.2-4.7,6c-0.4,3.8-4.7,7.7-6,8.7c-1.3-5.8-7.1-9-7.9-9.2c-0.8-0.2-3.8-2.7-3.3-4.8
				c-2.3,0.9,0.1,7.2,0.6,7.8c2.2,2.9,1.8,8.7,1.5,10.4c-4.7-3.1-10.9-1.3-11.6-0.8c-0.8,0.5-4.4,1-5.5-0.9c-1,2.4,4.8,5,5.6,5.1
				c3.5,0.4,7.1,5,8.1,6.5c-5.4,1.4-8.3,7.6-8.6,8.5c-0.2,0.9-2.5,4.1-4.5,3.5c0.9,2.5,6.7-0.2,7.3-0.7c2.7-2.4,8.1-1.9,9.8-1.6
				c-2.9,5.1-1.1,11.7-0.7,12.5c0.4,0.8,0.9,4.8-0.9,5.9c2.2,1.1,4.6-5.2,4.7-6c0.4-3.8,4.6-7.5,6-8.5c1.3,5.8,7.1,9.2,7.9,9.4
				c0.8,0.2,3.8,2.7,3.3,4.8c2.3-0.9-0.1-7.2-0.6-7.8c-2.2-2.9-1.7-9.1-1.4-10.8"/>
		</g>
		<polygon class="st2" points="39,34 57.5,17 42.4,37.6 66.6,39.7 42.4,42.7 58.3,62.7 39.2,46.3 37.2,72.5 34.4,46.4 15.9,63.5 
			31.1,42.9 6.8,40.8 31,37.8 15.2,17.8 34.2,34.1 36.2,7.9 		"/>
		<path class="st3" d="M40.5,29.8c-5.3-2.2-11.2,0.6-13.3,6.2c-2.1,5.7,0.5,12.1,5.8,14.3c5.3,2.2,11.2-0.6,13.3-6.2
			C48.4,38.5,45.8,32.1,40.5,29.8z"/>
		<g>
			<path class="st3" d="M33.3,48.5c1-1.7,5.1-2.3,6.8-0.2"/>
			<path class="st3" d="M30.7,34.8c0.6-0.6,3.1-1.1,4.3,0.2"/>
			<path class="st3" d="M31.1,36.9c-1.1-0.2,2.2-1.7,3.3-0.6c1.2,1.1,0.8,0.2,0.8,0.2c-0.8,0.6-0.6,1.3-2,1.5
				C31.9,38.2,32.1,37.2,31.1,36.9z"/>
			<path class="st4" d="M32.9,36.3c0.3,0,0.6,0.3,0.6,0.6c0,0.3-0.2,0.6-0.6,0.6c-0.3,0-0.6-0.3-0.6-0.6
				C32.3,36.6,32.6,36.3,32.9,36.3z"/>
			<path class="st3" d="M42.2,34.8c-0.6-0.6-3.1-1.1-4.3,0.2"/>
			<path class="st3" d="M39,41c0.4,0.6,0.2,1.3-0.4,1.1c-0.6-0.2-1.3,0-1.3,0l-0.7,0.1l0,0c0,0-0.6-0.3-2-0.1
				c-0.6,0.1-0.8-0.4-0.4-1.1"/>
			<path class="st3" d="M42.2,36.9c1.1-0.2-2.2-1.7-3.3-0.6c-1.2,1.1-0.8,0.2-0.8,0.2c0.8,0.6,0.6,1.3,2,1.5
				C41.4,38.2,41.2,37.2,42.2,36.9z"/>
			<path class="st4" d="M40.4,36.3c-0.3,0-0.6,0.3-0.6,0.6c0,0.3,0.2,0.6,0.6,0.6s0.6-0.3,0.6-0.6C41,36.6,40.7,36.3,40.4,36.3z"/>
			<path class="st3" d="M36.7,43.9l1-0.6c0,0,2,0,2.3,0.6c0.4,0.6,1.4,0.4,1.4,0.4c-0.6,0.2-2.2,1.5-4.7,1.3
				c-2.5,0.2-4.1-1.1-4.7-1.3c0,0,1,0.2,1.4-0.4c0.4-0.6,2.3-0.6,2.3-0.6L36.7,43.9"/>
			<polyline class="st3" points="30.9,44.3 36.6,44.5 41.9,44.3 			"/>
		</g>
	</g>
	<rect x="0.4" y="-0.1" class="st5" width="215.6" height="143.7"/>
</g>
</svg>
