<?xml version="1.0" encoding="utf-8"?>
<!-- Generator: Adobe Illustrator 22.1.0, SVG Export Plug-In . SVG Version: 6.00 Build 0)  -->
<svg version="1.1" id="layer_1" xmlns="http://www.w3.org/2000/svg" xmlns:xlink="http://www.w3.org/1999/xlink" x="0px" y="0px"
	 viewBox="0 0 216 144" style="enable-background:new 0 0 216 144;" xml:space="preserve">
<style type="text/css">
	.st0{fill:#4A7FC0;}
	.st1{fill:#FFF243;}
	.st2{fill:#D14A48;}
	.st3{fill:#FFFFFF;}
</style>
<rect x="0.5" y="48.5" class="st0" width="216" height="48"/>
<rect x="0.5" y="0.5" class="st1" width="216" height="48"/>
<rect x="0.5" y="96.5" class="st2" width="216" height="48"/>
<g>
	<polygon class="st3" points="108.5,57.4 107.4,60.8 103.7,60.8 106.7,63 105.6,66.5 108.5,64.3 111.5,66.5 110.4,63 113.3,60.8 
		109.7,60.8 	"/>
	<polygon class="st3" points="93.9,59.9 92.8,63.4 89.1,63.4 92.1,65.6 90.9,69 93.9,66.9 96.8,69 95.7,65.5 98.7,63.4 95,63.4 	"/>
	<polygon class="st3" points="81,67.3 79.9,70.8 76.2,70.8 79.2,73 78.1,76.4 81,74.3 84,76.4 82.9,72.9 85.8,70.8 82.2,70.8 	"/>
	<polygon class="st3" points="71.5,78.7 70.4,82.2 66.7,82.2 69.7,84.3 68.5,87.8 71.5,85.7 74.4,87.8 73.3,84.3 76.3,82.2 
		72.6,82.2 	"/>
	<polygon class="st3" points="123.1,59.9 124.2,63.4 127.9,63.4 124.9,65.6 126.1,69 123.1,66.9 120.2,69 121.3,65.5 118.3,63.4 
		122,63.4 	"/>
	<polygon class="st3" points="136,67.3 137.1,70.8 140.8,70.8 137.8,73 138.9,76.4 136,74.3 133,76.4 134.1,72.9 131.2,70.8 
		134.8,70.8 	"/>
	<polygon class="st3" points="145.5,78.7 146.6,82.2 150.3,82.2 147.3,84.3 148.5,87.8 145.5,85.7 142.6,87.8 143.7,84.3 
		140.7,82.2 144.4,82.2 	"/>
</g>
</svg>
