<?xml version="1.0" encoding="utf-8"?>
<!-- Generator: Adobe Illustrator 22.1.0, SVG Export Plug-In . SVG Version: 6.00 Build 0)  -->
<svg version="1.1" id="layer_1" xmlns="http://www.w3.org/2000/svg" xmlns:xlink="http://www.w3.org/1999/xlink" x="0px" y="0px"
	 viewBox="0 0 216 144" style="enable-background:new 0 0 216 144;" xml:space="preserve">
<style type="text/css">
	.st0{fill:#D66547;}
	.st1{fill:#4861A0;}
	.st2{fill:#FFFFFF;}
	.st3{fill:#469166;}
	.st4{fill:#EDB763;}
	.st5{fill:#201600;}
</style>
<rect x="0.5" y="0" class="st0" width="216" height="72"/>
<rect x="0.5" y="72" class="st1" width="216" height="72"/>
<polygon class="st2" points="216.5,48 115.8,48 43.8,0 26.5,0 112.9,57.6 216.5,57.6 "/>
<polygon class="st2" points="216.5,96 115.8,96 43.8,144 26.5,144 112.9,86.4 216.5,86.4 "/>
<polygon class="st3" points="82.5,72 0.5,126.7 0.5,144 26.5,144 112.9,86.4 216.5,86.4 216.5,57.6 112.9,57.6 26.5,0 0.5,0 
	0.5,17.3 "/>
<polygon class="st4" points="82.5,72 0.5,126.7 0.5,115.2 65.2,72 0.5,28.8 0.5,17.3 "/>
<polygon class="st5" points="0.5,115.2 65.2,72 0.5,28.8 "/>
</svg>
