<svg id="Слой_1" xmlns="http://www.w3.org/2000/svg" viewBox="0 0 79.9 67.6">
  <path fill="#0C6FBA" class="st0" d="M1.7 57.2H5v6c0 .8.7 1.5 1.5 1.5S8 64 8 63.2v-6h2.9c.8 0 1.5-.7 1.5-1.5V35.5c0-.8-.7-1.5-1.5-1.5H8.1v-6.6c0-.8-.7-1.5-1.5-1.5S5 26.5 5 27.3v6.6H1.7c-.8 0-1.5.7-1.5 1.5v20.3c0 .9.6 1.5 1.5 1.5zM3.2 37h6.2v17.2H3.2V37zM18.4 50.3h3.3v6c0 .8.7 1.5 1.5 1.5s1.5-.7 1.5-1.5v-6h2.9c.8 0 1.5-.7 1.5-1.5V28.5c0-.8-.7-1.5-1.5-1.5h-2.9v-6.6c0-.8-.7-1.5-1.5-1.5s-1.5.7-1.5 1.5V27h-3.3c-.8 0-1.5.7-1.5 1.5v20.3c0 .8.6 1.5 1.5 1.5zM19.9 30h6.2v17.2h-6.2V30zM35.1 60.1h3.7v6c0 .8.7 1.5 1.5 1.5s1.5-.7 1.5-1.5v-6h3.1c.8 0 1.5-.7 1.5-1.5V38.3c0-.8-.7-1.5-1.5-1.5h-3.1v-6.6c0-.8-.7-1.5-1.5-1.5s-1.5.7-1.5 1.5v6.6h-3.7c-.8 0-1.5.7-1.5 1.5v20.3c-.1.8.6 1.5 1.5 1.5zM52.4 41.2h3.4v6c0 .8.7 1.5 1.5 1.5s1.5-.7 1.5-1.5v-6h2.9c.8 0 1.5-.7 1.5-1.5v-18c0-.8-.7-1.5-1.5-1.5h-2.9v-6.6c0-.8-.7-1.5-1.5-1.5s-1.5.7-1.5 1.5v6.6h-3.4c-.8 0-1.5.7-1.5 1.5v18c-.1.8.6 1.5 1.5 1.5zm1.5-18h6.2v14.9h-6.2V23.2zM69.1 29.1h3.4v6c0 .8.7 1.5 1.5 1.5s1.5-.7 1.5-1.5v-6h2.9c.8 0 1.5-.7 1.5-1.5v-18c0-.8-.7-1.5-1.5-1.5h-2.9V1.5C75.5.7 74.8 0 74 0s-1.5.7-1.5 1.5v6.6h-3.4c-.8 0-1.5.7-1.5 1.5v18c0 .8.6 1.5 1.5 1.5zm1.5-17.9h6.2v14.9h-6.2V11.2z"/>
</svg>